G04 #@! TF.FileFunction,Copper,L1,Top,Signal*
%FSLAX46Y46*%
G04 Gerber Fmt 4.6, Leading zero omitted, Abs format (unit mm)*
G04 Created by KiCad (PCBNEW 4.0.6+dfsg1-1) date Sun Aug 13 23:01:47 2017*
%MOMM*%
%LPD*%
G01*
G04 APERTURE LIST*
%ADD10C,0.100000*%
%ADD11R,5.000000X1.500000*%
%ADD12R,1.700000X1.700000*%
%ADD13O,1.700000X1.700000*%
%ADD14R,0.800000X0.900000*%
%ADD15R,1.070000X2.160000*%
%ADD16R,8.330000X6.990000*%
%ADD17R,1.800000X2.500000*%
%ADD18R,1.800000X1.800000*%
%ADD19C,1.800000*%
%ADD20R,1.200000X0.900000*%
%ADD21R,1.500000X1.300000*%
%ADD22R,0.900000X1.200000*%
%ADD23R,5.300000X2.800000*%
%ADD24C,13.500000*%
%ADD25C,6.000000*%
%ADD26C,4.000000*%
%ADD27C,1.500000*%
%ADD28R,3.500000X3.500000*%
%ADD29R,0.800000X0.600000*%
%ADD30R,0.750000X0.800000*%
%ADD31C,0.600000*%
%ADD32C,2.500000*%
%ADD33C,1.000000*%
%ADD34C,0.800000*%
%ADD35C,2.000000*%
%ADD36C,0.400000*%
%ADD37C,0.500000*%
%ADD38C,1.000000*%
%ADD39C,0.250000*%
%ADD40C,0.254000*%
G04 APERTURE END LIST*
D10*
D11*
X124968000Y-110744000D03*
X115718000Y-110744000D03*
D12*
X136652000Y-80250000D03*
D13*
X134112000Y-80250000D03*
X131572000Y-80250000D03*
D14*
X99200000Y-108225000D03*
X97300000Y-108225000D03*
X98250000Y-110225000D03*
D12*
X155638000Y-120304000D03*
D13*
X153098000Y-120304000D03*
X155638000Y-117764000D03*
X153098000Y-117764000D03*
X155638000Y-115224000D03*
X153098000Y-115224000D03*
X155638000Y-112684000D03*
X153098000Y-112684000D03*
X155638000Y-110144000D03*
X153098000Y-110144000D03*
X155638000Y-107604000D03*
X153098000Y-107604000D03*
X155638000Y-105064000D03*
X153098000Y-105064000D03*
X155638000Y-102524000D03*
X153098000Y-102524000D03*
X155638000Y-99984000D03*
X153098000Y-99984000D03*
X155638000Y-97444000D03*
X153098000Y-97444000D03*
X155638000Y-94904000D03*
X153098000Y-94904000D03*
X155638000Y-92364000D03*
X153098000Y-92364000D03*
X155638000Y-89824000D03*
X153098000Y-89824000D03*
X155638000Y-87284000D03*
X153098000Y-87284000D03*
X155638000Y-84744000D03*
X153098000Y-84744000D03*
X155638000Y-82204000D03*
X153098000Y-82204000D03*
D15*
X110420000Y-106340000D03*
X108720000Y-106340000D03*
X105320000Y-106340000D03*
X107020000Y-106340000D03*
X103620000Y-106340000D03*
D16*
X106970000Y-99040000D03*
D11*
X120560000Y-94490000D03*
X129810000Y-94490000D03*
D17*
X114500000Y-100530000D03*
X114500000Y-96530000D03*
D18*
X114046000Y-81153000D03*
D19*
X111506000Y-81153000D03*
D20*
X114892000Y-122174000D03*
X112692000Y-122174000D03*
X114892000Y-120396000D03*
X112692000Y-120396000D03*
D21*
X96550000Y-105725000D03*
X99250000Y-105725000D03*
D20*
X112057000Y-87249000D03*
X114257000Y-87249000D03*
X112057000Y-85090000D03*
X114257000Y-85090000D03*
D22*
X116586000Y-85260000D03*
X116586000Y-87460000D03*
D23*
X142350000Y-87510000D03*
X142350000Y-97610000D03*
D12*
X138938000Y-122936000D03*
D13*
X136398000Y-122936000D03*
X133858000Y-122936000D03*
X131318000Y-122936000D03*
D24*
X140175000Y-111075000D03*
D25*
X122075000Y-82450000D03*
X147025000Y-82450000D03*
X147025000Y-120950000D03*
X122075000Y-120950000D03*
D26*
X160950000Y-95400000D03*
X166650000Y-95400000D03*
X160950000Y-108700000D03*
X166650000Y-108700000D03*
D27*
X163950000Y-105550000D03*
X163950000Y-103050000D03*
X163950000Y-98550000D03*
X163950000Y-101050000D03*
X161350000Y-98550000D03*
X161350000Y-101050000D03*
X161350000Y-103050000D03*
X161350000Y-105550000D03*
D26*
X97874000Y-94728000D03*
D28*
X97874000Y-101728000D03*
D29*
X122478800Y-89814400D03*
X122478800Y-88114400D03*
D20*
X122496400Y-91592400D03*
X124696400Y-91592400D03*
D30*
X124663200Y-88212800D03*
X124663200Y-89712800D03*
D31*
X114500000Y-96530000D03*
X108839000Y-93482160D03*
X111600000Y-96530000D03*
D32*
X105679240Y-100761800D03*
D31*
X103499920Y-94325440D03*
X124396596Y-92511073D03*
D33*
X118998877Y-105726123D03*
D31*
X109748320Y-86334600D03*
X113924080Y-88463120D03*
X145219600Y-90373200D03*
D34*
X124937589Y-110831046D03*
D33*
X117200000Y-108725000D03*
D27*
X106295761Y-109104229D03*
D31*
X121802554Y-94409611D03*
D34*
X116300000Y-120125000D03*
D31*
X110420000Y-108420000D03*
D27*
X127208280Y-92232480D03*
X121239893Y-98901831D03*
X116575840Y-105283000D03*
D31*
X120716040Y-86781640D03*
X114239040Y-86029800D03*
D27*
X131572000Y-84074000D03*
X128200000Y-125000000D03*
D33*
X143075000Y-119225000D03*
D27*
X108458851Y-108157682D03*
D31*
X135585585Y-98349990D03*
X137862358Y-99171256D03*
X121611758Y-113763242D03*
X121725000Y-112050000D03*
X110205520Y-84424520D03*
X148300052Y-114048999D03*
X147851464Y-112873536D03*
X122326400Y-104023160D03*
X124058680Y-104968040D03*
X115143280Y-88630760D03*
X147575000Y-112000000D03*
X100825000Y-108300000D03*
X142325797Y-104081458D03*
X150088232Y-106368827D03*
X142305518Y-103281703D03*
X142396123Y-102486839D03*
X143377156Y-101825009D03*
X136850000Y-95699936D03*
X142891869Y-99510012D03*
X139247880Y-102951280D03*
X133908800Y-98907600D03*
X130759200Y-96520000D03*
X145868676Y-87181439D03*
X147370800Y-86724432D03*
X145700002Y-86399421D03*
X136075000Y-89375000D03*
X135525000Y-91225000D03*
X124471990Y-100625000D03*
X142725000Y-95250000D03*
X141033656Y-95688190D03*
X138075848Y-88970861D03*
X146900000Y-96475000D03*
X143375000Y-101025000D03*
X129750000Y-113250000D03*
X147278596Y-108568025D03*
X149300000Y-110175000D03*
X126273889Y-108540320D03*
X123388459Y-109376794D03*
X115271409Y-108125021D03*
X118272449Y-101452551D03*
X115557002Y-85415120D03*
X112227360Y-88524080D03*
X116100002Y-101640640D03*
X101909880Y-106740960D03*
X149666960Y-118252240D03*
D34*
X124190760Y-106349800D03*
X125110240Y-102707440D03*
X125222000Y-98663760D03*
X125526800Y-86720680D03*
D31*
X114718167Y-102280012D03*
X112703468Y-94510230D03*
X106873040Y-94345760D03*
D35*
X120560000Y-94490000D02*
X116545577Y-94496095D01*
X116540000Y-94490000D02*
X114500000Y-96530000D01*
X116545577Y-94496095D02*
X116540000Y-94490000D01*
X111600000Y-96530000D02*
X107500460Y-100629540D01*
X114500000Y-96530000D02*
X111600000Y-96530000D01*
D36*
X124627727Y-92511073D02*
X124396596Y-92511073D01*
X124696400Y-92442400D02*
X124627727Y-92511073D01*
X124696400Y-91592400D02*
X124696400Y-92442400D01*
D37*
X117200000Y-107525000D02*
X118998877Y-105726123D01*
X117200000Y-108725000D02*
X117200000Y-107525000D01*
D36*
X114257000Y-87249000D02*
X114257000Y-88130200D01*
X114257000Y-88130200D02*
X113924080Y-88463120D01*
X160950000Y-95400000D02*
X158121573Y-95400000D01*
X158121573Y-95400000D02*
X156375572Y-93653999D01*
X156375572Y-93653999D02*
X148500399Y-93653999D01*
X148500399Y-93653999D02*
X145219600Y-90373200D01*
D35*
X125503274Y-110831046D02*
X124937589Y-110831046D01*
X126630954Y-110831046D02*
X125503274Y-110831046D01*
X126718000Y-110744000D02*
X126630954Y-110831046D01*
D36*
X124696400Y-91592400D02*
X124696400Y-89746000D01*
X124696400Y-89746000D02*
X124663200Y-89712800D01*
D38*
X155638000Y-120304000D02*
X155638000Y-120812000D01*
X106963396Y-109104229D02*
X106295761Y-109104229D01*
X107666850Y-109807683D02*
X106963396Y-109104229D01*
X106295761Y-108043569D02*
X106295761Y-109104229D01*
X107020000Y-106340000D02*
X107020000Y-107319330D01*
X107020000Y-107319330D02*
X106295761Y-108043569D01*
X153098000Y-120304000D02*
X152546000Y-120304000D01*
X153098000Y-120304000D02*
X155638000Y-120304000D01*
D36*
X114892000Y-120396000D02*
X116029000Y-120396000D01*
X116029000Y-120396000D02*
X116300000Y-120125000D01*
D38*
X109250852Y-109807683D02*
X107666850Y-109807683D01*
X110108852Y-108949683D02*
X109250852Y-109807683D01*
X110108852Y-108731148D02*
X110108852Y-108949683D01*
X110420000Y-108420000D02*
X110108852Y-108731148D01*
X127208280Y-92232480D02*
X127552480Y-92232480D01*
X127552480Y-92232480D02*
X129810000Y-94490000D01*
X116575840Y-105283000D02*
X121239893Y-100618947D01*
X121239893Y-100618947D02*
X121239893Y-98901831D01*
D36*
X119024400Y-86710520D02*
X120644920Y-86710520D01*
X120644920Y-86710520D02*
X120716040Y-86781640D01*
X118506121Y-86192241D02*
X119024400Y-86710520D01*
X118445280Y-85989160D02*
X118506121Y-86050001D01*
X118506121Y-86050001D02*
X118506121Y-86192241D01*
X118445280Y-84989278D02*
X118445280Y-85989160D01*
X114257000Y-85090000D02*
X114407000Y-85090000D01*
X114407000Y-85090000D02*
X115437001Y-84059999D01*
X115437001Y-84059999D02*
X117516001Y-84059999D01*
X117516001Y-84059999D02*
X118445280Y-84989278D01*
X114239040Y-86029800D02*
X114239040Y-85107960D01*
X114239040Y-85107960D02*
X114257000Y-85090000D01*
X131572000Y-80250000D02*
X131572000Y-84074000D01*
D35*
X131572000Y-84074000D02*
X137664000Y-84074000D01*
X137664000Y-84074000D02*
X137700000Y-84110000D01*
D37*
X138938000Y-122936000D02*
X140288000Y-122936000D01*
X158299999Y-122200001D02*
X158299999Y-107427999D01*
X140288000Y-122936000D02*
X141952001Y-124600001D01*
X141952001Y-124600001D02*
X155899999Y-124600001D01*
X155899999Y-124600001D02*
X158299999Y-122200001D01*
X160177998Y-105550000D02*
X161350000Y-105550000D01*
X158299999Y-107427999D02*
X160177998Y-105550000D01*
X161350000Y-105550000D02*
X163950000Y-105550000D01*
D38*
X143075000Y-119225000D02*
X145385999Y-116914001D01*
X145385999Y-116914001D02*
X152248001Y-116914001D01*
X152248001Y-116914001D02*
X153098000Y-117764000D01*
X108458851Y-107097022D02*
X108458851Y-108157682D01*
X108458851Y-106601149D02*
X108458851Y-107097022D01*
X108720000Y-106340000D02*
X108458851Y-106601149D01*
X128200000Y-125000000D02*
X138724000Y-125000000D01*
X138724000Y-125000000D02*
X138938000Y-124786000D01*
X138938000Y-124786000D02*
X138938000Y-122936000D01*
D35*
X137700000Y-84110000D02*
X141100000Y-87510000D01*
X133398996Y-84110000D02*
X137700000Y-84110000D01*
X129810000Y-87698996D02*
X133398996Y-84110000D01*
X129810000Y-94490000D02*
X129810000Y-87698996D01*
X141100000Y-87510000D02*
X142350000Y-87510000D01*
D37*
X152809001Y-117475001D02*
X153098000Y-117764000D01*
D36*
X134584534Y-100275013D02*
X135585585Y-99273962D01*
X131534951Y-100275013D02*
X134584534Y-100275013D01*
X130334964Y-101475000D02*
X131534951Y-100275013D01*
X123125000Y-101475000D02*
X130334964Y-101475000D01*
X123125000Y-98688636D02*
X123125000Y-101475000D01*
X121988193Y-97551829D02*
X123125000Y-98688636D01*
X117478171Y-97551829D02*
X121988193Y-97551829D01*
X135585585Y-99273962D02*
X135585585Y-98349990D01*
X114500000Y-100530000D02*
X117478171Y-97551829D01*
X142350000Y-97610000D02*
X139300000Y-97610000D01*
X137862358Y-99047642D02*
X137862358Y-99171256D01*
X139300000Y-97610000D02*
X137862358Y-99047642D01*
D38*
X111530000Y-103850000D02*
X105730000Y-103850000D01*
X105730000Y-103850000D02*
X105320000Y-104260000D01*
X105320000Y-104260000D02*
X105320000Y-106340000D01*
X114500000Y-100530000D02*
X114500000Y-100880000D01*
X114500000Y-100880000D02*
X111530000Y-103850000D01*
D36*
X121725000Y-112050000D02*
X121725000Y-113650000D01*
X121725000Y-113650000D02*
X121611758Y-113763242D01*
X110205520Y-84424520D02*
X111391520Y-84424520D01*
X111391520Y-84424520D02*
X112057000Y-85090000D01*
X112057000Y-85090000D02*
X112057000Y-83142000D01*
X112057000Y-83142000D02*
X114046000Y-81153000D01*
X112207000Y-85090000D02*
X112057000Y-85090000D01*
D39*
X155638000Y-115224000D02*
X154462999Y-114048999D01*
X154462999Y-114048999D02*
X148300052Y-114048999D01*
X155638000Y-112684000D02*
X154462999Y-111508999D01*
X154462999Y-111508999D02*
X149216001Y-111508999D01*
X149216001Y-111508999D02*
X147851464Y-112873536D01*
X124058680Y-104968040D02*
X123271280Y-104968040D01*
X123271280Y-104968040D02*
X122326400Y-104023160D01*
D36*
X115143280Y-88630760D02*
X115415240Y-88630760D01*
X115415240Y-88630760D02*
X116586000Y-87460000D01*
D39*
X147575000Y-112000000D02*
X147874999Y-111700001D01*
X147874999Y-110500001D02*
X149375000Y-109000000D01*
X147874999Y-111700001D02*
X147874999Y-110500001D01*
X149375000Y-109000000D02*
X149799264Y-109000000D01*
X149799264Y-109000000D02*
X149830265Y-108968999D01*
X149830265Y-108968999D02*
X154462999Y-108968999D01*
X154462999Y-108968999D02*
X155638000Y-110144000D01*
X98250000Y-110225000D02*
X98900000Y-110225000D01*
X98900000Y-110225000D02*
X100825000Y-108300000D01*
X146906458Y-104081458D02*
X142325797Y-104081458D01*
X150088232Y-106368827D02*
X149193827Y-106368827D01*
X149193827Y-106368827D02*
X146906458Y-104081458D01*
X98250000Y-110225000D02*
X98250000Y-110175000D01*
X146743114Y-103281703D02*
X142305518Y-103281703D01*
X150388234Y-105743825D02*
X149205236Y-105743825D01*
X155638000Y-105064000D02*
X154462999Y-106239001D01*
X154462999Y-106239001D02*
X150883410Y-106239001D01*
X149205236Y-105743825D02*
X146743114Y-103281703D01*
X150883410Y-106239001D02*
X150388234Y-105743825D01*
X155638000Y-102524000D02*
X154462999Y-103699001D01*
X154462999Y-103699001D02*
X147796821Y-103699001D01*
X147796821Y-103699001D02*
X146584659Y-102486839D01*
X146584659Y-102486839D02*
X142396123Y-102486839D01*
D36*
X151906991Y-101825009D02*
X143377156Y-101825009D01*
X152497999Y-101234001D02*
X151906991Y-101825009D01*
X154387999Y-101234001D02*
X152497999Y-101234001D01*
X155638000Y-99984000D02*
X154387999Y-101234001D01*
X137930098Y-100249998D02*
X137149999Y-99469899D01*
X137149999Y-95999935D02*
X136850000Y-95699936D01*
X155638000Y-97444000D02*
X154387999Y-98694001D01*
X144411004Y-101050000D02*
X143611002Y-100249998D01*
X137149999Y-99469899D02*
X137149999Y-95999935D01*
X150181998Y-101050000D02*
X144411004Y-101050000D01*
X154387999Y-98694001D02*
X152537997Y-98694001D01*
X143611002Y-100249998D02*
X137930098Y-100249998D01*
X152537997Y-98694001D02*
X150181998Y-101050000D01*
D39*
X145139992Y-99510012D02*
X142891869Y-99510012D01*
X155638000Y-94904000D02*
X154462999Y-96079001D01*
X154462999Y-96079001D02*
X148571003Y-96079001D01*
X148571003Y-96079001D02*
X145139992Y-99510012D01*
X139247880Y-102951280D02*
X139247880Y-103375544D01*
X139247880Y-103375544D02*
X140175000Y-104302664D01*
X140175000Y-104302664D02*
X140175000Y-111075000D01*
X130759200Y-96520000D02*
X131521200Y-96520000D01*
X131521200Y-96520000D02*
X133908800Y-98907600D01*
X145868676Y-87181439D02*
X146292940Y-87181439D01*
X146292940Y-87181439D02*
X147570502Y-88459001D01*
X147570502Y-88459001D02*
X154462999Y-88459001D01*
X154462999Y-88459001D02*
X155638000Y-87284000D01*
X148307981Y-86724432D02*
X147370800Y-86724432D01*
X154273001Y-86108999D02*
X148923414Y-86108999D01*
X155638000Y-84744000D02*
X154273001Y-86108999D01*
X148923414Y-86108999D02*
X148307981Y-86724432D01*
X148621001Y-85775001D02*
X151922999Y-82473003D01*
X154462999Y-81028999D02*
X155638000Y-82204000D01*
X146324422Y-85775001D02*
X148621001Y-85775001D01*
X152533999Y-81028999D02*
X154462999Y-81028999D01*
X145700002Y-86399421D02*
X146324422Y-85775001D01*
X151922999Y-82473003D02*
X151922999Y-81639999D01*
X151922999Y-81639999D02*
X152533999Y-81028999D01*
X135525000Y-89925000D02*
X136075000Y-89375000D01*
X135525000Y-91225000D02*
X135525000Y-89925000D01*
D36*
X134336002Y-99675002D02*
X125421988Y-99675002D01*
X134760274Y-95905117D02*
X134760274Y-99250730D01*
X136265467Y-94399924D02*
X134760274Y-95905117D01*
X141874924Y-94399924D02*
X136265467Y-94399924D01*
X125421988Y-99675002D02*
X124471990Y-100625000D01*
X142725000Y-95250000D02*
X141874924Y-94399924D01*
X134760274Y-99250730D02*
X134336002Y-99675002D01*
X112692000Y-120396000D02*
X112692000Y-118130994D01*
X140345401Y-94999935D02*
X141033656Y-95688190D01*
X136149998Y-97903089D02*
X136149999Y-95363935D01*
X136513999Y-94999935D02*
X140345401Y-94999935D01*
X136285587Y-99422503D02*
X136285587Y-98038678D01*
X134833066Y-100875024D02*
X136285587Y-99422503D01*
X112692000Y-118130994D02*
X123072992Y-107750002D01*
X136149999Y-95363935D02*
X136513999Y-94999935D01*
X132431646Y-100875024D02*
X134833066Y-100875024D01*
X125556668Y-107750002D02*
X132431646Y-100875024D01*
X136285587Y-98038678D02*
X136149998Y-97903089D01*
X123072992Y-107750002D02*
X125556668Y-107750002D01*
D39*
X112692000Y-122174000D02*
X112499000Y-122174000D01*
X112692000Y-120396000D02*
X112692000Y-122174000D01*
D36*
X140560013Y-90135013D02*
X139240000Y-90135013D01*
X139240000Y-90135013D02*
X138075848Y-88970861D01*
X146900000Y-96475000D02*
X140560013Y-90135013D01*
X129750000Y-113250000D02*
X129750000Y-111100002D01*
X129750000Y-111100002D02*
X139825002Y-101025000D01*
X139825002Y-101025000D02*
X143375000Y-101025000D01*
X148242621Y-107604000D02*
X147278596Y-108568025D01*
X153098000Y-107604000D02*
X148242621Y-107604000D01*
D39*
X153098000Y-110144000D02*
X149331000Y-110144000D01*
X149331000Y-110144000D02*
X149300000Y-110175000D01*
D37*
X153004000Y-110050000D02*
X153098000Y-110144000D01*
D39*
X123388459Y-109376794D02*
X125437415Y-109376794D01*
X125437415Y-109376794D02*
X126273889Y-108540320D01*
D36*
X114971410Y-107825022D02*
X115271409Y-108125021D01*
X114971410Y-104753590D02*
X114971410Y-107825022D01*
X118272449Y-101452551D02*
X114971410Y-104753590D01*
D35*
X96550000Y-107475000D02*
X97300000Y-108225000D01*
X96550000Y-105725000D02*
X96550000Y-107475000D01*
X96550000Y-105725000D02*
X95850998Y-105725000D01*
X95850998Y-105725000D02*
X94723999Y-104598001D01*
X94723999Y-104598001D02*
X94723999Y-97878001D01*
X94723999Y-97878001D02*
X97874000Y-94728000D01*
D36*
X116586000Y-85260000D02*
X115712122Y-85260000D01*
X115712122Y-85260000D02*
X115557002Y-85415120D01*
X112057000Y-88353720D02*
X112227360Y-88524080D01*
X112057000Y-87249000D02*
X112057000Y-88353720D01*
D39*
X113050320Y-105114586D02*
X113050320Y-107076320D01*
X113050320Y-107076320D02*
X115718000Y-109744000D01*
X115718000Y-109744000D02*
X115718000Y-110744000D01*
X116100002Y-101640640D02*
X116100002Y-102064904D01*
X116100002Y-102064904D02*
X113050320Y-105114586D01*
D37*
X149666960Y-118252240D02*
X151211280Y-119796560D01*
X151211280Y-119796560D02*
X151211280Y-120341282D01*
X157337760Y-121114242D02*
X157337760Y-119463760D01*
X157337760Y-119463760D02*
X155638000Y-117764000D01*
X153120198Y-122250200D02*
X156201802Y-122250200D01*
X156201802Y-122250200D02*
X157337760Y-121114242D01*
X151211280Y-120341282D02*
X153120198Y-122250200D01*
X125110240Y-102707440D02*
X125110240Y-105430320D01*
X125110240Y-105430320D02*
X124190760Y-106349800D01*
X120832880Y-89660320D02*
X120832880Y-92684600D01*
X120832880Y-92684600D02*
X121438279Y-93289999D01*
X121438279Y-93289999D02*
X123420001Y-93289999D01*
X123420001Y-93289999D02*
X125222000Y-95091998D01*
X125222000Y-95091998D02*
X125222000Y-98663760D01*
X122478800Y-88114400D02*
X122378800Y-88114400D01*
X122378800Y-88114400D02*
X120832880Y-89660320D01*
X124663200Y-88212800D02*
X122577200Y-88212800D01*
X122577200Y-88212800D02*
X122478800Y-88114400D01*
X125526800Y-86720680D02*
X125526800Y-87349200D01*
X125526800Y-87349200D02*
X124663200Y-88212800D01*
D36*
X124564800Y-88114400D02*
X124663200Y-88212800D01*
X122478800Y-89814400D02*
X122478800Y-91574800D01*
X122478800Y-91574800D02*
X122496400Y-91592400D01*
D39*
X111988179Y-105010000D02*
X114418168Y-102580011D01*
X111205000Y-105010000D02*
X111988179Y-105010000D01*
X110420000Y-105795000D02*
X111205000Y-105010000D01*
X110420000Y-106340000D02*
X110420000Y-105795000D01*
X114418168Y-102580011D02*
X114718167Y-102280012D01*
X112538998Y-94345760D02*
X112703468Y-94510230D01*
X106873040Y-94345760D02*
X112538998Y-94345760D01*
D40*
G36*
X104185000Y-104260000D02*
X104185000Y-104625000D01*
X103905750Y-104625000D01*
X103747000Y-104783750D01*
X103747000Y-106213000D01*
X103767000Y-106213000D01*
X103767000Y-106467000D01*
X103747000Y-106467000D01*
X103747000Y-107896250D01*
X103905750Y-108055000D01*
X104281310Y-108055000D01*
X104473218Y-107975509D01*
X104533110Y-108016431D01*
X104785000Y-108067440D01*
X105160761Y-108067440D01*
X105160761Y-108280271D01*
X105122300Y-108318665D01*
X104911002Y-108827527D01*
X104910521Y-109378514D01*
X105120930Y-109887744D01*
X105510197Y-110277690D01*
X106019059Y-110488988D01*
X106570046Y-110489469D01*
X106692788Y-110438753D01*
X106864284Y-110610249D01*
X107232504Y-110856286D01*
X107666850Y-110942683D01*
X109250852Y-110942683D01*
X109685198Y-110856286D01*
X110053418Y-110610249D01*
X110795977Y-109867690D01*
X112583000Y-109867690D01*
X112583000Y-110458250D01*
X112741750Y-110617000D01*
X115591000Y-110617000D01*
X115591000Y-109517750D01*
X115432250Y-109359000D01*
X113091691Y-109359000D01*
X112858302Y-109455673D01*
X112679673Y-109634301D01*
X112583000Y-109867690D01*
X110795977Y-109867690D01*
X110911418Y-109752249D01*
X110922581Y-109735543D01*
X111157455Y-109384029D01*
X111181380Y-109263752D01*
X111222566Y-109222566D01*
X111468603Y-108854345D01*
X111555000Y-108420000D01*
X111468603Y-107985655D01*
X111402454Y-107886656D01*
X111406441Y-107884090D01*
X111551431Y-107671890D01*
X111602440Y-107420000D01*
X111602440Y-105770000D01*
X111988179Y-105770000D01*
X112279018Y-105712148D01*
X112525580Y-105547401D01*
X113845981Y-104227000D01*
X114338317Y-104227000D01*
X114199971Y-104434049D01*
X114136410Y-104753590D01*
X114136410Y-107825022D01*
X114199971Y-108144563D01*
X114330849Y-108340436D01*
X114377744Y-108410619D01*
X114478292Y-108653964D01*
X114741082Y-108917213D01*
X115084610Y-109059859D01*
X115456576Y-109060183D01*
X115800352Y-108918138D01*
X116063601Y-108655348D01*
X116065063Y-108651827D01*
X116064803Y-108949775D01*
X116233892Y-109359000D01*
X116003750Y-109359000D01*
X115845000Y-109517750D01*
X115845000Y-110617000D01*
X118694250Y-110617000D01*
X118853000Y-110458250D01*
X118853000Y-109867690D01*
X118756327Y-109634301D01*
X118577698Y-109455673D01*
X118344309Y-109359000D01*
X118165700Y-109359000D01*
X118334803Y-108951756D01*
X118335197Y-108500225D01*
X118162767Y-108082914D01*
X118085000Y-108005011D01*
X118085000Y-107891580D01*
X119115354Y-106861226D01*
X119223652Y-106861320D01*
X119640963Y-106688890D01*
X119960522Y-106369888D01*
X120133680Y-105952879D01*
X120134074Y-105501348D01*
X119961644Y-105084037D01*
X119642642Y-104764478D01*
X119225633Y-104591320D01*
X118872960Y-104591012D01*
X119236972Y-104227000D01*
X121398954Y-104227000D01*
X121523000Y-104527216D01*
X121523000Y-108119126D01*
X118732688Y-110909438D01*
X118694250Y-110871000D01*
X115845000Y-110871000D01*
X115845000Y-111970250D01*
X116003750Y-112129000D01*
X117513126Y-112129000D01*
X112101566Y-117540560D01*
X111920561Y-117811453D01*
X111857000Y-118130994D01*
X111857000Y-119342778D01*
X111856683Y-119342838D01*
X111640559Y-119481910D01*
X111495569Y-119694110D01*
X111444560Y-119946000D01*
X111444560Y-120846000D01*
X111488838Y-121081317D01*
X111621607Y-121287647D01*
X111495569Y-121472110D01*
X111444560Y-121724000D01*
X111444560Y-122624000D01*
X111488838Y-122859317D01*
X111627910Y-123075441D01*
X111840110Y-123220431D01*
X112092000Y-123271440D01*
X113292000Y-123271440D01*
X113527317Y-123227162D01*
X113743441Y-123088090D01*
X113789969Y-123019994D01*
X113932302Y-123162327D01*
X114165691Y-123259000D01*
X114606250Y-123259000D01*
X114765000Y-123100250D01*
X114765000Y-122301000D01*
X115019000Y-122301000D01*
X115019000Y-123100250D01*
X115177750Y-123259000D01*
X115618309Y-123259000D01*
X115851698Y-123162327D01*
X116030327Y-122983699D01*
X116127000Y-122750310D01*
X116127000Y-122459750D01*
X115968250Y-122301000D01*
X115019000Y-122301000D01*
X114765000Y-122301000D01*
X114745000Y-122301000D01*
X114745000Y-122047000D01*
X114765000Y-122047000D01*
X114765000Y-122027000D01*
X115019000Y-122027000D01*
X115019000Y-122047000D01*
X115968250Y-122047000D01*
X116127000Y-121888250D01*
X116127000Y-121597690D01*
X116030327Y-121364301D01*
X115956704Y-121290679D01*
X115997481Y-121231000D01*
X116029000Y-121231000D01*
X116348541Y-121167439D01*
X116359596Y-121160052D01*
X116504971Y-121160179D01*
X116885515Y-121002942D01*
X117176919Y-120712046D01*
X117334820Y-120331777D01*
X117335179Y-119920029D01*
X117177942Y-119539485D01*
X116887046Y-119248081D01*
X116506777Y-119090180D01*
X116095029Y-119089821D01*
X115714485Y-119247058D01*
X115634072Y-119327330D01*
X115492000Y-119298560D01*
X114292000Y-119298560D01*
X114056683Y-119342838D01*
X113840559Y-119481910D01*
X113792866Y-119551711D01*
X113756090Y-119494559D01*
X113543890Y-119349569D01*
X113527000Y-119346149D01*
X113527000Y-118476862D01*
X121523000Y-110480862D01*
X121523000Y-111121793D01*
X121196057Y-111256883D01*
X120932808Y-111519673D01*
X120790162Y-111863201D01*
X120789838Y-112235167D01*
X120890000Y-112477578D01*
X120890000Y-113162604D01*
X120819566Y-113232915D01*
X120676920Y-113576443D01*
X120676596Y-113948409D01*
X120818641Y-114292185D01*
X121081431Y-114555434D01*
X121424959Y-114698080D01*
X121523000Y-114698165D01*
X121523000Y-117314517D01*
X121355126Y-117314370D01*
X120018628Y-117866600D01*
X118995194Y-118888249D01*
X118440632Y-120223782D01*
X118439370Y-121669874D01*
X118991600Y-123006372D01*
X120013249Y-124029806D01*
X121348782Y-124584368D01*
X121523000Y-124584520D01*
X121523000Y-125499000D01*
X108428000Y-125499000D01*
X108428000Y-111709000D01*
X108373954Y-111437295D01*
X108220046Y-111206954D01*
X107989705Y-111053046D01*
X107872590Y-111029750D01*
X112583000Y-111029750D01*
X112583000Y-111620310D01*
X112679673Y-111853699D01*
X112858302Y-112032327D01*
X113091691Y-112129000D01*
X115432250Y-112129000D01*
X115591000Y-111970250D01*
X115591000Y-110871000D01*
X112741750Y-110871000D01*
X112583000Y-111029750D01*
X107872590Y-111029750D01*
X107718000Y-110999000D01*
X99197160Y-110999000D01*
X99246431Y-110926890D01*
X99255070Y-110884230D01*
X99437401Y-110762401D01*
X100964680Y-109235122D01*
X101010167Y-109235162D01*
X101353943Y-109093117D01*
X101617192Y-108830327D01*
X101759838Y-108486799D01*
X101760162Y-108114833D01*
X101618117Y-107771057D01*
X101355327Y-107507808D01*
X101011799Y-107365162D01*
X100639833Y-107364838D01*
X100296057Y-107506883D01*
X100211305Y-107591487D01*
X100138327Y-107415302D01*
X99959699Y-107236673D01*
X99726310Y-107140000D01*
X99485750Y-107140000D01*
X99327000Y-107298750D01*
X99327000Y-108098000D01*
X99347000Y-108098000D01*
X99347000Y-108352000D01*
X99327000Y-108352000D01*
X99327000Y-108372000D01*
X99073000Y-108372000D01*
X99073000Y-108352000D01*
X99053000Y-108352000D01*
X99053000Y-108098000D01*
X99073000Y-108098000D01*
X99073000Y-107298750D01*
X98914250Y-107140000D01*
X98673690Y-107140000D01*
X98540502Y-107195168D01*
X98456119Y-107068880D01*
X98397239Y-107010000D01*
X98964250Y-107010000D01*
X99123000Y-106851250D01*
X99123000Y-105852000D01*
X99377000Y-105852000D01*
X99377000Y-106851250D01*
X99535750Y-107010000D01*
X100126309Y-107010000D01*
X100359698Y-106913327D01*
X100538327Y-106734699D01*
X100583455Y-106625750D01*
X102450000Y-106625750D01*
X102450000Y-107546309D01*
X102546673Y-107779698D01*
X102725301Y-107958327D01*
X102958690Y-108055000D01*
X103334250Y-108055000D01*
X103493000Y-107896250D01*
X103493000Y-106467000D01*
X102608750Y-106467000D01*
X102450000Y-106625750D01*
X100583455Y-106625750D01*
X100635000Y-106501310D01*
X100635000Y-106010750D01*
X100476250Y-105852000D01*
X99377000Y-105852000D01*
X99123000Y-105852000D01*
X99103000Y-105852000D01*
X99103000Y-105598000D01*
X99123000Y-105598000D01*
X99123000Y-104598750D01*
X99377000Y-104598750D01*
X99377000Y-105598000D01*
X100476250Y-105598000D01*
X100635000Y-105439250D01*
X100635000Y-105133691D01*
X102450000Y-105133691D01*
X102450000Y-106054250D01*
X102608750Y-106213000D01*
X103493000Y-106213000D01*
X103493000Y-104783750D01*
X103334250Y-104625000D01*
X102958690Y-104625000D01*
X102725301Y-104721673D01*
X102546673Y-104900302D01*
X102450000Y-105133691D01*
X100635000Y-105133691D01*
X100635000Y-104948690D01*
X100538327Y-104715301D01*
X100359698Y-104536673D01*
X100126309Y-104440000D01*
X99535750Y-104440000D01*
X99377000Y-104598750D01*
X99123000Y-104598750D01*
X98964250Y-104440000D01*
X98373691Y-104440000D01*
X98178457Y-104520869D01*
X98177440Y-104227000D01*
X104191564Y-104227000D01*
X104185000Y-104260000D01*
X104185000Y-104260000D01*
G37*
X104185000Y-104260000D02*
X104185000Y-104625000D01*
X103905750Y-104625000D01*
X103747000Y-104783750D01*
X103747000Y-106213000D01*
X103767000Y-106213000D01*
X103767000Y-106467000D01*
X103747000Y-106467000D01*
X103747000Y-107896250D01*
X103905750Y-108055000D01*
X104281310Y-108055000D01*
X104473218Y-107975509D01*
X104533110Y-108016431D01*
X104785000Y-108067440D01*
X105160761Y-108067440D01*
X105160761Y-108280271D01*
X105122300Y-108318665D01*
X104911002Y-108827527D01*
X104910521Y-109378514D01*
X105120930Y-109887744D01*
X105510197Y-110277690D01*
X106019059Y-110488988D01*
X106570046Y-110489469D01*
X106692788Y-110438753D01*
X106864284Y-110610249D01*
X107232504Y-110856286D01*
X107666850Y-110942683D01*
X109250852Y-110942683D01*
X109685198Y-110856286D01*
X110053418Y-110610249D01*
X110795977Y-109867690D01*
X112583000Y-109867690D01*
X112583000Y-110458250D01*
X112741750Y-110617000D01*
X115591000Y-110617000D01*
X115591000Y-109517750D01*
X115432250Y-109359000D01*
X113091691Y-109359000D01*
X112858302Y-109455673D01*
X112679673Y-109634301D01*
X112583000Y-109867690D01*
X110795977Y-109867690D01*
X110911418Y-109752249D01*
X110922581Y-109735543D01*
X111157455Y-109384029D01*
X111181380Y-109263752D01*
X111222566Y-109222566D01*
X111468603Y-108854345D01*
X111555000Y-108420000D01*
X111468603Y-107985655D01*
X111402454Y-107886656D01*
X111406441Y-107884090D01*
X111551431Y-107671890D01*
X111602440Y-107420000D01*
X111602440Y-105770000D01*
X111988179Y-105770000D01*
X112279018Y-105712148D01*
X112525580Y-105547401D01*
X113845981Y-104227000D01*
X114338317Y-104227000D01*
X114199971Y-104434049D01*
X114136410Y-104753590D01*
X114136410Y-107825022D01*
X114199971Y-108144563D01*
X114330849Y-108340436D01*
X114377744Y-108410619D01*
X114478292Y-108653964D01*
X114741082Y-108917213D01*
X115084610Y-109059859D01*
X115456576Y-109060183D01*
X115800352Y-108918138D01*
X116063601Y-108655348D01*
X116065063Y-108651827D01*
X116064803Y-108949775D01*
X116233892Y-109359000D01*
X116003750Y-109359000D01*
X115845000Y-109517750D01*
X115845000Y-110617000D01*
X118694250Y-110617000D01*
X118853000Y-110458250D01*
X118853000Y-109867690D01*
X118756327Y-109634301D01*
X118577698Y-109455673D01*
X118344309Y-109359000D01*
X118165700Y-109359000D01*
X118334803Y-108951756D01*
X118335197Y-108500225D01*
X118162767Y-108082914D01*
X118085000Y-108005011D01*
X118085000Y-107891580D01*
X119115354Y-106861226D01*
X119223652Y-106861320D01*
X119640963Y-106688890D01*
X119960522Y-106369888D01*
X120133680Y-105952879D01*
X120134074Y-105501348D01*
X119961644Y-105084037D01*
X119642642Y-104764478D01*
X119225633Y-104591320D01*
X118872960Y-104591012D01*
X119236972Y-104227000D01*
X121398954Y-104227000D01*
X121523000Y-104527216D01*
X121523000Y-108119126D01*
X118732688Y-110909438D01*
X118694250Y-110871000D01*
X115845000Y-110871000D01*
X115845000Y-111970250D01*
X116003750Y-112129000D01*
X117513126Y-112129000D01*
X112101566Y-117540560D01*
X111920561Y-117811453D01*
X111857000Y-118130994D01*
X111857000Y-119342778D01*
X111856683Y-119342838D01*
X111640559Y-119481910D01*
X111495569Y-119694110D01*
X111444560Y-119946000D01*
X111444560Y-120846000D01*
X111488838Y-121081317D01*
X111621607Y-121287647D01*
X111495569Y-121472110D01*
X111444560Y-121724000D01*
X111444560Y-122624000D01*
X111488838Y-122859317D01*
X111627910Y-123075441D01*
X111840110Y-123220431D01*
X112092000Y-123271440D01*
X113292000Y-123271440D01*
X113527317Y-123227162D01*
X113743441Y-123088090D01*
X113789969Y-123019994D01*
X113932302Y-123162327D01*
X114165691Y-123259000D01*
X114606250Y-123259000D01*
X114765000Y-123100250D01*
X114765000Y-122301000D01*
X115019000Y-122301000D01*
X115019000Y-123100250D01*
X115177750Y-123259000D01*
X115618309Y-123259000D01*
X115851698Y-123162327D01*
X116030327Y-122983699D01*
X116127000Y-122750310D01*
X116127000Y-122459750D01*
X115968250Y-122301000D01*
X115019000Y-122301000D01*
X114765000Y-122301000D01*
X114745000Y-122301000D01*
X114745000Y-122047000D01*
X114765000Y-122047000D01*
X114765000Y-122027000D01*
X115019000Y-122027000D01*
X115019000Y-122047000D01*
X115968250Y-122047000D01*
X116127000Y-121888250D01*
X116127000Y-121597690D01*
X116030327Y-121364301D01*
X115956704Y-121290679D01*
X115997481Y-121231000D01*
X116029000Y-121231000D01*
X116348541Y-121167439D01*
X116359596Y-121160052D01*
X116504971Y-121160179D01*
X116885515Y-121002942D01*
X117176919Y-120712046D01*
X117334820Y-120331777D01*
X117335179Y-119920029D01*
X117177942Y-119539485D01*
X116887046Y-119248081D01*
X116506777Y-119090180D01*
X116095029Y-119089821D01*
X115714485Y-119247058D01*
X115634072Y-119327330D01*
X115492000Y-119298560D01*
X114292000Y-119298560D01*
X114056683Y-119342838D01*
X113840559Y-119481910D01*
X113792866Y-119551711D01*
X113756090Y-119494559D01*
X113543890Y-119349569D01*
X113527000Y-119346149D01*
X113527000Y-118476862D01*
X121523000Y-110480862D01*
X121523000Y-111121793D01*
X121196057Y-111256883D01*
X120932808Y-111519673D01*
X120790162Y-111863201D01*
X120789838Y-112235167D01*
X120890000Y-112477578D01*
X120890000Y-113162604D01*
X120819566Y-113232915D01*
X120676920Y-113576443D01*
X120676596Y-113948409D01*
X120818641Y-114292185D01*
X121081431Y-114555434D01*
X121424959Y-114698080D01*
X121523000Y-114698165D01*
X121523000Y-117314517D01*
X121355126Y-117314370D01*
X120018628Y-117866600D01*
X118995194Y-118888249D01*
X118440632Y-120223782D01*
X118439370Y-121669874D01*
X118991600Y-123006372D01*
X120013249Y-124029806D01*
X121348782Y-124584368D01*
X121523000Y-124584520D01*
X121523000Y-125499000D01*
X108428000Y-125499000D01*
X108428000Y-111709000D01*
X108373954Y-111437295D01*
X108220046Y-111206954D01*
X107989705Y-111053046D01*
X107872590Y-111029750D01*
X112583000Y-111029750D01*
X112583000Y-111620310D01*
X112679673Y-111853699D01*
X112858302Y-112032327D01*
X113091691Y-112129000D01*
X115432250Y-112129000D01*
X115591000Y-111970250D01*
X115591000Y-110871000D01*
X112741750Y-110871000D01*
X112583000Y-111029750D01*
X107872590Y-111029750D01*
X107718000Y-110999000D01*
X99197160Y-110999000D01*
X99246431Y-110926890D01*
X99255070Y-110884230D01*
X99437401Y-110762401D01*
X100964680Y-109235122D01*
X101010167Y-109235162D01*
X101353943Y-109093117D01*
X101617192Y-108830327D01*
X101759838Y-108486799D01*
X101760162Y-108114833D01*
X101618117Y-107771057D01*
X101355327Y-107507808D01*
X101011799Y-107365162D01*
X100639833Y-107364838D01*
X100296057Y-107506883D01*
X100211305Y-107591487D01*
X100138327Y-107415302D01*
X99959699Y-107236673D01*
X99726310Y-107140000D01*
X99485750Y-107140000D01*
X99327000Y-107298750D01*
X99327000Y-108098000D01*
X99347000Y-108098000D01*
X99347000Y-108352000D01*
X99327000Y-108352000D01*
X99327000Y-108372000D01*
X99073000Y-108372000D01*
X99073000Y-108352000D01*
X99053000Y-108352000D01*
X99053000Y-108098000D01*
X99073000Y-108098000D01*
X99073000Y-107298750D01*
X98914250Y-107140000D01*
X98673690Y-107140000D01*
X98540502Y-107195168D01*
X98456119Y-107068880D01*
X98397239Y-107010000D01*
X98964250Y-107010000D01*
X99123000Y-106851250D01*
X99123000Y-105852000D01*
X99377000Y-105852000D01*
X99377000Y-106851250D01*
X99535750Y-107010000D01*
X100126309Y-107010000D01*
X100359698Y-106913327D01*
X100538327Y-106734699D01*
X100583455Y-106625750D01*
X102450000Y-106625750D01*
X102450000Y-107546309D01*
X102546673Y-107779698D01*
X102725301Y-107958327D01*
X102958690Y-108055000D01*
X103334250Y-108055000D01*
X103493000Y-107896250D01*
X103493000Y-106467000D01*
X102608750Y-106467000D01*
X102450000Y-106625750D01*
X100583455Y-106625750D01*
X100635000Y-106501310D01*
X100635000Y-106010750D01*
X100476250Y-105852000D01*
X99377000Y-105852000D01*
X99123000Y-105852000D01*
X99103000Y-105852000D01*
X99103000Y-105598000D01*
X99123000Y-105598000D01*
X99123000Y-104598750D01*
X99377000Y-104598750D01*
X99377000Y-105598000D01*
X100476250Y-105598000D01*
X100635000Y-105439250D01*
X100635000Y-105133691D01*
X102450000Y-105133691D01*
X102450000Y-106054250D01*
X102608750Y-106213000D01*
X103493000Y-106213000D01*
X103493000Y-104783750D01*
X103334250Y-104625000D01*
X102958690Y-104625000D01*
X102725301Y-104721673D01*
X102546673Y-104900302D01*
X102450000Y-105133691D01*
X100635000Y-105133691D01*
X100635000Y-104948690D01*
X100538327Y-104715301D01*
X100359698Y-104536673D01*
X100126309Y-104440000D01*
X99535750Y-104440000D01*
X99377000Y-104598750D01*
X99123000Y-104598750D01*
X98964250Y-104440000D01*
X98373691Y-104440000D01*
X98178457Y-104520869D01*
X98177440Y-104227000D01*
X104191564Y-104227000D01*
X104185000Y-104260000D01*
M02*
