M48
;DRILL file {KiCad 4.0.7-e2-6376~58~ubuntu17.04.1} date Tue Sep  5 17:29:27 2017
;FORMAT={-:-/ absolute / inch / decimal}
FMAT,2
INCH,TZ
T1C0.016
T2C0.024
T3C0.028
T4C0.035
T5C0.039
T6C0.043
T7C0.098
T8C0.108
%
G90
G05
M72
T1
X3.9752Y-4.3404
X4.2076Y-3.7144
X4.2792Y-4.0565
X4.285Y-3.6804
X4.3208Y-3.399
X4.3289Y-4.2042
X4.3388Y-3.3238
X4.3937Y-3.8004
X4.4152Y-4.0078
X4.4184Y-3.4852
X4.4306Y-3.9382
X4.4371Y-3.7209
X4.453Y-4.0284
X4.4852Y-3.4828
X4.4976Y-3.387
X4.5079Y-3.8004
X4.5332Y-3.4894
X4.5473Y-4.2975
X4.5495Y-3.3628
X4.5709Y-4.0016
X4.6564Y-3.9942
X4.6647Y-4.3348
X4.6876Y-4.2452
X4.6922Y-3.4935
X4.7132Y-3.5174
X4.741Y-4.0632
X4.7526Y-3.4166
X4.7608Y-3.6138
X4.7803Y-4.4226
X4.7879Y-4.4789
X4.816Y-4.0954
X4.8474Y-3.9852
X4.8591Y-3.6728
X4.8726Y-3.5482
X4.8774Y-4.2826
X4.8828Y-3.9258
X4.8842Y-4.1326
X4.8947Y-4.0545
X4.9114Y-3.9956
X4.958Y-4.523
X4.9714Y-4.2732
X4.9716Y-4.4228
X5.0412Y-4.471
X5.148Y-3.8
X5.166Y-4.3892
X5.1968Y-4.431
X5.288Y-3.9154
X5.3351Y-3.8837
X5.3356Y-3.5915
X5.3573Y-3.5187
X5.4251Y-3.8059
X5.4277Y-3.9142
X5.4278Y-3.4976
X5.4822Y-4.0532
X5.6026Y-4.0662
X5.6034Y-4.0977
X5.6061Y-4.0349
X5.6196Y-3.7474
X5.6447Y-3.9774
X5.6448Y-4.0089
X5.6491Y-3.7594
X5.7173Y-3.558
X5.7362Y-3.4016
X5.7429Y-3.4323
X5.7835Y-3.7982
X5.7984Y-4.2743
X5.802Y-3.4143
X5.81Y-4.4094
X5.8209Y-4.4438
X5.8386Y-4.4901
X5.878Y-4.3376
X5.8924Y-4.6556
X5.909Y-4.1877
T2
X4.4354Y-4.4712
X4.5787Y-4.7293
X4.6238Y-4.2676
X4.719Y-4.3632
X4.8164Y-4.3658
X4.8894Y-4.187
X4.9259Y-3.9633
X4.93Y-3.8844
T3
X4.685Y-4.1624
X5.6329Y-4.6939
T4
X4.39Y-3.195
X4.49Y-3.195
T5
X4.1574Y-4.2786
X4.27Y-4.2582
X4.5896Y-4.145
X4.7732Y-3.8938
X5.0082Y-3.6312
X5.17Y-4.84
X5.18Y-3.1594
X5.18Y-3.31
X5.27Y-4.84
X5.28Y-3.1594
X5.37Y-4.84
X5.38Y-3.1594
X5.47Y-4.84
X6.0272Y-3.2348
X6.0272Y-3.3348
X6.0272Y-3.4348
X6.0272Y-3.5348
X6.0272Y-3.6348
X6.0272Y-3.7348
X6.0272Y-3.8348
X6.0272Y-3.9348
X6.0272Y-4.0348
X6.0272Y-4.1348
X6.0272Y-4.2348
X6.0272Y-4.3348
X6.0272Y-4.4348
X6.0272Y-4.5348
X6.0272Y-4.6348
X6.0272Y-4.7348
X6.1272Y-3.2348
X6.1272Y-3.3348
X6.1272Y-3.4348
X6.1272Y-3.5348
X6.1272Y-3.6348
X6.1272Y-3.7348
X6.1272Y-3.8348
X6.1272Y-3.9348
X6.1272Y-4.0348
X6.1272Y-4.1348
X6.1272Y-4.2348
X6.1272Y-4.3348
X6.1272Y-4.4348
X6.1272Y-4.5348
X6.1272Y-4.6348
X6.1272Y-4.7348
T6
X6.3524Y-3.8799
X6.3524Y-3.9783
X6.3524Y-4.0571
X6.3524Y-4.1555
X6.4547Y-3.8799
X6.4547Y-3.9783
X6.4547Y-4.0571
X6.4547Y-4.1555
T7
X6.3366Y-3.7559
X6.3366Y-4.2795
X6.561Y-3.7559
X6.561Y-4.2795
T8
X3.8533Y-3.7294
X3.8533Y-4.005
T0
M30
