G04 #@! TF.FileFunction,Paste,Bot*
%FSLAX46Y46*%
G04 Gerber Fmt 4.6, Leading zero omitted, Abs format (unit mm)*
G04 Created by KiCad (PCBNEW 4.0.6+dfsg1-1) date Wed Jul 26 09:48:40 2017*
%MOMM*%
%LPD*%
G01*
G04 APERTURE LIST*
%ADD10C,0.100000*%
%ADD11R,0.800000X0.900000*%
%ADD12R,0.750000X1.200000*%
%ADD13R,1.200000X0.750000*%
%ADD14R,0.800000X0.800000*%
%ADD15R,1.000000X0.900000*%
%ADD16R,0.900000X0.800000*%
%ADD17R,1.200000X0.900000*%
%ADD18R,0.900000X1.200000*%
%ADD19R,2.000000X1.000000*%
%ADD20R,1.000000X2.000000*%
%ADD21R,4.000000X4.000000*%
%ADD22R,1.060000X0.650000*%
G04 APERTURE END LIST*
D10*
D11*
X116280000Y-110430000D03*
X114380000Y-110430000D03*
X115330000Y-108430000D03*
D12*
X113348000Y-93554690D03*
X113348000Y-95454690D03*
D13*
X120423000Y-98329690D03*
X118523000Y-98329690D03*
D12*
X113718000Y-114959000D03*
X113718000Y-113059000D03*
D14*
X120650000Y-108360000D03*
X122250000Y-108360000D03*
D15*
X112318000Y-122959000D03*
X112318000Y-121359000D03*
X116418000Y-122959000D03*
X116418000Y-121359000D03*
D16*
X120480000Y-112930000D03*
X120480000Y-114830000D03*
X118480000Y-113880000D03*
D17*
X149650000Y-87450000D03*
X147450000Y-87450000D03*
X147388000Y-89354000D03*
X149588000Y-89354000D03*
X120058000Y-106172000D03*
X122258000Y-106172000D03*
D18*
X115623000Y-95579690D03*
X115623000Y-93379690D03*
X116260000Y-115200000D03*
X116260000Y-113000000D03*
X122830000Y-114880000D03*
X122830000Y-112680000D03*
D17*
X120575000Y-100500000D03*
X118375000Y-100500000D03*
D18*
X142725000Y-123300000D03*
X142725000Y-121100000D03*
D19*
X126973880Y-108756800D03*
X145007880Y-108728800D03*
D20*
X140435880Y-93262800D03*
X141705880Y-93262800D03*
X135355880Y-93262800D03*
X136625880Y-93262800D03*
X139165880Y-93262800D03*
X137895880Y-93262800D03*
X132815880Y-93262800D03*
X134085880Y-93262800D03*
X131545880Y-93262800D03*
X130275880Y-93262800D03*
D19*
X144991880Y-111276800D03*
X145007880Y-109998800D03*
X145007880Y-106188800D03*
X144991880Y-107466800D03*
X144991880Y-102386800D03*
X145007880Y-101108800D03*
X145007880Y-103648800D03*
X144991880Y-104926800D03*
X144991880Y-94766800D03*
X144991880Y-97306800D03*
X145007880Y-96028800D03*
X145007880Y-98568800D03*
X144991880Y-99846800D03*
X126957880Y-99846800D03*
X126973880Y-98568800D03*
X126973880Y-96028800D03*
X126957880Y-97306800D03*
X126957880Y-94766800D03*
X126957880Y-104926800D03*
X126973880Y-103648800D03*
X126973880Y-101108800D03*
X126957880Y-102386800D03*
X126957880Y-107466800D03*
X126973880Y-106188800D03*
X126973880Y-110026800D03*
X126973880Y-111296800D03*
D21*
X135300000Y-102610000D03*
D22*
X118523000Y-95379690D03*
X118523000Y-94429690D03*
X118523000Y-93479690D03*
X120723000Y-93479690D03*
X120723000Y-95379690D03*
M02*
