G04 #@! TF.FileFunction,Legend,Top*
%FSLAX46Y46*%
G04 Gerber Fmt 4.6, Leading zero omitted, Abs format (unit mm)*
G04 Created by KiCad (PCBNEW 4.0.6+dfsg1-1) date Mon Aug 14 15:02:38 2017*
%MOMM*%
%LPD*%
G01*
G04 APERTURE LIST*
%ADD10C,0.100000*%
%ADD11C,0.300000*%
%ADD12C,0.125000*%
%ADD13C,0.150000*%
%ADD14C,0.120000*%
G04 APERTURE END LIST*
D10*
D11*
X109268087Y-123816371D02*
X108553801Y-123816371D01*
X108482372Y-124530657D01*
X108553801Y-124459229D01*
X108696658Y-124387800D01*
X109053801Y-124387800D01*
X109196658Y-124459229D01*
X109268087Y-124530657D01*
X109339515Y-124673514D01*
X109339515Y-125030657D01*
X109268087Y-125173514D01*
X109196658Y-125244943D01*
X109053801Y-125316371D01*
X108696658Y-125316371D01*
X108553801Y-125244943D01*
X108482372Y-125173514D01*
X109839515Y-124316371D02*
X110196658Y-125316371D01*
X110553800Y-124316371D01*
X112196657Y-125244943D02*
X112410943Y-125316371D01*
X112768086Y-125316371D01*
X112910943Y-125244943D01*
X112982372Y-125173514D01*
X113053800Y-125030657D01*
X113053800Y-124887800D01*
X112982372Y-124744943D01*
X112910943Y-124673514D01*
X112768086Y-124602086D01*
X112482372Y-124530657D01*
X112339514Y-124459229D01*
X112268086Y-124387800D01*
X112196657Y-124244943D01*
X112196657Y-124102086D01*
X112268086Y-123959229D01*
X112339514Y-123887800D01*
X112482372Y-123816371D01*
X112839514Y-123816371D01*
X113053800Y-123887800D01*
X113696657Y-125316371D02*
X113696657Y-124316371D01*
X113696657Y-124459229D02*
X113768085Y-124387800D01*
X113910943Y-124316371D01*
X114125228Y-124316371D01*
X114268085Y-124387800D01*
X114339514Y-124530657D01*
X114339514Y-125316371D01*
X114339514Y-124530657D02*
X114410943Y-124387800D01*
X114553800Y-124316371D01*
X114768085Y-124316371D01*
X114910943Y-124387800D01*
X114982371Y-124530657D01*
X114982371Y-125316371D01*
X116339514Y-125316371D02*
X116339514Y-124530657D01*
X116268085Y-124387800D01*
X116125228Y-124316371D01*
X115839514Y-124316371D01*
X115696657Y-124387800D01*
X116339514Y-125244943D02*
X116196657Y-125316371D01*
X115839514Y-125316371D01*
X115696657Y-125244943D01*
X115625228Y-125102086D01*
X115625228Y-124959229D01*
X115696657Y-124816371D01*
X115839514Y-124744943D01*
X116196657Y-124744943D01*
X116339514Y-124673514D01*
X117053800Y-125316371D02*
X117053800Y-124316371D01*
X117053800Y-124602086D02*
X117125228Y-124459229D01*
X117196657Y-124387800D01*
X117339514Y-124316371D01*
X117482371Y-124316371D01*
X117768085Y-124316371D02*
X118339514Y-124316371D01*
X117982371Y-123816371D02*
X117982371Y-125102086D01*
X118053799Y-125244943D01*
X118196657Y-125316371D01*
X118339514Y-125316371D01*
X120839514Y-125316371D02*
X120339514Y-124602086D01*
X119982371Y-125316371D02*
X119982371Y-123816371D01*
X120553799Y-123816371D01*
X120696657Y-123887800D01*
X120768085Y-123959229D01*
X120839514Y-124102086D01*
X120839514Y-124316371D01*
X120768085Y-124459229D01*
X120696657Y-124530657D01*
X120553799Y-124602086D01*
X119982371Y-124602086D01*
X122053799Y-125244943D02*
X121910942Y-125316371D01*
X121625228Y-125316371D01*
X121482371Y-125244943D01*
X121410942Y-125102086D01*
X121410942Y-124530657D01*
X121482371Y-124387800D01*
X121625228Y-124316371D01*
X121910942Y-124316371D01*
X122053799Y-124387800D01*
X122125228Y-124530657D01*
X122125228Y-124673514D01*
X121410942Y-124816371D01*
X123410942Y-124316371D02*
X123410942Y-125530657D01*
X123339513Y-125673514D01*
X123268085Y-125744943D01*
X123125228Y-125816371D01*
X122910942Y-125816371D01*
X122768085Y-125744943D01*
X123410942Y-125244943D02*
X123268085Y-125316371D01*
X122982371Y-125316371D01*
X122839513Y-125244943D01*
X122768085Y-125173514D01*
X122696656Y-125030657D01*
X122696656Y-124602086D01*
X122768085Y-124459229D01*
X122839513Y-124387800D01*
X122982371Y-124316371D01*
X123268085Y-124316371D01*
X123410942Y-124387800D01*
X124768085Y-124316371D02*
X124768085Y-125316371D01*
X124125228Y-124316371D02*
X124125228Y-125102086D01*
X124196656Y-125244943D01*
X124339514Y-125316371D01*
X124553799Y-125316371D01*
X124696656Y-125244943D01*
X124768085Y-125173514D01*
X125696657Y-125316371D02*
X125553799Y-125244943D01*
X125482371Y-125102086D01*
X125482371Y-123816371D01*
X126910942Y-125316371D02*
X126910942Y-124530657D01*
X126839513Y-124387800D01*
X126696656Y-124316371D01*
X126410942Y-124316371D01*
X126268085Y-124387800D01*
X126910942Y-125244943D02*
X126768085Y-125316371D01*
X126410942Y-125316371D01*
X126268085Y-125244943D01*
X126196656Y-125102086D01*
X126196656Y-124959229D01*
X126268085Y-124816371D01*
X126410942Y-124744943D01*
X126768085Y-124744943D01*
X126910942Y-124673514D01*
X127410942Y-124316371D02*
X127982371Y-124316371D01*
X127625228Y-123816371D02*
X127625228Y-125102086D01*
X127696656Y-125244943D01*
X127839514Y-125316371D01*
X127982371Y-125316371D01*
X128696657Y-125316371D02*
X128553799Y-125244943D01*
X128482371Y-125173514D01*
X128410942Y-125030657D01*
X128410942Y-124602086D01*
X128482371Y-124459229D01*
X128553799Y-124387800D01*
X128696657Y-124316371D01*
X128910942Y-124316371D01*
X129053799Y-124387800D01*
X129125228Y-124459229D01*
X129196657Y-124602086D01*
X129196657Y-125030657D01*
X129125228Y-125173514D01*
X129053799Y-125244943D01*
X128910942Y-125316371D01*
X128696657Y-125316371D01*
X129839514Y-125316371D02*
X129839514Y-124316371D01*
X129839514Y-124602086D02*
X129910942Y-124459229D01*
X129982371Y-124387800D01*
X130125228Y-124316371D01*
X130268085Y-124316371D01*
D12*
X156929557Y-112800581D02*
X157000986Y-112824390D01*
X157120033Y-112824390D01*
X157167652Y-112800581D01*
X157191462Y-112776771D01*
X157215271Y-112729152D01*
X157215271Y-112681533D01*
X157191462Y-112633914D01*
X157167652Y-112610105D01*
X157120033Y-112586295D01*
X157024795Y-112562486D01*
X156977176Y-112538676D01*
X156953367Y-112514867D01*
X156929557Y-112467248D01*
X156929557Y-112419629D01*
X156953367Y-112372010D01*
X156977176Y-112348200D01*
X157024795Y-112324390D01*
X157143843Y-112324390D01*
X157215271Y-112348200D01*
X157310509Y-112872010D02*
X157691461Y-112872010D01*
X157739080Y-112324390D02*
X157905747Y-112824390D01*
X158072413Y-112324390D01*
X158239080Y-112824390D02*
X158239080Y-112324390D01*
X158524794Y-112824390D01*
X158524794Y-112324390D01*
X157336728Y-82660941D02*
X157408157Y-82684750D01*
X157527204Y-82684750D01*
X157574823Y-82660941D01*
X157598633Y-82637131D01*
X157622442Y-82589512D01*
X157622442Y-82541893D01*
X157598633Y-82494274D01*
X157574823Y-82470465D01*
X157527204Y-82446655D01*
X157431966Y-82422846D01*
X157384347Y-82399036D01*
X157360538Y-82375227D01*
X157336728Y-82327608D01*
X157336728Y-82279989D01*
X157360538Y-82232370D01*
X157384347Y-82208560D01*
X157431966Y-82184750D01*
X157551014Y-82184750D01*
X157622442Y-82208560D01*
X157836728Y-82684750D02*
X157836728Y-82184750D01*
X157955775Y-82184750D01*
X158027204Y-82208560D01*
X158074823Y-82256179D01*
X158098632Y-82303798D01*
X158122442Y-82399036D01*
X158122442Y-82470465D01*
X158098632Y-82565703D01*
X158074823Y-82613322D01*
X158027204Y-82660941D01*
X157955775Y-82684750D01*
X157836728Y-82684750D01*
X158289109Y-82184750D02*
X158598632Y-82184750D01*
X158431966Y-82375227D01*
X158503394Y-82375227D01*
X158551013Y-82399036D01*
X158574823Y-82422846D01*
X158598632Y-82470465D01*
X158598632Y-82589512D01*
X158574823Y-82637131D01*
X158551013Y-82660941D01*
X158503394Y-82684750D01*
X158360537Y-82684750D01*
X158312918Y-82660941D01*
X158289109Y-82637131D01*
X157372288Y-85079021D02*
X157443717Y-85102830D01*
X157562764Y-85102830D01*
X157610383Y-85079021D01*
X157634193Y-85055211D01*
X157658002Y-85007592D01*
X157658002Y-84959973D01*
X157634193Y-84912354D01*
X157610383Y-84888545D01*
X157562764Y-84864735D01*
X157467526Y-84840926D01*
X157419907Y-84817116D01*
X157396098Y-84793307D01*
X157372288Y-84745688D01*
X157372288Y-84698069D01*
X157396098Y-84650450D01*
X157419907Y-84626640D01*
X157467526Y-84602830D01*
X157586574Y-84602830D01*
X157658002Y-84626640D01*
X157872288Y-85102830D02*
X157872288Y-84602830D01*
X157991335Y-84602830D01*
X158062764Y-84626640D01*
X158110383Y-84674259D01*
X158134192Y-84721878D01*
X158158002Y-84817116D01*
X158158002Y-84888545D01*
X158134192Y-84983783D01*
X158110383Y-85031402D01*
X158062764Y-85079021D01*
X157991335Y-85102830D01*
X157872288Y-85102830D01*
X158348478Y-84650450D02*
X158372288Y-84626640D01*
X158419907Y-84602830D01*
X158538954Y-84602830D01*
X158586573Y-84626640D01*
X158610383Y-84650450D01*
X158634192Y-84698069D01*
X158634192Y-84745688D01*
X158610383Y-84817116D01*
X158324669Y-85102830D01*
X158634192Y-85102830D01*
X156904466Y-87586950D02*
X156904466Y-87086950D01*
X157237799Y-87086950D02*
X157333037Y-87086950D01*
X157380656Y-87110760D01*
X157428275Y-87158379D01*
X157452084Y-87253617D01*
X157452084Y-87420284D01*
X157428275Y-87515522D01*
X157380656Y-87563141D01*
X157333037Y-87586950D01*
X157237799Y-87586950D01*
X157190180Y-87563141D01*
X157142561Y-87515522D01*
X157118751Y-87420284D01*
X157118751Y-87253617D01*
X157142561Y-87158379D01*
X157190180Y-87110760D01*
X157237799Y-87086950D01*
X157928275Y-87586950D02*
X157642561Y-87586950D01*
X157785418Y-87586950D02*
X157785418Y-87086950D01*
X157737799Y-87158379D01*
X157690180Y-87205998D01*
X157642561Y-87229808D01*
X158094942Y-87086950D02*
X158404465Y-87086950D01*
X158237799Y-87277427D01*
X158309227Y-87277427D01*
X158356846Y-87301236D01*
X158380656Y-87325046D01*
X158404465Y-87372665D01*
X158404465Y-87491712D01*
X158380656Y-87539331D01*
X158356846Y-87563141D01*
X158309227Y-87586950D01*
X158166370Y-87586950D01*
X158118751Y-87563141D01*
X158094942Y-87539331D01*
X156940026Y-90203150D02*
X156940026Y-89703150D01*
X157273359Y-89703150D02*
X157368597Y-89703150D01*
X157416216Y-89726960D01*
X157463835Y-89774579D01*
X157487644Y-89869817D01*
X157487644Y-90036484D01*
X157463835Y-90131722D01*
X157416216Y-90179341D01*
X157368597Y-90203150D01*
X157273359Y-90203150D01*
X157225740Y-90179341D01*
X157178121Y-90131722D01*
X157154311Y-90036484D01*
X157154311Y-89869817D01*
X157178121Y-89774579D01*
X157225740Y-89726960D01*
X157273359Y-89703150D01*
X157963835Y-90203150D02*
X157678121Y-90203150D01*
X157820978Y-90203150D02*
X157820978Y-89703150D01*
X157773359Y-89774579D01*
X157725740Y-89822198D01*
X157678121Y-89846008D01*
X158154311Y-89750770D02*
X158178121Y-89726960D01*
X158225740Y-89703150D01*
X158344787Y-89703150D01*
X158392406Y-89726960D01*
X158416216Y-89750770D01*
X158440025Y-89798389D01*
X158440025Y-89846008D01*
X158416216Y-89917436D01*
X158130502Y-90203150D01*
X158440025Y-90203150D01*
X156807946Y-94973270D02*
X156807946Y-94473270D01*
X157141279Y-94473270D02*
X157236517Y-94473270D01*
X157284136Y-94497080D01*
X157331755Y-94544699D01*
X157355564Y-94639937D01*
X157355564Y-94806604D01*
X157331755Y-94901842D01*
X157284136Y-94949461D01*
X157236517Y-94973270D01*
X157141279Y-94973270D01*
X157093660Y-94949461D01*
X157046041Y-94901842D01*
X157022231Y-94806604D01*
X157022231Y-94639937D01*
X157046041Y-94544699D01*
X157093660Y-94497080D01*
X157141279Y-94473270D01*
X157546041Y-94520890D02*
X157569851Y-94497080D01*
X157617470Y-94473270D01*
X157736517Y-94473270D01*
X157784136Y-94497080D01*
X157807946Y-94520890D01*
X157831755Y-94568509D01*
X157831755Y-94616128D01*
X157807946Y-94687556D01*
X157522232Y-94973270D01*
X157831755Y-94973270D01*
X157998422Y-94473270D02*
X158331755Y-94473270D01*
X158117469Y-94973270D01*
X156873986Y-97655510D02*
X156873986Y-97155510D01*
X157207319Y-97155510D02*
X157302557Y-97155510D01*
X157350176Y-97179320D01*
X157397795Y-97226939D01*
X157421604Y-97322177D01*
X157421604Y-97488844D01*
X157397795Y-97584082D01*
X157350176Y-97631701D01*
X157302557Y-97655510D01*
X157207319Y-97655510D01*
X157159700Y-97631701D01*
X157112081Y-97584082D01*
X157088271Y-97488844D01*
X157088271Y-97322177D01*
X157112081Y-97226939D01*
X157159700Y-97179320D01*
X157207319Y-97155510D01*
X157612081Y-97203130D02*
X157635891Y-97179320D01*
X157683510Y-97155510D01*
X157802557Y-97155510D01*
X157850176Y-97179320D01*
X157873986Y-97203130D01*
X157897795Y-97250749D01*
X157897795Y-97298368D01*
X157873986Y-97369796D01*
X157588272Y-97655510D01*
X157897795Y-97655510D01*
X158326366Y-97155510D02*
X158231128Y-97155510D01*
X158183509Y-97179320D01*
X158159700Y-97203130D01*
X158112081Y-97274558D01*
X158088271Y-97369796D01*
X158088271Y-97560272D01*
X158112081Y-97607891D01*
X158135890Y-97631701D01*
X158183509Y-97655510D01*
X158278747Y-97655510D01*
X158326366Y-97631701D01*
X158350176Y-97607891D01*
X158373985Y-97560272D01*
X158373985Y-97441225D01*
X158350176Y-97393606D01*
X158326366Y-97369796D01*
X158278747Y-97345987D01*
X158183509Y-97345987D01*
X158135890Y-97369796D01*
X158112081Y-97393606D01*
X158088271Y-97441225D01*
X156940026Y-100271710D02*
X156940026Y-99771710D01*
X157273359Y-99771710D02*
X157368597Y-99771710D01*
X157416216Y-99795520D01*
X157463835Y-99843139D01*
X157487644Y-99938377D01*
X157487644Y-100105044D01*
X157463835Y-100200282D01*
X157416216Y-100247901D01*
X157368597Y-100271710D01*
X157273359Y-100271710D01*
X157225740Y-100247901D01*
X157178121Y-100200282D01*
X157154311Y-100105044D01*
X157154311Y-99938377D01*
X157178121Y-99843139D01*
X157225740Y-99795520D01*
X157273359Y-99771710D01*
X157678121Y-99819330D02*
X157701931Y-99795520D01*
X157749550Y-99771710D01*
X157868597Y-99771710D01*
X157916216Y-99795520D01*
X157940026Y-99819330D01*
X157963835Y-99866949D01*
X157963835Y-99914568D01*
X157940026Y-99985996D01*
X157654312Y-100271710D01*
X157963835Y-100271710D01*
X158416216Y-99771710D02*
X158178121Y-99771710D01*
X158154311Y-100009806D01*
X158178121Y-99985996D01*
X158225740Y-99962187D01*
X158344787Y-99962187D01*
X158392406Y-99985996D01*
X158416216Y-100009806D01*
X158440025Y-100057425D01*
X158440025Y-100176472D01*
X158416216Y-100224091D01*
X158392406Y-100247901D01*
X158344787Y-100271710D01*
X158225740Y-100271710D01*
X158178121Y-100247901D01*
X158154311Y-100224091D01*
X156904466Y-102948870D02*
X156904466Y-102448870D01*
X157237799Y-102448870D02*
X157333037Y-102448870D01*
X157380656Y-102472680D01*
X157428275Y-102520299D01*
X157452084Y-102615537D01*
X157452084Y-102782204D01*
X157428275Y-102877442D01*
X157380656Y-102925061D01*
X157333037Y-102948870D01*
X157237799Y-102948870D01*
X157190180Y-102925061D01*
X157142561Y-102877442D01*
X157118751Y-102782204D01*
X157118751Y-102615537D01*
X157142561Y-102520299D01*
X157190180Y-102472680D01*
X157237799Y-102448870D01*
X157618752Y-102448870D02*
X157928275Y-102448870D01*
X157761609Y-102639347D01*
X157833037Y-102639347D01*
X157880656Y-102663156D01*
X157904466Y-102686966D01*
X157928275Y-102734585D01*
X157928275Y-102853632D01*
X157904466Y-102901251D01*
X157880656Y-102925061D01*
X157833037Y-102948870D01*
X157690180Y-102948870D01*
X157642561Y-102925061D01*
X157618752Y-102901251D01*
X158094942Y-102448870D02*
X158404465Y-102448870D01*
X158237799Y-102639347D01*
X158309227Y-102639347D01*
X158356846Y-102663156D01*
X158380656Y-102686966D01*
X158404465Y-102734585D01*
X158404465Y-102853632D01*
X158380656Y-102901251D01*
X158356846Y-102925061D01*
X158309227Y-102948870D01*
X158166370Y-102948870D01*
X158118751Y-102925061D01*
X158094942Y-102901251D01*
X157000986Y-105366950D02*
X157000986Y-104866950D01*
X157334319Y-104866950D02*
X157429557Y-104866950D01*
X157477176Y-104890760D01*
X157524795Y-104938379D01*
X157548604Y-105033617D01*
X157548604Y-105200284D01*
X157524795Y-105295522D01*
X157477176Y-105343141D01*
X157429557Y-105366950D01*
X157334319Y-105366950D01*
X157286700Y-105343141D01*
X157239081Y-105295522D01*
X157215271Y-105200284D01*
X157215271Y-105033617D01*
X157239081Y-104938379D01*
X157286700Y-104890760D01*
X157334319Y-104866950D01*
X157715272Y-104866950D02*
X158024795Y-104866950D01*
X157858129Y-105057427D01*
X157929557Y-105057427D01*
X157977176Y-105081236D01*
X158000986Y-105105046D01*
X158024795Y-105152665D01*
X158024795Y-105271712D01*
X158000986Y-105319331D01*
X157977176Y-105343141D01*
X157929557Y-105366950D01*
X157786700Y-105366950D01*
X157739081Y-105343141D01*
X157715272Y-105319331D01*
X158215271Y-104914570D02*
X158239081Y-104890760D01*
X158286700Y-104866950D01*
X158405747Y-104866950D01*
X158453366Y-104890760D01*
X158477176Y-104914570D01*
X158500985Y-104962189D01*
X158500985Y-105009808D01*
X158477176Y-105081236D01*
X158191462Y-105366950D01*
X158500985Y-105366950D01*
X156940026Y-107591990D02*
X156940026Y-107091990D01*
X157273359Y-107091990D02*
X157368597Y-107091990D01*
X157416216Y-107115800D01*
X157463835Y-107163419D01*
X157487644Y-107258657D01*
X157487644Y-107425324D01*
X157463835Y-107520562D01*
X157416216Y-107568181D01*
X157368597Y-107591990D01*
X157273359Y-107591990D01*
X157225740Y-107568181D01*
X157178121Y-107520562D01*
X157154311Y-107425324D01*
X157154311Y-107258657D01*
X157178121Y-107163419D01*
X157225740Y-107115800D01*
X157273359Y-107091990D01*
X157654312Y-107091990D02*
X157963835Y-107091990D01*
X157797169Y-107282467D01*
X157868597Y-107282467D01*
X157916216Y-107306276D01*
X157940026Y-107330086D01*
X157963835Y-107377705D01*
X157963835Y-107496752D01*
X157940026Y-107544371D01*
X157916216Y-107568181D01*
X157868597Y-107591990D01*
X157725740Y-107591990D01*
X157678121Y-107568181D01*
X157654312Y-107544371D01*
X158416216Y-107091990D02*
X158178121Y-107091990D01*
X158154311Y-107330086D01*
X158178121Y-107306276D01*
X158225740Y-107282467D01*
X158344787Y-107282467D01*
X158392406Y-107306276D01*
X158416216Y-107330086D01*
X158440025Y-107377705D01*
X158440025Y-107496752D01*
X158416216Y-107544371D01*
X158392406Y-107568181D01*
X158344787Y-107591990D01*
X158225740Y-107591990D01*
X158178121Y-107568181D01*
X158154311Y-107544371D01*
X157168626Y-110370750D02*
X157168626Y-109870750D01*
X157501959Y-109870750D02*
X157597197Y-109870750D01*
X157644816Y-109894560D01*
X157692435Y-109942179D01*
X157716244Y-110037417D01*
X157716244Y-110204084D01*
X157692435Y-110299322D01*
X157644816Y-110346941D01*
X157597197Y-110370750D01*
X157501959Y-110370750D01*
X157454340Y-110346941D01*
X157406721Y-110299322D01*
X157382911Y-110204084D01*
X157382911Y-110037417D01*
X157406721Y-109942179D01*
X157454340Y-109894560D01*
X157501959Y-109870750D01*
X157882912Y-109870750D02*
X158192435Y-109870750D01*
X158025769Y-110061227D01*
X158097197Y-110061227D01*
X158144816Y-110085036D01*
X158168626Y-110108846D01*
X158192435Y-110156465D01*
X158192435Y-110275512D01*
X158168626Y-110323131D01*
X158144816Y-110346941D01*
X158097197Y-110370750D01*
X157954340Y-110370750D01*
X157906721Y-110346941D01*
X157882912Y-110323131D01*
X158621006Y-110037417D02*
X158621006Y-110370750D01*
X158501959Y-109846941D02*
X158382911Y-110204084D01*
X158692435Y-110204084D01*
X156941462Y-115381221D02*
X157012891Y-115405030D01*
X157131938Y-115405030D01*
X157179557Y-115381221D01*
X157203367Y-115357411D01*
X157227176Y-115309792D01*
X157227176Y-115262173D01*
X157203367Y-115214554D01*
X157179557Y-115190745D01*
X157131938Y-115166935D01*
X157036700Y-115143126D01*
X156989081Y-115119316D01*
X156965272Y-115095507D01*
X156941462Y-115047888D01*
X156941462Y-115000269D01*
X156965272Y-114952650D01*
X156989081Y-114928840D01*
X157036700Y-114905030D01*
X157155748Y-114905030D01*
X157227176Y-114928840D01*
X157322414Y-115452650D02*
X157703366Y-115452650D01*
X157750985Y-114905030D02*
X157917652Y-115405030D01*
X158084318Y-114905030D01*
X158250985Y-115405030D02*
X158250985Y-114905030D01*
X158441461Y-114905030D01*
X158489080Y-114928840D01*
X158512889Y-114952650D01*
X158536699Y-115000269D01*
X158536699Y-115071697D01*
X158512889Y-115119316D01*
X158489080Y-115143126D01*
X158441461Y-115166935D01*
X158250985Y-115166935D01*
X157221634Y-117521230D02*
X157531157Y-117521230D01*
X157364491Y-117711707D01*
X157435919Y-117711707D01*
X157483538Y-117735516D01*
X157507348Y-117759326D01*
X157531157Y-117806945D01*
X157531157Y-117925992D01*
X157507348Y-117973611D01*
X157483538Y-117997421D01*
X157435919Y-118021230D01*
X157293062Y-118021230D01*
X157245443Y-117997421D01*
X157221634Y-117973611D01*
X157674014Y-117521230D02*
X157840681Y-118021230D01*
X158007347Y-117521230D01*
X158126395Y-117521230D02*
X158435918Y-117521230D01*
X158269252Y-117711707D01*
X158340680Y-117711707D01*
X158388299Y-117735516D01*
X158412109Y-117759326D01*
X158435918Y-117806945D01*
X158435918Y-117925992D01*
X158412109Y-117973611D01*
X158388299Y-117997421D01*
X158340680Y-118021230D01*
X158197823Y-118021230D01*
X158150204Y-117997421D01*
X158126395Y-117973611D01*
X157622287Y-119897080D02*
X157574668Y-119873270D01*
X157503240Y-119873270D01*
X157431811Y-119897080D01*
X157384192Y-119944699D01*
X157360383Y-119992318D01*
X157336573Y-120087556D01*
X157336573Y-120158985D01*
X157360383Y-120254223D01*
X157384192Y-120301842D01*
X157431811Y-120349461D01*
X157503240Y-120373270D01*
X157550859Y-120373270D01*
X157622287Y-120349461D01*
X157646097Y-120325651D01*
X157646097Y-120158985D01*
X157550859Y-120158985D01*
X157860383Y-120373270D02*
X157860383Y-119873270D01*
X158146097Y-120373270D01*
X158146097Y-119873270D01*
X158384193Y-120373270D02*
X158384193Y-119873270D01*
X158503240Y-119873270D01*
X158574669Y-119897080D01*
X158622288Y-119944699D01*
X158646097Y-119992318D01*
X158669907Y-120087556D01*
X158669907Y-120158985D01*
X158646097Y-120254223D01*
X158622288Y-120301842D01*
X158574669Y-120349461D01*
X158503240Y-120373270D01*
X158384193Y-120373270D01*
X150723647Y-120029160D02*
X150676028Y-120005350D01*
X150604600Y-120005350D01*
X150533171Y-120029160D01*
X150485552Y-120076779D01*
X150461743Y-120124398D01*
X150437933Y-120219636D01*
X150437933Y-120291065D01*
X150461743Y-120386303D01*
X150485552Y-120433922D01*
X150533171Y-120481541D01*
X150604600Y-120505350D01*
X150652219Y-120505350D01*
X150723647Y-120481541D01*
X150747457Y-120457731D01*
X150747457Y-120291065D01*
X150652219Y-120291065D01*
X150961743Y-120505350D02*
X150961743Y-120005350D01*
X151247457Y-120505350D01*
X151247457Y-120005350D01*
X151485553Y-120505350D02*
X151485553Y-120005350D01*
X151604600Y-120005350D01*
X151676029Y-120029160D01*
X151723648Y-120076779D01*
X151747457Y-120124398D01*
X151771267Y-120219636D01*
X151771267Y-120291065D01*
X151747457Y-120386303D01*
X151723648Y-120433922D01*
X151676029Y-120481541D01*
X151604600Y-120505350D01*
X151485553Y-120505350D01*
X150912843Y-117358670D02*
X150674748Y-117358670D01*
X150650938Y-117596766D01*
X150674748Y-117572956D01*
X150722367Y-117549147D01*
X150841414Y-117549147D01*
X150889033Y-117572956D01*
X150912843Y-117596766D01*
X150936652Y-117644385D01*
X150936652Y-117763432D01*
X150912843Y-117811051D01*
X150889033Y-117834861D01*
X150841414Y-117858670D01*
X150722367Y-117858670D01*
X150674748Y-117834861D01*
X150650938Y-117811051D01*
X151079509Y-117358670D02*
X151246176Y-117858670D01*
X151412842Y-117358670D01*
X150407608Y-115001550D02*
X150693322Y-115001550D01*
X150550465Y-115501550D02*
X150550465Y-115001550D01*
X150812370Y-115001550D02*
X151145703Y-115501550D01*
X151145703Y-115001550D02*
X150812370Y-115501550D01*
X151336179Y-115501550D02*
X151336179Y-115001550D01*
X151455226Y-115001550D01*
X151526655Y-115025360D01*
X151574274Y-115072979D01*
X151598083Y-115120598D01*
X151621893Y-115215836D01*
X151621893Y-115287265D01*
X151598083Y-115382503D01*
X151574274Y-115430122D01*
X151526655Y-115477741D01*
X151455226Y-115501550D01*
X151336179Y-115501550D01*
X150674747Y-112951390D02*
X150508080Y-112713295D01*
X150389033Y-112951390D02*
X150389033Y-112451390D01*
X150579509Y-112451390D01*
X150627128Y-112475200D01*
X150650937Y-112499010D01*
X150674747Y-112546629D01*
X150674747Y-112618057D01*
X150650937Y-112665676D01*
X150627128Y-112689486D01*
X150579509Y-112713295D01*
X150389033Y-112713295D01*
X150841414Y-112451390D02*
X151174747Y-112951390D01*
X151174747Y-112451390D02*
X150841414Y-112951390D01*
X151365223Y-112951390D02*
X151365223Y-112451390D01*
X151484270Y-112451390D01*
X151555699Y-112475200D01*
X151603318Y-112522819D01*
X151627127Y-112570438D01*
X151650937Y-112665676D01*
X151650937Y-112737105D01*
X151627127Y-112832343D01*
X151603318Y-112879962D01*
X151555699Y-112927581D01*
X151484270Y-112951390D01*
X151365223Y-112951390D01*
X150137906Y-110238670D02*
X150137906Y-109738670D01*
X150471239Y-109738670D02*
X150566477Y-109738670D01*
X150614096Y-109762480D01*
X150661715Y-109810099D01*
X150685524Y-109905337D01*
X150685524Y-110072004D01*
X150661715Y-110167242D01*
X150614096Y-110214861D01*
X150566477Y-110238670D01*
X150471239Y-110238670D01*
X150423620Y-110214861D01*
X150376001Y-110167242D01*
X150352191Y-110072004D01*
X150352191Y-109905337D01*
X150376001Y-109810099D01*
X150423620Y-109762480D01*
X150471239Y-109738670D01*
X150876001Y-109786290D02*
X150899811Y-109762480D01*
X150947430Y-109738670D01*
X151066477Y-109738670D01*
X151114096Y-109762480D01*
X151137906Y-109786290D01*
X151161715Y-109833909D01*
X151161715Y-109881528D01*
X151137906Y-109952956D01*
X150852192Y-110238670D01*
X151161715Y-110238670D01*
X151614096Y-109738670D02*
X151376001Y-109738670D01*
X151352191Y-109976766D01*
X151376001Y-109952956D01*
X151423620Y-109929147D01*
X151542667Y-109929147D01*
X151590286Y-109952956D01*
X151614096Y-109976766D01*
X151637905Y-110024385D01*
X151637905Y-110143432D01*
X151614096Y-110191051D01*
X151590286Y-110214861D01*
X151542667Y-110238670D01*
X151423620Y-110238670D01*
X151376001Y-110214861D01*
X151352191Y-110191051D01*
X150137906Y-107881550D02*
X150137906Y-107381550D01*
X150471239Y-107381550D02*
X150566477Y-107381550D01*
X150614096Y-107405360D01*
X150661715Y-107452979D01*
X150685524Y-107548217D01*
X150685524Y-107714884D01*
X150661715Y-107810122D01*
X150614096Y-107857741D01*
X150566477Y-107881550D01*
X150471239Y-107881550D01*
X150423620Y-107857741D01*
X150376001Y-107810122D01*
X150352191Y-107714884D01*
X150352191Y-107548217D01*
X150376001Y-107452979D01*
X150423620Y-107405360D01*
X150471239Y-107381550D01*
X150876001Y-107429170D02*
X150899811Y-107405360D01*
X150947430Y-107381550D01*
X151066477Y-107381550D01*
X151114096Y-107405360D01*
X151137906Y-107429170D01*
X151161715Y-107476789D01*
X151161715Y-107524408D01*
X151137906Y-107595836D01*
X150852192Y-107881550D01*
X151161715Y-107881550D01*
X151352191Y-107429170D02*
X151376001Y-107405360D01*
X151423620Y-107381550D01*
X151542667Y-107381550D01*
X151590286Y-107405360D01*
X151614096Y-107429170D01*
X151637905Y-107476789D01*
X151637905Y-107524408D01*
X151614096Y-107595836D01*
X151328382Y-107881550D01*
X151637905Y-107881550D01*
X150264906Y-105209470D02*
X150264906Y-104709470D01*
X150598239Y-104709470D02*
X150693477Y-104709470D01*
X150741096Y-104733280D01*
X150788715Y-104780899D01*
X150812524Y-104876137D01*
X150812524Y-105042804D01*
X150788715Y-105138042D01*
X150741096Y-105185661D01*
X150693477Y-105209470D01*
X150598239Y-105209470D01*
X150550620Y-105185661D01*
X150503001Y-105138042D01*
X150479191Y-105042804D01*
X150479191Y-104876137D01*
X150503001Y-104780899D01*
X150550620Y-104733280D01*
X150598239Y-104709470D01*
X151003001Y-104757090D02*
X151026811Y-104733280D01*
X151074430Y-104709470D01*
X151193477Y-104709470D01*
X151241096Y-104733280D01*
X151264906Y-104757090D01*
X151288715Y-104804709D01*
X151288715Y-104852328D01*
X151264906Y-104923756D01*
X150979192Y-105209470D01*
X151288715Y-105209470D01*
X151764905Y-105209470D02*
X151479191Y-105209470D01*
X151622048Y-105209470D02*
X151622048Y-104709470D01*
X151574429Y-104780899D01*
X151526810Y-104828518D01*
X151479191Y-104852328D01*
X150107426Y-102694870D02*
X150107426Y-102194870D01*
X150440759Y-102194870D02*
X150535997Y-102194870D01*
X150583616Y-102218680D01*
X150631235Y-102266299D01*
X150655044Y-102361537D01*
X150655044Y-102528204D01*
X150631235Y-102623442D01*
X150583616Y-102671061D01*
X150535997Y-102694870D01*
X150440759Y-102694870D01*
X150393140Y-102671061D01*
X150345521Y-102623442D01*
X150321711Y-102528204D01*
X150321711Y-102361537D01*
X150345521Y-102266299D01*
X150393140Y-102218680D01*
X150440759Y-102194870D01*
X151131235Y-102694870D02*
X150845521Y-102694870D01*
X150988378Y-102694870D02*
X150988378Y-102194870D01*
X150940759Y-102266299D01*
X150893140Y-102313918D01*
X150845521Y-102337728D01*
X151369330Y-102694870D02*
X151464568Y-102694870D01*
X151512187Y-102671061D01*
X151535997Y-102647251D01*
X151583616Y-102575823D01*
X151607425Y-102480585D01*
X151607425Y-102290109D01*
X151583616Y-102242490D01*
X151559806Y-102218680D01*
X151512187Y-102194870D01*
X151416949Y-102194870D01*
X151369330Y-102218680D01*
X151345521Y-102242490D01*
X151321711Y-102290109D01*
X151321711Y-102409156D01*
X151345521Y-102456775D01*
X151369330Y-102480585D01*
X151416949Y-102504394D01*
X151512187Y-102504394D01*
X151559806Y-102480585D01*
X151583616Y-102456775D01*
X151607425Y-102409156D01*
X150203946Y-99961830D02*
X150203946Y-99461830D01*
X150537279Y-99461830D02*
X150632517Y-99461830D01*
X150680136Y-99485640D01*
X150727755Y-99533259D01*
X150751564Y-99628497D01*
X150751564Y-99795164D01*
X150727755Y-99890402D01*
X150680136Y-99938021D01*
X150632517Y-99961830D01*
X150537279Y-99961830D01*
X150489660Y-99938021D01*
X150442041Y-99890402D01*
X150418231Y-99795164D01*
X150418231Y-99628497D01*
X150442041Y-99533259D01*
X150489660Y-99485640D01*
X150537279Y-99461830D01*
X151227755Y-99961830D02*
X150942041Y-99961830D01*
X151084898Y-99961830D02*
X151084898Y-99461830D01*
X151037279Y-99533259D01*
X150989660Y-99580878D01*
X150942041Y-99604688D01*
X151513469Y-99676116D02*
X151465850Y-99652307D01*
X151442041Y-99628497D01*
X151418231Y-99580878D01*
X151418231Y-99557069D01*
X151442041Y-99509450D01*
X151465850Y-99485640D01*
X151513469Y-99461830D01*
X151608707Y-99461830D01*
X151656326Y-99485640D01*
X151680136Y-99509450D01*
X151703945Y-99557069D01*
X151703945Y-99580878D01*
X151680136Y-99628497D01*
X151656326Y-99652307D01*
X151608707Y-99676116D01*
X151513469Y-99676116D01*
X151465850Y-99699926D01*
X151442041Y-99723735D01*
X151418231Y-99771354D01*
X151418231Y-99866592D01*
X151442041Y-99914211D01*
X151465850Y-99938021D01*
X151513469Y-99961830D01*
X151608707Y-99961830D01*
X151656326Y-99938021D01*
X151680136Y-99914211D01*
X151703945Y-99866592D01*
X151703945Y-99771354D01*
X151680136Y-99723735D01*
X151656326Y-99699926D01*
X151608707Y-99676116D01*
X150376001Y-97604710D02*
X150376001Y-97104710D01*
X150709334Y-97104710D02*
X150804572Y-97104710D01*
X150852191Y-97128520D01*
X150899810Y-97176139D01*
X150923619Y-97271377D01*
X150923619Y-97438044D01*
X150899810Y-97533282D01*
X150852191Y-97580901D01*
X150804572Y-97604710D01*
X150709334Y-97604710D01*
X150661715Y-97580901D01*
X150614096Y-97533282D01*
X150590286Y-97438044D01*
X150590286Y-97271377D01*
X150614096Y-97176139D01*
X150661715Y-97128520D01*
X150709334Y-97104710D01*
X151376001Y-97104710D02*
X151137906Y-97104710D01*
X151114096Y-97342806D01*
X151137906Y-97318996D01*
X151185525Y-97295187D01*
X151304572Y-97295187D01*
X151352191Y-97318996D01*
X151376001Y-97342806D01*
X151399810Y-97390425D01*
X151399810Y-97509472D01*
X151376001Y-97557091D01*
X151352191Y-97580901D01*
X151304572Y-97604710D01*
X151185525Y-97604710D01*
X151137906Y-97580901D01*
X151114096Y-97557091D01*
X150137906Y-95054550D02*
X150137906Y-94554550D01*
X150471239Y-94554550D02*
X150566477Y-94554550D01*
X150614096Y-94578360D01*
X150661715Y-94625979D01*
X150685524Y-94721217D01*
X150685524Y-94887884D01*
X150661715Y-94983122D01*
X150614096Y-95030741D01*
X150566477Y-95054550D01*
X150471239Y-95054550D01*
X150423620Y-95030741D01*
X150376001Y-94983122D01*
X150352191Y-94887884D01*
X150352191Y-94721217D01*
X150376001Y-94625979D01*
X150423620Y-94578360D01*
X150471239Y-94554550D01*
X151161715Y-95054550D02*
X150876001Y-95054550D01*
X151018858Y-95054550D02*
X151018858Y-94554550D01*
X150971239Y-94625979D01*
X150923620Y-94673598D01*
X150876001Y-94697408D01*
X151328382Y-94554550D02*
X151661715Y-94554550D01*
X151447429Y-95054550D01*
X150168386Y-92478990D02*
X150168386Y-91978990D01*
X150501719Y-91978990D02*
X150596957Y-91978990D01*
X150644576Y-92002800D01*
X150692195Y-92050419D01*
X150716004Y-92145657D01*
X150716004Y-92312324D01*
X150692195Y-92407562D01*
X150644576Y-92455181D01*
X150596957Y-92478990D01*
X150501719Y-92478990D01*
X150454100Y-92455181D01*
X150406481Y-92407562D01*
X150382671Y-92312324D01*
X150382671Y-92145657D01*
X150406481Y-92050419D01*
X150454100Y-92002800D01*
X150501719Y-91978990D01*
X151192195Y-92478990D02*
X150906481Y-92478990D01*
X151049338Y-92478990D02*
X151049338Y-91978990D01*
X151001719Y-92050419D01*
X150954100Y-92098038D01*
X150906481Y-92121848D01*
X151358862Y-91978990D02*
X151692195Y-91978990D01*
X151477909Y-92478990D01*
X150406481Y-90025350D02*
X150406481Y-89525350D01*
X150739814Y-89525350D02*
X150835052Y-89525350D01*
X150882671Y-89549160D01*
X150930290Y-89596779D01*
X150954099Y-89692017D01*
X150954099Y-89858684D01*
X150930290Y-89953922D01*
X150882671Y-90001541D01*
X150835052Y-90025350D01*
X150739814Y-90025350D01*
X150692195Y-90001541D01*
X150644576Y-89953922D01*
X150620766Y-89858684D01*
X150620766Y-89692017D01*
X150644576Y-89596779D01*
X150692195Y-89549160D01*
X150739814Y-89525350D01*
X151382671Y-89692017D02*
X151382671Y-90025350D01*
X151263624Y-89501541D02*
X151144576Y-89858684D01*
X151454100Y-89858684D01*
X150325866Y-82481550D02*
X150325866Y-81981550D01*
X150659199Y-81981550D02*
X150754437Y-81981550D01*
X150802056Y-82005360D01*
X150849675Y-82052979D01*
X150873484Y-82148217D01*
X150873484Y-82314884D01*
X150849675Y-82410122D01*
X150802056Y-82457741D01*
X150754437Y-82481550D01*
X150659199Y-82481550D01*
X150611580Y-82457741D01*
X150563961Y-82410122D01*
X150540151Y-82314884D01*
X150540151Y-82148217D01*
X150563961Y-82052979D01*
X150611580Y-82005360D01*
X150659199Y-81981550D01*
X151349675Y-82481550D02*
X151063961Y-82481550D01*
X151206818Y-82481550D02*
X151206818Y-81981550D01*
X151159199Y-82052979D01*
X151111580Y-82100598D01*
X151063961Y-82124408D01*
X151778246Y-82148217D02*
X151778246Y-82481550D01*
X151659199Y-81957741D02*
X151540151Y-82314884D01*
X151849675Y-82314884D01*
X150311088Y-85063781D02*
X150382517Y-85087590D01*
X150501564Y-85087590D01*
X150549183Y-85063781D01*
X150572993Y-85039971D01*
X150596802Y-84992352D01*
X150596802Y-84944733D01*
X150572993Y-84897114D01*
X150549183Y-84873305D01*
X150501564Y-84849495D01*
X150406326Y-84825686D01*
X150358707Y-84801876D01*
X150334898Y-84778067D01*
X150311088Y-84730448D01*
X150311088Y-84682829D01*
X150334898Y-84635210D01*
X150358707Y-84611400D01*
X150406326Y-84587590D01*
X150525374Y-84587590D01*
X150596802Y-84611400D01*
X150811088Y-85087590D02*
X150811088Y-84587590D01*
X150930135Y-84587590D01*
X151001564Y-84611400D01*
X151049183Y-84659019D01*
X151072992Y-84706638D01*
X151096802Y-84801876D01*
X151096802Y-84873305D01*
X151072992Y-84968543D01*
X151049183Y-85016162D01*
X151001564Y-85063781D01*
X150930135Y-85087590D01*
X150811088Y-85087590D01*
X151572992Y-85087590D02*
X151287278Y-85087590D01*
X151430135Y-85087590D02*
X151430135Y-84587590D01*
X151382516Y-84659019D01*
X151334897Y-84706638D01*
X151287278Y-84730448D01*
X150015986Y-87602190D02*
X150015986Y-87102190D01*
X150349319Y-87102190D02*
X150444557Y-87102190D01*
X150492176Y-87126000D01*
X150539795Y-87173619D01*
X150563604Y-87268857D01*
X150563604Y-87435524D01*
X150539795Y-87530762D01*
X150492176Y-87578381D01*
X150444557Y-87602190D01*
X150349319Y-87602190D01*
X150301700Y-87578381D01*
X150254081Y-87530762D01*
X150230271Y-87435524D01*
X150230271Y-87268857D01*
X150254081Y-87173619D01*
X150301700Y-87126000D01*
X150349319Y-87102190D01*
X151039795Y-87602190D02*
X150754081Y-87602190D01*
X150896938Y-87602190D02*
X150896938Y-87102190D01*
X150849319Y-87173619D01*
X150801700Y-87221238D01*
X150754081Y-87245048D01*
X151492176Y-87102190D02*
X151254081Y-87102190D01*
X151230271Y-87340286D01*
X151254081Y-87316476D01*
X151301700Y-87292667D01*
X151420747Y-87292667D01*
X151468366Y-87316476D01*
X151492176Y-87340286D01*
X151515985Y-87387905D01*
X151515985Y-87506952D01*
X151492176Y-87554571D01*
X151468366Y-87578381D01*
X151420747Y-87602190D01*
X151301700Y-87602190D01*
X151254081Y-87578381D01*
X151230271Y-87554571D01*
D13*
X113568000Y-113494000D02*
X115568000Y-117494000D01*
X113568000Y-107994000D02*
X113568000Y-113494000D01*
X115568000Y-103994000D02*
X113568000Y-107994000D01*
X127068000Y-117494000D02*
X115568000Y-117494000D01*
X127068000Y-103994000D02*
X127068000Y-117494000D01*
X115568000Y-103994000D02*
X127068000Y-103994000D01*
D14*
X130242000Y-78920000D02*
X130242000Y-81580000D01*
X135382000Y-78920000D02*
X130242000Y-78920000D01*
X135382000Y-81580000D02*
X130242000Y-81580000D01*
X135382000Y-78920000D02*
X135382000Y-81580000D01*
X136652000Y-78920000D02*
X137982000Y-78920000D01*
X137982000Y-78920000D02*
X137982000Y-80250000D01*
X96670000Y-109985000D02*
X97600000Y-109985000D01*
X99830000Y-109985000D02*
X98900000Y-109985000D01*
X99830000Y-109985000D02*
X99830000Y-107825000D01*
X96670000Y-109985000D02*
X96670000Y-108525000D01*
X157028000Y-119034000D02*
X157028000Y-80814000D01*
X157028000Y-80814000D02*
X151708000Y-80814000D01*
X151708000Y-80814000D02*
X151708000Y-121694000D01*
X151708000Y-121694000D02*
X154368000Y-121694000D01*
X154368000Y-121694000D02*
X154368000Y-119034000D01*
X154368000Y-119034000D02*
X157028000Y-119034000D01*
X157028000Y-120304000D02*
X157028000Y-121694000D01*
X157028000Y-121694000D02*
X155638000Y-121694000D01*
D13*
X112070000Y-103190000D02*
X112070000Y-95040000D01*
X101920000Y-103190000D02*
X112070000Y-103190000D01*
X101920000Y-95040000D02*
X101920000Y-103190000D01*
X112070000Y-95040000D02*
X101920000Y-95040000D01*
X131960000Y-91740000D02*
X127960000Y-87740000D01*
X131960000Y-97240000D02*
X131960000Y-91740000D01*
X127960000Y-101240000D02*
X131960000Y-97240000D01*
X118460000Y-87740000D02*
X127960000Y-87740000D01*
X118460000Y-101240000D02*
X118460000Y-87740000D01*
X127960000Y-101240000D02*
X118460000Y-101240000D01*
D14*
X112850000Y-101930000D02*
X116150000Y-101930000D01*
X116150000Y-101930000D02*
X116150000Y-96530000D01*
X112850000Y-101930000D02*
X112850000Y-96530000D01*
X111103665Y-82231608D02*
G75*
G03X114336000Y-82388516I1672335J1078608D01*
G01*
X111103665Y-80074392D02*
G75*
G02X114336000Y-79917484I1672335J-1078608D01*
G01*
X111734870Y-82232837D02*
G75*
G03X113816961Y-82233000I1041130J1079837D01*
G01*
X111734870Y-80073163D02*
G75*
G02X113816961Y-80073000I1041130J-1079837D01*
G01*
X114336000Y-82389000D02*
X114336000Y-82233000D01*
X114336000Y-80073000D02*
X114336000Y-79917000D01*
X113292000Y-121494000D02*
X114292000Y-121494000D01*
X114292000Y-122854000D02*
X113292000Y-122854000D01*
X113292000Y-119716000D02*
X114292000Y-119716000D01*
X114292000Y-121076000D02*
X113292000Y-121076000D01*
X98500000Y-106605000D02*
X97300000Y-106605000D01*
X97300000Y-104845000D02*
X98500000Y-104845000D01*
X113657000Y-87929000D02*
X112657000Y-87929000D01*
X112657000Y-86569000D02*
X113657000Y-86569000D01*
X113657000Y-85770000D02*
X112657000Y-85770000D01*
X112657000Y-84410000D02*
X113657000Y-84410000D01*
X115906000Y-86860000D02*
X115906000Y-85860000D01*
X117266000Y-85860000D02*
X117266000Y-86860000D01*
D13*
X148400000Y-98610000D02*
X148400000Y-86610000D01*
X136400000Y-98610000D02*
X148400000Y-98610000D01*
X136400000Y-86610000D02*
X136400000Y-98610000D01*
X148400000Y-86610000D02*
X136400000Y-86610000D01*
X174800000Y-92700000D02*
X157800000Y-92700000D01*
X174800000Y-111200000D02*
X174800000Y-92700000D01*
X157800000Y-111200000D02*
X174800000Y-111200000D01*
X157800000Y-92700000D02*
X157800000Y-111200000D01*
X118323334Y-118927143D02*
X118275715Y-118974762D01*
X118132858Y-119022381D01*
X118037620Y-119022381D01*
X117894762Y-118974762D01*
X117799524Y-118879524D01*
X117751905Y-118784286D01*
X117704286Y-118593810D01*
X117704286Y-118450952D01*
X117751905Y-118260476D01*
X117799524Y-118165238D01*
X117894762Y-118070000D01*
X118037620Y-118022381D01*
X118132858Y-118022381D01*
X118275715Y-118070000D01*
X118323334Y-118117619D01*
X119275715Y-119022381D02*
X118704286Y-119022381D01*
X118990000Y-119022381D02*
X118990000Y-118022381D01*
X118894762Y-118165238D01*
X118799524Y-118260476D01*
X118704286Y-118308095D01*
X112789429Y-109074952D02*
X112789429Y-108313047D01*
X113170381Y-108693999D02*
X112408476Y-108693999D01*
X133963905Y-83202381D02*
X133963905Y-82202381D01*
X134344858Y-82202381D01*
X134440096Y-82250000D01*
X134487715Y-82297619D01*
X134535334Y-82392857D01*
X134535334Y-82535714D01*
X134487715Y-82630952D01*
X134440096Y-82678571D01*
X134344858Y-82726190D01*
X133963905Y-82726190D01*
X134868667Y-82202381D02*
X135487715Y-82202381D01*
X135154381Y-82583333D01*
X135297239Y-82583333D01*
X135392477Y-82630952D01*
X135440096Y-82678571D01*
X135487715Y-82773810D01*
X135487715Y-83011905D01*
X135440096Y-83107143D01*
X135392477Y-83154762D01*
X135297239Y-83202381D01*
X135011524Y-83202381D01*
X134916286Y-83154762D01*
X134868667Y-83107143D01*
X94738095Y-109852381D02*
X94738095Y-110661905D01*
X94785714Y-110757143D01*
X94833333Y-110804762D01*
X94928571Y-110852381D01*
X95119048Y-110852381D01*
X95214286Y-110804762D01*
X95261905Y-110757143D01*
X95309524Y-110661905D01*
X95309524Y-109852381D01*
X95738095Y-109947619D02*
X95785714Y-109900000D01*
X95880952Y-109852381D01*
X96119048Y-109852381D01*
X96214286Y-109900000D01*
X96261905Y-109947619D01*
X96309524Y-110042857D01*
X96309524Y-110138095D01*
X96261905Y-110280952D01*
X95690476Y-110852381D01*
X96309524Y-110852381D01*
X97421429Y-107355952D02*
X97421429Y-106594047D01*
X97802381Y-106974999D02*
X97040476Y-106974999D01*
X154034667Y-122146381D02*
X154034667Y-122860667D01*
X153987047Y-123003524D01*
X153891809Y-123098762D01*
X153748952Y-123146381D01*
X153653714Y-123146381D01*
X155034667Y-123146381D02*
X154463238Y-123146381D01*
X154748952Y-123146381D02*
X154748952Y-122146381D01*
X154653714Y-122289238D01*
X154558476Y-122384476D01*
X154463238Y-122432095D01*
X105948095Y-93782381D02*
X105948095Y-94591905D01*
X105995714Y-94687143D01*
X106043333Y-94734762D01*
X106138571Y-94782381D01*
X106329048Y-94782381D01*
X106424286Y-94734762D01*
X106471905Y-94687143D01*
X106519524Y-94591905D01*
X106519524Y-93782381D01*
X106900476Y-93782381D02*
X107519524Y-93782381D01*
X107186190Y-94163333D01*
X107329048Y-94163333D01*
X107424286Y-94210952D01*
X107471905Y-94258571D01*
X107519524Y-94353810D01*
X107519524Y-94591905D01*
X107471905Y-94687143D01*
X107424286Y-94734762D01*
X107329048Y-94782381D01*
X107043333Y-94782381D01*
X106948095Y-94734762D01*
X106900476Y-94687143D01*
X122913334Y-102407143D02*
X122865715Y-102454762D01*
X122722858Y-102502381D01*
X122627620Y-102502381D01*
X122484762Y-102454762D01*
X122389524Y-102359524D01*
X122341905Y-102264286D01*
X122294286Y-102073810D01*
X122294286Y-101930952D01*
X122341905Y-101740476D01*
X122389524Y-101645238D01*
X122484762Y-101550000D01*
X122627620Y-101502381D01*
X122722858Y-101502381D01*
X122865715Y-101550000D01*
X122913334Y-101597619D01*
X123294286Y-101597619D02*
X123341905Y-101550000D01*
X123437143Y-101502381D01*
X123675239Y-101502381D01*
X123770477Y-101550000D01*
X123818096Y-101597619D01*
X123865715Y-101692857D01*
X123865715Y-101788095D01*
X123818096Y-101930952D01*
X123246667Y-102502381D01*
X123865715Y-102502381D01*
X132881429Y-96920952D02*
X132881429Y-96159047D01*
X133262381Y-96539999D02*
X132500476Y-96539999D01*
X113791905Y-94592381D02*
X113791905Y-93592381D01*
X114030000Y-93592381D01*
X114172858Y-93640000D01*
X114268096Y-93735238D01*
X114315715Y-93830476D01*
X114363334Y-94020952D01*
X114363334Y-94163810D01*
X114315715Y-94354286D01*
X114268096Y-94449524D01*
X114172858Y-94544762D01*
X114030000Y-94592381D01*
X113791905Y-94592381D01*
X115315715Y-94592381D02*
X114744286Y-94592381D01*
X115030000Y-94592381D02*
X115030000Y-93592381D01*
X114934762Y-93735238D01*
X114839524Y-93830476D01*
X114744286Y-93878095D01*
X111961705Y-78785981D02*
X111961705Y-77785981D01*
X112199800Y-77785981D01*
X112342658Y-77833600D01*
X112437896Y-77928838D01*
X112485515Y-78024076D01*
X112533134Y-78214552D01*
X112533134Y-78357410D01*
X112485515Y-78547886D01*
X112437896Y-78643124D01*
X112342658Y-78738362D01*
X112199800Y-78785981D01*
X111961705Y-78785981D01*
X112866467Y-77785981D02*
X113485515Y-77785981D01*
X113152181Y-78166933D01*
X113295039Y-78166933D01*
X113390277Y-78214552D01*
X113437896Y-78262171D01*
X113485515Y-78357410D01*
X113485515Y-78595505D01*
X113437896Y-78690743D01*
X113390277Y-78738362D01*
X113295039Y-78785981D01*
X113009324Y-78785981D01*
X112914086Y-78738362D01*
X112866467Y-78690743D01*
X116800334Y-122676381D02*
X116467000Y-122200190D01*
X116228905Y-122676381D02*
X116228905Y-121676381D01*
X116609858Y-121676381D01*
X116705096Y-121724000D01*
X116752715Y-121771619D01*
X116800334Y-121866857D01*
X116800334Y-122009714D01*
X116752715Y-122104952D01*
X116705096Y-122152571D01*
X116609858Y-122200190D01*
X116228905Y-122200190D01*
X117133667Y-121676381D02*
X117752715Y-121676381D01*
X117419381Y-122057333D01*
X117562239Y-122057333D01*
X117657477Y-122104952D01*
X117705096Y-122152571D01*
X117752715Y-122247810D01*
X117752715Y-122485905D01*
X117705096Y-122581143D01*
X117657477Y-122628762D01*
X117562239Y-122676381D01*
X117276524Y-122676381D01*
X117181286Y-122628762D01*
X117133667Y-122581143D01*
X116775334Y-120798381D02*
X116442000Y-120322190D01*
X116203905Y-120798381D02*
X116203905Y-119798381D01*
X116584858Y-119798381D01*
X116680096Y-119846000D01*
X116727715Y-119893619D01*
X116775334Y-119988857D01*
X116775334Y-120131714D01*
X116727715Y-120226952D01*
X116680096Y-120274571D01*
X116584858Y-120322190D01*
X116203905Y-120322190D01*
X117632477Y-120131714D02*
X117632477Y-120798381D01*
X117394381Y-119750762D02*
X117156286Y-120465048D01*
X117775334Y-120465048D01*
X94433334Y-106252381D02*
X94100000Y-105776190D01*
X93861905Y-106252381D02*
X93861905Y-105252381D01*
X94242858Y-105252381D01*
X94338096Y-105300000D01*
X94385715Y-105347619D01*
X94433334Y-105442857D01*
X94433334Y-105585714D01*
X94385715Y-105680952D01*
X94338096Y-105728571D01*
X94242858Y-105776190D01*
X93861905Y-105776190D01*
X95338096Y-105252381D02*
X94861905Y-105252381D01*
X94814286Y-105728571D01*
X94861905Y-105680952D01*
X94957143Y-105633333D01*
X95195239Y-105633333D01*
X95290477Y-105680952D01*
X95338096Y-105728571D01*
X95385715Y-105823810D01*
X95385715Y-106061905D01*
X95338096Y-106157143D01*
X95290477Y-106204762D01*
X95195239Y-106252381D01*
X94957143Y-106252381D01*
X94861905Y-106204762D01*
X94814286Y-106157143D01*
X109001143Y-87828381D02*
X108667809Y-87352190D01*
X108429714Y-87828381D02*
X108429714Y-86828381D01*
X108810667Y-86828381D01*
X108905905Y-86876000D01*
X108953524Y-86923619D01*
X109001143Y-87018857D01*
X109001143Y-87161714D01*
X108953524Y-87256952D01*
X108905905Y-87304571D01*
X108810667Y-87352190D01*
X108429714Y-87352190D01*
X109953524Y-87828381D02*
X109382095Y-87828381D01*
X109667809Y-87828381D02*
X109667809Y-86828381D01*
X109572571Y-86971238D01*
X109477333Y-87066476D01*
X109382095Y-87114095D01*
X110286857Y-86828381D02*
X110953524Y-86828381D01*
X110524952Y-87828381D01*
X108958143Y-85796381D02*
X108624809Y-85320190D01*
X108386714Y-85796381D02*
X108386714Y-84796381D01*
X108767667Y-84796381D01*
X108862905Y-84844000D01*
X108910524Y-84891619D01*
X108958143Y-84986857D01*
X108958143Y-85129714D01*
X108910524Y-85224952D01*
X108862905Y-85272571D01*
X108767667Y-85320190D01*
X108386714Y-85320190D01*
X109910524Y-85796381D02*
X109339095Y-85796381D01*
X109624809Y-85796381D02*
X109624809Y-84796381D01*
X109529571Y-84939238D01*
X109434333Y-85034476D01*
X109339095Y-85082095D01*
X110481952Y-85224952D02*
X110386714Y-85177333D01*
X110339095Y-85129714D01*
X110291476Y-85034476D01*
X110291476Y-84986857D01*
X110339095Y-84891619D01*
X110386714Y-84844000D01*
X110481952Y-84796381D01*
X110672429Y-84796381D01*
X110767667Y-84844000D01*
X110815286Y-84891619D01*
X110862905Y-84986857D01*
X110862905Y-85034476D01*
X110815286Y-85129714D01*
X110767667Y-85177333D01*
X110672429Y-85224952D01*
X110481952Y-85224952D01*
X110386714Y-85272571D01*
X110339095Y-85320190D01*
X110291476Y-85415429D01*
X110291476Y-85605905D01*
X110339095Y-85701143D01*
X110386714Y-85748762D01*
X110481952Y-85796381D01*
X110672429Y-85796381D01*
X110767667Y-85748762D01*
X110815286Y-85701143D01*
X110862905Y-85605905D01*
X110862905Y-85415429D01*
X110815286Y-85320190D01*
X110767667Y-85272571D01*
X110672429Y-85224952D01*
X115993943Y-89657181D02*
X115660609Y-89180990D01*
X115422514Y-89657181D02*
X115422514Y-88657181D01*
X115803467Y-88657181D01*
X115898705Y-88704800D01*
X115946324Y-88752419D01*
X115993943Y-88847657D01*
X115993943Y-88990514D01*
X115946324Y-89085752D01*
X115898705Y-89133371D01*
X115803467Y-89180990D01*
X115422514Y-89180990D01*
X116946324Y-89657181D02*
X116374895Y-89657181D01*
X116660609Y-89657181D02*
X116660609Y-88657181D01*
X116565371Y-88800038D01*
X116470133Y-88895276D01*
X116374895Y-88942895D01*
X117422514Y-89657181D02*
X117612990Y-89657181D01*
X117708229Y-89609562D01*
X117755848Y-89561943D01*
X117851086Y-89419086D01*
X117898705Y-89228610D01*
X117898705Y-88847657D01*
X117851086Y-88752419D01*
X117803467Y-88704800D01*
X117708229Y-88657181D01*
X117517752Y-88657181D01*
X117422514Y-88704800D01*
X117374895Y-88752419D01*
X117327276Y-88847657D01*
X117327276Y-89085752D01*
X117374895Y-89180990D01*
X117422514Y-89228610D01*
X117517752Y-89276229D01*
X117708229Y-89276229D01*
X117803467Y-89228610D01*
X117851086Y-89180990D01*
X117898705Y-89085752D01*
X142073334Y-85288381D02*
X141597143Y-85288381D01*
X141597143Y-84288381D01*
X142930477Y-85288381D02*
X142359048Y-85288381D01*
X142644762Y-85288381D02*
X142644762Y-84288381D01*
X142549524Y-84431238D01*
X142454286Y-84526476D01*
X142359048Y-84574095D01*
X138886905Y-118177381D02*
X138886905Y-118986905D01*
X138934524Y-119082143D01*
X138982143Y-119129762D01*
X139077381Y-119177381D01*
X139267858Y-119177381D01*
X139363096Y-119129762D01*
X139410715Y-119082143D01*
X139458334Y-118986905D01*
X139458334Y-118177381D01*
X140458334Y-119177381D02*
X139886905Y-119177381D01*
X140172619Y-119177381D02*
X140172619Y-118177381D01*
X140077381Y-118320238D01*
X139982143Y-118415476D01*
X139886905Y-118463095D01*
X141077381Y-118177381D02*
X141172620Y-118177381D01*
X141267858Y-118225000D01*
X141315477Y-118272619D01*
X141363096Y-118367857D01*
X141410715Y-118558333D01*
X141410715Y-118796429D01*
X141363096Y-118986905D01*
X141315477Y-119082143D01*
X141267858Y-119129762D01*
X141172620Y-119177381D01*
X141077381Y-119177381D01*
X140982143Y-119129762D01*
X140934524Y-119082143D01*
X140886905Y-118986905D01*
X140839286Y-118796429D01*
X140839286Y-118558333D01*
X140886905Y-118367857D01*
X140934524Y-118272619D01*
X140982143Y-118225000D01*
X141077381Y-118177381D01*
X146813095Y-116552381D02*
X146813095Y-117361905D01*
X146860714Y-117457143D01*
X146908333Y-117504762D01*
X147003571Y-117552381D01*
X147194048Y-117552381D01*
X147289286Y-117504762D01*
X147336905Y-117457143D01*
X147384524Y-117361905D01*
X147384524Y-116552381D01*
X148289286Y-116885714D02*
X148289286Y-117552381D01*
X148051190Y-116504762D02*
X147813095Y-117219048D01*
X148432143Y-117219048D01*
X157352381Y-96788095D02*
X156352381Y-96788095D01*
X156352381Y-96407142D01*
X156400000Y-96311904D01*
X156447619Y-96264285D01*
X156542857Y-96216666D01*
X156685714Y-96216666D01*
X156780952Y-96264285D01*
X156828571Y-96311904D01*
X156876190Y-96407142D01*
X156876190Y-96788095D01*
X156352381Y-95311904D02*
X156352381Y-95788095D01*
X156828571Y-95835714D01*
X156780952Y-95788095D01*
X156733333Y-95692857D01*
X156733333Y-95454761D01*
X156780952Y-95359523D01*
X156828571Y-95311904D01*
X156923810Y-95264285D01*
X157161905Y-95264285D01*
X157257143Y-95311904D01*
X157304762Y-95359523D01*
X157352381Y-95454761D01*
X157352381Y-95692857D01*
X157304762Y-95788095D01*
X157257143Y-95835714D01*
X97840667Y-97730381D02*
X97840667Y-98444667D01*
X97793047Y-98587524D01*
X97697809Y-98682762D01*
X97554952Y-98730381D01*
X97459714Y-98730381D01*
X98269238Y-97825619D02*
X98316857Y-97778000D01*
X98412095Y-97730381D01*
X98650191Y-97730381D01*
X98745429Y-97778000D01*
X98793048Y-97825619D01*
X98840667Y-97920857D01*
X98840667Y-98016095D01*
X98793048Y-98158952D01*
X98221619Y-98730381D01*
X98840667Y-98730381D01*
X94615048Y-94559429D02*
X95376953Y-94559429D01*
X94996001Y-94940381D02*
X94996001Y-94178476D01*
X94869048Y-101671429D02*
X95630953Y-101671429D01*
M02*
