G04 #@! TF.FileFunction,Soldermask,Top*
%FSLAX46Y46*%
G04 Gerber Fmt 4.6, Leading zero omitted, Abs format (unit mm)*
G04 Created by KiCad (PCBNEW 4.0.6+dfsg1-1) date Wed Jul 26 09:48:40 2017*
%MOMM*%
%LPD*%
G01*
G04 APERTURE LIST*
%ADD10C,0.100000*%
%ADD11R,5.400000X1.900000*%
%ADD12R,2.100000X2.100000*%
%ADD13O,2.100000X2.100000*%
%ADD14R,1.200000X1.300000*%
%ADD15R,1.470000X2.560000*%
%ADD16R,8.730000X7.390000*%
%ADD17R,1.460000X1.050000*%
%ADD18R,2.200000X2.900000*%
%ADD19R,2.200000X2.200000*%
%ADD20C,2.200000*%
%ADD21C,4.400000*%
%ADD22C,1.900000*%
%ADD23R,1.600000X1.300000*%
%ADD24R,1.900000X1.700000*%
%ADD25R,5.700000X3.200000*%
%ADD26C,3.900000*%
%ADD27R,3.900000X3.900000*%
%ADD28C,13.900000*%
%ADD29C,6.400000*%
G04 APERTURE END LIST*
D10*
D11*
X124968000Y-110744000D03*
X115718000Y-110744000D03*
D12*
X131560000Y-80250000D03*
D13*
X134100000Y-80250000D03*
X136640000Y-80250000D03*
D14*
X99200000Y-108225000D03*
X97300000Y-108225000D03*
X98250000Y-110225000D03*
D12*
X155638000Y-120304000D03*
D13*
X153098000Y-120304000D03*
X155638000Y-117764000D03*
X153098000Y-117764000D03*
X155638000Y-115224000D03*
X153098000Y-115224000D03*
X155638000Y-112684000D03*
X153098000Y-112684000D03*
X155638000Y-110144000D03*
X153098000Y-110144000D03*
X155638000Y-107604000D03*
X153098000Y-107604000D03*
X155638000Y-105064000D03*
X153098000Y-105064000D03*
X155638000Y-102524000D03*
X153098000Y-102524000D03*
X155638000Y-99984000D03*
X153098000Y-99984000D03*
X155638000Y-97444000D03*
X153098000Y-97444000D03*
X155638000Y-94904000D03*
X153098000Y-94904000D03*
X155638000Y-92364000D03*
X153098000Y-92364000D03*
X155638000Y-89824000D03*
X153098000Y-89824000D03*
X155638000Y-87284000D03*
X153098000Y-87284000D03*
X155638000Y-84744000D03*
X153098000Y-84744000D03*
X155638000Y-82204000D03*
X153098000Y-82204000D03*
D15*
X110420000Y-106340000D03*
X108720000Y-106340000D03*
X105320000Y-106340000D03*
X107020000Y-106340000D03*
X103620000Y-106340000D03*
D16*
X106970000Y-99040000D03*
D17*
X117025000Y-83350000D03*
X117025000Y-82400000D03*
X117025000Y-81450000D03*
X114825000Y-81450000D03*
X114825000Y-83350000D03*
D11*
X120560000Y-94490000D03*
X129810000Y-94490000D03*
D18*
X114500000Y-100530000D03*
X114500000Y-96530000D03*
D19*
X112200000Y-81975000D03*
D20*
X109660000Y-81975000D03*
D21*
X161743000Y-95384000D03*
X167443000Y-95384000D03*
X161743000Y-108684000D03*
X167443000Y-108684000D03*
D22*
X164743000Y-105534000D03*
X164743000Y-103034000D03*
X164743000Y-98534000D03*
X164743000Y-101034000D03*
X162143000Y-98534000D03*
X162143000Y-101034000D03*
X162143000Y-103034000D03*
X162143000Y-105534000D03*
D23*
X114892000Y-122174000D03*
X112692000Y-122174000D03*
X114892000Y-120396000D03*
X112692000Y-120396000D03*
D24*
X96550000Y-105725000D03*
X99250000Y-105725000D03*
D23*
X109898000Y-89408000D03*
X112098000Y-89408000D03*
X109898000Y-87122000D03*
X112098000Y-87122000D03*
X109898000Y-91620000D03*
X112098000Y-91620000D03*
D25*
X142350000Y-87510000D03*
X142350000Y-97610000D03*
D12*
X138938000Y-122936000D03*
D13*
X136398000Y-122936000D03*
X133858000Y-122936000D03*
X131318000Y-122936000D03*
D26*
X97000000Y-101750000D03*
D27*
X97000000Y-94750000D03*
D28*
X140175000Y-111075000D03*
D29*
X122075000Y-82450000D03*
X147025000Y-82450000D03*
X147025000Y-120950000D03*
X122075000Y-120950000D03*
M02*
