G04 #@! TF.FileFunction,Copper,L2,Bot,Signal*
%FSLAX46Y46*%
G04 Gerber Fmt 4.6, Leading zero omitted, Abs format (unit mm)*
G04 Created by KiCad (PCBNEW 4.0.6+dfsg1-1) date Sun Aug 13 23:01:47 2017*
%MOMM*%
%LPD*%
G01*
G04 APERTURE LIST*
%ADD10C,0.100000*%
%ADD11R,1.700000X1.700000*%
%ADD12O,1.700000X1.700000*%
%ADD13R,0.800000X0.900000*%
%ADD14R,0.750000X1.200000*%
%ADD15R,0.800000X0.800000*%
%ADD16R,1.800000X1.800000*%
%ADD17C,1.800000*%
%ADD18R,1.000000X0.900000*%
%ADD19R,0.900000X0.800000*%
%ADD20R,1.200000X0.900000*%
%ADD21R,0.900000X1.200000*%
%ADD22R,2.000000X1.000000*%
%ADD23R,1.000000X2.000000*%
%ADD24R,4.000000X4.000000*%
%ADD25R,1.060000X0.650000*%
%ADD26C,6.000000*%
%ADD27C,4.000000*%
%ADD28C,1.500000*%
%ADD29R,3.500000X3.500000*%
%ADD30R,2.000000X3.800000*%
%ADD31R,2.000000X1.500000*%
%ADD32R,0.650000X1.060000*%
%ADD33C,0.600000*%
%ADD34C,2.500000*%
%ADD35C,1.000000*%
%ADD36C,0.800000*%
%ADD37C,0.400000*%
%ADD38C,0.500000*%
%ADD39C,0.250000*%
%ADD40C,1.000000*%
%ADD41C,2.000000*%
%ADD42C,0.254000*%
G04 APERTURE END LIST*
D10*
D11*
X136652000Y-80250000D03*
D12*
X134112000Y-80250000D03*
X131572000Y-80250000D03*
D11*
X155638000Y-120304000D03*
D12*
X153098000Y-120304000D03*
X155638000Y-117764000D03*
X153098000Y-117764000D03*
X155638000Y-115224000D03*
X153098000Y-115224000D03*
X155638000Y-112684000D03*
X153098000Y-112684000D03*
X155638000Y-110144000D03*
X153098000Y-110144000D03*
X155638000Y-107604000D03*
X153098000Y-107604000D03*
X155638000Y-105064000D03*
X153098000Y-105064000D03*
X155638000Y-102524000D03*
X153098000Y-102524000D03*
X155638000Y-99984000D03*
X153098000Y-99984000D03*
X155638000Y-97444000D03*
X153098000Y-97444000D03*
X155638000Y-94904000D03*
X153098000Y-94904000D03*
X155638000Y-92364000D03*
X153098000Y-92364000D03*
X155638000Y-89824000D03*
X153098000Y-89824000D03*
X155638000Y-87284000D03*
X153098000Y-87284000D03*
X155638000Y-84744000D03*
X153098000Y-84744000D03*
X155638000Y-82204000D03*
X153098000Y-82204000D03*
D13*
X116280000Y-110430000D03*
X114380000Y-110430000D03*
X115330000Y-108430000D03*
D14*
X113718000Y-114959000D03*
X113718000Y-113059000D03*
D15*
X120650000Y-108360000D03*
X122250000Y-108360000D03*
D16*
X114046000Y-81153000D03*
D17*
X111506000Y-81153000D03*
D18*
X112318000Y-122959000D03*
X112318000Y-121359000D03*
X116418000Y-122959000D03*
X116418000Y-121359000D03*
D19*
X120480000Y-112930000D03*
X120480000Y-114830000D03*
X118480000Y-113880000D03*
D20*
X143019600Y-90373200D03*
X145219600Y-90373200D03*
X120058000Y-106172000D03*
X122258000Y-106172000D03*
D21*
X116260000Y-115200000D03*
X116260000Y-113000000D03*
X122830000Y-114880000D03*
X122830000Y-112680000D03*
D20*
X120575000Y-100500000D03*
X118375000Y-100500000D03*
D21*
X142725000Y-123300000D03*
X142725000Y-121100000D03*
D22*
X126973880Y-108756800D03*
X145007880Y-108728800D03*
D23*
X140435880Y-93262800D03*
X141705880Y-93262800D03*
X135355880Y-93262800D03*
X136625880Y-93262800D03*
X139165880Y-93262800D03*
X137895880Y-93262800D03*
X132815880Y-93262800D03*
X134085880Y-93262800D03*
X131545880Y-93262800D03*
X130275880Y-93262800D03*
D22*
X144991880Y-111276800D03*
X145007880Y-109998800D03*
X145007880Y-106188800D03*
X144991880Y-107466800D03*
X144991880Y-102386800D03*
X145007880Y-101108800D03*
X145007880Y-103648800D03*
X144991880Y-104926800D03*
X144991880Y-94766800D03*
X144991880Y-97306800D03*
X145007880Y-96028800D03*
X145007880Y-98568800D03*
X144991880Y-99846800D03*
X126957880Y-99846800D03*
X126973880Y-98568800D03*
X126973880Y-96028800D03*
X126957880Y-97306800D03*
X126957880Y-94766800D03*
X126957880Y-104926800D03*
X126973880Y-103648800D03*
X126973880Y-101108800D03*
X126957880Y-102386800D03*
X126957880Y-107466800D03*
X126973880Y-106188800D03*
X126973880Y-110026800D03*
X126973880Y-111296800D03*
D24*
X135300000Y-102610000D03*
D25*
X111658400Y-86766400D03*
X111658400Y-85816400D03*
X111658400Y-84866400D03*
X113858400Y-84866400D03*
X113858400Y-86766400D03*
D11*
X138938000Y-122936000D03*
D12*
X136398000Y-122936000D03*
X133858000Y-122936000D03*
X131318000Y-122936000D03*
D26*
X122075000Y-82450000D03*
X147025000Y-82450000D03*
X147025000Y-120950000D03*
X122075000Y-120950000D03*
D27*
X160950000Y-95400000D03*
X166650000Y-95400000D03*
X160950000Y-108700000D03*
X166650000Y-108700000D03*
D28*
X163950000Y-105550000D03*
X163950000Y-103050000D03*
X163950000Y-98550000D03*
X163950000Y-101050000D03*
X161350000Y-98550000D03*
X161350000Y-101050000D03*
X161350000Y-103050000D03*
X161350000Y-105550000D03*
D27*
X97874000Y-94728000D03*
D29*
X97874000Y-101728000D03*
D30*
X133858000Y-87376000D03*
D31*
X127558000Y-87376000D03*
X127558000Y-85076000D03*
X127558000Y-89676000D03*
D32*
X104480400Y-97985760D03*
X103530400Y-97985760D03*
X102580400Y-97985760D03*
X102580400Y-95785760D03*
X104480400Y-95785760D03*
X112649040Y-97985760D03*
X111699040Y-97985760D03*
X110749040Y-97985760D03*
X110749040Y-95785760D03*
X112649040Y-95785760D03*
D21*
X106644440Y-95778320D03*
X106644440Y-97978320D03*
X115463320Y-95907680D03*
X115463320Y-98107680D03*
D20*
X108701480Y-99903280D03*
X110901480Y-99903280D03*
D21*
X117647720Y-98158480D03*
X117647720Y-95958480D03*
X108595160Y-97937320D03*
X108595160Y-95737320D03*
D33*
X114500000Y-96530000D03*
X108839000Y-93482160D03*
X111600000Y-96530000D03*
D34*
X105679240Y-100761800D03*
D33*
X103499920Y-94325440D03*
X124396596Y-92511073D03*
D35*
X118998877Y-105726123D03*
D33*
X109748320Y-86334600D03*
X113924080Y-88463120D03*
X145219600Y-90373200D03*
D36*
X124937589Y-110831046D03*
D35*
X117200000Y-108725000D03*
D28*
X106295761Y-109104229D03*
D33*
X121802554Y-94409611D03*
D36*
X116300000Y-120125000D03*
D33*
X110420000Y-108420000D03*
D28*
X127208280Y-92232480D03*
X121239893Y-98901831D03*
X116575840Y-105283000D03*
D33*
X120716040Y-86781640D03*
X114239040Y-86029800D03*
D28*
X131572000Y-84074000D03*
X128200000Y-125000000D03*
D35*
X143075000Y-119225000D03*
D28*
X108458851Y-108157682D03*
D33*
X135585585Y-98349990D03*
X137862358Y-99171256D03*
X121611758Y-113763242D03*
X121725000Y-112050000D03*
X110205520Y-84424520D03*
X148300052Y-114048999D03*
X147851464Y-112873536D03*
X122326400Y-104023160D03*
X124058680Y-104968040D03*
X115143280Y-88630760D03*
X147575000Y-112000000D03*
X100825000Y-108300000D03*
X142325797Y-104081458D03*
X150088232Y-106368827D03*
X142305518Y-103281703D03*
X142396123Y-102486839D03*
X143377156Y-101825009D03*
X136850000Y-95699936D03*
X142891869Y-99510012D03*
X139247880Y-102951280D03*
X133908800Y-98907600D03*
X130759200Y-96520000D03*
X145868676Y-87181439D03*
X147370800Y-86724432D03*
X145700002Y-86399421D03*
X136075000Y-89375000D03*
X135525000Y-91225000D03*
X124471990Y-100625000D03*
X142725000Y-95250000D03*
X141033656Y-95688190D03*
X138075848Y-88970861D03*
X146900000Y-96475000D03*
X143375000Y-101025000D03*
X129750000Y-113250000D03*
X147278596Y-108568025D03*
X149300000Y-110175000D03*
X126273889Y-108540320D03*
X123388459Y-109376794D03*
X115271409Y-108125021D03*
X118272449Y-101452551D03*
X115557002Y-85415120D03*
X112227360Y-88524080D03*
X116100002Y-101640640D03*
X101909880Y-106740960D03*
X149666960Y-118252240D03*
D36*
X124190760Y-106349800D03*
X125110240Y-102707440D03*
X125222000Y-98663760D03*
X125526800Y-86720680D03*
D33*
X114718167Y-102280012D03*
X112703468Y-94510230D03*
X106873040Y-94345760D03*
D37*
X115463320Y-98107680D02*
X114500000Y-97144360D01*
X114500000Y-97144360D02*
X114500000Y-96530000D01*
X108595160Y-95737320D02*
X108595160Y-93726000D01*
X108595160Y-93726000D02*
X108839000Y-93482160D01*
X111699040Y-97985760D02*
X111699040Y-96629040D01*
X111699040Y-96629040D02*
X111600000Y-96530000D01*
X103530400Y-97985760D02*
X103530400Y-94355920D01*
X103530400Y-94355920D02*
X103499920Y-94325440D01*
D38*
X120058000Y-106172000D02*
X120003878Y-106226122D01*
X120003878Y-106226122D02*
X119498876Y-106226122D01*
X119498876Y-106226122D02*
X118998877Y-105726123D01*
D39*
X111658400Y-85816400D02*
X110266520Y-85816400D01*
X110266520Y-85816400D02*
X109748320Y-86334600D01*
D40*
X142843680Y-111425000D02*
X139000000Y-111425000D01*
D38*
X125403343Y-111296800D02*
X124937589Y-110831046D01*
D39*
X122161213Y-106947001D02*
X124205029Y-108990817D01*
X120058000Y-106172000D02*
X120208000Y-106172000D01*
X120208000Y-106172000D02*
X120983001Y-106947001D01*
X120983001Y-106947001D02*
X122161213Y-106947001D01*
D38*
X126973880Y-111296800D02*
X125403343Y-111296800D01*
D39*
X124205029Y-108990817D02*
X124205029Y-110098486D01*
X124205029Y-110098486D02*
X124937589Y-110831046D01*
D40*
X139000000Y-111425000D02*
X135300000Y-107725000D01*
X135300000Y-107725000D02*
X135300000Y-102610000D01*
X142991880Y-111276800D02*
X142843680Y-111425000D01*
X144991880Y-111276800D02*
X142991880Y-111276800D01*
D38*
X116445000Y-109480000D02*
X117200000Y-108725000D01*
X114380000Y-110430000D02*
X114380000Y-110380000D01*
X115280000Y-109480000D02*
X116445000Y-109480000D01*
X114380000Y-110380000D02*
X115280000Y-109480000D01*
D37*
X114380000Y-110430000D02*
X112430000Y-110430000D01*
X112430000Y-110430000D02*
X110420000Y-108420000D01*
X116300000Y-120125000D02*
X116300000Y-121241000D01*
X116300000Y-121241000D02*
X116418000Y-121359000D01*
D38*
X112318000Y-121359000D02*
X116418000Y-121359000D01*
D40*
X121239893Y-98901831D02*
X121239893Y-97364785D01*
X125237879Y-93366799D02*
X126073961Y-93366799D01*
X121239893Y-97364785D02*
X125237879Y-93366799D01*
X126073961Y-93366799D02*
X127208280Y-92232480D01*
X120650000Y-108360000D02*
X119652840Y-108360000D01*
X119652840Y-108360000D02*
X116575840Y-105283000D01*
D37*
X120716040Y-86781640D02*
X123071362Y-86781640D01*
X124777002Y-85076000D02*
X127558000Y-85076000D01*
X123071362Y-86781640D02*
X124777002Y-85076000D01*
X113858400Y-86766400D02*
X113858400Y-86410440D01*
X113858400Y-86410440D02*
X114239040Y-86029800D01*
D41*
X127558000Y-85076000D02*
X130570000Y-85076000D01*
X130570000Y-85076000D02*
X131572000Y-84074000D01*
D40*
X111788998Y-125000000D02*
X128200000Y-125000000D01*
X117952999Y-107500001D02*
X117378009Y-106925011D01*
X118047005Y-107500001D02*
X117952999Y-107500001D01*
X109691522Y-106925011D02*
X108458851Y-108157682D01*
X117378009Y-106925011D02*
X109691522Y-106925011D01*
X118907004Y-108360000D02*
X118047005Y-107500001D01*
X120650000Y-108360000D02*
X118907004Y-108360000D01*
X142725000Y-121100000D02*
X142725000Y-119575000D01*
X142725000Y-119575000D02*
X143075000Y-119225000D01*
X109900000Y-123061002D02*
X109875000Y-123086002D01*
X108458851Y-109218342D02*
X109900000Y-110659491D01*
X108458851Y-108157682D02*
X108458851Y-109218342D01*
X109900000Y-110659491D02*
X109900000Y-123061002D01*
X109875000Y-123086002D02*
X111788998Y-125000000D01*
D38*
X142725000Y-121100000D02*
X142725000Y-120950000D01*
X142725000Y-121100000D02*
X139424000Y-121100000D01*
X138938000Y-121586000D02*
X138938000Y-122936000D01*
X139424000Y-121100000D02*
X138938000Y-121586000D01*
X116260000Y-113000000D02*
X116260000Y-110450000D01*
X116260000Y-110450000D02*
X116280000Y-110430000D01*
X113718000Y-113059000D02*
X116201000Y-113059000D01*
X116201000Y-113059000D02*
X116260000Y-113000000D01*
D37*
X137041092Y-98349990D02*
X135585585Y-98349990D01*
X137862358Y-99171256D02*
X137041092Y-98349990D01*
X121596758Y-113763242D02*
X121611758Y-113763242D01*
X120530000Y-114830000D02*
X121596758Y-113763242D01*
X120480000Y-114830000D02*
X120530000Y-114830000D01*
X122250000Y-108360000D02*
X122250000Y-111525000D01*
X122250000Y-111525000D02*
X121725000Y-112050000D01*
X120480000Y-114830000D02*
X122780000Y-114830000D01*
X111658400Y-84866400D02*
X110647400Y-84866400D01*
X110647400Y-84866400D02*
X110205520Y-84424520D01*
D39*
X138376179Y-114048999D02*
X148300052Y-114048999D01*
X131793980Y-107466800D02*
X138376179Y-114048999D01*
X126957880Y-107466800D02*
X131793980Y-107466800D01*
X126973880Y-106188800D02*
X131152390Y-106188800D01*
X131152390Y-106188800D02*
X138137125Y-113173535D01*
X138137125Y-113173535D02*
X147551465Y-113173535D01*
X147551465Y-113173535D02*
X147851464Y-112873536D01*
X122326400Y-104023160D02*
X119300001Y-100996761D01*
X119300001Y-100996761D02*
X119300001Y-92787481D01*
X119300001Y-92787481D02*
X115143280Y-88630760D01*
X126957880Y-104926800D02*
X124099920Y-104926800D01*
X124099920Y-104926800D02*
X124058680Y-104968040D01*
D37*
X111947960Y-89413080D02*
X114360960Y-89413080D01*
X114360960Y-89413080D02*
X115143280Y-88630760D01*
X111399320Y-88864440D02*
X111947960Y-89413080D01*
X111399320Y-87750480D02*
X111399320Y-88864440D01*
X111658400Y-86766400D02*
X111658400Y-87491400D01*
X111658400Y-87491400D02*
X111399320Y-87750480D01*
D39*
X147099989Y-112475011D02*
X147575000Y-112000000D01*
X126957880Y-104926800D02*
X130526800Y-104926800D01*
X130526800Y-104926800D02*
X138075011Y-112475011D01*
X138075011Y-112475011D02*
X147099989Y-112475011D01*
X104638360Y-108300000D02*
X110024360Y-102914000D01*
X110024360Y-102914000D02*
X118850000Y-102914000D01*
X100825000Y-108300000D02*
X104638360Y-108300000D01*
X124081200Y-103648800D02*
X122258000Y-105472000D01*
X126973880Y-103648800D02*
X124081200Y-103648800D01*
X122258000Y-105472000D02*
X122258000Y-106172000D01*
X141685287Y-103456524D02*
X141685287Y-103865212D01*
X137524979Y-97824979D02*
X140499999Y-100799999D01*
X141901533Y-104081458D02*
X142325797Y-104081458D01*
X140499999Y-100799999D02*
X140499999Y-102271236D01*
X140499999Y-102271236D02*
X141685287Y-103456524D01*
X135985576Y-97824979D02*
X137524979Y-97824979D01*
X135885586Y-97724989D02*
X135985576Y-97824979D01*
X134147691Y-97724989D02*
X135885586Y-97724989D01*
X128223880Y-103648800D02*
X134147691Y-97724989D01*
X126973880Y-103648800D02*
X128223880Y-103648800D01*
X141685287Y-103865212D02*
X141901533Y-104081458D01*
X118850000Y-102914000D02*
X122108000Y-106172000D01*
X122108000Y-106172000D02*
X122258000Y-106172000D01*
X154402827Y-106368827D02*
X150088232Y-106368827D01*
X155638000Y-107604000D02*
X154402827Y-106368827D01*
X122258000Y-106172000D02*
X122408000Y-106172000D01*
X141374999Y-100874999D02*
X141374999Y-102351184D01*
X128849469Y-102386800D02*
X133961291Y-97274978D01*
X137874968Y-97374968D02*
X141374999Y-100874999D01*
X141374999Y-102351184D02*
X142305518Y-103281703D01*
X136071986Y-97274978D02*
X136171976Y-97374968D01*
X136171976Y-97374968D02*
X137874968Y-97374968D01*
X133961291Y-97274978D02*
X136071986Y-97274978D01*
X126957880Y-102386800D02*
X128849469Y-102386800D01*
X136358376Y-96924957D02*
X138428412Y-96924957D01*
X141949988Y-102040704D02*
X142396123Y-102486839D01*
X136258386Y-96824967D02*
X136358376Y-96924957D01*
X141949988Y-100446533D02*
X141949988Y-102040704D01*
X126973880Y-101108800D02*
X129491058Y-101108800D01*
X133774891Y-96824967D02*
X136258386Y-96824967D01*
X138428412Y-96924957D02*
X141949988Y-100446533D01*
X129491058Y-101108800D02*
X133774891Y-96824967D01*
D37*
X142474999Y-101347116D02*
X142952892Y-101825009D01*
X136475852Y-96299956D02*
X136575842Y-96399946D01*
X142952892Y-101825009D02*
X143377156Y-101825009D01*
X126957880Y-99846800D02*
X130010581Y-99846800D01*
X136575842Y-96399946D02*
X138745801Y-96399946D01*
X138745801Y-96399946D02*
X142474999Y-100129144D01*
X142474999Y-100129144D02*
X142474999Y-101347116D01*
X133557425Y-96299956D02*
X136475852Y-96299956D01*
X130010581Y-99846800D02*
X133557425Y-96299956D01*
X126973880Y-98568800D02*
X130440038Y-98568800D01*
X133308902Y-95699936D02*
X136850000Y-95699936D01*
X130440038Y-98568800D02*
X133308902Y-95699936D01*
D39*
X130959561Y-97306800D02*
X133191427Y-95074934D01*
X126957880Y-97306800D02*
X130959561Y-97306800D01*
X138581824Y-95199967D02*
X142891869Y-99510012D01*
X137150002Y-95074934D02*
X137275035Y-95199967D01*
X133191427Y-95074934D02*
X137150002Y-95074934D01*
X137275035Y-95199967D02*
X138581824Y-95199967D01*
X133908800Y-98907600D02*
X135111198Y-100109998D01*
X135111198Y-100109998D02*
X137385000Y-100109998D01*
X137385000Y-100109998D02*
X138064240Y-100789238D01*
X138064240Y-100789238D02*
X138064240Y-101767640D01*
X138064240Y-101767640D02*
X139247880Y-102951280D01*
X130191800Y-96028800D02*
X130683000Y-96520000D01*
X130683000Y-96520000D02*
X130759200Y-96520000D01*
X126973880Y-96028800D02*
X130191800Y-96028800D01*
X154273001Y-88459001D02*
X155638000Y-89824000D01*
X142303726Y-94749956D02*
X145455470Y-91598212D01*
X149420199Y-91598212D02*
X152559409Y-88459001D01*
X145455470Y-91598212D02*
X149420199Y-91598212D01*
X137461435Y-94749956D02*
X142303726Y-94749956D01*
X132842149Y-94787801D02*
X133005027Y-94624923D01*
X128228881Y-94787801D02*
X132842149Y-94787801D01*
X152559409Y-88459001D02*
X154273001Y-88459001D01*
X126957880Y-94766800D02*
X128207880Y-94766800D01*
X128207880Y-94766800D02*
X128228881Y-94787801D01*
X137336402Y-94624923D02*
X137461435Y-94749956D01*
X133005027Y-94624923D02*
X137336402Y-94624923D01*
X140585080Y-88050780D02*
X144999335Y-88050780D01*
X144999335Y-88050780D02*
X145868676Y-87181439D01*
X138313611Y-90274978D02*
X138577222Y-90011367D01*
X138577222Y-90011367D02*
X138624493Y-90011367D01*
X138624493Y-90011367D02*
X140585080Y-88050780D01*
X131545880Y-93262800D02*
X131545880Y-92012800D01*
X133458669Y-90100011D02*
X137499697Y-90100011D01*
X137499697Y-90100011D02*
X137674664Y-90274978D01*
X131545880Y-92012800D02*
X133458669Y-90100011D01*
X137674664Y-90274978D02*
X138313611Y-90274978D01*
X145594442Y-88500790D02*
X147370800Y-86724432D01*
X140771480Y-88500790D02*
X145594442Y-88500790D01*
X132815880Y-93262800D02*
X132815880Y-92012800D01*
X137488264Y-90724989D02*
X138547281Y-90724989D01*
X137338297Y-90575022D02*
X137488264Y-90724989D01*
X134253658Y-90575022D02*
X137338297Y-90575022D01*
X132815880Y-92012800D02*
X134253658Y-90575022D01*
X138547281Y-90724989D02*
X140771480Y-88500790D01*
X140420250Y-87579200D02*
X144520223Y-87579200D01*
X144520223Y-87579200D02*
X145700002Y-86399421D01*
X138127212Y-89824967D02*
X138390821Y-89561358D01*
X138390821Y-89561358D02*
X138438092Y-89561358D01*
X138438092Y-89561358D02*
X140420250Y-87579200D01*
X137861064Y-89824967D02*
X138127212Y-89824967D01*
X137411097Y-89375000D02*
X137861064Y-89824967D01*
X136075000Y-89375000D02*
X137411097Y-89375000D01*
X134085880Y-93262800D02*
X134085880Y-92012800D01*
X134085880Y-92012800D02*
X134873680Y-91225000D01*
X134873680Y-91225000D02*
X135525000Y-91225000D01*
X140957880Y-88950800D02*
X146351200Y-88950800D01*
X146351200Y-88950800D02*
X153098000Y-82204000D01*
X137895880Y-93262800D02*
X137895880Y-92012800D01*
X137895880Y-92012800D02*
X140957880Y-88950800D01*
X141719880Y-89458800D02*
X148383200Y-89458800D01*
X148383200Y-89458800D02*
X153098000Y-84744000D01*
X139165880Y-93262800D02*
X139165880Y-92012800D01*
X139165880Y-92012800D02*
X141719880Y-89458800D01*
X143019600Y-90373200D02*
X143169600Y-90373200D01*
X149233799Y-91148201D02*
X153098000Y-87284000D01*
X143169600Y-90373200D02*
X143944601Y-91148201D01*
X143944601Y-91148201D02*
X149233799Y-91148201D01*
X140435880Y-93262800D02*
X140435880Y-92012800D01*
X140435880Y-92012800D02*
X142075480Y-90373200D01*
X142075480Y-90373200D02*
X143019600Y-90373200D01*
X152932000Y-87450000D02*
X153098000Y-87284000D01*
D37*
X124346990Y-100500000D02*
X124471990Y-100625000D01*
X120575000Y-100500000D02*
X124346990Y-100500000D01*
X142725000Y-95250000D02*
X143208200Y-94766800D01*
X143208200Y-94766800D02*
X144991880Y-94766800D01*
D38*
X152440998Y-89824000D02*
X153098000Y-89824000D01*
X146236198Y-96028800D02*
X152440998Y-89824000D01*
X145007880Y-96028800D02*
X146236198Y-96028800D01*
D37*
X145007880Y-96028800D02*
X141374266Y-96028800D01*
X141374266Y-96028800D02*
X141033656Y-95688190D01*
X134112000Y-80250000D02*
X138075848Y-84213848D01*
X138075848Y-84213848D02*
X138075848Y-88970861D01*
X146900000Y-96475000D02*
X146068200Y-97306800D01*
X146068200Y-97306800D02*
X144991880Y-97306800D01*
D38*
X144991880Y-97306800D02*
X148155200Y-97306800D01*
X148155200Y-97306800D02*
X153098000Y-92364000D01*
D37*
X143591879Y-99984801D02*
X143591879Y-98584801D01*
X143375000Y-101025000D02*
X143375000Y-100201680D01*
X143375000Y-100201680D02*
X143591879Y-99984801D01*
X143591879Y-98584801D02*
X143607880Y-98568800D01*
X143607880Y-98568800D02*
X145007880Y-98568800D01*
X136398000Y-122936000D02*
X136398000Y-119898000D01*
X136398000Y-119898000D02*
X129750000Y-113250000D01*
D38*
X145007880Y-98568800D02*
X149433200Y-98568800D01*
X149433200Y-98568800D02*
X153098000Y-94904000D01*
X136398000Y-122936000D02*
X136398000Y-124138081D01*
X136398000Y-124138081D02*
X136695920Y-124436001D01*
X141775000Y-123300000D02*
X142725000Y-123300000D01*
X136695920Y-124436001D02*
X140638999Y-124436001D01*
X140638999Y-124436001D02*
X141775000Y-123300000D01*
X144991880Y-99846800D02*
X150695200Y-99846800D01*
X150695200Y-99846800D02*
X153098000Y-97444000D01*
X145007880Y-101108800D02*
X151973200Y-101108800D01*
X151973200Y-101108800D02*
X153098000Y-99984000D01*
X144991880Y-102386800D02*
X152960800Y-102386800D01*
X152960800Y-102386800D02*
X153098000Y-102524000D01*
X144991880Y-104926800D02*
X152960800Y-104926800D01*
X152960800Y-104926800D02*
X153098000Y-105064000D01*
D37*
X147117821Y-108728800D02*
X147278596Y-108568025D01*
X145007880Y-108728800D02*
X147117821Y-108728800D01*
D39*
X149300000Y-110175000D02*
X145184080Y-110175000D01*
X145184080Y-110175000D02*
X145007880Y-109998800D01*
D38*
X152952800Y-109998800D02*
X153098000Y-110144000D01*
X150825013Y-110411013D02*
X153098000Y-112684000D01*
X150825013Y-108350044D02*
X150825013Y-110411013D01*
X148663769Y-106188800D02*
X150825013Y-108350044D01*
X145007880Y-106188800D02*
X148663769Y-106188800D01*
X151875012Y-114001012D02*
X153098000Y-115224000D01*
X150125002Y-111398642D02*
X151875012Y-113148651D01*
X150125002Y-108639998D02*
X150125002Y-111398642D01*
X144991880Y-107466800D02*
X148951804Y-107466800D01*
X148951804Y-107466800D02*
X150125002Y-108639998D01*
X151875012Y-113148651D02*
X151875012Y-114001012D01*
D39*
X126698153Y-108540320D02*
X126273889Y-108540320D01*
X126757400Y-108540320D02*
X126698153Y-108540320D01*
X126973880Y-108756800D02*
X126757400Y-108540320D01*
X122830000Y-109935253D02*
X123388459Y-109376794D01*
X122830000Y-112680000D02*
X122830000Y-109935253D01*
X120480000Y-112930000D02*
X122580000Y-112930000D01*
X122580000Y-112930000D02*
X122830000Y-112680000D01*
X117525000Y-121902000D02*
X117525000Y-116270002D01*
X119780000Y-113580000D02*
X120430000Y-112930000D01*
X117525000Y-116270002D02*
X119780000Y-114015002D01*
X119780000Y-114015002D02*
X119780000Y-113580000D01*
X120430000Y-112930000D02*
X120480000Y-112930000D01*
X116418000Y-122959000D02*
X116468000Y-122959000D01*
X116468000Y-122959000D02*
X117525000Y-121902000D01*
D37*
X120480000Y-113087542D02*
X120480000Y-112930000D01*
D38*
X116418000Y-122959000D02*
X112318000Y-122959000D01*
D37*
X115271409Y-108399285D02*
X115271409Y-108125021D01*
X115302124Y-108430000D02*
X115271409Y-108399285D01*
X115330000Y-108430000D02*
X115302124Y-108430000D01*
X118375000Y-101350000D02*
X118272449Y-101452551D01*
X118375000Y-100500000D02*
X118375000Y-101350000D01*
D38*
X115284000Y-108384000D02*
X115330000Y-108430000D01*
X116260000Y-115200000D02*
X117160000Y-115200000D01*
X117160000Y-115200000D02*
X118480000Y-113880000D01*
D37*
X115557002Y-85415120D02*
X115008282Y-84866400D01*
X115008282Y-84866400D02*
X113858400Y-84866400D01*
X112227360Y-88524080D02*
X112728399Y-88023041D01*
X112728399Y-88023041D02*
X112728399Y-85791401D01*
X112728399Y-85791401D02*
X113653400Y-84866400D01*
X113653400Y-84866400D02*
X113858400Y-84866400D01*
D39*
X117647720Y-98158480D02*
X117647720Y-98308480D01*
X117647720Y-98308480D02*
X116100002Y-99856198D01*
X116100002Y-99856198D02*
X116100002Y-101640640D01*
X104480400Y-97985760D02*
X104480400Y-98765760D01*
X104480400Y-98765760D02*
X104205399Y-99040761D01*
X104205399Y-99040761D02*
X102785399Y-99040761D01*
X102785399Y-99040761D02*
X102580400Y-98835762D01*
X102580400Y-98835762D02*
X102580400Y-97985760D01*
X102534720Y-100446800D02*
X102534720Y-98031440D01*
X102534720Y-98031440D02*
X102580400Y-97985760D01*
X102534720Y-100446800D02*
X101559719Y-101421801D01*
X101559719Y-101421801D02*
X101559719Y-106390799D01*
X101559719Y-106390799D02*
X101909880Y-106740960D01*
D38*
X134572080Y-116125000D02*
X147539720Y-116125000D01*
X147539720Y-116125000D02*
X149666960Y-118252240D01*
X125523879Y-108248604D02*
X125523879Y-109616801D01*
X125933878Y-110026800D02*
X126973880Y-110026800D01*
X124190760Y-106915485D02*
X125523879Y-108248604D01*
X124190760Y-106349800D02*
X124190760Y-106915485D01*
X125523879Y-109616801D02*
X125933878Y-110026800D01*
X125222000Y-98663760D02*
X125222000Y-102595680D01*
X125222000Y-102595680D02*
X125110240Y-102707440D01*
X127558000Y-87376000D02*
X126182120Y-87376000D01*
X126182120Y-87376000D02*
X125526800Y-86720680D01*
D37*
X127400520Y-87533480D02*
X127558000Y-87376000D01*
D38*
X126973880Y-110026800D02*
X128473880Y-110026800D01*
X128473880Y-110026800D02*
X134572080Y-116125000D01*
D39*
X114418168Y-101980013D02*
X114718167Y-102280012D01*
X112649040Y-97985760D02*
X112649040Y-100210885D01*
X112649040Y-100210885D02*
X114418168Y-101980013D01*
X110901480Y-99903280D02*
X111751480Y-99903280D01*
X111751480Y-99903280D02*
X112649040Y-99005720D01*
X112649040Y-99005720D02*
X112649040Y-98765760D01*
X112649040Y-98765760D02*
X112649040Y-97985760D01*
X112649040Y-94564658D02*
X112703468Y-94510230D01*
X112649040Y-95785760D02*
X112649040Y-94564658D01*
X106873040Y-94345760D02*
X106873040Y-95549720D01*
X106873040Y-95549720D02*
X106644440Y-95778320D01*
X104480400Y-95785760D02*
X106637000Y-95785760D01*
X106637000Y-95785760D02*
X106644440Y-95778320D01*
X110749040Y-97985760D02*
X108643600Y-97985760D01*
X108643600Y-97985760D02*
X108595160Y-97937320D01*
X106644440Y-97978320D02*
X108554160Y-97978320D01*
X108554160Y-97978320D02*
X108595160Y-97937320D01*
X108701480Y-99903280D02*
X108701480Y-98043640D01*
X108701480Y-98043640D02*
X108595160Y-97937320D01*
X110700640Y-98034160D02*
X110749040Y-97985760D01*
X112644440Y-93685360D02*
X113391000Y-93685360D01*
X115463320Y-95757680D02*
X115463320Y-95907680D01*
X113391000Y-93685360D02*
X115463320Y-95757680D01*
X110749040Y-95785760D02*
X110749040Y-95580760D01*
X110749040Y-95580760D02*
X112644440Y-93685360D01*
X117647720Y-95958480D02*
X115514120Y-95958480D01*
X115514120Y-95958480D02*
X115463320Y-95907680D01*
D42*
G36*
X157958000Y-92109000D02*
X158012046Y-92380705D01*
X158165954Y-92611046D01*
X158396295Y-92764954D01*
X158668000Y-92819000D01*
X160284735Y-92819000D01*
X159475353Y-93154257D01*
X159254584Y-93524978D01*
X160950000Y-95220395D01*
X162645416Y-93524978D01*
X162424647Y-93154257D01*
X161596545Y-92819000D01*
X165984735Y-92819000D01*
X165175353Y-93154257D01*
X164954584Y-93524978D01*
X166650000Y-95220395D01*
X168345416Y-93524978D01*
X168124647Y-93154257D01*
X167296545Y-92819000D01*
X174958000Y-92819000D01*
X174958000Y-110999000D01*
X167996073Y-110999000D01*
X168124647Y-110945743D01*
X168345416Y-110575022D01*
X166650000Y-108879605D01*
X164954584Y-110575022D01*
X165175353Y-110945743D01*
X165306901Y-110999000D01*
X162296073Y-110999000D01*
X162424647Y-110945743D01*
X162645416Y-110575022D01*
X160950000Y-108879605D01*
X159254584Y-110575022D01*
X159475353Y-110945743D01*
X159606901Y-110999000D01*
X159418000Y-110999000D01*
X159146295Y-111053046D01*
X158915954Y-111206954D01*
X158762046Y-111437295D01*
X158708000Y-111709000D01*
X158708000Y-125499000D01*
X129492453Y-125499000D01*
X129584759Y-125276702D01*
X129585240Y-124725715D01*
X129374831Y-124216485D01*
X128985564Y-123826539D01*
X128476702Y-123615241D01*
X127925715Y-123614760D01*
X127416485Y-123825169D01*
X127376585Y-123865000D01*
X124300066Y-123865000D01*
X124873173Y-123292892D01*
X129876514Y-123292892D01*
X130122817Y-123817358D01*
X130551076Y-124207645D01*
X130961110Y-124377476D01*
X131191000Y-124256155D01*
X131191000Y-123063000D01*
X129997181Y-123063000D01*
X129876514Y-123292892D01*
X124873173Y-123292892D01*
X125154806Y-123011751D01*
X125334455Y-122579108D01*
X129876514Y-122579108D01*
X129997181Y-122809000D01*
X131191000Y-122809000D01*
X131191000Y-121615845D01*
X130961110Y-121494524D01*
X130551076Y-121664355D01*
X130122817Y-122054642D01*
X129876514Y-122579108D01*
X125334455Y-122579108D01*
X125709368Y-121676218D01*
X125709847Y-121127000D01*
X135563000Y-121127000D01*
X135563000Y-121713159D01*
X135347946Y-121856853D01*
X135128000Y-122186026D01*
X134908054Y-121856853D01*
X134426285Y-121534946D01*
X133858000Y-121421907D01*
X133289715Y-121534946D01*
X132807946Y-121856853D01*
X132580298Y-122197553D01*
X132513183Y-122054642D01*
X132084924Y-121664355D01*
X131674890Y-121494524D01*
X131445000Y-121615845D01*
X131445000Y-122809000D01*
X131465000Y-122809000D01*
X131465000Y-123063000D01*
X131445000Y-123063000D01*
X131445000Y-124256155D01*
X131674890Y-124377476D01*
X132084924Y-124207645D01*
X132513183Y-123817358D01*
X132580298Y-123674447D01*
X132807946Y-124015147D01*
X133289715Y-124337054D01*
X133858000Y-124450093D01*
X134426285Y-124337054D01*
X134908054Y-124015147D01*
X135128000Y-123685974D01*
X135347946Y-124015147D01*
X135513000Y-124125432D01*
X135513000Y-124138076D01*
X135512999Y-124138081D01*
X135552578Y-124337054D01*
X135580367Y-124476756D01*
X135652271Y-124584368D01*
X135772210Y-124763871D01*
X136070128Y-125061788D01*
X136070130Y-125061791D01*
X136261974Y-125189976D01*
X136357246Y-125253635D01*
X136695920Y-125321002D01*
X136695925Y-125321001D01*
X140638994Y-125321001D01*
X140638999Y-125321002D01*
X140921483Y-125264811D01*
X140977674Y-125253634D01*
X141264789Y-125061791D01*
X141908475Y-124418104D01*
X142023110Y-124496431D01*
X142275000Y-124547440D01*
X143175000Y-124547440D01*
X143410317Y-124503162D01*
X143626441Y-124364090D01*
X143771431Y-124151890D01*
X143822440Y-123900000D01*
X143822440Y-122717983D01*
X143941600Y-123006372D01*
X144963249Y-124029806D01*
X146298782Y-124584368D01*
X147744874Y-124585630D01*
X149081372Y-124033400D01*
X150104806Y-123011751D01*
X150659368Y-121676218D01*
X150660254Y-120660890D01*
X151656524Y-120660890D01*
X151826355Y-121070924D01*
X152216642Y-121499183D01*
X152741108Y-121745486D01*
X152971000Y-121624819D01*
X152971000Y-120431000D01*
X153225000Y-120431000D01*
X153225000Y-121624819D01*
X153454892Y-121745486D01*
X153979358Y-121499183D01*
X154161070Y-121299792D01*
X154249673Y-121513699D01*
X154428302Y-121692327D01*
X154661691Y-121789000D01*
X155352250Y-121789000D01*
X155511000Y-121630250D01*
X155511000Y-120431000D01*
X155765000Y-120431000D01*
X155765000Y-121630250D01*
X155923750Y-121789000D01*
X156614309Y-121789000D01*
X156847698Y-121692327D01*
X157026327Y-121513699D01*
X157123000Y-121280310D01*
X157123000Y-120589750D01*
X156964250Y-120431000D01*
X155765000Y-120431000D01*
X155511000Y-120431000D01*
X153225000Y-120431000D01*
X152971000Y-120431000D01*
X151777845Y-120431000D01*
X151656524Y-120660890D01*
X150660254Y-120660890D01*
X150660630Y-120230126D01*
X150174711Y-119054113D01*
X150195903Y-119045357D01*
X150459152Y-118782567D01*
X150601798Y-118439039D01*
X150602122Y-118067073D01*
X150460077Y-117723297D01*
X150197287Y-117460048D01*
X150075973Y-117409674D01*
X148165510Y-115499210D01*
X148114785Y-115465317D01*
X147878395Y-115307367D01*
X147822204Y-115296190D01*
X147539720Y-115239999D01*
X147539715Y-115240000D01*
X147127000Y-115240000D01*
X147127000Y-114808999D01*
X147737589Y-114808999D01*
X147769725Y-114841191D01*
X148113253Y-114983837D01*
X148485219Y-114984161D01*
X148828995Y-114842116D01*
X149092244Y-114579326D01*
X149234890Y-114235798D01*
X149235214Y-113863832D01*
X149093169Y-113520056D01*
X148830379Y-113256807D01*
X148723199Y-113212302D01*
X148786302Y-113060335D01*
X148786626Y-112688369D01*
X148644581Y-112344593D01*
X148503147Y-112202912D01*
X148509838Y-112186799D01*
X148510162Y-111814833D01*
X148368117Y-111471057D01*
X148105327Y-111207808D01*
X147761799Y-111065162D01*
X147389833Y-111064838D01*
X147046057Y-111206883D01*
X146782808Y-111469673D01*
X146680934Y-111715011D01*
X146626880Y-111715011D01*
X146626880Y-111562550D01*
X146468130Y-111403800D01*
X145118880Y-111403800D01*
X145118880Y-111423800D01*
X144864880Y-111423800D01*
X144864880Y-111403800D01*
X143515630Y-111403800D01*
X143356880Y-111562550D01*
X143356880Y-111715011D01*
X138389813Y-111715011D01*
X131064201Y-104389399D01*
X130817639Y-104224652D01*
X130526800Y-104166800D01*
X128780682Y-104166800D01*
X130051732Y-102895750D01*
X132665000Y-102895750D01*
X132665000Y-104736310D01*
X132761673Y-104969699D01*
X132940302Y-105148327D01*
X133173691Y-105245000D01*
X135014250Y-105245000D01*
X135173000Y-105086250D01*
X135173000Y-102737000D01*
X132823750Y-102737000D01*
X132665000Y-102895750D01*
X130051732Y-102895750D01*
X133313139Y-99634343D01*
X133378473Y-99699792D01*
X133722001Y-99842438D01*
X133768877Y-99842479D01*
X133901398Y-99975000D01*
X133173691Y-99975000D01*
X132940302Y-100071673D01*
X132761673Y-100250301D01*
X132665000Y-100483690D01*
X132665000Y-102324250D01*
X132823750Y-102483000D01*
X135173000Y-102483000D01*
X135173000Y-102463000D01*
X135427000Y-102463000D01*
X135427000Y-102483000D01*
X135447000Y-102483000D01*
X135447000Y-102737000D01*
X135427000Y-102737000D01*
X135427000Y-105086250D01*
X135585750Y-105245000D01*
X137426309Y-105245000D01*
X137659698Y-105148327D01*
X137838327Y-104969699D01*
X137935000Y-104736310D01*
X137935000Y-102895750D01*
X137776252Y-102737002D01*
X137935000Y-102737002D01*
X137935000Y-102713202D01*
X138312758Y-103090960D01*
X138312718Y-103136447D01*
X138454763Y-103480223D01*
X138717553Y-103743472D01*
X139061081Y-103886118D01*
X139433047Y-103886442D01*
X139776823Y-103744397D01*
X140040072Y-103481607D01*
X140182718Y-103138079D01*
X140182813Y-103028852D01*
X140925287Y-103771326D01*
X140925287Y-103865212D01*
X140983139Y-104156051D01*
X141147886Y-104402613D01*
X141364132Y-104618859D01*
X141610694Y-104783606D01*
X141729093Y-104807157D01*
X141795470Y-104873650D01*
X142138998Y-105016296D01*
X142510964Y-105016620D01*
X142854740Y-104874575D01*
X143117989Y-104611785D01*
X143260635Y-104268257D01*
X143260959Y-103896291D01*
X143162085Y-103656998D01*
X143240356Y-103468502D01*
X143240680Y-103096536D01*
X143198124Y-102993543D01*
X143295126Y-102759938D01*
X143344440Y-102759981D01*
X143344440Y-102886800D01*
X143377701Y-103063565D01*
X143360440Y-103148800D01*
X143360440Y-104148800D01*
X143379849Y-104251947D01*
X143344440Y-104426800D01*
X143344440Y-105426800D01*
X143377701Y-105603565D01*
X143360440Y-105688800D01*
X143360440Y-106688800D01*
X143379849Y-106791947D01*
X143344440Y-106966800D01*
X143344440Y-107966800D01*
X143377701Y-108143565D01*
X143360440Y-108228800D01*
X143360440Y-109228800D01*
X143386775Y-109368756D01*
X143360440Y-109498800D01*
X143360440Y-110498800D01*
X143378955Y-110597197D01*
X143356880Y-110650490D01*
X143356880Y-110991050D01*
X143515630Y-111149800D01*
X144864880Y-111149800D01*
X144864880Y-111146240D01*
X145118880Y-111146240D01*
X145118880Y-111149800D01*
X146468130Y-111149800D01*
X146626880Y-110991050D01*
X146626880Y-110935000D01*
X148737537Y-110935000D01*
X148769673Y-110967192D01*
X149113201Y-111109838D01*
X149240002Y-111109948D01*
X149240002Y-111398637D01*
X149240001Y-111398642D01*
X149285823Y-111629000D01*
X149307369Y-111737317D01*
X149499212Y-112024432D01*
X149499215Y-112024434D01*
X150990012Y-113515230D01*
X150990012Y-114001007D01*
X150990011Y-114001012D01*
X151039030Y-114247440D01*
X151057379Y-114339687D01*
X151201536Y-114555434D01*
X151249222Y-114626802D01*
X151627461Y-115005040D01*
X151583907Y-115224000D01*
X151696946Y-115792285D01*
X152018853Y-116274054D01*
X152348026Y-116494000D01*
X152018853Y-116713946D01*
X151696946Y-117195715D01*
X151583907Y-117764000D01*
X151696946Y-118332285D01*
X152018853Y-118814054D01*
X152359553Y-119041702D01*
X152216642Y-119108817D01*
X151826355Y-119537076D01*
X151656524Y-119947110D01*
X151777845Y-120177000D01*
X152971000Y-120177000D01*
X152971000Y-120157000D01*
X153225000Y-120157000D01*
X153225000Y-120177000D01*
X155511000Y-120177000D01*
X155511000Y-120157000D01*
X155765000Y-120157000D01*
X155765000Y-120177000D01*
X156964250Y-120177000D01*
X157123000Y-120018250D01*
X157123000Y-119327690D01*
X157026327Y-119094301D01*
X156847698Y-118915673D01*
X156673223Y-118843403D01*
X156717147Y-118814054D01*
X157039054Y-118332285D01*
X157152093Y-117764000D01*
X157039054Y-117195715D01*
X156717147Y-116713946D01*
X156387974Y-116494000D01*
X156717147Y-116274054D01*
X157039054Y-115792285D01*
X157152093Y-115224000D01*
X157039054Y-114655715D01*
X156717147Y-114173946D01*
X156387974Y-113954000D01*
X156717147Y-113734054D01*
X157039054Y-113252285D01*
X157152093Y-112684000D01*
X157039054Y-112115715D01*
X156717147Y-111633946D01*
X156387974Y-111414000D01*
X156717147Y-111194054D01*
X157039054Y-110712285D01*
X157152093Y-110144000D01*
X157039054Y-109575715D01*
X156717147Y-109093946D01*
X156387974Y-108874000D01*
X156717147Y-108654054D01*
X157022531Y-108197012D01*
X158310881Y-108197012D01*
X158319287Y-109245247D01*
X158704257Y-110174647D01*
X159074978Y-110395416D01*
X160770395Y-108700000D01*
X161129605Y-108700000D01*
X162825022Y-110395416D01*
X163195743Y-110174647D01*
X163589119Y-109202988D01*
X163581052Y-108197012D01*
X164010881Y-108197012D01*
X164019287Y-109245247D01*
X164404257Y-110174647D01*
X164774978Y-110395416D01*
X166470395Y-108700000D01*
X166829605Y-108700000D01*
X168525022Y-110395416D01*
X168895743Y-110174647D01*
X169289119Y-109202988D01*
X169280713Y-108154753D01*
X168895743Y-107225353D01*
X168525022Y-107004584D01*
X166829605Y-108700000D01*
X166470395Y-108700000D01*
X164774978Y-107004584D01*
X164404257Y-107225353D01*
X164010881Y-108197012D01*
X163581052Y-108197012D01*
X163580713Y-108154753D01*
X163195743Y-107225353D01*
X162825022Y-107004584D01*
X161129605Y-108700000D01*
X160770395Y-108700000D01*
X159074978Y-107004584D01*
X158704257Y-107225353D01*
X158310881Y-108197012D01*
X157022531Y-108197012D01*
X157039054Y-108172285D01*
X157152093Y-107604000D01*
X157039054Y-107035715D01*
X156898245Y-106824978D01*
X159254584Y-106824978D01*
X160950000Y-108520395D01*
X162645416Y-106824978D01*
X162424647Y-106454257D01*
X162410357Y-106448472D01*
X162523461Y-106335564D01*
X162650050Y-106030703D01*
X162775169Y-106333515D01*
X163164436Y-106723461D01*
X163673298Y-106934759D01*
X164224285Y-106935240D01*
X164491140Y-106824978D01*
X164954584Y-106824978D01*
X166650000Y-108520395D01*
X168345416Y-106824978D01*
X168124647Y-106454257D01*
X167152988Y-106060881D01*
X166104753Y-106069287D01*
X165175353Y-106454257D01*
X164954584Y-106824978D01*
X164491140Y-106824978D01*
X164733515Y-106724831D01*
X165123461Y-106335564D01*
X165334759Y-105826702D01*
X165335240Y-105275715D01*
X165124831Y-104766485D01*
X164735564Y-104376539D01*
X164551414Y-104300073D01*
X164733515Y-104224831D01*
X165123461Y-103835564D01*
X165334759Y-103326702D01*
X165335240Y-102775715D01*
X165124831Y-102266485D01*
X164908687Y-102049964D01*
X165123461Y-101835564D01*
X165334759Y-101326702D01*
X165335240Y-100775715D01*
X165124831Y-100266485D01*
X164735564Y-99876539D01*
X164567246Y-99806647D01*
X164673923Y-99762460D01*
X164741912Y-99521517D01*
X163950000Y-98729605D01*
X163158088Y-99521517D01*
X163226077Y-99762460D01*
X163340611Y-99803222D01*
X163166485Y-99875169D01*
X162776539Y-100264436D01*
X162649950Y-100569297D01*
X162524831Y-100266485D01*
X162135564Y-99876539D01*
X161967246Y-99806647D01*
X162073923Y-99762460D01*
X162141912Y-99521517D01*
X161350000Y-98729605D01*
X160558088Y-99521517D01*
X160626077Y-99762460D01*
X160740611Y-99803222D01*
X160566485Y-99875169D01*
X160176539Y-100264436D01*
X159965241Y-100773298D01*
X159964760Y-101324285D01*
X160175169Y-101833515D01*
X160391313Y-102050036D01*
X160176539Y-102264436D01*
X159965241Y-102773298D01*
X159964760Y-103324285D01*
X160175169Y-103833515D01*
X160564436Y-104223461D01*
X160748586Y-104299927D01*
X160566485Y-104375169D01*
X160176539Y-104764436D01*
X159965241Y-105273298D01*
X159964760Y-105824285D01*
X160115498Y-106189100D01*
X159475353Y-106454257D01*
X159254584Y-106824978D01*
X156898245Y-106824978D01*
X156717147Y-106553946D01*
X156387974Y-106334000D01*
X156717147Y-106114054D01*
X157039054Y-105632285D01*
X157152093Y-105064000D01*
X157039054Y-104495715D01*
X156717147Y-104013946D01*
X156387974Y-103794000D01*
X156717147Y-103574054D01*
X157039054Y-103092285D01*
X157152093Y-102524000D01*
X157039054Y-101955715D01*
X156717147Y-101473946D01*
X156387974Y-101254000D01*
X156717147Y-101034054D01*
X157039054Y-100552285D01*
X157152093Y-99984000D01*
X157039054Y-99415715D01*
X156717147Y-98933946D01*
X156387974Y-98714000D01*
X156717147Y-98494054D01*
X157039054Y-98012285D01*
X157152093Y-97444000D01*
X157118482Y-97275022D01*
X159254584Y-97275022D01*
X159475353Y-97645743D01*
X160110243Y-97902778D01*
X159952799Y-98345171D01*
X159980770Y-98895448D01*
X160137540Y-99273923D01*
X160378483Y-99341912D01*
X161170395Y-98550000D01*
X161156253Y-98535858D01*
X161335858Y-98356253D01*
X161350000Y-98370395D01*
X161364143Y-98356253D01*
X161543748Y-98535858D01*
X161529605Y-98550000D01*
X162321517Y-99341912D01*
X162562460Y-99273923D01*
X162643370Y-99046578D01*
X162737540Y-99273923D01*
X162978483Y-99341912D01*
X163770395Y-98550000D01*
X164129605Y-98550000D01*
X164921517Y-99341912D01*
X165162460Y-99273923D01*
X165347201Y-98754829D01*
X165319230Y-98204552D01*
X165162460Y-97826077D01*
X164921517Y-97758088D01*
X164129605Y-98550000D01*
X163770395Y-98550000D01*
X162978483Y-97758088D01*
X162737540Y-97826077D01*
X162656630Y-98053422D01*
X162562460Y-97826077D01*
X162321519Y-97758089D01*
X162436574Y-97643034D01*
X162430110Y-97636570D01*
X162464701Y-97578483D01*
X163158088Y-97578483D01*
X163950000Y-98370395D01*
X164741912Y-97578483D01*
X164673923Y-97337540D01*
X164498257Y-97275022D01*
X164954584Y-97275022D01*
X165175353Y-97645743D01*
X166147012Y-98039119D01*
X167195247Y-98030713D01*
X168124647Y-97645743D01*
X168345416Y-97275022D01*
X166650000Y-95579605D01*
X164954584Y-97275022D01*
X164498257Y-97275022D01*
X164154829Y-97152799D01*
X163604552Y-97180770D01*
X163226077Y-97337540D01*
X163158088Y-97578483D01*
X162464701Y-97578483D01*
X162645416Y-97275022D01*
X160950000Y-95579605D01*
X159254584Y-97275022D01*
X157118482Y-97275022D01*
X157039054Y-96875715D01*
X156717147Y-96393946D01*
X156387974Y-96174000D01*
X156717147Y-95954054D01*
X157039054Y-95472285D01*
X157152093Y-94904000D01*
X157150703Y-94897012D01*
X158310881Y-94897012D01*
X158319287Y-95945247D01*
X158704257Y-96874647D01*
X159074978Y-97095416D01*
X160770395Y-95400000D01*
X161129605Y-95400000D01*
X162825022Y-97095416D01*
X163195743Y-96874647D01*
X163589119Y-95902988D01*
X163581052Y-94897012D01*
X164010881Y-94897012D01*
X164019287Y-95945247D01*
X164404257Y-96874647D01*
X164774978Y-97095416D01*
X166470395Y-95400000D01*
X166829605Y-95400000D01*
X168525022Y-97095416D01*
X168895743Y-96874647D01*
X169289119Y-95902988D01*
X169280713Y-94854753D01*
X168895743Y-93925353D01*
X168525022Y-93704584D01*
X166829605Y-95400000D01*
X166470395Y-95400000D01*
X164774978Y-93704584D01*
X164404257Y-93925353D01*
X164010881Y-94897012D01*
X163581052Y-94897012D01*
X163580713Y-94854753D01*
X163195743Y-93925353D01*
X162825022Y-93704584D01*
X161129605Y-95400000D01*
X160770395Y-95400000D01*
X159074978Y-93704584D01*
X158704257Y-93925353D01*
X158310881Y-94897012D01*
X157150703Y-94897012D01*
X157039054Y-94335715D01*
X156717147Y-93853946D01*
X156387974Y-93634000D01*
X156717147Y-93414054D01*
X157039054Y-92932285D01*
X157152093Y-92364000D01*
X157039054Y-91795715D01*
X156717147Y-91313946D01*
X156387974Y-91094000D01*
X156717147Y-90874054D01*
X157039054Y-90392285D01*
X157152093Y-89824000D01*
X157039054Y-89255715D01*
X156717147Y-88773946D01*
X156387974Y-88554000D01*
X156717147Y-88334054D01*
X157039054Y-87852285D01*
X157152093Y-87284000D01*
X157039054Y-86715715D01*
X156717147Y-86233946D01*
X156387974Y-86014000D01*
X156717147Y-85794054D01*
X157039054Y-85312285D01*
X157152093Y-84744000D01*
X157039054Y-84175715D01*
X156717147Y-83693946D01*
X156387974Y-83474000D01*
X156717147Y-83254054D01*
X157039054Y-82772285D01*
X157152093Y-82204000D01*
X157039054Y-81635715D01*
X156717147Y-81153946D01*
X156235378Y-80832039D01*
X155667093Y-80719000D01*
X155608907Y-80719000D01*
X155040622Y-80832039D01*
X154558853Y-81153946D01*
X154368000Y-81439578D01*
X154177147Y-81153946D01*
X153695378Y-80832039D01*
X153127093Y-80719000D01*
X153068907Y-80719000D01*
X152500622Y-80832039D01*
X152018853Y-81153946D01*
X151696946Y-81635715D01*
X151583907Y-82204000D01*
X151656790Y-82570408D01*
X150381287Y-83845911D01*
X150659368Y-83176218D01*
X150660630Y-81730126D01*
X150108400Y-80393628D01*
X149086751Y-79370194D01*
X147751218Y-78815632D01*
X146305126Y-78814370D01*
X144968628Y-79366600D01*
X143945194Y-80388249D01*
X143390632Y-81723782D01*
X143389370Y-83169874D01*
X143941600Y-84506372D01*
X144963249Y-85529806D01*
X145164131Y-85613220D01*
X144907810Y-85869094D01*
X144765164Y-86212622D01*
X144765123Y-86259498D01*
X144205421Y-86819200D01*
X140420250Y-86819200D01*
X140129411Y-86877052D01*
X139882849Y-87041799D01*
X138910848Y-88013800D01*
X138910848Y-84213848D01*
X138883689Y-84077310D01*
X138847288Y-83894308D01*
X138666282Y-83623414D01*
X136777868Y-81735000D01*
X136779002Y-81735000D01*
X136779002Y-81576252D01*
X136937750Y-81735000D01*
X137628310Y-81735000D01*
X137861699Y-81638327D01*
X138040327Y-81459698D01*
X138137000Y-81226309D01*
X138137000Y-80535750D01*
X137978250Y-80377000D01*
X136779000Y-80377000D01*
X136779000Y-80397000D01*
X136525000Y-80397000D01*
X136525000Y-80377000D01*
X136505000Y-80377000D01*
X136505000Y-80123000D01*
X136525000Y-80123000D01*
X136525000Y-78923750D01*
X136779000Y-78923750D01*
X136779000Y-80123000D01*
X137978250Y-80123000D01*
X138137000Y-79964250D01*
X138137000Y-79273691D01*
X138040327Y-79040302D01*
X137861699Y-78861673D01*
X137628310Y-78765000D01*
X136937750Y-78765000D01*
X136779000Y-78923750D01*
X136525000Y-78923750D01*
X136366250Y-78765000D01*
X135675690Y-78765000D01*
X135442301Y-78861673D01*
X135263673Y-79040302D01*
X135191403Y-79214777D01*
X135162054Y-79170853D01*
X134680285Y-78848946D01*
X134112000Y-78735907D01*
X133543715Y-78848946D01*
X133061946Y-79170853D01*
X132842000Y-79500026D01*
X132622054Y-79170853D01*
X132140285Y-78848946D01*
X131572000Y-78735907D01*
X131003715Y-78848946D01*
X130521946Y-79170853D01*
X130200039Y-79652622D01*
X130087000Y-80220907D01*
X130087000Y-80279093D01*
X130200039Y-80847378D01*
X130521946Y-81329147D01*
X131003715Y-81651054D01*
X131572000Y-81764093D01*
X132140285Y-81651054D01*
X132622054Y-81329147D01*
X132842000Y-80999974D01*
X133061946Y-81329147D01*
X133543715Y-81651054D01*
X134112000Y-81764093D01*
X134389939Y-81708807D01*
X137240848Y-84559716D01*
X137240848Y-88543627D01*
X137211211Y-88615000D01*
X136637463Y-88615000D01*
X136605327Y-88582808D01*
X136261799Y-88440162D01*
X135889833Y-88439838D01*
X135546057Y-88581883D01*
X135505440Y-88622429D01*
X135505440Y-85476000D01*
X135461162Y-85240683D01*
X135322090Y-85024559D01*
X135109890Y-84879569D01*
X134858000Y-84828560D01*
X132996434Y-84828560D01*
X133082543Y-84699688D01*
X133207001Y-84074000D01*
X133082543Y-83448312D01*
X132728120Y-82917880D01*
X132197688Y-82563457D01*
X131572000Y-82438999D01*
X130946312Y-82563457D01*
X130415880Y-82917880D01*
X129892760Y-83441000D01*
X127558000Y-83441000D01*
X126932313Y-83565457D01*
X126763042Y-83678560D01*
X126558000Y-83678560D01*
X126322683Y-83722838D01*
X126106559Y-83861910D01*
X125961569Y-84074110D01*
X125927773Y-84241000D01*
X125267232Y-84241000D01*
X125709368Y-83176218D01*
X125710630Y-81730126D01*
X125158400Y-80393628D01*
X124136751Y-79370194D01*
X122801218Y-78815632D01*
X121355126Y-78814370D01*
X120018628Y-79366600D01*
X118995194Y-80388249D01*
X118440632Y-81723782D01*
X118439370Y-83169874D01*
X118991600Y-84506372D01*
X120013249Y-85529806D01*
X120776395Y-85846692D01*
X120530873Y-85846478D01*
X120187097Y-85988523D01*
X119923848Y-86251313D01*
X119781202Y-86594841D01*
X119780878Y-86966807D01*
X119922923Y-87310583D01*
X120185713Y-87573832D01*
X120529241Y-87716478D01*
X120901207Y-87716802D01*
X121143618Y-87616640D01*
X123071362Y-87616640D01*
X123390903Y-87553079D01*
X123661796Y-87372074D01*
X124491956Y-86541914D01*
X124491621Y-86925651D01*
X124648858Y-87306195D01*
X124939754Y-87597599D01*
X125302952Y-87748412D01*
X125556328Y-88001787D01*
X125556330Y-88001790D01*
X125843445Y-88193633D01*
X125926391Y-88210132D01*
X125954838Y-88361317D01*
X126060482Y-88525492D01*
X126019673Y-88566301D01*
X125923000Y-88799690D01*
X125923000Y-89390250D01*
X126081750Y-89549000D01*
X127431000Y-89549000D01*
X127431000Y-89529000D01*
X127685000Y-89529000D01*
X127685000Y-89549000D01*
X129034250Y-89549000D01*
X129193000Y-89390250D01*
X129193000Y-88799690D01*
X129096327Y-88566301D01*
X129054366Y-88524340D01*
X129154431Y-88377890D01*
X129205440Y-88126000D01*
X129205440Y-86711000D01*
X130569995Y-86711000D01*
X130570000Y-86711001D01*
X131195688Y-86586543D01*
X131726120Y-86232120D01*
X132210560Y-85747680D01*
X132210560Y-89276000D01*
X132254838Y-89511317D01*
X132393910Y-89727441D01*
X132606110Y-89872431D01*
X132610548Y-89873330D01*
X131008479Y-91475399D01*
X130905682Y-91629247D01*
X130902189Y-91627800D01*
X130561630Y-91627800D01*
X130402880Y-91786550D01*
X130402880Y-92240875D01*
X130398440Y-92262800D01*
X130398440Y-93409800D01*
X130148880Y-93409800D01*
X130148880Y-93389800D01*
X129299630Y-93389800D01*
X129140880Y-93548550D01*
X129140880Y-94027801D01*
X128558673Y-94027801D01*
X128421970Y-93815359D01*
X128209770Y-93670369D01*
X127957880Y-93619360D01*
X127426532Y-93619360D01*
X127428219Y-93617673D01*
X127482565Y-93617720D01*
X127991795Y-93407311D01*
X128381741Y-93018044D01*
X128593039Y-92509182D01*
X128593364Y-92136490D01*
X129140880Y-92136490D01*
X129140880Y-92977050D01*
X129299630Y-93135800D01*
X130148880Y-93135800D01*
X130148880Y-91786550D01*
X129990130Y-91627800D01*
X129649571Y-91627800D01*
X129416182Y-91724473D01*
X129237553Y-91903101D01*
X129140880Y-92136490D01*
X128593364Y-92136490D01*
X128593520Y-91958195D01*
X128383111Y-91448965D01*
X127995822Y-91061000D01*
X128684309Y-91061000D01*
X128917698Y-90964327D01*
X129096327Y-90785699D01*
X129193000Y-90552310D01*
X129193000Y-89961750D01*
X129034250Y-89803000D01*
X127685000Y-89803000D01*
X127685000Y-89823000D01*
X127431000Y-89823000D01*
X127431000Y-89803000D01*
X126081750Y-89803000D01*
X125923000Y-89961750D01*
X125923000Y-90552310D01*
X126019673Y-90785699D01*
X126198302Y-90964327D01*
X126424424Y-91057990D01*
X126034819Y-91446916D01*
X125823521Y-91955778D01*
X125823472Y-92012156D01*
X125603829Y-92231799D01*
X125237879Y-92231799D01*
X124803533Y-92318196D01*
X124536470Y-92496642D01*
X124435313Y-92564233D01*
X120437327Y-96562219D01*
X120191290Y-96930439D01*
X120104893Y-97364785D01*
X120104893Y-98077873D01*
X120066432Y-98116267D01*
X120060001Y-98131755D01*
X120060001Y-92787481D01*
X120012803Y-92550201D01*
X120002149Y-92496641D01*
X119837402Y-92250080D01*
X116078402Y-88491080D01*
X116078442Y-88445593D01*
X115936397Y-88101817D01*
X115673607Y-87838568D01*
X115330079Y-87695922D01*
X114958113Y-87695598D01*
X114614337Y-87837643D01*
X114351088Y-88100433D01*
X114250502Y-88342670D01*
X114015092Y-88578080D01*
X113342483Y-88578080D01*
X113380009Y-88521919D01*
X113499838Y-88342582D01*
X113563399Y-88023041D01*
X113563399Y-87738840D01*
X114388400Y-87738840D01*
X114623717Y-87694562D01*
X114839841Y-87555490D01*
X114984831Y-87343290D01*
X115035840Y-87091400D01*
X115035840Y-86549030D01*
X115155519Y-86260813D01*
X115370203Y-86349958D01*
X115742169Y-86350282D01*
X116085945Y-86208237D01*
X116349194Y-85945447D01*
X116491840Y-85601919D01*
X116492164Y-85229953D01*
X116350119Y-84886177D01*
X116087329Y-84622928D01*
X115845092Y-84522342D01*
X115598716Y-84275966D01*
X115494901Y-84206599D01*
X115327823Y-84094961D01*
X115008282Y-84031400D01*
X114766786Y-84031400D01*
X114640290Y-83944969D01*
X114388400Y-83893960D01*
X113328400Y-83893960D01*
X113093083Y-83938238D01*
X112876959Y-84077310D01*
X112757167Y-84252632D01*
X112652490Y-84089959D01*
X112440290Y-83944969D01*
X112188400Y-83893960D01*
X111128400Y-83893960D01*
X111007378Y-83916732D01*
X110998637Y-83895577D01*
X110735847Y-83632328D01*
X110392319Y-83489682D01*
X110020353Y-83489358D01*
X109676577Y-83631403D01*
X109413328Y-83894193D01*
X109270682Y-84237721D01*
X109270358Y-84609687D01*
X109412403Y-84953463D01*
X109675193Y-85216712D01*
X109917430Y-85317298D01*
X110056966Y-85456834D01*
X110327860Y-85637840D01*
X110647400Y-85701400D01*
X110750014Y-85701400D01*
X110876510Y-85787831D01*
X111013520Y-85815576D01*
X110893083Y-85838238D01*
X110729657Y-85943400D01*
X110652150Y-85943400D01*
X110493400Y-86102150D01*
X110493400Y-86267710D01*
X110508668Y-86304571D01*
X110480960Y-86441400D01*
X110480960Y-87091400D01*
X110525238Y-87326717D01*
X110619480Y-87473173D01*
X110564320Y-87750480D01*
X110564320Y-88864440D01*
X110627881Y-89183981D01*
X110803591Y-89446950D01*
X110808886Y-89454874D01*
X111357526Y-90003514D01*
X111628419Y-90184519D01*
X111947960Y-90248080D01*
X114360960Y-90248080D01*
X114680501Y-90184519D01*
X114951394Y-90003514D01*
X115196313Y-89758595D01*
X118540001Y-93102283D01*
X118540001Y-94892138D01*
X118349610Y-94762049D01*
X118097720Y-94711040D01*
X117197720Y-94711040D01*
X116962403Y-94755318D01*
X116746279Y-94894390D01*
X116601289Y-95106590D01*
X116582681Y-95198480D01*
X116540213Y-95198480D01*
X116516482Y-95072363D01*
X116377410Y-94856239D01*
X116165210Y-94711249D01*
X115913320Y-94660240D01*
X115440682Y-94660240D01*
X113928401Y-93147959D01*
X113681839Y-92983212D01*
X113391000Y-92925360D01*
X112644440Y-92925360D01*
X112353600Y-92983212D01*
X112107039Y-93147959D01*
X110646678Y-94608320D01*
X110424040Y-94608320D01*
X110188723Y-94652598D01*
X109972599Y-94791670D01*
X109827609Y-95003870D01*
X109776600Y-95255760D01*
X109776600Y-96315760D01*
X109820878Y-96551077D01*
X109959950Y-96767201D01*
X110135272Y-96886993D01*
X109972599Y-96991670D01*
X109827609Y-97203870D01*
X109823176Y-97225760D01*
X109671609Y-97225760D01*
X109648322Y-97102003D01*
X109509250Y-96885879D01*
X109441154Y-96839351D01*
X109583487Y-96697018D01*
X109680160Y-96463629D01*
X109680160Y-96023070D01*
X109521410Y-95864320D01*
X108722160Y-95864320D01*
X108722160Y-95884320D01*
X108468160Y-95884320D01*
X108468160Y-95864320D01*
X108448160Y-95864320D01*
X108448160Y-95610320D01*
X108468160Y-95610320D01*
X108468160Y-94661070D01*
X108722160Y-94661070D01*
X108722160Y-95610320D01*
X109521410Y-95610320D01*
X109680160Y-95451570D01*
X109680160Y-95011011D01*
X109583487Y-94777622D01*
X109404859Y-94598993D01*
X109171470Y-94502320D01*
X108880910Y-94502320D01*
X108722160Y-94661070D01*
X108468160Y-94661070D01*
X108309410Y-94502320D01*
X108018850Y-94502320D01*
X107785461Y-94598993D01*
X107776622Y-94607832D01*
X107807878Y-94532559D01*
X107808202Y-94160593D01*
X107666157Y-93816817D01*
X107403367Y-93553568D01*
X107059839Y-93410922D01*
X106687873Y-93410598D01*
X106344097Y-93552643D01*
X106080848Y-93815433D01*
X105938202Y-94158961D01*
X105937878Y-94530927D01*
X105956777Y-94576667D01*
X105742999Y-94714230D01*
X105598009Y-94926430D01*
X105577894Y-95025760D01*
X105409562Y-95025760D01*
X105408562Y-95020443D01*
X105269490Y-94804319D01*
X105057290Y-94659329D01*
X104805400Y-94608320D01*
X104155400Y-94608320D01*
X103920083Y-94652598D01*
X103703959Y-94791670D01*
X103558969Y-95003870D01*
X103531224Y-95140880D01*
X103508562Y-95020443D01*
X103369490Y-94804319D01*
X103157290Y-94659329D01*
X102905400Y-94608320D01*
X102255400Y-94608320D01*
X102020083Y-94652598D01*
X101803959Y-94791670D01*
X101658969Y-95003870D01*
X101607960Y-95255760D01*
X101607960Y-96315760D01*
X101652238Y-96551077D01*
X101791310Y-96767201D01*
X101966632Y-96886993D01*
X101803959Y-96991670D01*
X101658969Y-97203870D01*
X101607960Y-97455760D01*
X101607960Y-98515760D01*
X101652238Y-98751077D01*
X101774720Y-98941419D01*
X101774720Y-100131998D01*
X101022318Y-100884400D01*
X100857571Y-101130962D01*
X100799719Y-101421801D01*
X100799719Y-106390799D01*
X100857571Y-106681638D01*
X100974778Y-106857051D01*
X100974718Y-106926127D01*
X101116763Y-107269903D01*
X101353493Y-107507046D01*
X101011799Y-107365162D01*
X100639833Y-107364838D01*
X100296057Y-107506883D01*
X100032808Y-107769673D01*
X99890162Y-108113201D01*
X99889838Y-108485167D01*
X100031883Y-108828943D01*
X100294673Y-109092192D01*
X100638201Y-109234838D01*
X101010167Y-109235162D01*
X101353943Y-109093117D01*
X101387118Y-109060000D01*
X104638360Y-109060000D01*
X104929199Y-109002148D01*
X105175761Y-108837401D01*
X110339162Y-103674000D01*
X118535198Y-103674000D01*
X119948198Y-105087000D01*
X119930998Y-105087000D01*
X119930998Y-105245748D01*
X119772250Y-105087000D01*
X119331691Y-105087000D01*
X119098302Y-105183673D01*
X118919673Y-105362301D01*
X118823000Y-105595690D01*
X118823000Y-105886250D01*
X118981748Y-106044998D01*
X118942970Y-106044998D01*
X117961033Y-105063061D01*
X117961080Y-105008715D01*
X117750671Y-104499485D01*
X117361404Y-104109539D01*
X116852542Y-103898241D01*
X116301555Y-103897760D01*
X115792325Y-104108169D01*
X115402379Y-104497436D01*
X115191081Y-105006298D01*
X115190600Y-105557285D01*
X115286760Y-105790011D01*
X109691522Y-105790011D01*
X109257176Y-105876408D01*
X108961100Y-106074240D01*
X108888956Y-106122445D01*
X108238912Y-106772489D01*
X108184566Y-106772442D01*
X107675336Y-106982851D01*
X107285390Y-107372118D01*
X107074092Y-107880980D01*
X107073611Y-108431967D01*
X107284020Y-108941197D01*
X107323851Y-108981097D01*
X107323851Y-109218342D01*
X107410248Y-109652688D01*
X107578330Y-109904240D01*
X107656285Y-110020908D01*
X108765000Y-111129624D01*
X108765000Y-122960319D01*
X108740000Y-123086002D01*
X108826397Y-123520347D01*
X109072434Y-123888568D01*
X110682866Y-125499000D01*
X108428000Y-125499000D01*
X108428000Y-111709000D01*
X108373954Y-111437295D01*
X108220046Y-111206954D01*
X107989705Y-111053046D01*
X107718000Y-110999000D01*
X93928000Y-110999000D01*
X93928000Y-102013750D01*
X95489000Y-102013750D01*
X95489000Y-103604310D01*
X95585673Y-103837699D01*
X95764302Y-104016327D01*
X95997691Y-104113000D01*
X97588250Y-104113000D01*
X97747000Y-103954250D01*
X97747000Y-101855000D01*
X98001000Y-101855000D01*
X98001000Y-103954250D01*
X98159750Y-104113000D01*
X99750309Y-104113000D01*
X99983698Y-104016327D01*
X100162327Y-103837699D01*
X100259000Y-103604310D01*
X100259000Y-102013750D01*
X100100250Y-101855000D01*
X98001000Y-101855000D01*
X97747000Y-101855000D01*
X95647750Y-101855000D01*
X95489000Y-102013750D01*
X93928000Y-102013750D01*
X93928000Y-99851690D01*
X95489000Y-99851690D01*
X95489000Y-101442250D01*
X95647750Y-101601000D01*
X97747000Y-101601000D01*
X97747000Y-99501750D01*
X98001000Y-99501750D01*
X98001000Y-101601000D01*
X100100250Y-101601000D01*
X100259000Y-101442250D01*
X100259000Y-99851690D01*
X100162327Y-99618301D01*
X99983698Y-99439673D01*
X99750309Y-99343000D01*
X98159750Y-99343000D01*
X98001000Y-99501750D01*
X97747000Y-99501750D01*
X97588250Y-99343000D01*
X95997691Y-99343000D01*
X95764302Y-99439673D01*
X95585673Y-99618301D01*
X95489000Y-99851690D01*
X93928000Y-99851690D01*
X93928000Y-92819000D01*
X96056625Y-92819000D01*
X95641458Y-93233443D01*
X95239458Y-94201567D01*
X95238543Y-95249834D01*
X95638853Y-96218658D01*
X96379443Y-96960542D01*
X97347567Y-97362542D01*
X98395834Y-97363457D01*
X99364658Y-96963147D01*
X100106542Y-96222557D01*
X100508542Y-95254433D01*
X100509457Y-94206166D01*
X100109147Y-93237342D01*
X99691535Y-92819000D01*
X107718000Y-92819000D01*
X107989705Y-92764954D01*
X108220046Y-92611046D01*
X108373954Y-92380705D01*
X108428000Y-92109000D01*
X108428000Y-80912336D01*
X109959542Y-80912336D01*
X109985161Y-81522460D01*
X110169357Y-81967148D01*
X110425841Y-82053554D01*
X111326395Y-81153000D01*
X110425841Y-80252446D01*
X110169357Y-80338852D01*
X109959542Y-80912336D01*
X108428000Y-80912336D01*
X108428000Y-80072841D01*
X110605446Y-80072841D01*
X111506000Y-80973395D01*
X111520143Y-80959253D01*
X111699748Y-81138858D01*
X111685605Y-81153000D01*
X111699748Y-81167143D01*
X111520143Y-81346748D01*
X111506000Y-81332605D01*
X110605446Y-82233159D01*
X110691852Y-82489643D01*
X111265336Y-82699458D01*
X111875460Y-82673839D01*
X112320148Y-82489643D01*
X112406553Y-82233161D01*
X112521110Y-82347718D01*
X112557588Y-82311240D01*
X112681910Y-82504441D01*
X112894110Y-82649431D01*
X113146000Y-82700440D01*
X114946000Y-82700440D01*
X115181317Y-82656162D01*
X115397441Y-82517090D01*
X115542431Y-82304890D01*
X115593440Y-82053000D01*
X115593440Y-80253000D01*
X115549162Y-80017683D01*
X115410090Y-79801559D01*
X115197890Y-79656569D01*
X114946000Y-79605560D01*
X113146000Y-79605560D01*
X112910683Y-79649838D01*
X112694559Y-79788910D01*
X112555402Y-79992574D01*
X112521110Y-79958282D01*
X112406553Y-80072839D01*
X112320148Y-79816357D01*
X111746664Y-79606542D01*
X111136540Y-79632161D01*
X110691852Y-79816357D01*
X110605446Y-80072841D01*
X108428000Y-80072841D01*
X108428000Y-78319000D01*
X157958000Y-78319000D01*
X157958000Y-92109000D01*
X157958000Y-92109000D01*
G37*
X157958000Y-92109000D02*
X158012046Y-92380705D01*
X158165954Y-92611046D01*
X158396295Y-92764954D01*
X158668000Y-92819000D01*
X160284735Y-92819000D01*
X159475353Y-93154257D01*
X159254584Y-93524978D01*
X160950000Y-95220395D01*
X162645416Y-93524978D01*
X162424647Y-93154257D01*
X161596545Y-92819000D01*
X165984735Y-92819000D01*
X165175353Y-93154257D01*
X164954584Y-93524978D01*
X166650000Y-95220395D01*
X168345416Y-93524978D01*
X168124647Y-93154257D01*
X167296545Y-92819000D01*
X174958000Y-92819000D01*
X174958000Y-110999000D01*
X167996073Y-110999000D01*
X168124647Y-110945743D01*
X168345416Y-110575022D01*
X166650000Y-108879605D01*
X164954584Y-110575022D01*
X165175353Y-110945743D01*
X165306901Y-110999000D01*
X162296073Y-110999000D01*
X162424647Y-110945743D01*
X162645416Y-110575022D01*
X160950000Y-108879605D01*
X159254584Y-110575022D01*
X159475353Y-110945743D01*
X159606901Y-110999000D01*
X159418000Y-110999000D01*
X159146295Y-111053046D01*
X158915954Y-111206954D01*
X158762046Y-111437295D01*
X158708000Y-111709000D01*
X158708000Y-125499000D01*
X129492453Y-125499000D01*
X129584759Y-125276702D01*
X129585240Y-124725715D01*
X129374831Y-124216485D01*
X128985564Y-123826539D01*
X128476702Y-123615241D01*
X127925715Y-123614760D01*
X127416485Y-123825169D01*
X127376585Y-123865000D01*
X124300066Y-123865000D01*
X124873173Y-123292892D01*
X129876514Y-123292892D01*
X130122817Y-123817358D01*
X130551076Y-124207645D01*
X130961110Y-124377476D01*
X131191000Y-124256155D01*
X131191000Y-123063000D01*
X129997181Y-123063000D01*
X129876514Y-123292892D01*
X124873173Y-123292892D01*
X125154806Y-123011751D01*
X125334455Y-122579108D01*
X129876514Y-122579108D01*
X129997181Y-122809000D01*
X131191000Y-122809000D01*
X131191000Y-121615845D01*
X130961110Y-121494524D01*
X130551076Y-121664355D01*
X130122817Y-122054642D01*
X129876514Y-122579108D01*
X125334455Y-122579108D01*
X125709368Y-121676218D01*
X125709847Y-121127000D01*
X135563000Y-121127000D01*
X135563000Y-121713159D01*
X135347946Y-121856853D01*
X135128000Y-122186026D01*
X134908054Y-121856853D01*
X134426285Y-121534946D01*
X133858000Y-121421907D01*
X133289715Y-121534946D01*
X132807946Y-121856853D01*
X132580298Y-122197553D01*
X132513183Y-122054642D01*
X132084924Y-121664355D01*
X131674890Y-121494524D01*
X131445000Y-121615845D01*
X131445000Y-122809000D01*
X131465000Y-122809000D01*
X131465000Y-123063000D01*
X131445000Y-123063000D01*
X131445000Y-124256155D01*
X131674890Y-124377476D01*
X132084924Y-124207645D01*
X132513183Y-123817358D01*
X132580298Y-123674447D01*
X132807946Y-124015147D01*
X133289715Y-124337054D01*
X133858000Y-124450093D01*
X134426285Y-124337054D01*
X134908054Y-124015147D01*
X135128000Y-123685974D01*
X135347946Y-124015147D01*
X135513000Y-124125432D01*
X135513000Y-124138076D01*
X135512999Y-124138081D01*
X135552578Y-124337054D01*
X135580367Y-124476756D01*
X135652271Y-124584368D01*
X135772210Y-124763871D01*
X136070128Y-125061788D01*
X136070130Y-125061791D01*
X136261974Y-125189976D01*
X136357246Y-125253635D01*
X136695920Y-125321002D01*
X136695925Y-125321001D01*
X140638994Y-125321001D01*
X140638999Y-125321002D01*
X140921483Y-125264811D01*
X140977674Y-125253634D01*
X141264789Y-125061791D01*
X141908475Y-124418104D01*
X142023110Y-124496431D01*
X142275000Y-124547440D01*
X143175000Y-124547440D01*
X143410317Y-124503162D01*
X143626441Y-124364090D01*
X143771431Y-124151890D01*
X143822440Y-123900000D01*
X143822440Y-122717983D01*
X143941600Y-123006372D01*
X144963249Y-124029806D01*
X146298782Y-124584368D01*
X147744874Y-124585630D01*
X149081372Y-124033400D01*
X150104806Y-123011751D01*
X150659368Y-121676218D01*
X150660254Y-120660890D01*
X151656524Y-120660890D01*
X151826355Y-121070924D01*
X152216642Y-121499183D01*
X152741108Y-121745486D01*
X152971000Y-121624819D01*
X152971000Y-120431000D01*
X153225000Y-120431000D01*
X153225000Y-121624819D01*
X153454892Y-121745486D01*
X153979358Y-121499183D01*
X154161070Y-121299792D01*
X154249673Y-121513699D01*
X154428302Y-121692327D01*
X154661691Y-121789000D01*
X155352250Y-121789000D01*
X155511000Y-121630250D01*
X155511000Y-120431000D01*
X155765000Y-120431000D01*
X155765000Y-121630250D01*
X155923750Y-121789000D01*
X156614309Y-121789000D01*
X156847698Y-121692327D01*
X157026327Y-121513699D01*
X157123000Y-121280310D01*
X157123000Y-120589750D01*
X156964250Y-120431000D01*
X155765000Y-120431000D01*
X155511000Y-120431000D01*
X153225000Y-120431000D01*
X152971000Y-120431000D01*
X151777845Y-120431000D01*
X151656524Y-120660890D01*
X150660254Y-120660890D01*
X150660630Y-120230126D01*
X150174711Y-119054113D01*
X150195903Y-119045357D01*
X150459152Y-118782567D01*
X150601798Y-118439039D01*
X150602122Y-118067073D01*
X150460077Y-117723297D01*
X150197287Y-117460048D01*
X150075973Y-117409674D01*
X148165510Y-115499210D01*
X148114785Y-115465317D01*
X147878395Y-115307367D01*
X147822204Y-115296190D01*
X147539720Y-115239999D01*
X147539715Y-115240000D01*
X147127000Y-115240000D01*
X147127000Y-114808999D01*
X147737589Y-114808999D01*
X147769725Y-114841191D01*
X148113253Y-114983837D01*
X148485219Y-114984161D01*
X148828995Y-114842116D01*
X149092244Y-114579326D01*
X149234890Y-114235798D01*
X149235214Y-113863832D01*
X149093169Y-113520056D01*
X148830379Y-113256807D01*
X148723199Y-113212302D01*
X148786302Y-113060335D01*
X148786626Y-112688369D01*
X148644581Y-112344593D01*
X148503147Y-112202912D01*
X148509838Y-112186799D01*
X148510162Y-111814833D01*
X148368117Y-111471057D01*
X148105327Y-111207808D01*
X147761799Y-111065162D01*
X147389833Y-111064838D01*
X147046057Y-111206883D01*
X146782808Y-111469673D01*
X146680934Y-111715011D01*
X146626880Y-111715011D01*
X146626880Y-111562550D01*
X146468130Y-111403800D01*
X145118880Y-111403800D01*
X145118880Y-111423800D01*
X144864880Y-111423800D01*
X144864880Y-111403800D01*
X143515630Y-111403800D01*
X143356880Y-111562550D01*
X143356880Y-111715011D01*
X138389813Y-111715011D01*
X131064201Y-104389399D01*
X130817639Y-104224652D01*
X130526800Y-104166800D01*
X128780682Y-104166800D01*
X130051732Y-102895750D01*
X132665000Y-102895750D01*
X132665000Y-104736310D01*
X132761673Y-104969699D01*
X132940302Y-105148327D01*
X133173691Y-105245000D01*
X135014250Y-105245000D01*
X135173000Y-105086250D01*
X135173000Y-102737000D01*
X132823750Y-102737000D01*
X132665000Y-102895750D01*
X130051732Y-102895750D01*
X133313139Y-99634343D01*
X133378473Y-99699792D01*
X133722001Y-99842438D01*
X133768877Y-99842479D01*
X133901398Y-99975000D01*
X133173691Y-99975000D01*
X132940302Y-100071673D01*
X132761673Y-100250301D01*
X132665000Y-100483690D01*
X132665000Y-102324250D01*
X132823750Y-102483000D01*
X135173000Y-102483000D01*
X135173000Y-102463000D01*
X135427000Y-102463000D01*
X135427000Y-102483000D01*
X135447000Y-102483000D01*
X135447000Y-102737000D01*
X135427000Y-102737000D01*
X135427000Y-105086250D01*
X135585750Y-105245000D01*
X137426309Y-105245000D01*
X137659698Y-105148327D01*
X137838327Y-104969699D01*
X137935000Y-104736310D01*
X137935000Y-102895750D01*
X137776252Y-102737002D01*
X137935000Y-102737002D01*
X137935000Y-102713202D01*
X138312758Y-103090960D01*
X138312718Y-103136447D01*
X138454763Y-103480223D01*
X138717553Y-103743472D01*
X139061081Y-103886118D01*
X139433047Y-103886442D01*
X139776823Y-103744397D01*
X140040072Y-103481607D01*
X140182718Y-103138079D01*
X140182813Y-103028852D01*
X140925287Y-103771326D01*
X140925287Y-103865212D01*
X140983139Y-104156051D01*
X141147886Y-104402613D01*
X141364132Y-104618859D01*
X141610694Y-104783606D01*
X141729093Y-104807157D01*
X141795470Y-104873650D01*
X142138998Y-105016296D01*
X142510964Y-105016620D01*
X142854740Y-104874575D01*
X143117989Y-104611785D01*
X143260635Y-104268257D01*
X143260959Y-103896291D01*
X143162085Y-103656998D01*
X143240356Y-103468502D01*
X143240680Y-103096536D01*
X143198124Y-102993543D01*
X143295126Y-102759938D01*
X143344440Y-102759981D01*
X143344440Y-102886800D01*
X143377701Y-103063565D01*
X143360440Y-103148800D01*
X143360440Y-104148800D01*
X143379849Y-104251947D01*
X143344440Y-104426800D01*
X143344440Y-105426800D01*
X143377701Y-105603565D01*
X143360440Y-105688800D01*
X143360440Y-106688800D01*
X143379849Y-106791947D01*
X143344440Y-106966800D01*
X143344440Y-107966800D01*
X143377701Y-108143565D01*
X143360440Y-108228800D01*
X143360440Y-109228800D01*
X143386775Y-109368756D01*
X143360440Y-109498800D01*
X143360440Y-110498800D01*
X143378955Y-110597197D01*
X143356880Y-110650490D01*
X143356880Y-110991050D01*
X143515630Y-111149800D01*
X144864880Y-111149800D01*
X144864880Y-111146240D01*
X145118880Y-111146240D01*
X145118880Y-111149800D01*
X146468130Y-111149800D01*
X146626880Y-110991050D01*
X146626880Y-110935000D01*
X148737537Y-110935000D01*
X148769673Y-110967192D01*
X149113201Y-111109838D01*
X149240002Y-111109948D01*
X149240002Y-111398637D01*
X149240001Y-111398642D01*
X149285823Y-111629000D01*
X149307369Y-111737317D01*
X149499212Y-112024432D01*
X149499215Y-112024434D01*
X150990012Y-113515230D01*
X150990012Y-114001007D01*
X150990011Y-114001012D01*
X151039030Y-114247440D01*
X151057379Y-114339687D01*
X151201536Y-114555434D01*
X151249222Y-114626802D01*
X151627461Y-115005040D01*
X151583907Y-115224000D01*
X151696946Y-115792285D01*
X152018853Y-116274054D01*
X152348026Y-116494000D01*
X152018853Y-116713946D01*
X151696946Y-117195715D01*
X151583907Y-117764000D01*
X151696946Y-118332285D01*
X152018853Y-118814054D01*
X152359553Y-119041702D01*
X152216642Y-119108817D01*
X151826355Y-119537076D01*
X151656524Y-119947110D01*
X151777845Y-120177000D01*
X152971000Y-120177000D01*
X152971000Y-120157000D01*
X153225000Y-120157000D01*
X153225000Y-120177000D01*
X155511000Y-120177000D01*
X155511000Y-120157000D01*
X155765000Y-120157000D01*
X155765000Y-120177000D01*
X156964250Y-120177000D01*
X157123000Y-120018250D01*
X157123000Y-119327690D01*
X157026327Y-119094301D01*
X156847698Y-118915673D01*
X156673223Y-118843403D01*
X156717147Y-118814054D01*
X157039054Y-118332285D01*
X157152093Y-117764000D01*
X157039054Y-117195715D01*
X156717147Y-116713946D01*
X156387974Y-116494000D01*
X156717147Y-116274054D01*
X157039054Y-115792285D01*
X157152093Y-115224000D01*
X157039054Y-114655715D01*
X156717147Y-114173946D01*
X156387974Y-113954000D01*
X156717147Y-113734054D01*
X157039054Y-113252285D01*
X157152093Y-112684000D01*
X157039054Y-112115715D01*
X156717147Y-111633946D01*
X156387974Y-111414000D01*
X156717147Y-111194054D01*
X157039054Y-110712285D01*
X157152093Y-110144000D01*
X157039054Y-109575715D01*
X156717147Y-109093946D01*
X156387974Y-108874000D01*
X156717147Y-108654054D01*
X157022531Y-108197012D01*
X158310881Y-108197012D01*
X158319287Y-109245247D01*
X158704257Y-110174647D01*
X159074978Y-110395416D01*
X160770395Y-108700000D01*
X161129605Y-108700000D01*
X162825022Y-110395416D01*
X163195743Y-110174647D01*
X163589119Y-109202988D01*
X163581052Y-108197012D01*
X164010881Y-108197012D01*
X164019287Y-109245247D01*
X164404257Y-110174647D01*
X164774978Y-110395416D01*
X166470395Y-108700000D01*
X166829605Y-108700000D01*
X168525022Y-110395416D01*
X168895743Y-110174647D01*
X169289119Y-109202988D01*
X169280713Y-108154753D01*
X168895743Y-107225353D01*
X168525022Y-107004584D01*
X166829605Y-108700000D01*
X166470395Y-108700000D01*
X164774978Y-107004584D01*
X164404257Y-107225353D01*
X164010881Y-108197012D01*
X163581052Y-108197012D01*
X163580713Y-108154753D01*
X163195743Y-107225353D01*
X162825022Y-107004584D01*
X161129605Y-108700000D01*
X160770395Y-108700000D01*
X159074978Y-107004584D01*
X158704257Y-107225353D01*
X158310881Y-108197012D01*
X157022531Y-108197012D01*
X157039054Y-108172285D01*
X157152093Y-107604000D01*
X157039054Y-107035715D01*
X156898245Y-106824978D01*
X159254584Y-106824978D01*
X160950000Y-108520395D01*
X162645416Y-106824978D01*
X162424647Y-106454257D01*
X162410357Y-106448472D01*
X162523461Y-106335564D01*
X162650050Y-106030703D01*
X162775169Y-106333515D01*
X163164436Y-106723461D01*
X163673298Y-106934759D01*
X164224285Y-106935240D01*
X164491140Y-106824978D01*
X164954584Y-106824978D01*
X166650000Y-108520395D01*
X168345416Y-106824978D01*
X168124647Y-106454257D01*
X167152988Y-106060881D01*
X166104753Y-106069287D01*
X165175353Y-106454257D01*
X164954584Y-106824978D01*
X164491140Y-106824978D01*
X164733515Y-106724831D01*
X165123461Y-106335564D01*
X165334759Y-105826702D01*
X165335240Y-105275715D01*
X165124831Y-104766485D01*
X164735564Y-104376539D01*
X164551414Y-104300073D01*
X164733515Y-104224831D01*
X165123461Y-103835564D01*
X165334759Y-103326702D01*
X165335240Y-102775715D01*
X165124831Y-102266485D01*
X164908687Y-102049964D01*
X165123461Y-101835564D01*
X165334759Y-101326702D01*
X165335240Y-100775715D01*
X165124831Y-100266485D01*
X164735564Y-99876539D01*
X164567246Y-99806647D01*
X164673923Y-99762460D01*
X164741912Y-99521517D01*
X163950000Y-98729605D01*
X163158088Y-99521517D01*
X163226077Y-99762460D01*
X163340611Y-99803222D01*
X163166485Y-99875169D01*
X162776539Y-100264436D01*
X162649950Y-100569297D01*
X162524831Y-100266485D01*
X162135564Y-99876539D01*
X161967246Y-99806647D01*
X162073923Y-99762460D01*
X162141912Y-99521517D01*
X161350000Y-98729605D01*
X160558088Y-99521517D01*
X160626077Y-99762460D01*
X160740611Y-99803222D01*
X160566485Y-99875169D01*
X160176539Y-100264436D01*
X159965241Y-100773298D01*
X159964760Y-101324285D01*
X160175169Y-101833515D01*
X160391313Y-102050036D01*
X160176539Y-102264436D01*
X159965241Y-102773298D01*
X159964760Y-103324285D01*
X160175169Y-103833515D01*
X160564436Y-104223461D01*
X160748586Y-104299927D01*
X160566485Y-104375169D01*
X160176539Y-104764436D01*
X159965241Y-105273298D01*
X159964760Y-105824285D01*
X160115498Y-106189100D01*
X159475353Y-106454257D01*
X159254584Y-106824978D01*
X156898245Y-106824978D01*
X156717147Y-106553946D01*
X156387974Y-106334000D01*
X156717147Y-106114054D01*
X157039054Y-105632285D01*
X157152093Y-105064000D01*
X157039054Y-104495715D01*
X156717147Y-104013946D01*
X156387974Y-103794000D01*
X156717147Y-103574054D01*
X157039054Y-103092285D01*
X157152093Y-102524000D01*
X157039054Y-101955715D01*
X156717147Y-101473946D01*
X156387974Y-101254000D01*
X156717147Y-101034054D01*
X157039054Y-100552285D01*
X157152093Y-99984000D01*
X157039054Y-99415715D01*
X156717147Y-98933946D01*
X156387974Y-98714000D01*
X156717147Y-98494054D01*
X157039054Y-98012285D01*
X157152093Y-97444000D01*
X157118482Y-97275022D01*
X159254584Y-97275022D01*
X159475353Y-97645743D01*
X160110243Y-97902778D01*
X159952799Y-98345171D01*
X159980770Y-98895448D01*
X160137540Y-99273923D01*
X160378483Y-99341912D01*
X161170395Y-98550000D01*
X161156253Y-98535858D01*
X161335858Y-98356253D01*
X161350000Y-98370395D01*
X161364143Y-98356253D01*
X161543748Y-98535858D01*
X161529605Y-98550000D01*
X162321517Y-99341912D01*
X162562460Y-99273923D01*
X162643370Y-99046578D01*
X162737540Y-99273923D01*
X162978483Y-99341912D01*
X163770395Y-98550000D01*
X164129605Y-98550000D01*
X164921517Y-99341912D01*
X165162460Y-99273923D01*
X165347201Y-98754829D01*
X165319230Y-98204552D01*
X165162460Y-97826077D01*
X164921517Y-97758088D01*
X164129605Y-98550000D01*
X163770395Y-98550000D01*
X162978483Y-97758088D01*
X162737540Y-97826077D01*
X162656630Y-98053422D01*
X162562460Y-97826077D01*
X162321519Y-97758089D01*
X162436574Y-97643034D01*
X162430110Y-97636570D01*
X162464701Y-97578483D01*
X163158088Y-97578483D01*
X163950000Y-98370395D01*
X164741912Y-97578483D01*
X164673923Y-97337540D01*
X164498257Y-97275022D01*
X164954584Y-97275022D01*
X165175353Y-97645743D01*
X166147012Y-98039119D01*
X167195247Y-98030713D01*
X168124647Y-97645743D01*
X168345416Y-97275022D01*
X166650000Y-95579605D01*
X164954584Y-97275022D01*
X164498257Y-97275022D01*
X164154829Y-97152799D01*
X163604552Y-97180770D01*
X163226077Y-97337540D01*
X163158088Y-97578483D01*
X162464701Y-97578483D01*
X162645416Y-97275022D01*
X160950000Y-95579605D01*
X159254584Y-97275022D01*
X157118482Y-97275022D01*
X157039054Y-96875715D01*
X156717147Y-96393946D01*
X156387974Y-96174000D01*
X156717147Y-95954054D01*
X157039054Y-95472285D01*
X157152093Y-94904000D01*
X157150703Y-94897012D01*
X158310881Y-94897012D01*
X158319287Y-95945247D01*
X158704257Y-96874647D01*
X159074978Y-97095416D01*
X160770395Y-95400000D01*
X161129605Y-95400000D01*
X162825022Y-97095416D01*
X163195743Y-96874647D01*
X163589119Y-95902988D01*
X163581052Y-94897012D01*
X164010881Y-94897012D01*
X164019287Y-95945247D01*
X164404257Y-96874647D01*
X164774978Y-97095416D01*
X166470395Y-95400000D01*
X166829605Y-95400000D01*
X168525022Y-97095416D01*
X168895743Y-96874647D01*
X169289119Y-95902988D01*
X169280713Y-94854753D01*
X168895743Y-93925353D01*
X168525022Y-93704584D01*
X166829605Y-95400000D01*
X166470395Y-95400000D01*
X164774978Y-93704584D01*
X164404257Y-93925353D01*
X164010881Y-94897012D01*
X163581052Y-94897012D01*
X163580713Y-94854753D01*
X163195743Y-93925353D01*
X162825022Y-93704584D01*
X161129605Y-95400000D01*
X160770395Y-95400000D01*
X159074978Y-93704584D01*
X158704257Y-93925353D01*
X158310881Y-94897012D01*
X157150703Y-94897012D01*
X157039054Y-94335715D01*
X156717147Y-93853946D01*
X156387974Y-93634000D01*
X156717147Y-93414054D01*
X157039054Y-92932285D01*
X157152093Y-92364000D01*
X157039054Y-91795715D01*
X156717147Y-91313946D01*
X156387974Y-91094000D01*
X156717147Y-90874054D01*
X157039054Y-90392285D01*
X157152093Y-89824000D01*
X157039054Y-89255715D01*
X156717147Y-88773946D01*
X156387974Y-88554000D01*
X156717147Y-88334054D01*
X157039054Y-87852285D01*
X157152093Y-87284000D01*
X157039054Y-86715715D01*
X156717147Y-86233946D01*
X156387974Y-86014000D01*
X156717147Y-85794054D01*
X157039054Y-85312285D01*
X157152093Y-84744000D01*
X157039054Y-84175715D01*
X156717147Y-83693946D01*
X156387974Y-83474000D01*
X156717147Y-83254054D01*
X157039054Y-82772285D01*
X157152093Y-82204000D01*
X157039054Y-81635715D01*
X156717147Y-81153946D01*
X156235378Y-80832039D01*
X155667093Y-80719000D01*
X155608907Y-80719000D01*
X155040622Y-80832039D01*
X154558853Y-81153946D01*
X154368000Y-81439578D01*
X154177147Y-81153946D01*
X153695378Y-80832039D01*
X153127093Y-80719000D01*
X153068907Y-80719000D01*
X152500622Y-80832039D01*
X152018853Y-81153946D01*
X151696946Y-81635715D01*
X151583907Y-82204000D01*
X151656790Y-82570408D01*
X150381287Y-83845911D01*
X150659368Y-83176218D01*
X150660630Y-81730126D01*
X150108400Y-80393628D01*
X149086751Y-79370194D01*
X147751218Y-78815632D01*
X146305126Y-78814370D01*
X144968628Y-79366600D01*
X143945194Y-80388249D01*
X143390632Y-81723782D01*
X143389370Y-83169874D01*
X143941600Y-84506372D01*
X144963249Y-85529806D01*
X145164131Y-85613220D01*
X144907810Y-85869094D01*
X144765164Y-86212622D01*
X144765123Y-86259498D01*
X144205421Y-86819200D01*
X140420250Y-86819200D01*
X140129411Y-86877052D01*
X139882849Y-87041799D01*
X138910848Y-88013800D01*
X138910848Y-84213848D01*
X138883689Y-84077310D01*
X138847288Y-83894308D01*
X138666282Y-83623414D01*
X136777868Y-81735000D01*
X136779002Y-81735000D01*
X136779002Y-81576252D01*
X136937750Y-81735000D01*
X137628310Y-81735000D01*
X137861699Y-81638327D01*
X138040327Y-81459698D01*
X138137000Y-81226309D01*
X138137000Y-80535750D01*
X137978250Y-80377000D01*
X136779000Y-80377000D01*
X136779000Y-80397000D01*
X136525000Y-80397000D01*
X136525000Y-80377000D01*
X136505000Y-80377000D01*
X136505000Y-80123000D01*
X136525000Y-80123000D01*
X136525000Y-78923750D01*
X136779000Y-78923750D01*
X136779000Y-80123000D01*
X137978250Y-80123000D01*
X138137000Y-79964250D01*
X138137000Y-79273691D01*
X138040327Y-79040302D01*
X137861699Y-78861673D01*
X137628310Y-78765000D01*
X136937750Y-78765000D01*
X136779000Y-78923750D01*
X136525000Y-78923750D01*
X136366250Y-78765000D01*
X135675690Y-78765000D01*
X135442301Y-78861673D01*
X135263673Y-79040302D01*
X135191403Y-79214777D01*
X135162054Y-79170853D01*
X134680285Y-78848946D01*
X134112000Y-78735907D01*
X133543715Y-78848946D01*
X133061946Y-79170853D01*
X132842000Y-79500026D01*
X132622054Y-79170853D01*
X132140285Y-78848946D01*
X131572000Y-78735907D01*
X131003715Y-78848946D01*
X130521946Y-79170853D01*
X130200039Y-79652622D01*
X130087000Y-80220907D01*
X130087000Y-80279093D01*
X130200039Y-80847378D01*
X130521946Y-81329147D01*
X131003715Y-81651054D01*
X131572000Y-81764093D01*
X132140285Y-81651054D01*
X132622054Y-81329147D01*
X132842000Y-80999974D01*
X133061946Y-81329147D01*
X133543715Y-81651054D01*
X134112000Y-81764093D01*
X134389939Y-81708807D01*
X137240848Y-84559716D01*
X137240848Y-88543627D01*
X137211211Y-88615000D01*
X136637463Y-88615000D01*
X136605327Y-88582808D01*
X136261799Y-88440162D01*
X135889833Y-88439838D01*
X135546057Y-88581883D01*
X135505440Y-88622429D01*
X135505440Y-85476000D01*
X135461162Y-85240683D01*
X135322090Y-85024559D01*
X135109890Y-84879569D01*
X134858000Y-84828560D01*
X132996434Y-84828560D01*
X133082543Y-84699688D01*
X133207001Y-84074000D01*
X133082543Y-83448312D01*
X132728120Y-82917880D01*
X132197688Y-82563457D01*
X131572000Y-82438999D01*
X130946312Y-82563457D01*
X130415880Y-82917880D01*
X129892760Y-83441000D01*
X127558000Y-83441000D01*
X126932313Y-83565457D01*
X126763042Y-83678560D01*
X126558000Y-83678560D01*
X126322683Y-83722838D01*
X126106559Y-83861910D01*
X125961569Y-84074110D01*
X125927773Y-84241000D01*
X125267232Y-84241000D01*
X125709368Y-83176218D01*
X125710630Y-81730126D01*
X125158400Y-80393628D01*
X124136751Y-79370194D01*
X122801218Y-78815632D01*
X121355126Y-78814370D01*
X120018628Y-79366600D01*
X118995194Y-80388249D01*
X118440632Y-81723782D01*
X118439370Y-83169874D01*
X118991600Y-84506372D01*
X120013249Y-85529806D01*
X120776395Y-85846692D01*
X120530873Y-85846478D01*
X120187097Y-85988523D01*
X119923848Y-86251313D01*
X119781202Y-86594841D01*
X119780878Y-86966807D01*
X119922923Y-87310583D01*
X120185713Y-87573832D01*
X120529241Y-87716478D01*
X120901207Y-87716802D01*
X121143618Y-87616640D01*
X123071362Y-87616640D01*
X123390903Y-87553079D01*
X123661796Y-87372074D01*
X124491956Y-86541914D01*
X124491621Y-86925651D01*
X124648858Y-87306195D01*
X124939754Y-87597599D01*
X125302952Y-87748412D01*
X125556328Y-88001787D01*
X125556330Y-88001790D01*
X125843445Y-88193633D01*
X125926391Y-88210132D01*
X125954838Y-88361317D01*
X126060482Y-88525492D01*
X126019673Y-88566301D01*
X125923000Y-88799690D01*
X125923000Y-89390250D01*
X126081750Y-89549000D01*
X127431000Y-89549000D01*
X127431000Y-89529000D01*
X127685000Y-89529000D01*
X127685000Y-89549000D01*
X129034250Y-89549000D01*
X129193000Y-89390250D01*
X129193000Y-88799690D01*
X129096327Y-88566301D01*
X129054366Y-88524340D01*
X129154431Y-88377890D01*
X129205440Y-88126000D01*
X129205440Y-86711000D01*
X130569995Y-86711000D01*
X130570000Y-86711001D01*
X131195688Y-86586543D01*
X131726120Y-86232120D01*
X132210560Y-85747680D01*
X132210560Y-89276000D01*
X132254838Y-89511317D01*
X132393910Y-89727441D01*
X132606110Y-89872431D01*
X132610548Y-89873330D01*
X131008479Y-91475399D01*
X130905682Y-91629247D01*
X130902189Y-91627800D01*
X130561630Y-91627800D01*
X130402880Y-91786550D01*
X130402880Y-92240875D01*
X130398440Y-92262800D01*
X130398440Y-93409800D01*
X130148880Y-93409800D01*
X130148880Y-93389800D01*
X129299630Y-93389800D01*
X129140880Y-93548550D01*
X129140880Y-94027801D01*
X128558673Y-94027801D01*
X128421970Y-93815359D01*
X128209770Y-93670369D01*
X127957880Y-93619360D01*
X127426532Y-93619360D01*
X127428219Y-93617673D01*
X127482565Y-93617720D01*
X127991795Y-93407311D01*
X128381741Y-93018044D01*
X128593039Y-92509182D01*
X128593364Y-92136490D01*
X129140880Y-92136490D01*
X129140880Y-92977050D01*
X129299630Y-93135800D01*
X130148880Y-93135800D01*
X130148880Y-91786550D01*
X129990130Y-91627800D01*
X129649571Y-91627800D01*
X129416182Y-91724473D01*
X129237553Y-91903101D01*
X129140880Y-92136490D01*
X128593364Y-92136490D01*
X128593520Y-91958195D01*
X128383111Y-91448965D01*
X127995822Y-91061000D01*
X128684309Y-91061000D01*
X128917698Y-90964327D01*
X129096327Y-90785699D01*
X129193000Y-90552310D01*
X129193000Y-89961750D01*
X129034250Y-89803000D01*
X127685000Y-89803000D01*
X127685000Y-89823000D01*
X127431000Y-89823000D01*
X127431000Y-89803000D01*
X126081750Y-89803000D01*
X125923000Y-89961750D01*
X125923000Y-90552310D01*
X126019673Y-90785699D01*
X126198302Y-90964327D01*
X126424424Y-91057990D01*
X126034819Y-91446916D01*
X125823521Y-91955778D01*
X125823472Y-92012156D01*
X125603829Y-92231799D01*
X125237879Y-92231799D01*
X124803533Y-92318196D01*
X124536470Y-92496642D01*
X124435313Y-92564233D01*
X120437327Y-96562219D01*
X120191290Y-96930439D01*
X120104893Y-97364785D01*
X120104893Y-98077873D01*
X120066432Y-98116267D01*
X120060001Y-98131755D01*
X120060001Y-92787481D01*
X120012803Y-92550201D01*
X120002149Y-92496641D01*
X119837402Y-92250080D01*
X116078402Y-88491080D01*
X116078442Y-88445593D01*
X115936397Y-88101817D01*
X115673607Y-87838568D01*
X115330079Y-87695922D01*
X114958113Y-87695598D01*
X114614337Y-87837643D01*
X114351088Y-88100433D01*
X114250502Y-88342670D01*
X114015092Y-88578080D01*
X113342483Y-88578080D01*
X113380009Y-88521919D01*
X113499838Y-88342582D01*
X113563399Y-88023041D01*
X113563399Y-87738840D01*
X114388400Y-87738840D01*
X114623717Y-87694562D01*
X114839841Y-87555490D01*
X114984831Y-87343290D01*
X115035840Y-87091400D01*
X115035840Y-86549030D01*
X115155519Y-86260813D01*
X115370203Y-86349958D01*
X115742169Y-86350282D01*
X116085945Y-86208237D01*
X116349194Y-85945447D01*
X116491840Y-85601919D01*
X116492164Y-85229953D01*
X116350119Y-84886177D01*
X116087329Y-84622928D01*
X115845092Y-84522342D01*
X115598716Y-84275966D01*
X115494901Y-84206599D01*
X115327823Y-84094961D01*
X115008282Y-84031400D01*
X114766786Y-84031400D01*
X114640290Y-83944969D01*
X114388400Y-83893960D01*
X113328400Y-83893960D01*
X113093083Y-83938238D01*
X112876959Y-84077310D01*
X112757167Y-84252632D01*
X112652490Y-84089959D01*
X112440290Y-83944969D01*
X112188400Y-83893960D01*
X111128400Y-83893960D01*
X111007378Y-83916732D01*
X110998637Y-83895577D01*
X110735847Y-83632328D01*
X110392319Y-83489682D01*
X110020353Y-83489358D01*
X109676577Y-83631403D01*
X109413328Y-83894193D01*
X109270682Y-84237721D01*
X109270358Y-84609687D01*
X109412403Y-84953463D01*
X109675193Y-85216712D01*
X109917430Y-85317298D01*
X110056966Y-85456834D01*
X110327860Y-85637840D01*
X110647400Y-85701400D01*
X110750014Y-85701400D01*
X110876510Y-85787831D01*
X111013520Y-85815576D01*
X110893083Y-85838238D01*
X110729657Y-85943400D01*
X110652150Y-85943400D01*
X110493400Y-86102150D01*
X110493400Y-86267710D01*
X110508668Y-86304571D01*
X110480960Y-86441400D01*
X110480960Y-87091400D01*
X110525238Y-87326717D01*
X110619480Y-87473173D01*
X110564320Y-87750480D01*
X110564320Y-88864440D01*
X110627881Y-89183981D01*
X110803591Y-89446950D01*
X110808886Y-89454874D01*
X111357526Y-90003514D01*
X111628419Y-90184519D01*
X111947960Y-90248080D01*
X114360960Y-90248080D01*
X114680501Y-90184519D01*
X114951394Y-90003514D01*
X115196313Y-89758595D01*
X118540001Y-93102283D01*
X118540001Y-94892138D01*
X118349610Y-94762049D01*
X118097720Y-94711040D01*
X117197720Y-94711040D01*
X116962403Y-94755318D01*
X116746279Y-94894390D01*
X116601289Y-95106590D01*
X116582681Y-95198480D01*
X116540213Y-95198480D01*
X116516482Y-95072363D01*
X116377410Y-94856239D01*
X116165210Y-94711249D01*
X115913320Y-94660240D01*
X115440682Y-94660240D01*
X113928401Y-93147959D01*
X113681839Y-92983212D01*
X113391000Y-92925360D01*
X112644440Y-92925360D01*
X112353600Y-92983212D01*
X112107039Y-93147959D01*
X110646678Y-94608320D01*
X110424040Y-94608320D01*
X110188723Y-94652598D01*
X109972599Y-94791670D01*
X109827609Y-95003870D01*
X109776600Y-95255760D01*
X109776600Y-96315760D01*
X109820878Y-96551077D01*
X109959950Y-96767201D01*
X110135272Y-96886993D01*
X109972599Y-96991670D01*
X109827609Y-97203870D01*
X109823176Y-97225760D01*
X109671609Y-97225760D01*
X109648322Y-97102003D01*
X109509250Y-96885879D01*
X109441154Y-96839351D01*
X109583487Y-96697018D01*
X109680160Y-96463629D01*
X109680160Y-96023070D01*
X109521410Y-95864320D01*
X108722160Y-95864320D01*
X108722160Y-95884320D01*
X108468160Y-95884320D01*
X108468160Y-95864320D01*
X108448160Y-95864320D01*
X108448160Y-95610320D01*
X108468160Y-95610320D01*
X108468160Y-94661070D01*
X108722160Y-94661070D01*
X108722160Y-95610320D01*
X109521410Y-95610320D01*
X109680160Y-95451570D01*
X109680160Y-95011011D01*
X109583487Y-94777622D01*
X109404859Y-94598993D01*
X109171470Y-94502320D01*
X108880910Y-94502320D01*
X108722160Y-94661070D01*
X108468160Y-94661070D01*
X108309410Y-94502320D01*
X108018850Y-94502320D01*
X107785461Y-94598993D01*
X107776622Y-94607832D01*
X107807878Y-94532559D01*
X107808202Y-94160593D01*
X107666157Y-93816817D01*
X107403367Y-93553568D01*
X107059839Y-93410922D01*
X106687873Y-93410598D01*
X106344097Y-93552643D01*
X106080848Y-93815433D01*
X105938202Y-94158961D01*
X105937878Y-94530927D01*
X105956777Y-94576667D01*
X105742999Y-94714230D01*
X105598009Y-94926430D01*
X105577894Y-95025760D01*
X105409562Y-95025760D01*
X105408562Y-95020443D01*
X105269490Y-94804319D01*
X105057290Y-94659329D01*
X104805400Y-94608320D01*
X104155400Y-94608320D01*
X103920083Y-94652598D01*
X103703959Y-94791670D01*
X103558969Y-95003870D01*
X103531224Y-95140880D01*
X103508562Y-95020443D01*
X103369490Y-94804319D01*
X103157290Y-94659329D01*
X102905400Y-94608320D01*
X102255400Y-94608320D01*
X102020083Y-94652598D01*
X101803959Y-94791670D01*
X101658969Y-95003870D01*
X101607960Y-95255760D01*
X101607960Y-96315760D01*
X101652238Y-96551077D01*
X101791310Y-96767201D01*
X101966632Y-96886993D01*
X101803959Y-96991670D01*
X101658969Y-97203870D01*
X101607960Y-97455760D01*
X101607960Y-98515760D01*
X101652238Y-98751077D01*
X101774720Y-98941419D01*
X101774720Y-100131998D01*
X101022318Y-100884400D01*
X100857571Y-101130962D01*
X100799719Y-101421801D01*
X100799719Y-106390799D01*
X100857571Y-106681638D01*
X100974778Y-106857051D01*
X100974718Y-106926127D01*
X101116763Y-107269903D01*
X101353493Y-107507046D01*
X101011799Y-107365162D01*
X100639833Y-107364838D01*
X100296057Y-107506883D01*
X100032808Y-107769673D01*
X99890162Y-108113201D01*
X99889838Y-108485167D01*
X100031883Y-108828943D01*
X100294673Y-109092192D01*
X100638201Y-109234838D01*
X101010167Y-109235162D01*
X101353943Y-109093117D01*
X101387118Y-109060000D01*
X104638360Y-109060000D01*
X104929199Y-109002148D01*
X105175761Y-108837401D01*
X110339162Y-103674000D01*
X118535198Y-103674000D01*
X119948198Y-105087000D01*
X119930998Y-105087000D01*
X119930998Y-105245748D01*
X119772250Y-105087000D01*
X119331691Y-105087000D01*
X119098302Y-105183673D01*
X118919673Y-105362301D01*
X118823000Y-105595690D01*
X118823000Y-105886250D01*
X118981748Y-106044998D01*
X118942970Y-106044998D01*
X117961033Y-105063061D01*
X117961080Y-105008715D01*
X117750671Y-104499485D01*
X117361404Y-104109539D01*
X116852542Y-103898241D01*
X116301555Y-103897760D01*
X115792325Y-104108169D01*
X115402379Y-104497436D01*
X115191081Y-105006298D01*
X115190600Y-105557285D01*
X115286760Y-105790011D01*
X109691522Y-105790011D01*
X109257176Y-105876408D01*
X108961100Y-106074240D01*
X108888956Y-106122445D01*
X108238912Y-106772489D01*
X108184566Y-106772442D01*
X107675336Y-106982851D01*
X107285390Y-107372118D01*
X107074092Y-107880980D01*
X107073611Y-108431967D01*
X107284020Y-108941197D01*
X107323851Y-108981097D01*
X107323851Y-109218342D01*
X107410248Y-109652688D01*
X107578330Y-109904240D01*
X107656285Y-110020908D01*
X108765000Y-111129624D01*
X108765000Y-122960319D01*
X108740000Y-123086002D01*
X108826397Y-123520347D01*
X109072434Y-123888568D01*
X110682866Y-125499000D01*
X108428000Y-125499000D01*
X108428000Y-111709000D01*
X108373954Y-111437295D01*
X108220046Y-111206954D01*
X107989705Y-111053046D01*
X107718000Y-110999000D01*
X93928000Y-110999000D01*
X93928000Y-102013750D01*
X95489000Y-102013750D01*
X95489000Y-103604310D01*
X95585673Y-103837699D01*
X95764302Y-104016327D01*
X95997691Y-104113000D01*
X97588250Y-104113000D01*
X97747000Y-103954250D01*
X97747000Y-101855000D01*
X98001000Y-101855000D01*
X98001000Y-103954250D01*
X98159750Y-104113000D01*
X99750309Y-104113000D01*
X99983698Y-104016327D01*
X100162327Y-103837699D01*
X100259000Y-103604310D01*
X100259000Y-102013750D01*
X100100250Y-101855000D01*
X98001000Y-101855000D01*
X97747000Y-101855000D01*
X95647750Y-101855000D01*
X95489000Y-102013750D01*
X93928000Y-102013750D01*
X93928000Y-99851690D01*
X95489000Y-99851690D01*
X95489000Y-101442250D01*
X95647750Y-101601000D01*
X97747000Y-101601000D01*
X97747000Y-99501750D01*
X98001000Y-99501750D01*
X98001000Y-101601000D01*
X100100250Y-101601000D01*
X100259000Y-101442250D01*
X100259000Y-99851690D01*
X100162327Y-99618301D01*
X99983698Y-99439673D01*
X99750309Y-99343000D01*
X98159750Y-99343000D01*
X98001000Y-99501750D01*
X97747000Y-99501750D01*
X97588250Y-99343000D01*
X95997691Y-99343000D01*
X95764302Y-99439673D01*
X95585673Y-99618301D01*
X95489000Y-99851690D01*
X93928000Y-99851690D01*
X93928000Y-92819000D01*
X96056625Y-92819000D01*
X95641458Y-93233443D01*
X95239458Y-94201567D01*
X95238543Y-95249834D01*
X95638853Y-96218658D01*
X96379443Y-96960542D01*
X97347567Y-97362542D01*
X98395834Y-97363457D01*
X99364658Y-96963147D01*
X100106542Y-96222557D01*
X100508542Y-95254433D01*
X100509457Y-94206166D01*
X100109147Y-93237342D01*
X99691535Y-92819000D01*
X107718000Y-92819000D01*
X107989705Y-92764954D01*
X108220046Y-92611046D01*
X108373954Y-92380705D01*
X108428000Y-92109000D01*
X108428000Y-80912336D01*
X109959542Y-80912336D01*
X109985161Y-81522460D01*
X110169357Y-81967148D01*
X110425841Y-82053554D01*
X111326395Y-81153000D01*
X110425841Y-80252446D01*
X110169357Y-80338852D01*
X109959542Y-80912336D01*
X108428000Y-80912336D01*
X108428000Y-80072841D01*
X110605446Y-80072841D01*
X111506000Y-80973395D01*
X111520143Y-80959253D01*
X111699748Y-81138858D01*
X111685605Y-81153000D01*
X111699748Y-81167143D01*
X111520143Y-81346748D01*
X111506000Y-81332605D01*
X110605446Y-82233159D01*
X110691852Y-82489643D01*
X111265336Y-82699458D01*
X111875460Y-82673839D01*
X112320148Y-82489643D01*
X112406553Y-82233161D01*
X112521110Y-82347718D01*
X112557588Y-82311240D01*
X112681910Y-82504441D01*
X112894110Y-82649431D01*
X113146000Y-82700440D01*
X114946000Y-82700440D01*
X115181317Y-82656162D01*
X115397441Y-82517090D01*
X115542431Y-82304890D01*
X115593440Y-82053000D01*
X115593440Y-80253000D01*
X115549162Y-80017683D01*
X115410090Y-79801559D01*
X115197890Y-79656569D01*
X114946000Y-79605560D01*
X113146000Y-79605560D01*
X112910683Y-79649838D01*
X112694559Y-79788910D01*
X112555402Y-79992574D01*
X112521110Y-79958282D01*
X112406553Y-80072839D01*
X112320148Y-79816357D01*
X111746664Y-79606542D01*
X111136540Y-79632161D01*
X110691852Y-79816357D01*
X110605446Y-80072841D01*
X108428000Y-80072841D01*
X108428000Y-78319000D01*
X157958000Y-78319000D01*
X157958000Y-92109000D01*
G36*
X121193910Y-107073441D02*
X121406110Y-107218431D01*
X121658000Y-107269440D01*
X122858000Y-107269440D01*
X123093317Y-107225162D01*
X123309441Y-107086090D01*
X123332873Y-107051795D01*
X123350467Y-107140241D01*
X123373127Y-107254160D01*
X123559047Y-107532411D01*
X123564970Y-107541275D01*
X124638879Y-108615183D01*
X124638879Y-109616796D01*
X124638878Y-109616801D01*
X124686643Y-109856924D01*
X124706246Y-109955476D01*
X124886432Y-110225145D01*
X124898089Y-110242591D01*
X125308086Y-110652587D01*
X125308088Y-110652590D01*
X125338880Y-110673164D01*
X125338880Y-111011050D01*
X125497630Y-111169800D01*
X125951955Y-111169800D01*
X125973880Y-111174240D01*
X127120880Y-111174240D01*
X127120880Y-111423800D01*
X127100880Y-111423800D01*
X127100880Y-111443800D01*
X126846880Y-111443800D01*
X126846880Y-111423800D01*
X125497630Y-111423800D01*
X125338880Y-111582550D01*
X125338880Y-111873000D01*
X124500000Y-111873000D01*
X124453841Y-111881685D01*
X124411447Y-111908965D01*
X124383006Y-111950590D01*
X124373000Y-112000000D01*
X124373000Y-118106856D01*
X124136751Y-117870194D01*
X122801218Y-117315632D01*
X121355126Y-117314370D01*
X120018628Y-117866600D01*
X118995194Y-118888249D01*
X118440632Y-120223782D01*
X118439370Y-121669874D01*
X118991600Y-123006372D01*
X119848730Y-123865000D01*
X117374969Y-123865000D01*
X117514431Y-123660890D01*
X117565440Y-123409000D01*
X117565440Y-122936362D01*
X118062401Y-122439401D01*
X118227148Y-122192839D01*
X118285000Y-121902000D01*
X118285000Y-116584804D01*
X119423298Y-115446506D01*
X119426838Y-115465317D01*
X119565910Y-115681441D01*
X119778110Y-115826431D01*
X120030000Y-115877440D01*
X120930000Y-115877440D01*
X121165317Y-115833162D01*
X121381441Y-115694090D01*
X121401317Y-115665000D01*
X121767370Y-115665000D01*
X121776838Y-115715317D01*
X121915910Y-115931441D01*
X122128110Y-116076431D01*
X122380000Y-116127440D01*
X123280000Y-116127440D01*
X123515317Y-116083162D01*
X123731441Y-115944090D01*
X123876431Y-115731890D01*
X123927440Y-115480000D01*
X123927440Y-114280000D01*
X123883162Y-114044683D01*
X123744090Y-113828559D01*
X123674289Y-113780866D01*
X123731441Y-113744090D01*
X123876431Y-113531890D01*
X123927440Y-113280000D01*
X123927440Y-112080000D01*
X123883162Y-111844683D01*
X123744090Y-111628559D01*
X123590000Y-111523274D01*
X123590000Y-110305190D01*
X123917402Y-110169911D01*
X124180651Y-109907121D01*
X124323297Y-109563593D01*
X124323621Y-109191627D01*
X124181576Y-108847851D01*
X123918786Y-108584602D01*
X123575258Y-108441956D01*
X123297440Y-108441714D01*
X123297440Y-107960000D01*
X123253162Y-107724683D01*
X123114090Y-107508559D01*
X122901890Y-107363569D01*
X122650000Y-107312560D01*
X121850000Y-107312560D01*
X121614683Y-107356838D01*
X121448523Y-107463759D01*
X121301890Y-107363569D01*
X121101779Y-107323046D01*
X121084346Y-107311397D01*
X120792927Y-107253430D01*
X121017698Y-107160327D01*
X121158936Y-107019090D01*
X121193910Y-107073441D01*
X121193910Y-107073441D01*
G37*
X121193910Y-107073441D02*
X121406110Y-107218431D01*
X121658000Y-107269440D01*
X122858000Y-107269440D01*
X123093317Y-107225162D01*
X123309441Y-107086090D01*
X123332873Y-107051795D01*
X123350467Y-107140241D01*
X123373127Y-107254160D01*
X123559047Y-107532411D01*
X123564970Y-107541275D01*
X124638879Y-108615183D01*
X124638879Y-109616796D01*
X124638878Y-109616801D01*
X124686643Y-109856924D01*
X124706246Y-109955476D01*
X124886432Y-110225145D01*
X124898089Y-110242591D01*
X125308086Y-110652587D01*
X125308088Y-110652590D01*
X125338880Y-110673164D01*
X125338880Y-111011050D01*
X125497630Y-111169800D01*
X125951955Y-111169800D01*
X125973880Y-111174240D01*
X127120880Y-111174240D01*
X127120880Y-111423800D01*
X127100880Y-111423800D01*
X127100880Y-111443800D01*
X126846880Y-111443800D01*
X126846880Y-111423800D01*
X125497630Y-111423800D01*
X125338880Y-111582550D01*
X125338880Y-111873000D01*
X124500000Y-111873000D01*
X124453841Y-111881685D01*
X124411447Y-111908965D01*
X124383006Y-111950590D01*
X124373000Y-112000000D01*
X124373000Y-118106856D01*
X124136751Y-117870194D01*
X122801218Y-117315632D01*
X121355126Y-117314370D01*
X120018628Y-117866600D01*
X118995194Y-118888249D01*
X118440632Y-120223782D01*
X118439370Y-121669874D01*
X118991600Y-123006372D01*
X119848730Y-123865000D01*
X117374969Y-123865000D01*
X117514431Y-123660890D01*
X117565440Y-123409000D01*
X117565440Y-122936362D01*
X118062401Y-122439401D01*
X118227148Y-122192839D01*
X118285000Y-121902000D01*
X118285000Y-116584804D01*
X119423298Y-115446506D01*
X119426838Y-115465317D01*
X119565910Y-115681441D01*
X119778110Y-115826431D01*
X120030000Y-115877440D01*
X120930000Y-115877440D01*
X121165317Y-115833162D01*
X121381441Y-115694090D01*
X121401317Y-115665000D01*
X121767370Y-115665000D01*
X121776838Y-115715317D01*
X121915910Y-115931441D01*
X122128110Y-116076431D01*
X122380000Y-116127440D01*
X123280000Y-116127440D01*
X123515317Y-116083162D01*
X123731441Y-115944090D01*
X123876431Y-115731890D01*
X123927440Y-115480000D01*
X123927440Y-114280000D01*
X123883162Y-114044683D01*
X123744090Y-113828559D01*
X123674289Y-113780866D01*
X123731441Y-113744090D01*
X123876431Y-113531890D01*
X123927440Y-113280000D01*
X123927440Y-112080000D01*
X123883162Y-111844683D01*
X123744090Y-111628559D01*
X123590000Y-111523274D01*
X123590000Y-110305190D01*
X123917402Y-110169911D01*
X124180651Y-109907121D01*
X124323297Y-109563593D01*
X124323621Y-109191627D01*
X124181576Y-108847851D01*
X123918786Y-108584602D01*
X123575258Y-108441956D01*
X123297440Y-108441714D01*
X123297440Y-107960000D01*
X123253162Y-107724683D01*
X123114090Y-107508559D01*
X122901890Y-107363569D01*
X122650000Y-107312560D01*
X121850000Y-107312560D01*
X121614683Y-107356838D01*
X121448523Y-107463759D01*
X121301890Y-107363569D01*
X121101779Y-107323046D01*
X121084346Y-107311397D01*
X120792927Y-107253430D01*
X121017698Y-107160327D01*
X121158936Y-107019090D01*
X121193910Y-107073441D01*
G36*
X114282560Y-108880000D02*
X114326838Y-109115317D01*
X114465910Y-109331441D01*
X114592686Y-109418064D01*
X114507000Y-109503750D01*
X114507000Y-110303000D01*
X114527000Y-110303000D01*
X114527000Y-110557000D01*
X114507000Y-110557000D01*
X114507000Y-111356250D01*
X114665750Y-111515000D01*
X114906310Y-111515000D01*
X115139699Y-111418327D01*
X115318327Y-111239698D01*
X115333423Y-111203253D01*
X115375000Y-111267865D01*
X115375000Y-111925331D01*
X115358559Y-111935910D01*
X115213569Y-112148110D01*
X115208326Y-112174000D01*
X114664192Y-112174000D01*
X114557090Y-112007559D01*
X114344890Y-111862569D01*
X114093000Y-111811560D01*
X113343000Y-111811560D01*
X113107683Y-111855838D01*
X112891559Y-111994910D01*
X112746569Y-112207110D01*
X112695560Y-112459000D01*
X112695560Y-113659000D01*
X112739838Y-113894317D01*
X112806329Y-113997646D01*
X112804673Y-113999302D01*
X112708000Y-114232691D01*
X112708000Y-114673250D01*
X112866750Y-114832000D01*
X113591000Y-114832000D01*
X113591000Y-114812000D01*
X113845000Y-114812000D01*
X113845000Y-114832000D01*
X114569250Y-114832000D01*
X114728000Y-114673250D01*
X114728000Y-114232691D01*
X114631327Y-113999302D01*
X114629957Y-113997932D01*
X114666808Y-113944000D01*
X115276774Y-113944000D01*
X115345910Y-114051441D01*
X115415711Y-114099134D01*
X115358559Y-114135910D01*
X115213569Y-114348110D01*
X115162560Y-114600000D01*
X115162560Y-115800000D01*
X115206838Y-116035317D01*
X115345910Y-116251441D01*
X115558110Y-116396431D01*
X115810000Y-116447440D01*
X116710000Y-116447440D01*
X116765000Y-116437091D01*
X116765000Y-120274000D01*
X116703750Y-120274000D01*
X116545000Y-120432750D01*
X116545000Y-121232000D01*
X116565000Y-121232000D01*
X116565000Y-121486000D01*
X116545000Y-121486000D01*
X116545000Y-121506000D01*
X116291000Y-121506000D01*
X116291000Y-121486000D01*
X115441750Y-121486000D01*
X115283000Y-121644750D01*
X115283000Y-121935309D01*
X115340448Y-122074000D01*
X113395552Y-122074000D01*
X113453000Y-121935309D01*
X113453000Y-121644750D01*
X113294250Y-121486000D01*
X112445000Y-121486000D01*
X112445000Y-121506000D01*
X112191000Y-121506000D01*
X112191000Y-121486000D01*
X111341750Y-121486000D01*
X111183000Y-121644750D01*
X111183000Y-121935309D01*
X111279673Y-122168698D01*
X111281043Y-122170068D01*
X111221569Y-122257110D01*
X111170560Y-122509000D01*
X111170560Y-122776430D01*
X111035000Y-122640870D01*
X111035000Y-120782691D01*
X111183000Y-120782691D01*
X111183000Y-121073250D01*
X111341750Y-121232000D01*
X112191000Y-121232000D01*
X112191000Y-120432750D01*
X112445000Y-120432750D01*
X112445000Y-121232000D01*
X113294250Y-121232000D01*
X113453000Y-121073250D01*
X113453000Y-120782691D01*
X115283000Y-120782691D01*
X115283000Y-121073250D01*
X115441750Y-121232000D01*
X116291000Y-121232000D01*
X116291000Y-120432750D01*
X116132250Y-120274000D01*
X115791690Y-120274000D01*
X115558301Y-120370673D01*
X115379673Y-120549302D01*
X115283000Y-120782691D01*
X113453000Y-120782691D01*
X113356327Y-120549302D01*
X113177699Y-120370673D01*
X112944310Y-120274000D01*
X112603750Y-120274000D01*
X112445000Y-120432750D01*
X112191000Y-120432750D01*
X112032250Y-120274000D01*
X111691690Y-120274000D01*
X111458301Y-120370673D01*
X111279673Y-120549302D01*
X111183000Y-120782691D01*
X111035000Y-120782691D01*
X111035000Y-115244750D01*
X112708000Y-115244750D01*
X112708000Y-115685309D01*
X112804673Y-115918698D01*
X112983301Y-116097327D01*
X113216690Y-116194000D01*
X113432250Y-116194000D01*
X113591000Y-116035250D01*
X113591000Y-115086000D01*
X113845000Y-115086000D01*
X113845000Y-116035250D01*
X114003750Y-116194000D01*
X114219310Y-116194000D01*
X114452699Y-116097327D01*
X114631327Y-115918698D01*
X114728000Y-115685309D01*
X114728000Y-115244750D01*
X114569250Y-115086000D01*
X113845000Y-115086000D01*
X113591000Y-115086000D01*
X112866750Y-115086000D01*
X112708000Y-115244750D01*
X111035000Y-115244750D01*
X111035000Y-110715750D01*
X113345000Y-110715750D01*
X113345000Y-111006309D01*
X113441673Y-111239698D01*
X113620301Y-111418327D01*
X113853690Y-111515000D01*
X114094250Y-111515000D01*
X114253000Y-111356250D01*
X114253000Y-110557000D01*
X113503750Y-110557000D01*
X113345000Y-110715750D01*
X111035000Y-110715750D01*
X111035000Y-110659491D01*
X110948603Y-110225145D01*
X110892914Y-110141800D01*
X110702566Y-109856924D01*
X110699333Y-109853691D01*
X113345000Y-109853691D01*
X113345000Y-110144250D01*
X113503750Y-110303000D01*
X114253000Y-110303000D01*
X114253000Y-109503750D01*
X114094250Y-109345000D01*
X113853690Y-109345000D01*
X113620301Y-109441673D01*
X113441673Y-109620302D01*
X113345000Y-109853691D01*
X110699333Y-109853691D01*
X109678252Y-108832611D01*
X109843610Y-108434384D01*
X109843659Y-108378006D01*
X110161654Y-108060011D01*
X114282560Y-108060011D01*
X114282560Y-108880000D01*
X114282560Y-108880000D01*
G37*
X114282560Y-108880000D02*
X114326838Y-109115317D01*
X114465910Y-109331441D01*
X114592686Y-109418064D01*
X114507000Y-109503750D01*
X114507000Y-110303000D01*
X114527000Y-110303000D01*
X114527000Y-110557000D01*
X114507000Y-110557000D01*
X114507000Y-111356250D01*
X114665750Y-111515000D01*
X114906310Y-111515000D01*
X115139699Y-111418327D01*
X115318327Y-111239698D01*
X115333423Y-111203253D01*
X115375000Y-111267865D01*
X115375000Y-111925331D01*
X115358559Y-111935910D01*
X115213569Y-112148110D01*
X115208326Y-112174000D01*
X114664192Y-112174000D01*
X114557090Y-112007559D01*
X114344890Y-111862569D01*
X114093000Y-111811560D01*
X113343000Y-111811560D01*
X113107683Y-111855838D01*
X112891559Y-111994910D01*
X112746569Y-112207110D01*
X112695560Y-112459000D01*
X112695560Y-113659000D01*
X112739838Y-113894317D01*
X112806329Y-113997646D01*
X112804673Y-113999302D01*
X112708000Y-114232691D01*
X112708000Y-114673250D01*
X112866750Y-114832000D01*
X113591000Y-114832000D01*
X113591000Y-114812000D01*
X113845000Y-114812000D01*
X113845000Y-114832000D01*
X114569250Y-114832000D01*
X114728000Y-114673250D01*
X114728000Y-114232691D01*
X114631327Y-113999302D01*
X114629957Y-113997932D01*
X114666808Y-113944000D01*
X115276774Y-113944000D01*
X115345910Y-114051441D01*
X115415711Y-114099134D01*
X115358559Y-114135910D01*
X115213569Y-114348110D01*
X115162560Y-114600000D01*
X115162560Y-115800000D01*
X115206838Y-116035317D01*
X115345910Y-116251441D01*
X115558110Y-116396431D01*
X115810000Y-116447440D01*
X116710000Y-116447440D01*
X116765000Y-116437091D01*
X116765000Y-120274000D01*
X116703750Y-120274000D01*
X116545000Y-120432750D01*
X116545000Y-121232000D01*
X116565000Y-121232000D01*
X116565000Y-121486000D01*
X116545000Y-121486000D01*
X116545000Y-121506000D01*
X116291000Y-121506000D01*
X116291000Y-121486000D01*
X115441750Y-121486000D01*
X115283000Y-121644750D01*
X115283000Y-121935309D01*
X115340448Y-122074000D01*
X113395552Y-122074000D01*
X113453000Y-121935309D01*
X113453000Y-121644750D01*
X113294250Y-121486000D01*
X112445000Y-121486000D01*
X112445000Y-121506000D01*
X112191000Y-121506000D01*
X112191000Y-121486000D01*
X111341750Y-121486000D01*
X111183000Y-121644750D01*
X111183000Y-121935309D01*
X111279673Y-122168698D01*
X111281043Y-122170068D01*
X111221569Y-122257110D01*
X111170560Y-122509000D01*
X111170560Y-122776430D01*
X111035000Y-122640870D01*
X111035000Y-120782691D01*
X111183000Y-120782691D01*
X111183000Y-121073250D01*
X111341750Y-121232000D01*
X112191000Y-121232000D01*
X112191000Y-120432750D01*
X112445000Y-120432750D01*
X112445000Y-121232000D01*
X113294250Y-121232000D01*
X113453000Y-121073250D01*
X113453000Y-120782691D01*
X115283000Y-120782691D01*
X115283000Y-121073250D01*
X115441750Y-121232000D01*
X116291000Y-121232000D01*
X116291000Y-120432750D01*
X116132250Y-120274000D01*
X115791690Y-120274000D01*
X115558301Y-120370673D01*
X115379673Y-120549302D01*
X115283000Y-120782691D01*
X113453000Y-120782691D01*
X113356327Y-120549302D01*
X113177699Y-120370673D01*
X112944310Y-120274000D01*
X112603750Y-120274000D01*
X112445000Y-120432750D01*
X112191000Y-120432750D01*
X112032250Y-120274000D01*
X111691690Y-120274000D01*
X111458301Y-120370673D01*
X111279673Y-120549302D01*
X111183000Y-120782691D01*
X111035000Y-120782691D01*
X111035000Y-115244750D01*
X112708000Y-115244750D01*
X112708000Y-115685309D01*
X112804673Y-115918698D01*
X112983301Y-116097327D01*
X113216690Y-116194000D01*
X113432250Y-116194000D01*
X113591000Y-116035250D01*
X113591000Y-115086000D01*
X113845000Y-115086000D01*
X113845000Y-116035250D01*
X114003750Y-116194000D01*
X114219310Y-116194000D01*
X114452699Y-116097327D01*
X114631327Y-115918698D01*
X114728000Y-115685309D01*
X114728000Y-115244750D01*
X114569250Y-115086000D01*
X113845000Y-115086000D01*
X113591000Y-115086000D01*
X112866750Y-115086000D01*
X112708000Y-115244750D01*
X111035000Y-115244750D01*
X111035000Y-110715750D01*
X113345000Y-110715750D01*
X113345000Y-111006309D01*
X113441673Y-111239698D01*
X113620301Y-111418327D01*
X113853690Y-111515000D01*
X114094250Y-111515000D01*
X114253000Y-111356250D01*
X114253000Y-110557000D01*
X113503750Y-110557000D01*
X113345000Y-110715750D01*
X111035000Y-110715750D01*
X111035000Y-110659491D01*
X110948603Y-110225145D01*
X110892914Y-110141800D01*
X110702566Y-109856924D01*
X110699333Y-109853691D01*
X113345000Y-109853691D01*
X113345000Y-110144250D01*
X113503750Y-110303000D01*
X114253000Y-110303000D01*
X114253000Y-109503750D01*
X114094250Y-109345000D01*
X113853690Y-109345000D01*
X113620301Y-109441673D01*
X113441673Y-109620302D01*
X113345000Y-109853691D01*
X110699333Y-109853691D01*
X109678252Y-108832611D01*
X109843610Y-108434384D01*
X109843659Y-108378006D01*
X110161654Y-108060011D01*
X114282560Y-108060011D01*
X114282560Y-108880000D01*
G36*
X117150433Y-108302567D02*
X117433737Y-108491865D01*
X118104438Y-109162566D01*
X118472658Y-109408603D01*
X118907004Y-109495000D01*
X120650000Y-109495000D01*
X121084346Y-109408603D01*
X121100232Y-109397988D01*
X121285317Y-109363162D01*
X121415000Y-109279713D01*
X121415000Y-111166418D01*
X121196057Y-111256883D01*
X120932808Y-111519673D01*
X120790162Y-111863201D01*
X120790145Y-111882560D01*
X120030000Y-111882560D01*
X119794683Y-111926838D01*
X119578559Y-112065910D01*
X119433569Y-112278110D01*
X119382560Y-112530000D01*
X119382560Y-112902638D01*
X119312433Y-112972765D01*
X119181890Y-112883569D01*
X118930000Y-112832560D01*
X118030000Y-112832560D01*
X117794683Y-112876838D01*
X117578559Y-113015910D01*
X117433569Y-113228110D01*
X117382560Y-113480000D01*
X117382560Y-113725861D01*
X117319102Y-113789319D01*
X117357440Y-113600000D01*
X117357440Y-112400000D01*
X117313162Y-112164683D01*
X117174090Y-111948559D01*
X117145000Y-111928683D01*
X117145000Y-111324246D01*
X117276431Y-111131890D01*
X117327440Y-110880000D01*
X117327440Y-109980000D01*
X117283162Y-109744683D01*
X117144090Y-109528559D01*
X116931890Y-109383569D01*
X116680000Y-109332560D01*
X116189319Y-109332560D01*
X116326431Y-109131890D01*
X116377440Y-108880000D01*
X116377440Y-108060011D01*
X116907877Y-108060011D01*
X117150433Y-108302567D01*
X117150433Y-108302567D01*
G37*
X117150433Y-108302567D02*
X117433737Y-108491865D01*
X118104438Y-109162566D01*
X118472658Y-109408603D01*
X118907004Y-109495000D01*
X120650000Y-109495000D01*
X121084346Y-109408603D01*
X121100232Y-109397988D01*
X121285317Y-109363162D01*
X121415000Y-109279713D01*
X121415000Y-111166418D01*
X121196057Y-111256883D01*
X120932808Y-111519673D01*
X120790162Y-111863201D01*
X120790145Y-111882560D01*
X120030000Y-111882560D01*
X119794683Y-111926838D01*
X119578559Y-112065910D01*
X119433569Y-112278110D01*
X119382560Y-112530000D01*
X119382560Y-112902638D01*
X119312433Y-112972765D01*
X119181890Y-112883569D01*
X118930000Y-112832560D01*
X118030000Y-112832560D01*
X117794683Y-112876838D01*
X117578559Y-113015910D01*
X117433569Y-113228110D01*
X117382560Y-113480000D01*
X117382560Y-113725861D01*
X117319102Y-113789319D01*
X117357440Y-113600000D01*
X117357440Y-112400000D01*
X117313162Y-112164683D01*
X117174090Y-111948559D01*
X117145000Y-111928683D01*
X117145000Y-111324246D01*
X117276431Y-111131890D01*
X117327440Y-110880000D01*
X117327440Y-109980000D01*
X117283162Y-109744683D01*
X117144090Y-109528559D01*
X116931890Y-109383569D01*
X116680000Y-109332560D01*
X116189319Y-109332560D01*
X116326431Y-109131890D01*
X116377440Y-108880000D01*
X116377440Y-108060011D01*
X116907877Y-108060011D01*
X117150433Y-108302567D01*
G36*
X105591278Y-96613637D02*
X105730350Y-96829761D01*
X105800151Y-96877454D01*
X105742999Y-96914230D01*
X105598009Y-97126430D01*
X105547000Y-97378320D01*
X105547000Y-98578320D01*
X105591278Y-98813637D01*
X105730350Y-99029761D01*
X105942550Y-99174751D01*
X106194440Y-99225760D01*
X107094440Y-99225760D01*
X107329757Y-99181482D01*
X107545881Y-99042410D01*
X107633281Y-98914495D01*
X107672179Y-98974944D01*
X107650039Y-98989190D01*
X107505049Y-99201390D01*
X107454040Y-99453280D01*
X107454040Y-100353280D01*
X107498318Y-100588597D01*
X107637390Y-100804721D01*
X107849590Y-100949711D01*
X108101480Y-101000720D01*
X109301480Y-101000720D01*
X109536797Y-100956442D01*
X109752921Y-100817370D01*
X109800614Y-100747569D01*
X109837390Y-100804721D01*
X110049590Y-100949711D01*
X110301480Y-101000720D01*
X111501480Y-101000720D01*
X111736797Y-100956442D01*
X111952921Y-100817370D01*
X112056504Y-100665771D01*
X112111639Y-100748286D01*
X113517353Y-102154000D01*
X110024360Y-102154000D01*
X109733520Y-102211852D01*
X109486959Y-102376599D01*
X104323558Y-107540000D01*
X102424488Y-107540000D01*
X102438823Y-107534077D01*
X102702072Y-107271287D01*
X102844718Y-106927759D01*
X102845042Y-106555793D01*
X102702997Y-106212017D01*
X102440207Y-105948768D01*
X102319719Y-105898737D01*
X102319719Y-101736603D01*
X103072121Y-100984201D01*
X103236868Y-100737639D01*
X103294720Y-100446800D01*
X103294720Y-99800761D01*
X104205399Y-99800761D01*
X104496238Y-99742909D01*
X104742800Y-99578162D01*
X105017801Y-99303161D01*
X105182548Y-99056599D01*
X105189150Y-99023408D01*
X105256841Y-98979850D01*
X105401831Y-98767650D01*
X105452840Y-98515760D01*
X105452840Y-97455760D01*
X105408562Y-97220443D01*
X105269490Y-97004319D01*
X105094168Y-96884527D01*
X105256841Y-96779850D01*
X105401831Y-96567650D01*
X105406264Y-96545760D01*
X105578506Y-96545760D01*
X105591278Y-96613637D01*
X105591278Y-96613637D01*
G37*
X105591278Y-96613637D02*
X105730350Y-96829761D01*
X105800151Y-96877454D01*
X105742999Y-96914230D01*
X105598009Y-97126430D01*
X105547000Y-97378320D01*
X105547000Y-98578320D01*
X105591278Y-98813637D01*
X105730350Y-99029761D01*
X105942550Y-99174751D01*
X106194440Y-99225760D01*
X107094440Y-99225760D01*
X107329757Y-99181482D01*
X107545881Y-99042410D01*
X107633281Y-98914495D01*
X107672179Y-98974944D01*
X107650039Y-98989190D01*
X107505049Y-99201390D01*
X107454040Y-99453280D01*
X107454040Y-100353280D01*
X107498318Y-100588597D01*
X107637390Y-100804721D01*
X107849590Y-100949711D01*
X108101480Y-101000720D01*
X109301480Y-101000720D01*
X109536797Y-100956442D01*
X109752921Y-100817370D01*
X109800614Y-100747569D01*
X109837390Y-100804721D01*
X110049590Y-100949711D01*
X110301480Y-101000720D01*
X111501480Y-101000720D01*
X111736797Y-100956442D01*
X111952921Y-100817370D01*
X112056504Y-100665771D01*
X112111639Y-100748286D01*
X113517353Y-102154000D01*
X110024360Y-102154000D01*
X109733520Y-102211852D01*
X109486959Y-102376599D01*
X104323558Y-107540000D01*
X102424488Y-107540000D01*
X102438823Y-107534077D01*
X102702072Y-107271287D01*
X102844718Y-106927759D01*
X102845042Y-106555793D01*
X102702997Y-106212017D01*
X102440207Y-105948768D01*
X102319719Y-105898737D01*
X102319719Y-101736603D01*
X103072121Y-100984201D01*
X103236868Y-100737639D01*
X103294720Y-100446800D01*
X103294720Y-99800761D01*
X104205399Y-99800761D01*
X104496238Y-99742909D01*
X104742800Y-99578162D01*
X105017801Y-99303161D01*
X105182548Y-99056599D01*
X105189150Y-99023408D01*
X105256841Y-98979850D01*
X105401831Y-98767650D01*
X105452840Y-98515760D01*
X105452840Y-97455760D01*
X105408562Y-97220443D01*
X105269490Y-97004319D01*
X105094168Y-96884527D01*
X105256841Y-96779850D01*
X105401831Y-96567650D01*
X105406264Y-96545760D01*
X105578506Y-96545760D01*
X105591278Y-96613637D01*
G36*
X120185000Y-106045000D02*
X120205000Y-106045000D01*
X120205000Y-106299000D01*
X120185000Y-106299000D01*
X120185000Y-106319000D01*
X119931000Y-106319000D01*
X119931000Y-106299000D01*
X119911000Y-106299000D01*
X119911000Y-106045000D01*
X119931000Y-106045000D01*
X119931000Y-106025000D01*
X120185000Y-106025000D01*
X120185000Y-106045000D01*
X120185000Y-106045000D01*
G37*
X120185000Y-106045000D02*
X120205000Y-106045000D01*
X120205000Y-106299000D01*
X120185000Y-106299000D01*
X120185000Y-106319000D01*
X119931000Y-106319000D01*
X119931000Y-106299000D01*
X119911000Y-106299000D01*
X119911000Y-106045000D01*
X119931000Y-106045000D01*
X119931000Y-106025000D01*
X120185000Y-106025000D01*
X120185000Y-106045000D01*
G36*
X114365880Y-95735042D02*
X114365880Y-96507680D01*
X114410158Y-96742997D01*
X114549230Y-96959121D01*
X114617326Y-97005649D01*
X114474993Y-97147982D01*
X114378320Y-97381371D01*
X114378320Y-97821930D01*
X114537070Y-97980680D01*
X115336320Y-97980680D01*
X115336320Y-97960680D01*
X115590320Y-97960680D01*
X115590320Y-97980680D01*
X116389570Y-97980680D01*
X116548320Y-97821930D01*
X116548320Y-97381371D01*
X116451647Y-97147982D01*
X116310410Y-97006744D01*
X116364761Y-96971770D01*
X116509751Y-96759570D01*
X116518072Y-96718480D01*
X116580386Y-96718480D01*
X116594558Y-96793797D01*
X116733630Y-97009921D01*
X116803431Y-97057614D01*
X116746279Y-97094390D01*
X116601289Y-97306590D01*
X116550280Y-97558480D01*
X116550280Y-98331118D01*
X116518144Y-98363254D01*
X116389570Y-98234680D01*
X115590320Y-98234680D01*
X115590320Y-99183930D01*
X115643894Y-99237504D01*
X115562601Y-99318797D01*
X115397854Y-99565359D01*
X115340002Y-99856198D01*
X115340002Y-101078177D01*
X115307810Y-101110313D01*
X115165385Y-101453310D01*
X114904966Y-101345174D01*
X114858090Y-101345133D01*
X113409040Y-99896083D01*
X113409040Y-98990429D01*
X113425481Y-98979850D01*
X113570471Y-98767650D01*
X113621480Y-98515760D01*
X113621480Y-98393430D01*
X114378320Y-98393430D01*
X114378320Y-98833989D01*
X114474993Y-99067378D01*
X114653621Y-99246007D01*
X114887010Y-99342680D01*
X115177570Y-99342680D01*
X115336320Y-99183930D01*
X115336320Y-98234680D01*
X114537070Y-98234680D01*
X114378320Y-98393430D01*
X113621480Y-98393430D01*
X113621480Y-97455760D01*
X113577202Y-97220443D01*
X113438130Y-97004319D01*
X113262808Y-96884527D01*
X113425481Y-96779850D01*
X113570471Y-96567650D01*
X113621480Y-96315760D01*
X113621480Y-95255760D01*
X113577202Y-95020443D01*
X113532718Y-94951313D01*
X113547222Y-94916384D01*
X114365880Y-95735042D01*
X114365880Y-95735042D01*
G37*
X114365880Y-95735042D02*
X114365880Y-96507680D01*
X114410158Y-96742997D01*
X114549230Y-96959121D01*
X114617326Y-97005649D01*
X114474993Y-97147982D01*
X114378320Y-97381371D01*
X114378320Y-97821930D01*
X114537070Y-97980680D01*
X115336320Y-97980680D01*
X115336320Y-97960680D01*
X115590320Y-97960680D01*
X115590320Y-97980680D01*
X116389570Y-97980680D01*
X116548320Y-97821930D01*
X116548320Y-97381371D01*
X116451647Y-97147982D01*
X116310410Y-97006744D01*
X116364761Y-96971770D01*
X116509751Y-96759570D01*
X116518072Y-96718480D01*
X116580386Y-96718480D01*
X116594558Y-96793797D01*
X116733630Y-97009921D01*
X116803431Y-97057614D01*
X116746279Y-97094390D01*
X116601289Y-97306590D01*
X116550280Y-97558480D01*
X116550280Y-98331118D01*
X116518144Y-98363254D01*
X116389570Y-98234680D01*
X115590320Y-98234680D01*
X115590320Y-99183930D01*
X115643894Y-99237504D01*
X115562601Y-99318797D01*
X115397854Y-99565359D01*
X115340002Y-99856198D01*
X115340002Y-101078177D01*
X115307810Y-101110313D01*
X115165385Y-101453310D01*
X114904966Y-101345174D01*
X114858090Y-101345133D01*
X113409040Y-99896083D01*
X113409040Y-98990429D01*
X113425481Y-98979850D01*
X113570471Y-98767650D01*
X113621480Y-98515760D01*
X113621480Y-98393430D01*
X114378320Y-98393430D01*
X114378320Y-98833989D01*
X114474993Y-99067378D01*
X114653621Y-99246007D01*
X114887010Y-99342680D01*
X115177570Y-99342680D01*
X115336320Y-99183930D01*
X115336320Y-98234680D01*
X114537070Y-98234680D01*
X114378320Y-98393430D01*
X113621480Y-98393430D01*
X113621480Y-97455760D01*
X113577202Y-97220443D01*
X113438130Y-97004319D01*
X113262808Y-96884527D01*
X113425481Y-96779850D01*
X113570471Y-96567650D01*
X113621480Y-96315760D01*
X113621480Y-95255760D01*
X113577202Y-95020443D01*
X113532718Y-94951313D01*
X113547222Y-94916384D01*
X114365880Y-95735042D01*
G36*
X111720878Y-96551077D02*
X111859950Y-96767201D01*
X111965934Y-96839616D01*
X111826040Y-96979510D01*
X111826040Y-97059811D01*
X111727609Y-97203870D01*
X111699864Y-97340880D01*
X111677202Y-97220443D01*
X111572040Y-97057017D01*
X111572040Y-96979510D01*
X111432325Y-96839795D01*
X111525481Y-96779850D01*
X111670471Y-96567650D01*
X111698216Y-96430640D01*
X111720878Y-96551077D01*
X111720878Y-96551077D01*
G37*
X111720878Y-96551077D02*
X111859950Y-96767201D01*
X111965934Y-96839616D01*
X111826040Y-96979510D01*
X111826040Y-97059811D01*
X111727609Y-97203870D01*
X111699864Y-97340880D01*
X111677202Y-97220443D01*
X111572040Y-97057017D01*
X111572040Y-96979510D01*
X111432325Y-96839795D01*
X111525481Y-96779850D01*
X111670471Y-96567650D01*
X111698216Y-96430640D01*
X111720878Y-96551077D01*
G36*
X151656790Y-87650408D02*
X148918997Y-90388201D01*
X145072600Y-90388201D01*
X145072600Y-90246200D01*
X145092600Y-90246200D01*
X145092600Y-90226200D01*
X145346600Y-90226200D01*
X145346600Y-90246200D01*
X146295850Y-90246200D01*
X146323250Y-90218800D01*
X148383200Y-90218800D01*
X148674039Y-90160948D01*
X148920601Y-89996201D01*
X151592019Y-87324783D01*
X151656790Y-87650408D01*
X151656790Y-87650408D01*
G37*
X151656790Y-87650408D02*
X148918997Y-90388201D01*
X145072600Y-90388201D01*
X145072600Y-90246200D01*
X145092600Y-90246200D01*
X145092600Y-90226200D01*
X145346600Y-90226200D01*
X145346600Y-90246200D01*
X146295850Y-90246200D01*
X146323250Y-90218800D01*
X148383200Y-90218800D01*
X148674039Y-90160948D01*
X148920601Y-89996201D01*
X151592019Y-87324783D01*
X151656790Y-87650408D01*
M02*
