G04 #@! TF.FileFunction,Legend,Top*
%FSLAX46Y46*%
G04 Gerber Fmt 4.6, Leading zero omitted, Abs format (unit mm)*
G04 Created by KiCad (PCBNEW 4.0.6+dfsg1-1) date Sun Aug 13 23:01:47 2017*
%MOMM*%
%LPD*%
G01*
G04 APERTURE LIST*
%ADD10C,0.100000*%
%ADD11C,0.150000*%
%ADD12C,0.120000*%
G04 APERTURE END LIST*
D10*
D11*
X113568000Y-113494000D02*
X115568000Y-117494000D01*
X113568000Y-107994000D02*
X113568000Y-113494000D01*
X115568000Y-103994000D02*
X113568000Y-107994000D01*
X127068000Y-117494000D02*
X115568000Y-117494000D01*
X127068000Y-103994000D02*
X127068000Y-117494000D01*
X115568000Y-103994000D02*
X127068000Y-103994000D01*
D12*
X130242000Y-78920000D02*
X130242000Y-81580000D01*
X135382000Y-78920000D02*
X130242000Y-78920000D01*
X135382000Y-81580000D02*
X130242000Y-81580000D01*
X135382000Y-78920000D02*
X135382000Y-81580000D01*
X136652000Y-78920000D02*
X137982000Y-78920000D01*
X137982000Y-78920000D02*
X137982000Y-80250000D01*
X96670000Y-109985000D02*
X97600000Y-109985000D01*
X99830000Y-109985000D02*
X98900000Y-109985000D01*
X99830000Y-109985000D02*
X99830000Y-107825000D01*
X96670000Y-109985000D02*
X96670000Y-108525000D01*
X157028000Y-119034000D02*
X157028000Y-80814000D01*
X157028000Y-80814000D02*
X151708000Y-80814000D01*
X151708000Y-80814000D02*
X151708000Y-121694000D01*
X151708000Y-121694000D02*
X154368000Y-121694000D01*
X154368000Y-121694000D02*
X154368000Y-119034000D01*
X154368000Y-119034000D02*
X157028000Y-119034000D01*
X157028000Y-120304000D02*
X157028000Y-121694000D01*
X157028000Y-121694000D02*
X155638000Y-121694000D01*
D11*
X112070000Y-103190000D02*
X112070000Y-95040000D01*
X101920000Y-103190000D02*
X112070000Y-103190000D01*
X101920000Y-95040000D02*
X101920000Y-103190000D01*
X112070000Y-95040000D02*
X101920000Y-95040000D01*
X131960000Y-91740000D02*
X127960000Y-87740000D01*
X131960000Y-97240000D02*
X131960000Y-91740000D01*
X127960000Y-101240000D02*
X131960000Y-97240000D01*
X118460000Y-87740000D02*
X127960000Y-87740000D01*
X118460000Y-101240000D02*
X118460000Y-87740000D01*
X127960000Y-101240000D02*
X118460000Y-101240000D01*
D12*
X112850000Y-101930000D02*
X116150000Y-101930000D01*
X116150000Y-101930000D02*
X116150000Y-96530000D01*
X112850000Y-101930000D02*
X112850000Y-96530000D01*
X111103665Y-82231608D02*
G75*
G03X114336000Y-82388516I1672335J1078608D01*
G01*
X111103665Y-80074392D02*
G75*
G02X114336000Y-79917484I1672335J-1078608D01*
G01*
X111734870Y-82232837D02*
G75*
G03X113816961Y-82233000I1041130J1079837D01*
G01*
X111734870Y-80073163D02*
G75*
G02X113816961Y-80073000I1041130J-1079837D01*
G01*
X114336000Y-82389000D02*
X114336000Y-82233000D01*
X114336000Y-80073000D02*
X114336000Y-79917000D01*
X113292000Y-121494000D02*
X114292000Y-121494000D01*
X114292000Y-122854000D02*
X113292000Y-122854000D01*
X113292000Y-119716000D02*
X114292000Y-119716000D01*
X114292000Y-121076000D02*
X113292000Y-121076000D01*
X98500000Y-106605000D02*
X97300000Y-106605000D01*
X97300000Y-104845000D02*
X98500000Y-104845000D01*
X113657000Y-87929000D02*
X112657000Y-87929000D01*
X112657000Y-86569000D02*
X113657000Y-86569000D01*
X113657000Y-85770000D02*
X112657000Y-85770000D01*
X112657000Y-84410000D02*
X113657000Y-84410000D01*
X115906000Y-86860000D02*
X115906000Y-85860000D01*
X117266000Y-85860000D02*
X117266000Y-86860000D01*
D11*
X148400000Y-98610000D02*
X148400000Y-86610000D01*
X136400000Y-98610000D02*
X148400000Y-98610000D01*
X136400000Y-86610000D02*
X136400000Y-98610000D01*
X148400000Y-86610000D02*
X136400000Y-86610000D01*
X174800000Y-92700000D02*
X157800000Y-92700000D01*
X174800000Y-111200000D02*
X174800000Y-92700000D01*
X157800000Y-111200000D02*
X174800000Y-111200000D01*
X157800000Y-92700000D02*
X157800000Y-111200000D01*
D12*
X121908800Y-90264400D02*
X123048800Y-90264400D01*
X123048800Y-90264400D02*
X123048800Y-88164400D01*
X121908800Y-90264400D02*
X121908800Y-88164400D01*
X124096400Y-92272400D02*
X123096400Y-92272400D01*
X123096400Y-90912400D02*
X124096400Y-90912400D01*
X125263200Y-88612800D02*
X125263200Y-89312800D01*
X124063200Y-89312800D02*
X124063200Y-88612800D01*
D11*
X118323334Y-118927143D02*
X118275715Y-118974762D01*
X118132858Y-119022381D01*
X118037620Y-119022381D01*
X117894762Y-118974762D01*
X117799524Y-118879524D01*
X117751905Y-118784286D01*
X117704286Y-118593810D01*
X117704286Y-118450952D01*
X117751905Y-118260476D01*
X117799524Y-118165238D01*
X117894762Y-118070000D01*
X118037620Y-118022381D01*
X118132858Y-118022381D01*
X118275715Y-118070000D01*
X118323334Y-118117619D01*
X119275715Y-119022381D02*
X118704286Y-119022381D01*
X118990000Y-119022381D02*
X118990000Y-118022381D01*
X118894762Y-118165238D01*
X118799524Y-118260476D01*
X118704286Y-118308095D01*
X112789429Y-109074952D02*
X112789429Y-108313047D01*
X113170381Y-108693999D02*
X112408476Y-108693999D01*
X133963905Y-83202381D02*
X133963905Y-82202381D01*
X134344858Y-82202381D01*
X134440096Y-82250000D01*
X134487715Y-82297619D01*
X134535334Y-82392857D01*
X134535334Y-82535714D01*
X134487715Y-82630952D01*
X134440096Y-82678571D01*
X134344858Y-82726190D01*
X133963905Y-82726190D01*
X134868667Y-82202381D02*
X135487715Y-82202381D01*
X135154381Y-82583333D01*
X135297239Y-82583333D01*
X135392477Y-82630952D01*
X135440096Y-82678571D01*
X135487715Y-82773810D01*
X135487715Y-83011905D01*
X135440096Y-83107143D01*
X135392477Y-83154762D01*
X135297239Y-83202381D01*
X135011524Y-83202381D01*
X134916286Y-83154762D01*
X134868667Y-83107143D01*
X94738095Y-109852381D02*
X94738095Y-110661905D01*
X94785714Y-110757143D01*
X94833333Y-110804762D01*
X94928571Y-110852381D01*
X95119048Y-110852381D01*
X95214286Y-110804762D01*
X95261905Y-110757143D01*
X95309524Y-110661905D01*
X95309524Y-109852381D01*
X95738095Y-109947619D02*
X95785714Y-109900000D01*
X95880952Y-109852381D01*
X96119048Y-109852381D01*
X96214286Y-109900000D01*
X96261905Y-109947619D01*
X96309524Y-110042857D01*
X96309524Y-110138095D01*
X96261905Y-110280952D01*
X95690476Y-110852381D01*
X96309524Y-110852381D01*
X97421429Y-107355952D02*
X97421429Y-106594047D01*
X97802381Y-106974999D02*
X97040476Y-106974999D01*
X154034667Y-122146381D02*
X154034667Y-122860667D01*
X153987047Y-123003524D01*
X153891809Y-123098762D01*
X153748952Y-123146381D01*
X153653714Y-123146381D01*
X155034667Y-123146381D02*
X154463238Y-123146381D01*
X154748952Y-123146381D02*
X154748952Y-122146381D01*
X154653714Y-122289238D01*
X154558476Y-122384476D01*
X154463238Y-122432095D01*
X105948095Y-93782381D02*
X105948095Y-94591905D01*
X105995714Y-94687143D01*
X106043333Y-94734762D01*
X106138571Y-94782381D01*
X106329048Y-94782381D01*
X106424286Y-94734762D01*
X106471905Y-94687143D01*
X106519524Y-94591905D01*
X106519524Y-93782381D01*
X106900476Y-93782381D02*
X107519524Y-93782381D01*
X107186190Y-94163333D01*
X107329048Y-94163333D01*
X107424286Y-94210952D01*
X107471905Y-94258571D01*
X107519524Y-94353810D01*
X107519524Y-94591905D01*
X107471905Y-94687143D01*
X107424286Y-94734762D01*
X107329048Y-94782381D01*
X107043333Y-94782381D01*
X106948095Y-94734762D01*
X106900476Y-94687143D01*
X122913334Y-102407143D02*
X122865715Y-102454762D01*
X122722858Y-102502381D01*
X122627620Y-102502381D01*
X122484762Y-102454762D01*
X122389524Y-102359524D01*
X122341905Y-102264286D01*
X122294286Y-102073810D01*
X122294286Y-101930952D01*
X122341905Y-101740476D01*
X122389524Y-101645238D01*
X122484762Y-101550000D01*
X122627620Y-101502381D01*
X122722858Y-101502381D01*
X122865715Y-101550000D01*
X122913334Y-101597619D01*
X123294286Y-101597619D02*
X123341905Y-101550000D01*
X123437143Y-101502381D01*
X123675239Y-101502381D01*
X123770477Y-101550000D01*
X123818096Y-101597619D01*
X123865715Y-101692857D01*
X123865715Y-101788095D01*
X123818096Y-101930952D01*
X123246667Y-102502381D01*
X123865715Y-102502381D01*
X132881429Y-96920952D02*
X132881429Y-96159047D01*
X133262381Y-96539999D02*
X132500476Y-96539999D01*
X113791905Y-94592381D02*
X113791905Y-93592381D01*
X114030000Y-93592381D01*
X114172858Y-93640000D01*
X114268096Y-93735238D01*
X114315715Y-93830476D01*
X114363334Y-94020952D01*
X114363334Y-94163810D01*
X114315715Y-94354286D01*
X114268096Y-94449524D01*
X114172858Y-94544762D01*
X114030000Y-94592381D01*
X113791905Y-94592381D01*
X115315715Y-94592381D02*
X114744286Y-94592381D01*
X115030000Y-94592381D02*
X115030000Y-93592381D01*
X114934762Y-93735238D01*
X114839524Y-93830476D01*
X114744286Y-93878095D01*
X111961705Y-78785981D02*
X111961705Y-77785981D01*
X112199800Y-77785981D01*
X112342658Y-77833600D01*
X112437896Y-77928838D01*
X112485515Y-78024076D01*
X112533134Y-78214552D01*
X112533134Y-78357410D01*
X112485515Y-78547886D01*
X112437896Y-78643124D01*
X112342658Y-78738362D01*
X112199800Y-78785981D01*
X111961705Y-78785981D01*
X112866467Y-77785981D02*
X113485515Y-77785981D01*
X113152181Y-78166933D01*
X113295039Y-78166933D01*
X113390277Y-78214552D01*
X113437896Y-78262171D01*
X113485515Y-78357410D01*
X113485515Y-78595505D01*
X113437896Y-78690743D01*
X113390277Y-78738362D01*
X113295039Y-78785981D01*
X113009324Y-78785981D01*
X112914086Y-78738362D01*
X112866467Y-78690743D01*
X116800334Y-122676381D02*
X116467000Y-122200190D01*
X116228905Y-122676381D02*
X116228905Y-121676381D01*
X116609858Y-121676381D01*
X116705096Y-121724000D01*
X116752715Y-121771619D01*
X116800334Y-121866857D01*
X116800334Y-122009714D01*
X116752715Y-122104952D01*
X116705096Y-122152571D01*
X116609858Y-122200190D01*
X116228905Y-122200190D01*
X117133667Y-121676381D02*
X117752715Y-121676381D01*
X117419381Y-122057333D01*
X117562239Y-122057333D01*
X117657477Y-122104952D01*
X117705096Y-122152571D01*
X117752715Y-122247810D01*
X117752715Y-122485905D01*
X117705096Y-122581143D01*
X117657477Y-122628762D01*
X117562239Y-122676381D01*
X117276524Y-122676381D01*
X117181286Y-122628762D01*
X117133667Y-122581143D01*
X116775334Y-120798381D02*
X116442000Y-120322190D01*
X116203905Y-120798381D02*
X116203905Y-119798381D01*
X116584858Y-119798381D01*
X116680096Y-119846000D01*
X116727715Y-119893619D01*
X116775334Y-119988857D01*
X116775334Y-120131714D01*
X116727715Y-120226952D01*
X116680096Y-120274571D01*
X116584858Y-120322190D01*
X116203905Y-120322190D01*
X117632477Y-120131714D02*
X117632477Y-120798381D01*
X117394381Y-119750762D02*
X117156286Y-120465048D01*
X117775334Y-120465048D01*
X94433334Y-106252381D02*
X94100000Y-105776190D01*
X93861905Y-106252381D02*
X93861905Y-105252381D01*
X94242858Y-105252381D01*
X94338096Y-105300000D01*
X94385715Y-105347619D01*
X94433334Y-105442857D01*
X94433334Y-105585714D01*
X94385715Y-105680952D01*
X94338096Y-105728571D01*
X94242858Y-105776190D01*
X93861905Y-105776190D01*
X95338096Y-105252381D02*
X94861905Y-105252381D01*
X94814286Y-105728571D01*
X94861905Y-105680952D01*
X94957143Y-105633333D01*
X95195239Y-105633333D01*
X95290477Y-105680952D01*
X95338096Y-105728571D01*
X95385715Y-105823810D01*
X95385715Y-106061905D01*
X95338096Y-106157143D01*
X95290477Y-106204762D01*
X95195239Y-106252381D01*
X94957143Y-106252381D01*
X94861905Y-106204762D01*
X94814286Y-106157143D01*
X109001143Y-87828381D02*
X108667809Y-87352190D01*
X108429714Y-87828381D02*
X108429714Y-86828381D01*
X108810667Y-86828381D01*
X108905905Y-86876000D01*
X108953524Y-86923619D01*
X109001143Y-87018857D01*
X109001143Y-87161714D01*
X108953524Y-87256952D01*
X108905905Y-87304571D01*
X108810667Y-87352190D01*
X108429714Y-87352190D01*
X109953524Y-87828381D02*
X109382095Y-87828381D01*
X109667809Y-87828381D02*
X109667809Y-86828381D01*
X109572571Y-86971238D01*
X109477333Y-87066476D01*
X109382095Y-87114095D01*
X110286857Y-86828381D02*
X110953524Y-86828381D01*
X110524952Y-87828381D01*
X108958143Y-85796381D02*
X108624809Y-85320190D01*
X108386714Y-85796381D02*
X108386714Y-84796381D01*
X108767667Y-84796381D01*
X108862905Y-84844000D01*
X108910524Y-84891619D01*
X108958143Y-84986857D01*
X108958143Y-85129714D01*
X108910524Y-85224952D01*
X108862905Y-85272571D01*
X108767667Y-85320190D01*
X108386714Y-85320190D01*
X109910524Y-85796381D02*
X109339095Y-85796381D01*
X109624809Y-85796381D02*
X109624809Y-84796381D01*
X109529571Y-84939238D01*
X109434333Y-85034476D01*
X109339095Y-85082095D01*
X110481952Y-85224952D02*
X110386714Y-85177333D01*
X110339095Y-85129714D01*
X110291476Y-85034476D01*
X110291476Y-84986857D01*
X110339095Y-84891619D01*
X110386714Y-84844000D01*
X110481952Y-84796381D01*
X110672429Y-84796381D01*
X110767667Y-84844000D01*
X110815286Y-84891619D01*
X110862905Y-84986857D01*
X110862905Y-85034476D01*
X110815286Y-85129714D01*
X110767667Y-85177333D01*
X110672429Y-85224952D01*
X110481952Y-85224952D01*
X110386714Y-85272571D01*
X110339095Y-85320190D01*
X110291476Y-85415429D01*
X110291476Y-85605905D01*
X110339095Y-85701143D01*
X110386714Y-85748762D01*
X110481952Y-85796381D01*
X110672429Y-85796381D01*
X110767667Y-85748762D01*
X110815286Y-85701143D01*
X110862905Y-85605905D01*
X110862905Y-85415429D01*
X110815286Y-85320190D01*
X110767667Y-85272571D01*
X110672429Y-85224952D01*
X115993943Y-89657181D02*
X115660609Y-89180990D01*
X115422514Y-89657181D02*
X115422514Y-88657181D01*
X115803467Y-88657181D01*
X115898705Y-88704800D01*
X115946324Y-88752419D01*
X115993943Y-88847657D01*
X115993943Y-88990514D01*
X115946324Y-89085752D01*
X115898705Y-89133371D01*
X115803467Y-89180990D01*
X115422514Y-89180990D01*
X116946324Y-89657181D02*
X116374895Y-89657181D01*
X116660609Y-89657181D02*
X116660609Y-88657181D01*
X116565371Y-88800038D01*
X116470133Y-88895276D01*
X116374895Y-88942895D01*
X117422514Y-89657181D02*
X117612990Y-89657181D01*
X117708229Y-89609562D01*
X117755848Y-89561943D01*
X117851086Y-89419086D01*
X117898705Y-89228610D01*
X117898705Y-88847657D01*
X117851086Y-88752419D01*
X117803467Y-88704800D01*
X117708229Y-88657181D01*
X117517752Y-88657181D01*
X117422514Y-88704800D01*
X117374895Y-88752419D01*
X117327276Y-88847657D01*
X117327276Y-89085752D01*
X117374895Y-89180990D01*
X117422514Y-89228610D01*
X117517752Y-89276229D01*
X117708229Y-89276229D01*
X117803467Y-89228610D01*
X117851086Y-89180990D01*
X117898705Y-89085752D01*
X142073334Y-85288381D02*
X141597143Y-85288381D01*
X141597143Y-84288381D01*
X142930477Y-85288381D02*
X142359048Y-85288381D01*
X142644762Y-85288381D02*
X142644762Y-84288381D01*
X142549524Y-84431238D01*
X142454286Y-84526476D01*
X142359048Y-84574095D01*
X138886905Y-118177381D02*
X138886905Y-118986905D01*
X138934524Y-119082143D01*
X138982143Y-119129762D01*
X139077381Y-119177381D01*
X139267858Y-119177381D01*
X139363096Y-119129762D01*
X139410715Y-119082143D01*
X139458334Y-118986905D01*
X139458334Y-118177381D01*
X140458334Y-119177381D02*
X139886905Y-119177381D01*
X140172619Y-119177381D02*
X140172619Y-118177381D01*
X140077381Y-118320238D01*
X139982143Y-118415476D01*
X139886905Y-118463095D01*
X141077381Y-118177381D02*
X141172620Y-118177381D01*
X141267858Y-118225000D01*
X141315477Y-118272619D01*
X141363096Y-118367857D01*
X141410715Y-118558333D01*
X141410715Y-118796429D01*
X141363096Y-118986905D01*
X141315477Y-119082143D01*
X141267858Y-119129762D01*
X141172620Y-119177381D01*
X141077381Y-119177381D01*
X140982143Y-119129762D01*
X140934524Y-119082143D01*
X140886905Y-118986905D01*
X140839286Y-118796429D01*
X140839286Y-118558333D01*
X140886905Y-118367857D01*
X140934524Y-118272619D01*
X140982143Y-118225000D01*
X141077381Y-118177381D01*
X146813095Y-116552381D02*
X146813095Y-117361905D01*
X146860714Y-117457143D01*
X146908333Y-117504762D01*
X147003571Y-117552381D01*
X147194048Y-117552381D01*
X147289286Y-117504762D01*
X147336905Y-117457143D01*
X147384524Y-117361905D01*
X147384524Y-116552381D01*
X148289286Y-116885714D02*
X148289286Y-117552381D01*
X148051190Y-116504762D02*
X147813095Y-117219048D01*
X148432143Y-117219048D01*
X157352381Y-96788095D02*
X156352381Y-96788095D01*
X156352381Y-96407142D01*
X156400000Y-96311904D01*
X156447619Y-96264285D01*
X156542857Y-96216666D01*
X156685714Y-96216666D01*
X156780952Y-96264285D01*
X156828571Y-96311904D01*
X156876190Y-96407142D01*
X156876190Y-96788095D01*
X156352381Y-95311904D02*
X156352381Y-95788095D01*
X156828571Y-95835714D01*
X156780952Y-95788095D01*
X156733333Y-95692857D01*
X156733333Y-95454761D01*
X156780952Y-95359523D01*
X156828571Y-95311904D01*
X156923810Y-95264285D01*
X157161905Y-95264285D01*
X157257143Y-95311904D01*
X157304762Y-95359523D01*
X157352381Y-95454761D01*
X157352381Y-95692857D01*
X157304762Y-95788095D01*
X157257143Y-95835714D01*
X97840667Y-97730381D02*
X97840667Y-98444667D01*
X97793047Y-98587524D01*
X97697809Y-98682762D01*
X97554952Y-98730381D01*
X97459714Y-98730381D01*
X98269238Y-97825619D02*
X98316857Y-97778000D01*
X98412095Y-97730381D01*
X98650191Y-97730381D01*
X98745429Y-97778000D01*
X98793048Y-97825619D01*
X98840667Y-97920857D01*
X98840667Y-98016095D01*
X98793048Y-98158952D01*
X98221619Y-98730381D01*
X98840667Y-98730381D01*
X94615048Y-94559429D02*
X95376953Y-94559429D01*
X94996001Y-94940381D02*
X94996001Y-94178476D01*
X94869048Y-101671429D02*
X95630953Y-101671429D01*
X121537505Y-87218781D02*
X121537505Y-86218781D01*
X121775600Y-86218781D01*
X121918458Y-86266400D01*
X122013696Y-86361638D01*
X122061315Y-86456876D01*
X122108934Y-86647352D01*
X122108934Y-86790210D01*
X122061315Y-86980686D01*
X122013696Y-87075924D01*
X121918458Y-87171162D01*
X121775600Y-87218781D01*
X121537505Y-87218781D01*
X122966077Y-86552114D02*
X122966077Y-87218781D01*
X122727981Y-86171162D02*
X122489886Y-86885448D01*
X123108934Y-86885448D01*
X120127734Y-92197181D02*
X119794400Y-91720990D01*
X119556305Y-92197181D02*
X119556305Y-91197181D01*
X119937258Y-91197181D01*
X120032496Y-91244800D01*
X120080115Y-91292419D01*
X120127734Y-91387657D01*
X120127734Y-91530514D01*
X120080115Y-91625752D01*
X120032496Y-91673371D01*
X119937258Y-91720990D01*
X119556305Y-91720990D01*
X120508686Y-91292419D02*
X120556305Y-91244800D01*
X120651543Y-91197181D01*
X120889639Y-91197181D01*
X120984877Y-91244800D01*
X121032496Y-91292419D01*
X121080115Y-91387657D01*
X121080115Y-91482895D01*
X121032496Y-91625752D01*
X120461067Y-92197181D01*
X121080115Y-92197181D01*
X124496534Y-87174343D02*
X124448915Y-87221962D01*
X124306058Y-87269581D01*
X124210820Y-87269581D01*
X124067962Y-87221962D01*
X123972724Y-87126724D01*
X123925105Y-87031486D01*
X123877486Y-86841010D01*
X123877486Y-86698152D01*
X123925105Y-86507676D01*
X123972724Y-86412438D01*
X124067962Y-86317200D01*
X124210820Y-86269581D01*
X124306058Y-86269581D01*
X124448915Y-86317200D01*
X124496534Y-86364819D01*
X124829867Y-86269581D02*
X125448915Y-86269581D01*
X125115581Y-86650533D01*
X125258439Y-86650533D01*
X125353677Y-86698152D01*
X125401296Y-86745771D01*
X125448915Y-86841010D01*
X125448915Y-87079105D01*
X125401296Y-87174343D01*
X125353677Y-87221962D01*
X125258439Y-87269581D01*
X124972724Y-87269581D01*
X124877486Y-87221962D01*
X124829867Y-87174343D01*
M02*
