M48
;DRILL file {KiCad 4.0.6+dfsg1-1} date Wed Jul 26 09:48:43 2017
;FORMAT={-:-/ absolute / inch / decimal}
FMAT,2
INCH,TZ
T1C0.016
T2C0.024
T3C0.028
T4C0.035
T5C0.039
T6C0.043
T7C0.079
T8C0.098
%
G90
G05
M72
T1
X3.7411Y-4.0945
X3.9695Y-4.1053
X4.0994Y-4.0748
X4.3472Y-4.2685
X4.5382Y-4.2569
X4.565Y-3.2441
X4.5884Y-3.7203
X4.6433Y-3.4204
X4.6564Y-3.9942
X4.7879Y-4.4789
X4.7923Y-4.4114
X4.7954Y-3.7169
X4.8012Y-4.0827
X4.8602Y-4.3041
X4.875Y-3.7136
X4.9045Y-3.9616
X4.9045Y-4.2146
X4.9065Y-3.6506
X4.9173Y-4.1112
X4.9341Y-4.0374
X4.936Y-4.2717
X5.0256Y-3.435
X5.1083Y-4.4587
X5.1417Y-3.7835
X5.2333Y-3.4291
X5.2756Y-3.8967
X5.3356Y-3.5915
X5.338Y-3.872
X5.3573Y-3.5187
X5.3878Y-3.7677
X5.4277Y-3.9044
X5.4361Y-3.5028
X5.5059Y-4.3474
X5.5233Y-3.3186
X5.5525Y-3.7673
X5.5965Y-3.2638
X5.6026Y-4.0662
X5.6034Y-4.0977
X5.6061Y-4.0349
X5.6102Y-3.3204
X5.6191Y-3.75
X5.6257Y-3.9177
X5.6447Y-3.9774
X5.6448Y-4.0089
X5.658Y-3.5284
X5.7333Y-3.5425
X5.7411Y-3.4764
X5.7835Y-3.7982
X5.7984Y-4.2743
X5.81Y-4.4094
X5.8209Y-4.4438
X5.8386Y-4.4901
X5.878Y-4.3376
X5.909Y-4.1877
X5.9321Y-3.6604
T2
X4.4587Y-3.3809
X4.4596Y-3.4754
X4.5787Y-4.7293
X4.92Y-4.36
T3
X4.6142Y-4.2805
X4.6703Y-4.1772
X5.6329Y-4.6939
X6.0463Y-4.8376
T4
X4.3173Y-3.2274
X4.4173Y-3.2274
T5
X3.9823Y-4.001
X4.1849Y-4.2954
X4.27Y-4.2582
X4.3907Y-3.6833
X4.563Y-3.3888
X4.6683Y-3.5817
X5.0472Y-4.9213
X5.17Y-4.84
X5.1763Y-4.0984
X5.1795Y-3.1594
X5.2078Y-4.129
X5.27Y-4.84
X5.2795Y-3.1594
X5.37Y-4.84
X5.3795Y-3.1594
X5.47Y-4.84
X5.9712Y-4.6914
X6.0275Y-3.2364
X6.0275Y-3.3364
X6.0275Y-3.4364
X6.0275Y-3.5364
X6.0275Y-3.6364
X6.0275Y-3.7364
X6.0275Y-3.8364
X6.0275Y-3.9364
X6.0275Y-4.0364
X6.0275Y-4.1364
X6.0275Y-4.2364
X6.0275Y-4.3364
X6.0275Y-4.4364
X6.0275Y-4.5364
X6.0275Y-4.6364
X6.0275Y-4.7364
X6.1275Y-3.2364
X6.1275Y-3.3364
X6.1275Y-3.4364
X6.1275Y-3.5364
X6.1275Y-3.6364
X6.1275Y-3.7364
X6.1275Y-3.8364
X6.1275Y-3.9364
X6.1275Y-4.0364
X6.1275Y-4.1364
X6.1275Y-4.2364
X6.1275Y-4.3364
X6.1275Y-4.4364
X6.1275Y-4.5364
X6.1275Y-4.6364
X6.1275Y-4.7364
T6
X6.3836Y-3.8793
X6.3836Y-3.9777
X6.3836Y-4.0565
X6.3836Y-4.1549
X6.4859Y-3.8793
X6.4859Y-3.9777
X6.4859Y-4.0565
X6.4859Y-4.1549
T7
X3.8189Y-3.7303
X3.8189Y-4.0059
X4.2266Y-3.9897
T8
X6.3678Y-3.7553
X6.3678Y-4.2789
X6.5922Y-3.7553
X6.5922Y-4.2789
T0
M30
