M48
;DRILL file {KiCad 4.0.6+dfsg1-1} date Sun Aug 13 23:01:40 2017
;FORMAT={-:-/ absolute / inch / decimal}
FMAT,2
INCH,TZ
T1C0.016
T2C0.024
T3C0.028
T4C0.035
T5C0.039
T6C0.043
T7C0.079
T8C0.098
T9C0.108
%
G90
G05
M72
T1
X3.9695Y-4.2638
X4.0122Y-4.2024
X4.0748Y-3.7136
X4.2076Y-3.7144
X4.285Y-3.6804
X4.3208Y-3.399
X4.3388Y-3.3238
X4.3472Y-4.2685
X4.3937Y-3.8004
X4.4184Y-3.4852
X4.4371Y-3.7209
X4.4852Y-3.4828
X4.4976Y-3.387
X4.5079Y-3.8004
X4.5165Y-4.0268
X4.5332Y-3.4894
X4.5382Y-4.2569
X4.5495Y-3.3628
X4.5709Y-4.0016
X4.6564Y-3.9942
X4.7526Y-3.4166
X4.7879Y-4.4789
X4.7923Y-4.4114
X4.7954Y-3.7169
X4.816Y-4.0954
X4.8578Y-4.3062
X4.8842Y-4.1326
X4.8975Y-3.6422
X4.9005Y-3.9616
X4.9714Y-4.2732
X5.1083Y-4.4587
X5.148Y-3.8
X5.272Y-3.894
X5.3356Y-3.5915
X5.338Y-3.872
X5.3573Y-3.5187
X5.3878Y-3.7677
X5.4277Y-3.9044
X5.4361Y-3.5028
X5.4822Y-4.0532
X5.5525Y-3.7673
X5.6026Y-4.0662
X5.6034Y-4.0977
X5.6061Y-4.0349
X5.6191Y-3.75
X5.6257Y-3.9177
X5.6447Y-3.9774
X5.6448Y-4.0089
X5.7173Y-3.558
X5.7362Y-3.4016
X5.7429Y-3.4323
X5.7835Y-3.7982
X5.7984Y-4.2743
X5.802Y-3.4143
X5.81Y-4.4094
X5.8209Y-4.4438
X5.8386Y-4.4901
X5.878Y-4.3376
X5.8924Y-4.6556
X5.909Y-4.1877
T2
X4.5787Y-4.7293
X4.8894Y-4.187
X4.9188Y-4.3634
X4.9256Y-4.0436
X4.93Y-3.8844
X4.942Y-3.4142
T3
X4.6142Y-4.2805
X4.685Y-4.1624
X5.6329Y-4.6939
T4
X4.39Y-3.195
X4.49Y-3.195
T5
X4.1849Y-4.2954
X4.27Y-4.2582
X4.5896Y-4.145
X4.7732Y-3.8938
X5.0082Y-3.6312
X5.0472Y-4.9213
X5.17Y-4.84
X5.18Y-3.1594
X5.18Y-3.31
X5.27Y-4.84
X5.28Y-3.1594
X5.37Y-4.84
X5.38Y-3.1594
X5.47Y-4.84
X6.0275Y-3.2364
X6.0275Y-3.3364
X6.0275Y-3.4364
X6.0275Y-3.5364
X6.0275Y-3.6364
X6.0275Y-3.7364
X6.0275Y-3.8364
X6.0275Y-3.9364
X6.0275Y-4.0364
X6.0275Y-4.1364
X6.0275Y-4.2364
X6.0275Y-4.3364
X6.0275Y-4.4364
X6.0275Y-4.5364
X6.0275Y-4.6364
X6.0275Y-4.7364
X6.1275Y-3.2364
X6.1275Y-3.3364
X6.1275Y-3.4364
X6.1275Y-3.5364
X6.1275Y-3.6364
X6.1275Y-3.7364
X6.1275Y-3.8364
X6.1275Y-3.9364
X6.1275Y-4.0364
X6.1275Y-4.1364
X6.1275Y-4.2364
X6.1275Y-4.3364
X6.1275Y-4.4364
X6.1275Y-4.5364
X6.1275Y-4.6364
X6.1275Y-4.7364
T6
X6.3524Y-3.8799
X6.3524Y-3.9783
X6.3524Y-4.0571
X6.3524Y-4.1555
X6.4547Y-3.8799
X6.4547Y-3.9783
X6.4547Y-4.0571
X6.4547Y-4.1555
T7
X4.1606Y-3.967
T8
X6.3366Y-3.7559
X6.3366Y-4.2795
X6.561Y-3.7559
X6.561Y-4.2795
T9
X3.8533Y-3.7294
X3.8533Y-4.005
T0
M30
