G04 #@! TF.FileFunction,Paste,Bot*
%FSLAX46Y46*%
G04 Gerber Fmt 4.6, Leading zero omitted, Abs format (unit mm)*
G04 Created by KiCad (PCBNEW 4.0.6+dfsg1-1) date Sun Aug 27 21:55:29 2017*
%MOMM*%
%LPD*%
G01*
G04 APERTURE LIST*
%ADD10C,0.100000*%
%ADD11R,0.800000X0.900000*%
%ADD12R,0.750000X1.200000*%
%ADD13R,0.800000X0.800000*%
%ADD14R,1.000000X0.900000*%
%ADD15R,0.900000X0.800000*%
%ADD16R,1.200000X0.900000*%
%ADD17R,0.900000X1.200000*%
%ADD18R,2.000000X1.000000*%
%ADD19R,1.000000X2.000000*%
%ADD20R,4.000000X4.000000*%
%ADD21R,1.060000X0.650000*%
%ADD22R,0.800000X0.600000*%
%ADD23R,2.000000X3.800000*%
%ADD24R,2.000000X1.500000*%
%ADD25R,0.750000X0.800000*%
%ADD26R,0.650000X1.060000*%
G04 APERTURE END LIST*
D10*
D11*
X115935840Y-112410240D03*
X114035840Y-112410240D03*
X114985840Y-110410240D03*
X111186000Y-105652320D03*
X109286000Y-105652320D03*
X110236000Y-103652320D03*
D12*
X114010440Y-116672360D03*
X114010440Y-114772360D03*
D13*
X120650000Y-108360000D03*
X122250000Y-108360000D03*
D14*
X112318000Y-122959000D03*
X112318000Y-121359000D03*
X116418000Y-122959000D03*
X116418000Y-121359000D03*
D15*
X120480000Y-112930000D03*
X120480000Y-114830000D03*
X118480000Y-113880000D03*
D16*
X143019600Y-90373200D03*
X145219600Y-90373200D03*
X120058000Y-106172000D03*
X122258000Y-106172000D03*
D17*
X116113560Y-116880640D03*
X116113560Y-114680640D03*
X122682000Y-115521920D03*
X122682000Y-113321920D03*
D16*
X120575000Y-100500000D03*
X118375000Y-100500000D03*
D17*
X142725000Y-123300000D03*
X142725000Y-121100000D03*
D18*
X126973880Y-108756800D03*
X145007880Y-108728800D03*
D19*
X140435880Y-93262800D03*
X141705880Y-93262800D03*
X135355880Y-93262800D03*
X136625880Y-93262800D03*
X139165880Y-93262800D03*
X137895880Y-93262800D03*
X132815880Y-93262800D03*
X134085880Y-93262800D03*
X131545880Y-93262800D03*
X130275880Y-93262800D03*
D18*
X144991880Y-111276800D03*
X145007880Y-109998800D03*
X145007880Y-106188800D03*
X144991880Y-107466800D03*
X144991880Y-102386800D03*
X145007880Y-101108800D03*
X145007880Y-103648800D03*
X144991880Y-104926800D03*
X144991880Y-94766800D03*
X144991880Y-97306800D03*
X145007880Y-96028800D03*
X145007880Y-98568800D03*
X144991880Y-99846800D03*
X126957880Y-99846800D03*
X126973880Y-98568800D03*
X126973880Y-96028800D03*
X126957880Y-97306800D03*
X126957880Y-94766800D03*
X126957880Y-104926800D03*
X126973880Y-103648800D03*
X126973880Y-101108800D03*
X126957880Y-102386800D03*
X126957880Y-107466800D03*
X126973880Y-106188800D03*
X126973880Y-110026800D03*
X126973880Y-111296800D03*
D20*
X135300000Y-102610000D03*
D21*
X111658400Y-86766400D03*
X111658400Y-85816400D03*
X111658400Y-84866400D03*
X113858400Y-84866400D03*
X113858400Y-86766400D03*
D22*
X122361960Y-89953200D03*
X122361960Y-88253200D03*
D16*
X122496400Y-91592400D03*
X124696400Y-91592400D03*
D23*
X133858000Y-87376000D03*
D24*
X127558000Y-87376000D03*
X127558000Y-85076000D03*
X127558000Y-89676000D03*
D25*
X124673360Y-88378600D03*
X124673360Y-89878600D03*
D26*
X112649040Y-97985760D03*
X111699040Y-97985760D03*
X110749040Y-97985760D03*
X110749040Y-95785760D03*
X112649040Y-95785760D03*
D17*
X106644440Y-95778320D03*
X106644440Y-97978320D03*
X115463320Y-95907680D03*
X115463320Y-98107680D03*
D16*
X108701480Y-99903280D03*
X110901480Y-99903280D03*
D17*
X117647720Y-98158480D03*
X117647720Y-95958480D03*
X108595160Y-97937320D03*
X108595160Y-95737320D03*
X113654840Y-105877720D03*
X113654840Y-103677720D03*
D16*
X106786680Y-103891080D03*
X104586680Y-103891080D03*
X104604640Y-105699560D03*
X106804640Y-105699560D03*
M02*
