G04 #@! TF.FileFunction,Copper,L2,Bot,Signal*
%FSLAX46Y46*%
G04 Gerber Fmt 4.6, Leading zero omitted, Abs format (unit mm)*
G04 Created by KiCad (PCBNEW 4.0.6+dfsg1-1) date Wed Jul 26 09:48:40 2017*
%MOMM*%
%LPD*%
G01*
G04 APERTURE LIST*
%ADD10C,0.100000*%
%ADD11R,1.700000X1.700000*%
%ADD12O,1.700000X1.700000*%
%ADD13R,0.800000X0.900000*%
%ADD14R,0.750000X1.200000*%
%ADD15R,1.200000X0.750000*%
%ADD16R,0.800000X0.800000*%
%ADD17R,1.800000X1.800000*%
%ADD18C,1.800000*%
%ADD19C,4.000000*%
%ADD20C,1.500000*%
%ADD21R,1.000000X0.900000*%
%ADD22R,0.900000X0.800000*%
%ADD23R,1.200000X0.900000*%
%ADD24R,0.900000X1.200000*%
%ADD25R,2.000000X1.000000*%
%ADD26R,1.000000X2.000000*%
%ADD27R,4.000000X4.000000*%
%ADD28R,1.060000X0.650000*%
%ADD29C,3.500000*%
%ADD30R,3.500000X3.500000*%
%ADD31C,6.000000*%
%ADD32C,1.000000*%
%ADD33C,0.600000*%
%ADD34C,2.500000*%
%ADD35C,0.800000*%
%ADD36C,0.400000*%
%ADD37C,1.000000*%
%ADD38C,0.250000*%
%ADD39C,0.500000*%
%ADD40C,0.254000*%
G04 APERTURE END LIST*
D10*
D11*
X131560000Y-80250000D03*
D12*
X134100000Y-80250000D03*
X136640000Y-80250000D03*
D11*
X155638000Y-120304000D03*
D12*
X153098000Y-120304000D03*
X155638000Y-117764000D03*
X153098000Y-117764000D03*
X155638000Y-115224000D03*
X153098000Y-115224000D03*
X155638000Y-112684000D03*
X153098000Y-112684000D03*
X155638000Y-110144000D03*
X153098000Y-110144000D03*
X155638000Y-107604000D03*
X153098000Y-107604000D03*
X155638000Y-105064000D03*
X153098000Y-105064000D03*
X155638000Y-102524000D03*
X153098000Y-102524000D03*
X155638000Y-99984000D03*
X153098000Y-99984000D03*
X155638000Y-97444000D03*
X153098000Y-97444000D03*
X155638000Y-94904000D03*
X153098000Y-94904000D03*
X155638000Y-92364000D03*
X153098000Y-92364000D03*
X155638000Y-89824000D03*
X153098000Y-89824000D03*
X155638000Y-87284000D03*
X153098000Y-87284000D03*
X155638000Y-84744000D03*
X153098000Y-84744000D03*
X155638000Y-82204000D03*
X153098000Y-82204000D03*
D13*
X116280000Y-110430000D03*
X114380000Y-110430000D03*
X115330000Y-108430000D03*
D14*
X113348000Y-93554690D03*
X113348000Y-95454690D03*
D15*
X120423000Y-98329690D03*
X118523000Y-98329690D03*
D14*
X113718000Y-114959000D03*
X113718000Y-113059000D03*
D16*
X120650000Y-108360000D03*
X122250000Y-108360000D03*
D17*
X112200000Y-81975000D03*
D18*
X109660000Y-81975000D03*
D19*
X161743000Y-95384000D03*
X167443000Y-95384000D03*
X161743000Y-108684000D03*
X167443000Y-108684000D03*
D20*
X164743000Y-105534000D03*
X164743000Y-103034000D03*
X164743000Y-98534000D03*
X164743000Y-101034000D03*
X162143000Y-98534000D03*
X162143000Y-101034000D03*
X162143000Y-103034000D03*
X162143000Y-105534000D03*
D21*
X112318000Y-122959000D03*
X112318000Y-121359000D03*
X116418000Y-122959000D03*
X116418000Y-121359000D03*
D22*
X120480000Y-112930000D03*
X120480000Y-114830000D03*
X118480000Y-113880000D03*
D23*
X149650000Y-87450000D03*
X147450000Y-87450000D03*
X147388000Y-89354000D03*
X149588000Y-89354000D03*
X120058000Y-106172000D03*
X122258000Y-106172000D03*
D24*
X115623000Y-95579690D03*
X115623000Y-93379690D03*
X116260000Y-115200000D03*
X116260000Y-113000000D03*
X122830000Y-114880000D03*
X122830000Y-112680000D03*
D23*
X120575000Y-100500000D03*
X118375000Y-100500000D03*
D24*
X142725000Y-123300000D03*
X142725000Y-121100000D03*
D25*
X126973880Y-108756800D03*
X145007880Y-108728800D03*
D26*
X140435880Y-93262800D03*
X141705880Y-93262800D03*
X135355880Y-93262800D03*
X136625880Y-93262800D03*
X139165880Y-93262800D03*
X137895880Y-93262800D03*
X132815880Y-93262800D03*
X134085880Y-93262800D03*
X131545880Y-93262800D03*
X130275880Y-93262800D03*
D25*
X144991880Y-111276800D03*
X145007880Y-109998800D03*
X145007880Y-106188800D03*
X144991880Y-107466800D03*
X144991880Y-102386800D03*
X145007880Y-101108800D03*
X145007880Y-103648800D03*
X144991880Y-104926800D03*
X144991880Y-94766800D03*
X144991880Y-97306800D03*
X145007880Y-96028800D03*
X145007880Y-98568800D03*
X144991880Y-99846800D03*
X126957880Y-99846800D03*
X126973880Y-98568800D03*
X126973880Y-96028800D03*
X126957880Y-97306800D03*
X126957880Y-94766800D03*
X126957880Y-104926800D03*
X126973880Y-103648800D03*
X126973880Y-101108800D03*
X126957880Y-102386800D03*
X126957880Y-107466800D03*
X126973880Y-106188800D03*
X126973880Y-110026800D03*
X126973880Y-111296800D03*
D27*
X135300000Y-102610000D03*
D28*
X118523000Y-95379690D03*
X118523000Y-94429690D03*
X118523000Y-93479690D03*
X120723000Y-93479690D03*
X120723000Y-95379690D03*
D11*
X138938000Y-122936000D03*
D12*
X136398000Y-122936000D03*
X133858000Y-122936000D03*
X131318000Y-122936000D03*
D29*
X97000000Y-101750000D03*
D30*
X97000000Y-94750000D03*
D31*
X122075000Y-82450000D03*
X147025000Y-82450000D03*
X147025000Y-120950000D03*
X122075000Y-120950000D03*
D32*
X153575000Y-122875000D03*
D33*
X116545577Y-94496095D03*
D32*
X118625000Y-106100000D03*
X117200000Y-108725000D03*
D20*
X151667726Y-119161969D03*
D33*
X115950000Y-82400000D03*
X110420000Y-108420000D03*
D20*
X106295761Y-109104229D03*
D33*
X145825000Y-88300000D03*
D34*
X107354620Y-101338990D03*
D33*
X145625000Y-89979010D03*
X150675000Y-92975000D03*
D20*
X131479142Y-104099672D03*
X132279031Y-104875894D03*
D35*
X124968000Y-110744000D03*
D33*
X121802554Y-94409611D03*
D20*
X118575000Y-90975000D03*
D35*
X116300000Y-120125000D03*
X113275000Y-88275000D03*
D20*
X128200000Y-125000000D03*
D32*
X143075000Y-119225000D03*
D33*
X124625000Y-92725000D03*
D20*
X108458851Y-108157682D03*
D33*
X140291629Y-84291629D03*
D20*
X111525000Y-93554690D03*
X101150000Y-101625000D03*
D35*
X113250000Y-85875000D03*
D20*
X115900000Y-86075000D03*
D33*
X135585585Y-98349990D03*
X137862358Y-99171256D03*
X121611758Y-113763242D03*
X121725000Y-112050000D03*
X148300052Y-114048999D03*
X147851464Y-112873536D03*
X117940000Y-86878000D03*
X125325000Y-102550000D03*
X124900000Y-104425000D03*
X147575000Y-112000000D03*
X100825000Y-104275000D03*
X95025000Y-104000000D03*
X104125000Y-103500000D03*
X142325797Y-104081458D03*
X150088232Y-106368827D03*
X142305518Y-103281703D03*
X142396123Y-102486839D03*
X143377156Y-101825009D03*
X136850000Y-95699936D03*
X142891869Y-99510012D03*
X139849430Y-110424990D03*
X134000000Y-98975000D03*
X130600000Y-96100000D03*
X142499990Y-84339125D03*
X142150000Y-82900000D03*
X136075000Y-89375000D03*
X135525000Y-91225000D03*
X142725000Y-95250000D03*
X124575000Y-100625000D03*
X141033656Y-95688190D03*
X138075848Y-88970861D03*
X146900000Y-96475000D03*
X143375000Y-101025000D03*
X129750000Y-113250000D03*
X147278596Y-108568025D03*
X149300000Y-110175000D03*
X125375000Y-108500000D03*
X123450000Y-109325000D03*
X115271409Y-108125021D03*
X118272449Y-101452551D03*
X127650000Y-87250000D03*
X123825000Y-94325000D03*
X143712201Y-89620377D03*
X132925000Y-87100000D03*
X124575000Y-107050000D03*
X121950000Y-103700000D03*
D36*
X118523000Y-94429690D02*
X116611982Y-94429690D01*
X116611982Y-94429690D02*
X116545577Y-94496095D01*
X118523000Y-94429690D02*
X121782475Y-94429690D01*
D37*
X139000000Y-111425000D02*
X135300000Y-107725000D01*
X135300000Y-107725000D02*
X135300000Y-102610000D01*
X142843680Y-111425000D02*
X139000000Y-111425000D01*
X142991880Y-111276800D02*
X142843680Y-111425000D01*
X144991880Y-111276800D02*
X142991880Y-111276800D01*
D38*
X120208000Y-106172000D02*
X120058000Y-106172000D01*
X120983001Y-106947001D02*
X120208000Y-106172000D01*
X122222003Y-106947001D02*
X120983001Y-106947001D01*
X124149988Y-108874986D02*
X122222003Y-106947001D01*
X124149988Y-109925988D02*
X124149988Y-108874986D01*
X124968000Y-110744000D02*
X124149988Y-109925988D01*
D39*
X118625000Y-106100000D02*
X119986000Y-106100000D01*
X119986000Y-106100000D02*
X120058000Y-106172000D01*
X116445000Y-109480000D02*
X117200000Y-108725000D01*
X114380000Y-110430000D02*
X114380000Y-110380000D01*
X115280000Y-109480000D02*
X116445000Y-109480000D01*
X114380000Y-110380000D02*
X115280000Y-109480000D01*
D37*
X150725001Y-118200481D02*
X151667726Y-119143206D01*
X151667726Y-119143206D02*
X151667726Y-119161969D01*
X150725001Y-113975001D02*
X150725001Y-118200481D01*
D39*
X109660000Y-81975000D02*
X109660000Y-84660000D01*
X109660000Y-84660000D02*
X113275000Y-88275000D01*
D36*
X114380000Y-110430000D02*
X112430000Y-110430000D01*
X112430000Y-110430000D02*
X110420000Y-108420000D01*
D38*
X161743000Y-95384000D02*
X158914573Y-95384000D01*
X158914573Y-95384000D02*
X157069574Y-93539001D01*
X157069574Y-93539001D02*
X155073999Y-93539001D01*
X155073999Y-93539001D02*
X154273001Y-92738003D01*
X154273001Y-92738003D02*
X154273001Y-91799999D01*
X154273001Y-91799999D02*
X153662001Y-91188999D01*
X153662001Y-91188999D02*
X152461001Y-91188999D01*
X152461001Y-91188999D02*
X150675000Y-92975000D01*
X147450000Y-87450000D02*
X147300000Y-87450000D01*
D39*
X126973880Y-111296800D02*
X125520800Y-111296800D01*
X125520800Y-111296800D02*
X124968000Y-110744000D01*
D36*
X121782475Y-94429690D02*
X121802554Y-94409611D01*
X116300000Y-120125000D02*
X116300000Y-121241000D01*
X116300000Y-121241000D02*
X116418000Y-121359000D01*
D39*
X112318000Y-121359000D02*
X116418000Y-121359000D01*
D36*
X118523000Y-93479690D02*
X115723000Y-93479690D01*
D39*
X119890402Y-92112288D02*
X118548001Y-93454689D01*
D36*
X118523000Y-95379690D02*
X118523000Y-96104690D01*
X118523000Y-96104690D02*
X117847999Y-96779691D01*
D37*
X111788998Y-125000000D02*
X128200000Y-125000000D01*
X117952999Y-107500001D02*
X117378009Y-106925011D01*
X118047005Y-107500001D02*
X117952999Y-107500001D01*
X109691522Y-106925011D02*
X108458851Y-108157682D01*
X117378009Y-106925011D02*
X109691522Y-106925011D01*
X118907004Y-108360000D02*
X118047005Y-107500001D01*
X120650000Y-108360000D02*
X118907004Y-108360000D01*
X142725000Y-121100000D02*
X142725000Y-119575000D01*
X142725000Y-119575000D02*
X143075000Y-119225000D01*
D39*
X124012288Y-92112288D02*
X124625000Y-92725000D01*
X119890402Y-92112288D02*
X124012288Y-92112288D01*
D37*
X105001170Y-104700001D02*
X108458851Y-108157682D01*
X109900000Y-123061002D02*
X109875000Y-123086002D01*
X103164341Y-104700001D02*
X105001170Y-104700001D01*
X101150000Y-102685660D02*
X103164341Y-104700001D01*
X101150000Y-101625000D02*
X101150000Y-102685660D01*
X108458851Y-109218342D02*
X109900000Y-110659491D01*
X108458851Y-108157682D02*
X108458851Y-109218342D01*
X109900000Y-110659491D02*
X109900000Y-123061002D01*
X109875000Y-123086002D02*
X111788998Y-125000000D01*
D36*
X136640000Y-80250000D02*
X140291629Y-83901629D01*
X140291629Y-83901629D02*
X140291629Y-84291629D01*
D39*
X142725000Y-121100000D02*
X142725000Y-120950000D01*
X142725000Y-121100000D02*
X139424000Y-121100000D01*
X138938000Y-121586000D02*
X138938000Y-122936000D01*
X139424000Y-121100000D02*
X138938000Y-121586000D01*
D36*
X117847999Y-96779691D02*
X114692999Y-96779691D01*
X114692999Y-96779691D02*
X114572999Y-96659691D01*
X114572999Y-96659691D02*
X114572999Y-94579691D01*
X114572999Y-94579691D02*
X115623000Y-93529690D01*
X115623000Y-93529690D02*
X115623000Y-93379690D01*
X118523000Y-95379690D02*
X118318000Y-95379690D01*
D37*
X111525000Y-93554690D02*
X113348000Y-93554690D01*
X113348000Y-93554690D02*
X113218309Y-93424999D01*
D36*
X115723000Y-93479690D02*
X115623000Y-93379690D01*
D39*
X113250000Y-85875000D02*
X115700000Y-85875000D01*
X115700000Y-85875000D02*
X115900000Y-86075000D01*
D37*
X115623000Y-93379690D02*
X115623000Y-86352000D01*
X115623000Y-86352000D02*
X115900000Y-86075000D01*
X113348000Y-93554690D02*
X115448000Y-93554690D01*
X115448000Y-93554690D02*
X115623000Y-93379690D01*
D39*
X116260000Y-113000000D02*
X116260000Y-110450000D01*
X116260000Y-110450000D02*
X116280000Y-110430000D01*
X113718000Y-113059000D02*
X116201000Y-113059000D01*
X116201000Y-113059000D02*
X116260000Y-113000000D01*
D36*
X136009849Y-98349990D02*
X135585585Y-98349990D01*
X137041092Y-98349990D02*
X136009849Y-98349990D01*
X137862358Y-99171256D02*
X137041092Y-98349990D01*
X121596758Y-113763242D02*
X121611758Y-113763242D01*
X120530000Y-114830000D02*
X121596758Y-113763242D01*
X120480000Y-114830000D02*
X120530000Y-114830000D01*
X122250000Y-108360000D02*
X122250000Y-111525000D01*
X122250000Y-111525000D02*
X121725000Y-112050000D01*
X120480000Y-114830000D02*
X122780000Y-114830000D01*
D38*
X138376179Y-114048999D02*
X148300052Y-114048999D01*
X131793980Y-107466800D02*
X138376179Y-114048999D01*
X126957880Y-107466800D02*
X131793980Y-107466800D01*
X126973880Y-106188800D02*
X131152390Y-106188800D01*
X131152390Y-106188800D02*
X138137125Y-113173535D01*
X138137125Y-113173535D02*
X147551465Y-113173535D01*
X147551465Y-113173535D02*
X147851464Y-112873536D01*
X147275001Y-112299999D02*
X147575000Y-112000000D01*
X126957880Y-104926800D02*
X130526800Y-104926800D01*
X130526800Y-104926800D02*
X138075011Y-112475011D01*
X147099989Y-112475011D02*
X147275001Y-112299999D01*
X138075011Y-112475011D02*
X147099989Y-112475011D01*
D36*
X120385004Y-86878000D02*
X117940000Y-86878000D01*
X125525002Y-92017998D02*
X120385004Y-86878000D01*
X125525002Y-93157002D02*
X125525002Y-92017998D01*
X125325000Y-93357004D02*
X125525002Y-93157002D01*
X125325000Y-102550000D02*
X125325000Y-93357004D01*
X126957880Y-104926800D02*
X125401800Y-104926800D01*
X125401800Y-104926800D02*
X124900000Y-104425000D01*
D38*
X141685287Y-103456524D02*
X141685287Y-103865212D01*
X137524979Y-97824979D02*
X140499999Y-100799999D01*
X141901533Y-104081458D02*
X142325797Y-104081458D01*
X140499999Y-100799999D02*
X140499999Y-102271236D01*
X140499999Y-102271236D02*
X141685287Y-103456524D01*
X135985576Y-97824979D02*
X137524979Y-97824979D01*
X135885586Y-97724989D02*
X135985576Y-97824979D01*
X134147691Y-97724989D02*
X135885586Y-97724989D01*
X128223880Y-103648800D02*
X134147691Y-97724989D01*
X126973880Y-103648800D02*
X128223880Y-103648800D01*
X141685287Y-103865212D02*
X141901533Y-104081458D01*
X95025000Y-104000000D02*
X95324999Y-104299999D01*
X95324999Y-104299999D02*
X100800001Y-104299999D01*
X100800001Y-104299999D02*
X100825000Y-104275000D01*
X118850000Y-102914000D02*
X122108000Y-106172000D01*
X104125000Y-103500000D02*
X104549264Y-103500000D01*
X104549264Y-103500000D02*
X105135264Y-102914000D01*
X105135264Y-102914000D02*
X118850000Y-102914000D01*
X122108000Y-106172000D02*
X122258000Y-106172000D01*
X126973880Y-103648800D02*
X124081200Y-103648800D01*
X124081200Y-103648800D02*
X122258000Y-105472000D01*
X122258000Y-105472000D02*
X122258000Y-106172000D01*
X154402827Y-106368827D02*
X150088232Y-106368827D01*
X155638000Y-107604000D02*
X154402827Y-106368827D01*
X122258000Y-106172000D02*
X122408000Y-106172000D01*
X141374999Y-100874999D02*
X141374999Y-102351184D01*
X128849469Y-102386800D02*
X133961291Y-97274978D01*
X137874968Y-97374968D02*
X141374999Y-100874999D01*
X142005519Y-102981704D02*
X142305518Y-103281703D01*
X136071986Y-97274978D02*
X136171976Y-97374968D01*
X136171976Y-97374968D02*
X137874968Y-97374968D01*
X133961291Y-97274978D02*
X136071986Y-97274978D01*
X126957880Y-102386800D02*
X128849469Y-102386800D01*
X141374999Y-102351184D02*
X142005519Y-102981704D01*
X136358376Y-96924957D02*
X138428412Y-96924957D01*
X141949988Y-102040704D02*
X142096124Y-102186840D01*
X136258386Y-96824967D02*
X136358376Y-96924957D01*
X142096124Y-102186840D02*
X142396123Y-102486839D01*
X141949988Y-100446533D02*
X141949988Y-102040704D01*
X126973880Y-101108800D02*
X129491058Y-101108800D01*
X133774891Y-96824967D02*
X136258386Y-96824967D01*
X138428412Y-96924957D02*
X141949988Y-100446533D01*
X129491058Y-101108800D02*
X133774891Y-96824967D01*
D36*
X142474999Y-101347116D02*
X142952892Y-101825009D01*
X136475852Y-96299956D02*
X136575842Y-96399946D01*
X142952892Y-101825009D02*
X143377156Y-101825009D01*
X126957880Y-99846800D02*
X130010581Y-99846800D01*
X136575842Y-96399946D02*
X138745801Y-96399946D01*
X138745801Y-96399946D02*
X142474999Y-100129144D01*
X142474999Y-100129144D02*
X142474999Y-101347116D01*
X133557425Y-96299956D02*
X136475852Y-96299956D01*
X130010581Y-99846800D02*
X133557425Y-96299956D01*
X126973880Y-98568800D02*
X130440038Y-98568800D01*
X133308902Y-95699936D02*
X136425736Y-95699936D01*
X130440038Y-98568800D02*
X133308902Y-95699936D01*
X136425736Y-95699936D02*
X136850000Y-95699936D01*
D38*
X130959561Y-97306800D02*
X133191427Y-95074934D01*
X126957880Y-97306800D02*
X130959561Y-97306800D01*
X142591870Y-99210013D02*
X142891869Y-99510012D01*
X138581824Y-95199967D02*
X142591870Y-99210013D01*
X137150002Y-95074934D02*
X137275035Y-95199967D01*
X133191427Y-95074934D02*
X137150002Y-95074934D01*
X137275035Y-95199967D02*
X138581824Y-95199967D01*
X139849430Y-110000726D02*
X139849430Y-110424990D01*
X139849430Y-102574428D02*
X139849430Y-110000726D01*
X136250002Y-98975000D02*
X139849430Y-102574428D01*
X134000000Y-98975000D02*
X136250002Y-98975000D01*
X126973880Y-96028800D02*
X130528800Y-96028800D01*
X130528800Y-96028800D02*
X130600000Y-96100000D01*
X154788001Y-88974001D02*
X155638000Y-89824000D01*
X154273001Y-88459001D02*
X154788001Y-88974001D01*
X149130173Y-91575013D02*
X152246185Y-88459001D01*
X142303726Y-94749956D02*
X145478669Y-91575013D01*
X152246185Y-88459001D02*
X154273001Y-88459001D01*
X137461435Y-94749956D02*
X142303726Y-94749956D01*
X137336402Y-94624923D02*
X137461435Y-94749956D01*
X132842149Y-94787801D02*
X133005027Y-94624923D01*
X128207880Y-94766800D02*
X128228881Y-94787801D01*
X133005027Y-94624923D02*
X137336402Y-94624923D01*
X128228881Y-94787801D02*
X132842149Y-94787801D01*
X145478669Y-91575013D02*
X149130173Y-91575013D01*
X126957880Y-94766800D02*
X128207880Y-94766800D01*
X131545880Y-93262800D02*
X131545880Y-92012800D01*
X133458669Y-90100011D02*
X137499697Y-90100011D01*
X142499990Y-86088599D02*
X142499990Y-84339125D01*
X138313611Y-90274978D02*
X142499990Y-86088599D01*
X137499697Y-90100011D02*
X137674664Y-90274978D01*
X131545880Y-92012800D02*
X133458669Y-90100011D01*
X137674664Y-90274978D02*
X138313611Y-90274978D01*
X154462999Y-81829997D02*
X154462999Y-83568999D01*
X154462999Y-83568999D02*
X154788001Y-83894001D01*
X143125000Y-80825000D02*
X145350000Y-78600000D01*
X145350000Y-78600000D02*
X151233002Y-78600000D01*
X143125000Y-86147270D02*
X143125000Y-80825000D01*
X132815880Y-92012800D02*
X134253658Y-90575022D01*
X138547280Y-90724989D02*
X143125000Y-86147270D01*
X137488264Y-90724989D02*
X138547280Y-90724989D01*
X137338297Y-90575022D02*
X137488264Y-90724989D01*
X134253658Y-90575022D02*
X137338297Y-90575022D01*
X132815880Y-93262800D02*
X132815880Y-92012800D01*
X151233002Y-78600000D02*
X154462999Y-81829997D01*
X154788001Y-83894001D02*
X155638000Y-84744000D01*
X141874988Y-86077191D02*
X141874988Y-83175012D01*
X141874988Y-83175012D02*
X142150000Y-82900000D01*
X138127212Y-89824967D02*
X141874988Y-86077191D01*
X137861064Y-89824967D02*
X138127212Y-89824967D01*
X137411097Y-89375000D02*
X137861064Y-89824967D01*
X136075000Y-89375000D02*
X137411097Y-89375000D01*
X134085880Y-93262800D02*
X134085880Y-92012800D01*
X134085880Y-92012800D02*
X134873680Y-91225000D01*
X134873680Y-91225000D02*
X135525000Y-91225000D01*
X143699999Y-86208681D02*
X143699999Y-80886411D01*
X137895880Y-93262800D02*
X137895880Y-92012800D01*
X137895880Y-92012800D02*
X143699999Y-86208681D01*
X150018999Y-79124999D02*
X153098000Y-82204000D01*
X145461411Y-79124999D02*
X150018999Y-79124999D01*
X143699999Y-80886411D02*
X145461411Y-79124999D01*
X137895880Y-93262800D02*
X137895880Y-92302894D01*
X142075011Y-89124989D02*
X145424999Y-85775001D01*
X145424999Y-85775001D02*
X152066999Y-85775001D01*
X152066999Y-85775001D02*
X152248001Y-85593999D01*
X152248001Y-85593999D02*
X153098000Y-84744000D01*
X142053691Y-89124989D02*
X142075011Y-89124989D01*
X142053691Y-89124989D02*
X139165880Y-92012800D01*
X139165880Y-92012800D02*
X139165880Y-93262800D01*
X142825022Y-89623657D02*
X145773681Y-86674999D01*
X148724999Y-86674999D02*
X149500000Y-87450000D01*
X142825022Y-90172800D02*
X142825022Y-89623657D01*
X140435880Y-93262800D02*
X140435880Y-92561942D01*
X140435880Y-92561942D02*
X142825022Y-90172800D01*
X145773681Y-86674999D02*
X148724999Y-86674999D01*
X149500000Y-87450000D02*
X149650000Y-87450000D01*
X149650000Y-87450000D02*
X152932000Y-87450000D01*
X152932000Y-87450000D02*
X153098000Y-87284000D01*
X144668680Y-91050000D02*
X147742000Y-91050000D01*
X147742000Y-91050000D02*
X149438000Y-89354000D01*
X149438000Y-89354000D02*
X149588000Y-89354000D01*
X141705880Y-93262800D02*
X142455880Y-93262800D01*
X142455880Y-93262800D02*
X144668680Y-91050000D01*
D36*
X142725000Y-95250000D02*
X143208200Y-94766800D01*
X143208200Y-94766800D02*
X144991880Y-94766800D01*
X120575000Y-100500000D02*
X124450000Y-100500000D01*
X124450000Y-100500000D02*
X124575000Y-100625000D01*
D39*
X152440998Y-89824000D02*
X153098000Y-89824000D01*
X146236198Y-96028800D02*
X152440998Y-89824000D01*
X145007880Y-96028800D02*
X146236198Y-96028800D01*
D36*
X145007880Y-96028800D02*
X141374266Y-96028800D01*
X141374266Y-96028800D02*
X141033656Y-95688190D01*
X134100000Y-80250000D02*
X134100000Y-84995013D01*
X134100000Y-84995013D02*
X138075848Y-88970861D01*
X146900000Y-96475000D02*
X146068200Y-97306800D01*
X146068200Y-97306800D02*
X144991880Y-97306800D01*
D39*
X144991880Y-97306800D02*
X148155200Y-97306800D01*
X148155200Y-97306800D02*
X153098000Y-92364000D01*
D36*
X143591879Y-99984801D02*
X143591879Y-98584801D01*
X143375000Y-101025000D02*
X143375000Y-100201680D01*
X143375000Y-100201680D02*
X143591879Y-99984801D01*
X143591879Y-98584801D02*
X143607880Y-98568800D01*
X143607880Y-98568800D02*
X145007880Y-98568800D01*
X136398000Y-122936000D02*
X136398000Y-119898000D01*
X136398000Y-119898000D02*
X129750000Y-113250000D01*
D39*
X145007880Y-98568800D02*
X149433200Y-98568800D01*
X149433200Y-98568800D02*
X153098000Y-94904000D01*
X136398000Y-122936000D02*
X136398000Y-124138081D01*
X136398000Y-124138081D02*
X136695920Y-124436001D01*
X141775000Y-123300000D02*
X142725000Y-123300000D01*
X136695920Y-124436001D02*
X140638999Y-124436001D01*
X140638999Y-124436001D02*
X141775000Y-123300000D01*
X144991880Y-99846800D02*
X150695200Y-99846800D01*
X150695200Y-99846800D02*
X153098000Y-97444000D01*
X145007880Y-101108800D02*
X151973200Y-101108800D01*
X151973200Y-101108800D02*
X153098000Y-99984000D01*
X144991880Y-102386800D02*
X152960800Y-102386800D01*
X152960800Y-102386800D02*
X153098000Y-102524000D01*
X144991880Y-104926800D02*
X152960800Y-104926800D01*
X152960800Y-104926800D02*
X153098000Y-105064000D01*
D36*
X147117821Y-108728800D02*
X147278596Y-108568025D01*
X145007880Y-108728800D02*
X147117821Y-108728800D01*
D38*
X149300000Y-110175000D02*
X145184080Y-110175000D01*
X145184080Y-110175000D02*
X145007880Y-109998800D01*
D39*
X152952800Y-109998800D02*
X153098000Y-110144000D01*
X150825013Y-110411013D02*
X153098000Y-112684000D01*
X150825013Y-108350044D02*
X150825013Y-110411013D01*
X148663769Y-106188800D02*
X150825013Y-108350044D01*
X145007880Y-106188800D02*
X148663769Y-106188800D01*
X151875012Y-114001012D02*
X153098000Y-115224000D01*
X150125002Y-111398642D02*
X151875012Y-113148651D01*
X150125002Y-108639998D02*
X150125002Y-111398642D01*
X144991880Y-107466800D02*
X148951804Y-107466800D01*
X148951804Y-107466800D02*
X150125002Y-108639998D01*
X151875012Y-113148651D02*
X151875012Y-114001012D01*
D38*
X120480000Y-112930000D02*
X122580000Y-112930000D01*
X122580000Y-112930000D02*
X122830000Y-112680000D01*
X125375000Y-108500000D02*
X126717080Y-108500000D01*
X126717080Y-108500000D02*
X126973880Y-108756800D01*
X122830000Y-112680000D02*
X122830000Y-109945000D01*
X122830000Y-109945000D02*
X123450000Y-109325000D01*
X117525000Y-121902000D02*
X117525000Y-116270002D01*
X119780000Y-113580000D02*
X120430000Y-112930000D01*
X117525000Y-116270002D02*
X119780000Y-114015002D01*
X119780000Y-114015002D02*
X119780000Y-113580000D01*
X120430000Y-112930000D02*
X120480000Y-112930000D01*
X116418000Y-122959000D02*
X116468000Y-122959000D01*
X116468000Y-122959000D02*
X117525000Y-121902000D01*
D36*
X120480000Y-113087542D02*
X120480000Y-112930000D01*
D39*
X116418000Y-122959000D02*
X112318000Y-122959000D01*
D36*
X115271409Y-108399285D02*
X115271409Y-108125021D01*
X115302124Y-108430000D02*
X115271409Y-108399285D01*
X115330000Y-108430000D02*
X115302124Y-108430000D01*
X118375000Y-101350000D02*
X118272449Y-101452551D01*
X118375000Y-100500000D02*
X118375000Y-101350000D01*
D39*
X115284000Y-108384000D02*
X115330000Y-108430000D01*
X116260000Y-115200000D02*
X117160000Y-115200000D01*
X117160000Y-115200000D02*
X118480000Y-113880000D01*
X127650000Y-87250000D02*
X132775000Y-87250000D01*
X132775000Y-87250000D02*
X132925000Y-87100000D01*
X120723000Y-95379690D02*
X122770310Y-95379690D01*
X122770310Y-95379690D02*
X123825000Y-94325000D01*
D36*
X120423000Y-95679690D02*
X120723000Y-95379690D01*
X125573880Y-110026800D02*
X126973880Y-110026800D01*
X124674999Y-109127919D02*
X125573880Y-110026800D01*
X124674999Y-107574263D02*
X124674999Y-109127919D01*
X124575000Y-107474264D02*
X124674999Y-107574263D01*
X124575000Y-107050000D02*
X124575000Y-107474264D01*
D39*
X150475001Y-120450001D02*
X151829001Y-121804001D01*
X151829001Y-121804001D02*
X157008001Y-121804001D01*
X134572080Y-116125000D02*
X147306002Y-116125000D01*
X147306002Y-116125000D02*
X150475001Y-119293999D01*
X150475001Y-119293999D02*
X150475001Y-120450001D01*
D38*
X143978578Y-89354000D02*
X143712201Y-89620377D01*
X147388000Y-89354000D02*
X143978578Y-89354000D01*
D39*
X126973880Y-110026800D02*
X128473880Y-110026800D01*
X128473880Y-110026800D02*
X134572080Y-116125000D01*
X157138001Y-121674001D02*
X157138001Y-118061920D01*
X157008001Y-121804001D02*
X157138001Y-121674001D01*
X157138001Y-118061920D02*
X156840081Y-117764000D01*
X156840081Y-117764000D02*
X155638000Y-117764000D01*
D36*
X120423000Y-98329690D02*
X120423000Y-95679690D01*
X120423000Y-98329690D02*
X119574999Y-99177691D01*
X119574999Y-99177691D02*
X119574999Y-101324999D01*
X119574999Y-101324999D02*
X121950000Y-103700000D01*
D40*
G36*
X157958000Y-92109000D02*
X158012046Y-92380705D01*
X158165954Y-92611046D01*
X158396295Y-92764954D01*
X158668000Y-92819000D01*
X161039108Y-92819000D01*
X160268353Y-93138257D01*
X160047584Y-93508978D01*
X161743000Y-95204395D01*
X163438416Y-93508978D01*
X163217647Y-93138257D01*
X162429066Y-92819000D01*
X166739108Y-92819000D01*
X165968353Y-93138257D01*
X165747584Y-93508978D01*
X167443000Y-95204395D01*
X169138416Y-93508978D01*
X168917647Y-93138257D01*
X168129066Y-92819000D01*
X174958000Y-92819000D01*
X174958000Y-110999000D01*
X168750446Y-110999000D01*
X168917647Y-110929743D01*
X169138416Y-110559022D01*
X167443000Y-108863605D01*
X165747584Y-110559022D01*
X165968353Y-110929743D01*
X166139421Y-110999000D01*
X163050446Y-110999000D01*
X163217647Y-110929743D01*
X163438416Y-110559022D01*
X161743000Y-108863605D01*
X160047584Y-110559022D01*
X160268353Y-110929743D01*
X160439421Y-110999000D01*
X159418000Y-110999000D01*
X159146295Y-111053046D01*
X158915954Y-111206954D01*
X158762046Y-111437295D01*
X158708000Y-111709000D01*
X158708000Y-125499000D01*
X129492453Y-125499000D01*
X129584759Y-125276702D01*
X129585240Y-124725715D01*
X129374831Y-124216485D01*
X128985564Y-123826539D01*
X128476702Y-123615241D01*
X127925715Y-123614760D01*
X127416485Y-123825169D01*
X127376585Y-123865000D01*
X124300066Y-123865000D01*
X124873173Y-123292892D01*
X129876514Y-123292892D01*
X130122817Y-123817358D01*
X130551076Y-124207645D01*
X130961110Y-124377476D01*
X131191000Y-124256155D01*
X131191000Y-123063000D01*
X129997181Y-123063000D01*
X129876514Y-123292892D01*
X124873173Y-123292892D01*
X125154806Y-123011751D01*
X125334455Y-122579108D01*
X129876514Y-122579108D01*
X129997181Y-122809000D01*
X131191000Y-122809000D01*
X131191000Y-121615845D01*
X130961110Y-121494524D01*
X130551076Y-121664355D01*
X130122817Y-122054642D01*
X129876514Y-122579108D01*
X125334455Y-122579108D01*
X125709368Y-121676218D01*
X125709847Y-121127000D01*
X135563000Y-121127000D01*
X135563000Y-121713159D01*
X135347946Y-121856853D01*
X135128000Y-122186026D01*
X134908054Y-121856853D01*
X134426285Y-121534946D01*
X133858000Y-121421907D01*
X133289715Y-121534946D01*
X132807946Y-121856853D01*
X132580298Y-122197553D01*
X132513183Y-122054642D01*
X132084924Y-121664355D01*
X131674890Y-121494524D01*
X131445000Y-121615845D01*
X131445000Y-122809000D01*
X131465000Y-122809000D01*
X131465000Y-123063000D01*
X131445000Y-123063000D01*
X131445000Y-124256155D01*
X131674890Y-124377476D01*
X132084924Y-124207645D01*
X132513183Y-123817358D01*
X132580298Y-123674447D01*
X132807946Y-124015147D01*
X133289715Y-124337054D01*
X133858000Y-124450093D01*
X134426285Y-124337054D01*
X134908054Y-124015147D01*
X135128000Y-123685974D01*
X135347946Y-124015147D01*
X135513000Y-124125432D01*
X135513000Y-124138076D01*
X135512999Y-124138081D01*
X135552578Y-124337054D01*
X135580367Y-124476756D01*
X135652271Y-124584368D01*
X135772210Y-124763871D01*
X136070128Y-125061788D01*
X136070130Y-125061791D01*
X136261974Y-125189976D01*
X136357246Y-125253635D01*
X136695920Y-125321002D01*
X136695925Y-125321001D01*
X140638994Y-125321001D01*
X140638999Y-125321002D01*
X140921483Y-125264811D01*
X140977674Y-125253634D01*
X141264789Y-125061791D01*
X141908475Y-124418104D01*
X142023110Y-124496431D01*
X142275000Y-124547440D01*
X143175000Y-124547440D01*
X143410317Y-124503162D01*
X143626441Y-124364090D01*
X143771431Y-124151890D01*
X143822440Y-123900000D01*
X143822440Y-122717983D01*
X143941600Y-123006372D01*
X144963249Y-124029806D01*
X146298782Y-124584368D01*
X147744874Y-124585630D01*
X149081372Y-124033400D01*
X150104806Y-123011751D01*
X150597832Y-121824412D01*
X151203209Y-122429788D01*
X151203211Y-122429791D01*
X151396589Y-122559001D01*
X151490326Y-122621634D01*
X151829001Y-122689002D01*
X151829006Y-122689001D01*
X157007996Y-122689001D01*
X157008001Y-122689002D01*
X157290485Y-122632811D01*
X157346676Y-122621634D01*
X157633791Y-122429791D01*
X157633792Y-122429790D01*
X157763788Y-122299793D01*
X157763791Y-122299791D01*
X157955634Y-122012676D01*
X157971023Y-121935309D01*
X158023002Y-121674001D01*
X158023001Y-121673996D01*
X158023001Y-118061925D01*
X158023002Y-118061920D01*
X157955635Y-117723246D01*
X157891976Y-117627974D01*
X157763791Y-117436130D01*
X157763788Y-117436128D01*
X157465871Y-117138210D01*
X157303925Y-117030002D01*
X157178756Y-116946367D01*
X157122565Y-116935190D01*
X156840081Y-116878999D01*
X156840076Y-116879000D01*
X156827432Y-116879000D01*
X156717147Y-116713946D01*
X156387974Y-116494000D01*
X156717147Y-116274054D01*
X157039054Y-115792285D01*
X157152093Y-115224000D01*
X157039054Y-114655715D01*
X156717147Y-114173946D01*
X156387974Y-113954000D01*
X156717147Y-113734054D01*
X157039054Y-113252285D01*
X157152093Y-112684000D01*
X157039054Y-112115715D01*
X156717147Y-111633946D01*
X156387974Y-111414000D01*
X156717147Y-111194054D01*
X157039054Y-110712285D01*
X157152093Y-110144000D01*
X157039054Y-109575715D01*
X156717147Y-109093946D01*
X156387974Y-108874000D01*
X156717147Y-108654054D01*
X157033222Y-108181012D01*
X159103881Y-108181012D01*
X159112287Y-109229247D01*
X159497257Y-110158647D01*
X159867978Y-110379416D01*
X161563395Y-108684000D01*
X161922605Y-108684000D01*
X163618022Y-110379416D01*
X163988743Y-110158647D01*
X164382119Y-109186988D01*
X164374052Y-108181012D01*
X164803881Y-108181012D01*
X164812287Y-109229247D01*
X165197257Y-110158647D01*
X165567978Y-110379416D01*
X167263395Y-108684000D01*
X167622605Y-108684000D01*
X169318022Y-110379416D01*
X169688743Y-110158647D01*
X170082119Y-109186988D01*
X170073713Y-108138753D01*
X169688743Y-107209353D01*
X169318022Y-106988584D01*
X167622605Y-108684000D01*
X167263395Y-108684000D01*
X165567978Y-106988584D01*
X165197257Y-107209353D01*
X164803881Y-108181012D01*
X164374052Y-108181012D01*
X164373713Y-108138753D01*
X163988743Y-107209353D01*
X163618022Y-106988584D01*
X161922605Y-108684000D01*
X161563395Y-108684000D01*
X159867978Y-106988584D01*
X159497257Y-107209353D01*
X159103881Y-108181012D01*
X157033222Y-108181012D01*
X157039054Y-108172285D01*
X157152093Y-107604000D01*
X157039054Y-107035715D01*
X156887554Y-106808978D01*
X160047584Y-106808978D01*
X161743000Y-108504395D01*
X163438416Y-106808978D01*
X163257702Y-106505517D01*
X163951088Y-106505517D01*
X164019077Y-106746460D01*
X164538171Y-106931201D01*
X165088448Y-106903230D01*
X165315991Y-106808978D01*
X165747584Y-106808978D01*
X167443000Y-108504395D01*
X169138416Y-106808978D01*
X168917647Y-106438257D01*
X167945988Y-106044881D01*
X166897753Y-106053287D01*
X165968353Y-106438257D01*
X165747584Y-106808978D01*
X165315991Y-106808978D01*
X165466923Y-106746460D01*
X165534912Y-106505517D01*
X164743000Y-105713605D01*
X163951088Y-106505517D01*
X163257702Y-106505517D01*
X163223110Y-106447430D01*
X163229574Y-106440966D01*
X163114519Y-106325911D01*
X163355460Y-106257923D01*
X163436370Y-106030578D01*
X163530540Y-106257923D01*
X163771483Y-106325912D01*
X164563395Y-105534000D01*
X164922605Y-105534000D01*
X165714517Y-106325912D01*
X165955460Y-106257923D01*
X166140201Y-105738829D01*
X166112230Y-105188552D01*
X165955460Y-104810077D01*
X165714517Y-104742088D01*
X164922605Y-105534000D01*
X164563395Y-105534000D01*
X163771483Y-104742088D01*
X163530540Y-104810077D01*
X163449630Y-105037422D01*
X163355460Y-104810077D01*
X163114517Y-104742088D01*
X162322605Y-105534000D01*
X162336748Y-105548143D01*
X162157143Y-105727748D01*
X162143000Y-105713605D01*
X162128858Y-105727748D01*
X161949253Y-105548143D01*
X161963395Y-105534000D01*
X161171483Y-104742088D01*
X160930540Y-104810077D01*
X160745799Y-105329171D01*
X160773770Y-105879448D01*
X160897323Y-106177729D01*
X160268353Y-106438257D01*
X160047584Y-106808978D01*
X156887554Y-106808978D01*
X156717147Y-106553946D01*
X156387974Y-106334000D01*
X156717147Y-106114054D01*
X157039054Y-105632285D01*
X157152093Y-105064000D01*
X157039054Y-104495715D01*
X156717147Y-104013946D01*
X156387974Y-103794000D01*
X156717147Y-103574054D01*
X157039054Y-103092285D01*
X157152093Y-102524000D01*
X157039054Y-101955715D01*
X156717147Y-101473946D01*
X156387974Y-101254000D01*
X156717147Y-101034054D01*
X157039054Y-100552285D01*
X157152093Y-99984000D01*
X157039054Y-99415715D01*
X156717147Y-98933946D01*
X156387974Y-98714000D01*
X156717147Y-98494054D01*
X157039054Y-98012285D01*
X157152093Y-97444000D01*
X157115299Y-97259022D01*
X160047584Y-97259022D01*
X160268353Y-97629743D01*
X160910820Y-97889846D01*
X160758241Y-98257298D01*
X160757760Y-98808285D01*
X160968169Y-99317515D01*
X161357436Y-99707461D01*
X161541586Y-99783927D01*
X161359485Y-99859169D01*
X160969539Y-100248436D01*
X160758241Y-100757298D01*
X160757760Y-101308285D01*
X160968169Y-101817515D01*
X161184313Y-102034036D01*
X160969539Y-102248436D01*
X160758241Y-102757298D01*
X160757760Y-103308285D01*
X160968169Y-103817515D01*
X161357436Y-104207461D01*
X161525754Y-104277353D01*
X161419077Y-104321540D01*
X161351088Y-104562483D01*
X162143000Y-105354395D01*
X162934912Y-104562483D01*
X162866923Y-104321540D01*
X162752389Y-104280778D01*
X162926515Y-104208831D01*
X163316461Y-103819564D01*
X163443050Y-103514703D01*
X163568169Y-103817515D01*
X163957436Y-104207461D01*
X164125754Y-104277353D01*
X164019077Y-104321540D01*
X163951088Y-104562483D01*
X164743000Y-105354395D01*
X165534912Y-104562483D01*
X165466923Y-104321540D01*
X165352389Y-104280778D01*
X165526515Y-104208831D01*
X165916461Y-103819564D01*
X166127759Y-103310702D01*
X166128240Y-102759715D01*
X165917831Y-102250485D01*
X165701687Y-102033964D01*
X165916461Y-101819564D01*
X166127759Y-101310702D01*
X166128240Y-100759715D01*
X165917831Y-100250485D01*
X165528564Y-99860539D01*
X165344414Y-99784073D01*
X165526515Y-99708831D01*
X165916461Y-99319564D01*
X166127759Y-98810702D01*
X166128240Y-98259715D01*
X165917831Y-97750485D01*
X165528564Y-97360539D01*
X165284084Y-97259022D01*
X165747584Y-97259022D01*
X165968353Y-97629743D01*
X166940012Y-98023119D01*
X167988247Y-98014713D01*
X168917647Y-97629743D01*
X169138416Y-97259022D01*
X167443000Y-95563605D01*
X165747584Y-97259022D01*
X165284084Y-97259022D01*
X165019702Y-97149241D01*
X164468715Y-97148760D01*
X163959485Y-97359169D01*
X163569539Y-97748436D01*
X163442950Y-98053297D01*
X163317831Y-97750485D01*
X163203252Y-97635706D01*
X163217647Y-97629743D01*
X163438416Y-97259022D01*
X161743000Y-95563605D01*
X160047584Y-97259022D01*
X157115299Y-97259022D01*
X157039054Y-96875715D01*
X156717147Y-96393946D01*
X156387974Y-96174000D01*
X156717147Y-95954054D01*
X157039054Y-95472285D01*
X157152093Y-94904000D01*
X157147521Y-94881012D01*
X159103881Y-94881012D01*
X159112287Y-95929247D01*
X159497257Y-96858647D01*
X159867978Y-97079416D01*
X161563395Y-95384000D01*
X161922605Y-95384000D01*
X163618022Y-97079416D01*
X163988743Y-96858647D01*
X164382119Y-95886988D01*
X164374052Y-94881012D01*
X164803881Y-94881012D01*
X164812287Y-95929247D01*
X165197257Y-96858647D01*
X165567978Y-97079416D01*
X167263395Y-95384000D01*
X167622605Y-95384000D01*
X169318022Y-97079416D01*
X169688743Y-96858647D01*
X170082119Y-95886988D01*
X170073713Y-94838753D01*
X169688743Y-93909353D01*
X169318022Y-93688584D01*
X167622605Y-95384000D01*
X167263395Y-95384000D01*
X165567978Y-93688584D01*
X165197257Y-93909353D01*
X164803881Y-94881012D01*
X164374052Y-94881012D01*
X164373713Y-94838753D01*
X163988743Y-93909353D01*
X163618022Y-93688584D01*
X161922605Y-95384000D01*
X161563395Y-95384000D01*
X159867978Y-93688584D01*
X159497257Y-93909353D01*
X159103881Y-94881012D01*
X157147521Y-94881012D01*
X157039054Y-94335715D01*
X156717147Y-93853946D01*
X156387974Y-93634000D01*
X156717147Y-93414054D01*
X157039054Y-92932285D01*
X157152093Y-92364000D01*
X157039054Y-91795715D01*
X156717147Y-91313946D01*
X156387974Y-91094000D01*
X156717147Y-90874054D01*
X157039054Y-90392285D01*
X157152093Y-89824000D01*
X157039054Y-89255715D01*
X156717147Y-88773946D01*
X156387974Y-88554000D01*
X156717147Y-88334054D01*
X157039054Y-87852285D01*
X157152093Y-87284000D01*
X157039054Y-86715715D01*
X156717147Y-86233946D01*
X156387974Y-86014000D01*
X156717147Y-85794054D01*
X157039054Y-85312285D01*
X157152093Y-84744000D01*
X157039054Y-84175715D01*
X156717147Y-83693946D01*
X156387974Y-83474000D01*
X156717147Y-83254054D01*
X157039054Y-82772285D01*
X157152093Y-82204000D01*
X157039054Y-81635715D01*
X156717147Y-81153946D01*
X156235378Y-80832039D01*
X155667093Y-80719000D01*
X155608907Y-80719000D01*
X155040622Y-80832039D01*
X154740427Y-81032623D01*
X152026804Y-78319000D01*
X157958000Y-78319000D01*
X157958000Y-92109000D01*
X157958000Y-92109000D01*
G37*
X157958000Y-92109000D02*
X158012046Y-92380705D01*
X158165954Y-92611046D01*
X158396295Y-92764954D01*
X158668000Y-92819000D01*
X161039108Y-92819000D01*
X160268353Y-93138257D01*
X160047584Y-93508978D01*
X161743000Y-95204395D01*
X163438416Y-93508978D01*
X163217647Y-93138257D01*
X162429066Y-92819000D01*
X166739108Y-92819000D01*
X165968353Y-93138257D01*
X165747584Y-93508978D01*
X167443000Y-95204395D01*
X169138416Y-93508978D01*
X168917647Y-93138257D01*
X168129066Y-92819000D01*
X174958000Y-92819000D01*
X174958000Y-110999000D01*
X168750446Y-110999000D01*
X168917647Y-110929743D01*
X169138416Y-110559022D01*
X167443000Y-108863605D01*
X165747584Y-110559022D01*
X165968353Y-110929743D01*
X166139421Y-110999000D01*
X163050446Y-110999000D01*
X163217647Y-110929743D01*
X163438416Y-110559022D01*
X161743000Y-108863605D01*
X160047584Y-110559022D01*
X160268353Y-110929743D01*
X160439421Y-110999000D01*
X159418000Y-110999000D01*
X159146295Y-111053046D01*
X158915954Y-111206954D01*
X158762046Y-111437295D01*
X158708000Y-111709000D01*
X158708000Y-125499000D01*
X129492453Y-125499000D01*
X129584759Y-125276702D01*
X129585240Y-124725715D01*
X129374831Y-124216485D01*
X128985564Y-123826539D01*
X128476702Y-123615241D01*
X127925715Y-123614760D01*
X127416485Y-123825169D01*
X127376585Y-123865000D01*
X124300066Y-123865000D01*
X124873173Y-123292892D01*
X129876514Y-123292892D01*
X130122817Y-123817358D01*
X130551076Y-124207645D01*
X130961110Y-124377476D01*
X131191000Y-124256155D01*
X131191000Y-123063000D01*
X129997181Y-123063000D01*
X129876514Y-123292892D01*
X124873173Y-123292892D01*
X125154806Y-123011751D01*
X125334455Y-122579108D01*
X129876514Y-122579108D01*
X129997181Y-122809000D01*
X131191000Y-122809000D01*
X131191000Y-121615845D01*
X130961110Y-121494524D01*
X130551076Y-121664355D01*
X130122817Y-122054642D01*
X129876514Y-122579108D01*
X125334455Y-122579108D01*
X125709368Y-121676218D01*
X125709847Y-121127000D01*
X135563000Y-121127000D01*
X135563000Y-121713159D01*
X135347946Y-121856853D01*
X135128000Y-122186026D01*
X134908054Y-121856853D01*
X134426285Y-121534946D01*
X133858000Y-121421907D01*
X133289715Y-121534946D01*
X132807946Y-121856853D01*
X132580298Y-122197553D01*
X132513183Y-122054642D01*
X132084924Y-121664355D01*
X131674890Y-121494524D01*
X131445000Y-121615845D01*
X131445000Y-122809000D01*
X131465000Y-122809000D01*
X131465000Y-123063000D01*
X131445000Y-123063000D01*
X131445000Y-124256155D01*
X131674890Y-124377476D01*
X132084924Y-124207645D01*
X132513183Y-123817358D01*
X132580298Y-123674447D01*
X132807946Y-124015147D01*
X133289715Y-124337054D01*
X133858000Y-124450093D01*
X134426285Y-124337054D01*
X134908054Y-124015147D01*
X135128000Y-123685974D01*
X135347946Y-124015147D01*
X135513000Y-124125432D01*
X135513000Y-124138076D01*
X135512999Y-124138081D01*
X135552578Y-124337054D01*
X135580367Y-124476756D01*
X135652271Y-124584368D01*
X135772210Y-124763871D01*
X136070128Y-125061788D01*
X136070130Y-125061791D01*
X136261974Y-125189976D01*
X136357246Y-125253635D01*
X136695920Y-125321002D01*
X136695925Y-125321001D01*
X140638994Y-125321001D01*
X140638999Y-125321002D01*
X140921483Y-125264811D01*
X140977674Y-125253634D01*
X141264789Y-125061791D01*
X141908475Y-124418104D01*
X142023110Y-124496431D01*
X142275000Y-124547440D01*
X143175000Y-124547440D01*
X143410317Y-124503162D01*
X143626441Y-124364090D01*
X143771431Y-124151890D01*
X143822440Y-123900000D01*
X143822440Y-122717983D01*
X143941600Y-123006372D01*
X144963249Y-124029806D01*
X146298782Y-124584368D01*
X147744874Y-124585630D01*
X149081372Y-124033400D01*
X150104806Y-123011751D01*
X150597832Y-121824412D01*
X151203209Y-122429788D01*
X151203211Y-122429791D01*
X151396589Y-122559001D01*
X151490326Y-122621634D01*
X151829001Y-122689002D01*
X151829006Y-122689001D01*
X157007996Y-122689001D01*
X157008001Y-122689002D01*
X157290485Y-122632811D01*
X157346676Y-122621634D01*
X157633791Y-122429791D01*
X157633792Y-122429790D01*
X157763788Y-122299793D01*
X157763791Y-122299791D01*
X157955634Y-122012676D01*
X157971023Y-121935309D01*
X158023002Y-121674001D01*
X158023001Y-121673996D01*
X158023001Y-118061925D01*
X158023002Y-118061920D01*
X157955635Y-117723246D01*
X157891976Y-117627974D01*
X157763791Y-117436130D01*
X157763788Y-117436128D01*
X157465871Y-117138210D01*
X157303925Y-117030002D01*
X157178756Y-116946367D01*
X157122565Y-116935190D01*
X156840081Y-116878999D01*
X156840076Y-116879000D01*
X156827432Y-116879000D01*
X156717147Y-116713946D01*
X156387974Y-116494000D01*
X156717147Y-116274054D01*
X157039054Y-115792285D01*
X157152093Y-115224000D01*
X157039054Y-114655715D01*
X156717147Y-114173946D01*
X156387974Y-113954000D01*
X156717147Y-113734054D01*
X157039054Y-113252285D01*
X157152093Y-112684000D01*
X157039054Y-112115715D01*
X156717147Y-111633946D01*
X156387974Y-111414000D01*
X156717147Y-111194054D01*
X157039054Y-110712285D01*
X157152093Y-110144000D01*
X157039054Y-109575715D01*
X156717147Y-109093946D01*
X156387974Y-108874000D01*
X156717147Y-108654054D01*
X157033222Y-108181012D01*
X159103881Y-108181012D01*
X159112287Y-109229247D01*
X159497257Y-110158647D01*
X159867978Y-110379416D01*
X161563395Y-108684000D01*
X161922605Y-108684000D01*
X163618022Y-110379416D01*
X163988743Y-110158647D01*
X164382119Y-109186988D01*
X164374052Y-108181012D01*
X164803881Y-108181012D01*
X164812287Y-109229247D01*
X165197257Y-110158647D01*
X165567978Y-110379416D01*
X167263395Y-108684000D01*
X167622605Y-108684000D01*
X169318022Y-110379416D01*
X169688743Y-110158647D01*
X170082119Y-109186988D01*
X170073713Y-108138753D01*
X169688743Y-107209353D01*
X169318022Y-106988584D01*
X167622605Y-108684000D01*
X167263395Y-108684000D01*
X165567978Y-106988584D01*
X165197257Y-107209353D01*
X164803881Y-108181012D01*
X164374052Y-108181012D01*
X164373713Y-108138753D01*
X163988743Y-107209353D01*
X163618022Y-106988584D01*
X161922605Y-108684000D01*
X161563395Y-108684000D01*
X159867978Y-106988584D01*
X159497257Y-107209353D01*
X159103881Y-108181012D01*
X157033222Y-108181012D01*
X157039054Y-108172285D01*
X157152093Y-107604000D01*
X157039054Y-107035715D01*
X156887554Y-106808978D01*
X160047584Y-106808978D01*
X161743000Y-108504395D01*
X163438416Y-106808978D01*
X163257702Y-106505517D01*
X163951088Y-106505517D01*
X164019077Y-106746460D01*
X164538171Y-106931201D01*
X165088448Y-106903230D01*
X165315991Y-106808978D01*
X165747584Y-106808978D01*
X167443000Y-108504395D01*
X169138416Y-106808978D01*
X168917647Y-106438257D01*
X167945988Y-106044881D01*
X166897753Y-106053287D01*
X165968353Y-106438257D01*
X165747584Y-106808978D01*
X165315991Y-106808978D01*
X165466923Y-106746460D01*
X165534912Y-106505517D01*
X164743000Y-105713605D01*
X163951088Y-106505517D01*
X163257702Y-106505517D01*
X163223110Y-106447430D01*
X163229574Y-106440966D01*
X163114519Y-106325911D01*
X163355460Y-106257923D01*
X163436370Y-106030578D01*
X163530540Y-106257923D01*
X163771483Y-106325912D01*
X164563395Y-105534000D01*
X164922605Y-105534000D01*
X165714517Y-106325912D01*
X165955460Y-106257923D01*
X166140201Y-105738829D01*
X166112230Y-105188552D01*
X165955460Y-104810077D01*
X165714517Y-104742088D01*
X164922605Y-105534000D01*
X164563395Y-105534000D01*
X163771483Y-104742088D01*
X163530540Y-104810077D01*
X163449630Y-105037422D01*
X163355460Y-104810077D01*
X163114517Y-104742088D01*
X162322605Y-105534000D01*
X162336748Y-105548143D01*
X162157143Y-105727748D01*
X162143000Y-105713605D01*
X162128858Y-105727748D01*
X161949253Y-105548143D01*
X161963395Y-105534000D01*
X161171483Y-104742088D01*
X160930540Y-104810077D01*
X160745799Y-105329171D01*
X160773770Y-105879448D01*
X160897323Y-106177729D01*
X160268353Y-106438257D01*
X160047584Y-106808978D01*
X156887554Y-106808978D01*
X156717147Y-106553946D01*
X156387974Y-106334000D01*
X156717147Y-106114054D01*
X157039054Y-105632285D01*
X157152093Y-105064000D01*
X157039054Y-104495715D01*
X156717147Y-104013946D01*
X156387974Y-103794000D01*
X156717147Y-103574054D01*
X157039054Y-103092285D01*
X157152093Y-102524000D01*
X157039054Y-101955715D01*
X156717147Y-101473946D01*
X156387974Y-101254000D01*
X156717147Y-101034054D01*
X157039054Y-100552285D01*
X157152093Y-99984000D01*
X157039054Y-99415715D01*
X156717147Y-98933946D01*
X156387974Y-98714000D01*
X156717147Y-98494054D01*
X157039054Y-98012285D01*
X157152093Y-97444000D01*
X157115299Y-97259022D01*
X160047584Y-97259022D01*
X160268353Y-97629743D01*
X160910820Y-97889846D01*
X160758241Y-98257298D01*
X160757760Y-98808285D01*
X160968169Y-99317515D01*
X161357436Y-99707461D01*
X161541586Y-99783927D01*
X161359485Y-99859169D01*
X160969539Y-100248436D01*
X160758241Y-100757298D01*
X160757760Y-101308285D01*
X160968169Y-101817515D01*
X161184313Y-102034036D01*
X160969539Y-102248436D01*
X160758241Y-102757298D01*
X160757760Y-103308285D01*
X160968169Y-103817515D01*
X161357436Y-104207461D01*
X161525754Y-104277353D01*
X161419077Y-104321540D01*
X161351088Y-104562483D01*
X162143000Y-105354395D01*
X162934912Y-104562483D01*
X162866923Y-104321540D01*
X162752389Y-104280778D01*
X162926515Y-104208831D01*
X163316461Y-103819564D01*
X163443050Y-103514703D01*
X163568169Y-103817515D01*
X163957436Y-104207461D01*
X164125754Y-104277353D01*
X164019077Y-104321540D01*
X163951088Y-104562483D01*
X164743000Y-105354395D01*
X165534912Y-104562483D01*
X165466923Y-104321540D01*
X165352389Y-104280778D01*
X165526515Y-104208831D01*
X165916461Y-103819564D01*
X166127759Y-103310702D01*
X166128240Y-102759715D01*
X165917831Y-102250485D01*
X165701687Y-102033964D01*
X165916461Y-101819564D01*
X166127759Y-101310702D01*
X166128240Y-100759715D01*
X165917831Y-100250485D01*
X165528564Y-99860539D01*
X165344414Y-99784073D01*
X165526515Y-99708831D01*
X165916461Y-99319564D01*
X166127759Y-98810702D01*
X166128240Y-98259715D01*
X165917831Y-97750485D01*
X165528564Y-97360539D01*
X165284084Y-97259022D01*
X165747584Y-97259022D01*
X165968353Y-97629743D01*
X166940012Y-98023119D01*
X167988247Y-98014713D01*
X168917647Y-97629743D01*
X169138416Y-97259022D01*
X167443000Y-95563605D01*
X165747584Y-97259022D01*
X165284084Y-97259022D01*
X165019702Y-97149241D01*
X164468715Y-97148760D01*
X163959485Y-97359169D01*
X163569539Y-97748436D01*
X163442950Y-98053297D01*
X163317831Y-97750485D01*
X163203252Y-97635706D01*
X163217647Y-97629743D01*
X163438416Y-97259022D01*
X161743000Y-95563605D01*
X160047584Y-97259022D01*
X157115299Y-97259022D01*
X157039054Y-96875715D01*
X156717147Y-96393946D01*
X156387974Y-96174000D01*
X156717147Y-95954054D01*
X157039054Y-95472285D01*
X157152093Y-94904000D01*
X157147521Y-94881012D01*
X159103881Y-94881012D01*
X159112287Y-95929247D01*
X159497257Y-96858647D01*
X159867978Y-97079416D01*
X161563395Y-95384000D01*
X161922605Y-95384000D01*
X163618022Y-97079416D01*
X163988743Y-96858647D01*
X164382119Y-95886988D01*
X164374052Y-94881012D01*
X164803881Y-94881012D01*
X164812287Y-95929247D01*
X165197257Y-96858647D01*
X165567978Y-97079416D01*
X167263395Y-95384000D01*
X167622605Y-95384000D01*
X169318022Y-97079416D01*
X169688743Y-96858647D01*
X170082119Y-95886988D01*
X170073713Y-94838753D01*
X169688743Y-93909353D01*
X169318022Y-93688584D01*
X167622605Y-95384000D01*
X167263395Y-95384000D01*
X165567978Y-93688584D01*
X165197257Y-93909353D01*
X164803881Y-94881012D01*
X164374052Y-94881012D01*
X164373713Y-94838753D01*
X163988743Y-93909353D01*
X163618022Y-93688584D01*
X161922605Y-95384000D01*
X161563395Y-95384000D01*
X159867978Y-93688584D01*
X159497257Y-93909353D01*
X159103881Y-94881012D01*
X157147521Y-94881012D01*
X157039054Y-94335715D01*
X156717147Y-93853946D01*
X156387974Y-93634000D01*
X156717147Y-93414054D01*
X157039054Y-92932285D01*
X157152093Y-92364000D01*
X157039054Y-91795715D01*
X156717147Y-91313946D01*
X156387974Y-91094000D01*
X156717147Y-90874054D01*
X157039054Y-90392285D01*
X157152093Y-89824000D01*
X157039054Y-89255715D01*
X156717147Y-88773946D01*
X156387974Y-88554000D01*
X156717147Y-88334054D01*
X157039054Y-87852285D01*
X157152093Y-87284000D01*
X157039054Y-86715715D01*
X156717147Y-86233946D01*
X156387974Y-86014000D01*
X156717147Y-85794054D01*
X157039054Y-85312285D01*
X157152093Y-84744000D01*
X157039054Y-84175715D01*
X156717147Y-83693946D01*
X156387974Y-83474000D01*
X156717147Y-83254054D01*
X157039054Y-82772285D01*
X157152093Y-82204000D01*
X157039054Y-81635715D01*
X156717147Y-81153946D01*
X156235378Y-80832039D01*
X155667093Y-80719000D01*
X155608907Y-80719000D01*
X155040622Y-80832039D01*
X154740427Y-81032623D01*
X152026804Y-78319000D01*
X157958000Y-78319000D01*
X157958000Y-92109000D01*
G36*
X142587599Y-80287599D02*
X142422852Y-80534161D01*
X142365000Y-80825000D01*
X142365000Y-81976872D01*
X142336799Y-81965162D01*
X141964833Y-81964838D01*
X141621057Y-82106883D01*
X141357808Y-82369673D01*
X141215162Y-82713201D01*
X141215068Y-82820974D01*
X141172840Y-82884173D01*
X141114988Y-83175012D01*
X141114988Y-83835877D01*
X141112215Y-83829167D01*
X141063068Y-83582088D01*
X140882063Y-83311195D01*
X138079368Y-80508500D01*
X138125000Y-80279093D01*
X138125000Y-80220907D01*
X138011961Y-79652622D01*
X137690054Y-79170853D01*
X137208285Y-78848946D01*
X136640000Y-78735907D01*
X136071715Y-78848946D01*
X135589946Y-79170853D01*
X135370000Y-79500026D01*
X135150054Y-79170853D01*
X134668285Y-78848946D01*
X134100000Y-78735907D01*
X133531715Y-78848946D01*
X133049946Y-79170853D01*
X133020597Y-79214777D01*
X132948327Y-79040302D01*
X132769699Y-78861673D01*
X132536310Y-78765000D01*
X131845750Y-78765000D01*
X131687000Y-78923750D01*
X131687000Y-80123000D01*
X131707000Y-80123000D01*
X131707000Y-80377000D01*
X131687000Y-80377000D01*
X131687000Y-81576250D01*
X131845750Y-81735000D01*
X132536310Y-81735000D01*
X132769699Y-81638327D01*
X132948327Y-81459698D01*
X133020597Y-81285223D01*
X133049946Y-81329147D01*
X133265000Y-81472841D01*
X133265000Y-84995013D01*
X133328561Y-85314554D01*
X133479059Y-85539790D01*
X133509566Y-85585447D01*
X136437053Y-88512934D01*
X136261799Y-88440162D01*
X135889833Y-88439838D01*
X135546057Y-88581883D01*
X135282808Y-88844673D01*
X135140162Y-89188201D01*
X135140030Y-89340011D01*
X133458669Y-89340011D01*
X133167830Y-89397863D01*
X132921268Y-89562610D01*
X131008479Y-91475399D01*
X130905682Y-91629247D01*
X130902189Y-91627800D01*
X130561630Y-91627800D01*
X130402880Y-91786550D01*
X130402880Y-92240875D01*
X130398440Y-92262800D01*
X130398440Y-93409800D01*
X130148880Y-93409800D01*
X130148880Y-93389800D01*
X129299630Y-93389800D01*
X129140880Y-93548550D01*
X129140880Y-94027801D01*
X128558673Y-94027801D01*
X128421970Y-93815359D01*
X128209770Y-93670369D01*
X127957880Y-93619360D01*
X126201014Y-93619360D01*
X126296442Y-93476542D01*
X126360002Y-93157002D01*
X126360002Y-92136490D01*
X129140880Y-92136490D01*
X129140880Y-92977050D01*
X129299630Y-93135800D01*
X130148880Y-93135800D01*
X130148880Y-91786550D01*
X129990130Y-91627800D01*
X129649571Y-91627800D01*
X129416182Y-91724473D01*
X129237553Y-91903101D01*
X129140880Y-92136490D01*
X126360002Y-92136490D01*
X126360002Y-92017998D01*
X126296441Y-91698457D01*
X126115436Y-91427564D01*
X122123039Y-87435167D01*
X126714838Y-87435167D01*
X126856883Y-87778943D01*
X127119673Y-88042192D01*
X127463201Y-88184838D01*
X127835167Y-88185162D01*
X127956569Y-88135000D01*
X132774995Y-88135000D01*
X132775000Y-88135001D01*
X133057484Y-88078810D01*
X133113675Y-88067633D01*
X133246705Y-87978746D01*
X133453943Y-87893117D01*
X133717192Y-87630327D01*
X133859838Y-87286799D01*
X133860162Y-86914833D01*
X133718117Y-86571057D01*
X133455327Y-86307808D01*
X133111799Y-86165162D01*
X132739833Y-86164838D01*
X132396057Y-86306883D01*
X132337838Y-86365000D01*
X127956822Y-86365000D01*
X127836799Y-86315162D01*
X127464833Y-86314838D01*
X127121057Y-86456883D01*
X126857808Y-86719673D01*
X126715162Y-87063201D01*
X126714838Y-87435167D01*
X122123039Y-87435167D01*
X120975438Y-86287566D01*
X120887788Y-86229000D01*
X120704545Y-86106561D01*
X120385004Y-86043000D01*
X118367234Y-86043000D01*
X118126799Y-85943162D01*
X117754833Y-85942838D01*
X117411057Y-86084883D01*
X117284882Y-86210838D01*
X117285240Y-85800715D01*
X117074831Y-85291485D01*
X116685564Y-84901539D01*
X116176702Y-84690241D01*
X115625715Y-84689760D01*
X115116485Y-84900169D01*
X115026497Y-84990000D01*
X113817585Y-84990000D01*
X113456777Y-84840180D01*
X113045029Y-84839821D01*
X112664485Y-84997058D01*
X112373081Y-85287954D01*
X112215180Y-85668223D01*
X112214821Y-86079971D01*
X112372058Y-86460515D01*
X112662954Y-86751919D01*
X113043223Y-86909820D01*
X113454971Y-86910179D01*
X113818433Y-86760000D01*
X114488000Y-86760000D01*
X114488000Y-92419690D01*
X114064797Y-92419690D01*
X113974890Y-92358259D01*
X113723000Y-92307250D01*
X113305035Y-92307250D01*
X113218309Y-92289999D01*
X113131583Y-92307250D01*
X112973000Y-92307250D01*
X112737683Y-92351528D01*
X112631756Y-92419690D01*
X112348958Y-92419690D01*
X112310564Y-92381229D01*
X111801702Y-92169931D01*
X111250715Y-92169450D01*
X110741485Y-92379859D01*
X110351539Y-92769126D01*
X110140241Y-93277988D01*
X110139760Y-93828975D01*
X110350169Y-94338205D01*
X110739436Y-94728151D01*
X111248298Y-94939449D01*
X111799285Y-94939930D01*
X112308515Y-94729521D01*
X112348415Y-94689690D01*
X112354026Y-94689690D01*
X112338000Y-94728381D01*
X112338000Y-95168940D01*
X112496750Y-95327690D01*
X113221000Y-95327690D01*
X113221000Y-95307690D01*
X113475000Y-95307690D01*
X113475000Y-95327690D01*
X113495000Y-95327690D01*
X113495000Y-95581690D01*
X113475000Y-95581690D01*
X113475000Y-96530940D01*
X113633750Y-96689690D01*
X113743966Y-96689690D01*
X113801560Y-96979232D01*
X113929953Y-97171385D01*
X113982565Y-97250125D01*
X114102565Y-97370125D01*
X114373459Y-97551131D01*
X114692999Y-97614691D01*
X117376513Y-97614691D01*
X117288000Y-97828380D01*
X117288000Y-98043940D01*
X117446750Y-98202690D01*
X118396000Y-98202690D01*
X118396000Y-97478440D01*
X118348066Y-97430506D01*
X118438433Y-97370125D01*
X119113434Y-96695124D01*
X119294440Y-96424230D01*
X119321885Y-96286251D01*
X119504441Y-96168780D01*
X119588000Y-96046487D01*
X119588000Y-97351468D01*
X119587683Y-97351528D01*
X119484354Y-97418019D01*
X119482698Y-97416363D01*
X119249309Y-97319690D01*
X118808750Y-97319690D01*
X118650000Y-97478440D01*
X118650000Y-98202690D01*
X118670000Y-98202690D01*
X118670000Y-98456690D01*
X118650000Y-98456690D01*
X118650000Y-99180940D01*
X118739999Y-99270939D01*
X118739999Y-99402560D01*
X117775000Y-99402560D01*
X117539683Y-99446838D01*
X117323559Y-99585910D01*
X117178569Y-99798110D01*
X117127560Y-100050000D01*
X117127560Y-100950000D01*
X117171838Y-101185317D01*
X117310910Y-101401441D01*
X117337477Y-101419593D01*
X117337287Y-101637718D01*
X117479332Y-101981494D01*
X117651537Y-102154000D01*
X105135264Y-102154000D01*
X104844425Y-102211852D01*
X104597863Y-102376599D01*
X104380693Y-102593769D01*
X104311799Y-102565162D01*
X103939833Y-102564838D01*
X103596057Y-102706883D01*
X103332808Y-102969673D01*
X103246646Y-103177174D01*
X102369401Y-102299929D01*
X102534759Y-101901702D01*
X102535240Y-101350715D01*
X102324831Y-100841485D01*
X101935564Y-100451539D01*
X101426702Y-100240241D01*
X100875715Y-100239760D01*
X100366485Y-100450169D01*
X99976539Y-100839436D01*
X99765241Y-101348298D01*
X99764760Y-101899285D01*
X99975169Y-102408515D01*
X100015000Y-102448415D01*
X100015000Y-102685660D01*
X100101397Y-103120006D01*
X100302967Y-103421677D01*
X100332997Y-103466620D01*
X100296057Y-103481883D01*
X100237839Y-103539999D01*
X98582721Y-103539999D01*
X99020726Y-103102758D01*
X99384585Y-102226487D01*
X99385413Y-101277675D01*
X99023084Y-100400771D01*
X98352758Y-99729274D01*
X97476487Y-99365415D01*
X96527675Y-99364587D01*
X95650771Y-99726916D01*
X94979274Y-100397242D01*
X94615415Y-101273513D01*
X94614587Y-102222325D01*
X94962750Y-103064945D01*
X94839833Y-103064838D01*
X94496057Y-103206883D01*
X94232808Y-103469673D01*
X94090162Y-103813201D01*
X94089838Y-104185167D01*
X94231883Y-104528943D01*
X94494673Y-104792192D01*
X94838201Y-104934838D01*
X94933549Y-104934921D01*
X95034160Y-105002147D01*
X95324999Y-105059999D01*
X100287493Y-105059999D01*
X100294673Y-105067192D01*
X100638201Y-105209838D01*
X101010167Y-105210162D01*
X101353943Y-105068117D01*
X101617192Y-104805327D01*
X101631083Y-104771875D01*
X102361775Y-105502567D01*
X102729995Y-105748604D01*
X103164341Y-105835001D01*
X104531038Y-105835001D01*
X107073658Y-108377621D01*
X107073611Y-108431967D01*
X107284020Y-108941197D01*
X107323851Y-108981097D01*
X107323851Y-109218342D01*
X107410248Y-109652688D01*
X107575068Y-109899358D01*
X107656285Y-110020908D01*
X108765000Y-111129624D01*
X108765000Y-122960319D01*
X108740000Y-123086002D01*
X108826397Y-123520347D01*
X109072434Y-123888568D01*
X110682866Y-125499000D01*
X108428000Y-125499000D01*
X108428000Y-111709000D01*
X108373954Y-111437295D01*
X108220046Y-111206954D01*
X107989705Y-111053046D01*
X107718000Y-110999000D01*
X93928000Y-110999000D01*
X93928000Y-98615440D01*
X117288000Y-98615440D01*
X117288000Y-98831000D01*
X117384673Y-99064389D01*
X117563302Y-99243017D01*
X117796691Y-99339690D01*
X118237250Y-99339690D01*
X118396000Y-99180940D01*
X118396000Y-98456690D01*
X117446750Y-98456690D01*
X117288000Y-98615440D01*
X93928000Y-98615440D01*
X93928000Y-95035750D01*
X94615000Y-95035750D01*
X94615000Y-96626310D01*
X94711673Y-96859699D01*
X94890302Y-97038327D01*
X95123691Y-97135000D01*
X96714250Y-97135000D01*
X96873000Y-96976250D01*
X96873000Y-94877000D01*
X97127000Y-94877000D01*
X97127000Y-96976250D01*
X97285750Y-97135000D01*
X98876309Y-97135000D01*
X99109698Y-97038327D01*
X99288327Y-96859699D01*
X99385000Y-96626310D01*
X99385000Y-95740440D01*
X112338000Y-95740440D01*
X112338000Y-96180999D01*
X112434673Y-96414388D01*
X112613301Y-96593017D01*
X112846690Y-96689690D01*
X113062250Y-96689690D01*
X113221000Y-96530940D01*
X113221000Y-95581690D01*
X112496750Y-95581690D01*
X112338000Y-95740440D01*
X99385000Y-95740440D01*
X99385000Y-95035750D01*
X99226250Y-94877000D01*
X97127000Y-94877000D01*
X96873000Y-94877000D01*
X94773750Y-94877000D01*
X94615000Y-95035750D01*
X93928000Y-95035750D01*
X93928000Y-92819000D01*
X94637653Y-92819000D01*
X94615000Y-92873690D01*
X94615000Y-94464250D01*
X94773750Y-94623000D01*
X96873000Y-94623000D01*
X96873000Y-94603000D01*
X97127000Y-94603000D01*
X97127000Y-94623000D01*
X99226250Y-94623000D01*
X99385000Y-94464250D01*
X99385000Y-92873690D01*
X99362347Y-92819000D01*
X107718000Y-92819000D01*
X107989705Y-92764954D01*
X108220046Y-92611046D01*
X108373954Y-92380705D01*
X108428000Y-92109000D01*
X108428000Y-82824401D01*
X108579841Y-82875554D01*
X109480395Y-81975000D01*
X108579841Y-81074446D01*
X108428000Y-81125599D01*
X108428000Y-80894841D01*
X108759446Y-80894841D01*
X109660000Y-81795395D01*
X109674143Y-81781253D01*
X109853748Y-81960858D01*
X109839605Y-81975000D01*
X109853748Y-81989143D01*
X109674143Y-82168748D01*
X109660000Y-82154605D01*
X108759446Y-83055159D01*
X108845852Y-83311643D01*
X109419336Y-83521458D01*
X110029460Y-83495839D01*
X110474148Y-83311643D01*
X110560553Y-83055161D01*
X110675110Y-83169718D01*
X110711588Y-83133240D01*
X110835910Y-83326441D01*
X111048110Y-83471431D01*
X111300000Y-83522440D01*
X113100000Y-83522440D01*
X113335317Y-83478162D01*
X113551441Y-83339090D01*
X113667061Y-83169874D01*
X118439370Y-83169874D01*
X118991600Y-84506372D01*
X120013249Y-85529806D01*
X121348782Y-86084368D01*
X122794874Y-86085630D01*
X124131372Y-85533400D01*
X125154806Y-84511751D01*
X125709368Y-83176218D01*
X125710630Y-81730126D01*
X125217124Y-80535750D01*
X130075000Y-80535750D01*
X130075000Y-81226309D01*
X130171673Y-81459698D01*
X130350301Y-81638327D01*
X130583690Y-81735000D01*
X131274250Y-81735000D01*
X131433000Y-81576250D01*
X131433000Y-80377000D01*
X130233750Y-80377000D01*
X130075000Y-80535750D01*
X125217124Y-80535750D01*
X125158400Y-80393628D01*
X124136751Y-79370194D01*
X123904347Y-79273691D01*
X130075000Y-79273691D01*
X130075000Y-79964250D01*
X130233750Y-80123000D01*
X131433000Y-80123000D01*
X131433000Y-78923750D01*
X131274250Y-78765000D01*
X130583690Y-78765000D01*
X130350301Y-78861673D01*
X130171673Y-79040302D01*
X130075000Y-79273691D01*
X123904347Y-79273691D01*
X122801218Y-78815632D01*
X121355126Y-78814370D01*
X120018628Y-79366600D01*
X118995194Y-80388249D01*
X118440632Y-81723782D01*
X118439370Y-83169874D01*
X113667061Y-83169874D01*
X113696431Y-83126890D01*
X113747440Y-82875000D01*
X113747440Y-81075000D01*
X113703162Y-80839683D01*
X113564090Y-80623559D01*
X113351890Y-80478569D01*
X113100000Y-80427560D01*
X111300000Y-80427560D01*
X111064683Y-80471838D01*
X110848559Y-80610910D01*
X110709402Y-80814574D01*
X110675110Y-80780282D01*
X110560553Y-80894839D01*
X110474148Y-80638357D01*
X109900664Y-80428542D01*
X109290540Y-80454161D01*
X108845852Y-80638357D01*
X108759446Y-80894841D01*
X108428000Y-80894841D01*
X108428000Y-78319000D01*
X144556198Y-78319000D01*
X142587599Y-80287599D01*
X142587599Y-80287599D01*
G37*
X142587599Y-80287599D02*
X142422852Y-80534161D01*
X142365000Y-80825000D01*
X142365000Y-81976872D01*
X142336799Y-81965162D01*
X141964833Y-81964838D01*
X141621057Y-82106883D01*
X141357808Y-82369673D01*
X141215162Y-82713201D01*
X141215068Y-82820974D01*
X141172840Y-82884173D01*
X141114988Y-83175012D01*
X141114988Y-83835877D01*
X141112215Y-83829167D01*
X141063068Y-83582088D01*
X140882063Y-83311195D01*
X138079368Y-80508500D01*
X138125000Y-80279093D01*
X138125000Y-80220907D01*
X138011961Y-79652622D01*
X137690054Y-79170853D01*
X137208285Y-78848946D01*
X136640000Y-78735907D01*
X136071715Y-78848946D01*
X135589946Y-79170853D01*
X135370000Y-79500026D01*
X135150054Y-79170853D01*
X134668285Y-78848946D01*
X134100000Y-78735907D01*
X133531715Y-78848946D01*
X133049946Y-79170853D01*
X133020597Y-79214777D01*
X132948327Y-79040302D01*
X132769699Y-78861673D01*
X132536310Y-78765000D01*
X131845750Y-78765000D01*
X131687000Y-78923750D01*
X131687000Y-80123000D01*
X131707000Y-80123000D01*
X131707000Y-80377000D01*
X131687000Y-80377000D01*
X131687000Y-81576250D01*
X131845750Y-81735000D01*
X132536310Y-81735000D01*
X132769699Y-81638327D01*
X132948327Y-81459698D01*
X133020597Y-81285223D01*
X133049946Y-81329147D01*
X133265000Y-81472841D01*
X133265000Y-84995013D01*
X133328561Y-85314554D01*
X133479059Y-85539790D01*
X133509566Y-85585447D01*
X136437053Y-88512934D01*
X136261799Y-88440162D01*
X135889833Y-88439838D01*
X135546057Y-88581883D01*
X135282808Y-88844673D01*
X135140162Y-89188201D01*
X135140030Y-89340011D01*
X133458669Y-89340011D01*
X133167830Y-89397863D01*
X132921268Y-89562610D01*
X131008479Y-91475399D01*
X130905682Y-91629247D01*
X130902189Y-91627800D01*
X130561630Y-91627800D01*
X130402880Y-91786550D01*
X130402880Y-92240875D01*
X130398440Y-92262800D01*
X130398440Y-93409800D01*
X130148880Y-93409800D01*
X130148880Y-93389800D01*
X129299630Y-93389800D01*
X129140880Y-93548550D01*
X129140880Y-94027801D01*
X128558673Y-94027801D01*
X128421970Y-93815359D01*
X128209770Y-93670369D01*
X127957880Y-93619360D01*
X126201014Y-93619360D01*
X126296442Y-93476542D01*
X126360002Y-93157002D01*
X126360002Y-92136490D01*
X129140880Y-92136490D01*
X129140880Y-92977050D01*
X129299630Y-93135800D01*
X130148880Y-93135800D01*
X130148880Y-91786550D01*
X129990130Y-91627800D01*
X129649571Y-91627800D01*
X129416182Y-91724473D01*
X129237553Y-91903101D01*
X129140880Y-92136490D01*
X126360002Y-92136490D01*
X126360002Y-92017998D01*
X126296441Y-91698457D01*
X126115436Y-91427564D01*
X122123039Y-87435167D01*
X126714838Y-87435167D01*
X126856883Y-87778943D01*
X127119673Y-88042192D01*
X127463201Y-88184838D01*
X127835167Y-88185162D01*
X127956569Y-88135000D01*
X132774995Y-88135000D01*
X132775000Y-88135001D01*
X133057484Y-88078810D01*
X133113675Y-88067633D01*
X133246705Y-87978746D01*
X133453943Y-87893117D01*
X133717192Y-87630327D01*
X133859838Y-87286799D01*
X133860162Y-86914833D01*
X133718117Y-86571057D01*
X133455327Y-86307808D01*
X133111799Y-86165162D01*
X132739833Y-86164838D01*
X132396057Y-86306883D01*
X132337838Y-86365000D01*
X127956822Y-86365000D01*
X127836799Y-86315162D01*
X127464833Y-86314838D01*
X127121057Y-86456883D01*
X126857808Y-86719673D01*
X126715162Y-87063201D01*
X126714838Y-87435167D01*
X122123039Y-87435167D01*
X120975438Y-86287566D01*
X120887788Y-86229000D01*
X120704545Y-86106561D01*
X120385004Y-86043000D01*
X118367234Y-86043000D01*
X118126799Y-85943162D01*
X117754833Y-85942838D01*
X117411057Y-86084883D01*
X117284882Y-86210838D01*
X117285240Y-85800715D01*
X117074831Y-85291485D01*
X116685564Y-84901539D01*
X116176702Y-84690241D01*
X115625715Y-84689760D01*
X115116485Y-84900169D01*
X115026497Y-84990000D01*
X113817585Y-84990000D01*
X113456777Y-84840180D01*
X113045029Y-84839821D01*
X112664485Y-84997058D01*
X112373081Y-85287954D01*
X112215180Y-85668223D01*
X112214821Y-86079971D01*
X112372058Y-86460515D01*
X112662954Y-86751919D01*
X113043223Y-86909820D01*
X113454971Y-86910179D01*
X113818433Y-86760000D01*
X114488000Y-86760000D01*
X114488000Y-92419690D01*
X114064797Y-92419690D01*
X113974890Y-92358259D01*
X113723000Y-92307250D01*
X113305035Y-92307250D01*
X113218309Y-92289999D01*
X113131583Y-92307250D01*
X112973000Y-92307250D01*
X112737683Y-92351528D01*
X112631756Y-92419690D01*
X112348958Y-92419690D01*
X112310564Y-92381229D01*
X111801702Y-92169931D01*
X111250715Y-92169450D01*
X110741485Y-92379859D01*
X110351539Y-92769126D01*
X110140241Y-93277988D01*
X110139760Y-93828975D01*
X110350169Y-94338205D01*
X110739436Y-94728151D01*
X111248298Y-94939449D01*
X111799285Y-94939930D01*
X112308515Y-94729521D01*
X112348415Y-94689690D01*
X112354026Y-94689690D01*
X112338000Y-94728381D01*
X112338000Y-95168940D01*
X112496750Y-95327690D01*
X113221000Y-95327690D01*
X113221000Y-95307690D01*
X113475000Y-95307690D01*
X113475000Y-95327690D01*
X113495000Y-95327690D01*
X113495000Y-95581690D01*
X113475000Y-95581690D01*
X113475000Y-96530940D01*
X113633750Y-96689690D01*
X113743966Y-96689690D01*
X113801560Y-96979232D01*
X113929953Y-97171385D01*
X113982565Y-97250125D01*
X114102565Y-97370125D01*
X114373459Y-97551131D01*
X114692999Y-97614691D01*
X117376513Y-97614691D01*
X117288000Y-97828380D01*
X117288000Y-98043940D01*
X117446750Y-98202690D01*
X118396000Y-98202690D01*
X118396000Y-97478440D01*
X118348066Y-97430506D01*
X118438433Y-97370125D01*
X119113434Y-96695124D01*
X119294440Y-96424230D01*
X119321885Y-96286251D01*
X119504441Y-96168780D01*
X119588000Y-96046487D01*
X119588000Y-97351468D01*
X119587683Y-97351528D01*
X119484354Y-97418019D01*
X119482698Y-97416363D01*
X119249309Y-97319690D01*
X118808750Y-97319690D01*
X118650000Y-97478440D01*
X118650000Y-98202690D01*
X118670000Y-98202690D01*
X118670000Y-98456690D01*
X118650000Y-98456690D01*
X118650000Y-99180940D01*
X118739999Y-99270939D01*
X118739999Y-99402560D01*
X117775000Y-99402560D01*
X117539683Y-99446838D01*
X117323559Y-99585910D01*
X117178569Y-99798110D01*
X117127560Y-100050000D01*
X117127560Y-100950000D01*
X117171838Y-101185317D01*
X117310910Y-101401441D01*
X117337477Y-101419593D01*
X117337287Y-101637718D01*
X117479332Y-101981494D01*
X117651537Y-102154000D01*
X105135264Y-102154000D01*
X104844425Y-102211852D01*
X104597863Y-102376599D01*
X104380693Y-102593769D01*
X104311799Y-102565162D01*
X103939833Y-102564838D01*
X103596057Y-102706883D01*
X103332808Y-102969673D01*
X103246646Y-103177174D01*
X102369401Y-102299929D01*
X102534759Y-101901702D01*
X102535240Y-101350715D01*
X102324831Y-100841485D01*
X101935564Y-100451539D01*
X101426702Y-100240241D01*
X100875715Y-100239760D01*
X100366485Y-100450169D01*
X99976539Y-100839436D01*
X99765241Y-101348298D01*
X99764760Y-101899285D01*
X99975169Y-102408515D01*
X100015000Y-102448415D01*
X100015000Y-102685660D01*
X100101397Y-103120006D01*
X100302967Y-103421677D01*
X100332997Y-103466620D01*
X100296057Y-103481883D01*
X100237839Y-103539999D01*
X98582721Y-103539999D01*
X99020726Y-103102758D01*
X99384585Y-102226487D01*
X99385413Y-101277675D01*
X99023084Y-100400771D01*
X98352758Y-99729274D01*
X97476487Y-99365415D01*
X96527675Y-99364587D01*
X95650771Y-99726916D01*
X94979274Y-100397242D01*
X94615415Y-101273513D01*
X94614587Y-102222325D01*
X94962750Y-103064945D01*
X94839833Y-103064838D01*
X94496057Y-103206883D01*
X94232808Y-103469673D01*
X94090162Y-103813201D01*
X94089838Y-104185167D01*
X94231883Y-104528943D01*
X94494673Y-104792192D01*
X94838201Y-104934838D01*
X94933549Y-104934921D01*
X95034160Y-105002147D01*
X95324999Y-105059999D01*
X100287493Y-105059999D01*
X100294673Y-105067192D01*
X100638201Y-105209838D01*
X101010167Y-105210162D01*
X101353943Y-105068117D01*
X101617192Y-104805327D01*
X101631083Y-104771875D01*
X102361775Y-105502567D01*
X102729995Y-105748604D01*
X103164341Y-105835001D01*
X104531038Y-105835001D01*
X107073658Y-108377621D01*
X107073611Y-108431967D01*
X107284020Y-108941197D01*
X107323851Y-108981097D01*
X107323851Y-109218342D01*
X107410248Y-109652688D01*
X107575068Y-109899358D01*
X107656285Y-110020908D01*
X108765000Y-111129624D01*
X108765000Y-122960319D01*
X108740000Y-123086002D01*
X108826397Y-123520347D01*
X109072434Y-123888568D01*
X110682866Y-125499000D01*
X108428000Y-125499000D01*
X108428000Y-111709000D01*
X108373954Y-111437295D01*
X108220046Y-111206954D01*
X107989705Y-111053046D01*
X107718000Y-110999000D01*
X93928000Y-110999000D01*
X93928000Y-98615440D01*
X117288000Y-98615440D01*
X117288000Y-98831000D01*
X117384673Y-99064389D01*
X117563302Y-99243017D01*
X117796691Y-99339690D01*
X118237250Y-99339690D01*
X118396000Y-99180940D01*
X118396000Y-98456690D01*
X117446750Y-98456690D01*
X117288000Y-98615440D01*
X93928000Y-98615440D01*
X93928000Y-95035750D01*
X94615000Y-95035750D01*
X94615000Y-96626310D01*
X94711673Y-96859699D01*
X94890302Y-97038327D01*
X95123691Y-97135000D01*
X96714250Y-97135000D01*
X96873000Y-96976250D01*
X96873000Y-94877000D01*
X97127000Y-94877000D01*
X97127000Y-96976250D01*
X97285750Y-97135000D01*
X98876309Y-97135000D01*
X99109698Y-97038327D01*
X99288327Y-96859699D01*
X99385000Y-96626310D01*
X99385000Y-95740440D01*
X112338000Y-95740440D01*
X112338000Y-96180999D01*
X112434673Y-96414388D01*
X112613301Y-96593017D01*
X112846690Y-96689690D01*
X113062250Y-96689690D01*
X113221000Y-96530940D01*
X113221000Y-95581690D01*
X112496750Y-95581690D01*
X112338000Y-95740440D01*
X99385000Y-95740440D01*
X99385000Y-95035750D01*
X99226250Y-94877000D01*
X97127000Y-94877000D01*
X96873000Y-94877000D01*
X94773750Y-94877000D01*
X94615000Y-95035750D01*
X93928000Y-95035750D01*
X93928000Y-92819000D01*
X94637653Y-92819000D01*
X94615000Y-92873690D01*
X94615000Y-94464250D01*
X94773750Y-94623000D01*
X96873000Y-94623000D01*
X96873000Y-94603000D01*
X97127000Y-94603000D01*
X97127000Y-94623000D01*
X99226250Y-94623000D01*
X99385000Y-94464250D01*
X99385000Y-92873690D01*
X99362347Y-92819000D01*
X107718000Y-92819000D01*
X107989705Y-92764954D01*
X108220046Y-92611046D01*
X108373954Y-92380705D01*
X108428000Y-92109000D01*
X108428000Y-82824401D01*
X108579841Y-82875554D01*
X109480395Y-81975000D01*
X108579841Y-81074446D01*
X108428000Y-81125599D01*
X108428000Y-80894841D01*
X108759446Y-80894841D01*
X109660000Y-81795395D01*
X109674143Y-81781253D01*
X109853748Y-81960858D01*
X109839605Y-81975000D01*
X109853748Y-81989143D01*
X109674143Y-82168748D01*
X109660000Y-82154605D01*
X108759446Y-83055159D01*
X108845852Y-83311643D01*
X109419336Y-83521458D01*
X110029460Y-83495839D01*
X110474148Y-83311643D01*
X110560553Y-83055161D01*
X110675110Y-83169718D01*
X110711588Y-83133240D01*
X110835910Y-83326441D01*
X111048110Y-83471431D01*
X111300000Y-83522440D01*
X113100000Y-83522440D01*
X113335317Y-83478162D01*
X113551441Y-83339090D01*
X113667061Y-83169874D01*
X118439370Y-83169874D01*
X118991600Y-84506372D01*
X120013249Y-85529806D01*
X121348782Y-86084368D01*
X122794874Y-86085630D01*
X124131372Y-85533400D01*
X125154806Y-84511751D01*
X125709368Y-83176218D01*
X125710630Y-81730126D01*
X125217124Y-80535750D01*
X130075000Y-80535750D01*
X130075000Y-81226309D01*
X130171673Y-81459698D01*
X130350301Y-81638327D01*
X130583690Y-81735000D01*
X131274250Y-81735000D01*
X131433000Y-81576250D01*
X131433000Y-80377000D01*
X130233750Y-80377000D01*
X130075000Y-80535750D01*
X125217124Y-80535750D01*
X125158400Y-80393628D01*
X124136751Y-79370194D01*
X123904347Y-79273691D01*
X130075000Y-79273691D01*
X130075000Y-79964250D01*
X130233750Y-80123000D01*
X131433000Y-80123000D01*
X131433000Y-78923750D01*
X131274250Y-78765000D01*
X130583690Y-78765000D01*
X130350301Y-78861673D01*
X130171673Y-79040302D01*
X130075000Y-79273691D01*
X123904347Y-79273691D01*
X122801218Y-78815632D01*
X121355126Y-78814370D01*
X120018628Y-79366600D01*
X118995194Y-80388249D01*
X118440632Y-81723782D01*
X118439370Y-83169874D01*
X113667061Y-83169874D01*
X113696431Y-83126890D01*
X113747440Y-82875000D01*
X113747440Y-81075000D01*
X113703162Y-80839683D01*
X113564090Y-80623559D01*
X113351890Y-80478569D01*
X113100000Y-80427560D01*
X111300000Y-80427560D01*
X111064683Y-80471838D01*
X110848559Y-80610910D01*
X110709402Y-80814574D01*
X110675110Y-80780282D01*
X110560553Y-80894839D01*
X110474148Y-80638357D01*
X109900664Y-80428542D01*
X109290540Y-80454161D01*
X108845852Y-80638357D01*
X108759446Y-80894841D01*
X108428000Y-80894841D01*
X108428000Y-78319000D01*
X144556198Y-78319000D01*
X142587599Y-80287599D01*
G36*
X124983446Y-110617234D02*
X125254340Y-110798240D01*
X125338880Y-110815056D01*
X125338880Y-111011050D01*
X125497630Y-111169800D01*
X125951955Y-111169800D01*
X125973880Y-111174240D01*
X127120880Y-111174240D01*
X127120880Y-111423800D01*
X127100880Y-111423800D01*
X127100880Y-111443800D01*
X126846880Y-111443800D01*
X126846880Y-111423800D01*
X125497630Y-111423800D01*
X125338880Y-111582550D01*
X125338880Y-111873000D01*
X124500000Y-111873000D01*
X124453841Y-111881685D01*
X124411447Y-111908965D01*
X124383006Y-111950590D01*
X124373000Y-112000000D01*
X124373000Y-118106856D01*
X124136751Y-117870194D01*
X122801218Y-117315632D01*
X121355126Y-117314370D01*
X120018628Y-117866600D01*
X118995194Y-118888249D01*
X118440632Y-120223782D01*
X118439370Y-121669874D01*
X118991600Y-123006372D01*
X119848730Y-123865000D01*
X117374969Y-123865000D01*
X117514431Y-123660890D01*
X117565440Y-123409000D01*
X117565440Y-122936362D01*
X118062401Y-122439401D01*
X118227148Y-122192839D01*
X118285000Y-121902000D01*
X118285000Y-116584804D01*
X119423298Y-115446506D01*
X119426838Y-115465317D01*
X119565910Y-115681441D01*
X119778110Y-115826431D01*
X120030000Y-115877440D01*
X120930000Y-115877440D01*
X121165317Y-115833162D01*
X121381441Y-115694090D01*
X121401317Y-115665000D01*
X121767370Y-115665000D01*
X121776838Y-115715317D01*
X121915910Y-115931441D01*
X122128110Y-116076431D01*
X122380000Y-116127440D01*
X123280000Y-116127440D01*
X123515317Y-116083162D01*
X123731441Y-115944090D01*
X123876431Y-115731890D01*
X123927440Y-115480000D01*
X123927440Y-114280000D01*
X123883162Y-114044683D01*
X123744090Y-113828559D01*
X123674289Y-113780866D01*
X123731441Y-113744090D01*
X123876431Y-113531890D01*
X123927440Y-113280000D01*
X123927440Y-112080000D01*
X123883162Y-111844683D01*
X123744090Y-111628559D01*
X123590000Y-111523274D01*
X123590000Y-110260123D01*
X123635167Y-110260162D01*
X123978943Y-110118117D01*
X124231856Y-109865644D01*
X124983446Y-110617234D01*
X124983446Y-110617234D01*
G37*
X124983446Y-110617234D02*
X125254340Y-110798240D01*
X125338880Y-110815056D01*
X125338880Y-111011050D01*
X125497630Y-111169800D01*
X125951955Y-111169800D01*
X125973880Y-111174240D01*
X127120880Y-111174240D01*
X127120880Y-111423800D01*
X127100880Y-111423800D01*
X127100880Y-111443800D01*
X126846880Y-111443800D01*
X126846880Y-111423800D01*
X125497630Y-111423800D01*
X125338880Y-111582550D01*
X125338880Y-111873000D01*
X124500000Y-111873000D01*
X124453841Y-111881685D01*
X124411447Y-111908965D01*
X124383006Y-111950590D01*
X124373000Y-112000000D01*
X124373000Y-118106856D01*
X124136751Y-117870194D01*
X122801218Y-117315632D01*
X121355126Y-117314370D01*
X120018628Y-117866600D01*
X118995194Y-118888249D01*
X118440632Y-120223782D01*
X118439370Y-121669874D01*
X118991600Y-123006372D01*
X119848730Y-123865000D01*
X117374969Y-123865000D01*
X117514431Y-123660890D01*
X117565440Y-123409000D01*
X117565440Y-122936362D01*
X118062401Y-122439401D01*
X118227148Y-122192839D01*
X118285000Y-121902000D01*
X118285000Y-116584804D01*
X119423298Y-115446506D01*
X119426838Y-115465317D01*
X119565910Y-115681441D01*
X119778110Y-115826431D01*
X120030000Y-115877440D01*
X120930000Y-115877440D01*
X121165317Y-115833162D01*
X121381441Y-115694090D01*
X121401317Y-115665000D01*
X121767370Y-115665000D01*
X121776838Y-115715317D01*
X121915910Y-115931441D01*
X122128110Y-116076431D01*
X122380000Y-116127440D01*
X123280000Y-116127440D01*
X123515317Y-116083162D01*
X123731441Y-115944090D01*
X123876431Y-115731890D01*
X123927440Y-115480000D01*
X123927440Y-114280000D01*
X123883162Y-114044683D01*
X123744090Y-113828559D01*
X123674289Y-113780866D01*
X123731441Y-113744090D01*
X123876431Y-113531890D01*
X123927440Y-113280000D01*
X123927440Y-112080000D01*
X123883162Y-111844683D01*
X123744090Y-111628559D01*
X123590000Y-111523274D01*
X123590000Y-110260123D01*
X123635167Y-110260162D01*
X123978943Y-110118117D01*
X124231856Y-109865644D01*
X124983446Y-110617234D01*
G36*
X114282560Y-108880000D02*
X114326838Y-109115317D01*
X114465910Y-109331441D01*
X114592686Y-109418064D01*
X114507000Y-109503750D01*
X114507000Y-110303000D01*
X114527000Y-110303000D01*
X114527000Y-110557000D01*
X114507000Y-110557000D01*
X114507000Y-111356250D01*
X114665750Y-111515000D01*
X114906310Y-111515000D01*
X115139699Y-111418327D01*
X115318327Y-111239698D01*
X115333423Y-111203253D01*
X115375000Y-111267865D01*
X115375000Y-111925331D01*
X115358559Y-111935910D01*
X115213569Y-112148110D01*
X115208326Y-112174000D01*
X114664192Y-112174000D01*
X114557090Y-112007559D01*
X114344890Y-111862569D01*
X114093000Y-111811560D01*
X113343000Y-111811560D01*
X113107683Y-111855838D01*
X112891559Y-111994910D01*
X112746569Y-112207110D01*
X112695560Y-112459000D01*
X112695560Y-113659000D01*
X112739838Y-113894317D01*
X112806329Y-113997646D01*
X112804673Y-113999302D01*
X112708000Y-114232691D01*
X112708000Y-114673250D01*
X112866750Y-114832000D01*
X113591000Y-114832000D01*
X113591000Y-114812000D01*
X113845000Y-114812000D01*
X113845000Y-114832000D01*
X114569250Y-114832000D01*
X114728000Y-114673250D01*
X114728000Y-114232691D01*
X114631327Y-113999302D01*
X114629957Y-113997932D01*
X114666808Y-113944000D01*
X115276774Y-113944000D01*
X115345910Y-114051441D01*
X115415711Y-114099134D01*
X115358559Y-114135910D01*
X115213569Y-114348110D01*
X115162560Y-114600000D01*
X115162560Y-115800000D01*
X115206838Y-116035317D01*
X115345910Y-116251441D01*
X115558110Y-116396431D01*
X115810000Y-116447440D01*
X116710000Y-116447440D01*
X116765000Y-116437091D01*
X116765000Y-120274000D01*
X116703750Y-120274000D01*
X116545000Y-120432750D01*
X116545000Y-121232000D01*
X116565000Y-121232000D01*
X116565000Y-121486000D01*
X116545000Y-121486000D01*
X116545000Y-121506000D01*
X116291000Y-121506000D01*
X116291000Y-121486000D01*
X115441750Y-121486000D01*
X115283000Y-121644750D01*
X115283000Y-121935309D01*
X115340448Y-122074000D01*
X113395552Y-122074000D01*
X113453000Y-121935309D01*
X113453000Y-121644750D01*
X113294250Y-121486000D01*
X112445000Y-121486000D01*
X112445000Y-121506000D01*
X112191000Y-121506000D01*
X112191000Y-121486000D01*
X111341750Y-121486000D01*
X111183000Y-121644750D01*
X111183000Y-121935309D01*
X111279673Y-122168698D01*
X111281043Y-122170068D01*
X111221569Y-122257110D01*
X111170560Y-122509000D01*
X111170560Y-122776430D01*
X111035000Y-122640870D01*
X111035000Y-120782691D01*
X111183000Y-120782691D01*
X111183000Y-121073250D01*
X111341750Y-121232000D01*
X112191000Y-121232000D01*
X112191000Y-120432750D01*
X112445000Y-120432750D01*
X112445000Y-121232000D01*
X113294250Y-121232000D01*
X113453000Y-121073250D01*
X113453000Y-120782691D01*
X115283000Y-120782691D01*
X115283000Y-121073250D01*
X115441750Y-121232000D01*
X116291000Y-121232000D01*
X116291000Y-120432750D01*
X116132250Y-120274000D01*
X115791690Y-120274000D01*
X115558301Y-120370673D01*
X115379673Y-120549302D01*
X115283000Y-120782691D01*
X113453000Y-120782691D01*
X113356327Y-120549302D01*
X113177699Y-120370673D01*
X112944310Y-120274000D01*
X112603750Y-120274000D01*
X112445000Y-120432750D01*
X112191000Y-120432750D01*
X112032250Y-120274000D01*
X111691690Y-120274000D01*
X111458301Y-120370673D01*
X111279673Y-120549302D01*
X111183000Y-120782691D01*
X111035000Y-120782691D01*
X111035000Y-115244750D01*
X112708000Y-115244750D01*
X112708000Y-115685309D01*
X112804673Y-115918698D01*
X112983301Y-116097327D01*
X113216690Y-116194000D01*
X113432250Y-116194000D01*
X113591000Y-116035250D01*
X113591000Y-115086000D01*
X113845000Y-115086000D01*
X113845000Y-116035250D01*
X114003750Y-116194000D01*
X114219310Y-116194000D01*
X114452699Y-116097327D01*
X114631327Y-115918698D01*
X114728000Y-115685309D01*
X114728000Y-115244750D01*
X114569250Y-115086000D01*
X113845000Y-115086000D01*
X113591000Y-115086000D01*
X112866750Y-115086000D01*
X112708000Y-115244750D01*
X111035000Y-115244750D01*
X111035000Y-110715750D01*
X113345000Y-110715750D01*
X113345000Y-111006309D01*
X113441673Y-111239698D01*
X113620301Y-111418327D01*
X113853690Y-111515000D01*
X114094250Y-111515000D01*
X114253000Y-111356250D01*
X114253000Y-110557000D01*
X113503750Y-110557000D01*
X113345000Y-110715750D01*
X111035000Y-110715750D01*
X111035000Y-110659491D01*
X110948603Y-110225145D01*
X110906277Y-110161800D01*
X110702566Y-109856924D01*
X110699333Y-109853691D01*
X113345000Y-109853691D01*
X113345000Y-110144250D01*
X113503750Y-110303000D01*
X114253000Y-110303000D01*
X114253000Y-109503750D01*
X114094250Y-109345000D01*
X113853690Y-109345000D01*
X113620301Y-109441673D01*
X113441673Y-109620302D01*
X113345000Y-109853691D01*
X110699333Y-109853691D01*
X109678252Y-108832611D01*
X109843610Y-108434384D01*
X109843659Y-108378006D01*
X110161654Y-108060011D01*
X114282560Y-108060011D01*
X114282560Y-108880000D01*
X114282560Y-108880000D01*
G37*
X114282560Y-108880000D02*
X114326838Y-109115317D01*
X114465910Y-109331441D01*
X114592686Y-109418064D01*
X114507000Y-109503750D01*
X114507000Y-110303000D01*
X114527000Y-110303000D01*
X114527000Y-110557000D01*
X114507000Y-110557000D01*
X114507000Y-111356250D01*
X114665750Y-111515000D01*
X114906310Y-111515000D01*
X115139699Y-111418327D01*
X115318327Y-111239698D01*
X115333423Y-111203253D01*
X115375000Y-111267865D01*
X115375000Y-111925331D01*
X115358559Y-111935910D01*
X115213569Y-112148110D01*
X115208326Y-112174000D01*
X114664192Y-112174000D01*
X114557090Y-112007559D01*
X114344890Y-111862569D01*
X114093000Y-111811560D01*
X113343000Y-111811560D01*
X113107683Y-111855838D01*
X112891559Y-111994910D01*
X112746569Y-112207110D01*
X112695560Y-112459000D01*
X112695560Y-113659000D01*
X112739838Y-113894317D01*
X112806329Y-113997646D01*
X112804673Y-113999302D01*
X112708000Y-114232691D01*
X112708000Y-114673250D01*
X112866750Y-114832000D01*
X113591000Y-114832000D01*
X113591000Y-114812000D01*
X113845000Y-114812000D01*
X113845000Y-114832000D01*
X114569250Y-114832000D01*
X114728000Y-114673250D01*
X114728000Y-114232691D01*
X114631327Y-113999302D01*
X114629957Y-113997932D01*
X114666808Y-113944000D01*
X115276774Y-113944000D01*
X115345910Y-114051441D01*
X115415711Y-114099134D01*
X115358559Y-114135910D01*
X115213569Y-114348110D01*
X115162560Y-114600000D01*
X115162560Y-115800000D01*
X115206838Y-116035317D01*
X115345910Y-116251441D01*
X115558110Y-116396431D01*
X115810000Y-116447440D01*
X116710000Y-116447440D01*
X116765000Y-116437091D01*
X116765000Y-120274000D01*
X116703750Y-120274000D01*
X116545000Y-120432750D01*
X116545000Y-121232000D01*
X116565000Y-121232000D01*
X116565000Y-121486000D01*
X116545000Y-121486000D01*
X116545000Y-121506000D01*
X116291000Y-121506000D01*
X116291000Y-121486000D01*
X115441750Y-121486000D01*
X115283000Y-121644750D01*
X115283000Y-121935309D01*
X115340448Y-122074000D01*
X113395552Y-122074000D01*
X113453000Y-121935309D01*
X113453000Y-121644750D01*
X113294250Y-121486000D01*
X112445000Y-121486000D01*
X112445000Y-121506000D01*
X112191000Y-121506000D01*
X112191000Y-121486000D01*
X111341750Y-121486000D01*
X111183000Y-121644750D01*
X111183000Y-121935309D01*
X111279673Y-122168698D01*
X111281043Y-122170068D01*
X111221569Y-122257110D01*
X111170560Y-122509000D01*
X111170560Y-122776430D01*
X111035000Y-122640870D01*
X111035000Y-120782691D01*
X111183000Y-120782691D01*
X111183000Y-121073250D01*
X111341750Y-121232000D01*
X112191000Y-121232000D01*
X112191000Y-120432750D01*
X112445000Y-120432750D01*
X112445000Y-121232000D01*
X113294250Y-121232000D01*
X113453000Y-121073250D01*
X113453000Y-120782691D01*
X115283000Y-120782691D01*
X115283000Y-121073250D01*
X115441750Y-121232000D01*
X116291000Y-121232000D01*
X116291000Y-120432750D01*
X116132250Y-120274000D01*
X115791690Y-120274000D01*
X115558301Y-120370673D01*
X115379673Y-120549302D01*
X115283000Y-120782691D01*
X113453000Y-120782691D01*
X113356327Y-120549302D01*
X113177699Y-120370673D01*
X112944310Y-120274000D01*
X112603750Y-120274000D01*
X112445000Y-120432750D01*
X112191000Y-120432750D01*
X112032250Y-120274000D01*
X111691690Y-120274000D01*
X111458301Y-120370673D01*
X111279673Y-120549302D01*
X111183000Y-120782691D01*
X111035000Y-120782691D01*
X111035000Y-115244750D01*
X112708000Y-115244750D01*
X112708000Y-115685309D01*
X112804673Y-115918698D01*
X112983301Y-116097327D01*
X113216690Y-116194000D01*
X113432250Y-116194000D01*
X113591000Y-116035250D01*
X113591000Y-115086000D01*
X113845000Y-115086000D01*
X113845000Y-116035250D01*
X114003750Y-116194000D01*
X114219310Y-116194000D01*
X114452699Y-116097327D01*
X114631327Y-115918698D01*
X114728000Y-115685309D01*
X114728000Y-115244750D01*
X114569250Y-115086000D01*
X113845000Y-115086000D01*
X113591000Y-115086000D01*
X112866750Y-115086000D01*
X112708000Y-115244750D01*
X111035000Y-115244750D01*
X111035000Y-110715750D01*
X113345000Y-110715750D01*
X113345000Y-111006309D01*
X113441673Y-111239698D01*
X113620301Y-111418327D01*
X113853690Y-111515000D01*
X114094250Y-111515000D01*
X114253000Y-111356250D01*
X114253000Y-110557000D01*
X113503750Y-110557000D01*
X113345000Y-110715750D01*
X111035000Y-110715750D01*
X111035000Y-110659491D01*
X110948603Y-110225145D01*
X110906277Y-110161800D01*
X110702566Y-109856924D01*
X110699333Y-109853691D01*
X113345000Y-109853691D01*
X113345000Y-110144250D01*
X113503750Y-110303000D01*
X114253000Y-110303000D01*
X114253000Y-109503750D01*
X114094250Y-109345000D01*
X113853690Y-109345000D01*
X113620301Y-109441673D01*
X113441673Y-109620302D01*
X113345000Y-109853691D01*
X110699333Y-109853691D01*
X109678252Y-108832611D01*
X109843610Y-108434384D01*
X109843659Y-108378006D01*
X110161654Y-108060011D01*
X114282560Y-108060011D01*
X114282560Y-108880000D01*
G36*
X133469673Y-99767192D02*
X133813201Y-99909838D01*
X134185167Y-99910162D01*
X134528943Y-99768117D01*
X134562118Y-99735000D01*
X135935200Y-99735000D01*
X136175200Y-99975000D01*
X135585750Y-99975000D01*
X135427000Y-100133750D01*
X135427000Y-102483000D01*
X137776250Y-102483000D01*
X137935000Y-102324250D01*
X137935000Y-101734800D01*
X139089430Y-102889230D01*
X139089430Y-109862527D01*
X139057238Y-109894663D01*
X138914592Y-110238191D01*
X138914268Y-110610157D01*
X139056313Y-110953933D01*
X139319103Y-111217182D01*
X139662631Y-111359828D01*
X140034597Y-111360152D01*
X140378373Y-111218107D01*
X140641622Y-110955317D01*
X140784268Y-110611789D01*
X140784592Y-110239823D01*
X140642547Y-109896047D01*
X140609430Y-109862872D01*
X140609430Y-103455469D01*
X140925287Y-103771326D01*
X140925287Y-103865212D01*
X140983139Y-104156051D01*
X141147886Y-104402613D01*
X141364132Y-104618859D01*
X141610694Y-104783606D01*
X141729093Y-104807157D01*
X141795470Y-104873650D01*
X142138998Y-105016296D01*
X142510964Y-105016620D01*
X142854740Y-104874575D01*
X143117989Y-104611785D01*
X143260635Y-104268257D01*
X143260959Y-103896291D01*
X143162085Y-103656998D01*
X143240356Y-103468502D01*
X143240680Y-103096536D01*
X143198124Y-102993543D01*
X143295126Y-102759938D01*
X143344440Y-102759981D01*
X143344440Y-102886800D01*
X143377701Y-103063565D01*
X143360440Y-103148800D01*
X143360440Y-104148800D01*
X143379849Y-104251947D01*
X143344440Y-104426800D01*
X143344440Y-105426800D01*
X143377701Y-105603565D01*
X143360440Y-105688800D01*
X143360440Y-106688800D01*
X143379849Y-106791947D01*
X143344440Y-106966800D01*
X143344440Y-107966800D01*
X143377701Y-108143565D01*
X143360440Y-108228800D01*
X143360440Y-109228800D01*
X143386775Y-109368756D01*
X143360440Y-109498800D01*
X143360440Y-110498800D01*
X143378955Y-110597197D01*
X143356880Y-110650490D01*
X143356880Y-110991050D01*
X143515630Y-111149800D01*
X144864880Y-111149800D01*
X144864880Y-111146240D01*
X145118880Y-111146240D01*
X145118880Y-111149800D01*
X146468130Y-111149800D01*
X146626880Y-110991050D01*
X146626880Y-110935000D01*
X148737537Y-110935000D01*
X148769673Y-110967192D01*
X149113201Y-111109838D01*
X149240002Y-111109948D01*
X149240002Y-111398637D01*
X149240001Y-111398642D01*
X149285823Y-111629000D01*
X149307369Y-111737317D01*
X149499212Y-112024432D01*
X149499215Y-112024434D01*
X150990012Y-113515230D01*
X150990012Y-114001007D01*
X150990011Y-114001012D01*
X151039030Y-114247440D01*
X151057379Y-114339687D01*
X151201536Y-114555434D01*
X151249222Y-114626802D01*
X151627461Y-115005040D01*
X151583907Y-115224000D01*
X151696946Y-115792285D01*
X152018853Y-116274054D01*
X152348026Y-116494000D01*
X152018853Y-116713946D01*
X151696946Y-117195715D01*
X151583907Y-117764000D01*
X151696946Y-118332285D01*
X152018853Y-118814054D01*
X152359553Y-119041702D01*
X152216642Y-119108817D01*
X151826355Y-119537076D01*
X151656524Y-119947110D01*
X151777845Y-120177000D01*
X152971000Y-120177000D01*
X152971000Y-120157000D01*
X153225000Y-120157000D01*
X153225000Y-120177000D01*
X155511000Y-120177000D01*
X155511000Y-120157000D01*
X155765000Y-120157000D01*
X155765000Y-120177000D01*
X155785000Y-120177000D01*
X155785000Y-120431000D01*
X155765000Y-120431000D01*
X155765000Y-120451000D01*
X155511000Y-120451000D01*
X155511000Y-120431000D01*
X153225000Y-120431000D01*
X153225000Y-120451000D01*
X152971000Y-120451000D01*
X152971000Y-120431000D01*
X151777845Y-120431000D01*
X151753573Y-120476993D01*
X151360001Y-120083421D01*
X151360001Y-119293999D01*
X151292634Y-118955324D01*
X151100791Y-118668209D01*
X151100788Y-118668207D01*
X147931792Y-115499210D01*
X147881067Y-115465317D01*
X147644677Y-115307367D01*
X147588486Y-115296190D01*
X147306002Y-115239999D01*
X147305997Y-115240000D01*
X147127000Y-115240000D01*
X147127000Y-114808999D01*
X147737589Y-114808999D01*
X147769725Y-114841191D01*
X148113253Y-114983837D01*
X148485219Y-114984161D01*
X148828995Y-114842116D01*
X149092244Y-114579326D01*
X149234890Y-114235798D01*
X149235214Y-113863832D01*
X149093169Y-113520056D01*
X148830379Y-113256807D01*
X148723199Y-113212302D01*
X148786302Y-113060335D01*
X148786626Y-112688369D01*
X148644581Y-112344593D01*
X148503147Y-112202912D01*
X148509838Y-112186799D01*
X148510162Y-111814833D01*
X148368117Y-111471057D01*
X148105327Y-111207808D01*
X147761799Y-111065162D01*
X147389833Y-111064838D01*
X147046057Y-111206883D01*
X146782808Y-111469673D01*
X146680934Y-111715011D01*
X146626880Y-111715011D01*
X146626880Y-111562550D01*
X146468130Y-111403800D01*
X145118880Y-111403800D01*
X145118880Y-111423800D01*
X144864880Y-111423800D01*
X144864880Y-111403800D01*
X143515630Y-111403800D01*
X143356880Y-111562550D01*
X143356880Y-111715011D01*
X138389813Y-111715011D01*
X131064201Y-104389399D01*
X130817639Y-104224652D01*
X130526800Y-104166800D01*
X128780682Y-104166800D01*
X130051732Y-102895750D01*
X132665000Y-102895750D01*
X132665000Y-104736310D01*
X132761673Y-104969699D01*
X132940302Y-105148327D01*
X133173691Y-105245000D01*
X135014250Y-105245000D01*
X135173000Y-105086250D01*
X135173000Y-102737000D01*
X135427000Y-102737000D01*
X135427000Y-105086250D01*
X135585750Y-105245000D01*
X137426309Y-105245000D01*
X137659698Y-105148327D01*
X137838327Y-104969699D01*
X137935000Y-104736310D01*
X137935000Y-102895750D01*
X137776250Y-102737000D01*
X135427000Y-102737000D01*
X135173000Y-102737000D01*
X132823750Y-102737000D01*
X132665000Y-102895750D01*
X130051732Y-102895750D01*
X132463792Y-100483690D01*
X132665000Y-100483690D01*
X132665000Y-102324250D01*
X132823750Y-102483000D01*
X135173000Y-102483000D01*
X135173000Y-100133750D01*
X135014250Y-99975000D01*
X133173691Y-99975000D01*
X132940302Y-100071673D01*
X132761673Y-100250301D01*
X132665000Y-100483690D01*
X132463792Y-100483690D01*
X133325108Y-99622374D01*
X133469673Y-99767192D01*
X133469673Y-99767192D01*
G37*
X133469673Y-99767192D02*
X133813201Y-99909838D01*
X134185167Y-99910162D01*
X134528943Y-99768117D01*
X134562118Y-99735000D01*
X135935200Y-99735000D01*
X136175200Y-99975000D01*
X135585750Y-99975000D01*
X135427000Y-100133750D01*
X135427000Y-102483000D01*
X137776250Y-102483000D01*
X137935000Y-102324250D01*
X137935000Y-101734800D01*
X139089430Y-102889230D01*
X139089430Y-109862527D01*
X139057238Y-109894663D01*
X138914592Y-110238191D01*
X138914268Y-110610157D01*
X139056313Y-110953933D01*
X139319103Y-111217182D01*
X139662631Y-111359828D01*
X140034597Y-111360152D01*
X140378373Y-111218107D01*
X140641622Y-110955317D01*
X140784268Y-110611789D01*
X140784592Y-110239823D01*
X140642547Y-109896047D01*
X140609430Y-109862872D01*
X140609430Y-103455469D01*
X140925287Y-103771326D01*
X140925287Y-103865212D01*
X140983139Y-104156051D01*
X141147886Y-104402613D01*
X141364132Y-104618859D01*
X141610694Y-104783606D01*
X141729093Y-104807157D01*
X141795470Y-104873650D01*
X142138998Y-105016296D01*
X142510964Y-105016620D01*
X142854740Y-104874575D01*
X143117989Y-104611785D01*
X143260635Y-104268257D01*
X143260959Y-103896291D01*
X143162085Y-103656998D01*
X143240356Y-103468502D01*
X143240680Y-103096536D01*
X143198124Y-102993543D01*
X143295126Y-102759938D01*
X143344440Y-102759981D01*
X143344440Y-102886800D01*
X143377701Y-103063565D01*
X143360440Y-103148800D01*
X143360440Y-104148800D01*
X143379849Y-104251947D01*
X143344440Y-104426800D01*
X143344440Y-105426800D01*
X143377701Y-105603565D01*
X143360440Y-105688800D01*
X143360440Y-106688800D01*
X143379849Y-106791947D01*
X143344440Y-106966800D01*
X143344440Y-107966800D01*
X143377701Y-108143565D01*
X143360440Y-108228800D01*
X143360440Y-109228800D01*
X143386775Y-109368756D01*
X143360440Y-109498800D01*
X143360440Y-110498800D01*
X143378955Y-110597197D01*
X143356880Y-110650490D01*
X143356880Y-110991050D01*
X143515630Y-111149800D01*
X144864880Y-111149800D01*
X144864880Y-111146240D01*
X145118880Y-111146240D01*
X145118880Y-111149800D01*
X146468130Y-111149800D01*
X146626880Y-110991050D01*
X146626880Y-110935000D01*
X148737537Y-110935000D01*
X148769673Y-110967192D01*
X149113201Y-111109838D01*
X149240002Y-111109948D01*
X149240002Y-111398637D01*
X149240001Y-111398642D01*
X149285823Y-111629000D01*
X149307369Y-111737317D01*
X149499212Y-112024432D01*
X149499215Y-112024434D01*
X150990012Y-113515230D01*
X150990012Y-114001007D01*
X150990011Y-114001012D01*
X151039030Y-114247440D01*
X151057379Y-114339687D01*
X151201536Y-114555434D01*
X151249222Y-114626802D01*
X151627461Y-115005040D01*
X151583907Y-115224000D01*
X151696946Y-115792285D01*
X152018853Y-116274054D01*
X152348026Y-116494000D01*
X152018853Y-116713946D01*
X151696946Y-117195715D01*
X151583907Y-117764000D01*
X151696946Y-118332285D01*
X152018853Y-118814054D01*
X152359553Y-119041702D01*
X152216642Y-119108817D01*
X151826355Y-119537076D01*
X151656524Y-119947110D01*
X151777845Y-120177000D01*
X152971000Y-120177000D01*
X152971000Y-120157000D01*
X153225000Y-120157000D01*
X153225000Y-120177000D01*
X155511000Y-120177000D01*
X155511000Y-120157000D01*
X155765000Y-120157000D01*
X155765000Y-120177000D01*
X155785000Y-120177000D01*
X155785000Y-120431000D01*
X155765000Y-120431000D01*
X155765000Y-120451000D01*
X155511000Y-120451000D01*
X155511000Y-120431000D01*
X153225000Y-120431000D01*
X153225000Y-120451000D01*
X152971000Y-120451000D01*
X152971000Y-120431000D01*
X151777845Y-120431000D01*
X151753573Y-120476993D01*
X151360001Y-120083421D01*
X151360001Y-119293999D01*
X151292634Y-118955324D01*
X151100791Y-118668209D01*
X151100788Y-118668207D01*
X147931792Y-115499210D01*
X147881067Y-115465317D01*
X147644677Y-115307367D01*
X147588486Y-115296190D01*
X147306002Y-115239999D01*
X147305997Y-115240000D01*
X147127000Y-115240000D01*
X147127000Y-114808999D01*
X147737589Y-114808999D01*
X147769725Y-114841191D01*
X148113253Y-114983837D01*
X148485219Y-114984161D01*
X148828995Y-114842116D01*
X149092244Y-114579326D01*
X149234890Y-114235798D01*
X149235214Y-113863832D01*
X149093169Y-113520056D01*
X148830379Y-113256807D01*
X148723199Y-113212302D01*
X148786302Y-113060335D01*
X148786626Y-112688369D01*
X148644581Y-112344593D01*
X148503147Y-112202912D01*
X148509838Y-112186799D01*
X148510162Y-111814833D01*
X148368117Y-111471057D01*
X148105327Y-111207808D01*
X147761799Y-111065162D01*
X147389833Y-111064838D01*
X147046057Y-111206883D01*
X146782808Y-111469673D01*
X146680934Y-111715011D01*
X146626880Y-111715011D01*
X146626880Y-111562550D01*
X146468130Y-111403800D01*
X145118880Y-111403800D01*
X145118880Y-111423800D01*
X144864880Y-111423800D01*
X144864880Y-111403800D01*
X143515630Y-111403800D01*
X143356880Y-111562550D01*
X143356880Y-111715011D01*
X138389813Y-111715011D01*
X131064201Y-104389399D01*
X130817639Y-104224652D01*
X130526800Y-104166800D01*
X128780682Y-104166800D01*
X130051732Y-102895750D01*
X132665000Y-102895750D01*
X132665000Y-104736310D01*
X132761673Y-104969699D01*
X132940302Y-105148327D01*
X133173691Y-105245000D01*
X135014250Y-105245000D01*
X135173000Y-105086250D01*
X135173000Y-102737000D01*
X135427000Y-102737000D01*
X135427000Y-105086250D01*
X135585750Y-105245000D01*
X137426309Y-105245000D01*
X137659698Y-105148327D01*
X137838327Y-104969699D01*
X137935000Y-104736310D01*
X137935000Y-102895750D01*
X137776250Y-102737000D01*
X135427000Y-102737000D01*
X135173000Y-102737000D01*
X132823750Y-102737000D01*
X132665000Y-102895750D01*
X130051732Y-102895750D01*
X132463792Y-100483690D01*
X132665000Y-100483690D01*
X132665000Y-102324250D01*
X132823750Y-102483000D01*
X135173000Y-102483000D01*
X135173000Y-100133750D01*
X135014250Y-99975000D01*
X133173691Y-99975000D01*
X132940302Y-100071673D01*
X132761673Y-100250301D01*
X132665000Y-100483690D01*
X132463792Y-100483690D01*
X133325108Y-99622374D01*
X133469673Y-99767192D01*
G36*
X117150433Y-108302567D02*
X117433737Y-108491865D01*
X118104438Y-109162566D01*
X118472658Y-109408603D01*
X118907004Y-109495000D01*
X120650000Y-109495000D01*
X121084346Y-109408603D01*
X121100232Y-109397988D01*
X121285317Y-109363162D01*
X121415000Y-109279713D01*
X121415000Y-111166418D01*
X121196057Y-111256883D01*
X120932808Y-111519673D01*
X120790162Y-111863201D01*
X120790145Y-111882560D01*
X120030000Y-111882560D01*
X119794683Y-111926838D01*
X119578559Y-112065910D01*
X119433569Y-112278110D01*
X119382560Y-112530000D01*
X119382560Y-112902638D01*
X119312433Y-112972765D01*
X119181890Y-112883569D01*
X118930000Y-112832560D01*
X118030000Y-112832560D01*
X117794683Y-112876838D01*
X117578559Y-113015910D01*
X117433569Y-113228110D01*
X117382560Y-113480000D01*
X117382560Y-113725861D01*
X117319102Y-113789319D01*
X117357440Y-113600000D01*
X117357440Y-112400000D01*
X117313162Y-112164683D01*
X117174090Y-111948559D01*
X117145000Y-111928683D01*
X117145000Y-111324246D01*
X117276431Y-111131890D01*
X117327440Y-110880000D01*
X117327440Y-109980000D01*
X117283162Y-109744683D01*
X117144090Y-109528559D01*
X116931890Y-109383569D01*
X116680000Y-109332560D01*
X116189319Y-109332560D01*
X116326431Y-109131890D01*
X116377440Y-108880000D01*
X116377440Y-108060011D01*
X116907877Y-108060011D01*
X117150433Y-108302567D01*
X117150433Y-108302567D01*
G37*
X117150433Y-108302567D02*
X117433737Y-108491865D01*
X118104438Y-109162566D01*
X118472658Y-109408603D01*
X118907004Y-109495000D01*
X120650000Y-109495000D01*
X121084346Y-109408603D01*
X121100232Y-109397988D01*
X121285317Y-109363162D01*
X121415000Y-109279713D01*
X121415000Y-111166418D01*
X121196057Y-111256883D01*
X120932808Y-111519673D01*
X120790162Y-111863201D01*
X120790145Y-111882560D01*
X120030000Y-111882560D01*
X119794683Y-111926838D01*
X119578559Y-112065910D01*
X119433569Y-112278110D01*
X119382560Y-112530000D01*
X119382560Y-112902638D01*
X119312433Y-112972765D01*
X119181890Y-112883569D01*
X118930000Y-112832560D01*
X118030000Y-112832560D01*
X117794683Y-112876838D01*
X117578559Y-113015910D01*
X117433569Y-113228110D01*
X117382560Y-113480000D01*
X117382560Y-113725861D01*
X117319102Y-113789319D01*
X117357440Y-113600000D01*
X117357440Y-112400000D01*
X117313162Y-112164683D01*
X117174090Y-111948559D01*
X117145000Y-111928683D01*
X117145000Y-111324246D01*
X117276431Y-111131890D01*
X117327440Y-110880000D01*
X117327440Y-109980000D01*
X117283162Y-109744683D01*
X117144090Y-109528559D01*
X116931890Y-109383569D01*
X116680000Y-109332560D01*
X116189319Y-109332560D01*
X116326431Y-109131890D01*
X116377440Y-108880000D01*
X116377440Y-108060011D01*
X116907877Y-108060011D01*
X117150433Y-108302567D01*
G36*
X119948198Y-105087000D02*
X119930998Y-105087000D01*
X119930998Y-105245748D01*
X119772250Y-105087000D01*
X119331691Y-105087000D01*
X119098302Y-105183673D01*
X118919673Y-105362301D01*
X118823000Y-105595690D01*
X118823000Y-105886250D01*
X118981750Y-106045000D01*
X119931000Y-106045000D01*
X119931000Y-106025000D01*
X120185000Y-106025000D01*
X120185000Y-106045000D01*
X120205000Y-106045000D01*
X120205000Y-106299000D01*
X120185000Y-106299000D01*
X120185000Y-106319000D01*
X119931000Y-106319000D01*
X119931000Y-106299000D01*
X118981750Y-106299000D01*
X118823000Y-106457750D01*
X118823000Y-106679681D01*
X118762512Y-106639264D01*
X118566267Y-106508137D01*
X118180575Y-106122445D01*
X118064492Y-106044881D01*
X117812355Y-105876408D01*
X117378009Y-105790011D01*
X109691522Y-105790011D01*
X109257176Y-105876408D01*
X109005039Y-106044881D01*
X108888956Y-106122445D01*
X108458851Y-106552550D01*
X105803736Y-103897435D01*
X105709646Y-103834566D01*
X105469342Y-103674000D01*
X118535198Y-103674000D01*
X119948198Y-105087000D01*
X119948198Y-105087000D01*
G37*
X119948198Y-105087000D02*
X119930998Y-105087000D01*
X119930998Y-105245748D01*
X119772250Y-105087000D01*
X119331691Y-105087000D01*
X119098302Y-105183673D01*
X118919673Y-105362301D01*
X118823000Y-105595690D01*
X118823000Y-105886250D01*
X118981750Y-106045000D01*
X119931000Y-106045000D01*
X119931000Y-106025000D01*
X120185000Y-106025000D01*
X120185000Y-106045000D01*
X120205000Y-106045000D01*
X120205000Y-106299000D01*
X120185000Y-106299000D01*
X120185000Y-106319000D01*
X119931000Y-106319000D01*
X119931000Y-106299000D01*
X118981750Y-106299000D01*
X118823000Y-106457750D01*
X118823000Y-106679681D01*
X118762512Y-106639264D01*
X118566267Y-106508137D01*
X118180575Y-106122445D01*
X118064492Y-106044881D01*
X117812355Y-105876408D01*
X117378009Y-105790011D01*
X109691522Y-105790011D01*
X109257176Y-105876408D01*
X109005039Y-106044881D01*
X108888956Y-106122445D01*
X108458851Y-106552550D01*
X105803736Y-103897435D01*
X105709646Y-103834566D01*
X105469342Y-103674000D01*
X118535198Y-103674000D01*
X119948198Y-105087000D01*
G36*
X151583907Y-92364000D02*
X151627461Y-92582960D01*
X147835088Y-96375333D01*
X147835162Y-96289833D01*
X147693117Y-95946057D01*
X147631872Y-95884705D01*
X151691008Y-91825570D01*
X151583907Y-92364000D01*
X151583907Y-92364000D01*
G37*
X151583907Y-92364000D02*
X151627461Y-92582960D01*
X147835088Y-96375333D01*
X147835162Y-96289833D01*
X147693117Y-95946057D01*
X147631872Y-95884705D01*
X151691008Y-91825570D01*
X151583907Y-92364000D01*
G36*
X117741110Y-94401121D02*
X117878120Y-94428866D01*
X117757683Y-94451528D01*
X117594257Y-94556690D01*
X117516750Y-94556690D01*
X117358000Y-94715440D01*
X117358000Y-94881000D01*
X117373268Y-94917861D01*
X117345560Y-95054690D01*
X117345560Y-95704690D01*
X117389838Y-95940007D01*
X117392852Y-95944691D01*
X116708000Y-95944691D01*
X116708000Y-95865440D01*
X116549250Y-95706690D01*
X115750000Y-95706690D01*
X115750000Y-95726690D01*
X115496000Y-95726690D01*
X115496000Y-95706690D01*
X115476000Y-95706690D01*
X115476000Y-95452690D01*
X115496000Y-95452690D01*
X115496000Y-95432690D01*
X115750000Y-95432690D01*
X115750000Y-95452690D01*
X116549250Y-95452690D01*
X116708000Y-95293940D01*
X116708000Y-94853381D01*
X116611327Y-94619992D01*
X116470090Y-94478754D01*
X116524441Y-94443780D01*
X116612644Y-94314690D01*
X117614614Y-94314690D01*
X117741110Y-94401121D01*
X117741110Y-94401121D01*
G37*
X117741110Y-94401121D02*
X117878120Y-94428866D01*
X117757683Y-94451528D01*
X117594257Y-94556690D01*
X117516750Y-94556690D01*
X117358000Y-94715440D01*
X117358000Y-94881000D01*
X117373268Y-94917861D01*
X117345560Y-95054690D01*
X117345560Y-95704690D01*
X117389838Y-95940007D01*
X117392852Y-95944691D01*
X116708000Y-95944691D01*
X116708000Y-95865440D01*
X116549250Y-95706690D01*
X115750000Y-95706690D01*
X115750000Y-95726690D01*
X115496000Y-95726690D01*
X115496000Y-95706690D01*
X115476000Y-95706690D01*
X115476000Y-95452690D01*
X115496000Y-95452690D01*
X115496000Y-95432690D01*
X115750000Y-95432690D01*
X115750000Y-95452690D01*
X116549250Y-95452690D01*
X116708000Y-95293940D01*
X116708000Y-94853381D01*
X116611327Y-94619992D01*
X116470090Y-94478754D01*
X116524441Y-94443780D01*
X116612644Y-94314690D01*
X117614614Y-94314690D01*
X117741110Y-94401121D01*
G36*
X123782255Y-93133835D02*
X123831883Y-93253943D01*
X123967826Y-93390124D01*
X123639833Y-93389838D01*
X123296057Y-93531883D01*
X123032808Y-93794673D01*
X122982434Y-93915987D01*
X122403730Y-94494690D01*
X121558209Y-94494690D01*
X121504890Y-94458259D01*
X121367880Y-94430514D01*
X121488317Y-94407852D01*
X121704441Y-94268780D01*
X121849431Y-94056580D01*
X121900440Y-93804690D01*
X121900440Y-93154690D01*
X121870823Y-92997288D01*
X123645708Y-92997288D01*
X123782255Y-93133835D01*
X123782255Y-93133835D01*
G37*
X123782255Y-93133835D02*
X123831883Y-93253943D01*
X123967826Y-93390124D01*
X123639833Y-93389838D01*
X123296057Y-93531883D01*
X123032808Y-93794673D01*
X122982434Y-93915987D01*
X122403730Y-94494690D01*
X121558209Y-94494690D01*
X121504890Y-94458259D01*
X121367880Y-94430514D01*
X121488317Y-94407852D01*
X121704441Y-94268780D01*
X121849431Y-94056580D01*
X121900440Y-93804690D01*
X121900440Y-93154690D01*
X121870823Y-92997288D01*
X123645708Y-92997288D01*
X123782255Y-93133835D01*
G36*
X117004838Y-87063167D02*
X117146883Y-87406943D01*
X117409673Y-87670192D01*
X117753201Y-87812838D01*
X118125167Y-87813162D01*
X118367578Y-87713000D01*
X120039136Y-87713000D01*
X123553424Y-91227288D01*
X119890407Y-91227288D01*
X119890402Y-91227287D01*
X119607918Y-91283478D01*
X119551727Y-91294655D01*
X119264612Y-91486498D01*
X119264610Y-91486501D01*
X118243860Y-92507250D01*
X117993000Y-92507250D01*
X117757683Y-92551528D01*
X117612905Y-92644690D01*
X116758000Y-92644690D01*
X116758000Y-87175476D01*
X117004955Y-86928951D01*
X117004838Y-87063167D01*
X117004838Y-87063167D01*
G37*
X117004838Y-87063167D02*
X117146883Y-87406943D01*
X117409673Y-87670192D01*
X117753201Y-87812838D01*
X118125167Y-87813162D01*
X118367578Y-87713000D01*
X120039136Y-87713000D01*
X123553424Y-91227288D01*
X119890407Y-91227288D01*
X119890402Y-91227287D01*
X119607918Y-91283478D01*
X119551727Y-91294655D01*
X119264612Y-91486498D01*
X119264610Y-91486501D01*
X118243860Y-92507250D01*
X117993000Y-92507250D01*
X117757683Y-92551528D01*
X117612905Y-92644690D01*
X116758000Y-92644690D01*
X116758000Y-87175476D01*
X117004955Y-86928951D01*
X117004838Y-87063167D01*
G36*
X147597000Y-87577000D02*
X147577000Y-87577000D01*
X147577000Y-87597000D01*
X147323000Y-87597000D01*
X147323000Y-87577000D01*
X146373750Y-87577000D01*
X146215000Y-87735750D01*
X146215000Y-88026310D01*
X146311673Y-88259699D01*
X146431069Y-88379094D01*
X146336559Y-88439910D01*
X146231274Y-88594000D01*
X144929482Y-88594000D01*
X146088483Y-87434999D01*
X147597000Y-87434999D01*
X147597000Y-87577000D01*
X147597000Y-87577000D01*
G37*
X147597000Y-87577000D02*
X147577000Y-87577000D01*
X147577000Y-87597000D01*
X147323000Y-87597000D01*
X147323000Y-87577000D01*
X146373750Y-87577000D01*
X146215000Y-87735750D01*
X146215000Y-88026310D01*
X146311673Y-88259699D01*
X146431069Y-88379094D01*
X146336559Y-88439910D01*
X146231274Y-88594000D01*
X144929482Y-88594000D01*
X146088483Y-87434999D01*
X147597000Y-87434999D01*
X147597000Y-87577000D01*
M02*
