G04 #@! TF.FileFunction,Legend,Bot*
%FSLAX46Y46*%
G04 Gerber Fmt 4.6, Leading zero omitted, Abs format (unit mm)*
G04 Created by KiCad (PCBNEW 4.0.6+dfsg1-1) date Wed Jul 26 09:48:40 2017*
%MOMM*%
%LPD*%
G01*
G04 APERTURE LIST*
%ADD10C,0.100000*%
%ADD11C,0.120000*%
%ADD12C,0.150000*%
G04 APERTURE END LIST*
D10*
D11*
X137970000Y-78920000D02*
X137970000Y-81580000D01*
X132830000Y-78920000D02*
X137970000Y-78920000D01*
X132830000Y-81580000D02*
X137970000Y-81580000D01*
X132830000Y-78920000D02*
X132830000Y-81580000D01*
X131560000Y-78920000D02*
X130230000Y-78920000D01*
X130230000Y-78920000D02*
X130230000Y-80250000D01*
X113750000Y-108670000D02*
X114680000Y-108670000D01*
X116910000Y-108670000D02*
X115980000Y-108670000D01*
X116910000Y-108670000D02*
X116910000Y-110830000D01*
X113750000Y-108670000D02*
X113750000Y-110130000D01*
X112748000Y-94154690D02*
X112748000Y-94854690D01*
X113948000Y-94854690D02*
X113948000Y-94154690D01*
X119823000Y-97729690D02*
X119123000Y-97729690D01*
X119123000Y-98929690D02*
X119823000Y-98929690D01*
X114318000Y-114359000D02*
X114318000Y-113659000D01*
X113118000Y-113659000D02*
X113118000Y-114359000D01*
X122750000Y-107860000D02*
X122750000Y-108860000D01*
X122750000Y-108860000D02*
X120650000Y-108860000D01*
X122750000Y-107860000D02*
X120650000Y-107860000D01*
X116568000Y-122109000D02*
X116568000Y-122209000D01*
X112168000Y-120609000D02*
X116568000Y-120609000D01*
X116568000Y-123709000D02*
X112168000Y-123709000D01*
X112168000Y-122109000D02*
X112168000Y-122209000D01*
X118720000Y-115460000D02*
X118720000Y-114530000D01*
X118720000Y-112300000D02*
X118720000Y-113230000D01*
X118720000Y-112300000D02*
X120880000Y-112300000D01*
X118720000Y-115460000D02*
X120180000Y-115460000D01*
X148050000Y-88130000D02*
X149050000Y-88130000D01*
X149050000Y-86770000D02*
X148050000Y-86770000D01*
X148988000Y-88674000D02*
X147988000Y-88674000D01*
X147988000Y-90034000D02*
X148988000Y-90034000D01*
X121658000Y-105492000D02*
X120658000Y-105492000D01*
X120658000Y-106852000D02*
X121658000Y-106852000D01*
X114943000Y-93979690D02*
X114943000Y-94979690D01*
X116303000Y-94979690D02*
X116303000Y-93979690D01*
X115580000Y-113600000D02*
X115580000Y-114600000D01*
X116940000Y-114600000D02*
X116940000Y-113600000D01*
X122150000Y-113280000D02*
X122150000Y-114280000D01*
X123510000Y-114280000D02*
X123510000Y-113280000D01*
X118975000Y-101180000D02*
X119975000Y-101180000D01*
X119975000Y-99820000D02*
X118975000Y-99820000D01*
X142045000Y-121700000D02*
X142045000Y-122700000D01*
X143405000Y-122700000D02*
X143405000Y-121700000D01*
D12*
X144973880Y-112776800D02*
X144973880Y-118776800D01*
X144973880Y-118776800D02*
X126973880Y-118776800D01*
X126973880Y-118776800D02*
X126973880Y-112776800D01*
X126973880Y-112776800D02*
X144973880Y-112776800D01*
X144973880Y-112776800D02*
X144973880Y-93276800D01*
X144973880Y-93276800D02*
X126973880Y-93276800D01*
X126973880Y-93276800D02*
X126973880Y-112776800D01*
D11*
X118723000Y-92819690D02*
X120523000Y-92819690D01*
X120523000Y-96039690D02*
X118073000Y-96039690D01*
X140268000Y-121496000D02*
X129988000Y-121496000D01*
X129988000Y-121496000D02*
X129988000Y-118836000D01*
X129988000Y-118836000D02*
X140268000Y-118836000D01*
X140268000Y-118836000D02*
X140268000Y-121496000D01*
X139318000Y-118836000D02*
X139318000Y-112836000D01*
X139318000Y-112836000D02*
X138558000Y-112836000D01*
X138558000Y-112836000D02*
X138558000Y-118836000D01*
X139258000Y-118836000D02*
X139258000Y-112836000D01*
X139138000Y-118836000D02*
X139138000Y-112836000D01*
X139018000Y-118836000D02*
X139018000Y-112836000D01*
X138898000Y-118836000D02*
X138898000Y-112836000D01*
X138778000Y-118836000D02*
X138778000Y-112836000D01*
X138658000Y-118836000D02*
X138658000Y-112836000D01*
X139318000Y-121826000D02*
X139318000Y-121496000D01*
X138558000Y-121826000D02*
X138558000Y-121496000D01*
X137668000Y-121496000D02*
X137668000Y-118836000D01*
X136778000Y-118836000D02*
X136778000Y-112836000D01*
X136778000Y-112836000D02*
X136018000Y-112836000D01*
X136018000Y-112836000D02*
X136018000Y-118836000D01*
X136778000Y-121893071D02*
X136778000Y-121496000D01*
X136018000Y-121893071D02*
X136018000Y-121496000D01*
X135128000Y-121496000D02*
X135128000Y-118836000D01*
X134238000Y-118836000D02*
X134238000Y-112836000D01*
X134238000Y-112836000D02*
X133478000Y-112836000D01*
X133478000Y-112836000D02*
X133478000Y-118836000D01*
X134238000Y-121893071D02*
X134238000Y-121496000D01*
X133478000Y-121893071D02*
X133478000Y-121496000D01*
X132588000Y-121496000D02*
X132588000Y-118836000D01*
X131698000Y-118836000D02*
X131698000Y-112836000D01*
X131698000Y-112836000D02*
X130938000Y-112836000D01*
X130938000Y-112836000D02*
X130938000Y-118836000D01*
X131698000Y-121893071D02*
X131698000Y-121496000D01*
X130938000Y-121893071D02*
X130938000Y-121496000D01*
X138938000Y-124206000D02*
X140208000Y-124206000D01*
X140208000Y-124206000D02*
X140208000Y-122936000D01*
D12*
X134248095Y-83202381D02*
X134248095Y-82202381D01*
X133867142Y-82202381D01*
X133771904Y-82250000D01*
X133724285Y-82297619D01*
X133676666Y-82392857D01*
X133676666Y-82535714D01*
X133724285Y-82630952D01*
X133771904Y-82678571D01*
X133867142Y-82726190D01*
X134248095Y-82726190D01*
X133343333Y-82202381D02*
X132724285Y-82202381D01*
X133057619Y-82583333D01*
X132914761Y-82583333D01*
X132819523Y-82630952D01*
X132771904Y-82678571D01*
X132724285Y-82773810D01*
X132724285Y-83011905D01*
X132771904Y-83107143D01*
X132819523Y-83154762D01*
X132914761Y-83202381D01*
X133200476Y-83202381D01*
X133295714Y-83154762D01*
X133343333Y-83107143D01*
X115425238Y-107377619D02*
X115520476Y-107330000D01*
X115615714Y-107234762D01*
X115758571Y-107091905D01*
X115853810Y-107044286D01*
X115949048Y-107044286D01*
X115901429Y-107282381D02*
X115996667Y-107234762D01*
X116091905Y-107139524D01*
X116139524Y-106949048D01*
X116139524Y-106615714D01*
X116091905Y-106425238D01*
X115996667Y-106330000D01*
X115901429Y-106282381D01*
X115710952Y-106282381D01*
X115615714Y-106330000D01*
X115520476Y-106425238D01*
X115472857Y-106615714D01*
X115472857Y-106949048D01*
X115520476Y-107139524D01*
X115615714Y-107234762D01*
X115710952Y-107282381D01*
X115901429Y-107282381D01*
X115091905Y-106377619D02*
X115044286Y-106330000D01*
X114949048Y-106282381D01*
X114710952Y-106282381D01*
X114615714Y-106330000D01*
X114568095Y-106377619D01*
X114520476Y-106472857D01*
X114520476Y-106568095D01*
X114568095Y-106710952D01*
X115139524Y-107282381D01*
X114520476Y-107282381D01*
X112942666Y-97639143D02*
X112990285Y-97686762D01*
X113133142Y-97734381D01*
X113228380Y-97734381D01*
X113371238Y-97686762D01*
X113466476Y-97591524D01*
X113514095Y-97496286D01*
X113561714Y-97305810D01*
X113561714Y-97162952D01*
X113514095Y-96972476D01*
X113466476Y-96877238D01*
X113371238Y-96782000D01*
X113228380Y-96734381D01*
X113133142Y-96734381D01*
X112990285Y-96782000D01*
X112942666Y-96829619D01*
X112609333Y-96734381D02*
X111990285Y-96734381D01*
X112323619Y-97115333D01*
X112180761Y-97115333D01*
X112085523Y-97162952D01*
X112037904Y-97210571D01*
X111990285Y-97305810D01*
X111990285Y-97543905D01*
X112037904Y-97639143D01*
X112085523Y-97686762D01*
X112180761Y-97734381D01*
X112466476Y-97734381D01*
X112561714Y-97686762D01*
X112609333Y-97639143D01*
X122504666Y-98655143D02*
X122552285Y-98702762D01*
X122695142Y-98750381D01*
X122790380Y-98750381D01*
X122933238Y-98702762D01*
X123028476Y-98607524D01*
X123076095Y-98512286D01*
X123123714Y-98321810D01*
X123123714Y-98178952D01*
X123076095Y-97988476D01*
X123028476Y-97893238D01*
X122933238Y-97798000D01*
X122790380Y-97750381D01*
X122695142Y-97750381D01*
X122552285Y-97798000D01*
X122504666Y-97845619D01*
X121647523Y-98083714D02*
X121647523Y-98750381D01*
X121885619Y-97702762D02*
X122123714Y-98417048D01*
X121504666Y-98417048D01*
X113450666Y-117197143D02*
X113498285Y-117244762D01*
X113641142Y-117292381D01*
X113736380Y-117292381D01*
X113879238Y-117244762D01*
X113974476Y-117149524D01*
X114022095Y-117054286D01*
X114069714Y-116863810D01*
X114069714Y-116720952D01*
X114022095Y-116530476D01*
X113974476Y-116435238D01*
X113879238Y-116340000D01*
X113736380Y-116292381D01*
X113641142Y-116292381D01*
X113498285Y-116340000D01*
X113450666Y-116387619D01*
X112545904Y-116292381D02*
X113022095Y-116292381D01*
X113069714Y-116768571D01*
X113022095Y-116720952D01*
X112926857Y-116673333D01*
X112688761Y-116673333D01*
X112593523Y-116720952D01*
X112545904Y-116768571D01*
X112498285Y-116863810D01*
X112498285Y-117101905D01*
X112545904Y-117197143D01*
X112593523Y-117244762D01*
X112688761Y-117292381D01*
X112926857Y-117292381D01*
X113022095Y-117244762D01*
X113069714Y-117197143D01*
X122404095Y-110434381D02*
X122404095Y-109434381D01*
X122166000Y-109434381D01*
X122023142Y-109482000D01*
X121927904Y-109577238D01*
X121880285Y-109672476D01*
X121832666Y-109862952D01*
X121832666Y-110005810D01*
X121880285Y-110196286D01*
X121927904Y-110291524D01*
X122023142Y-110386762D01*
X122166000Y-110434381D01*
X122404095Y-110434381D01*
X121451714Y-109529619D02*
X121404095Y-109482000D01*
X121308857Y-109434381D01*
X121070761Y-109434381D01*
X120975523Y-109482000D01*
X120927904Y-109529619D01*
X120880285Y-109624857D01*
X120880285Y-109720095D01*
X120927904Y-109862952D01*
X121499333Y-110434381D01*
X120880285Y-110434381D01*
X116629905Y-125061381D02*
X116629905Y-124061381D01*
X116248952Y-124061381D01*
X116153714Y-124109000D01*
X116106095Y-124156619D01*
X116058476Y-124251857D01*
X116058476Y-124394714D01*
X116106095Y-124489952D01*
X116153714Y-124537571D01*
X116248952Y-124585190D01*
X116629905Y-124585190D01*
X115058476Y-125061381D02*
X115391810Y-124585190D01*
X115629905Y-125061381D02*
X115629905Y-124061381D01*
X115248952Y-124061381D01*
X115153714Y-124109000D01*
X115106095Y-124156619D01*
X115058476Y-124251857D01*
X115058476Y-124394714D01*
X115106095Y-124489952D01*
X115153714Y-124537571D01*
X115248952Y-124585190D01*
X115629905Y-124585190D01*
X114439429Y-124061381D02*
X114248952Y-124061381D01*
X114153714Y-124109000D01*
X114058476Y-124204238D01*
X114010857Y-124394714D01*
X114010857Y-124728048D01*
X114058476Y-124918524D01*
X114153714Y-125013762D01*
X114248952Y-125061381D01*
X114439429Y-125061381D01*
X114534667Y-125013762D01*
X114629905Y-124918524D01*
X114677524Y-124728048D01*
X114677524Y-124394714D01*
X114629905Y-124204238D01*
X114534667Y-124109000D01*
X114439429Y-124061381D01*
X113058476Y-124109000D02*
X113153714Y-124061381D01*
X113296571Y-124061381D01*
X113439429Y-124109000D01*
X113534667Y-124204238D01*
X113582286Y-124299476D01*
X113629905Y-124489952D01*
X113629905Y-124632810D01*
X113582286Y-124823286D01*
X113534667Y-124918524D01*
X113439429Y-125013762D01*
X113296571Y-125061381D01*
X113201333Y-125061381D01*
X113058476Y-125013762D01*
X113010857Y-124966143D01*
X113010857Y-124632810D01*
X113201333Y-124632810D01*
X112058476Y-125061381D02*
X112629905Y-125061381D01*
X112344191Y-125061381D02*
X112344191Y-124061381D01*
X112439429Y-124204238D01*
X112534667Y-124299476D01*
X112629905Y-124347095D01*
X119983238Y-117133619D02*
X120078476Y-117086000D01*
X120173714Y-116990762D01*
X120316571Y-116847905D01*
X120411810Y-116800286D01*
X120507048Y-116800286D01*
X120459429Y-117038381D02*
X120554667Y-116990762D01*
X120649905Y-116895524D01*
X120697524Y-116705048D01*
X120697524Y-116371714D01*
X120649905Y-116181238D01*
X120554667Y-116086000D01*
X120459429Y-116038381D01*
X120268952Y-116038381D01*
X120173714Y-116086000D01*
X120078476Y-116181238D01*
X120030857Y-116371714D01*
X120030857Y-116705048D01*
X120078476Y-116895524D01*
X120173714Y-116990762D01*
X120268952Y-117038381D01*
X120459429Y-117038381D01*
X119697524Y-116038381D02*
X119078476Y-116038381D01*
X119411810Y-116419333D01*
X119268952Y-116419333D01*
X119173714Y-116466952D01*
X119126095Y-116514571D01*
X119078476Y-116609810D01*
X119078476Y-116847905D01*
X119126095Y-116943143D01*
X119173714Y-116990762D01*
X119268952Y-117038381D01*
X119554667Y-117038381D01*
X119649905Y-116990762D01*
X119697524Y-116943143D01*
X145752666Y-87902381D02*
X146086000Y-87426190D01*
X146324095Y-87902381D02*
X146324095Y-86902381D01*
X145943142Y-86902381D01*
X145847904Y-86950000D01*
X145800285Y-86997619D01*
X145752666Y-87092857D01*
X145752666Y-87235714D01*
X145800285Y-87330952D01*
X145847904Y-87378571D01*
X145943142Y-87426190D01*
X146324095Y-87426190D01*
X144800285Y-87902381D02*
X145371714Y-87902381D01*
X145086000Y-87902381D02*
X145086000Y-86902381D01*
X145181238Y-87045238D01*
X145276476Y-87140476D01*
X145371714Y-87188095D01*
X145704666Y-89552381D02*
X146038000Y-89076190D01*
X146276095Y-89552381D02*
X146276095Y-88552381D01*
X145895142Y-88552381D01*
X145799904Y-88600000D01*
X145752285Y-88647619D01*
X145704666Y-88742857D01*
X145704666Y-88885714D01*
X145752285Y-88980952D01*
X145799904Y-89028571D01*
X145895142Y-89076190D01*
X146276095Y-89076190D01*
X145323714Y-88647619D02*
X145276095Y-88600000D01*
X145180857Y-88552381D01*
X144942761Y-88552381D01*
X144847523Y-88600000D01*
X144799904Y-88647619D01*
X144752285Y-88742857D01*
X144752285Y-88838095D01*
X144799904Y-88980952D01*
X145371333Y-89552381D01*
X144752285Y-89552381D01*
X121324666Y-105100381D02*
X121658000Y-104624190D01*
X121896095Y-105100381D02*
X121896095Y-104100381D01*
X121515142Y-104100381D01*
X121419904Y-104148000D01*
X121372285Y-104195619D01*
X121324666Y-104290857D01*
X121324666Y-104433714D01*
X121372285Y-104528952D01*
X121419904Y-104576571D01*
X121515142Y-104624190D01*
X121896095Y-104624190D01*
X120467523Y-104100381D02*
X120658000Y-104100381D01*
X120753238Y-104148000D01*
X120800857Y-104195619D01*
X120896095Y-104338476D01*
X120943714Y-104528952D01*
X120943714Y-104909905D01*
X120896095Y-105005143D01*
X120848476Y-105052762D01*
X120753238Y-105100381D01*
X120562761Y-105100381D01*
X120467523Y-105052762D01*
X120419904Y-105005143D01*
X120372285Y-104909905D01*
X120372285Y-104671810D01*
X120419904Y-104576571D01*
X120467523Y-104528952D01*
X120562761Y-104481333D01*
X120753238Y-104481333D01*
X120848476Y-104528952D01*
X120896095Y-104576571D01*
X120943714Y-104671810D01*
X116466857Y-97734381D02*
X116800191Y-97258190D01*
X117038286Y-97734381D02*
X117038286Y-96734381D01*
X116657333Y-96734381D01*
X116562095Y-96782000D01*
X116514476Y-96829619D01*
X116466857Y-96924857D01*
X116466857Y-97067714D01*
X116514476Y-97162952D01*
X116562095Y-97210571D01*
X116657333Y-97258190D01*
X117038286Y-97258190D01*
X115514476Y-97734381D02*
X116085905Y-97734381D01*
X115800191Y-97734381D02*
X115800191Y-96734381D01*
X115895429Y-96877238D01*
X115990667Y-96972476D01*
X116085905Y-97020095D01*
X114562095Y-97734381D02*
X115133524Y-97734381D01*
X114847810Y-97734381D02*
X114847810Y-96734381D01*
X114943048Y-96877238D01*
X115038286Y-96972476D01*
X115133524Y-97020095D01*
X117228857Y-117546381D02*
X117562191Y-117070190D01*
X117800286Y-117546381D02*
X117800286Y-116546381D01*
X117419333Y-116546381D01*
X117324095Y-116594000D01*
X117276476Y-116641619D01*
X117228857Y-116736857D01*
X117228857Y-116879714D01*
X117276476Y-116974952D01*
X117324095Y-117022571D01*
X117419333Y-117070190D01*
X117800286Y-117070190D01*
X116276476Y-117546381D02*
X116847905Y-117546381D01*
X116562191Y-117546381D02*
X116562191Y-116546381D01*
X116657429Y-116689238D01*
X116752667Y-116784476D01*
X116847905Y-116832095D01*
X115419333Y-116879714D02*
X115419333Y-117546381D01*
X115657429Y-116498762D02*
X115895524Y-117213048D01*
X115276476Y-117213048D01*
X123832857Y-117038381D02*
X124166191Y-116562190D01*
X124404286Y-117038381D02*
X124404286Y-116038381D01*
X124023333Y-116038381D01*
X123928095Y-116086000D01*
X123880476Y-116133619D01*
X123832857Y-116228857D01*
X123832857Y-116371714D01*
X123880476Y-116466952D01*
X123928095Y-116514571D01*
X124023333Y-116562190D01*
X124404286Y-116562190D01*
X122880476Y-117038381D02*
X123451905Y-117038381D01*
X123166191Y-117038381D02*
X123166191Y-116038381D01*
X123261429Y-116181238D01*
X123356667Y-116276476D01*
X123451905Y-116324095D01*
X121975714Y-116038381D02*
X122451905Y-116038381D01*
X122499524Y-116514571D01*
X122451905Y-116466952D01*
X122356667Y-116419333D01*
X122118571Y-116419333D01*
X122023333Y-116466952D01*
X121975714Y-116514571D01*
X121928095Y-116609810D01*
X121928095Y-116847905D01*
X121975714Y-116943143D01*
X122023333Y-116990762D01*
X122118571Y-117038381D01*
X122356667Y-117038381D01*
X122451905Y-116990762D01*
X122499524Y-116943143D01*
X120192857Y-102702381D02*
X120526191Y-102226190D01*
X120764286Y-102702381D02*
X120764286Y-101702381D01*
X120383333Y-101702381D01*
X120288095Y-101750000D01*
X120240476Y-101797619D01*
X120192857Y-101892857D01*
X120192857Y-102035714D01*
X120240476Y-102130952D01*
X120288095Y-102178571D01*
X120383333Y-102226190D01*
X120764286Y-102226190D01*
X119240476Y-102702381D02*
X119811905Y-102702381D01*
X119526191Y-102702381D02*
X119526191Y-101702381D01*
X119621429Y-101845238D01*
X119716667Y-101940476D01*
X119811905Y-101988095D01*
X118383333Y-101702381D02*
X118573810Y-101702381D01*
X118669048Y-101750000D01*
X118716667Y-101797619D01*
X118811905Y-101940476D01*
X118859524Y-102130952D01*
X118859524Y-102511905D01*
X118811905Y-102607143D01*
X118764286Y-102654762D01*
X118669048Y-102702381D01*
X118478571Y-102702381D01*
X118383333Y-102654762D01*
X118335714Y-102607143D01*
X118288095Y-102511905D01*
X118288095Y-102273810D01*
X118335714Y-102178571D01*
X118383333Y-102130952D01*
X118478571Y-102083333D01*
X118669048Y-102083333D01*
X118764286Y-102130952D01*
X118811905Y-102178571D01*
X118859524Y-102273810D01*
X143442857Y-119802381D02*
X143776191Y-119326190D01*
X144014286Y-119802381D02*
X144014286Y-118802381D01*
X143633333Y-118802381D01*
X143538095Y-118850000D01*
X143490476Y-118897619D01*
X143442857Y-118992857D01*
X143442857Y-119135714D01*
X143490476Y-119230952D01*
X143538095Y-119278571D01*
X143633333Y-119326190D01*
X144014286Y-119326190D01*
X143061905Y-118897619D02*
X143014286Y-118850000D01*
X142919048Y-118802381D01*
X142680952Y-118802381D01*
X142585714Y-118850000D01*
X142538095Y-118897619D01*
X142490476Y-118992857D01*
X142490476Y-119088095D01*
X142538095Y-119230952D01*
X143109524Y-119802381D01*
X142490476Y-119802381D01*
X141585714Y-118802381D02*
X142061905Y-118802381D01*
X142109524Y-119278571D01*
X142061905Y-119230952D01*
X141966667Y-119183333D01*
X141728571Y-119183333D01*
X141633333Y-119230952D01*
X141585714Y-119278571D01*
X141538095Y-119373810D01*
X141538095Y-119611905D01*
X141585714Y-119707143D01*
X141633333Y-119754762D01*
X141728571Y-119802381D01*
X141966667Y-119802381D01*
X142061905Y-119754762D01*
X142109524Y-119707143D01*
X144838385Y-91648381D02*
X144838385Y-92457905D01*
X144790766Y-92553143D01*
X144743147Y-92600762D01*
X144647909Y-92648381D01*
X144457432Y-92648381D01*
X144362194Y-92600762D01*
X144314575Y-92553143D01*
X144266956Y-92457905D01*
X144266956Y-91648381D01*
X143266956Y-92648381D02*
X143838385Y-92648381D01*
X143552671Y-92648381D02*
X143552671Y-91648381D01*
X143647909Y-91791238D01*
X143743147Y-91886476D01*
X143838385Y-91934095D01*
X121484905Y-91182071D02*
X121484905Y-91991595D01*
X121437286Y-92086833D01*
X121389667Y-92134452D01*
X121294429Y-92182071D01*
X121103952Y-92182071D01*
X121008714Y-92134452D01*
X120961095Y-92086833D01*
X120913476Y-91991595D01*
X120913476Y-91182071D01*
X119961095Y-91182071D02*
X120437286Y-91182071D01*
X120484905Y-91658261D01*
X120437286Y-91610642D01*
X120342048Y-91563023D01*
X120103952Y-91563023D01*
X120008714Y-91610642D01*
X119961095Y-91658261D01*
X119913476Y-91753500D01*
X119913476Y-91991595D01*
X119961095Y-92086833D01*
X120008714Y-92134452D01*
X120103952Y-92182071D01*
X120342048Y-92182071D01*
X120437286Y-92134452D01*
X120484905Y-92086833D01*
X140706095Y-125684381D02*
X140706095Y-124684381D01*
X140325142Y-124684381D01*
X140229904Y-124732000D01*
X140182285Y-124779619D01*
X140134666Y-124874857D01*
X140134666Y-125017714D01*
X140182285Y-125112952D01*
X140229904Y-125160571D01*
X140325142Y-125208190D01*
X140706095Y-125208190D01*
X139277523Y-125017714D02*
X139277523Y-125684381D01*
X139515619Y-124636762D02*
X139753714Y-125351048D01*
X139134666Y-125351048D01*
M02*
