G04 #@! TF.FileFunction,Soldermask,Bot*
%FSLAX46Y46*%
G04 Gerber Fmt 4.6, Leading zero omitted, Abs format (unit mm)*
G04 Created by KiCad (PCBNEW 4.0.6+dfsg1-1) date Mon Aug 14 15:02:38 2017*
%MOMM*%
%LPD*%
G01*
G04 APERTURE LIST*
%ADD10C,0.100000*%
%ADD11R,2.100000X2.100000*%
%ADD12O,2.100000X2.100000*%
%ADD13R,1.200000X1.300000*%
%ADD14R,1.150000X1.600000*%
%ADD15R,1.200000X1.200000*%
%ADD16R,2.200000X2.200000*%
%ADD17C,2.200000*%
%ADD18R,1.400000X1.300000*%
%ADD19R,1.300000X1.200000*%
%ADD20R,1.600000X1.300000*%
%ADD21R,1.300000X1.600000*%
%ADD22R,2.400000X1.400000*%
%ADD23R,1.400000X2.400000*%
%ADD24R,4.400000X4.400000*%
%ADD25R,1.460000X1.050000*%
%ADD26C,6.400000*%
%ADD27C,4.400000*%
%ADD28C,1.900000*%
%ADD29R,3.900000X3.900000*%
%ADD30R,1.200000X1.000000*%
%ADD31R,2.400000X4.200000*%
%ADD32R,2.400000X1.900000*%
%ADD33R,1.050000X1.460000*%
%ADD34R,1.150000X1.200000*%
G04 APERTURE END LIST*
D10*
D11*
X136652000Y-80250000D03*
D12*
X134112000Y-80250000D03*
X131572000Y-80250000D03*
D11*
X155638000Y-120304000D03*
D12*
X153098000Y-120304000D03*
X155638000Y-117764000D03*
X153098000Y-117764000D03*
X155638000Y-115224000D03*
X153098000Y-115224000D03*
X155638000Y-112684000D03*
X153098000Y-112684000D03*
X155638000Y-110144000D03*
X153098000Y-110144000D03*
X155638000Y-107604000D03*
X153098000Y-107604000D03*
X155638000Y-105064000D03*
X153098000Y-105064000D03*
X155638000Y-102524000D03*
X153098000Y-102524000D03*
X155638000Y-99984000D03*
X153098000Y-99984000D03*
X155638000Y-97444000D03*
X153098000Y-97444000D03*
X155638000Y-94904000D03*
X153098000Y-94904000D03*
X155638000Y-92364000D03*
X153098000Y-92364000D03*
X155638000Y-89824000D03*
X153098000Y-89824000D03*
X155638000Y-87284000D03*
X153098000Y-87284000D03*
X155638000Y-84744000D03*
X153098000Y-84744000D03*
X155638000Y-82204000D03*
X153098000Y-82204000D03*
D13*
X116280000Y-110430000D03*
X114380000Y-110430000D03*
X115330000Y-108430000D03*
D14*
X113718000Y-114959000D03*
X113718000Y-113059000D03*
D15*
X120650000Y-108360000D03*
X122250000Y-108360000D03*
D16*
X114046000Y-81153000D03*
D17*
X111506000Y-81153000D03*
D18*
X112318000Y-122959000D03*
X112318000Y-121359000D03*
X116418000Y-122959000D03*
X116418000Y-121359000D03*
D19*
X120480000Y-112930000D03*
X120480000Y-114830000D03*
X118480000Y-113880000D03*
D20*
X143019600Y-90373200D03*
X145219600Y-90373200D03*
X120058000Y-106172000D03*
X122258000Y-106172000D03*
D21*
X116260000Y-115200000D03*
X116260000Y-113000000D03*
X122830000Y-114880000D03*
X122830000Y-112680000D03*
D20*
X120575000Y-100500000D03*
X118375000Y-100500000D03*
D21*
X142725000Y-123300000D03*
X142725000Y-121100000D03*
D22*
X126973880Y-108756800D03*
X145007880Y-108728800D03*
D23*
X140435880Y-93262800D03*
X141705880Y-93262800D03*
X135355880Y-93262800D03*
X136625880Y-93262800D03*
X139165880Y-93262800D03*
X137895880Y-93262800D03*
X132815880Y-93262800D03*
X134085880Y-93262800D03*
X131545880Y-93262800D03*
X130275880Y-93262800D03*
D22*
X144991880Y-111276800D03*
X145007880Y-109998800D03*
X145007880Y-106188800D03*
X144991880Y-107466800D03*
X144991880Y-102386800D03*
X145007880Y-101108800D03*
X145007880Y-103648800D03*
X144991880Y-104926800D03*
X144991880Y-94766800D03*
X144991880Y-97306800D03*
X145007880Y-96028800D03*
X145007880Y-98568800D03*
X144991880Y-99846800D03*
X126957880Y-99846800D03*
X126973880Y-98568800D03*
X126973880Y-96028800D03*
X126957880Y-97306800D03*
X126957880Y-94766800D03*
X126957880Y-104926800D03*
X126973880Y-103648800D03*
X126973880Y-101108800D03*
X126957880Y-102386800D03*
X126957880Y-107466800D03*
X126973880Y-106188800D03*
X126973880Y-110026800D03*
X126973880Y-111296800D03*
D24*
X135300000Y-102610000D03*
D25*
X111658400Y-86766400D03*
X111658400Y-85816400D03*
X111658400Y-84866400D03*
X113858400Y-84866400D03*
X113858400Y-86766400D03*
D11*
X138938000Y-122936000D03*
D12*
X136398000Y-122936000D03*
X133858000Y-122936000D03*
X131318000Y-122936000D03*
D26*
X122075000Y-82450000D03*
X147025000Y-82450000D03*
X147025000Y-120950000D03*
X122075000Y-120950000D03*
D27*
X160950000Y-95400000D03*
X166650000Y-95400000D03*
X160950000Y-108700000D03*
X166650000Y-108700000D03*
D28*
X163950000Y-105550000D03*
X163950000Y-103050000D03*
X163950000Y-98550000D03*
X163950000Y-101050000D03*
X161350000Y-98550000D03*
X161350000Y-101050000D03*
X161350000Y-103050000D03*
X161350000Y-105550000D03*
D27*
X97874000Y-94728000D03*
D29*
X97874000Y-101728000D03*
D30*
X122361960Y-89953200D03*
X122361960Y-88253200D03*
D20*
X122496400Y-91592400D03*
X124696400Y-91592400D03*
D31*
X133858000Y-87376000D03*
D32*
X127558000Y-87376000D03*
X127558000Y-85076000D03*
X127558000Y-89676000D03*
D33*
X104480400Y-97985760D03*
X103530400Y-97985760D03*
X102580400Y-97985760D03*
X102580400Y-95785760D03*
X104480400Y-95785760D03*
D34*
X124673360Y-88378600D03*
X124673360Y-89878600D03*
D33*
X112649040Y-97985760D03*
X111699040Y-97985760D03*
X110749040Y-97985760D03*
X110749040Y-95785760D03*
X112649040Y-95785760D03*
D21*
X106644440Y-95778320D03*
X106644440Y-97978320D03*
X115463320Y-95907680D03*
X115463320Y-98107680D03*
D20*
X108701480Y-99903280D03*
X110901480Y-99903280D03*
D21*
X117647720Y-98158480D03*
X117647720Y-95958480D03*
X108595160Y-97937320D03*
X108595160Y-95737320D03*
M02*
