G04 #@! TF.GenerationSoftware,KiCad,Pcbnew,6.0.0-rc1-unknown-7a10feb~66~ubuntu18.04.1*
G04 #@! TF.CreationDate,2018-08-22T16:05:21-05:00*
G04 #@! TF.ProjectId,smart-regulator,736D6172742D726567756C61746F722E,rev?*
G04 #@! TF.SameCoordinates,Original*
G04 #@! TF.FileFunction,Legend,Bot*
G04 #@! TF.FilePolarity,Positive*
%FSLAX46Y46*%
G04 Gerber Fmt 4.6, Leading zero omitted, Abs format (unit mm)*
G04 Created by KiCad (PCBNEW 6.0.0-rc1-unknown-7a10feb~66~ubuntu18.04.1) date Wed Aug 22 16:05:21 2018*
%MOMM*%
%LPD*%
G01*
G04 APERTURE LIST*
%ADD10C,0.150000*%
%ADD11C,0.120000*%
G04 APERTURE END LIST*
D10*
X160133333Y-80500000D02*
X160200000Y-80466666D01*
X160300000Y-80466666D01*
X160400000Y-80500000D01*
X160466666Y-80566666D01*
X160500000Y-80633333D01*
X160533333Y-80766666D01*
X160533333Y-80866666D01*
X160500000Y-81000000D01*
X160466666Y-81066666D01*
X160400000Y-81133333D01*
X160300000Y-81166666D01*
X160233333Y-81166666D01*
X160133333Y-81133333D01*
X160100000Y-81100000D01*
X160100000Y-80866666D01*
X160233333Y-80866666D01*
X159800000Y-81166666D02*
X159800000Y-80466666D01*
X159400000Y-81166666D01*
X159400000Y-80466666D01*
X159066666Y-81166666D02*
X159066666Y-80466666D01*
X158900000Y-80466666D01*
X158800000Y-80500000D01*
X158733333Y-80566666D01*
X158700000Y-80633333D01*
X158666666Y-80766666D01*
X158666666Y-80866666D01*
X158700000Y-81000000D01*
X158733333Y-81066666D01*
X158800000Y-81133333D01*
X158900000Y-81166666D01*
X159066666Y-81166666D01*
X170516666Y-80466666D02*
X170083333Y-80466666D01*
X170316666Y-80733333D01*
X170216666Y-80733333D01*
X170150000Y-80766666D01*
X170116666Y-80800000D01*
X170083333Y-80866666D01*
X170083333Y-81033333D01*
X170116666Y-81100000D01*
X170150000Y-81133333D01*
X170216666Y-81166666D01*
X170416666Y-81166666D01*
X170483333Y-81133333D01*
X170516666Y-81100000D01*
X169883333Y-80466666D02*
X169650000Y-81166666D01*
X169416666Y-80466666D01*
X169250000Y-80466666D02*
X168816666Y-80466666D01*
X169050000Y-80733333D01*
X168950000Y-80733333D01*
X168883333Y-80766666D01*
X168850000Y-80800000D01*
X168816666Y-80866666D01*
X168816666Y-81033333D01*
X168850000Y-81100000D01*
X168883333Y-81133333D01*
X168950000Y-81166666D01*
X169150000Y-81166666D01*
X169216666Y-81133333D01*
X169250000Y-81100000D01*
X165433333Y-81183333D02*
X165333333Y-81216666D01*
X165166666Y-81216666D01*
X165100000Y-81183333D01*
X165066666Y-81150000D01*
X165033333Y-81083333D01*
X165033333Y-81016666D01*
X165066666Y-80950000D01*
X165100000Y-80916666D01*
X165166666Y-80883333D01*
X165300000Y-80850000D01*
X165366666Y-80816666D01*
X165400000Y-80783333D01*
X165433333Y-80716666D01*
X165433333Y-80650000D01*
X165400000Y-80583333D01*
X165366666Y-80550000D01*
X165300000Y-80516666D01*
X165133333Y-80516666D01*
X165033333Y-80550000D01*
X164333333Y-81150000D02*
X164366666Y-81183333D01*
X164466666Y-81216666D01*
X164533333Y-81216666D01*
X164633333Y-81183333D01*
X164700000Y-81116666D01*
X164733333Y-81050000D01*
X164766666Y-80916666D01*
X164766666Y-80816666D01*
X164733333Y-80683333D01*
X164700000Y-80616666D01*
X164633333Y-80550000D01*
X164533333Y-80516666D01*
X164466666Y-80516666D01*
X164366666Y-80550000D01*
X164333333Y-80583333D01*
X163700000Y-81216666D02*
X164033333Y-81216666D01*
X164033333Y-80516666D01*
X168000000Y-81133333D02*
X167900000Y-81166666D01*
X167733333Y-81166666D01*
X167666666Y-81133333D01*
X167633333Y-81100000D01*
X167600000Y-81033333D01*
X167600000Y-80966666D01*
X167633333Y-80900000D01*
X167666666Y-80866666D01*
X167733333Y-80833333D01*
X167866666Y-80800000D01*
X167933333Y-80766666D01*
X167966666Y-80733333D01*
X168000000Y-80666666D01*
X168000000Y-80600000D01*
X167966666Y-80533333D01*
X167933333Y-80500000D01*
X167866666Y-80466666D01*
X167700000Y-80466666D01*
X167600000Y-80500000D01*
X167300000Y-81166666D02*
X167300000Y-80466666D01*
X167133333Y-80466666D01*
X167033333Y-80500000D01*
X166966666Y-80566666D01*
X166933333Y-80633333D01*
X166900000Y-80766666D01*
X166900000Y-80866666D01*
X166933333Y-81000000D01*
X166966666Y-81066666D01*
X167033333Y-81133333D01*
X167133333Y-81166666D01*
X167300000Y-81166666D01*
X166633333Y-80966666D02*
X166300000Y-80966666D01*
X166700000Y-81166666D02*
X166466666Y-80466666D01*
X166233333Y-81166666D01*
X160016666Y-87366666D02*
X160250000Y-87033333D01*
X160416666Y-87366666D02*
X160416666Y-86666666D01*
X160150000Y-86666666D01*
X160083333Y-86700000D01*
X160050000Y-86733333D01*
X160016666Y-86800000D01*
X160016666Y-86900000D01*
X160050000Y-86966666D01*
X160083333Y-87000000D01*
X160150000Y-87033333D01*
X160416666Y-87033333D01*
X159783333Y-86666666D02*
X159316666Y-87366666D01*
X159316666Y-86666666D02*
X159783333Y-87366666D01*
X162583333Y-86566666D02*
X162183333Y-86566666D01*
X162383333Y-87266666D02*
X162383333Y-86566666D01*
X162016666Y-86566666D02*
X161550000Y-87266666D01*
X161550000Y-86566666D02*
X162016666Y-87266666D01*
X168083333Y-86616666D02*
X168083333Y-87183333D01*
X168050000Y-87250000D01*
X168016666Y-87283333D01*
X167950000Y-87316666D01*
X167816666Y-87316666D01*
X167750000Y-87283333D01*
X167716666Y-87250000D01*
X167683333Y-87183333D01*
X167683333Y-86616666D01*
X167383333Y-87283333D02*
X167283333Y-87316666D01*
X167116666Y-87316666D01*
X167050000Y-87283333D01*
X167016666Y-87250000D01*
X166983333Y-87183333D01*
X166983333Y-87116666D01*
X167016666Y-87050000D01*
X167050000Y-87016666D01*
X167116666Y-86983333D01*
X167250000Y-86950000D01*
X167316666Y-86916666D01*
X167350000Y-86883333D01*
X167383333Y-86816666D01*
X167383333Y-86750000D01*
X167350000Y-86683333D01*
X167316666Y-86650000D01*
X167250000Y-86616666D01*
X167083333Y-86616666D01*
X166983333Y-86650000D01*
X166450000Y-86950000D02*
X166350000Y-86983333D01*
X166316666Y-87016666D01*
X166283333Y-87083333D01*
X166283333Y-87183333D01*
X166316666Y-87250000D01*
X166350000Y-87283333D01*
X166416666Y-87316666D01*
X166683333Y-87316666D01*
X166683333Y-86616666D01*
X166450000Y-86616666D01*
X166383333Y-86650000D01*
X166350000Y-86683333D01*
X166316666Y-86750000D01*
X166316666Y-86816666D01*
X166350000Y-86883333D01*
X166383333Y-86916666D01*
X166450000Y-86950000D01*
X166683333Y-86950000D01*
X147433333Y-86650000D02*
X147500000Y-86616666D01*
X147600000Y-86616666D01*
X147700000Y-86650000D01*
X147766666Y-86716666D01*
X147800000Y-86783333D01*
X147833333Y-86916666D01*
X147833333Y-87016666D01*
X147800000Y-87150000D01*
X147766666Y-87216666D01*
X147700000Y-87283333D01*
X147600000Y-87316666D01*
X147533333Y-87316666D01*
X147433333Y-87283333D01*
X147400000Y-87250000D01*
X147400000Y-87016666D01*
X147533333Y-87016666D01*
X147100000Y-87316666D02*
X147100000Y-86616666D01*
X146700000Y-87316666D01*
X146700000Y-86616666D01*
X146366666Y-87316666D02*
X146366666Y-86616666D01*
X146200000Y-86616666D01*
X146100000Y-86650000D01*
X146033333Y-86716666D01*
X146000000Y-86783333D01*
X145966666Y-86916666D01*
X145966666Y-87016666D01*
X146000000Y-87150000D01*
X146033333Y-87216666D01*
X146100000Y-87283333D01*
X146200000Y-87316666D01*
X146366666Y-87316666D01*
D11*
G04 #@! TO.C,U9*
X154666000Y-107476000D02*
X151716000Y-107476000D01*
X152866000Y-104256000D02*
X154666000Y-104256000D01*
D10*
G04 #@! TO.C,U4*
X118960000Y-130660000D02*
X118960000Y-120510000D01*
X118960000Y-120510000D02*
X128900000Y-120500000D01*
X128900000Y-120500000D02*
X128900000Y-130650000D01*
X128900000Y-130650000D02*
X118960000Y-130660000D01*
G04 #@! TO.C,U5*
X141437000Y-98500000D02*
X131497000Y-98510000D01*
X141437000Y-88350000D02*
X141437000Y-98500000D01*
X131497000Y-88360000D02*
X141437000Y-88350000D01*
X131497000Y-98510000D02*
X131497000Y-88360000D01*
D11*
G04 #@! TO.C,R12*
X145765733Y-115577000D02*
X146108267Y-115577000D01*
X145765733Y-114557000D02*
X146108267Y-114557000D01*
G04 #@! TO.C,R13*
X133146267Y-133060000D02*
X132803733Y-133060000D01*
X133146267Y-132040000D02*
X132803733Y-132040000D01*
G04 #@! TO.C,R14*
X132753733Y-134610000D02*
X133096267Y-134610000D01*
X132753733Y-133590000D02*
X133096267Y-133590000D01*
G04 #@! TO.C,R15*
X145633267Y-98575000D02*
X145290733Y-98575000D01*
X145633267Y-99595000D02*
X145290733Y-99595000D01*
G04 #@! TO.C,R16*
X145315733Y-100350000D02*
X145658267Y-100350000D01*
X145315733Y-101370000D02*
X145658267Y-101370000D01*
G04 #@! TO.C,C8*
X149331733Y-88767000D02*
X149674267Y-88767000D01*
X149331733Y-87747000D02*
X149674267Y-87747000D01*
G04 #@! TO.C,C9*
X149019733Y-104336000D02*
X149362267Y-104336000D01*
X149019733Y-105356000D02*
X149362267Y-105356000D01*
G04 #@! TO.C,C10*
X140453733Y-122010000D02*
X140796267Y-122010000D01*
X140453733Y-120990000D02*
X140796267Y-120990000D01*
G04 #@! TO.C,R7*
X149697436Y-113280000D02*
X153801564Y-113280000D01*
X149697436Y-109860000D02*
X153801564Y-109860000D01*
G04 #@! TO.C,R8*
X141711936Y-128456000D02*
X145816064Y-128456000D01*
X141711936Y-125036000D02*
X145816064Y-125036000D01*
G04 #@! TO.C,R10*
X149409936Y-93475000D02*
X153514064Y-93475000D01*
X149409936Y-96895000D02*
X153514064Y-96895000D01*
G04 #@! TO.C,R11*
X146108267Y-117096000D02*
X145765733Y-117096000D01*
X146108267Y-116076000D02*
X145765733Y-116076000D01*
G04 #@! TO.C,U8*
X155928000Y-90842000D02*
X152978000Y-90842000D01*
X154128000Y-87622000D02*
X155928000Y-87622000D01*
G04 #@! TO.C,U10*
X144642000Y-120818000D02*
X146442000Y-120818000D01*
X146442000Y-124038000D02*
X143492000Y-124038000D01*
G04 #@! TO.C,U12*
X172335000Y-123340000D02*
X172335000Y-124600000D01*
X172335000Y-130160000D02*
X172335000Y-128900000D01*
X168575000Y-123340000D02*
X172335000Y-123340000D01*
X166325000Y-130160000D02*
X172335000Y-130160000D01*
D10*
G04 #@! TO.C,U3*
X141937000Y-114835000D02*
X131997000Y-114845000D01*
X141937000Y-104685000D02*
X141937000Y-114835000D01*
X131997000Y-104695000D02*
X141937000Y-104685000D01*
X131997000Y-114845000D02*
X131997000Y-104695000D01*
D11*
G04 #@! TO.C,J2*
X171130000Y-86470000D02*
X171130000Y-83870000D01*
X171130000Y-86470000D02*
X120210000Y-86470000D01*
X120210000Y-86470000D02*
X120210000Y-81270000D01*
X168530000Y-81270000D02*
X120210000Y-81270000D01*
X168530000Y-83870000D02*
X168530000Y-81270000D01*
X171130000Y-83870000D02*
X168530000Y-83870000D01*
X171130000Y-81270000D02*
X169800000Y-81270000D01*
X171130000Y-82600000D02*
X171130000Y-81270000D01*
G04 #@! TO.C,C5*
X149410267Y-106936000D02*
X149067733Y-106936000D01*
X149410267Y-105916000D02*
X149067733Y-105916000D01*
G04 #@! TO.C,C6*
X140796267Y-122515000D02*
X140453733Y-122515000D01*
X140796267Y-123535000D02*
X140453733Y-123535000D01*
G04 #@! TO.C,C7*
X149699267Y-89547000D02*
X149356733Y-89547000D01*
X149699267Y-90567000D02*
X149356733Y-90567000D01*
G04 #@! TO.C,R23*
X143921267Y-87240000D02*
X143578733Y-87240000D01*
X143921267Y-88260000D02*
X143578733Y-88260000D01*
G04 #@! TO.C,R24*
X144371267Y-104760000D02*
X144028733Y-104760000D01*
X144371267Y-103740000D02*
X144028733Y-103740000D01*
G04 #@! TO.C,R25*
X135771267Y-120640000D02*
X135428733Y-120640000D01*
X135771267Y-121660000D02*
X135428733Y-121660000D01*
G04 #@! TO.C,D4*
X146025000Y-134450000D02*
X146025000Y-127950000D01*
X146025000Y-134450000D02*
X137625000Y-134450000D01*
X146025000Y-127950000D02*
X137625000Y-127950000D01*
G04 #@! TO.C,D5*
X158025000Y-113575000D02*
X149625000Y-113575000D01*
X158025000Y-120075000D02*
X149625000Y-120075000D01*
X158025000Y-120075000D02*
X158025000Y-113575000D01*
G04 #@! TO.C,D6*
X158500000Y-103525000D02*
X158500000Y-97025000D01*
X158500000Y-103525000D02*
X150100000Y-103525000D01*
X158500000Y-97025000D02*
X150100000Y-97025000D01*
G04 #@! TO.C,D7*
X160663500Y-122480000D02*
X152263500Y-122480000D01*
X160663500Y-128980000D02*
X152263500Y-128980000D01*
X160663500Y-128980000D02*
X160663500Y-122480000D01*
G04 #@! TO.C,D9*
X160692500Y-135076000D02*
X160692500Y-128576000D01*
X160692500Y-135076000D02*
X152292500Y-135076000D01*
X160692500Y-128576000D02*
X152292500Y-128576000D01*
G04 #@! TO.C,U9*
D10*
X157704404Y-103808380D02*
X157704404Y-104617904D01*
X157656785Y-104713142D01*
X157609166Y-104760761D01*
X157513928Y-104808380D01*
X157323452Y-104808380D01*
X157228214Y-104760761D01*
X157180595Y-104713142D01*
X157132976Y-104617904D01*
X157132976Y-103808380D01*
X156609166Y-104808380D02*
X156418690Y-104808380D01*
X156323452Y-104760761D01*
X156275833Y-104713142D01*
X156180595Y-104570285D01*
X156132976Y-104379809D01*
X156132976Y-103998857D01*
X156180595Y-103903619D01*
X156228214Y-103856000D01*
X156323452Y-103808380D01*
X156513928Y-103808380D01*
X156609166Y-103856000D01*
X156656785Y-103903619D01*
X156704404Y-103998857D01*
X156704404Y-104236952D01*
X156656785Y-104332190D01*
X156609166Y-104379809D01*
X156513928Y-104427428D01*
X156323452Y-104427428D01*
X156228214Y-104379809D01*
X156180595Y-104332190D01*
X156132976Y-104236952D01*
G04 #@! TO.C,U4*
X124443333Y-130316666D02*
X124443333Y-130883333D01*
X124410000Y-130950000D01*
X124376666Y-130983333D01*
X124310000Y-131016666D01*
X124176666Y-131016666D01*
X124110000Y-130983333D01*
X124076666Y-130950000D01*
X124043333Y-130883333D01*
X124043333Y-130316666D01*
X123410000Y-130550000D02*
X123410000Y-131016666D01*
X123576666Y-130283333D02*
X123743333Y-130783333D01*
X123310000Y-130783333D01*
G04 #@! TO.C,U5*
X137630333Y-87406666D02*
X137630333Y-87973333D01*
X137597000Y-88040000D01*
X137563666Y-88073333D01*
X137497000Y-88106666D01*
X137363666Y-88106666D01*
X137297000Y-88073333D01*
X137263666Y-88040000D01*
X137230333Y-87973333D01*
X137230333Y-87406666D01*
X136563666Y-87406666D02*
X136897000Y-87406666D01*
X136930333Y-87740000D01*
X136897000Y-87706666D01*
X136830333Y-87673333D01*
X136663666Y-87673333D01*
X136597000Y-87706666D01*
X136563666Y-87740000D01*
X136530333Y-87806666D01*
X136530333Y-87973333D01*
X136563666Y-88040000D01*
X136597000Y-88073333D01*
X136663666Y-88106666D01*
X136830333Y-88106666D01*
X136897000Y-88073333D01*
X136930333Y-88040000D01*
G04 #@! TO.C,R12*
X143215406Y-115902380D02*
X143548739Y-115426190D01*
X143786834Y-115902380D02*
X143786834Y-114902380D01*
X143405882Y-114902380D01*
X143310644Y-114950000D01*
X143263025Y-114997619D01*
X143215406Y-115092857D01*
X143215406Y-115235714D01*
X143263025Y-115330952D01*
X143310644Y-115378571D01*
X143405882Y-115426190D01*
X143786834Y-115426190D01*
X142263025Y-115902380D02*
X142834453Y-115902380D01*
X142548739Y-115902380D02*
X142548739Y-114902380D01*
X142643977Y-115045238D01*
X142739215Y-115140476D01*
X142834453Y-115188095D01*
X141882072Y-114997619D02*
X141834453Y-114950000D01*
X141739215Y-114902380D01*
X141501120Y-114902380D01*
X141405882Y-114950000D01*
X141358263Y-114997619D01*
X141310644Y-115092857D01*
X141310644Y-115188095D01*
X141358263Y-115330952D01*
X141929691Y-115902380D01*
X141310644Y-115902380D01*
G04 #@! TO.C,R13*
X130417857Y-133202380D02*
X130751190Y-132726190D01*
X130989285Y-133202380D02*
X130989285Y-132202380D01*
X130608333Y-132202380D01*
X130513095Y-132250000D01*
X130465476Y-132297619D01*
X130417857Y-132392857D01*
X130417857Y-132535714D01*
X130465476Y-132630952D01*
X130513095Y-132678571D01*
X130608333Y-132726190D01*
X130989285Y-132726190D01*
X129465476Y-133202380D02*
X130036904Y-133202380D01*
X129751190Y-133202380D02*
X129751190Y-132202380D01*
X129846428Y-132345238D01*
X129941666Y-132440476D01*
X130036904Y-132488095D01*
X129132142Y-132202380D02*
X128513095Y-132202380D01*
X128846428Y-132583333D01*
X128703571Y-132583333D01*
X128608333Y-132630952D01*
X128560714Y-132678571D01*
X128513095Y-132773809D01*
X128513095Y-133011904D01*
X128560714Y-133107142D01*
X128608333Y-133154761D01*
X128703571Y-133202380D01*
X128989285Y-133202380D01*
X129084523Y-133154761D01*
X129132142Y-133107142D01*
G04 #@! TO.C,R14*
X130367857Y-134552380D02*
X130701190Y-134076190D01*
X130939285Y-134552380D02*
X130939285Y-133552380D01*
X130558333Y-133552380D01*
X130463095Y-133600000D01*
X130415476Y-133647619D01*
X130367857Y-133742857D01*
X130367857Y-133885714D01*
X130415476Y-133980952D01*
X130463095Y-134028571D01*
X130558333Y-134076190D01*
X130939285Y-134076190D01*
X129415476Y-134552380D02*
X129986904Y-134552380D01*
X129701190Y-134552380D02*
X129701190Y-133552380D01*
X129796428Y-133695238D01*
X129891666Y-133790476D01*
X129986904Y-133838095D01*
X128558333Y-133885714D02*
X128558333Y-134552380D01*
X128796428Y-133504761D02*
X129034523Y-134219047D01*
X128415476Y-134219047D01*
G04 #@! TO.C,R15*
X143042857Y-99702380D02*
X143376190Y-99226190D01*
X143614285Y-99702380D02*
X143614285Y-98702380D01*
X143233333Y-98702380D01*
X143138095Y-98750000D01*
X143090476Y-98797619D01*
X143042857Y-98892857D01*
X143042857Y-99035714D01*
X143090476Y-99130952D01*
X143138095Y-99178571D01*
X143233333Y-99226190D01*
X143614285Y-99226190D01*
X142090476Y-99702380D02*
X142661904Y-99702380D01*
X142376190Y-99702380D02*
X142376190Y-98702380D01*
X142471428Y-98845238D01*
X142566666Y-98940476D01*
X142661904Y-98988095D01*
X141185714Y-98702380D02*
X141661904Y-98702380D01*
X141709523Y-99178571D01*
X141661904Y-99130952D01*
X141566666Y-99083333D01*
X141328571Y-99083333D01*
X141233333Y-99130952D01*
X141185714Y-99178571D01*
X141138095Y-99273809D01*
X141138095Y-99511904D01*
X141185714Y-99607142D01*
X141233333Y-99654761D01*
X141328571Y-99702380D01*
X141566666Y-99702380D01*
X141661904Y-99654761D01*
X141709523Y-99607142D01*
G04 #@! TO.C,R16*
X143042857Y-101402380D02*
X143376190Y-100926190D01*
X143614285Y-101402380D02*
X143614285Y-100402380D01*
X143233333Y-100402380D01*
X143138095Y-100450000D01*
X143090476Y-100497619D01*
X143042857Y-100592857D01*
X143042857Y-100735714D01*
X143090476Y-100830952D01*
X143138095Y-100878571D01*
X143233333Y-100926190D01*
X143614285Y-100926190D01*
X142090476Y-101402380D02*
X142661904Y-101402380D01*
X142376190Y-101402380D02*
X142376190Y-100402380D01*
X142471428Y-100545238D01*
X142566666Y-100640476D01*
X142661904Y-100688095D01*
X141233333Y-100402380D02*
X141423809Y-100402380D01*
X141519047Y-100450000D01*
X141566666Y-100497619D01*
X141661904Y-100640476D01*
X141709523Y-100830952D01*
X141709523Y-101211904D01*
X141661904Y-101307142D01*
X141614285Y-101354761D01*
X141519047Y-101402380D01*
X141328571Y-101402380D01*
X141233333Y-101354761D01*
X141185714Y-101307142D01*
X141138095Y-101211904D01*
X141138095Y-100973809D01*
X141185714Y-100878571D01*
X141233333Y-100830952D01*
X141328571Y-100783333D01*
X141519047Y-100783333D01*
X141614285Y-100830952D01*
X141661904Y-100878571D01*
X141709523Y-100973809D01*
G04 #@! TO.C,C8*
X147366666Y-88707142D02*
X147414285Y-88754761D01*
X147557142Y-88802380D01*
X147652380Y-88802380D01*
X147795238Y-88754761D01*
X147890476Y-88659523D01*
X147938095Y-88564285D01*
X147985714Y-88373809D01*
X147985714Y-88230952D01*
X147938095Y-88040476D01*
X147890476Y-87945238D01*
X147795238Y-87850000D01*
X147652380Y-87802380D01*
X147557142Y-87802380D01*
X147414285Y-87850000D01*
X147366666Y-87897619D01*
X146795238Y-88230952D02*
X146890476Y-88183333D01*
X146938095Y-88135714D01*
X146985714Y-88040476D01*
X146985714Y-87992857D01*
X146938095Y-87897619D01*
X146890476Y-87850000D01*
X146795238Y-87802380D01*
X146604761Y-87802380D01*
X146509523Y-87850000D01*
X146461904Y-87897619D01*
X146414285Y-87992857D01*
X146414285Y-88040476D01*
X146461904Y-88135714D01*
X146509523Y-88183333D01*
X146604761Y-88230952D01*
X146795238Y-88230952D01*
X146890476Y-88278571D01*
X146938095Y-88326190D01*
X146985714Y-88421428D01*
X146985714Y-88611904D01*
X146938095Y-88707142D01*
X146890476Y-88754761D01*
X146795238Y-88802380D01*
X146604761Y-88802380D01*
X146509523Y-88754761D01*
X146461904Y-88707142D01*
X146414285Y-88611904D01*
X146414285Y-88421428D01*
X146461904Y-88326190D01*
X146509523Y-88278571D01*
X146604761Y-88230952D01*
G04 #@! TO.C,C9*
X149357666Y-103713142D02*
X149405285Y-103760761D01*
X149548142Y-103808380D01*
X149643380Y-103808380D01*
X149786238Y-103760761D01*
X149881476Y-103665523D01*
X149929095Y-103570285D01*
X149976714Y-103379809D01*
X149976714Y-103236952D01*
X149929095Y-103046476D01*
X149881476Y-102951238D01*
X149786238Y-102856000D01*
X149643380Y-102808380D01*
X149548142Y-102808380D01*
X149405285Y-102856000D01*
X149357666Y-102903619D01*
X148881476Y-103808380D02*
X148691000Y-103808380D01*
X148595761Y-103760761D01*
X148548142Y-103713142D01*
X148452904Y-103570285D01*
X148405285Y-103379809D01*
X148405285Y-102998857D01*
X148452904Y-102903619D01*
X148500523Y-102856000D01*
X148595761Y-102808380D01*
X148786238Y-102808380D01*
X148881476Y-102856000D01*
X148929095Y-102903619D01*
X148976714Y-102998857D01*
X148976714Y-103236952D01*
X148929095Y-103332190D01*
X148881476Y-103379809D01*
X148786238Y-103427428D01*
X148595761Y-103427428D01*
X148500523Y-103379809D01*
X148452904Y-103332190D01*
X148405285Y-103236952D01*
G04 #@! TO.C,C10*
X138197857Y-122287142D02*
X138245476Y-122334761D01*
X138388333Y-122382380D01*
X138483571Y-122382380D01*
X138626428Y-122334761D01*
X138721666Y-122239523D01*
X138769285Y-122144285D01*
X138816904Y-121953809D01*
X138816904Y-121810952D01*
X138769285Y-121620476D01*
X138721666Y-121525238D01*
X138626428Y-121430000D01*
X138483571Y-121382380D01*
X138388333Y-121382380D01*
X138245476Y-121430000D01*
X138197857Y-121477619D01*
X137245476Y-122382380D02*
X137816904Y-122382380D01*
X137531190Y-122382380D02*
X137531190Y-121382380D01*
X137626428Y-121525238D01*
X137721666Y-121620476D01*
X137816904Y-121668095D01*
X136626428Y-121382380D02*
X136531190Y-121382380D01*
X136435952Y-121430000D01*
X136388333Y-121477619D01*
X136340714Y-121572857D01*
X136293095Y-121763333D01*
X136293095Y-122001428D01*
X136340714Y-122191904D01*
X136388333Y-122287142D01*
X136435952Y-122334761D01*
X136531190Y-122382380D01*
X136626428Y-122382380D01*
X136721666Y-122334761D01*
X136769285Y-122287142D01*
X136816904Y-122191904D01*
X136864523Y-122001428D01*
X136864523Y-121763333D01*
X136816904Y-121572857D01*
X136769285Y-121477619D01*
X136721666Y-121430000D01*
X136626428Y-121382380D01*
G04 #@! TO.C,R7*
X154726166Y-109562380D02*
X155059500Y-109086190D01*
X155297595Y-109562380D02*
X155297595Y-108562380D01*
X154916642Y-108562380D01*
X154821404Y-108610000D01*
X154773785Y-108657619D01*
X154726166Y-108752857D01*
X154726166Y-108895714D01*
X154773785Y-108990952D01*
X154821404Y-109038571D01*
X154916642Y-109086190D01*
X155297595Y-109086190D01*
X154392833Y-108562380D02*
X153726166Y-108562380D01*
X154154738Y-109562380D01*
G04 #@! TO.C,R8*
X138978166Y-126688380D02*
X139311500Y-126212190D01*
X139549595Y-126688380D02*
X139549595Y-125688380D01*
X139168642Y-125688380D01*
X139073404Y-125736000D01*
X139025785Y-125783619D01*
X138978166Y-125878857D01*
X138978166Y-126021714D01*
X139025785Y-126116952D01*
X139073404Y-126164571D01*
X139168642Y-126212190D01*
X139549595Y-126212190D01*
X138406738Y-126116952D02*
X138501976Y-126069333D01*
X138549595Y-126021714D01*
X138597214Y-125926476D01*
X138597214Y-125878857D01*
X138549595Y-125783619D01*
X138501976Y-125736000D01*
X138406738Y-125688380D01*
X138216261Y-125688380D01*
X138121023Y-125736000D01*
X138073404Y-125783619D01*
X138025785Y-125878857D01*
X138025785Y-125926476D01*
X138073404Y-126021714D01*
X138121023Y-126069333D01*
X138216261Y-126116952D01*
X138406738Y-126116952D01*
X138501976Y-126164571D01*
X138549595Y-126212190D01*
X138597214Y-126307428D01*
X138597214Y-126497904D01*
X138549595Y-126593142D01*
X138501976Y-126640761D01*
X138406738Y-126688380D01*
X138216261Y-126688380D01*
X138121023Y-126640761D01*
X138073404Y-126593142D01*
X138025785Y-126497904D01*
X138025785Y-126307428D01*
X138073404Y-126212190D01*
X138121023Y-126164571D01*
X138216261Y-126116952D01*
G04 #@! TO.C,R10*
X152742857Y-93052380D02*
X153076190Y-92576190D01*
X153314285Y-93052380D02*
X153314285Y-92052380D01*
X152933333Y-92052380D01*
X152838095Y-92100000D01*
X152790476Y-92147619D01*
X152742857Y-92242857D01*
X152742857Y-92385714D01*
X152790476Y-92480952D01*
X152838095Y-92528571D01*
X152933333Y-92576190D01*
X153314285Y-92576190D01*
X151790476Y-93052380D02*
X152361904Y-93052380D01*
X152076190Y-93052380D02*
X152076190Y-92052380D01*
X152171428Y-92195238D01*
X152266666Y-92290476D01*
X152361904Y-92338095D01*
X151171428Y-92052380D02*
X151076190Y-92052380D01*
X150980952Y-92100000D01*
X150933333Y-92147619D01*
X150885714Y-92242857D01*
X150838095Y-92433333D01*
X150838095Y-92671428D01*
X150885714Y-92861904D01*
X150933333Y-92957142D01*
X150980952Y-93004761D01*
X151076190Y-93052380D01*
X151171428Y-93052380D01*
X151266666Y-93004761D01*
X151314285Y-92957142D01*
X151361904Y-92861904D01*
X151409523Y-92671428D01*
X151409523Y-92433333D01*
X151361904Y-92242857D01*
X151314285Y-92147619D01*
X151266666Y-92100000D01*
X151171428Y-92052380D01*
G04 #@! TO.C,R11*
X143342857Y-117652380D02*
X143676190Y-117176190D01*
X143914285Y-117652380D02*
X143914285Y-116652380D01*
X143533333Y-116652380D01*
X143438095Y-116700000D01*
X143390476Y-116747619D01*
X143342857Y-116842857D01*
X143342857Y-116985714D01*
X143390476Y-117080952D01*
X143438095Y-117128571D01*
X143533333Y-117176190D01*
X143914285Y-117176190D01*
X142390476Y-117652380D02*
X142961904Y-117652380D01*
X142676190Y-117652380D02*
X142676190Y-116652380D01*
X142771428Y-116795238D01*
X142866666Y-116890476D01*
X142961904Y-116938095D01*
X141438095Y-117652380D02*
X142009523Y-117652380D01*
X141723809Y-117652380D02*
X141723809Y-116652380D01*
X141819047Y-116795238D01*
X141914285Y-116890476D01*
X142009523Y-116938095D01*
G04 #@! TO.C,U8*
X159211904Y-89452380D02*
X159211904Y-90261904D01*
X159164285Y-90357142D01*
X159116666Y-90404761D01*
X159021428Y-90452380D01*
X158830952Y-90452380D01*
X158735714Y-90404761D01*
X158688095Y-90357142D01*
X158640476Y-90261904D01*
X158640476Y-89452380D01*
X158021428Y-89880952D02*
X158116666Y-89833333D01*
X158164285Y-89785714D01*
X158211904Y-89690476D01*
X158211904Y-89642857D01*
X158164285Y-89547619D01*
X158116666Y-89500000D01*
X158021428Y-89452380D01*
X157830952Y-89452380D01*
X157735714Y-89500000D01*
X157688095Y-89547619D01*
X157640476Y-89642857D01*
X157640476Y-89690476D01*
X157688095Y-89785714D01*
X157735714Y-89833333D01*
X157830952Y-89880952D01*
X158021428Y-89880952D01*
X158116666Y-89928571D01*
X158164285Y-89976190D01*
X158211904Y-90071428D01*
X158211904Y-90261904D01*
X158164285Y-90357142D01*
X158116666Y-90404761D01*
X158021428Y-90452380D01*
X157830952Y-90452380D01*
X157735714Y-90404761D01*
X157688095Y-90357142D01*
X157640476Y-90261904D01*
X157640476Y-90071428D01*
X157688095Y-89976190D01*
X157735714Y-89928571D01*
X157830952Y-89880952D01*
G04 #@! TO.C,U10*
X144729619Y-126856095D02*
X143920095Y-126856095D01*
X143824857Y-126808476D01*
X143777238Y-126760857D01*
X143729619Y-126665619D01*
X143729619Y-126475142D01*
X143777238Y-126379904D01*
X143824857Y-126332285D01*
X143920095Y-126284666D01*
X144729619Y-126284666D01*
X143729619Y-125284666D02*
X143729619Y-125856095D01*
X143729619Y-125570380D02*
X144729619Y-125570380D01*
X144586761Y-125665619D01*
X144491523Y-125760857D01*
X144443904Y-125856095D01*
X144729619Y-124665619D02*
X144729619Y-124570380D01*
X144682000Y-124475142D01*
X144634380Y-124427523D01*
X144539142Y-124379904D01*
X144348666Y-124332285D01*
X144110571Y-124332285D01*
X143920095Y-124379904D01*
X143824857Y-124427523D01*
X143777238Y-124475142D01*
X143729619Y-124570380D01*
X143729619Y-124665619D01*
X143777238Y-124760857D01*
X143824857Y-124808476D01*
X143920095Y-124856095D01*
X144110571Y-124903714D01*
X144348666Y-124903714D01*
X144539142Y-124856095D01*
X144634380Y-124808476D01*
X144682000Y-124760857D01*
X144729619Y-124665619D01*
G04 #@! TO.C,U12*
X175103095Y-129372380D02*
X175103095Y-130181904D01*
X175055476Y-130277142D01*
X175007857Y-130324761D01*
X174912619Y-130372380D01*
X174722142Y-130372380D01*
X174626904Y-130324761D01*
X174579285Y-130277142D01*
X174531666Y-130181904D01*
X174531666Y-129372380D01*
X173531666Y-130372380D02*
X174103095Y-130372380D01*
X173817380Y-130372380D02*
X173817380Y-129372380D01*
X173912619Y-129515238D01*
X174007857Y-129610476D01*
X174103095Y-129658095D01*
X173150714Y-129467619D02*
X173103095Y-129420000D01*
X173007857Y-129372380D01*
X172769761Y-129372380D01*
X172674523Y-129420000D01*
X172626904Y-129467619D01*
X172579285Y-129562857D01*
X172579285Y-129658095D01*
X172626904Y-129800952D01*
X173198333Y-130372380D01*
X172579285Y-130372380D01*
G04 #@! TO.C,U3*
X131720333Y-105751666D02*
X131720333Y-106318333D01*
X131687000Y-106385000D01*
X131653666Y-106418333D01*
X131587000Y-106451666D01*
X131453666Y-106451666D01*
X131387000Y-106418333D01*
X131353666Y-106385000D01*
X131320333Y-106318333D01*
X131320333Y-105751666D01*
X131053666Y-105751666D02*
X130620333Y-105751666D01*
X130853666Y-106018333D01*
X130753666Y-106018333D01*
X130687000Y-106051666D01*
X130653666Y-106085000D01*
X130620333Y-106151666D01*
X130620333Y-106318333D01*
X130653666Y-106385000D01*
X130687000Y-106418333D01*
X130753666Y-106451666D01*
X130953666Y-106451666D01*
X131020333Y-106418333D01*
X131053666Y-106385000D01*
G04 #@! TO.C,J2*
X172022380Y-83536666D02*
X172736666Y-83536666D01*
X172879523Y-83489047D01*
X172974761Y-83393809D01*
X173022380Y-83250952D01*
X173022380Y-83155714D01*
X172117619Y-83965238D02*
X172070000Y-84012857D01*
X172022380Y-84108095D01*
X172022380Y-84346190D01*
X172070000Y-84441428D01*
X172117619Y-84489047D01*
X172212857Y-84536666D01*
X172308095Y-84536666D01*
X172450952Y-84489047D01*
X173022380Y-83917619D01*
X173022380Y-84536666D01*
G04 #@! TO.C,C5*
X149405666Y-105353142D02*
X149453285Y-105400761D01*
X149596142Y-105448380D01*
X149691380Y-105448380D01*
X149834238Y-105400761D01*
X149929476Y-105305523D01*
X149977095Y-105210285D01*
X150024714Y-105019809D01*
X150024714Y-104876952D01*
X149977095Y-104686476D01*
X149929476Y-104591238D01*
X149834238Y-104496000D01*
X149691380Y-104448380D01*
X149596142Y-104448380D01*
X149453285Y-104496000D01*
X149405666Y-104543619D01*
X148500904Y-104448380D02*
X148977095Y-104448380D01*
X149024714Y-104924571D01*
X148977095Y-104876952D01*
X148881857Y-104829333D01*
X148643761Y-104829333D01*
X148548523Y-104876952D01*
X148500904Y-104924571D01*
X148453285Y-105019809D01*
X148453285Y-105257904D01*
X148500904Y-105353142D01*
X148548523Y-105400761D01*
X148643761Y-105448380D01*
X148881857Y-105448380D01*
X148977095Y-105400761D01*
X149024714Y-105353142D01*
G04 #@! TO.C,C6*
X138071666Y-123384142D02*
X138119285Y-123431761D01*
X138262142Y-123479380D01*
X138357380Y-123479380D01*
X138500238Y-123431761D01*
X138595476Y-123336523D01*
X138643095Y-123241285D01*
X138690714Y-123050809D01*
X138690714Y-122907952D01*
X138643095Y-122717476D01*
X138595476Y-122622238D01*
X138500238Y-122527000D01*
X138357380Y-122479380D01*
X138262142Y-122479380D01*
X138119285Y-122527000D01*
X138071666Y-122574619D01*
X137214523Y-122479380D02*
X137405000Y-122479380D01*
X137500238Y-122527000D01*
X137547857Y-122574619D01*
X137643095Y-122717476D01*
X137690714Y-122907952D01*
X137690714Y-123288904D01*
X137643095Y-123384142D01*
X137595476Y-123431761D01*
X137500238Y-123479380D01*
X137309761Y-123479380D01*
X137214523Y-123431761D01*
X137166904Y-123384142D01*
X137119285Y-123288904D01*
X137119285Y-123050809D01*
X137166904Y-122955571D01*
X137214523Y-122907952D01*
X137309761Y-122860333D01*
X137500238Y-122860333D01*
X137595476Y-122907952D01*
X137643095Y-122955571D01*
X137690714Y-123050809D01*
G04 #@! TO.C,C7*
X147416666Y-90457142D02*
X147464285Y-90504761D01*
X147607142Y-90552380D01*
X147702380Y-90552380D01*
X147845238Y-90504761D01*
X147940476Y-90409523D01*
X147988095Y-90314285D01*
X148035714Y-90123809D01*
X148035714Y-89980952D01*
X147988095Y-89790476D01*
X147940476Y-89695238D01*
X147845238Y-89600000D01*
X147702380Y-89552380D01*
X147607142Y-89552380D01*
X147464285Y-89600000D01*
X147416666Y-89647619D01*
X147083333Y-89552380D02*
X146416666Y-89552380D01*
X146845238Y-90552380D01*
G04 #@! TO.C,R23*
X144392857Y-86772380D02*
X144726190Y-86296190D01*
X144964285Y-86772380D02*
X144964285Y-85772380D01*
X144583333Y-85772380D01*
X144488095Y-85820000D01*
X144440476Y-85867619D01*
X144392857Y-85962857D01*
X144392857Y-86105714D01*
X144440476Y-86200952D01*
X144488095Y-86248571D01*
X144583333Y-86296190D01*
X144964285Y-86296190D01*
X144011904Y-85867619D02*
X143964285Y-85820000D01*
X143869047Y-85772380D01*
X143630952Y-85772380D01*
X143535714Y-85820000D01*
X143488095Y-85867619D01*
X143440476Y-85962857D01*
X143440476Y-86058095D01*
X143488095Y-86200952D01*
X144059523Y-86772380D01*
X143440476Y-86772380D01*
X143107142Y-85772380D02*
X142488095Y-85772380D01*
X142821428Y-86153333D01*
X142678571Y-86153333D01*
X142583333Y-86200952D01*
X142535714Y-86248571D01*
X142488095Y-86343809D01*
X142488095Y-86581904D01*
X142535714Y-86677142D01*
X142583333Y-86724761D01*
X142678571Y-86772380D01*
X142964285Y-86772380D01*
X143059523Y-86724761D01*
X143107142Y-86677142D01*
G04 #@! TO.C,R24*
X144842857Y-103272380D02*
X145176190Y-102796190D01*
X145414285Y-103272380D02*
X145414285Y-102272380D01*
X145033333Y-102272380D01*
X144938095Y-102320000D01*
X144890476Y-102367619D01*
X144842857Y-102462857D01*
X144842857Y-102605714D01*
X144890476Y-102700952D01*
X144938095Y-102748571D01*
X145033333Y-102796190D01*
X145414285Y-102796190D01*
X144461904Y-102367619D02*
X144414285Y-102320000D01*
X144319047Y-102272380D01*
X144080952Y-102272380D01*
X143985714Y-102320000D01*
X143938095Y-102367619D01*
X143890476Y-102462857D01*
X143890476Y-102558095D01*
X143938095Y-102700952D01*
X144509523Y-103272380D01*
X143890476Y-103272380D01*
X143033333Y-102605714D02*
X143033333Y-103272380D01*
X143271428Y-102224761D02*
X143509523Y-102939047D01*
X142890476Y-102939047D01*
G04 #@! TO.C,R25*
X136242857Y-120172380D02*
X136576190Y-119696190D01*
X136814285Y-120172380D02*
X136814285Y-119172380D01*
X136433333Y-119172380D01*
X136338095Y-119220000D01*
X136290476Y-119267619D01*
X136242857Y-119362857D01*
X136242857Y-119505714D01*
X136290476Y-119600952D01*
X136338095Y-119648571D01*
X136433333Y-119696190D01*
X136814285Y-119696190D01*
X135861904Y-119267619D02*
X135814285Y-119220000D01*
X135719047Y-119172380D01*
X135480952Y-119172380D01*
X135385714Y-119220000D01*
X135338095Y-119267619D01*
X135290476Y-119362857D01*
X135290476Y-119458095D01*
X135338095Y-119600952D01*
X135909523Y-120172380D01*
X135290476Y-120172380D01*
X134385714Y-119172380D02*
X134861904Y-119172380D01*
X134909523Y-119648571D01*
X134861904Y-119600952D01*
X134766666Y-119553333D01*
X134528571Y-119553333D01*
X134433333Y-119600952D01*
X134385714Y-119648571D01*
X134338095Y-119743809D01*
X134338095Y-119981904D01*
X134385714Y-120077142D01*
X134433333Y-120124761D01*
X134528571Y-120172380D01*
X134766666Y-120172380D01*
X134861904Y-120124761D01*
X134909523Y-120077142D01*
G04 #@! TO.C,D4*
X141963095Y-127552380D02*
X141963095Y-126552380D01*
X141725000Y-126552380D01*
X141582142Y-126600000D01*
X141486904Y-126695238D01*
X141439285Y-126790476D01*
X141391666Y-126980952D01*
X141391666Y-127123809D01*
X141439285Y-127314285D01*
X141486904Y-127409523D01*
X141582142Y-127504761D01*
X141725000Y-127552380D01*
X141963095Y-127552380D01*
X140534523Y-126885714D02*
X140534523Y-127552380D01*
X140772619Y-126504761D02*
X141010714Y-127219047D01*
X140391666Y-127219047D01*
G04 #@! TO.C,D5*
X153963095Y-113177380D02*
X153963095Y-112177380D01*
X153725000Y-112177380D01*
X153582142Y-112225000D01*
X153486904Y-112320238D01*
X153439285Y-112415476D01*
X153391666Y-112605952D01*
X153391666Y-112748809D01*
X153439285Y-112939285D01*
X153486904Y-113034523D01*
X153582142Y-113129761D01*
X153725000Y-113177380D01*
X153963095Y-113177380D01*
X152486904Y-112177380D02*
X152963095Y-112177380D01*
X153010714Y-112653571D01*
X152963095Y-112605952D01*
X152867857Y-112558333D01*
X152629761Y-112558333D01*
X152534523Y-112605952D01*
X152486904Y-112653571D01*
X152439285Y-112748809D01*
X152439285Y-112986904D01*
X152486904Y-113082142D01*
X152534523Y-113129761D01*
X152629761Y-113177380D01*
X152867857Y-113177380D01*
X152963095Y-113129761D01*
X153010714Y-113082142D01*
G04 #@! TO.C,D6*
X154438095Y-96627380D02*
X154438095Y-95627380D01*
X154200000Y-95627380D01*
X154057142Y-95675000D01*
X153961904Y-95770238D01*
X153914285Y-95865476D01*
X153866666Y-96055952D01*
X153866666Y-96198809D01*
X153914285Y-96389285D01*
X153961904Y-96484523D01*
X154057142Y-96579761D01*
X154200000Y-96627380D01*
X154438095Y-96627380D01*
X153009523Y-95627380D02*
X153200000Y-95627380D01*
X153295238Y-95675000D01*
X153342857Y-95722619D01*
X153438095Y-95865476D01*
X153485714Y-96055952D01*
X153485714Y-96436904D01*
X153438095Y-96532142D01*
X153390476Y-96579761D01*
X153295238Y-96627380D01*
X153104761Y-96627380D01*
X153009523Y-96579761D01*
X152961904Y-96532142D01*
X152914285Y-96436904D01*
X152914285Y-96198809D01*
X152961904Y-96103571D01*
X153009523Y-96055952D01*
X153104761Y-96008333D01*
X153295238Y-96008333D01*
X153390476Y-96055952D01*
X153438095Y-96103571D01*
X153485714Y-96198809D01*
G04 #@! TO.C,D7*
X156601595Y-122082380D02*
X156601595Y-121082380D01*
X156363500Y-121082380D01*
X156220642Y-121130000D01*
X156125404Y-121225238D01*
X156077785Y-121320476D01*
X156030166Y-121510952D01*
X156030166Y-121653809D01*
X156077785Y-121844285D01*
X156125404Y-121939523D01*
X156220642Y-122034761D01*
X156363500Y-122082380D01*
X156601595Y-122082380D01*
X155696833Y-121082380D02*
X155030166Y-121082380D01*
X155458738Y-122082380D01*
G04 #@! TO.C,D9*
X156630595Y-128178380D02*
X156630595Y-127178380D01*
X156392500Y-127178380D01*
X156249642Y-127226000D01*
X156154404Y-127321238D01*
X156106785Y-127416476D01*
X156059166Y-127606952D01*
X156059166Y-127749809D01*
X156106785Y-127940285D01*
X156154404Y-128035523D01*
X156249642Y-128130761D01*
X156392500Y-128178380D01*
X156630595Y-128178380D01*
X155582976Y-128178380D02*
X155392500Y-128178380D01*
X155297261Y-128130761D01*
X155249642Y-128083142D01*
X155154404Y-127940285D01*
X155106785Y-127749809D01*
X155106785Y-127368857D01*
X155154404Y-127273619D01*
X155202023Y-127226000D01*
X155297261Y-127178380D01*
X155487738Y-127178380D01*
X155582976Y-127226000D01*
X155630595Y-127273619D01*
X155678214Y-127368857D01*
X155678214Y-127606952D01*
X155630595Y-127702190D01*
X155582976Y-127749809D01*
X155487738Y-127797428D01*
X155297261Y-127797428D01*
X155202023Y-127749809D01*
X155154404Y-127702190D01*
X155106785Y-127606952D01*
G04 #@! TD*
M02*
