G04 #@! TF.FileFunction,Paste,Top*
%FSLAX46Y46*%
G04 Gerber Fmt 4.6, Leading zero omitted, Abs format (unit mm)*
G04 Created by KiCad (PCBNEW 4.0.7-e2-6376~58~ubuntu17.04.1) date Thu Oct 26 10:47:40 2017*
%MOMM*%
%LPD*%
G01*
G04 APERTURE LIST*
%ADD10C,0.100000*%
%ADD11R,1.200000X0.750000*%
%ADD12R,3.800000X6.000000*%
%ADD13R,1.500000X3.000000*%
%ADD14R,1.500000X2.000000*%
%ADD15R,0.800000X0.800000*%
%ADD16R,0.600000X0.800000*%
%ADD17R,1.000000X0.900000*%
%ADD18R,0.500000X0.900000*%
%ADD19R,1.070000X3.000000*%
%ADD20R,8.330000X9.000000*%
G04 APERTURE END LIST*
D10*
D11*
X127540000Y-91260000D03*
X125640000Y-91260000D03*
D12*
X126300000Y-95750000D03*
D13*
X126300000Y-100170000D03*
D14*
X128600000Y-100500000D03*
X124000000Y-100500000D03*
D15*
X153540000Y-87360000D03*
X155140000Y-87360000D03*
X131640000Y-87460000D03*
X130040000Y-87460000D03*
D16*
X125690000Y-89360000D03*
X127390000Y-89360000D03*
D15*
X140440000Y-87260000D03*
X138840000Y-87260000D03*
D17*
X156390000Y-83360000D03*
X156390000Y-81760000D03*
X152290000Y-83360000D03*
X152290000Y-81760000D03*
X141490000Y-83660000D03*
X141490000Y-82060000D03*
X137390000Y-83660000D03*
X137390000Y-82060000D03*
D18*
X155040000Y-85660000D03*
X153540000Y-85660000D03*
X130040000Y-85660000D03*
X131540000Y-85660000D03*
X138840000Y-85560000D03*
X140340000Y-85560000D03*
X125740000Y-87060000D03*
X127240000Y-87060000D03*
D17*
X132790000Y-83660000D03*
X132790000Y-82060000D03*
X128690000Y-83660000D03*
X128690000Y-82060000D03*
D19*
X120030000Y-101960000D03*
X118330000Y-101960000D03*
X114930000Y-101960000D03*
X116630000Y-101960000D03*
X113230000Y-101960000D03*
D20*
X116590000Y-93660000D03*
M02*
