M48
;DRILL file {KiCad 4.0.7-e2-6376~58~ubuntu17.04.1} date Mon Sep 25 06:57:52 2017
;FORMAT={-:-/ absolute / inch / decimal}
FMAT,2
INCH,TZ
T1C0.016
T2C0.024
T3C0.028
T4C0.030
T5C0.039
T6C0.043
T7C0.047
T8C0.098
T9C0.197
%
G90
G05
M72
T1
X4.4685Y-3.8976
X4.5229Y-4.1724
X4.5689Y-4.4331
X4.5984Y-3.9803
X4.6378Y-3.9488
X4.7283Y-3.6732
X4.7283Y-3.7598
X4.7323Y-4.2559
X4.7323Y-4.315
X4.7717Y-4.3071
X4.7748Y-4.4538
X4.8169Y-4.5091
X4.8504Y-4.3937
X4.8711Y-4.5241
X4.9232Y-4.4961
X5.0026Y-3.6934
X5.0561Y-4.6807
X5.0934Y-3.3701
X5.0945Y-4.7677
X5.1024Y-4.6811
X5.2244Y-4.5748
X5.3504Y-4.8465
X5.3746Y-3.3393
X5.4329Y-4.0652
X5.4396Y-4.5513
X5.5192Y-4.5486
X5.5203Y-4.1237
X5.5502Y-3.8661
X5.5532Y-4.0963
X5.5621Y-3.9933
X5.575Y-3.7324
X5.5925Y-4.7323
X5.622Y-3.563
X5.6339Y-3.9626
X5.7476Y-4.128
X5.7913Y-3.9941
X5.8035Y-4.3078
X5.8752Y-4.4291
X5.879Y-4.1942
X5.8824Y-3.9592
X5.8878Y-4.5591
X5.9081Y-4.0151
X5.9202Y-3.9602
X5.9227Y-4.0963
X5.9838Y-4.4153
X6.0154Y-4.4462
X6.0255Y-4.4163
X6.0287Y-4.1936
X6.0433Y-4.5433
X6.079Y-3.4842
X6.0866Y-4.5068
X6.1287Y-4.1936
X6.1402Y-4.3979
X6.1771Y-4.4969
T2
X5.4803Y-3.4134
X5.5336Y-4.2668
X6.1146Y-3.6392
T3
X4.5748Y-3.5039
X4.5748Y-3.5551
X4.626Y-3.5039
X4.626Y-3.5551
X5.3966Y-3.6563
X5.4646Y-4.7323
X5.5368Y-4.3722
T4
X5.1181Y-4.2047
X5.1181Y-4.4016
X5.437Y-4.3661
X5.6339Y-4.3661
T5
X4.9347Y-4.6259
X4.9492Y-4.0998
X4.9556Y-4.2343
X5.1031Y-3.1693
X5.1031Y-3.2693
X5.2031Y-3.1693
X5.2031Y-3.2693
X5.3031Y-3.1693
X5.3031Y-3.2693
X5.36Y-4.4581
X5.4031Y-3.1693
X5.4031Y-3.2693
X5.5031Y-3.1693
X5.5031Y-3.2693
X5.8199Y-3.8228
T6
X6.3524Y-3.8799
X6.3524Y-3.9783
X6.3524Y-4.0571
X6.3524Y-4.1555
X6.4547Y-3.8799
X6.4547Y-3.9783
X6.4547Y-4.0571
X6.4547Y-4.1555
T7
X5.0866Y-3.5472
X5.0866Y-3.8386
T8
X6.3366Y-3.7559
X6.3366Y-4.2795
X6.561Y-3.7559
X6.561Y-4.2795
T9
X3.8661Y-3.8354
X3.8661Y-4.1406
X4.2165Y-3.8673
X4.2165Y-4.1724
T0
M30
