G04 #@! TF.FileFunction,Legend,Bot*
%FSLAX46Y46*%
G04 Gerber Fmt 4.6, Leading zero omitted, Abs format (unit mm)*
G04 Created by KiCad (PCBNEW 4.0.7-e2-6376~58~ubuntu17.04.1) date Thu Oct 26 10:47:40 2017*
%MOMM*%
%LPD*%
G01*
G04 APERTURE LIST*
%ADD10C,0.100000*%
%ADD11C,0.150000*%
%ADD12C,0.120000*%
G04 APERTURE END LIST*
D10*
D11*
X136730000Y-109170000D02*
X130730000Y-109170000D01*
X130730000Y-109170000D02*
X130730000Y-91170000D01*
X130730000Y-91170000D02*
X136730000Y-91170000D01*
X136730000Y-91170000D02*
X136730000Y-109170000D01*
X136730000Y-109170000D02*
X156230000Y-109170000D01*
X156230000Y-109170000D02*
X156230000Y-91170000D01*
X156230000Y-91170000D02*
X136730000Y-91170000D01*
D12*
X141720000Y-116560000D02*
X141720000Y-114560000D01*
X143760000Y-114560000D02*
X143760000Y-116560000D01*
X144540000Y-113710000D02*
X144540000Y-114410000D01*
X145740000Y-114410000D02*
X145740000Y-113710000D01*
X153090000Y-112260000D02*
X152390000Y-112260000D01*
X152390000Y-113460000D02*
X153090000Y-113460000D01*
X151640000Y-122110000D02*
X151640000Y-122810000D01*
X152840000Y-122810000D02*
X152840000Y-122110000D01*
X156890000Y-116260000D02*
X157590000Y-116260000D01*
X157590000Y-115060000D02*
X156890000Y-115060000D01*
X117740000Y-108810000D02*
X117740000Y-105510000D01*
X117740000Y-105510000D02*
X123140000Y-105510000D01*
X117740000Y-108810000D02*
X123140000Y-108810000D01*
D11*
X110950000Y-110390000D02*
X113450000Y-110390000D01*
X110950000Y-116590000D02*
X110950000Y-110390000D01*
X113450000Y-116590000D02*
X110950000Y-116590000D01*
X115950000Y-116590000D02*
X113450000Y-116590000D01*
X115950000Y-110390000D02*
X115950000Y-116590000D01*
X113450000Y-110390000D02*
X115950000Y-110390000D01*
D12*
X114300000Y-105960000D02*
X113100000Y-105960000D01*
X113100000Y-107720000D02*
X114300000Y-107720000D01*
X156960000Y-108460000D02*
X156960000Y-109460000D01*
X158320000Y-109460000D02*
X158320000Y-108460000D01*
X137760000Y-114360000D02*
X137760000Y-115360000D01*
X139120000Y-115360000D02*
X139120000Y-114360000D01*
X122620000Y-99760000D02*
X122620000Y-98760000D01*
X121260000Y-98760000D02*
X121260000Y-99760000D01*
X154820000Y-117360000D02*
X154820000Y-116360000D01*
X153460000Y-116360000D02*
X153460000Y-117360000D01*
X152920000Y-117360000D02*
X152920000Y-116360000D01*
X151560000Y-116360000D02*
X151560000Y-117360000D01*
D11*
X156740000Y-117690000D02*
X156040000Y-118410000D01*
X156040000Y-118410000D02*
X156040000Y-119690000D01*
X156040000Y-119690000D02*
X158040000Y-119690000D01*
X156740000Y-117690000D02*
X158040000Y-117690000D01*
X158040000Y-117690000D02*
X158040000Y-119690000D01*
D12*
X146430000Y-115460000D02*
X146430000Y-113660000D01*
X149650000Y-113660000D02*
X149650000Y-116610000D01*
D11*
X157260000Y-121860000D02*
X156070000Y-120660000D01*
X154270000Y-123660000D02*
X154270000Y-120660000D01*
X157270000Y-123660000D02*
X154270000Y-123660000D01*
X157260000Y-121860000D02*
X157270000Y-123660000D01*
X154270000Y-120660000D02*
X156070000Y-120660000D01*
D12*
X141020000Y-115360000D02*
X141020000Y-114360000D01*
X139660000Y-114360000D02*
X139660000Y-115360000D01*
D11*
X137373333Y-90176667D02*
X137373333Y-90743333D01*
X137340000Y-90810000D01*
X137306667Y-90843333D01*
X137240000Y-90876667D01*
X137106667Y-90876667D01*
X137040000Y-90843333D01*
X137006667Y-90810000D01*
X136973333Y-90743333D01*
X136973333Y-90176667D01*
X136273334Y-90876667D02*
X136673334Y-90876667D01*
X136473334Y-90876667D02*
X136473334Y-90176667D01*
X136540000Y-90276667D01*
X136606667Y-90343333D01*
X136673334Y-90376667D01*
X142856666Y-112010000D02*
X142890000Y-112043333D01*
X142990000Y-112076667D01*
X143056666Y-112076667D01*
X143156666Y-112043333D01*
X143223333Y-111976667D01*
X143256666Y-111910000D01*
X143290000Y-111776667D01*
X143290000Y-111676667D01*
X143256666Y-111543333D01*
X143223333Y-111476667D01*
X143156666Y-111410000D01*
X143056666Y-111376667D01*
X142990000Y-111376667D01*
X142890000Y-111410000D01*
X142856666Y-111443333D01*
X142256666Y-111610000D02*
X142256666Y-112076667D01*
X142423333Y-111343333D02*
X142590000Y-111843333D01*
X142156666Y-111843333D01*
X145156666Y-111960000D02*
X145190000Y-111993333D01*
X145290000Y-112026667D01*
X145356666Y-112026667D01*
X145456666Y-111993333D01*
X145523333Y-111926667D01*
X145556666Y-111860000D01*
X145590000Y-111726667D01*
X145590000Y-111626667D01*
X145556666Y-111493333D01*
X145523333Y-111426667D01*
X145456666Y-111360000D01*
X145356666Y-111326667D01*
X145290000Y-111326667D01*
X145190000Y-111360000D01*
X145156666Y-111393333D01*
X144556666Y-111326667D02*
X144690000Y-111326667D01*
X144756666Y-111360000D01*
X144790000Y-111393333D01*
X144856666Y-111493333D01*
X144890000Y-111626667D01*
X144890000Y-111893333D01*
X144856666Y-111960000D01*
X144823333Y-111993333D01*
X144756666Y-112026667D01*
X144623333Y-112026667D01*
X144556666Y-111993333D01*
X144523333Y-111960000D01*
X144490000Y-111893333D01*
X144490000Y-111726667D01*
X144523333Y-111660000D01*
X144556666Y-111626667D01*
X144623333Y-111593333D01*
X144756666Y-111593333D01*
X144823333Y-111626667D01*
X144856666Y-111660000D01*
X144890000Y-111726667D01*
X152956666Y-112010000D02*
X152990000Y-112043333D01*
X153090000Y-112076667D01*
X153156666Y-112076667D01*
X153256666Y-112043333D01*
X153323333Y-111976667D01*
X153356666Y-111910000D01*
X153390000Y-111776667D01*
X153390000Y-111676667D01*
X153356666Y-111543333D01*
X153323333Y-111476667D01*
X153256666Y-111410000D01*
X153156666Y-111376667D01*
X153090000Y-111376667D01*
X152990000Y-111410000D01*
X152956666Y-111443333D01*
X152556666Y-111676667D02*
X152623333Y-111643333D01*
X152656666Y-111610000D01*
X152690000Y-111543333D01*
X152690000Y-111510000D01*
X152656666Y-111443333D01*
X152623333Y-111410000D01*
X152556666Y-111376667D01*
X152423333Y-111376667D01*
X152356666Y-111410000D01*
X152323333Y-111443333D01*
X152290000Y-111510000D01*
X152290000Y-111543333D01*
X152323333Y-111610000D01*
X152356666Y-111643333D01*
X152423333Y-111676667D01*
X152556666Y-111676667D01*
X152623333Y-111710000D01*
X152656666Y-111743333D01*
X152690000Y-111810000D01*
X152690000Y-111943333D01*
X152656666Y-112010000D01*
X152623333Y-112043333D01*
X152556666Y-112076667D01*
X152423333Y-112076667D01*
X152356666Y-112043333D01*
X152323333Y-112010000D01*
X152290000Y-111943333D01*
X152290000Y-111810000D01*
X152323333Y-111743333D01*
X152356666Y-111710000D01*
X152423333Y-111676667D01*
X152356666Y-120210000D02*
X152390000Y-120243333D01*
X152490000Y-120276667D01*
X152556666Y-120276667D01*
X152656666Y-120243333D01*
X152723333Y-120176667D01*
X152756666Y-120110000D01*
X152790000Y-119976667D01*
X152790000Y-119876667D01*
X152756666Y-119743333D01*
X152723333Y-119676667D01*
X152656666Y-119610000D01*
X152556666Y-119576667D01*
X152490000Y-119576667D01*
X152390000Y-119610000D01*
X152356666Y-119643333D01*
X152023333Y-120276667D02*
X151890000Y-120276667D01*
X151823333Y-120243333D01*
X151790000Y-120210000D01*
X151723333Y-120110000D01*
X151690000Y-119976667D01*
X151690000Y-119710000D01*
X151723333Y-119643333D01*
X151756666Y-119610000D01*
X151823333Y-119576667D01*
X151956666Y-119576667D01*
X152023333Y-119610000D01*
X152056666Y-119643333D01*
X152090000Y-119710000D01*
X152090000Y-119876667D01*
X152056666Y-119943333D01*
X152023333Y-119976667D01*
X151956666Y-120010000D01*
X151823333Y-120010000D01*
X151756666Y-119976667D01*
X151723333Y-119943333D01*
X151690000Y-119876667D01*
X157640000Y-114610000D02*
X157673334Y-114643333D01*
X157773334Y-114676667D01*
X157840000Y-114676667D01*
X157940000Y-114643333D01*
X158006667Y-114576667D01*
X158040000Y-114510000D01*
X158073334Y-114376667D01*
X158073334Y-114276667D01*
X158040000Y-114143333D01*
X158006667Y-114076667D01*
X157940000Y-114010000D01*
X157840000Y-113976667D01*
X157773334Y-113976667D01*
X157673334Y-114010000D01*
X157640000Y-114043333D01*
X156973334Y-114676667D02*
X157373334Y-114676667D01*
X157173334Y-114676667D02*
X157173334Y-113976667D01*
X157240000Y-114076667D01*
X157306667Y-114143333D01*
X157373334Y-114176667D01*
X156540000Y-113976667D02*
X156473333Y-113976667D01*
X156406667Y-114010000D01*
X156373333Y-114043333D01*
X156340000Y-114110000D01*
X156306667Y-114243333D01*
X156306667Y-114410000D01*
X156340000Y-114543333D01*
X156373333Y-114610000D01*
X156406667Y-114643333D01*
X156473333Y-114676667D01*
X156540000Y-114676667D01*
X156606667Y-114643333D01*
X156640000Y-114610000D01*
X156673333Y-114543333D01*
X156706667Y-114410000D01*
X156706667Y-114243333D01*
X156673333Y-114110000D01*
X156640000Y-114043333D01*
X156606667Y-114010000D01*
X156540000Y-113976667D01*
X119706666Y-105176667D02*
X119706666Y-104476667D01*
X119540000Y-104476667D01*
X119440000Y-104510000D01*
X119373333Y-104576667D01*
X119340000Y-104643333D01*
X119306666Y-104776667D01*
X119306666Y-104876667D01*
X119340000Y-105010000D01*
X119373333Y-105076667D01*
X119440000Y-105143333D01*
X119540000Y-105176667D01*
X119706666Y-105176667D01*
X118640000Y-105176667D02*
X119040000Y-105176667D01*
X118840000Y-105176667D02*
X118840000Y-104476667D01*
X118906666Y-104576667D01*
X118973333Y-104643333D01*
X119040000Y-104676667D01*
X113566667Y-117743333D02*
X113633333Y-117710000D01*
X113700000Y-117643333D01*
X113800000Y-117543333D01*
X113866667Y-117510000D01*
X113933333Y-117510000D01*
X113900000Y-117676667D02*
X113966667Y-117643333D01*
X114033333Y-117576667D01*
X114066667Y-117443333D01*
X114066667Y-117210000D01*
X114033333Y-117076667D01*
X113966667Y-117010000D01*
X113900000Y-116976667D01*
X113766667Y-116976667D01*
X113700000Y-117010000D01*
X113633333Y-117076667D01*
X113600000Y-117210000D01*
X113600000Y-117443333D01*
X113633333Y-117576667D01*
X113700000Y-117643333D01*
X113766667Y-117676667D01*
X113900000Y-117676667D01*
X112933334Y-117676667D02*
X113333334Y-117676667D01*
X113133334Y-117676667D02*
X113133334Y-116976667D01*
X113200000Y-117076667D01*
X113266667Y-117143333D01*
X113333334Y-117176667D01*
X111756666Y-105676667D02*
X111990000Y-105343333D01*
X112156666Y-105676667D02*
X112156666Y-104976667D01*
X111890000Y-104976667D01*
X111823333Y-105010000D01*
X111790000Y-105043333D01*
X111756666Y-105110000D01*
X111756666Y-105210000D01*
X111790000Y-105276667D01*
X111823333Y-105310000D01*
X111890000Y-105343333D01*
X112156666Y-105343333D01*
X111123333Y-104976667D02*
X111456666Y-104976667D01*
X111490000Y-105310000D01*
X111456666Y-105276667D01*
X111390000Y-105243333D01*
X111223333Y-105243333D01*
X111156666Y-105276667D01*
X111123333Y-105310000D01*
X111090000Y-105376667D01*
X111090000Y-105543333D01*
X111123333Y-105610000D01*
X111156666Y-105643333D01*
X111223333Y-105676667D01*
X111390000Y-105676667D01*
X111456666Y-105643333D01*
X111490000Y-105610000D01*
X157756666Y-111976667D02*
X157990000Y-111643333D01*
X158156666Y-111976667D02*
X158156666Y-111276667D01*
X157890000Y-111276667D01*
X157823333Y-111310000D01*
X157790000Y-111343333D01*
X157756666Y-111410000D01*
X157756666Y-111510000D01*
X157790000Y-111576667D01*
X157823333Y-111610000D01*
X157890000Y-111643333D01*
X158156666Y-111643333D01*
X157156666Y-111276667D02*
X157290000Y-111276667D01*
X157356666Y-111310000D01*
X157390000Y-111343333D01*
X157456666Y-111443333D01*
X157490000Y-111576667D01*
X157490000Y-111843333D01*
X157456666Y-111910000D01*
X157423333Y-111943333D01*
X157356666Y-111976667D01*
X157223333Y-111976667D01*
X157156666Y-111943333D01*
X157123333Y-111910000D01*
X157090000Y-111843333D01*
X157090000Y-111676667D01*
X157123333Y-111610000D01*
X157156666Y-111576667D01*
X157223333Y-111543333D01*
X157356666Y-111543333D01*
X157423333Y-111576667D01*
X157456666Y-111610000D01*
X157490000Y-111676667D01*
X138556666Y-112776667D02*
X138790000Y-112443333D01*
X138956666Y-112776667D02*
X138956666Y-112076667D01*
X138690000Y-112076667D01*
X138623333Y-112110000D01*
X138590000Y-112143333D01*
X138556666Y-112210000D01*
X138556666Y-112310000D01*
X138590000Y-112376667D01*
X138623333Y-112410000D01*
X138690000Y-112443333D01*
X138956666Y-112443333D01*
X138323333Y-112076667D02*
X137856666Y-112076667D01*
X138156666Y-112776667D01*
X122106666Y-97026667D02*
X122340000Y-96693333D01*
X122506666Y-97026667D02*
X122506666Y-96326667D01*
X122240000Y-96326667D01*
X122173333Y-96360000D01*
X122140000Y-96393333D01*
X122106666Y-96460000D01*
X122106666Y-96560000D01*
X122140000Y-96626667D01*
X122173333Y-96660000D01*
X122240000Y-96693333D01*
X122506666Y-96693333D01*
X121706666Y-96626667D02*
X121773333Y-96593333D01*
X121806666Y-96560000D01*
X121840000Y-96493333D01*
X121840000Y-96460000D01*
X121806666Y-96393333D01*
X121773333Y-96360000D01*
X121706666Y-96326667D01*
X121573333Y-96326667D01*
X121506666Y-96360000D01*
X121473333Y-96393333D01*
X121440000Y-96460000D01*
X121440000Y-96493333D01*
X121473333Y-96560000D01*
X121506666Y-96593333D01*
X121573333Y-96626667D01*
X121706666Y-96626667D01*
X121773333Y-96660000D01*
X121806666Y-96693333D01*
X121840000Y-96760000D01*
X121840000Y-96893333D01*
X121806666Y-96960000D01*
X121773333Y-96993333D01*
X121706666Y-97026667D01*
X121573333Y-97026667D01*
X121506666Y-96993333D01*
X121473333Y-96960000D01*
X121440000Y-96893333D01*
X121440000Y-96760000D01*
X121473333Y-96693333D01*
X121506666Y-96660000D01*
X121573333Y-96626667D01*
X154256666Y-114776667D02*
X154490000Y-114443333D01*
X154656666Y-114776667D02*
X154656666Y-114076667D01*
X154390000Y-114076667D01*
X154323333Y-114110000D01*
X154290000Y-114143333D01*
X154256666Y-114210000D01*
X154256666Y-114310000D01*
X154290000Y-114376667D01*
X154323333Y-114410000D01*
X154390000Y-114443333D01*
X154656666Y-114443333D01*
X153923333Y-114776667D02*
X153790000Y-114776667D01*
X153723333Y-114743333D01*
X153690000Y-114710000D01*
X153623333Y-114610000D01*
X153590000Y-114476667D01*
X153590000Y-114210000D01*
X153623333Y-114143333D01*
X153656666Y-114110000D01*
X153723333Y-114076667D01*
X153856666Y-114076667D01*
X153923333Y-114110000D01*
X153956666Y-114143333D01*
X153990000Y-114210000D01*
X153990000Y-114376667D01*
X153956666Y-114443333D01*
X153923333Y-114476667D01*
X153856666Y-114510000D01*
X153723333Y-114510000D01*
X153656666Y-114476667D01*
X153623333Y-114443333D01*
X153590000Y-114376667D01*
X152690000Y-114676667D02*
X152923334Y-114343333D01*
X153090000Y-114676667D02*
X153090000Y-113976667D01*
X152823334Y-113976667D01*
X152756667Y-114010000D01*
X152723334Y-114043333D01*
X152690000Y-114110000D01*
X152690000Y-114210000D01*
X152723334Y-114276667D01*
X152756667Y-114310000D01*
X152823334Y-114343333D01*
X153090000Y-114343333D01*
X152023334Y-114676667D02*
X152423334Y-114676667D01*
X152223334Y-114676667D02*
X152223334Y-113976667D01*
X152290000Y-114076667D01*
X152356667Y-114143333D01*
X152423334Y-114176667D01*
X151590000Y-113976667D02*
X151523333Y-113976667D01*
X151456667Y-114010000D01*
X151423333Y-114043333D01*
X151390000Y-114110000D01*
X151356667Y-114243333D01*
X151356667Y-114410000D01*
X151390000Y-114543333D01*
X151423333Y-114610000D01*
X151456667Y-114643333D01*
X151523333Y-114676667D01*
X151590000Y-114676667D01*
X151656667Y-114643333D01*
X151690000Y-114610000D01*
X151723333Y-114543333D01*
X151756667Y-114410000D01*
X151756667Y-114243333D01*
X151723333Y-114110000D01*
X151690000Y-114043333D01*
X151656667Y-114010000D01*
X151590000Y-113976667D01*
X156873333Y-116576667D02*
X156873333Y-117143333D01*
X156840000Y-117210000D01*
X156806667Y-117243333D01*
X156740000Y-117276667D01*
X156606667Y-117276667D01*
X156540000Y-117243333D01*
X156506667Y-117210000D01*
X156473333Y-117143333D01*
X156473333Y-116576667D01*
X156173334Y-116643333D02*
X156140000Y-116610000D01*
X156073334Y-116576667D01*
X155906667Y-116576667D01*
X155840000Y-116610000D01*
X155806667Y-116643333D01*
X155773334Y-116710000D01*
X155773334Y-116776667D01*
X155806667Y-116876667D01*
X156206667Y-117276667D01*
X155773334Y-117276667D01*
X149923333Y-117076667D02*
X149923333Y-117643333D01*
X149890000Y-117710000D01*
X149856667Y-117743333D01*
X149790000Y-117776667D01*
X149656667Y-117776667D01*
X149590000Y-117743333D01*
X149556667Y-117710000D01*
X149523333Y-117643333D01*
X149523333Y-117076667D01*
X148856667Y-117076667D02*
X149190000Y-117076667D01*
X149223334Y-117410000D01*
X149190000Y-117376667D01*
X149123334Y-117343333D01*
X148956667Y-117343333D01*
X148890000Y-117376667D01*
X148856667Y-117410000D01*
X148823334Y-117476667D01*
X148823334Y-117643333D01*
X148856667Y-117710000D01*
X148890000Y-117743333D01*
X148956667Y-117776667D01*
X149123334Y-117776667D01*
X149190000Y-117743333D01*
X149223334Y-117710000D01*
X159273333Y-120776667D02*
X159273333Y-121343333D01*
X159240000Y-121410000D01*
X159206667Y-121443333D01*
X159140000Y-121476667D01*
X159006667Y-121476667D01*
X158940000Y-121443333D01*
X158906667Y-121410000D01*
X158873333Y-121343333D01*
X158873333Y-120776667D01*
X158240000Y-120776667D02*
X158373334Y-120776667D01*
X158440000Y-120810000D01*
X158473334Y-120843333D01*
X158540000Y-120943333D01*
X158573334Y-121076667D01*
X158573334Y-121343333D01*
X158540000Y-121410000D01*
X158506667Y-121443333D01*
X158440000Y-121476667D01*
X158306667Y-121476667D01*
X158240000Y-121443333D01*
X158206667Y-121410000D01*
X158173334Y-121343333D01*
X158173334Y-121176667D01*
X158206667Y-121110000D01*
X158240000Y-121076667D01*
X158306667Y-121043333D01*
X158440000Y-121043333D01*
X158506667Y-121076667D01*
X158540000Y-121110000D01*
X158573334Y-121176667D01*
X155206666Y-87276667D02*
X155206666Y-87843333D01*
X155173333Y-87910000D01*
X155140000Y-87943333D01*
X155073333Y-87976667D01*
X154940000Y-87976667D01*
X154873333Y-87943333D01*
X154840000Y-87910000D01*
X154806666Y-87843333D01*
X154806666Y-87276667D01*
X154106667Y-87976667D02*
X154506667Y-87976667D01*
X154306667Y-87976667D02*
X154306667Y-87276667D01*
X154373333Y-87376667D01*
X154440000Y-87443333D01*
X154506667Y-87476667D01*
X153673333Y-87276667D02*
X153606666Y-87276667D01*
X153540000Y-87310000D01*
X153506666Y-87343333D01*
X153473333Y-87410000D01*
X153440000Y-87543333D01*
X153440000Y-87710000D01*
X153473333Y-87843333D01*
X153506666Y-87910000D01*
X153540000Y-87943333D01*
X153606666Y-87976667D01*
X153673333Y-87976667D01*
X153740000Y-87943333D01*
X153773333Y-87910000D01*
X153806666Y-87843333D01*
X153840000Y-87710000D01*
X153840000Y-87543333D01*
X153806666Y-87410000D01*
X153773333Y-87343333D01*
X153740000Y-87310000D01*
X153673333Y-87276667D01*
X140256666Y-112576667D02*
X140490000Y-112243333D01*
X140656666Y-112576667D02*
X140656666Y-111876667D01*
X140390000Y-111876667D01*
X140323333Y-111910000D01*
X140290000Y-111943333D01*
X140256666Y-112010000D01*
X140256666Y-112110000D01*
X140290000Y-112176667D01*
X140323333Y-112210000D01*
X140390000Y-112243333D01*
X140656666Y-112243333D01*
X139590000Y-112576667D02*
X139990000Y-112576667D01*
X139790000Y-112576667D02*
X139790000Y-111876667D01*
X139856666Y-111976667D01*
X139923333Y-112043333D01*
X139990000Y-112076667D01*
M02*
