M48
;DRILL file {KiCad 4.0.7-e2-6376~58~ubuntu17.04.1} date Thu Oct 26 10:47:42 2017
;FORMAT={-:-/ absolute / inch / decimal}
FMAT,2
INCH,TZ
T1C0.016
T2C0.024
T3C0.028
T4C0.030
T5C0.039
T6C0.043
T7C0.047
T8C0.098
T9C0.197
%
G90
G05
M72
T1
X4.7142Y-4.4512
X4.722Y-4.5142
X4.726Y-4.0122
X4.8818Y-3.9568
X5.0154Y-3.5181
X5.0449Y-4.085
X5.1354Y-4.0575
X5.1709Y-4.4827
X5.1827Y-3.4433
X5.1827Y-4.2976
X5.2063Y-4.522
X5.2378Y-4.089
X5.2566Y-4.1599
X5.285Y-4.2327
X5.2959Y-4.3263
X5.3047Y-4.4394
X5.3175Y-4.6103
X5.4031Y-4.0811
X5.4189Y-4.522
X5.4425Y-4.4787
X5.4504Y-4.5654
X5.4937Y-4.1756
X5.5291Y-3.4354
X5.539Y-3.5201
X5.6197Y-4.5654
X5.6709Y-4.5417
X5.7417Y-4.6205
X5.7535Y-4.3646
X5.785Y-3.7346
X5.8441Y-4.6165
X5.848Y-4.1835
X5.8953Y-4.4551
X5.8959Y-4.3578
X5.8992Y-4.5654
X5.9324Y-4.1655
X5.9424Y-4.2994
X5.9504Y-4.1913
X5.978Y-4.4748
X5.9858Y-4.6047
X5.9937Y-4.6913
X5.9937Y-4.7839
X6.0055Y-3.4433
X6.037Y-4.8843
X6.0449Y-3.526
X6.0764Y-3.2504
X6.0961Y-4.6559
X6.1Y-4.4433
X6.1315Y-4.7307
X6.1433Y-4.6205
X6.1531Y-4.5535
X6.1984Y-4.6205
X6.226Y-4.5142
T2
X5.7535Y-4.4669
X5.8538Y-4.4033
T3
X4.9724Y-3.7697
X5.0921Y-4.278
X5.4425Y-3.522
X5.4937Y-3.6795
T4
X4.376Y-4.6697
X4.5728Y-4.6697
T5
X4.4543Y-4.1244
X4.4669Y-4.4957
X4.8402Y-4.0732
X4.9425Y-4.215
X5.0929Y-4.7193
X5.0929Y-4.8193
X5.1929Y-4.7193
X5.1929Y-4.8193
X5.2319Y-4.3783
X5.2929Y-4.7193
X5.2929Y-4.8193
X5.3697Y-4.3783
X5.3929Y-4.7193
X5.3929Y-4.8193
X5.4929Y-4.7193
X5.4929Y-4.8193
X5.663Y-3.9157
X6.0335Y-4.1799
T6
X6.3524Y-3.8799
X6.3524Y-3.9783
X6.3524Y-4.0571
X6.3524Y-4.1555
X6.4547Y-3.8799
X6.4547Y-3.9783
X6.4547Y-4.0571
X6.4547Y-4.1555
T7
X4.6933Y-4.3606
X4.9846Y-4.3606
T8
X6.3366Y-3.7559
X6.3366Y-4.2795
X6.561Y-3.7559
X6.561Y-4.2795
T9
X3.8638Y-3.8496
X3.8638Y-4.1547
X4.1984Y-3.8496
X4.1984Y-4.1547
T0
M30
