G04 #@! TF.FileFunction,Copper,L1,Top,Signal*
%FSLAX46Y46*%
G04 Gerber Fmt 4.6, Leading zero omitted, Abs format (unit mm)*
G04 Created by KiCad (PCBNEW 4.0.7-e2-6376~58~ubuntu17.04.1) date Sat Nov 18 15:15:56 2017*
%MOMM*%
%LPD*%
G01*
G04 APERTURE LIST*
%ADD10C,0.100000*%
%ADD11C,2.000000*%
%ADD12R,1.200000X0.750000*%
%ADD13C,6.000000*%
%ADD14C,4.000000*%
%ADD15C,1.500000*%
%ADD16C,1.524000*%
%ADD17R,3.800000X6.000000*%
%ADD18R,1.500000X3.000000*%
%ADD19R,1.500000X2.000000*%
%ADD20R,2.000000X2.000000*%
%ADD21R,0.800000X0.800000*%
%ADD22R,0.600000X0.800000*%
%ADD23R,1.000000X0.900000*%
%ADD24R,1.700000X1.700000*%
%ADD25O,1.700000X1.700000*%
%ADD26R,0.500000X0.900000*%
%ADD27R,1.200000X0.900000*%
%ADD28C,6.500000*%
%ADD29R,1.070000X3.000000*%
%ADD30R,8.330000X9.000000*%
%ADD31R,2.700000X3.200000*%
%ADD32C,0.600000*%
%ADD33C,1.000000*%
%ADD34C,0.800000*%
%ADD35C,0.250000*%
%ADD36C,1.000000*%
%ADD37C,2.000000*%
%ADD38C,0.400000*%
%ADD39C,0.500000*%
%ADD40C,0.254000*%
G04 APERTURE END LIST*
D10*
D11*
X122910000Y-107060000D03*
X122910000Y-114460000D03*
D12*
X127540000Y-91260000D03*
X125640000Y-91260000D03*
D13*
X122060000Y-82360000D03*
X147010000Y-82360000D03*
X147010000Y-120860000D03*
X122060000Y-120860000D03*
D14*
X160950000Y-95400000D03*
X166650000Y-95400000D03*
X160950000Y-108700000D03*
X166650000Y-108700000D03*
D15*
X163950000Y-105550000D03*
X163950000Y-103050000D03*
X163950000Y-98550000D03*
X163950000Y-101050000D03*
X161350000Y-98550000D03*
X161350000Y-101050000D03*
X161350000Y-103050000D03*
X161350000Y-105550000D03*
D16*
X111150000Y-118610000D03*
X116150000Y-118610000D03*
D17*
X126300000Y-95750000D03*
D18*
X126300000Y-100170000D03*
D19*
X128600000Y-100500000D03*
X124000000Y-100500000D03*
D20*
X132890000Y-111210000D03*
D11*
X136390000Y-111210000D03*
D21*
X153540000Y-87360000D03*
X155140000Y-87360000D03*
X131640000Y-87460000D03*
X130040000Y-87460000D03*
D22*
X125690000Y-89360000D03*
X127390000Y-89360000D03*
D21*
X140440000Y-87260000D03*
X138840000Y-87260000D03*
D23*
X156390000Y-83360000D03*
X156390000Y-81760000D03*
X152290000Y-83360000D03*
X152290000Y-81760000D03*
D24*
X129360000Y-122410000D03*
D25*
X129360000Y-119870000D03*
X131900000Y-122410000D03*
X131900000Y-119870000D03*
X134440000Y-122410000D03*
X134440000Y-119870000D03*
X136980000Y-122410000D03*
X136980000Y-119870000D03*
X139520000Y-122410000D03*
X139520000Y-119870000D03*
D23*
X141490000Y-83660000D03*
X141490000Y-82060000D03*
X137390000Y-83660000D03*
X137390000Y-82060000D03*
D26*
X155040000Y-85660000D03*
X153540000Y-85660000D03*
X130040000Y-85660000D03*
X131540000Y-85660000D03*
X138840000Y-85560000D03*
X140340000Y-85560000D03*
D27*
X122790000Y-103210000D03*
X124990000Y-103210000D03*
D26*
X125740000Y-87060000D03*
X127240000Y-87060000D03*
D23*
X132790000Y-83660000D03*
X132790000Y-82060000D03*
X128690000Y-83660000D03*
X128690000Y-82060000D03*
D28*
X106790000Y-105865000D03*
X106790000Y-98115000D03*
X98140000Y-97780000D03*
X98140000Y-105530000D03*
D29*
X120030000Y-101960000D03*
X118330000Y-101960000D03*
X114930000Y-101960000D03*
X116630000Y-101960000D03*
X113230000Y-101960000D03*
D30*
X116590000Y-93660000D03*
D31*
X110015000Y-86485000D03*
X117915000Y-86485000D03*
D32*
X144144449Y-115255551D03*
D11*
X125065000Y-109135000D03*
D15*
X143840000Y-99460000D03*
D32*
X149740000Y-113160000D03*
X142740000Y-115960000D03*
X153340000Y-124060000D03*
X155740000Y-120160000D03*
X157440000Y-117360000D03*
X158140000Y-114660000D03*
X154940000Y-112860000D03*
D33*
X138240000Y-89460000D03*
D32*
X151140000Y-106460000D03*
X150683353Y-105803119D03*
X140690000Y-89410000D03*
X140390000Y-115010000D03*
X144640000Y-116635000D03*
X149815000Y-116010000D03*
X128415000Y-105985000D03*
X141465000Y-112260000D03*
X146195966Y-111879034D03*
D11*
X111465000Y-100510000D03*
X114715000Y-86510000D03*
D15*
X127590000Y-102885000D03*
X122615000Y-95885000D03*
D32*
X148440000Y-117260000D03*
D15*
X153250147Y-106170147D03*
D32*
X156140000Y-114760000D03*
D33*
X138140000Y-117335000D03*
X126300000Y-95750000D03*
X129340000Y-108660000D03*
X139540000Y-93460000D03*
D32*
X152540000Y-87460000D03*
X131640000Y-87460000D03*
X127390000Y-89360000D03*
X140440000Y-87260000D03*
X156040000Y-117360000D03*
X154840000Y-118260000D03*
X151840000Y-113660000D03*
X152040000Y-116960000D03*
X152240000Y-119160000D03*
X152240000Y-121510000D03*
D34*
X148686584Y-111845019D03*
X146140000Y-113460000D03*
D32*
X133540000Y-107010000D03*
X134514990Y-109888976D03*
X135065011Y-117101949D03*
X153540000Y-89560000D03*
X154340000Y-82560000D03*
X134240000Y-107510000D03*
X146940000Y-94860000D03*
X134740000Y-112760000D03*
X133440000Y-104585000D03*
X131490000Y-104735000D03*
X151015000Y-107585000D03*
X132140000Y-113885000D03*
X137640000Y-113885000D03*
X149754906Y-110688002D03*
X146140000Y-110860000D03*
D35*
X124000000Y-102370000D02*
X124840000Y-103210000D01*
X124000000Y-100500000D02*
X124000000Y-102370000D01*
X124840000Y-103210000D02*
X124990000Y-103210000D01*
D36*
X116630000Y-93700000D02*
X116590000Y-93660000D01*
X122910000Y-114460000D02*
X114930000Y-106480000D01*
X114930000Y-106480000D02*
X114930000Y-101960000D01*
D35*
X155040000Y-85660000D02*
X155040000Y-87260000D01*
X155040000Y-87260000D02*
X155140000Y-87360000D01*
X161350000Y-103050000D02*
X154550000Y-103050000D01*
X154550000Y-103050000D02*
X151140000Y-106460000D01*
X155436472Y-101050000D02*
X150683353Y-105803119D01*
X161350000Y-101050000D02*
X155436472Y-101050000D01*
X135140000Y-88160000D02*
X139440000Y-88160000D01*
X139440000Y-88160000D02*
X140690000Y-89410000D01*
X132790000Y-83660000D02*
X132790000Y-85810000D01*
X132790000Y-85810000D02*
X135140000Y-88160000D01*
X132790000Y-83660000D02*
X132790000Y-84910000D01*
X132790000Y-84910000D02*
X132040000Y-85660000D01*
X132040000Y-85660000D02*
X131540000Y-85660000D01*
X132790000Y-83660000D02*
X128690000Y-83660000D01*
X131540000Y-85460000D02*
X131540000Y-85660000D01*
X132339996Y-115010000D02*
X140390000Y-115010000D01*
X145265000Y-116010000D02*
X144640000Y-116635000D01*
X130615000Y-113285004D02*
X132339996Y-115010000D01*
X130615000Y-108185000D02*
X130615000Y-113285004D01*
X128415000Y-105985000D02*
X130615000Y-108185000D01*
X145265000Y-116010000D02*
X149815000Y-116010000D01*
D37*
X110039999Y-89484999D02*
X110015000Y-89460000D01*
X110015000Y-89460000D02*
X110015000Y-86485000D01*
X106790000Y-98115000D02*
X110039999Y-94865001D01*
X110039999Y-94865001D02*
X110039999Y-89484999D01*
D35*
X125690000Y-89360000D02*
X125690000Y-87110000D01*
X125690000Y-87110000D02*
X125740000Y-87060000D01*
X139414353Y-111560000D02*
X140765000Y-111560000D01*
X140765000Y-111560000D02*
X141465000Y-112260000D01*
X147898599Y-111560000D02*
X146515000Y-111560000D01*
X146515000Y-111560000D02*
X146195966Y-111879034D01*
X129729353Y-101875000D02*
X139414353Y-111560000D01*
X128600000Y-101875000D02*
X129729353Y-101875000D01*
D36*
X113230000Y-101960000D02*
X112915000Y-101960000D01*
X112915000Y-101960000D02*
X111465000Y-100510000D01*
D37*
X117915000Y-86485000D02*
X114740000Y-86485000D01*
X114740000Y-86485000D02*
X114715000Y-86510000D01*
D36*
X127590000Y-102885000D02*
X128600000Y-101875000D01*
X128600000Y-101875000D02*
X128600000Y-100500000D01*
D37*
X116150000Y-118610000D02*
X111465000Y-113925000D01*
X111465000Y-113925000D02*
X111465000Y-100510000D01*
D36*
X117915000Y-86485000D02*
X120265000Y-86485000D01*
X120265000Y-86485000D02*
X122615000Y-88835000D01*
X122615000Y-88835000D02*
X122615000Y-95885000D01*
D35*
X148338582Y-111120017D02*
X147898599Y-111560000D01*
X149303023Y-111120017D02*
X148338582Y-111120017D01*
X150840000Y-116560000D02*
X150840000Y-112656994D01*
X150140000Y-117260000D02*
X150840000Y-116560000D01*
X148440000Y-117260000D02*
X150140000Y-117260000D01*
X150840000Y-112656994D02*
X149303023Y-111120017D01*
X128600000Y-100750000D02*
X128600000Y-100500000D01*
D36*
X118330000Y-101960000D02*
X118330000Y-104460000D01*
X118330000Y-104460000D02*
X120930000Y-107060000D01*
X120930000Y-107060000D02*
X122910000Y-107060000D01*
X161350000Y-105550000D02*
X163950000Y-105550000D01*
X161350000Y-105550000D02*
X153870294Y-105550000D01*
X153870294Y-105550000D02*
X153250147Y-106170147D01*
X132440000Y-110760000D02*
X132890000Y-111210000D01*
D38*
X156040000Y-117360000D02*
X156040000Y-114860000D01*
X156040000Y-114860000D02*
X156140000Y-114760000D01*
D39*
X136290001Y-116835001D02*
X135415000Y-115960000D01*
X135415000Y-115960000D02*
X132329998Y-115960000D01*
X138140000Y-117335000D02*
X137640001Y-116835001D01*
X137640001Y-116835001D02*
X136290001Y-116835001D01*
X129340000Y-113070002D02*
X129340000Y-108660000D01*
X132229998Y-115960000D02*
X129340000Y-113070002D01*
X132329998Y-115960000D02*
X132229998Y-115960000D01*
D38*
X131900000Y-122410000D02*
X133150001Y-121159999D01*
X133150001Y-121159999D02*
X133150001Y-116780003D01*
X133150001Y-116780003D02*
X132329998Y-115960000D01*
D36*
X126300000Y-95750000D02*
X137250000Y-95750000D01*
X137250000Y-95750000D02*
X139540000Y-93460000D01*
D35*
X153540000Y-87360000D02*
X152640000Y-87360000D01*
X152640000Y-87360000D02*
X152540000Y-87460000D01*
X127390000Y-89360000D02*
X127390000Y-89260000D01*
D36*
X126300000Y-95750000D02*
X127540000Y-94510000D01*
X127540000Y-94510000D02*
X127540000Y-91260000D01*
D35*
X127540000Y-91260000D02*
X127540000Y-89510000D01*
X127540000Y-89510000D02*
X127390000Y-89360000D01*
D36*
X126300000Y-95750000D02*
X126300000Y-100170000D01*
X125490000Y-94940000D02*
X126300000Y-95750000D01*
D38*
X154840000Y-118260000D02*
X155140000Y-118260000D01*
X155140000Y-118260000D02*
X156040000Y-117360000D01*
X152040000Y-116960000D02*
X152040000Y-113860000D01*
X152040000Y-113860000D02*
X151840000Y-113660000D01*
X152240000Y-121510000D02*
X152240000Y-119160000D01*
X146140000Y-113460000D02*
X147071603Y-113460000D01*
X147071603Y-113460000D02*
X148686584Y-111845019D01*
D35*
X156390000Y-83360000D02*
X155140000Y-83360000D01*
X155140000Y-83360000D02*
X154340000Y-82560000D01*
X154265001Y-88834999D02*
X154265001Y-86585001D01*
X154265001Y-86585001D02*
X153540000Y-85860000D01*
X153540000Y-85860000D02*
X153540000Y-85660000D01*
X153540000Y-85660000D02*
X153540000Y-84560000D01*
X153540000Y-84560000D02*
X152340000Y-83360000D01*
X152340000Y-83360000D02*
X152290000Y-83360000D01*
X134214991Y-108709991D02*
X133540000Y-108035000D01*
X133540000Y-108035000D02*
X133540000Y-107010000D01*
X134514990Y-109888976D02*
X134214991Y-109588977D01*
X134214991Y-109588977D02*
X134214991Y-108709991D01*
X136980000Y-122410000D02*
X135804999Y-121234999D01*
X135804999Y-121234999D02*
X135804999Y-117841937D01*
X135804999Y-117841937D02*
X135065011Y-117101949D01*
X154265001Y-88834999D02*
X153540000Y-89560000D01*
X156390000Y-83360000D02*
X152290000Y-83360000D01*
X146940000Y-94860000D02*
X146940000Y-94435736D01*
X146940000Y-94435736D02*
X144740000Y-92235736D01*
X144740000Y-92235736D02*
X144740000Y-90160000D01*
X135140000Y-108410000D02*
X135140000Y-110235002D01*
X135140000Y-110235002D02*
X134740000Y-110635002D01*
X134240000Y-107510000D02*
X135140000Y-108410000D01*
X134740000Y-110635002D02*
X134740000Y-112760000D01*
X140340000Y-85560000D02*
X140340000Y-85760000D01*
X140340000Y-85760000D02*
X144740000Y-90160000D01*
X141490000Y-83660000D02*
X141490000Y-84910000D01*
X141490000Y-84910000D02*
X140840000Y-85560000D01*
X140840000Y-85560000D02*
X140340000Y-85560000D01*
X137390000Y-83660000D02*
X141490000Y-83660000D01*
X133440000Y-104585000D02*
X148015000Y-104585000D01*
X148015000Y-104585000D02*
X151015000Y-107585000D01*
X124440000Y-104710000D02*
X131465000Y-104710000D01*
X131465000Y-104710000D02*
X131490000Y-104735000D01*
X122790000Y-103210000D02*
X122940000Y-103210000D01*
X122940000Y-103210000D02*
X124440000Y-104710000D01*
X120030000Y-101960000D02*
X122240000Y-101960000D01*
X122240000Y-101960000D02*
X122790000Y-102510000D01*
X122790000Y-102510000D02*
X122790000Y-103210000D01*
X120065000Y-101925000D02*
X120030000Y-101960000D01*
X130040000Y-87460000D02*
X130040000Y-85660000D01*
X138840000Y-85560000D02*
X138840000Y-87260000D01*
X137640000Y-113885000D02*
X132140000Y-113885000D01*
X146140000Y-110860000D02*
X146439999Y-110560001D01*
X149626905Y-110560001D02*
X149754906Y-110688002D01*
X146439999Y-110560001D02*
X149626905Y-110560001D01*
D40*
G36*
X157958000Y-92109000D02*
X158012046Y-92380705D01*
X158165954Y-92611046D01*
X158396295Y-92764954D01*
X158668000Y-92819000D01*
X160284735Y-92819000D01*
X159475353Y-93154257D01*
X159254584Y-93524978D01*
X160950000Y-95220395D01*
X162645416Y-93524978D01*
X162424647Y-93154257D01*
X161596545Y-92819000D01*
X165984735Y-92819000D01*
X165175353Y-93154257D01*
X164954584Y-93524978D01*
X166650000Y-95220395D01*
X168345416Y-93524978D01*
X168124647Y-93154257D01*
X167296545Y-92819000D01*
X174958000Y-92819000D01*
X174958000Y-110999000D01*
X167996073Y-110999000D01*
X168124647Y-110945743D01*
X168345416Y-110575022D01*
X166650000Y-108879605D01*
X164954584Y-110575022D01*
X165175353Y-110945743D01*
X165306901Y-110999000D01*
X162296073Y-110999000D01*
X162424647Y-110945743D01*
X162645416Y-110575022D01*
X160950000Y-108879605D01*
X159254584Y-110575022D01*
X159475353Y-110945743D01*
X159606901Y-110999000D01*
X159418000Y-110999000D01*
X159146295Y-111053046D01*
X158915954Y-111206954D01*
X158762046Y-111437295D01*
X158708000Y-111709000D01*
X158708000Y-125499000D01*
X108428000Y-125499000D01*
X108428000Y-121579874D01*
X118424370Y-121579874D01*
X118976600Y-122916372D01*
X119998249Y-123939806D01*
X121333782Y-124494368D01*
X122779874Y-124495630D01*
X124116372Y-123943400D01*
X125139806Y-122921751D01*
X125233649Y-122695750D01*
X127875000Y-122695750D01*
X127875000Y-123386309D01*
X127971673Y-123619698D01*
X128150301Y-123798327D01*
X128383690Y-123895000D01*
X129074250Y-123895000D01*
X129233000Y-123736250D01*
X129233000Y-122537000D01*
X128033750Y-122537000D01*
X127875000Y-122695750D01*
X125233649Y-122695750D01*
X125694368Y-121586218D01*
X125694501Y-121433691D01*
X127875000Y-121433691D01*
X127875000Y-122124250D01*
X128033750Y-122283000D01*
X129233000Y-122283000D01*
X129233000Y-119997000D01*
X128039181Y-119997000D01*
X127918514Y-120226892D01*
X128164817Y-120751358D01*
X128364208Y-120933070D01*
X128150301Y-121021673D01*
X127971673Y-121200302D01*
X127875000Y-121433691D01*
X125694501Y-121433691D01*
X125695630Y-120140126D01*
X125436552Y-119513108D01*
X127918514Y-119513108D01*
X128039181Y-119743000D01*
X129233000Y-119743000D01*
X129233000Y-118549845D01*
X129003110Y-118428524D01*
X128593076Y-118598355D01*
X128164817Y-118988642D01*
X127918514Y-119513108D01*
X125436552Y-119513108D01*
X125143400Y-118803628D01*
X124121751Y-117780194D01*
X122786218Y-117225632D01*
X121340126Y-117224370D01*
X120003628Y-117776600D01*
X118980194Y-118798249D01*
X118425632Y-120133782D01*
X118424370Y-121579874D01*
X108428000Y-121579874D01*
X108428000Y-119590213D01*
X110349392Y-119590213D01*
X110418857Y-119832397D01*
X110942302Y-120019144D01*
X111497368Y-119991362D01*
X111881143Y-119832397D01*
X111950608Y-119590213D01*
X111150000Y-118789605D01*
X110349392Y-119590213D01*
X108428000Y-119590213D01*
X108428000Y-118402302D01*
X109740856Y-118402302D01*
X109768638Y-118957368D01*
X109927603Y-119341143D01*
X110169787Y-119410608D01*
X110970395Y-118610000D01*
X111329605Y-118610000D01*
X112130213Y-119410608D01*
X112372397Y-119341143D01*
X112559144Y-118817698D01*
X112531362Y-118262632D01*
X112372397Y-117878857D01*
X112130213Y-117809392D01*
X111329605Y-118610000D01*
X110970395Y-118610000D01*
X110169787Y-117809392D01*
X109927603Y-117878857D01*
X109740856Y-118402302D01*
X108428000Y-118402302D01*
X108428000Y-117629787D01*
X110349392Y-117629787D01*
X111150000Y-118430395D01*
X111950608Y-117629787D01*
X111881143Y-117387603D01*
X111357698Y-117200856D01*
X110802632Y-117228638D01*
X110418857Y-117387603D01*
X110349392Y-117629787D01*
X108428000Y-117629787D01*
X108428000Y-111709000D01*
X108373954Y-111437295D01*
X108220046Y-111206954D01*
X107989705Y-111053046D01*
X107718000Y-110999000D01*
X93928000Y-110999000D01*
X93928000Y-106299384D01*
X94254327Y-106299384D01*
X94844537Y-107727801D01*
X95936451Y-108821623D01*
X97363835Y-109414324D01*
X98909384Y-109415673D01*
X100337801Y-108825463D01*
X100521606Y-108641978D01*
X104192627Y-108641978D01*
X104565658Y-109142608D01*
X105989262Y-109744333D01*
X107534772Y-109755466D01*
X108966896Y-109174311D01*
X109014342Y-109142608D01*
X109387373Y-108641978D01*
X106790000Y-106044605D01*
X104192627Y-108641978D01*
X100521606Y-108641978D01*
X101431623Y-107733549D01*
X101898255Y-106609772D01*
X102899534Y-106609772D01*
X103480689Y-108041896D01*
X103512392Y-108089342D01*
X104013022Y-108462373D01*
X106610395Y-105865000D01*
X104013022Y-103267627D01*
X103512392Y-103640658D01*
X102910667Y-105064262D01*
X102899534Y-106609772D01*
X101898255Y-106609772D01*
X102024324Y-106306165D01*
X102025673Y-104760616D01*
X101435463Y-103332199D01*
X100343549Y-102238377D01*
X98930842Y-101651771D01*
X100316896Y-101089311D01*
X100364342Y-101057608D01*
X100737373Y-100556978D01*
X98140000Y-97959605D01*
X95542627Y-100556978D01*
X95915658Y-101057608D01*
X97336809Y-101658296D01*
X95942199Y-102234537D01*
X94848377Y-103326451D01*
X94255676Y-104753835D01*
X94254327Y-106299384D01*
X93928000Y-106299384D01*
X93928000Y-98524772D01*
X94249534Y-98524772D01*
X94830689Y-99956896D01*
X94862392Y-100004342D01*
X95363022Y-100377373D01*
X97960395Y-97780000D01*
X98319605Y-97780000D01*
X100916978Y-100377373D01*
X101417608Y-100004342D01*
X102019333Y-98580738D01*
X102030466Y-97035228D01*
X101449311Y-95603104D01*
X101417608Y-95555658D01*
X100916978Y-95182627D01*
X98319605Y-97780000D01*
X97960395Y-97780000D01*
X95363022Y-95182627D01*
X94862392Y-95555658D01*
X94260667Y-96979262D01*
X94249534Y-98524772D01*
X93928000Y-98524772D01*
X93928000Y-95003022D01*
X95542627Y-95003022D01*
X98140000Y-97600395D01*
X100737373Y-95003022D01*
X100364342Y-94502392D01*
X98940738Y-93900667D01*
X97395228Y-93889534D01*
X95963104Y-94470689D01*
X95915658Y-94502392D01*
X95542627Y-95003022D01*
X93928000Y-95003022D01*
X93928000Y-92819000D01*
X107718000Y-92819000D01*
X107989705Y-92764954D01*
X108220046Y-92611046D01*
X108373954Y-92380705D01*
X108404999Y-92224633D01*
X108404999Y-94187762D01*
X108128559Y-94464202D01*
X107566165Y-94230676D01*
X106020616Y-94229327D01*
X104592199Y-94819537D01*
X103498377Y-95911451D01*
X102905676Y-97338835D01*
X102904327Y-98884384D01*
X103494537Y-100312801D01*
X104586451Y-101406623D01*
X105999158Y-101993229D01*
X104613104Y-102555689D01*
X104565658Y-102587392D01*
X104192627Y-103088022D01*
X106790000Y-105685395D01*
X109387373Y-103088022D01*
X109014342Y-102587392D01*
X107593191Y-101986704D01*
X108987801Y-101410463D01*
X109829947Y-100569786D01*
X109829716Y-100833795D01*
X109830000Y-100834482D01*
X109830000Y-103463611D01*
X109566978Y-103267627D01*
X106969605Y-105865000D01*
X109566978Y-108462373D01*
X109830000Y-108266389D01*
X109830000Y-113924995D01*
X109829999Y-113925000D01*
X109954457Y-114550688D01*
X110308880Y-115081120D01*
X114993881Y-119766120D01*
X115524313Y-120120543D01*
X116150000Y-120245001D01*
X116775688Y-120120543D01*
X117306120Y-119766120D01*
X117660543Y-119235688D01*
X117785001Y-118610000D01*
X117660543Y-117984313D01*
X117306120Y-117453881D01*
X113100000Y-113247760D01*
X113100000Y-104107440D01*
X113765000Y-104107440D01*
X113795000Y-104101795D01*
X113795000Y-106480000D01*
X113881397Y-106914346D01*
X114107139Y-107252192D01*
X114127434Y-107282566D01*
X121275025Y-114430157D01*
X121274716Y-114783795D01*
X121523106Y-115384943D01*
X121982637Y-115845278D01*
X122583352Y-116094716D01*
X123233795Y-116095284D01*
X123834943Y-115846894D01*
X124295278Y-115387363D01*
X124544716Y-114786648D01*
X124545284Y-114136205D01*
X124296894Y-113535057D01*
X123837363Y-113074722D01*
X123236648Y-112825284D01*
X122880105Y-112824973D01*
X116065000Y-106009868D01*
X116065000Y-104095000D01*
X116344250Y-104095000D01*
X116503000Y-103936250D01*
X116503000Y-102087000D01*
X116483000Y-102087000D01*
X116483000Y-101833000D01*
X116503000Y-101833000D01*
X116503000Y-99983750D01*
X116344250Y-99825000D01*
X115968690Y-99825000D01*
X115776782Y-99904491D01*
X115716890Y-99863569D01*
X115465000Y-99812560D01*
X114395000Y-99812560D01*
X114159683Y-99856838D01*
X114081072Y-99907423D01*
X114016890Y-99863569D01*
X113765000Y-99812560D01*
X112945897Y-99812560D01*
X112851894Y-99585057D01*
X112392363Y-99124722D01*
X111791648Y-98875284D01*
X111141205Y-98874716D01*
X110585875Y-99104174D01*
X110674324Y-98891165D01*
X110675673Y-97345616D01*
X110440583Y-96776656D01*
X111196116Y-96021123D01*
X111196119Y-96021121D01*
X111550542Y-95490688D01*
X111570505Y-95390327D01*
X111675000Y-94865001D01*
X111674999Y-94864996D01*
X111674999Y-93945750D01*
X111790000Y-93945750D01*
X111790000Y-98286309D01*
X111886673Y-98519698D01*
X112065301Y-98698327D01*
X112298690Y-98795000D01*
X116304250Y-98795000D01*
X116463000Y-98636250D01*
X116463000Y-93787000D01*
X111948750Y-93787000D01*
X111790000Y-93945750D01*
X111674999Y-93945750D01*
X111674999Y-89485004D01*
X111675000Y-89484999D01*
X111650000Y-89359316D01*
X111650000Y-89033691D01*
X111790000Y-89033691D01*
X111790000Y-93374250D01*
X111948750Y-93533000D01*
X116463000Y-93533000D01*
X116463000Y-93513000D01*
X116717000Y-93513000D01*
X116717000Y-93533000D01*
X121231250Y-93533000D01*
X121390000Y-93374250D01*
X121390000Y-89215132D01*
X121480000Y-89305132D01*
X121480000Y-95061042D01*
X121441539Y-95099436D01*
X121390000Y-95223556D01*
X121390000Y-93945750D01*
X121231250Y-93787000D01*
X116717000Y-93787000D01*
X116717000Y-98636250D01*
X116875750Y-98795000D01*
X120881310Y-98795000D01*
X121114699Y-98698327D01*
X121293327Y-98519698D01*
X121390000Y-98286309D01*
X121390000Y-96547096D01*
X121440169Y-96668515D01*
X121829436Y-97058461D01*
X122338298Y-97269759D01*
X122889285Y-97270240D01*
X123398515Y-97059831D01*
X123752560Y-96706402D01*
X123752560Y-98750000D01*
X123788093Y-98938843D01*
X123714250Y-98865000D01*
X123123690Y-98865000D01*
X122890301Y-98961673D01*
X122711673Y-99140302D01*
X122615000Y-99373691D01*
X122615000Y-100214250D01*
X122773750Y-100373000D01*
X123873000Y-100373000D01*
X123873000Y-100353000D01*
X124127000Y-100353000D01*
X124127000Y-100373000D01*
X124147000Y-100373000D01*
X124147000Y-100627000D01*
X124127000Y-100627000D01*
X124127000Y-101976250D01*
X124275750Y-102125000D01*
X124263691Y-102125000D01*
X124030302Y-102221673D01*
X123889064Y-102362910D01*
X123854090Y-102308559D01*
X123641890Y-102163569D01*
X123500812Y-102135000D01*
X123714250Y-102135000D01*
X123873000Y-101976250D01*
X123873000Y-100627000D01*
X122773750Y-100627000D01*
X122615000Y-100785750D01*
X122615000Y-101314086D01*
X122530839Y-101257852D01*
X122240000Y-101200000D01*
X121212440Y-101200000D01*
X121212440Y-100460000D01*
X121168162Y-100224683D01*
X121029090Y-100008559D01*
X120816890Y-99863569D01*
X120565000Y-99812560D01*
X119495000Y-99812560D01*
X119259683Y-99856838D01*
X119181072Y-99907423D01*
X119116890Y-99863569D01*
X118865000Y-99812560D01*
X117795000Y-99812560D01*
X117559683Y-99856838D01*
X117484684Y-99905098D01*
X117291310Y-99825000D01*
X116915750Y-99825000D01*
X116757000Y-99983750D01*
X116757000Y-101833000D01*
X116777000Y-101833000D01*
X116777000Y-102087000D01*
X116757000Y-102087000D01*
X116757000Y-103936250D01*
X116915750Y-104095000D01*
X117195000Y-104095000D01*
X117195000Y-104460000D01*
X117281397Y-104894346D01*
X117429271Y-105115655D01*
X117527434Y-105262566D01*
X120127434Y-107862566D01*
X120495654Y-108108603D01*
X120930000Y-108195000D01*
X121732796Y-108195000D01*
X121982637Y-108445278D01*
X122583352Y-108694716D01*
X123233795Y-108695284D01*
X123834943Y-108446894D01*
X124295278Y-107987363D01*
X124544716Y-107386648D01*
X124545284Y-106736205D01*
X124296894Y-106135057D01*
X123837363Y-105674722D01*
X123236648Y-105425284D01*
X122586205Y-105424716D01*
X121985057Y-105673106D01*
X121732722Y-105925000D01*
X121400132Y-105925000D01*
X119582572Y-104107440D01*
X120565000Y-104107440D01*
X120800317Y-104063162D01*
X121016441Y-103924090D01*
X121161431Y-103711890D01*
X121212440Y-103460000D01*
X121212440Y-102720000D01*
X121550660Y-102720000D01*
X121542560Y-102760000D01*
X121542560Y-103660000D01*
X121586838Y-103895317D01*
X121725910Y-104111441D01*
X121938110Y-104256431D01*
X122190000Y-104307440D01*
X122962638Y-104307440D01*
X123902599Y-105247401D01*
X124149160Y-105412148D01*
X124440000Y-105470000D01*
X127616444Y-105470000D01*
X127480162Y-105798201D01*
X127479838Y-106170167D01*
X127621883Y-106513943D01*
X127884673Y-106777192D01*
X128228201Y-106919838D01*
X128275077Y-106919879D01*
X128948776Y-107593578D01*
X128697914Y-107697233D01*
X128378355Y-108016235D01*
X128205197Y-108433244D01*
X128204803Y-108884775D01*
X128377233Y-109302086D01*
X128455000Y-109379989D01*
X128455000Y-113069997D01*
X128454999Y-113070002D01*
X128500233Y-113297401D01*
X128522367Y-113408677D01*
X128610421Y-113540460D01*
X128714210Y-113695792D01*
X131604206Y-116585787D01*
X131604208Y-116585790D01*
X131891323Y-116777633D01*
X131985495Y-116796365D01*
X132315001Y-117125871D01*
X132315001Y-118438456D01*
X131900000Y-118355907D01*
X131331715Y-118468946D01*
X130849946Y-118790853D01*
X130622298Y-119131553D01*
X130555183Y-118988642D01*
X130126924Y-118598355D01*
X129716890Y-118428524D01*
X129487000Y-118549845D01*
X129487000Y-119743000D01*
X129507000Y-119743000D01*
X129507000Y-119997000D01*
X129487000Y-119997000D01*
X129487000Y-122283000D01*
X129507000Y-122283000D01*
X129507000Y-122537000D01*
X129487000Y-122537000D01*
X129487000Y-123736250D01*
X129645750Y-123895000D01*
X130336310Y-123895000D01*
X130569699Y-123798327D01*
X130748327Y-123619698D01*
X130820597Y-123445223D01*
X130849946Y-123489147D01*
X131331715Y-123811054D01*
X131900000Y-123924093D01*
X132468285Y-123811054D01*
X132950054Y-123489147D01*
X133170000Y-123159974D01*
X133389946Y-123489147D01*
X133871715Y-123811054D01*
X134440000Y-123924093D01*
X135008285Y-123811054D01*
X135490054Y-123489147D01*
X135710000Y-123159974D01*
X135929946Y-123489147D01*
X136411715Y-123811054D01*
X136980000Y-123924093D01*
X137548285Y-123811054D01*
X138030054Y-123489147D01*
X138250000Y-123159974D01*
X138469946Y-123489147D01*
X138951715Y-123811054D01*
X139520000Y-123924093D01*
X140088285Y-123811054D01*
X140570054Y-123489147D01*
X140891961Y-123007378D01*
X141005000Y-122439093D01*
X141005000Y-122380907D01*
X140891961Y-121812622D01*
X140736445Y-121579874D01*
X143374370Y-121579874D01*
X143926600Y-122916372D01*
X144948249Y-123939806D01*
X146283782Y-124494368D01*
X147729874Y-124495630D01*
X149066372Y-123943400D01*
X150089806Y-122921751D01*
X150644368Y-121586218D01*
X150645630Y-120140126D01*
X150317160Y-119345167D01*
X151304838Y-119345167D01*
X151405000Y-119587578D01*
X151405000Y-121082766D01*
X151305162Y-121323201D01*
X151304838Y-121695167D01*
X151446883Y-122038943D01*
X151709673Y-122302192D01*
X152053201Y-122444838D01*
X152425167Y-122445162D01*
X152768943Y-122303117D01*
X153032192Y-122040327D01*
X153174838Y-121696799D01*
X153175162Y-121324833D01*
X153075000Y-121082422D01*
X153075000Y-119587234D01*
X153174838Y-119346799D01*
X153175162Y-118974833D01*
X153033117Y-118631057D01*
X152847552Y-118445167D01*
X153904838Y-118445167D01*
X154046883Y-118788943D01*
X154309673Y-119052192D01*
X154653201Y-119194838D01*
X155025167Y-119195162D01*
X155368943Y-119053117D01*
X155373518Y-119048550D01*
X155459541Y-119031439D01*
X155730434Y-118850434D01*
X156328333Y-118252535D01*
X156568943Y-118153117D01*
X156832192Y-117890327D01*
X156974838Y-117546799D01*
X156975162Y-117174833D01*
X156875000Y-116932422D01*
X156875000Y-115347419D01*
X156932192Y-115290327D01*
X157074838Y-114946799D01*
X157075162Y-114574833D01*
X156933117Y-114231057D01*
X156670327Y-113967808D01*
X156326799Y-113825162D01*
X155954833Y-113824838D01*
X155611057Y-113966883D01*
X155347808Y-114229673D01*
X155205162Y-114573201D01*
X155204838Y-114945167D01*
X155205000Y-114945559D01*
X155205000Y-116932766D01*
X155147222Y-117071910D01*
X154894086Y-117325046D01*
X154654833Y-117324838D01*
X154311057Y-117466883D01*
X154047808Y-117729673D01*
X153905162Y-118073201D01*
X153904838Y-118445167D01*
X152847552Y-118445167D01*
X152770327Y-118367808D01*
X152426799Y-118225162D01*
X152054833Y-118224838D01*
X151711057Y-118366883D01*
X151447808Y-118629673D01*
X151305162Y-118973201D01*
X151304838Y-119345167D01*
X150317160Y-119345167D01*
X150093400Y-118803628D01*
X149311139Y-118020000D01*
X150140000Y-118020000D01*
X150430839Y-117962148D01*
X150677401Y-117797401D01*
X151170565Y-117304238D01*
X151246883Y-117488943D01*
X151509673Y-117752192D01*
X151853201Y-117894838D01*
X152225167Y-117895162D01*
X152568943Y-117753117D01*
X152832192Y-117490327D01*
X152974838Y-117146799D01*
X152975162Y-116774833D01*
X152875000Y-116532422D01*
X152875000Y-113860000D01*
X152858996Y-113779541D01*
X152811440Y-113540460D01*
X152775152Y-113486152D01*
X152775162Y-113474833D01*
X152633117Y-113131057D01*
X152370327Y-112867808D01*
X152026799Y-112725162D01*
X151654833Y-112724838D01*
X151600000Y-112747494D01*
X151600000Y-112656994D01*
X151542148Y-112366155D01*
X151377401Y-112119593D01*
X150511587Y-111253779D01*
X150547098Y-111218329D01*
X150689744Y-110874801D01*
X150690068Y-110502835D01*
X150548023Y-110159059D01*
X150285233Y-109895810D01*
X149941705Y-109753164D01*
X149569739Y-109752840D01*
X149455600Y-109800001D01*
X146439999Y-109800001D01*
X146149160Y-109857853D01*
X146048787Y-109924920D01*
X145954833Y-109924838D01*
X145611057Y-110066883D01*
X145347808Y-110329673D01*
X145205162Y-110673201D01*
X145204838Y-111045167D01*
X145346883Y-111388943D01*
X145375262Y-111417371D01*
X145261128Y-111692235D01*
X145260804Y-112064201D01*
X145402849Y-112407977D01*
X145570161Y-112575581D01*
X145554485Y-112582058D01*
X145263081Y-112872954D01*
X145105180Y-113253223D01*
X145104821Y-113664971D01*
X145262058Y-114045515D01*
X145552954Y-114336919D01*
X145933223Y-114494820D01*
X146344971Y-114495179D01*
X146725515Y-114337942D01*
X146768532Y-114295000D01*
X147071603Y-114295000D01*
X147391144Y-114231439D01*
X147662037Y-114050434D01*
X148832325Y-112880146D01*
X148891555Y-112880198D01*
X149272099Y-112722961D01*
X149551876Y-112443672D01*
X150080000Y-112971796D01*
X150080000Y-115107634D01*
X150001799Y-115075162D01*
X149629833Y-115074838D01*
X149286057Y-115216883D01*
X149252882Y-115250000D01*
X145265000Y-115250000D01*
X145022414Y-115298254D01*
X144974160Y-115307852D01*
X144727599Y-115472599D01*
X144500320Y-115699878D01*
X144454833Y-115699838D01*
X144111057Y-115841883D01*
X143847808Y-116104673D01*
X143705162Y-116448201D01*
X143704838Y-116820167D01*
X143846883Y-117163943D01*
X144109673Y-117427192D01*
X144453201Y-117569838D01*
X144825167Y-117570162D01*
X145168943Y-117428117D01*
X145432192Y-117165327D01*
X145574838Y-116821799D01*
X145574879Y-116774923D01*
X145579802Y-116770000D01*
X147631063Y-116770000D01*
X147505162Y-117073201D01*
X147505029Y-117225430D01*
X146290126Y-117224370D01*
X144953628Y-117776600D01*
X143930194Y-118798249D01*
X143375632Y-120133782D01*
X143374370Y-121579874D01*
X140736445Y-121579874D01*
X140570054Y-121330853D01*
X140284422Y-121140000D01*
X140570054Y-120949147D01*
X140891961Y-120467378D01*
X141005000Y-119899093D01*
X141005000Y-119840907D01*
X140891961Y-119272622D01*
X140570054Y-118790853D01*
X140088285Y-118468946D01*
X139520000Y-118355907D01*
X138951715Y-118468946D01*
X138469946Y-118790853D01*
X138250000Y-119120026D01*
X138030054Y-118790853D01*
X137548285Y-118468946D01*
X136980000Y-118355907D01*
X136564999Y-118438456D01*
X136564999Y-117841937D01*
X136540744Y-117720001D01*
X137071007Y-117720001D01*
X137177233Y-117977086D01*
X137496235Y-118296645D01*
X137913244Y-118469803D01*
X138364775Y-118470197D01*
X138782086Y-118297767D01*
X139101645Y-117978765D01*
X139274803Y-117561756D01*
X139275197Y-117110225D01*
X139102767Y-116692914D01*
X138783765Y-116373355D01*
X138366756Y-116200197D01*
X138252151Y-116200097D01*
X137978676Y-116017368D01*
X137922485Y-116006191D01*
X137640001Y-115950000D01*
X137639996Y-115950001D01*
X136656580Y-115950001D01*
X136476580Y-115770000D01*
X139827537Y-115770000D01*
X139859673Y-115802192D01*
X140203201Y-115944838D01*
X140575167Y-115945162D01*
X140918943Y-115803117D01*
X141182192Y-115540327D01*
X141324838Y-115196799D01*
X141325162Y-114824833D01*
X141183117Y-114481057D01*
X140920327Y-114217808D01*
X140576799Y-114075162D01*
X140204833Y-114074838D01*
X139861057Y-114216883D01*
X139827882Y-114250000D01*
X138500842Y-114250000D01*
X138574838Y-114071799D01*
X138575162Y-113699833D01*
X138433117Y-113356057D01*
X138170327Y-113092808D01*
X137826799Y-112950162D01*
X137454833Y-112949838D01*
X137111057Y-113091883D01*
X137077882Y-113125000D01*
X135600842Y-113125000D01*
X135674838Y-112946799D01*
X135675063Y-112688579D01*
X136125461Y-112855908D01*
X136775460Y-112831856D01*
X137264264Y-112629387D01*
X137362927Y-112362532D01*
X136390000Y-111389605D01*
X136375858Y-111403748D01*
X136196253Y-111224143D01*
X136210395Y-111210000D01*
X136196253Y-111195858D01*
X136375858Y-111016253D01*
X136390000Y-111030395D01*
X136404143Y-111016253D01*
X136583748Y-111195858D01*
X136569605Y-111210000D01*
X137542532Y-112182927D01*
X137809387Y-112084264D01*
X138035908Y-111474539D01*
X138027524Y-111247973D01*
X138876952Y-112097401D01*
X139123513Y-112262148D01*
X139414353Y-112320000D01*
X140450198Y-112320000D01*
X140529878Y-112399680D01*
X140529838Y-112445167D01*
X140671883Y-112788943D01*
X140934673Y-113052192D01*
X141278201Y-113194838D01*
X141650167Y-113195162D01*
X141993943Y-113053117D01*
X142257192Y-112790327D01*
X142399838Y-112446799D01*
X142400162Y-112074833D01*
X142258117Y-111731057D01*
X141995327Y-111467808D01*
X141651799Y-111325162D01*
X141604924Y-111325121D01*
X141302401Y-111022599D01*
X141055839Y-110857852D01*
X140765000Y-110800000D01*
X139729155Y-110800000D01*
X134274155Y-105345000D01*
X147700198Y-105345000D01*
X150079878Y-107724680D01*
X150079838Y-107770167D01*
X150221883Y-108113943D01*
X150484673Y-108377192D01*
X150828201Y-108519838D01*
X151200167Y-108520162D01*
X151543943Y-108378117D01*
X151725364Y-108197012D01*
X158310881Y-108197012D01*
X158319287Y-109245247D01*
X158704257Y-110174647D01*
X159074978Y-110395416D01*
X160770395Y-108700000D01*
X161129605Y-108700000D01*
X162825022Y-110395416D01*
X163195743Y-110174647D01*
X163589119Y-109202988D01*
X163581052Y-108197012D01*
X164010881Y-108197012D01*
X164019287Y-109245247D01*
X164404257Y-110174647D01*
X164774978Y-110395416D01*
X166470395Y-108700000D01*
X166829605Y-108700000D01*
X168525022Y-110395416D01*
X168895743Y-110174647D01*
X169289119Y-109202988D01*
X169280713Y-108154753D01*
X168895743Y-107225353D01*
X168525022Y-107004584D01*
X166829605Y-108700000D01*
X166470395Y-108700000D01*
X164774978Y-107004584D01*
X164404257Y-107225353D01*
X164010881Y-108197012D01*
X163581052Y-108197012D01*
X163580713Y-108154753D01*
X163195743Y-107225353D01*
X162825022Y-107004584D01*
X161129605Y-108700000D01*
X160770395Y-108700000D01*
X159074978Y-107004584D01*
X158704257Y-107225353D01*
X158310881Y-108197012D01*
X151725364Y-108197012D01*
X151807192Y-108115327D01*
X151949838Y-107771799D01*
X151950162Y-107399833D01*
X151825121Y-107097211D01*
X151932192Y-106990327D01*
X152011524Y-106799274D01*
X152075316Y-106953662D01*
X152464583Y-107343608D01*
X152973445Y-107554906D01*
X153524432Y-107555387D01*
X154033662Y-107344978D01*
X154423608Y-106955711D01*
X154536017Y-106685000D01*
X159337943Y-106685000D01*
X159254584Y-106824978D01*
X160950000Y-108520395D01*
X162645416Y-106824978D01*
X162562057Y-106685000D01*
X163126042Y-106685000D01*
X163164436Y-106723461D01*
X163673298Y-106934759D01*
X164224285Y-106935240D01*
X164491140Y-106824978D01*
X164954584Y-106824978D01*
X166650000Y-108520395D01*
X168345416Y-106824978D01*
X168124647Y-106454257D01*
X167152988Y-106060881D01*
X166104753Y-106069287D01*
X165175353Y-106454257D01*
X164954584Y-106824978D01*
X164491140Y-106824978D01*
X164733515Y-106724831D01*
X165123461Y-106335564D01*
X165334759Y-105826702D01*
X165335240Y-105275715D01*
X165124831Y-104766485D01*
X164735564Y-104376539D01*
X164551414Y-104300073D01*
X164733515Y-104224831D01*
X165123461Y-103835564D01*
X165334759Y-103326702D01*
X165335240Y-102775715D01*
X165124831Y-102266485D01*
X164908687Y-102049964D01*
X165123461Y-101835564D01*
X165334759Y-101326702D01*
X165335240Y-100775715D01*
X165124831Y-100266485D01*
X164735564Y-99876539D01*
X164567246Y-99806647D01*
X164673923Y-99762460D01*
X164741912Y-99521517D01*
X163950000Y-98729605D01*
X163158088Y-99521517D01*
X163226077Y-99762460D01*
X163340611Y-99803222D01*
X163166485Y-99875169D01*
X162776539Y-100264436D01*
X162649950Y-100569297D01*
X162524831Y-100266485D01*
X162135564Y-99876539D01*
X161967246Y-99806647D01*
X162073923Y-99762460D01*
X162141912Y-99521517D01*
X161350000Y-98729605D01*
X160558088Y-99521517D01*
X160626077Y-99762460D01*
X160740611Y-99803222D01*
X160566485Y-99875169D01*
X160176539Y-100264436D01*
X160165924Y-100290000D01*
X155436472Y-100290000D01*
X155145632Y-100347852D01*
X154899071Y-100512599D01*
X150543673Y-104867997D01*
X150498186Y-104867957D01*
X150154410Y-105010002D01*
X149891161Y-105272792D01*
X149857840Y-105353038D01*
X148552401Y-104047599D01*
X148305839Y-103882852D01*
X148015000Y-103825000D01*
X134002463Y-103825000D01*
X133970327Y-103792808D01*
X133626799Y-103650162D01*
X133254833Y-103649838D01*
X132911057Y-103791883D01*
X132815965Y-103886810D01*
X130266754Y-101337599D01*
X130020192Y-101172852D01*
X129997440Y-101168326D01*
X129997440Y-99500000D01*
X129953162Y-99264683D01*
X129814090Y-99048559D01*
X129601890Y-98903569D01*
X129350000Y-98852560D01*
X128826671Y-98852560D01*
X128847440Y-98750000D01*
X128847440Y-97275022D01*
X159254584Y-97275022D01*
X159475353Y-97645743D01*
X160110243Y-97902778D01*
X159952799Y-98345171D01*
X159980770Y-98895448D01*
X160137540Y-99273923D01*
X160378483Y-99341912D01*
X161170395Y-98550000D01*
X161156253Y-98535858D01*
X161335858Y-98356253D01*
X161350000Y-98370395D01*
X161364143Y-98356253D01*
X161543748Y-98535858D01*
X161529605Y-98550000D01*
X162321517Y-99341912D01*
X162562460Y-99273923D01*
X162643370Y-99046578D01*
X162737540Y-99273923D01*
X162978483Y-99341912D01*
X163770395Y-98550000D01*
X164129605Y-98550000D01*
X164921517Y-99341912D01*
X165162460Y-99273923D01*
X165347201Y-98754829D01*
X165319230Y-98204552D01*
X165162460Y-97826077D01*
X164921517Y-97758088D01*
X164129605Y-98550000D01*
X163770395Y-98550000D01*
X162978483Y-97758088D01*
X162737540Y-97826077D01*
X162656630Y-98053422D01*
X162562460Y-97826077D01*
X162321519Y-97758089D01*
X162436574Y-97643034D01*
X162430110Y-97636570D01*
X162464701Y-97578483D01*
X163158088Y-97578483D01*
X163950000Y-98370395D01*
X164741912Y-97578483D01*
X164673923Y-97337540D01*
X164498257Y-97275022D01*
X164954584Y-97275022D01*
X165175353Y-97645743D01*
X166147012Y-98039119D01*
X167195247Y-98030713D01*
X168124647Y-97645743D01*
X168345416Y-97275022D01*
X166650000Y-95579605D01*
X164954584Y-97275022D01*
X164498257Y-97275022D01*
X164154829Y-97152799D01*
X163604552Y-97180770D01*
X163226077Y-97337540D01*
X163158088Y-97578483D01*
X162464701Y-97578483D01*
X162645416Y-97275022D01*
X160950000Y-95579605D01*
X159254584Y-97275022D01*
X128847440Y-97275022D01*
X128847440Y-96885000D01*
X137250000Y-96885000D01*
X137684346Y-96798603D01*
X138052566Y-96552566D01*
X140342152Y-94262980D01*
X140501645Y-94103765D01*
X140674803Y-93686756D01*
X140675197Y-93235225D01*
X140502767Y-92817914D01*
X140183765Y-92498355D01*
X139766756Y-92325197D01*
X139315225Y-92324803D01*
X138897914Y-92497233D01*
X138578355Y-92816235D01*
X138578158Y-92816710D01*
X136779868Y-94615000D01*
X128847440Y-94615000D01*
X128847440Y-92750000D01*
X128803162Y-92514683D01*
X128675000Y-92315514D01*
X128675000Y-91976797D01*
X128736431Y-91886890D01*
X128787440Y-91635000D01*
X128787440Y-90885000D01*
X128743162Y-90649683D01*
X128604090Y-90433559D01*
X128391890Y-90288569D01*
X128300000Y-90269961D01*
X128300000Y-89944884D01*
X128337440Y-89760000D01*
X128337440Y-88960000D01*
X128293162Y-88724683D01*
X128154090Y-88508559D01*
X127941890Y-88363569D01*
X127690000Y-88312560D01*
X127090000Y-88312560D01*
X126854683Y-88356838D01*
X126638559Y-88495910D01*
X126539367Y-88641083D01*
X126454090Y-88508559D01*
X126450000Y-88505764D01*
X126450000Y-87961563D01*
X126487969Y-87905994D01*
X126630302Y-88048327D01*
X126863691Y-88145000D01*
X126956250Y-88145000D01*
X127115000Y-87986250D01*
X127115000Y-87187000D01*
X127365000Y-87187000D01*
X127365000Y-87986250D01*
X127523750Y-88145000D01*
X127616309Y-88145000D01*
X127849698Y-88048327D01*
X128028327Y-87869699D01*
X128125000Y-87636310D01*
X128125000Y-87345750D01*
X127966250Y-87187000D01*
X127365000Y-87187000D01*
X127115000Y-87187000D01*
X127093000Y-87187000D01*
X127093000Y-86933000D01*
X127115000Y-86933000D01*
X127115000Y-86133750D01*
X127365000Y-86133750D01*
X127365000Y-86933000D01*
X127966250Y-86933000D01*
X128125000Y-86774250D01*
X128125000Y-86483690D01*
X128028327Y-86250301D01*
X127849698Y-86071673D01*
X127616309Y-85975000D01*
X127523750Y-85975000D01*
X127365000Y-86133750D01*
X127115000Y-86133750D01*
X126956250Y-85975000D01*
X126863691Y-85975000D01*
X126630302Y-86071673D01*
X126489064Y-86212910D01*
X126454090Y-86158559D01*
X126241890Y-86013569D01*
X125990000Y-85962560D01*
X125490000Y-85962560D01*
X125254683Y-86006838D01*
X125038559Y-86145910D01*
X124893569Y-86358110D01*
X124842560Y-86610000D01*
X124842560Y-87510000D01*
X124886838Y-87745317D01*
X124930000Y-87812393D01*
X124930000Y-88508437D01*
X124793569Y-88708110D01*
X124742560Y-88960000D01*
X124742560Y-89760000D01*
X124786838Y-89995317D01*
X124925910Y-90211441D01*
X124982343Y-90250000D01*
X124913691Y-90250000D01*
X124680302Y-90346673D01*
X124501673Y-90525301D01*
X124405000Y-90758690D01*
X124405000Y-90974250D01*
X124563750Y-91133000D01*
X125513000Y-91133000D01*
X125513000Y-91113000D01*
X125767000Y-91113000D01*
X125767000Y-91133000D01*
X125787000Y-91133000D01*
X125787000Y-91387000D01*
X125767000Y-91387000D01*
X125767000Y-91407000D01*
X125513000Y-91407000D01*
X125513000Y-91387000D01*
X124563750Y-91387000D01*
X124405000Y-91545750D01*
X124405000Y-91761310D01*
X124501673Y-91994699D01*
X124609535Y-92102560D01*
X124400000Y-92102560D01*
X124164683Y-92146838D01*
X123948559Y-92285910D01*
X123803569Y-92498110D01*
X123752560Y-92750000D01*
X123752560Y-95064149D01*
X123750000Y-95061585D01*
X123750000Y-88835000D01*
X123663603Y-88400654D01*
X123417566Y-88032434D01*
X121379540Y-85994408D01*
X122779874Y-85995630D01*
X124116372Y-85443400D01*
X125139806Y-84421751D01*
X125642969Y-83210000D01*
X127542560Y-83210000D01*
X127542560Y-84110000D01*
X127586838Y-84345317D01*
X127725910Y-84561441D01*
X127938110Y-84706431D01*
X128190000Y-84757440D01*
X129190000Y-84757440D01*
X129374629Y-84722700D01*
X129338559Y-84745910D01*
X129193569Y-84958110D01*
X129142560Y-85210000D01*
X129142560Y-86110000D01*
X129186838Y-86345317D01*
X129280000Y-86490095D01*
X129280000Y-86537069D01*
X129188559Y-86595910D01*
X129043569Y-86808110D01*
X128992560Y-87060000D01*
X128992560Y-87860000D01*
X129036838Y-88095317D01*
X129175910Y-88311441D01*
X129388110Y-88456431D01*
X129640000Y-88507440D01*
X130440000Y-88507440D01*
X130675317Y-88463162D01*
X130841477Y-88356241D01*
X130988110Y-88456431D01*
X131240000Y-88507440D01*
X132040000Y-88507440D01*
X132275317Y-88463162D01*
X132491441Y-88324090D01*
X132636431Y-88111890D01*
X132687440Y-87860000D01*
X132687440Y-87060000D01*
X132643162Y-86824683D01*
X132504090Y-86608559D01*
X132308979Y-86475245D01*
X132337987Y-86432789D01*
X134602599Y-88697401D01*
X134849161Y-88862148D01*
X135140000Y-88920000D01*
X139125198Y-88920000D01*
X139754878Y-89549680D01*
X139754838Y-89595167D01*
X139896883Y-89938943D01*
X140159673Y-90202192D01*
X140503201Y-90344838D01*
X140875167Y-90345162D01*
X141218943Y-90203117D01*
X141482192Y-89940327D01*
X141624838Y-89596799D01*
X141625162Y-89224833D01*
X141483117Y-88881057D01*
X141220327Y-88617808D01*
X140876799Y-88475162D01*
X140829923Y-88475121D01*
X140662242Y-88307440D01*
X140840000Y-88307440D01*
X141075317Y-88263162D01*
X141291441Y-88124090D01*
X141428579Y-87923381D01*
X143980000Y-90474802D01*
X143980000Y-92235736D01*
X144037852Y-92526575D01*
X144202599Y-92773137D01*
X146033769Y-94604307D01*
X146005162Y-94673201D01*
X146004838Y-95045167D01*
X146146883Y-95388943D01*
X146409673Y-95652192D01*
X146753201Y-95794838D01*
X147125167Y-95795162D01*
X147468943Y-95653117D01*
X147732192Y-95390327D01*
X147874838Y-95046799D01*
X147874968Y-94897012D01*
X158310881Y-94897012D01*
X158319287Y-95945247D01*
X158704257Y-96874647D01*
X159074978Y-97095416D01*
X160770395Y-95400000D01*
X161129605Y-95400000D01*
X162825022Y-97095416D01*
X163195743Y-96874647D01*
X163589119Y-95902988D01*
X163581052Y-94897012D01*
X164010881Y-94897012D01*
X164019287Y-95945247D01*
X164404257Y-96874647D01*
X164774978Y-97095416D01*
X166470395Y-95400000D01*
X166829605Y-95400000D01*
X168525022Y-97095416D01*
X168895743Y-96874647D01*
X169289119Y-95902988D01*
X169280713Y-94854753D01*
X168895743Y-93925353D01*
X168525022Y-93704584D01*
X166829605Y-95400000D01*
X166470395Y-95400000D01*
X164774978Y-93704584D01*
X164404257Y-93925353D01*
X164010881Y-94897012D01*
X163581052Y-94897012D01*
X163580713Y-94854753D01*
X163195743Y-93925353D01*
X162825022Y-93704584D01*
X161129605Y-95400000D01*
X160770395Y-95400000D01*
X159074978Y-93704584D01*
X158704257Y-93925353D01*
X158310881Y-94897012D01*
X147874968Y-94897012D01*
X147875162Y-94674833D01*
X147733117Y-94331057D01*
X147665755Y-94263578D01*
X147642148Y-94144897D01*
X147477401Y-93898335D01*
X145500000Y-91920934D01*
X145500000Y-90160000D01*
X145442148Y-89869161D01*
X145277401Y-89622599D01*
X141564802Y-85910000D01*
X142027401Y-85447401D01*
X142192148Y-85200839D01*
X142250000Y-84910000D01*
X142250000Y-84697279D01*
X142441441Y-84574090D01*
X142586431Y-84361890D01*
X142637440Y-84110000D01*
X142637440Y-83210000D01*
X142612956Y-83079874D01*
X143374370Y-83079874D01*
X143926600Y-84416372D01*
X144948249Y-85439806D01*
X146283782Y-85994368D01*
X147729874Y-85995630D01*
X149066372Y-85443400D01*
X150089806Y-84421751D01*
X150644368Y-83086218D01*
X150644521Y-82910000D01*
X151142560Y-82910000D01*
X151142560Y-83810000D01*
X151186838Y-84045317D01*
X151325910Y-84261441D01*
X151538110Y-84406431D01*
X151790000Y-84457440D01*
X152362638Y-84457440D01*
X152762469Y-84857271D01*
X152693569Y-84958110D01*
X152642560Y-85210000D01*
X152642560Y-86110000D01*
X152686838Y-86345317D01*
X152755870Y-86452596D01*
X152688559Y-86495910D01*
X152668607Y-86525111D01*
X152354833Y-86524838D01*
X152011057Y-86666883D01*
X151747808Y-86929673D01*
X151605162Y-87273201D01*
X151604838Y-87645167D01*
X151746883Y-87988943D01*
X152009673Y-88252192D01*
X152353201Y-88394838D01*
X152725167Y-88395162D01*
X152862030Y-88338611D01*
X152888110Y-88356431D01*
X153140000Y-88407440D01*
X153505001Y-88407440D01*
X153505001Y-88520197D01*
X153400320Y-88624878D01*
X153354833Y-88624838D01*
X153011057Y-88766883D01*
X152747808Y-89029673D01*
X152605162Y-89373201D01*
X152604838Y-89745167D01*
X152746883Y-90088943D01*
X153009673Y-90352192D01*
X153353201Y-90494838D01*
X153725167Y-90495162D01*
X154068943Y-90353117D01*
X154332192Y-90090327D01*
X154474838Y-89746799D01*
X154474879Y-89699923D01*
X154802402Y-89372400D01*
X154967149Y-89125839D01*
X155025001Y-88834999D01*
X155025001Y-88407440D01*
X155540000Y-88407440D01*
X155775317Y-88363162D01*
X155991441Y-88224090D01*
X156136431Y-88011890D01*
X156187440Y-87760000D01*
X156187440Y-86960000D01*
X156143162Y-86724683D01*
X156004090Y-86508559D01*
X155855559Y-86407072D01*
X155886431Y-86361890D01*
X155937440Y-86110000D01*
X155937440Y-85210000D01*
X155893162Y-84974683D01*
X155754090Y-84758559D01*
X155541890Y-84613569D01*
X155290000Y-84562560D01*
X154790000Y-84562560D01*
X154554683Y-84606838D01*
X154338559Y-84745910D01*
X154300000Y-84802343D01*
X154300000Y-84560000D01*
X154262723Y-84372599D01*
X154242148Y-84269160D01*
X154142482Y-84120000D01*
X155334895Y-84120000D01*
X155425910Y-84261441D01*
X155638110Y-84406431D01*
X155890000Y-84457440D01*
X156890000Y-84457440D01*
X157125317Y-84413162D01*
X157341441Y-84274090D01*
X157486431Y-84061890D01*
X157537440Y-83810000D01*
X157537440Y-82910000D01*
X157493162Y-82674683D01*
X157426671Y-82571354D01*
X157428327Y-82569698D01*
X157525000Y-82336309D01*
X157525000Y-82045750D01*
X157366250Y-81887000D01*
X156517000Y-81887000D01*
X156517000Y-81907000D01*
X156263000Y-81907000D01*
X156263000Y-81887000D01*
X155413750Y-81887000D01*
X155255000Y-82045750D01*
X155255000Y-82326037D01*
X155133117Y-82031057D01*
X154870327Y-81767808D01*
X154526799Y-81625162D01*
X154154833Y-81624838D01*
X153811057Y-81766883D01*
X153547808Y-82029673D01*
X153425000Y-82325426D01*
X153425000Y-82045750D01*
X153266250Y-81887000D01*
X152417000Y-81887000D01*
X152417000Y-81907000D01*
X152163000Y-81907000D01*
X152163000Y-81887000D01*
X151313750Y-81887000D01*
X151155000Y-82045750D01*
X151155000Y-82336309D01*
X151251673Y-82569698D01*
X151253043Y-82571068D01*
X151193569Y-82658110D01*
X151142560Y-82910000D01*
X150644521Y-82910000D01*
X150645630Y-81640126D01*
X150457035Y-81183691D01*
X151155000Y-81183691D01*
X151155000Y-81474250D01*
X151313750Y-81633000D01*
X152163000Y-81633000D01*
X152163000Y-80833750D01*
X152417000Y-80833750D01*
X152417000Y-81633000D01*
X153266250Y-81633000D01*
X153425000Y-81474250D01*
X153425000Y-81183691D01*
X155255000Y-81183691D01*
X155255000Y-81474250D01*
X155413750Y-81633000D01*
X156263000Y-81633000D01*
X156263000Y-80833750D01*
X156517000Y-80833750D01*
X156517000Y-81633000D01*
X157366250Y-81633000D01*
X157525000Y-81474250D01*
X157525000Y-81183691D01*
X157428327Y-80950302D01*
X157249699Y-80771673D01*
X157016310Y-80675000D01*
X156675750Y-80675000D01*
X156517000Y-80833750D01*
X156263000Y-80833750D01*
X156104250Y-80675000D01*
X155763690Y-80675000D01*
X155530301Y-80771673D01*
X155351673Y-80950302D01*
X155255000Y-81183691D01*
X153425000Y-81183691D01*
X153328327Y-80950302D01*
X153149699Y-80771673D01*
X152916310Y-80675000D01*
X152575750Y-80675000D01*
X152417000Y-80833750D01*
X152163000Y-80833750D01*
X152004250Y-80675000D01*
X151663690Y-80675000D01*
X151430301Y-80771673D01*
X151251673Y-80950302D01*
X151155000Y-81183691D01*
X150457035Y-81183691D01*
X150093400Y-80303628D01*
X149071751Y-79280194D01*
X147736218Y-78725632D01*
X146290126Y-78724370D01*
X144953628Y-79276600D01*
X143930194Y-80298249D01*
X143375632Y-81633782D01*
X143374370Y-83079874D01*
X142612956Y-83079874D01*
X142593162Y-82974683D01*
X142526671Y-82871354D01*
X142528327Y-82869698D01*
X142625000Y-82636309D01*
X142625000Y-82345750D01*
X142466250Y-82187000D01*
X141617000Y-82187000D01*
X141617000Y-82207000D01*
X141363000Y-82207000D01*
X141363000Y-82187000D01*
X140513750Y-82187000D01*
X140355000Y-82345750D01*
X140355000Y-82636309D01*
X140451673Y-82869698D01*
X140453043Y-82871068D01*
X140433274Y-82900000D01*
X138445105Y-82900000D01*
X138426671Y-82871354D01*
X138428327Y-82869698D01*
X138525000Y-82636309D01*
X138525000Y-82345750D01*
X138366250Y-82187000D01*
X137517000Y-82187000D01*
X137517000Y-82207000D01*
X137263000Y-82207000D01*
X137263000Y-82187000D01*
X136413750Y-82187000D01*
X136255000Y-82345750D01*
X136255000Y-82636309D01*
X136351673Y-82869698D01*
X136353043Y-82871068D01*
X136293569Y-82958110D01*
X136242560Y-83210000D01*
X136242560Y-84110000D01*
X136286838Y-84345317D01*
X136425910Y-84561441D01*
X136638110Y-84706431D01*
X136890000Y-84757440D01*
X137890000Y-84757440D01*
X138087782Y-84720225D01*
X137993569Y-84858110D01*
X137942560Y-85110000D01*
X137942560Y-86010000D01*
X137986838Y-86245317D01*
X138055870Y-86352596D01*
X137988559Y-86395910D01*
X137843569Y-86608110D01*
X137792560Y-86860000D01*
X137792560Y-87400000D01*
X135454802Y-87400000D01*
X133550000Y-85495198D01*
X133550000Y-84697279D01*
X133741441Y-84574090D01*
X133886431Y-84361890D01*
X133937440Y-84110000D01*
X133937440Y-83210000D01*
X133893162Y-82974683D01*
X133826671Y-82871354D01*
X133828327Y-82869698D01*
X133925000Y-82636309D01*
X133925000Y-82345750D01*
X133766250Y-82187000D01*
X132917000Y-82187000D01*
X132917000Y-82207000D01*
X132663000Y-82207000D01*
X132663000Y-82187000D01*
X131813750Y-82187000D01*
X131655000Y-82345750D01*
X131655000Y-82636309D01*
X131751673Y-82869698D01*
X131753043Y-82871068D01*
X131733274Y-82900000D01*
X129745105Y-82900000D01*
X129726671Y-82871354D01*
X129728327Y-82869698D01*
X129825000Y-82636309D01*
X129825000Y-82345750D01*
X129666250Y-82187000D01*
X128817000Y-82187000D01*
X128817000Y-82207000D01*
X128563000Y-82207000D01*
X128563000Y-82187000D01*
X127713750Y-82187000D01*
X127555000Y-82345750D01*
X127555000Y-82636309D01*
X127651673Y-82869698D01*
X127653043Y-82871068D01*
X127593569Y-82958110D01*
X127542560Y-83210000D01*
X125642969Y-83210000D01*
X125694368Y-83086218D01*
X125695630Y-81640126D01*
X125630993Y-81483691D01*
X127555000Y-81483691D01*
X127555000Y-81774250D01*
X127713750Y-81933000D01*
X128563000Y-81933000D01*
X128563000Y-81133750D01*
X128817000Y-81133750D01*
X128817000Y-81933000D01*
X129666250Y-81933000D01*
X129825000Y-81774250D01*
X129825000Y-81483691D01*
X131655000Y-81483691D01*
X131655000Y-81774250D01*
X131813750Y-81933000D01*
X132663000Y-81933000D01*
X132663000Y-81133750D01*
X132917000Y-81133750D01*
X132917000Y-81933000D01*
X133766250Y-81933000D01*
X133925000Y-81774250D01*
X133925000Y-81483691D01*
X136255000Y-81483691D01*
X136255000Y-81774250D01*
X136413750Y-81933000D01*
X137263000Y-81933000D01*
X137263000Y-81133750D01*
X137517000Y-81133750D01*
X137517000Y-81933000D01*
X138366250Y-81933000D01*
X138525000Y-81774250D01*
X138525000Y-81483691D01*
X140355000Y-81483691D01*
X140355000Y-81774250D01*
X140513750Y-81933000D01*
X141363000Y-81933000D01*
X141363000Y-81133750D01*
X141617000Y-81133750D01*
X141617000Y-81933000D01*
X142466250Y-81933000D01*
X142625000Y-81774250D01*
X142625000Y-81483691D01*
X142528327Y-81250302D01*
X142349699Y-81071673D01*
X142116310Y-80975000D01*
X141775750Y-80975000D01*
X141617000Y-81133750D01*
X141363000Y-81133750D01*
X141204250Y-80975000D01*
X140863690Y-80975000D01*
X140630301Y-81071673D01*
X140451673Y-81250302D01*
X140355000Y-81483691D01*
X138525000Y-81483691D01*
X138428327Y-81250302D01*
X138249699Y-81071673D01*
X138016310Y-80975000D01*
X137675750Y-80975000D01*
X137517000Y-81133750D01*
X137263000Y-81133750D01*
X137104250Y-80975000D01*
X136763690Y-80975000D01*
X136530301Y-81071673D01*
X136351673Y-81250302D01*
X136255000Y-81483691D01*
X133925000Y-81483691D01*
X133828327Y-81250302D01*
X133649699Y-81071673D01*
X133416310Y-80975000D01*
X133075750Y-80975000D01*
X132917000Y-81133750D01*
X132663000Y-81133750D01*
X132504250Y-80975000D01*
X132163690Y-80975000D01*
X131930301Y-81071673D01*
X131751673Y-81250302D01*
X131655000Y-81483691D01*
X129825000Y-81483691D01*
X129728327Y-81250302D01*
X129549699Y-81071673D01*
X129316310Y-80975000D01*
X128975750Y-80975000D01*
X128817000Y-81133750D01*
X128563000Y-81133750D01*
X128404250Y-80975000D01*
X128063690Y-80975000D01*
X127830301Y-81071673D01*
X127651673Y-81250302D01*
X127555000Y-81483691D01*
X125630993Y-81483691D01*
X125143400Y-80303628D01*
X124121751Y-79280194D01*
X122786218Y-78725632D01*
X121340126Y-78724370D01*
X120003628Y-79276600D01*
X118980194Y-80298249D01*
X118425632Y-81633782D01*
X118424370Y-83079874D01*
X118902716Y-84237560D01*
X116565000Y-84237560D01*
X116329683Y-84281838D01*
X116113559Y-84420910D01*
X115968569Y-84633110D01*
X115924648Y-84850000D01*
X114740000Y-84850000D01*
X114614763Y-84874911D01*
X114391205Y-84874716D01*
X114182769Y-84960840D01*
X114114313Y-84974457D01*
X114056785Y-85012896D01*
X113790057Y-85123106D01*
X113584010Y-85328793D01*
X113583880Y-85328880D01*
X113583878Y-85328883D01*
X113559327Y-85353433D01*
X113329722Y-85582637D01*
X113080284Y-86183352D01*
X113079716Y-86833795D01*
X113328106Y-87434943D01*
X113787637Y-87895278D01*
X114388352Y-88144716D01*
X115038795Y-88145284D01*
X115099987Y-88120000D01*
X115924146Y-88120000D01*
X115961838Y-88320317D01*
X116093548Y-88525000D01*
X112298690Y-88525000D01*
X112065301Y-88621673D01*
X111886673Y-88800302D01*
X111790000Y-89033691D01*
X111650000Y-89033691D01*
X111650000Y-88656192D01*
X111816441Y-88549090D01*
X111961431Y-88336890D01*
X112012440Y-88085000D01*
X112012440Y-84885000D01*
X111968162Y-84649683D01*
X111829090Y-84433559D01*
X111616890Y-84288569D01*
X111365000Y-84237560D01*
X108665000Y-84237560D01*
X108429683Y-84281838D01*
X108428000Y-84282921D01*
X108428000Y-78319000D01*
X157958000Y-78319000D01*
X157958000Y-92109000D01*
X157958000Y-92109000D01*
G37*
X157958000Y-92109000D02*
X158012046Y-92380705D01*
X158165954Y-92611046D01*
X158396295Y-92764954D01*
X158668000Y-92819000D01*
X160284735Y-92819000D01*
X159475353Y-93154257D01*
X159254584Y-93524978D01*
X160950000Y-95220395D01*
X162645416Y-93524978D01*
X162424647Y-93154257D01*
X161596545Y-92819000D01*
X165984735Y-92819000D01*
X165175353Y-93154257D01*
X164954584Y-93524978D01*
X166650000Y-95220395D01*
X168345416Y-93524978D01*
X168124647Y-93154257D01*
X167296545Y-92819000D01*
X174958000Y-92819000D01*
X174958000Y-110999000D01*
X167996073Y-110999000D01*
X168124647Y-110945743D01*
X168345416Y-110575022D01*
X166650000Y-108879605D01*
X164954584Y-110575022D01*
X165175353Y-110945743D01*
X165306901Y-110999000D01*
X162296073Y-110999000D01*
X162424647Y-110945743D01*
X162645416Y-110575022D01*
X160950000Y-108879605D01*
X159254584Y-110575022D01*
X159475353Y-110945743D01*
X159606901Y-110999000D01*
X159418000Y-110999000D01*
X159146295Y-111053046D01*
X158915954Y-111206954D01*
X158762046Y-111437295D01*
X158708000Y-111709000D01*
X158708000Y-125499000D01*
X108428000Y-125499000D01*
X108428000Y-121579874D01*
X118424370Y-121579874D01*
X118976600Y-122916372D01*
X119998249Y-123939806D01*
X121333782Y-124494368D01*
X122779874Y-124495630D01*
X124116372Y-123943400D01*
X125139806Y-122921751D01*
X125233649Y-122695750D01*
X127875000Y-122695750D01*
X127875000Y-123386309D01*
X127971673Y-123619698D01*
X128150301Y-123798327D01*
X128383690Y-123895000D01*
X129074250Y-123895000D01*
X129233000Y-123736250D01*
X129233000Y-122537000D01*
X128033750Y-122537000D01*
X127875000Y-122695750D01*
X125233649Y-122695750D01*
X125694368Y-121586218D01*
X125694501Y-121433691D01*
X127875000Y-121433691D01*
X127875000Y-122124250D01*
X128033750Y-122283000D01*
X129233000Y-122283000D01*
X129233000Y-119997000D01*
X128039181Y-119997000D01*
X127918514Y-120226892D01*
X128164817Y-120751358D01*
X128364208Y-120933070D01*
X128150301Y-121021673D01*
X127971673Y-121200302D01*
X127875000Y-121433691D01*
X125694501Y-121433691D01*
X125695630Y-120140126D01*
X125436552Y-119513108D01*
X127918514Y-119513108D01*
X128039181Y-119743000D01*
X129233000Y-119743000D01*
X129233000Y-118549845D01*
X129003110Y-118428524D01*
X128593076Y-118598355D01*
X128164817Y-118988642D01*
X127918514Y-119513108D01*
X125436552Y-119513108D01*
X125143400Y-118803628D01*
X124121751Y-117780194D01*
X122786218Y-117225632D01*
X121340126Y-117224370D01*
X120003628Y-117776600D01*
X118980194Y-118798249D01*
X118425632Y-120133782D01*
X118424370Y-121579874D01*
X108428000Y-121579874D01*
X108428000Y-119590213D01*
X110349392Y-119590213D01*
X110418857Y-119832397D01*
X110942302Y-120019144D01*
X111497368Y-119991362D01*
X111881143Y-119832397D01*
X111950608Y-119590213D01*
X111150000Y-118789605D01*
X110349392Y-119590213D01*
X108428000Y-119590213D01*
X108428000Y-118402302D01*
X109740856Y-118402302D01*
X109768638Y-118957368D01*
X109927603Y-119341143D01*
X110169787Y-119410608D01*
X110970395Y-118610000D01*
X111329605Y-118610000D01*
X112130213Y-119410608D01*
X112372397Y-119341143D01*
X112559144Y-118817698D01*
X112531362Y-118262632D01*
X112372397Y-117878857D01*
X112130213Y-117809392D01*
X111329605Y-118610000D01*
X110970395Y-118610000D01*
X110169787Y-117809392D01*
X109927603Y-117878857D01*
X109740856Y-118402302D01*
X108428000Y-118402302D01*
X108428000Y-117629787D01*
X110349392Y-117629787D01*
X111150000Y-118430395D01*
X111950608Y-117629787D01*
X111881143Y-117387603D01*
X111357698Y-117200856D01*
X110802632Y-117228638D01*
X110418857Y-117387603D01*
X110349392Y-117629787D01*
X108428000Y-117629787D01*
X108428000Y-111709000D01*
X108373954Y-111437295D01*
X108220046Y-111206954D01*
X107989705Y-111053046D01*
X107718000Y-110999000D01*
X93928000Y-110999000D01*
X93928000Y-106299384D01*
X94254327Y-106299384D01*
X94844537Y-107727801D01*
X95936451Y-108821623D01*
X97363835Y-109414324D01*
X98909384Y-109415673D01*
X100337801Y-108825463D01*
X100521606Y-108641978D01*
X104192627Y-108641978D01*
X104565658Y-109142608D01*
X105989262Y-109744333D01*
X107534772Y-109755466D01*
X108966896Y-109174311D01*
X109014342Y-109142608D01*
X109387373Y-108641978D01*
X106790000Y-106044605D01*
X104192627Y-108641978D01*
X100521606Y-108641978D01*
X101431623Y-107733549D01*
X101898255Y-106609772D01*
X102899534Y-106609772D01*
X103480689Y-108041896D01*
X103512392Y-108089342D01*
X104013022Y-108462373D01*
X106610395Y-105865000D01*
X104013022Y-103267627D01*
X103512392Y-103640658D01*
X102910667Y-105064262D01*
X102899534Y-106609772D01*
X101898255Y-106609772D01*
X102024324Y-106306165D01*
X102025673Y-104760616D01*
X101435463Y-103332199D01*
X100343549Y-102238377D01*
X98930842Y-101651771D01*
X100316896Y-101089311D01*
X100364342Y-101057608D01*
X100737373Y-100556978D01*
X98140000Y-97959605D01*
X95542627Y-100556978D01*
X95915658Y-101057608D01*
X97336809Y-101658296D01*
X95942199Y-102234537D01*
X94848377Y-103326451D01*
X94255676Y-104753835D01*
X94254327Y-106299384D01*
X93928000Y-106299384D01*
X93928000Y-98524772D01*
X94249534Y-98524772D01*
X94830689Y-99956896D01*
X94862392Y-100004342D01*
X95363022Y-100377373D01*
X97960395Y-97780000D01*
X98319605Y-97780000D01*
X100916978Y-100377373D01*
X101417608Y-100004342D01*
X102019333Y-98580738D01*
X102030466Y-97035228D01*
X101449311Y-95603104D01*
X101417608Y-95555658D01*
X100916978Y-95182627D01*
X98319605Y-97780000D01*
X97960395Y-97780000D01*
X95363022Y-95182627D01*
X94862392Y-95555658D01*
X94260667Y-96979262D01*
X94249534Y-98524772D01*
X93928000Y-98524772D01*
X93928000Y-95003022D01*
X95542627Y-95003022D01*
X98140000Y-97600395D01*
X100737373Y-95003022D01*
X100364342Y-94502392D01*
X98940738Y-93900667D01*
X97395228Y-93889534D01*
X95963104Y-94470689D01*
X95915658Y-94502392D01*
X95542627Y-95003022D01*
X93928000Y-95003022D01*
X93928000Y-92819000D01*
X107718000Y-92819000D01*
X107989705Y-92764954D01*
X108220046Y-92611046D01*
X108373954Y-92380705D01*
X108404999Y-92224633D01*
X108404999Y-94187762D01*
X108128559Y-94464202D01*
X107566165Y-94230676D01*
X106020616Y-94229327D01*
X104592199Y-94819537D01*
X103498377Y-95911451D01*
X102905676Y-97338835D01*
X102904327Y-98884384D01*
X103494537Y-100312801D01*
X104586451Y-101406623D01*
X105999158Y-101993229D01*
X104613104Y-102555689D01*
X104565658Y-102587392D01*
X104192627Y-103088022D01*
X106790000Y-105685395D01*
X109387373Y-103088022D01*
X109014342Y-102587392D01*
X107593191Y-101986704D01*
X108987801Y-101410463D01*
X109829947Y-100569786D01*
X109829716Y-100833795D01*
X109830000Y-100834482D01*
X109830000Y-103463611D01*
X109566978Y-103267627D01*
X106969605Y-105865000D01*
X109566978Y-108462373D01*
X109830000Y-108266389D01*
X109830000Y-113924995D01*
X109829999Y-113925000D01*
X109954457Y-114550688D01*
X110308880Y-115081120D01*
X114993881Y-119766120D01*
X115524313Y-120120543D01*
X116150000Y-120245001D01*
X116775688Y-120120543D01*
X117306120Y-119766120D01*
X117660543Y-119235688D01*
X117785001Y-118610000D01*
X117660543Y-117984313D01*
X117306120Y-117453881D01*
X113100000Y-113247760D01*
X113100000Y-104107440D01*
X113765000Y-104107440D01*
X113795000Y-104101795D01*
X113795000Y-106480000D01*
X113881397Y-106914346D01*
X114107139Y-107252192D01*
X114127434Y-107282566D01*
X121275025Y-114430157D01*
X121274716Y-114783795D01*
X121523106Y-115384943D01*
X121982637Y-115845278D01*
X122583352Y-116094716D01*
X123233795Y-116095284D01*
X123834943Y-115846894D01*
X124295278Y-115387363D01*
X124544716Y-114786648D01*
X124545284Y-114136205D01*
X124296894Y-113535057D01*
X123837363Y-113074722D01*
X123236648Y-112825284D01*
X122880105Y-112824973D01*
X116065000Y-106009868D01*
X116065000Y-104095000D01*
X116344250Y-104095000D01*
X116503000Y-103936250D01*
X116503000Y-102087000D01*
X116483000Y-102087000D01*
X116483000Y-101833000D01*
X116503000Y-101833000D01*
X116503000Y-99983750D01*
X116344250Y-99825000D01*
X115968690Y-99825000D01*
X115776782Y-99904491D01*
X115716890Y-99863569D01*
X115465000Y-99812560D01*
X114395000Y-99812560D01*
X114159683Y-99856838D01*
X114081072Y-99907423D01*
X114016890Y-99863569D01*
X113765000Y-99812560D01*
X112945897Y-99812560D01*
X112851894Y-99585057D01*
X112392363Y-99124722D01*
X111791648Y-98875284D01*
X111141205Y-98874716D01*
X110585875Y-99104174D01*
X110674324Y-98891165D01*
X110675673Y-97345616D01*
X110440583Y-96776656D01*
X111196116Y-96021123D01*
X111196119Y-96021121D01*
X111550542Y-95490688D01*
X111570505Y-95390327D01*
X111675000Y-94865001D01*
X111674999Y-94864996D01*
X111674999Y-93945750D01*
X111790000Y-93945750D01*
X111790000Y-98286309D01*
X111886673Y-98519698D01*
X112065301Y-98698327D01*
X112298690Y-98795000D01*
X116304250Y-98795000D01*
X116463000Y-98636250D01*
X116463000Y-93787000D01*
X111948750Y-93787000D01*
X111790000Y-93945750D01*
X111674999Y-93945750D01*
X111674999Y-89485004D01*
X111675000Y-89484999D01*
X111650000Y-89359316D01*
X111650000Y-89033691D01*
X111790000Y-89033691D01*
X111790000Y-93374250D01*
X111948750Y-93533000D01*
X116463000Y-93533000D01*
X116463000Y-93513000D01*
X116717000Y-93513000D01*
X116717000Y-93533000D01*
X121231250Y-93533000D01*
X121390000Y-93374250D01*
X121390000Y-89215132D01*
X121480000Y-89305132D01*
X121480000Y-95061042D01*
X121441539Y-95099436D01*
X121390000Y-95223556D01*
X121390000Y-93945750D01*
X121231250Y-93787000D01*
X116717000Y-93787000D01*
X116717000Y-98636250D01*
X116875750Y-98795000D01*
X120881310Y-98795000D01*
X121114699Y-98698327D01*
X121293327Y-98519698D01*
X121390000Y-98286309D01*
X121390000Y-96547096D01*
X121440169Y-96668515D01*
X121829436Y-97058461D01*
X122338298Y-97269759D01*
X122889285Y-97270240D01*
X123398515Y-97059831D01*
X123752560Y-96706402D01*
X123752560Y-98750000D01*
X123788093Y-98938843D01*
X123714250Y-98865000D01*
X123123690Y-98865000D01*
X122890301Y-98961673D01*
X122711673Y-99140302D01*
X122615000Y-99373691D01*
X122615000Y-100214250D01*
X122773750Y-100373000D01*
X123873000Y-100373000D01*
X123873000Y-100353000D01*
X124127000Y-100353000D01*
X124127000Y-100373000D01*
X124147000Y-100373000D01*
X124147000Y-100627000D01*
X124127000Y-100627000D01*
X124127000Y-101976250D01*
X124275750Y-102125000D01*
X124263691Y-102125000D01*
X124030302Y-102221673D01*
X123889064Y-102362910D01*
X123854090Y-102308559D01*
X123641890Y-102163569D01*
X123500812Y-102135000D01*
X123714250Y-102135000D01*
X123873000Y-101976250D01*
X123873000Y-100627000D01*
X122773750Y-100627000D01*
X122615000Y-100785750D01*
X122615000Y-101314086D01*
X122530839Y-101257852D01*
X122240000Y-101200000D01*
X121212440Y-101200000D01*
X121212440Y-100460000D01*
X121168162Y-100224683D01*
X121029090Y-100008559D01*
X120816890Y-99863569D01*
X120565000Y-99812560D01*
X119495000Y-99812560D01*
X119259683Y-99856838D01*
X119181072Y-99907423D01*
X119116890Y-99863569D01*
X118865000Y-99812560D01*
X117795000Y-99812560D01*
X117559683Y-99856838D01*
X117484684Y-99905098D01*
X117291310Y-99825000D01*
X116915750Y-99825000D01*
X116757000Y-99983750D01*
X116757000Y-101833000D01*
X116777000Y-101833000D01*
X116777000Y-102087000D01*
X116757000Y-102087000D01*
X116757000Y-103936250D01*
X116915750Y-104095000D01*
X117195000Y-104095000D01*
X117195000Y-104460000D01*
X117281397Y-104894346D01*
X117429271Y-105115655D01*
X117527434Y-105262566D01*
X120127434Y-107862566D01*
X120495654Y-108108603D01*
X120930000Y-108195000D01*
X121732796Y-108195000D01*
X121982637Y-108445278D01*
X122583352Y-108694716D01*
X123233795Y-108695284D01*
X123834943Y-108446894D01*
X124295278Y-107987363D01*
X124544716Y-107386648D01*
X124545284Y-106736205D01*
X124296894Y-106135057D01*
X123837363Y-105674722D01*
X123236648Y-105425284D01*
X122586205Y-105424716D01*
X121985057Y-105673106D01*
X121732722Y-105925000D01*
X121400132Y-105925000D01*
X119582572Y-104107440D01*
X120565000Y-104107440D01*
X120800317Y-104063162D01*
X121016441Y-103924090D01*
X121161431Y-103711890D01*
X121212440Y-103460000D01*
X121212440Y-102720000D01*
X121550660Y-102720000D01*
X121542560Y-102760000D01*
X121542560Y-103660000D01*
X121586838Y-103895317D01*
X121725910Y-104111441D01*
X121938110Y-104256431D01*
X122190000Y-104307440D01*
X122962638Y-104307440D01*
X123902599Y-105247401D01*
X124149160Y-105412148D01*
X124440000Y-105470000D01*
X127616444Y-105470000D01*
X127480162Y-105798201D01*
X127479838Y-106170167D01*
X127621883Y-106513943D01*
X127884673Y-106777192D01*
X128228201Y-106919838D01*
X128275077Y-106919879D01*
X128948776Y-107593578D01*
X128697914Y-107697233D01*
X128378355Y-108016235D01*
X128205197Y-108433244D01*
X128204803Y-108884775D01*
X128377233Y-109302086D01*
X128455000Y-109379989D01*
X128455000Y-113069997D01*
X128454999Y-113070002D01*
X128500233Y-113297401D01*
X128522367Y-113408677D01*
X128610421Y-113540460D01*
X128714210Y-113695792D01*
X131604206Y-116585787D01*
X131604208Y-116585790D01*
X131891323Y-116777633D01*
X131985495Y-116796365D01*
X132315001Y-117125871D01*
X132315001Y-118438456D01*
X131900000Y-118355907D01*
X131331715Y-118468946D01*
X130849946Y-118790853D01*
X130622298Y-119131553D01*
X130555183Y-118988642D01*
X130126924Y-118598355D01*
X129716890Y-118428524D01*
X129487000Y-118549845D01*
X129487000Y-119743000D01*
X129507000Y-119743000D01*
X129507000Y-119997000D01*
X129487000Y-119997000D01*
X129487000Y-122283000D01*
X129507000Y-122283000D01*
X129507000Y-122537000D01*
X129487000Y-122537000D01*
X129487000Y-123736250D01*
X129645750Y-123895000D01*
X130336310Y-123895000D01*
X130569699Y-123798327D01*
X130748327Y-123619698D01*
X130820597Y-123445223D01*
X130849946Y-123489147D01*
X131331715Y-123811054D01*
X131900000Y-123924093D01*
X132468285Y-123811054D01*
X132950054Y-123489147D01*
X133170000Y-123159974D01*
X133389946Y-123489147D01*
X133871715Y-123811054D01*
X134440000Y-123924093D01*
X135008285Y-123811054D01*
X135490054Y-123489147D01*
X135710000Y-123159974D01*
X135929946Y-123489147D01*
X136411715Y-123811054D01*
X136980000Y-123924093D01*
X137548285Y-123811054D01*
X138030054Y-123489147D01*
X138250000Y-123159974D01*
X138469946Y-123489147D01*
X138951715Y-123811054D01*
X139520000Y-123924093D01*
X140088285Y-123811054D01*
X140570054Y-123489147D01*
X140891961Y-123007378D01*
X141005000Y-122439093D01*
X141005000Y-122380907D01*
X140891961Y-121812622D01*
X140736445Y-121579874D01*
X143374370Y-121579874D01*
X143926600Y-122916372D01*
X144948249Y-123939806D01*
X146283782Y-124494368D01*
X147729874Y-124495630D01*
X149066372Y-123943400D01*
X150089806Y-122921751D01*
X150644368Y-121586218D01*
X150645630Y-120140126D01*
X150317160Y-119345167D01*
X151304838Y-119345167D01*
X151405000Y-119587578D01*
X151405000Y-121082766D01*
X151305162Y-121323201D01*
X151304838Y-121695167D01*
X151446883Y-122038943D01*
X151709673Y-122302192D01*
X152053201Y-122444838D01*
X152425167Y-122445162D01*
X152768943Y-122303117D01*
X153032192Y-122040327D01*
X153174838Y-121696799D01*
X153175162Y-121324833D01*
X153075000Y-121082422D01*
X153075000Y-119587234D01*
X153174838Y-119346799D01*
X153175162Y-118974833D01*
X153033117Y-118631057D01*
X152847552Y-118445167D01*
X153904838Y-118445167D01*
X154046883Y-118788943D01*
X154309673Y-119052192D01*
X154653201Y-119194838D01*
X155025167Y-119195162D01*
X155368943Y-119053117D01*
X155373518Y-119048550D01*
X155459541Y-119031439D01*
X155730434Y-118850434D01*
X156328333Y-118252535D01*
X156568943Y-118153117D01*
X156832192Y-117890327D01*
X156974838Y-117546799D01*
X156975162Y-117174833D01*
X156875000Y-116932422D01*
X156875000Y-115347419D01*
X156932192Y-115290327D01*
X157074838Y-114946799D01*
X157075162Y-114574833D01*
X156933117Y-114231057D01*
X156670327Y-113967808D01*
X156326799Y-113825162D01*
X155954833Y-113824838D01*
X155611057Y-113966883D01*
X155347808Y-114229673D01*
X155205162Y-114573201D01*
X155204838Y-114945167D01*
X155205000Y-114945559D01*
X155205000Y-116932766D01*
X155147222Y-117071910D01*
X154894086Y-117325046D01*
X154654833Y-117324838D01*
X154311057Y-117466883D01*
X154047808Y-117729673D01*
X153905162Y-118073201D01*
X153904838Y-118445167D01*
X152847552Y-118445167D01*
X152770327Y-118367808D01*
X152426799Y-118225162D01*
X152054833Y-118224838D01*
X151711057Y-118366883D01*
X151447808Y-118629673D01*
X151305162Y-118973201D01*
X151304838Y-119345167D01*
X150317160Y-119345167D01*
X150093400Y-118803628D01*
X149311139Y-118020000D01*
X150140000Y-118020000D01*
X150430839Y-117962148D01*
X150677401Y-117797401D01*
X151170565Y-117304238D01*
X151246883Y-117488943D01*
X151509673Y-117752192D01*
X151853201Y-117894838D01*
X152225167Y-117895162D01*
X152568943Y-117753117D01*
X152832192Y-117490327D01*
X152974838Y-117146799D01*
X152975162Y-116774833D01*
X152875000Y-116532422D01*
X152875000Y-113860000D01*
X152858996Y-113779541D01*
X152811440Y-113540460D01*
X152775152Y-113486152D01*
X152775162Y-113474833D01*
X152633117Y-113131057D01*
X152370327Y-112867808D01*
X152026799Y-112725162D01*
X151654833Y-112724838D01*
X151600000Y-112747494D01*
X151600000Y-112656994D01*
X151542148Y-112366155D01*
X151377401Y-112119593D01*
X150511587Y-111253779D01*
X150547098Y-111218329D01*
X150689744Y-110874801D01*
X150690068Y-110502835D01*
X150548023Y-110159059D01*
X150285233Y-109895810D01*
X149941705Y-109753164D01*
X149569739Y-109752840D01*
X149455600Y-109800001D01*
X146439999Y-109800001D01*
X146149160Y-109857853D01*
X146048787Y-109924920D01*
X145954833Y-109924838D01*
X145611057Y-110066883D01*
X145347808Y-110329673D01*
X145205162Y-110673201D01*
X145204838Y-111045167D01*
X145346883Y-111388943D01*
X145375262Y-111417371D01*
X145261128Y-111692235D01*
X145260804Y-112064201D01*
X145402849Y-112407977D01*
X145570161Y-112575581D01*
X145554485Y-112582058D01*
X145263081Y-112872954D01*
X145105180Y-113253223D01*
X145104821Y-113664971D01*
X145262058Y-114045515D01*
X145552954Y-114336919D01*
X145933223Y-114494820D01*
X146344971Y-114495179D01*
X146725515Y-114337942D01*
X146768532Y-114295000D01*
X147071603Y-114295000D01*
X147391144Y-114231439D01*
X147662037Y-114050434D01*
X148832325Y-112880146D01*
X148891555Y-112880198D01*
X149272099Y-112722961D01*
X149551876Y-112443672D01*
X150080000Y-112971796D01*
X150080000Y-115107634D01*
X150001799Y-115075162D01*
X149629833Y-115074838D01*
X149286057Y-115216883D01*
X149252882Y-115250000D01*
X145265000Y-115250000D01*
X145022414Y-115298254D01*
X144974160Y-115307852D01*
X144727599Y-115472599D01*
X144500320Y-115699878D01*
X144454833Y-115699838D01*
X144111057Y-115841883D01*
X143847808Y-116104673D01*
X143705162Y-116448201D01*
X143704838Y-116820167D01*
X143846883Y-117163943D01*
X144109673Y-117427192D01*
X144453201Y-117569838D01*
X144825167Y-117570162D01*
X145168943Y-117428117D01*
X145432192Y-117165327D01*
X145574838Y-116821799D01*
X145574879Y-116774923D01*
X145579802Y-116770000D01*
X147631063Y-116770000D01*
X147505162Y-117073201D01*
X147505029Y-117225430D01*
X146290126Y-117224370D01*
X144953628Y-117776600D01*
X143930194Y-118798249D01*
X143375632Y-120133782D01*
X143374370Y-121579874D01*
X140736445Y-121579874D01*
X140570054Y-121330853D01*
X140284422Y-121140000D01*
X140570054Y-120949147D01*
X140891961Y-120467378D01*
X141005000Y-119899093D01*
X141005000Y-119840907D01*
X140891961Y-119272622D01*
X140570054Y-118790853D01*
X140088285Y-118468946D01*
X139520000Y-118355907D01*
X138951715Y-118468946D01*
X138469946Y-118790853D01*
X138250000Y-119120026D01*
X138030054Y-118790853D01*
X137548285Y-118468946D01*
X136980000Y-118355907D01*
X136564999Y-118438456D01*
X136564999Y-117841937D01*
X136540744Y-117720001D01*
X137071007Y-117720001D01*
X137177233Y-117977086D01*
X137496235Y-118296645D01*
X137913244Y-118469803D01*
X138364775Y-118470197D01*
X138782086Y-118297767D01*
X139101645Y-117978765D01*
X139274803Y-117561756D01*
X139275197Y-117110225D01*
X139102767Y-116692914D01*
X138783765Y-116373355D01*
X138366756Y-116200197D01*
X138252151Y-116200097D01*
X137978676Y-116017368D01*
X137922485Y-116006191D01*
X137640001Y-115950000D01*
X137639996Y-115950001D01*
X136656580Y-115950001D01*
X136476580Y-115770000D01*
X139827537Y-115770000D01*
X139859673Y-115802192D01*
X140203201Y-115944838D01*
X140575167Y-115945162D01*
X140918943Y-115803117D01*
X141182192Y-115540327D01*
X141324838Y-115196799D01*
X141325162Y-114824833D01*
X141183117Y-114481057D01*
X140920327Y-114217808D01*
X140576799Y-114075162D01*
X140204833Y-114074838D01*
X139861057Y-114216883D01*
X139827882Y-114250000D01*
X138500842Y-114250000D01*
X138574838Y-114071799D01*
X138575162Y-113699833D01*
X138433117Y-113356057D01*
X138170327Y-113092808D01*
X137826799Y-112950162D01*
X137454833Y-112949838D01*
X137111057Y-113091883D01*
X137077882Y-113125000D01*
X135600842Y-113125000D01*
X135674838Y-112946799D01*
X135675063Y-112688579D01*
X136125461Y-112855908D01*
X136775460Y-112831856D01*
X137264264Y-112629387D01*
X137362927Y-112362532D01*
X136390000Y-111389605D01*
X136375858Y-111403748D01*
X136196253Y-111224143D01*
X136210395Y-111210000D01*
X136196253Y-111195858D01*
X136375858Y-111016253D01*
X136390000Y-111030395D01*
X136404143Y-111016253D01*
X136583748Y-111195858D01*
X136569605Y-111210000D01*
X137542532Y-112182927D01*
X137809387Y-112084264D01*
X138035908Y-111474539D01*
X138027524Y-111247973D01*
X138876952Y-112097401D01*
X139123513Y-112262148D01*
X139414353Y-112320000D01*
X140450198Y-112320000D01*
X140529878Y-112399680D01*
X140529838Y-112445167D01*
X140671883Y-112788943D01*
X140934673Y-113052192D01*
X141278201Y-113194838D01*
X141650167Y-113195162D01*
X141993943Y-113053117D01*
X142257192Y-112790327D01*
X142399838Y-112446799D01*
X142400162Y-112074833D01*
X142258117Y-111731057D01*
X141995327Y-111467808D01*
X141651799Y-111325162D01*
X141604924Y-111325121D01*
X141302401Y-111022599D01*
X141055839Y-110857852D01*
X140765000Y-110800000D01*
X139729155Y-110800000D01*
X134274155Y-105345000D01*
X147700198Y-105345000D01*
X150079878Y-107724680D01*
X150079838Y-107770167D01*
X150221883Y-108113943D01*
X150484673Y-108377192D01*
X150828201Y-108519838D01*
X151200167Y-108520162D01*
X151543943Y-108378117D01*
X151725364Y-108197012D01*
X158310881Y-108197012D01*
X158319287Y-109245247D01*
X158704257Y-110174647D01*
X159074978Y-110395416D01*
X160770395Y-108700000D01*
X161129605Y-108700000D01*
X162825022Y-110395416D01*
X163195743Y-110174647D01*
X163589119Y-109202988D01*
X163581052Y-108197012D01*
X164010881Y-108197012D01*
X164019287Y-109245247D01*
X164404257Y-110174647D01*
X164774978Y-110395416D01*
X166470395Y-108700000D01*
X166829605Y-108700000D01*
X168525022Y-110395416D01*
X168895743Y-110174647D01*
X169289119Y-109202988D01*
X169280713Y-108154753D01*
X168895743Y-107225353D01*
X168525022Y-107004584D01*
X166829605Y-108700000D01*
X166470395Y-108700000D01*
X164774978Y-107004584D01*
X164404257Y-107225353D01*
X164010881Y-108197012D01*
X163581052Y-108197012D01*
X163580713Y-108154753D01*
X163195743Y-107225353D01*
X162825022Y-107004584D01*
X161129605Y-108700000D01*
X160770395Y-108700000D01*
X159074978Y-107004584D01*
X158704257Y-107225353D01*
X158310881Y-108197012D01*
X151725364Y-108197012D01*
X151807192Y-108115327D01*
X151949838Y-107771799D01*
X151950162Y-107399833D01*
X151825121Y-107097211D01*
X151932192Y-106990327D01*
X152011524Y-106799274D01*
X152075316Y-106953662D01*
X152464583Y-107343608D01*
X152973445Y-107554906D01*
X153524432Y-107555387D01*
X154033662Y-107344978D01*
X154423608Y-106955711D01*
X154536017Y-106685000D01*
X159337943Y-106685000D01*
X159254584Y-106824978D01*
X160950000Y-108520395D01*
X162645416Y-106824978D01*
X162562057Y-106685000D01*
X163126042Y-106685000D01*
X163164436Y-106723461D01*
X163673298Y-106934759D01*
X164224285Y-106935240D01*
X164491140Y-106824978D01*
X164954584Y-106824978D01*
X166650000Y-108520395D01*
X168345416Y-106824978D01*
X168124647Y-106454257D01*
X167152988Y-106060881D01*
X166104753Y-106069287D01*
X165175353Y-106454257D01*
X164954584Y-106824978D01*
X164491140Y-106824978D01*
X164733515Y-106724831D01*
X165123461Y-106335564D01*
X165334759Y-105826702D01*
X165335240Y-105275715D01*
X165124831Y-104766485D01*
X164735564Y-104376539D01*
X164551414Y-104300073D01*
X164733515Y-104224831D01*
X165123461Y-103835564D01*
X165334759Y-103326702D01*
X165335240Y-102775715D01*
X165124831Y-102266485D01*
X164908687Y-102049964D01*
X165123461Y-101835564D01*
X165334759Y-101326702D01*
X165335240Y-100775715D01*
X165124831Y-100266485D01*
X164735564Y-99876539D01*
X164567246Y-99806647D01*
X164673923Y-99762460D01*
X164741912Y-99521517D01*
X163950000Y-98729605D01*
X163158088Y-99521517D01*
X163226077Y-99762460D01*
X163340611Y-99803222D01*
X163166485Y-99875169D01*
X162776539Y-100264436D01*
X162649950Y-100569297D01*
X162524831Y-100266485D01*
X162135564Y-99876539D01*
X161967246Y-99806647D01*
X162073923Y-99762460D01*
X162141912Y-99521517D01*
X161350000Y-98729605D01*
X160558088Y-99521517D01*
X160626077Y-99762460D01*
X160740611Y-99803222D01*
X160566485Y-99875169D01*
X160176539Y-100264436D01*
X160165924Y-100290000D01*
X155436472Y-100290000D01*
X155145632Y-100347852D01*
X154899071Y-100512599D01*
X150543673Y-104867997D01*
X150498186Y-104867957D01*
X150154410Y-105010002D01*
X149891161Y-105272792D01*
X149857840Y-105353038D01*
X148552401Y-104047599D01*
X148305839Y-103882852D01*
X148015000Y-103825000D01*
X134002463Y-103825000D01*
X133970327Y-103792808D01*
X133626799Y-103650162D01*
X133254833Y-103649838D01*
X132911057Y-103791883D01*
X132815965Y-103886810D01*
X130266754Y-101337599D01*
X130020192Y-101172852D01*
X129997440Y-101168326D01*
X129997440Y-99500000D01*
X129953162Y-99264683D01*
X129814090Y-99048559D01*
X129601890Y-98903569D01*
X129350000Y-98852560D01*
X128826671Y-98852560D01*
X128847440Y-98750000D01*
X128847440Y-97275022D01*
X159254584Y-97275022D01*
X159475353Y-97645743D01*
X160110243Y-97902778D01*
X159952799Y-98345171D01*
X159980770Y-98895448D01*
X160137540Y-99273923D01*
X160378483Y-99341912D01*
X161170395Y-98550000D01*
X161156253Y-98535858D01*
X161335858Y-98356253D01*
X161350000Y-98370395D01*
X161364143Y-98356253D01*
X161543748Y-98535858D01*
X161529605Y-98550000D01*
X162321517Y-99341912D01*
X162562460Y-99273923D01*
X162643370Y-99046578D01*
X162737540Y-99273923D01*
X162978483Y-99341912D01*
X163770395Y-98550000D01*
X164129605Y-98550000D01*
X164921517Y-99341912D01*
X165162460Y-99273923D01*
X165347201Y-98754829D01*
X165319230Y-98204552D01*
X165162460Y-97826077D01*
X164921517Y-97758088D01*
X164129605Y-98550000D01*
X163770395Y-98550000D01*
X162978483Y-97758088D01*
X162737540Y-97826077D01*
X162656630Y-98053422D01*
X162562460Y-97826077D01*
X162321519Y-97758089D01*
X162436574Y-97643034D01*
X162430110Y-97636570D01*
X162464701Y-97578483D01*
X163158088Y-97578483D01*
X163950000Y-98370395D01*
X164741912Y-97578483D01*
X164673923Y-97337540D01*
X164498257Y-97275022D01*
X164954584Y-97275022D01*
X165175353Y-97645743D01*
X166147012Y-98039119D01*
X167195247Y-98030713D01*
X168124647Y-97645743D01*
X168345416Y-97275022D01*
X166650000Y-95579605D01*
X164954584Y-97275022D01*
X164498257Y-97275022D01*
X164154829Y-97152799D01*
X163604552Y-97180770D01*
X163226077Y-97337540D01*
X163158088Y-97578483D01*
X162464701Y-97578483D01*
X162645416Y-97275022D01*
X160950000Y-95579605D01*
X159254584Y-97275022D01*
X128847440Y-97275022D01*
X128847440Y-96885000D01*
X137250000Y-96885000D01*
X137684346Y-96798603D01*
X138052566Y-96552566D01*
X140342152Y-94262980D01*
X140501645Y-94103765D01*
X140674803Y-93686756D01*
X140675197Y-93235225D01*
X140502767Y-92817914D01*
X140183765Y-92498355D01*
X139766756Y-92325197D01*
X139315225Y-92324803D01*
X138897914Y-92497233D01*
X138578355Y-92816235D01*
X138578158Y-92816710D01*
X136779868Y-94615000D01*
X128847440Y-94615000D01*
X128847440Y-92750000D01*
X128803162Y-92514683D01*
X128675000Y-92315514D01*
X128675000Y-91976797D01*
X128736431Y-91886890D01*
X128787440Y-91635000D01*
X128787440Y-90885000D01*
X128743162Y-90649683D01*
X128604090Y-90433559D01*
X128391890Y-90288569D01*
X128300000Y-90269961D01*
X128300000Y-89944884D01*
X128337440Y-89760000D01*
X128337440Y-88960000D01*
X128293162Y-88724683D01*
X128154090Y-88508559D01*
X127941890Y-88363569D01*
X127690000Y-88312560D01*
X127090000Y-88312560D01*
X126854683Y-88356838D01*
X126638559Y-88495910D01*
X126539367Y-88641083D01*
X126454090Y-88508559D01*
X126450000Y-88505764D01*
X126450000Y-87961563D01*
X126487969Y-87905994D01*
X126630302Y-88048327D01*
X126863691Y-88145000D01*
X126956250Y-88145000D01*
X127115000Y-87986250D01*
X127115000Y-87187000D01*
X127365000Y-87187000D01*
X127365000Y-87986250D01*
X127523750Y-88145000D01*
X127616309Y-88145000D01*
X127849698Y-88048327D01*
X128028327Y-87869699D01*
X128125000Y-87636310D01*
X128125000Y-87345750D01*
X127966250Y-87187000D01*
X127365000Y-87187000D01*
X127115000Y-87187000D01*
X127093000Y-87187000D01*
X127093000Y-86933000D01*
X127115000Y-86933000D01*
X127115000Y-86133750D01*
X127365000Y-86133750D01*
X127365000Y-86933000D01*
X127966250Y-86933000D01*
X128125000Y-86774250D01*
X128125000Y-86483690D01*
X128028327Y-86250301D01*
X127849698Y-86071673D01*
X127616309Y-85975000D01*
X127523750Y-85975000D01*
X127365000Y-86133750D01*
X127115000Y-86133750D01*
X126956250Y-85975000D01*
X126863691Y-85975000D01*
X126630302Y-86071673D01*
X126489064Y-86212910D01*
X126454090Y-86158559D01*
X126241890Y-86013569D01*
X125990000Y-85962560D01*
X125490000Y-85962560D01*
X125254683Y-86006838D01*
X125038559Y-86145910D01*
X124893569Y-86358110D01*
X124842560Y-86610000D01*
X124842560Y-87510000D01*
X124886838Y-87745317D01*
X124930000Y-87812393D01*
X124930000Y-88508437D01*
X124793569Y-88708110D01*
X124742560Y-88960000D01*
X124742560Y-89760000D01*
X124786838Y-89995317D01*
X124925910Y-90211441D01*
X124982343Y-90250000D01*
X124913691Y-90250000D01*
X124680302Y-90346673D01*
X124501673Y-90525301D01*
X124405000Y-90758690D01*
X124405000Y-90974250D01*
X124563750Y-91133000D01*
X125513000Y-91133000D01*
X125513000Y-91113000D01*
X125767000Y-91113000D01*
X125767000Y-91133000D01*
X125787000Y-91133000D01*
X125787000Y-91387000D01*
X125767000Y-91387000D01*
X125767000Y-91407000D01*
X125513000Y-91407000D01*
X125513000Y-91387000D01*
X124563750Y-91387000D01*
X124405000Y-91545750D01*
X124405000Y-91761310D01*
X124501673Y-91994699D01*
X124609535Y-92102560D01*
X124400000Y-92102560D01*
X124164683Y-92146838D01*
X123948559Y-92285910D01*
X123803569Y-92498110D01*
X123752560Y-92750000D01*
X123752560Y-95064149D01*
X123750000Y-95061585D01*
X123750000Y-88835000D01*
X123663603Y-88400654D01*
X123417566Y-88032434D01*
X121379540Y-85994408D01*
X122779874Y-85995630D01*
X124116372Y-85443400D01*
X125139806Y-84421751D01*
X125642969Y-83210000D01*
X127542560Y-83210000D01*
X127542560Y-84110000D01*
X127586838Y-84345317D01*
X127725910Y-84561441D01*
X127938110Y-84706431D01*
X128190000Y-84757440D01*
X129190000Y-84757440D01*
X129374629Y-84722700D01*
X129338559Y-84745910D01*
X129193569Y-84958110D01*
X129142560Y-85210000D01*
X129142560Y-86110000D01*
X129186838Y-86345317D01*
X129280000Y-86490095D01*
X129280000Y-86537069D01*
X129188559Y-86595910D01*
X129043569Y-86808110D01*
X128992560Y-87060000D01*
X128992560Y-87860000D01*
X129036838Y-88095317D01*
X129175910Y-88311441D01*
X129388110Y-88456431D01*
X129640000Y-88507440D01*
X130440000Y-88507440D01*
X130675317Y-88463162D01*
X130841477Y-88356241D01*
X130988110Y-88456431D01*
X131240000Y-88507440D01*
X132040000Y-88507440D01*
X132275317Y-88463162D01*
X132491441Y-88324090D01*
X132636431Y-88111890D01*
X132687440Y-87860000D01*
X132687440Y-87060000D01*
X132643162Y-86824683D01*
X132504090Y-86608559D01*
X132308979Y-86475245D01*
X132337987Y-86432789D01*
X134602599Y-88697401D01*
X134849161Y-88862148D01*
X135140000Y-88920000D01*
X139125198Y-88920000D01*
X139754878Y-89549680D01*
X139754838Y-89595167D01*
X139896883Y-89938943D01*
X140159673Y-90202192D01*
X140503201Y-90344838D01*
X140875167Y-90345162D01*
X141218943Y-90203117D01*
X141482192Y-89940327D01*
X141624838Y-89596799D01*
X141625162Y-89224833D01*
X141483117Y-88881057D01*
X141220327Y-88617808D01*
X140876799Y-88475162D01*
X140829923Y-88475121D01*
X140662242Y-88307440D01*
X140840000Y-88307440D01*
X141075317Y-88263162D01*
X141291441Y-88124090D01*
X141428579Y-87923381D01*
X143980000Y-90474802D01*
X143980000Y-92235736D01*
X144037852Y-92526575D01*
X144202599Y-92773137D01*
X146033769Y-94604307D01*
X146005162Y-94673201D01*
X146004838Y-95045167D01*
X146146883Y-95388943D01*
X146409673Y-95652192D01*
X146753201Y-95794838D01*
X147125167Y-95795162D01*
X147468943Y-95653117D01*
X147732192Y-95390327D01*
X147874838Y-95046799D01*
X147874968Y-94897012D01*
X158310881Y-94897012D01*
X158319287Y-95945247D01*
X158704257Y-96874647D01*
X159074978Y-97095416D01*
X160770395Y-95400000D01*
X161129605Y-95400000D01*
X162825022Y-97095416D01*
X163195743Y-96874647D01*
X163589119Y-95902988D01*
X163581052Y-94897012D01*
X164010881Y-94897012D01*
X164019287Y-95945247D01*
X164404257Y-96874647D01*
X164774978Y-97095416D01*
X166470395Y-95400000D01*
X166829605Y-95400000D01*
X168525022Y-97095416D01*
X168895743Y-96874647D01*
X169289119Y-95902988D01*
X169280713Y-94854753D01*
X168895743Y-93925353D01*
X168525022Y-93704584D01*
X166829605Y-95400000D01*
X166470395Y-95400000D01*
X164774978Y-93704584D01*
X164404257Y-93925353D01*
X164010881Y-94897012D01*
X163581052Y-94897012D01*
X163580713Y-94854753D01*
X163195743Y-93925353D01*
X162825022Y-93704584D01*
X161129605Y-95400000D01*
X160770395Y-95400000D01*
X159074978Y-93704584D01*
X158704257Y-93925353D01*
X158310881Y-94897012D01*
X147874968Y-94897012D01*
X147875162Y-94674833D01*
X147733117Y-94331057D01*
X147665755Y-94263578D01*
X147642148Y-94144897D01*
X147477401Y-93898335D01*
X145500000Y-91920934D01*
X145500000Y-90160000D01*
X145442148Y-89869161D01*
X145277401Y-89622599D01*
X141564802Y-85910000D01*
X142027401Y-85447401D01*
X142192148Y-85200839D01*
X142250000Y-84910000D01*
X142250000Y-84697279D01*
X142441441Y-84574090D01*
X142586431Y-84361890D01*
X142637440Y-84110000D01*
X142637440Y-83210000D01*
X142612956Y-83079874D01*
X143374370Y-83079874D01*
X143926600Y-84416372D01*
X144948249Y-85439806D01*
X146283782Y-85994368D01*
X147729874Y-85995630D01*
X149066372Y-85443400D01*
X150089806Y-84421751D01*
X150644368Y-83086218D01*
X150644521Y-82910000D01*
X151142560Y-82910000D01*
X151142560Y-83810000D01*
X151186838Y-84045317D01*
X151325910Y-84261441D01*
X151538110Y-84406431D01*
X151790000Y-84457440D01*
X152362638Y-84457440D01*
X152762469Y-84857271D01*
X152693569Y-84958110D01*
X152642560Y-85210000D01*
X152642560Y-86110000D01*
X152686838Y-86345317D01*
X152755870Y-86452596D01*
X152688559Y-86495910D01*
X152668607Y-86525111D01*
X152354833Y-86524838D01*
X152011057Y-86666883D01*
X151747808Y-86929673D01*
X151605162Y-87273201D01*
X151604838Y-87645167D01*
X151746883Y-87988943D01*
X152009673Y-88252192D01*
X152353201Y-88394838D01*
X152725167Y-88395162D01*
X152862030Y-88338611D01*
X152888110Y-88356431D01*
X153140000Y-88407440D01*
X153505001Y-88407440D01*
X153505001Y-88520197D01*
X153400320Y-88624878D01*
X153354833Y-88624838D01*
X153011057Y-88766883D01*
X152747808Y-89029673D01*
X152605162Y-89373201D01*
X152604838Y-89745167D01*
X152746883Y-90088943D01*
X153009673Y-90352192D01*
X153353201Y-90494838D01*
X153725167Y-90495162D01*
X154068943Y-90353117D01*
X154332192Y-90090327D01*
X154474838Y-89746799D01*
X154474879Y-89699923D01*
X154802402Y-89372400D01*
X154967149Y-89125839D01*
X155025001Y-88834999D01*
X155025001Y-88407440D01*
X155540000Y-88407440D01*
X155775317Y-88363162D01*
X155991441Y-88224090D01*
X156136431Y-88011890D01*
X156187440Y-87760000D01*
X156187440Y-86960000D01*
X156143162Y-86724683D01*
X156004090Y-86508559D01*
X155855559Y-86407072D01*
X155886431Y-86361890D01*
X155937440Y-86110000D01*
X155937440Y-85210000D01*
X155893162Y-84974683D01*
X155754090Y-84758559D01*
X155541890Y-84613569D01*
X155290000Y-84562560D01*
X154790000Y-84562560D01*
X154554683Y-84606838D01*
X154338559Y-84745910D01*
X154300000Y-84802343D01*
X154300000Y-84560000D01*
X154262723Y-84372599D01*
X154242148Y-84269160D01*
X154142482Y-84120000D01*
X155334895Y-84120000D01*
X155425910Y-84261441D01*
X155638110Y-84406431D01*
X155890000Y-84457440D01*
X156890000Y-84457440D01*
X157125317Y-84413162D01*
X157341441Y-84274090D01*
X157486431Y-84061890D01*
X157537440Y-83810000D01*
X157537440Y-82910000D01*
X157493162Y-82674683D01*
X157426671Y-82571354D01*
X157428327Y-82569698D01*
X157525000Y-82336309D01*
X157525000Y-82045750D01*
X157366250Y-81887000D01*
X156517000Y-81887000D01*
X156517000Y-81907000D01*
X156263000Y-81907000D01*
X156263000Y-81887000D01*
X155413750Y-81887000D01*
X155255000Y-82045750D01*
X155255000Y-82326037D01*
X155133117Y-82031057D01*
X154870327Y-81767808D01*
X154526799Y-81625162D01*
X154154833Y-81624838D01*
X153811057Y-81766883D01*
X153547808Y-82029673D01*
X153425000Y-82325426D01*
X153425000Y-82045750D01*
X153266250Y-81887000D01*
X152417000Y-81887000D01*
X152417000Y-81907000D01*
X152163000Y-81907000D01*
X152163000Y-81887000D01*
X151313750Y-81887000D01*
X151155000Y-82045750D01*
X151155000Y-82336309D01*
X151251673Y-82569698D01*
X151253043Y-82571068D01*
X151193569Y-82658110D01*
X151142560Y-82910000D01*
X150644521Y-82910000D01*
X150645630Y-81640126D01*
X150457035Y-81183691D01*
X151155000Y-81183691D01*
X151155000Y-81474250D01*
X151313750Y-81633000D01*
X152163000Y-81633000D01*
X152163000Y-80833750D01*
X152417000Y-80833750D01*
X152417000Y-81633000D01*
X153266250Y-81633000D01*
X153425000Y-81474250D01*
X153425000Y-81183691D01*
X155255000Y-81183691D01*
X155255000Y-81474250D01*
X155413750Y-81633000D01*
X156263000Y-81633000D01*
X156263000Y-80833750D01*
X156517000Y-80833750D01*
X156517000Y-81633000D01*
X157366250Y-81633000D01*
X157525000Y-81474250D01*
X157525000Y-81183691D01*
X157428327Y-80950302D01*
X157249699Y-80771673D01*
X157016310Y-80675000D01*
X156675750Y-80675000D01*
X156517000Y-80833750D01*
X156263000Y-80833750D01*
X156104250Y-80675000D01*
X155763690Y-80675000D01*
X155530301Y-80771673D01*
X155351673Y-80950302D01*
X155255000Y-81183691D01*
X153425000Y-81183691D01*
X153328327Y-80950302D01*
X153149699Y-80771673D01*
X152916310Y-80675000D01*
X152575750Y-80675000D01*
X152417000Y-80833750D01*
X152163000Y-80833750D01*
X152004250Y-80675000D01*
X151663690Y-80675000D01*
X151430301Y-80771673D01*
X151251673Y-80950302D01*
X151155000Y-81183691D01*
X150457035Y-81183691D01*
X150093400Y-80303628D01*
X149071751Y-79280194D01*
X147736218Y-78725632D01*
X146290126Y-78724370D01*
X144953628Y-79276600D01*
X143930194Y-80298249D01*
X143375632Y-81633782D01*
X143374370Y-83079874D01*
X142612956Y-83079874D01*
X142593162Y-82974683D01*
X142526671Y-82871354D01*
X142528327Y-82869698D01*
X142625000Y-82636309D01*
X142625000Y-82345750D01*
X142466250Y-82187000D01*
X141617000Y-82187000D01*
X141617000Y-82207000D01*
X141363000Y-82207000D01*
X141363000Y-82187000D01*
X140513750Y-82187000D01*
X140355000Y-82345750D01*
X140355000Y-82636309D01*
X140451673Y-82869698D01*
X140453043Y-82871068D01*
X140433274Y-82900000D01*
X138445105Y-82900000D01*
X138426671Y-82871354D01*
X138428327Y-82869698D01*
X138525000Y-82636309D01*
X138525000Y-82345750D01*
X138366250Y-82187000D01*
X137517000Y-82187000D01*
X137517000Y-82207000D01*
X137263000Y-82207000D01*
X137263000Y-82187000D01*
X136413750Y-82187000D01*
X136255000Y-82345750D01*
X136255000Y-82636309D01*
X136351673Y-82869698D01*
X136353043Y-82871068D01*
X136293569Y-82958110D01*
X136242560Y-83210000D01*
X136242560Y-84110000D01*
X136286838Y-84345317D01*
X136425910Y-84561441D01*
X136638110Y-84706431D01*
X136890000Y-84757440D01*
X137890000Y-84757440D01*
X138087782Y-84720225D01*
X137993569Y-84858110D01*
X137942560Y-85110000D01*
X137942560Y-86010000D01*
X137986838Y-86245317D01*
X138055870Y-86352596D01*
X137988559Y-86395910D01*
X137843569Y-86608110D01*
X137792560Y-86860000D01*
X137792560Y-87400000D01*
X135454802Y-87400000D01*
X133550000Y-85495198D01*
X133550000Y-84697279D01*
X133741441Y-84574090D01*
X133886431Y-84361890D01*
X133937440Y-84110000D01*
X133937440Y-83210000D01*
X133893162Y-82974683D01*
X133826671Y-82871354D01*
X133828327Y-82869698D01*
X133925000Y-82636309D01*
X133925000Y-82345750D01*
X133766250Y-82187000D01*
X132917000Y-82187000D01*
X132917000Y-82207000D01*
X132663000Y-82207000D01*
X132663000Y-82187000D01*
X131813750Y-82187000D01*
X131655000Y-82345750D01*
X131655000Y-82636309D01*
X131751673Y-82869698D01*
X131753043Y-82871068D01*
X131733274Y-82900000D01*
X129745105Y-82900000D01*
X129726671Y-82871354D01*
X129728327Y-82869698D01*
X129825000Y-82636309D01*
X129825000Y-82345750D01*
X129666250Y-82187000D01*
X128817000Y-82187000D01*
X128817000Y-82207000D01*
X128563000Y-82207000D01*
X128563000Y-82187000D01*
X127713750Y-82187000D01*
X127555000Y-82345750D01*
X127555000Y-82636309D01*
X127651673Y-82869698D01*
X127653043Y-82871068D01*
X127593569Y-82958110D01*
X127542560Y-83210000D01*
X125642969Y-83210000D01*
X125694368Y-83086218D01*
X125695630Y-81640126D01*
X125630993Y-81483691D01*
X127555000Y-81483691D01*
X127555000Y-81774250D01*
X127713750Y-81933000D01*
X128563000Y-81933000D01*
X128563000Y-81133750D01*
X128817000Y-81133750D01*
X128817000Y-81933000D01*
X129666250Y-81933000D01*
X129825000Y-81774250D01*
X129825000Y-81483691D01*
X131655000Y-81483691D01*
X131655000Y-81774250D01*
X131813750Y-81933000D01*
X132663000Y-81933000D01*
X132663000Y-81133750D01*
X132917000Y-81133750D01*
X132917000Y-81933000D01*
X133766250Y-81933000D01*
X133925000Y-81774250D01*
X133925000Y-81483691D01*
X136255000Y-81483691D01*
X136255000Y-81774250D01*
X136413750Y-81933000D01*
X137263000Y-81933000D01*
X137263000Y-81133750D01*
X137517000Y-81133750D01*
X137517000Y-81933000D01*
X138366250Y-81933000D01*
X138525000Y-81774250D01*
X138525000Y-81483691D01*
X140355000Y-81483691D01*
X140355000Y-81774250D01*
X140513750Y-81933000D01*
X141363000Y-81933000D01*
X141363000Y-81133750D01*
X141617000Y-81133750D01*
X141617000Y-81933000D01*
X142466250Y-81933000D01*
X142625000Y-81774250D01*
X142625000Y-81483691D01*
X142528327Y-81250302D01*
X142349699Y-81071673D01*
X142116310Y-80975000D01*
X141775750Y-80975000D01*
X141617000Y-81133750D01*
X141363000Y-81133750D01*
X141204250Y-80975000D01*
X140863690Y-80975000D01*
X140630301Y-81071673D01*
X140451673Y-81250302D01*
X140355000Y-81483691D01*
X138525000Y-81483691D01*
X138428327Y-81250302D01*
X138249699Y-81071673D01*
X138016310Y-80975000D01*
X137675750Y-80975000D01*
X137517000Y-81133750D01*
X137263000Y-81133750D01*
X137104250Y-80975000D01*
X136763690Y-80975000D01*
X136530301Y-81071673D01*
X136351673Y-81250302D01*
X136255000Y-81483691D01*
X133925000Y-81483691D01*
X133828327Y-81250302D01*
X133649699Y-81071673D01*
X133416310Y-80975000D01*
X133075750Y-80975000D01*
X132917000Y-81133750D01*
X132663000Y-81133750D01*
X132504250Y-80975000D01*
X132163690Y-80975000D01*
X131930301Y-81071673D01*
X131751673Y-81250302D01*
X131655000Y-81483691D01*
X129825000Y-81483691D01*
X129728327Y-81250302D01*
X129549699Y-81071673D01*
X129316310Y-80975000D01*
X128975750Y-80975000D01*
X128817000Y-81133750D01*
X128563000Y-81133750D01*
X128404250Y-80975000D01*
X128063690Y-80975000D01*
X127830301Y-81071673D01*
X127651673Y-81250302D01*
X127555000Y-81483691D01*
X125630993Y-81483691D01*
X125143400Y-80303628D01*
X124121751Y-79280194D01*
X122786218Y-78725632D01*
X121340126Y-78724370D01*
X120003628Y-79276600D01*
X118980194Y-80298249D01*
X118425632Y-81633782D01*
X118424370Y-83079874D01*
X118902716Y-84237560D01*
X116565000Y-84237560D01*
X116329683Y-84281838D01*
X116113559Y-84420910D01*
X115968569Y-84633110D01*
X115924648Y-84850000D01*
X114740000Y-84850000D01*
X114614763Y-84874911D01*
X114391205Y-84874716D01*
X114182769Y-84960840D01*
X114114313Y-84974457D01*
X114056785Y-85012896D01*
X113790057Y-85123106D01*
X113584010Y-85328793D01*
X113583880Y-85328880D01*
X113583878Y-85328883D01*
X113559327Y-85353433D01*
X113329722Y-85582637D01*
X113080284Y-86183352D01*
X113079716Y-86833795D01*
X113328106Y-87434943D01*
X113787637Y-87895278D01*
X114388352Y-88144716D01*
X115038795Y-88145284D01*
X115099987Y-88120000D01*
X115924146Y-88120000D01*
X115961838Y-88320317D01*
X116093548Y-88525000D01*
X112298690Y-88525000D01*
X112065301Y-88621673D01*
X111886673Y-88800302D01*
X111790000Y-89033691D01*
X111650000Y-89033691D01*
X111650000Y-88656192D01*
X111816441Y-88549090D01*
X111961431Y-88336890D01*
X112012440Y-88085000D01*
X112012440Y-84885000D01*
X111968162Y-84649683D01*
X111829090Y-84433559D01*
X111616890Y-84288569D01*
X111365000Y-84237560D01*
X108665000Y-84237560D01*
X108429683Y-84281838D01*
X108428000Y-84282921D01*
X108428000Y-78319000D01*
X157958000Y-78319000D01*
X157958000Y-92109000D01*
G36*
X125085910Y-102121441D02*
X125200805Y-102199945D01*
X125117000Y-102283750D01*
X125117000Y-103083000D01*
X126066250Y-103083000D01*
X126204948Y-102944302D01*
X126204760Y-103159285D01*
X126415169Y-103668515D01*
X126696164Y-103950000D01*
X126157197Y-103950000D01*
X126225000Y-103786310D01*
X126225000Y-103495750D01*
X126066250Y-103337000D01*
X125117000Y-103337000D01*
X125117000Y-103357000D01*
X124863000Y-103357000D01*
X124863000Y-103337000D01*
X124843000Y-103337000D01*
X124843000Y-103083000D01*
X124863000Y-103083000D01*
X124863000Y-102283750D01*
X124714250Y-102135000D01*
X124876310Y-102135000D01*
X125048689Y-102063598D01*
X125085910Y-102121441D01*
X125085910Y-102121441D01*
G37*
X125085910Y-102121441D02*
X125200805Y-102199945D01*
X125117000Y-102283750D01*
X125117000Y-103083000D01*
X126066250Y-103083000D01*
X126204948Y-102944302D01*
X126204760Y-103159285D01*
X126415169Y-103668515D01*
X126696164Y-103950000D01*
X126157197Y-103950000D01*
X126225000Y-103786310D01*
X126225000Y-103495750D01*
X126066250Y-103337000D01*
X125117000Y-103337000D01*
X125117000Y-103357000D01*
X124863000Y-103357000D01*
X124863000Y-103337000D01*
X124843000Y-103337000D01*
X124843000Y-103083000D01*
X124863000Y-103083000D01*
X124863000Y-102283750D01*
X124714250Y-102135000D01*
X124876310Y-102135000D01*
X125048689Y-102063598D01*
X125085910Y-102121441D01*
M02*
