M48
;DRILL file {KiCad 6.0.0-rc1-unknown-7a10feb~66~ubuntu18.04.1} date Wed Aug 22 16:05:19 2018
;FORMAT={-:-/ absolute / inch / decimal}
FMAT,2
INCH,TZ
T1C0.0157
T2C0.0236
T3C0.0394
T4C0.0433
T5C0.0984
T6C0.1063
T7C0.1969
%
G90
G05
M72
T1
X4.9449Y-4.2323
X5.0394Y-3.4331
X5.0474Y-4.9677
X5.0512Y-4.3701
X5.0512Y-5.1496
X5.0551Y-3.7913
X5.0551Y-4.2047
X5.0787Y-4.126
X5.0827Y-3.6496
X5.0827Y-4.2992
X5.0827Y-4.3504
X5.0866Y-3.5748
X5.0945Y-4.748
X5.0984Y-5.1024
X5.1024Y-5.0512
X5.1063Y-4.0709
X5.1142Y-4.8071
X5.1197Y-4.1173
X5.1378Y-4.9409
X5.1457Y-4.0039
X5.1457Y-5.1339
X5.1614Y-4.3307
X5.1654Y-4.4016
X5.1673Y-4.7218
X5.1703Y-3.4429
X5.1772Y-4.5039
X5.189Y-3.7165
X5.2008Y-3.874
X5.2075Y-5.3225
X5.2126Y-4.7244
X5.2362Y-4.1339
X5.248Y-4.5472
X5.249Y-4.8007
X5.2628Y-4.6495
X5.2835Y-4.9213
X5.2938Y-4.9705
X5.2995Y-4.027
X5.3061Y-3.9124
X5.3071Y-4.5043
X5.3075Y-5.2425
X5.3133Y-4.6797
X5.3175Y-4.7145
X5.3228Y-4.5897
X5.3228Y-4.626
X5.3307Y-4.0315
X5.3307Y-4.137
X5.3345Y-5.0174
X5.3386Y-4.5079
X5.3386Y-4.8031
X5.3467Y-4.7262
X5.3573Y-3.9124
X5.362Y-3.9646
X5.3656Y-3.6776
X5.4026Y-4.0108
X5.4124Y-4.3037
X5.4714Y-4.9114
X5.4754Y-4.5994
X5.4765Y-4.6576
X5.4826Y-5.0414
X5.496Y-4.9935
X5.499Y-3.936
X5.499Y-3.9921
X5.499Y-4.0388
X5.502Y-4.7835
X5.502Y-4.8435
X5.5024Y-4.5136
X5.5138Y-4.6929
X5.5217Y-4.1173
X5.5236Y-4.6319
X5.5295Y-4.7274
X5.5325Y-4.5043
X5.5423Y-4.5512
X5.5482Y-3.6886
X5.5531Y-3.9646
X5.5581Y-4.6575
X5.5822Y-4.4843
X5.5827Y-4.5433
X5.6063Y-5.0797
X5.6102Y-4.7205
X5.6102Y-5.2283
X5.6181Y-4.9291
X5.6191Y-4.8081
X5.622Y-4.3031
X5.6313Y-4.6085
X5.6319Y-3.9677
X5.6437Y-4.5305
X5.6772Y-4.9173
X5.6924Y-3.6791
X5.7121Y-4.1884
X5.7165Y-4.752
X5.7323Y-4.9055
X5.7362Y-3.4567
X5.779Y-3.8569
X5.7797Y-5.0797
X5.78Y-4.5302
X5.7865Y-5.2603
X5.7894Y-4.4272
X5.7897Y-3.9356
X5.7923Y-3.7008
X5.8071Y-4.2953
X5.8088Y-4.2261
X5.8142Y-3.9812
X5.8178Y-4.0125
X5.8209Y-3.9311
X5.8268Y-3.877
X5.8303Y-4.7789
X5.8336Y-4.7476
X5.8351Y-4.81
X5.8425Y-4.4843
X5.8583Y-4.2717
X5.862Y-4.0478
X5.862Y-4.5112
X5.8875Y-4.2273
X5.9082Y-3.6624
X5.9104Y-4.3231
X5.9133Y-5.0797
X5.9232Y-3.7114
X5.9291Y-4.9016
X5.9347Y-3.8616
X5.951Y-4.7286
X5.9536Y-3.7772
X5.9675Y-4.5689
X5.9675Y-3.7303
X5.9724Y-3.4528
X5.9843Y-3.5079
X5.9843Y-4.4252
X5.9863Y-3.839
X5.9882Y-3.5906
X5.9891Y-4.3408
X5.9969Y-4.4704
X5.9989Y-3.7781
X6.0001Y-4.2341
X6.0084Y-4.2971
X6.0215Y-4.495
X6.0227Y-3.8187
X6.0246Y-3.752
X6.0275Y-4.5259
X6.0414Y-4.4508
X6.0433Y-4.3283
X6.0512Y-5.0748
X6.062Y-4.2657
X6.063Y-4.0787
X6.0658Y-4.1101
X6.067Y-4.5
X6.0827Y-5.0433
X6.1024Y-3.5039
X6.1217Y-4.3045
X6.1224Y-4.7048
X6.1245Y-3.6622
X6.1378Y-3.8465
X6.1496Y-3.7992
X6.1496Y-4.2441
X6.15Y-5.045
X6.1575Y-3.7047
X6.1594Y-4.1821
X6.1624Y-3.5917
X6.1827Y-4.7362
X6.1879Y-4.1462
X6.1929Y-3.4409
X6.1929Y-4.4961
X6.197Y-3.8504
X6.2047Y-3.4921
X6.2135Y-4.6998
X6.2158Y-4.378
X6.2205Y-3.5236
X6.2382Y-4.1147
X6.2402Y-3.4488
X6.2441Y-3.4882
X6.2441Y-4.1457
X6.316Y-3.6132
X6.3189Y-4.1299
X6.3228Y-3.5315
X6.3387Y-3.6821
X6.3442Y-3.6358
X6.3529Y-3.5905
X6.3543Y-5.2677
X6.378Y-3.7323
X6.378Y-5.0906
X6.3819Y-3.8504
X6.3819Y-5.0157
X6.385Y-5.3375
X6.4331Y-3.4882
X6.455Y-5.245
X6.5118Y-5.2047
X6.5315Y-3.4173
X6.5364Y-3.6443
X6.5433Y-5.0522
X6.5856Y-4.9902
X6.625Y-5.1122
X6.6345Y-5.271
X6.6533Y-5.2098
X6.685Y-3.5039
X6.685Y-3.5984
X6.7402Y-3.5354
X6.7756Y-3.6693
X6.8622Y-3.5563
X6.8622Y-3.6457
T2
X5.1102Y-3.685
X5.1181Y-3.5354
T3
X5.1142Y-4.5797
X5.4324Y-5.0581
X5.5512Y-3.4606
X5.5945Y-3.89
X5.6427Y-4.1043
X5.7756Y-3.6181
X5.8375Y-4.9367
X5.8976Y-5.1496
X5.9479Y-4.3676
X5.9507Y-4.0553
X6.0354Y-4.8451
X6.1981Y-4.2793
X6.2323Y-4.1969
X6.2559Y-4.9921
X6.3437Y-4.9043
X4.785Y-3.252
X4.785Y-3.352
X4.885Y-3.252
X4.885Y-3.352
X4.985Y-3.252
X4.985Y-3.352
X5.085Y-3.252
X5.085Y-3.352
X5.185Y-3.252
X5.185Y-3.352
X5.285Y-3.252
X5.285Y-3.352
X5.385Y-3.252
X5.385Y-3.352
X5.485Y-3.252
X5.485Y-3.352
X5.585Y-3.252
X5.585Y-3.352
X5.685Y-3.252
X5.685Y-3.352
X5.785Y-3.252
X5.785Y-3.352
X5.885Y-3.252
X5.885Y-3.352
X5.985Y-3.252
X5.985Y-3.352
X6.085Y-3.252
X6.085Y-3.352
X6.185Y-3.252
X6.185Y-3.352
X6.285Y-3.252
X6.285Y-3.352
X6.385Y-3.252
X6.385Y-3.352
X6.485Y-3.252
X6.485Y-3.352
X6.585Y-3.252
X6.585Y-3.352
X6.685Y-3.252
X6.685Y-3.352
T4
X4.602Y-4.1618
X4.602Y-4.2602
X4.602Y-4.339
X4.602Y-4.4374
X4.7043Y-4.1618
X4.7043Y-4.2602
X4.7043Y-4.339
X4.7043Y-4.4374
T5
X4.5862Y-4.0378
X4.5862Y-4.5614
X4.8106Y-4.0378
X4.8106Y-4.5614
T6
X4.6Y-3.3016
X4.6Y-5.2307
X6.8835Y-3.3016
X6.8835Y-5.2307
T7
X6.5484Y-4.2992
X6.8535Y-4.2992
X6.55Y-3.9354
X6.8551Y-3.9354
X4.6157Y-3.6047
X4.9209Y-3.6047
X6.5512Y-4.6535
X6.8563Y-4.6535
T0
M30
