G04 #@! TF.FileFunction,Copper,L1,Top,Signal*
%FSLAX46Y46*%
G04 Gerber Fmt 4.6, Leading zero omitted, Abs format (unit mm)*
G04 Created by KiCad (PCBNEW 4.0.7-e2-6376~58~ubuntu17.04.1) date Sun Sep 24 18:19:53 2017*
%MOMM*%
%LPD*%
G01*
G04 APERTURE LIST*
%ADD10C,0.100000*%
%ADD11C,1.524000*%
%ADD12C,6.000000*%
%ADD13C,4.000000*%
%ADD14C,1.500000*%
%ADD15R,0.750000X1.200000*%
%ADD16R,1.200000X0.750000*%
%ADD17R,0.800000X0.800000*%
%ADD18R,0.800000X0.600000*%
%ADD19R,1.000000X0.900000*%
%ADD20C,2.000000*%
%ADD21R,0.900000X1.000000*%
%ADD22R,0.800000X0.900000*%
%ADD23R,0.900000X1.200000*%
%ADD24R,1.500000X1.300000*%
%ADD25R,1.200000X0.900000*%
%ADD26R,2.160000X1.070000*%
%ADD27R,6.990000X8.330000*%
%ADD28R,0.650000X0.350000*%
%ADD29R,1.000000X0.800000*%
%ADD30C,6.500000*%
%ADD31R,8.000000X5.000000*%
%ADD32R,1.700000X1.700000*%
%ADD33O,1.700000X1.700000*%
%ADD34R,0.600000X2.000000*%
%ADD35R,4.200000X4.500000*%
%ADD36R,6.000000X3.800000*%
%ADD37R,3.000000X1.500000*%
%ADD38R,2.000000X1.500000*%
%ADD39C,0.600000*%
%ADD40C,0.800000*%
%ADD41C,1.000000*%
%ADD42C,0.250000*%
%ADD43C,1.000000*%
%ADD44C,0.500000*%
%ADD45C,0.400000*%
%ADD46C,0.254000*%
G04 APERTURE END LIST*
D10*
D11*
X143100000Y-110900000D03*
X138100000Y-110900000D03*
D12*
X122075000Y-82450000D03*
X147025000Y-82450000D03*
X147025000Y-120950000D03*
X122075000Y-120950000D03*
D13*
X160950000Y-95400000D03*
X166650000Y-95400000D03*
X160950000Y-108700000D03*
X166650000Y-108700000D03*
D14*
X163950000Y-105550000D03*
X163950000Y-103050000D03*
X163950000Y-98550000D03*
X163950000Y-101050000D03*
X161350000Y-98550000D03*
X161350000Y-101050000D03*
X161350000Y-103050000D03*
X161350000Y-105550000D03*
D11*
X130000000Y-106800000D03*
X130000000Y-111800000D03*
D15*
X130600000Y-119750000D03*
X130600000Y-117850000D03*
D16*
X141200000Y-100650000D03*
X143100000Y-100650000D03*
D17*
X148700000Y-102100000D03*
X147100000Y-102100000D03*
D18*
X130600000Y-123250000D03*
X130600000Y-121550000D03*
D19*
X156550000Y-82000000D03*
X156550000Y-80400000D03*
X152450000Y-82000000D03*
X152450000Y-80400000D03*
D20*
X129200000Y-90100000D03*
X129200000Y-97500000D03*
D21*
X148500000Y-95100000D03*
X146900000Y-95100000D03*
X148500000Y-99200000D03*
X146900000Y-99200000D03*
D22*
X143225000Y-102850000D03*
X141325000Y-102850000D03*
X142275000Y-104850000D03*
X142850000Y-94100000D03*
X140950000Y-94100000D03*
X141900000Y-96100000D03*
D23*
X128010000Y-122960000D03*
X128010000Y-120760000D03*
X120100000Y-95500000D03*
X120100000Y-93300000D03*
D24*
X115250000Y-99000000D03*
X117950000Y-99000000D03*
D25*
X143175000Y-98200000D03*
X140975000Y-98200000D03*
X140950000Y-91600000D03*
X143150000Y-91600000D03*
D26*
X123100000Y-102450000D03*
X123100000Y-104150000D03*
X123100000Y-107550000D03*
X123100000Y-105850000D03*
X123100000Y-109250000D03*
D27*
X115800000Y-105900000D03*
D28*
X155950000Y-113750000D03*
X155950000Y-113100000D03*
X155950000Y-112450000D03*
X153850000Y-112450000D03*
X153850000Y-113100000D03*
X153850000Y-113750000D03*
D29*
X154900000Y-112700000D03*
X154900000Y-113500000D03*
D30*
X107100000Y-105980000D03*
X107100000Y-98230000D03*
X98200000Y-97420000D03*
X98200000Y-105170000D03*
D31*
X153400000Y-88700000D03*
D25*
X126200000Y-102400000D03*
X128400000Y-102400000D03*
D32*
X129620000Y-83040000D03*
D33*
X129620000Y-80500000D03*
X132160000Y-83040000D03*
X132160000Y-80500000D03*
X134700000Y-83040000D03*
X134700000Y-80500000D03*
X137240000Y-83040000D03*
X137240000Y-80500000D03*
X139780000Y-83040000D03*
X139780000Y-80500000D03*
D34*
X115570000Y-90300000D03*
X116840000Y-90300000D03*
X118110000Y-90300000D03*
X114300000Y-90300000D03*
D35*
X116200000Y-94100000D03*
D36*
X138800000Y-120200000D03*
D37*
X134380000Y-120200000D03*
D38*
X134050000Y-122500000D03*
X134050000Y-117900000D03*
D25*
X152687020Y-99184460D03*
X154887020Y-99184460D03*
X152709700Y-101046280D03*
X154909700Y-101046280D03*
D39*
X141276152Y-101428933D03*
D40*
X140553440Y-108376720D03*
D14*
X136144000Y-113235740D03*
D40*
X155310840Y-92435680D03*
D39*
X155961080Y-111706660D03*
X156956760Y-114185700D03*
X149550000Y-115800000D03*
X149230000Y-112500000D03*
D14*
X125341380Y-117497860D03*
D39*
X121280395Y-113127592D03*
X120200000Y-108100000D03*
D14*
X147825000Y-97100002D03*
D40*
X139200000Y-86700000D03*
D39*
X129400000Y-121100000D03*
X125050000Y-114200000D03*
X120200000Y-109600000D03*
X114881072Y-105980000D03*
X140975000Y-98200000D03*
X143100000Y-100650000D03*
D14*
X125871020Y-107550000D03*
D39*
X147100000Y-101450000D03*
X141605000Y-94802960D03*
X142800000Y-90500000D03*
D41*
X116200000Y-89000000D03*
X117500000Y-89000000D03*
X117500000Y-90300000D03*
X116200000Y-90300000D03*
D39*
X132700000Y-116200000D03*
X135900000Y-123100000D03*
X117800000Y-100300000D03*
X150065740Y-101983540D03*
D14*
X125709680Y-104134920D03*
D41*
X137073640Y-92870020D03*
X138800000Y-120200000D03*
X140634720Y-111053880D03*
D39*
X142050000Y-120200000D03*
X129372360Y-85600540D03*
X120100000Y-95500000D03*
X123200000Y-111600000D03*
X129600000Y-118900000D03*
X140187680Y-115534440D03*
X138165840Y-115603020D03*
X154599640Y-114472720D03*
X128424940Y-118889780D03*
X123725940Y-114912140D03*
X121200000Y-109400000D03*
X116800000Y-101100000D03*
X154406200Y-88498880D03*
X116050000Y-112600000D03*
X122350000Y-114530002D03*
X113500000Y-99000000D03*
X140215620Y-104741980D03*
X127066040Y-93812360D03*
X153128200Y-106516880D03*
X120100000Y-93300000D03*
X145989040Y-104850000D03*
X136514840Y-84818220D03*
X155668200Y-106516880D03*
X152790522Y-112932285D03*
X137995660Y-103256080D03*
X141050151Y-104046020D03*
X150436580Y-104046020D03*
X149412960Y-100563680D03*
X153046432Y-112174308D03*
X149326200Y-106532880D03*
X150373080Y-100589080D03*
X151988545Y-112147774D03*
X147408900Y-109418120D03*
D42*
X141200000Y-100650000D02*
X141200000Y-101352781D01*
X141325000Y-101477781D02*
X141276152Y-101428933D01*
X141325000Y-102850000D02*
X141325000Y-101477781D01*
X141200000Y-101352781D02*
X141276152Y-101428933D01*
X155950000Y-112450000D02*
X155950000Y-111717740D01*
X155950000Y-111717740D02*
X155961080Y-111706660D01*
X155950000Y-112450000D02*
X155950000Y-113100000D01*
X146900000Y-95100000D02*
X146900000Y-96175002D01*
X146900000Y-96175002D02*
X147825000Y-97100002D01*
X146900000Y-99200000D02*
X146900000Y-98025002D01*
X146900000Y-98025002D02*
X147825000Y-97100002D01*
X143225000Y-102850000D02*
X143225000Y-100775000D01*
X143225000Y-100775000D02*
X143100000Y-100650000D01*
X140975000Y-98200000D02*
X141125000Y-98200000D01*
D43*
X123100000Y-107550000D02*
X125871020Y-107550000D01*
D42*
X140950000Y-94100000D02*
X140950000Y-94147960D01*
X140950000Y-94147960D02*
X141605000Y-94802960D01*
X147100000Y-101450000D02*
X147100000Y-102100000D01*
X140950000Y-94100000D02*
X140950000Y-94150000D01*
X140950000Y-91600000D02*
X140950000Y-94100000D01*
X142800000Y-90500000D02*
X142800000Y-91250000D01*
X142800000Y-91250000D02*
X143150000Y-91600000D01*
X142850000Y-94100000D02*
X142850000Y-91900000D01*
X142850000Y-91900000D02*
X143150000Y-91600000D01*
X142850000Y-94100000D02*
X147550000Y-94100000D01*
X147550000Y-94100000D02*
X148500000Y-95050000D01*
X148500000Y-95050000D02*
X148500000Y-95100000D01*
X149200000Y-97750000D02*
X149200000Y-95850000D01*
X148500000Y-95150000D02*
X148500000Y-95100000D01*
X149200000Y-95850000D02*
X148500000Y-95150000D01*
X148500000Y-99200000D02*
X148500000Y-98450000D01*
X148500000Y-98450000D02*
X149200000Y-97750000D01*
X141900000Y-96100000D02*
X141900000Y-97075000D01*
X141900000Y-97075000D02*
X143025000Y-98200000D01*
X143025000Y-98200000D02*
X143175000Y-98200000D01*
D44*
X117500000Y-90300000D02*
X117500000Y-89000000D01*
X116840000Y-90300000D02*
X117500000Y-90300000D01*
X118110000Y-90300000D02*
X117500000Y-90300000D01*
X116200000Y-90300000D02*
X115850001Y-90300000D01*
X116840000Y-90300000D02*
X116200000Y-90300000D01*
D42*
X128010000Y-122960000D02*
X130310000Y-122960000D01*
X130310000Y-122960000D02*
X130600000Y-123250000D01*
D43*
X130000000Y-111800000D02*
X125650000Y-111800000D01*
X125650000Y-111800000D02*
X123100000Y-109250000D01*
D42*
X132700000Y-116200000D02*
X130000000Y-113500000D01*
X130000000Y-113500000D02*
X130000000Y-111800000D01*
X134050000Y-122500000D02*
X135300000Y-122500000D01*
X135300000Y-122500000D02*
X135900000Y-123100000D01*
X117800000Y-100300000D02*
X117800000Y-99150000D01*
X117800000Y-99150000D02*
X117950000Y-99000000D01*
X148700000Y-102100000D02*
X149949280Y-102100000D01*
X149949280Y-102100000D02*
X150065740Y-101983540D01*
D43*
X157825440Y-109621320D02*
X157825440Y-107828558D01*
X157825440Y-107828558D02*
X160103998Y-105550000D01*
X160103998Y-105550000D02*
X161350000Y-105550000D01*
X158249999Y-110045879D02*
X157825440Y-109621320D01*
X158366460Y-115544600D02*
X158249999Y-115428139D01*
X158249999Y-115428139D02*
X158249999Y-110045879D01*
X156185091Y-117725969D02*
X158366460Y-115544600D01*
X138100000Y-110900000D02*
X144449999Y-117249999D01*
X144449999Y-117249999D02*
X151181339Y-117249999D01*
X151181339Y-117249999D02*
X151657309Y-117725969D01*
X151657309Y-117725969D02*
X156185091Y-117725969D01*
D45*
X163950000Y-105550000D02*
X161350000Y-105550000D01*
D43*
X138100000Y-110900000D02*
X138100000Y-109822370D01*
X138100000Y-109822370D02*
X132412550Y-104134920D01*
X132412550Y-104134920D02*
X125709680Y-104134920D01*
X123100000Y-104150000D02*
X125694600Y-104150000D01*
X125694600Y-104150000D02*
X125709680Y-104134920D01*
D44*
X137073640Y-99880420D02*
X137073640Y-92870020D01*
X138899900Y-101706680D02*
X137073640Y-99880420D01*
X138899900Y-108611954D02*
X138899900Y-101706680D01*
X140634720Y-110346774D02*
X138899900Y-108611954D01*
X140634720Y-111053880D02*
X140634720Y-110346774D01*
D43*
X138800000Y-120200000D02*
X134380000Y-120200000D01*
D42*
X138800000Y-120200000D02*
X142050000Y-120200000D01*
X129372360Y-85600540D02*
X131932900Y-83040000D01*
X131932900Y-83040000D02*
X132160000Y-83040000D01*
X125600000Y-113100000D02*
X129600000Y-117100000D01*
X129600000Y-117100000D02*
X129600000Y-118900000D01*
X124700000Y-113100000D02*
X125600000Y-113100000D01*
X123200000Y-111600000D02*
X124700000Y-113100000D01*
X129600000Y-118900000D02*
X129750000Y-118900000D01*
X129750000Y-118900000D02*
X130600000Y-119750000D01*
X130600000Y-119750000D02*
X133930000Y-119750000D01*
X133930000Y-119750000D02*
X134380000Y-120200000D01*
X130600000Y-121550000D02*
X130600000Y-119750000D01*
X138165840Y-115603020D02*
X140119100Y-115603020D01*
X140119100Y-115603020D02*
X140187680Y-115534440D01*
X154599640Y-114472720D02*
X155652280Y-114472720D01*
X155652280Y-114472720D02*
X155950000Y-114175000D01*
X155950000Y-114175000D02*
X155950000Y-113750000D01*
X123725940Y-114912140D02*
X124803142Y-114912140D01*
X124803142Y-114912140D02*
X128424940Y-118533938D01*
X128424940Y-118533938D02*
X128424940Y-118889780D01*
X116800000Y-101100000D02*
X119245002Y-101100000D01*
X119245002Y-101100000D02*
X121200000Y-103054998D01*
X121200000Y-103054998D02*
X121200000Y-109400000D01*
X152450000Y-82000000D02*
X152400000Y-82000000D01*
X152400000Y-82000000D02*
X149524999Y-79124999D01*
X149524999Y-79124999D02*
X139415999Y-79124999D01*
X139415999Y-79124999D02*
X138415001Y-80125997D01*
X138415001Y-80125997D02*
X138415001Y-81864999D01*
X138415001Y-81864999D02*
X137240000Y-83040000D01*
X154406200Y-88498880D02*
X153601120Y-88498880D01*
X153601120Y-88498880D02*
X153400000Y-88700000D01*
X153400000Y-88700000D02*
X153400000Y-82900000D01*
X153400000Y-82900000D02*
X152500000Y-82000000D01*
X152500000Y-82000000D02*
X152450000Y-82000000D01*
X152450000Y-82000000D02*
X156550000Y-82000000D01*
X122350000Y-114530002D02*
X117980002Y-114530002D01*
X117980002Y-114530002D02*
X116050000Y-112600000D01*
X113500000Y-99000000D02*
X115250000Y-99000000D01*
X147916900Y-105808780D02*
X151670100Y-105808780D01*
X151670100Y-105808780D02*
X152378200Y-106516880D01*
X152378200Y-106516880D02*
X153128200Y-106516880D01*
X147358100Y-106367580D02*
X147916900Y-105808780D01*
X141841220Y-106367580D02*
X147358100Y-106367580D01*
X140215620Y-104741980D02*
X141841220Y-106367580D01*
X120100000Y-93300000D02*
X126553680Y-93300000D01*
X126553680Y-93300000D02*
X127066040Y-93812360D01*
X114300000Y-90300000D02*
X114300000Y-88300000D01*
X114300000Y-88300000D02*
X115225001Y-87374999D01*
X115225001Y-87374999D02*
X118510001Y-87374999D01*
X118510001Y-87374999D02*
X120100000Y-88964998D01*
X120100000Y-88964998D02*
X120100000Y-93300000D01*
X145989040Y-104850000D02*
X154501320Y-104850000D01*
X154501320Y-104850000D02*
X155668200Y-106016880D01*
X155668200Y-106016880D02*
X155668200Y-106516880D01*
X142275000Y-104850000D02*
X145989040Y-104850000D01*
X134700000Y-83040000D02*
X136478220Y-84818220D01*
X136478220Y-84818220D02*
X136514840Y-84818220D01*
X153850000Y-113100000D02*
X152958237Y-113100000D01*
X152958237Y-113100000D02*
X152790522Y-112932285D01*
X127206080Y-103256080D02*
X137995660Y-103256080D01*
X126200000Y-102400000D02*
X126350000Y-102400000D01*
X126350000Y-102400000D02*
X127206080Y-103256080D01*
X150436580Y-104046020D02*
X141050151Y-104046020D01*
X123100000Y-102450000D02*
X126150000Y-102450000D01*
X126150000Y-102450000D02*
X126200000Y-102400000D01*
X152293000Y-101312980D02*
X150162260Y-101312980D01*
X150162260Y-101312980D02*
X149412960Y-100563680D01*
X152709700Y-101046280D02*
X152559700Y-101046280D01*
X152559700Y-101046280D02*
X152293000Y-101312980D01*
X150241000Y-95305998D02*
X150241000Y-99735640D01*
X150241000Y-99735640D02*
X149412960Y-100563680D01*
X140629999Y-83889999D02*
X140629999Y-85694997D01*
X139780000Y-83040000D02*
X140629999Y-83889999D01*
X140629999Y-85694997D02*
X150241000Y-95305998D01*
X153046432Y-112221432D02*
X153046432Y-112174308D01*
X153275000Y-112450000D02*
X153046432Y-112221432D01*
X153850000Y-112450000D02*
X153275000Y-112450000D01*
X152687020Y-99184460D02*
X151777700Y-99184460D01*
X151777700Y-99184460D02*
X150373080Y-100589080D01*
X147408900Y-109418120D02*
X147408900Y-108450180D01*
X147408900Y-108450180D02*
X149326200Y-106532880D01*
X150691011Y-100271149D02*
X150373080Y-100589080D01*
X142021560Y-86450147D02*
X150691011Y-95119598D01*
X142021560Y-82741560D02*
X142021560Y-86450147D01*
X150691011Y-95119598D02*
X150691011Y-100271149D01*
X139780000Y-80500000D02*
X142021560Y-82741560D01*
X151988545Y-113243829D02*
X151988545Y-112147774D01*
X153850000Y-113750000D02*
X152494716Y-113750000D01*
X150138554Y-112147774D02*
X151988545Y-112147774D01*
X147408900Y-109418120D02*
X150138554Y-112147774D01*
X152494716Y-113750000D02*
X151988545Y-113243829D01*
D46*
G36*
X122913887Y-92540000D02*
X121167334Y-92540000D01*
X121153162Y-92464683D01*
X121014090Y-92248559D01*
X120860000Y-92143274D01*
X120860000Y-88964998D01*
X120802148Y-88674159D01*
X120637401Y-88427597D01*
X119047402Y-86837598D01*
X118800840Y-86672851D01*
X118510001Y-86614999D01*
X115225001Y-86614999D01*
X114934162Y-86672851D01*
X114687600Y-86837598D01*
X113762599Y-87762599D01*
X113597852Y-88009161D01*
X113540000Y-88300000D01*
X113540000Y-88848437D01*
X113403569Y-89048110D01*
X113352560Y-89300000D01*
X113352560Y-91300000D01*
X113396838Y-91535317D01*
X113485777Y-91673532D01*
X113465000Y-91723691D01*
X113465000Y-93814250D01*
X113623750Y-93973000D01*
X116073000Y-93973000D01*
X116073000Y-93953000D01*
X116327000Y-93953000D01*
X116327000Y-93973000D01*
X118776250Y-93973000D01*
X118935000Y-93814250D01*
X118935000Y-91723691D01*
X118917655Y-91681817D01*
X119006431Y-91551890D01*
X119057440Y-91300000D01*
X119057440Y-89300000D01*
X119013162Y-89064683D01*
X118874090Y-88848559D01*
X118661890Y-88703569D01*
X118600448Y-88691127D01*
X118494209Y-88434009D01*
X119340000Y-89279800D01*
X119340000Y-92144895D01*
X119198559Y-92235910D01*
X119053569Y-92448110D01*
X119002560Y-92700000D01*
X119002560Y-93900000D01*
X119046838Y-94135317D01*
X119185910Y-94351441D01*
X119255711Y-94399134D01*
X119198559Y-94435910D01*
X119053569Y-94648110D01*
X119002560Y-94900000D01*
X119002560Y-96100000D01*
X119046838Y-96335317D01*
X119185910Y-96551441D01*
X119398110Y-96696431D01*
X119650000Y-96747440D01*
X120550000Y-96747440D01*
X120785317Y-96703162D01*
X121001441Y-96564090D01*
X121146431Y-96351890D01*
X121197440Y-96100000D01*
X121197440Y-94900000D01*
X121153162Y-94664683D01*
X121014090Y-94448559D01*
X120944289Y-94400866D01*
X121001441Y-94364090D01*
X121146431Y-94151890D01*
X121165039Y-94060000D01*
X122921890Y-94060000D01*
X122955650Y-100472255D01*
X119647774Y-100472643D01*
X119535841Y-100397852D01*
X119245002Y-100340000D01*
X118734966Y-100340000D01*
X118735009Y-100290853D01*
X118935317Y-100253162D01*
X119151441Y-100114090D01*
X119296431Y-99901890D01*
X119347440Y-99650000D01*
X119347440Y-98350000D01*
X119303162Y-98114683D01*
X119164090Y-97898559D01*
X118951890Y-97753569D01*
X118700000Y-97702560D01*
X117200000Y-97702560D01*
X116964683Y-97746838D01*
X116748559Y-97885910D01*
X116603569Y-98098110D01*
X116596809Y-98131490D01*
X116538327Y-97990301D01*
X116359698Y-97811673D01*
X116126309Y-97715000D01*
X115535750Y-97715000D01*
X115377000Y-97873750D01*
X115377000Y-98873000D01*
X115397000Y-98873000D01*
X115397000Y-99127000D01*
X115377000Y-99127000D01*
X115377000Y-100126250D01*
X115535750Y-100285000D01*
X116126309Y-100285000D01*
X116359698Y-100188327D01*
X116538327Y-100009699D01*
X116594654Y-99873713D01*
X116596838Y-99885317D01*
X116735910Y-100101441D01*
X116828968Y-100165025D01*
X116614833Y-100164838D01*
X116271057Y-100306883D01*
X116104650Y-100473000D01*
X111727246Y-100473000D01*
X111729537Y-99285750D01*
X113865000Y-99285750D01*
X113865000Y-99776310D01*
X113961673Y-100009699D01*
X114140302Y-100188327D01*
X114373691Y-100285000D01*
X114964250Y-100285000D01*
X115123000Y-100126250D01*
X115123000Y-99127000D01*
X114023750Y-99127000D01*
X113865000Y-99285750D01*
X111729537Y-99285750D01*
X111731586Y-98223690D01*
X113865000Y-98223690D01*
X113865000Y-98714250D01*
X114023750Y-98873000D01*
X115123000Y-98873000D01*
X115123000Y-97873750D01*
X114964250Y-97715000D01*
X114373691Y-97715000D01*
X114140302Y-97811673D01*
X113961673Y-97990301D01*
X113865000Y-98223690D01*
X111731586Y-98223690D01*
X111738994Y-94385750D01*
X113465000Y-94385750D01*
X113465000Y-96476309D01*
X113561673Y-96709698D01*
X113740301Y-96888327D01*
X113973690Y-96985000D01*
X115914250Y-96985000D01*
X116073000Y-96826250D01*
X116073000Y-94227000D01*
X116327000Y-94227000D01*
X116327000Y-96826250D01*
X116485750Y-96985000D01*
X118426310Y-96985000D01*
X118659699Y-96888327D01*
X118838327Y-96709698D01*
X118935000Y-96476309D01*
X118935000Y-94385750D01*
X118776250Y-94227000D01*
X116327000Y-94227000D01*
X116073000Y-94227000D01*
X113623750Y-94227000D01*
X113465000Y-94385750D01*
X111738994Y-94385750D01*
X111754676Y-86260855D01*
X122880788Y-86253405D01*
X122913887Y-92540000D01*
X122913887Y-92540000D01*
G37*
X122913887Y-92540000D02*
X121167334Y-92540000D01*
X121153162Y-92464683D01*
X121014090Y-92248559D01*
X120860000Y-92143274D01*
X120860000Y-88964998D01*
X120802148Y-88674159D01*
X120637401Y-88427597D01*
X119047402Y-86837598D01*
X118800840Y-86672851D01*
X118510001Y-86614999D01*
X115225001Y-86614999D01*
X114934162Y-86672851D01*
X114687600Y-86837598D01*
X113762599Y-87762599D01*
X113597852Y-88009161D01*
X113540000Y-88300000D01*
X113540000Y-88848437D01*
X113403569Y-89048110D01*
X113352560Y-89300000D01*
X113352560Y-91300000D01*
X113396838Y-91535317D01*
X113485777Y-91673532D01*
X113465000Y-91723691D01*
X113465000Y-93814250D01*
X113623750Y-93973000D01*
X116073000Y-93973000D01*
X116073000Y-93953000D01*
X116327000Y-93953000D01*
X116327000Y-93973000D01*
X118776250Y-93973000D01*
X118935000Y-93814250D01*
X118935000Y-91723691D01*
X118917655Y-91681817D01*
X119006431Y-91551890D01*
X119057440Y-91300000D01*
X119057440Y-89300000D01*
X119013162Y-89064683D01*
X118874090Y-88848559D01*
X118661890Y-88703569D01*
X118600448Y-88691127D01*
X118494209Y-88434009D01*
X119340000Y-89279800D01*
X119340000Y-92144895D01*
X119198559Y-92235910D01*
X119053569Y-92448110D01*
X119002560Y-92700000D01*
X119002560Y-93900000D01*
X119046838Y-94135317D01*
X119185910Y-94351441D01*
X119255711Y-94399134D01*
X119198559Y-94435910D01*
X119053569Y-94648110D01*
X119002560Y-94900000D01*
X119002560Y-96100000D01*
X119046838Y-96335317D01*
X119185910Y-96551441D01*
X119398110Y-96696431D01*
X119650000Y-96747440D01*
X120550000Y-96747440D01*
X120785317Y-96703162D01*
X121001441Y-96564090D01*
X121146431Y-96351890D01*
X121197440Y-96100000D01*
X121197440Y-94900000D01*
X121153162Y-94664683D01*
X121014090Y-94448559D01*
X120944289Y-94400866D01*
X121001441Y-94364090D01*
X121146431Y-94151890D01*
X121165039Y-94060000D01*
X122921890Y-94060000D01*
X122955650Y-100472255D01*
X119647774Y-100472643D01*
X119535841Y-100397852D01*
X119245002Y-100340000D01*
X118734966Y-100340000D01*
X118735009Y-100290853D01*
X118935317Y-100253162D01*
X119151441Y-100114090D01*
X119296431Y-99901890D01*
X119347440Y-99650000D01*
X119347440Y-98350000D01*
X119303162Y-98114683D01*
X119164090Y-97898559D01*
X118951890Y-97753569D01*
X118700000Y-97702560D01*
X117200000Y-97702560D01*
X116964683Y-97746838D01*
X116748559Y-97885910D01*
X116603569Y-98098110D01*
X116596809Y-98131490D01*
X116538327Y-97990301D01*
X116359698Y-97811673D01*
X116126309Y-97715000D01*
X115535750Y-97715000D01*
X115377000Y-97873750D01*
X115377000Y-98873000D01*
X115397000Y-98873000D01*
X115397000Y-99127000D01*
X115377000Y-99127000D01*
X115377000Y-100126250D01*
X115535750Y-100285000D01*
X116126309Y-100285000D01*
X116359698Y-100188327D01*
X116538327Y-100009699D01*
X116594654Y-99873713D01*
X116596838Y-99885317D01*
X116735910Y-100101441D01*
X116828968Y-100165025D01*
X116614833Y-100164838D01*
X116271057Y-100306883D01*
X116104650Y-100473000D01*
X111727246Y-100473000D01*
X111729537Y-99285750D01*
X113865000Y-99285750D01*
X113865000Y-99776310D01*
X113961673Y-100009699D01*
X114140302Y-100188327D01*
X114373691Y-100285000D01*
X114964250Y-100285000D01*
X115123000Y-100126250D01*
X115123000Y-99127000D01*
X114023750Y-99127000D01*
X113865000Y-99285750D01*
X111729537Y-99285750D01*
X111731586Y-98223690D01*
X113865000Y-98223690D01*
X113865000Y-98714250D01*
X114023750Y-98873000D01*
X115123000Y-98873000D01*
X115123000Y-97873750D01*
X114964250Y-97715000D01*
X114373691Y-97715000D01*
X114140302Y-97811673D01*
X113961673Y-97990301D01*
X113865000Y-98223690D01*
X111731586Y-98223690D01*
X111738994Y-94385750D01*
X113465000Y-94385750D01*
X113465000Y-96476309D01*
X113561673Y-96709698D01*
X113740301Y-96888327D01*
X113973690Y-96985000D01*
X115914250Y-96985000D01*
X116073000Y-96826250D01*
X116073000Y-94227000D01*
X116327000Y-94227000D01*
X116327000Y-96826250D01*
X116485750Y-96985000D01*
X118426310Y-96985000D01*
X118659699Y-96888327D01*
X118838327Y-96709698D01*
X118935000Y-96476309D01*
X118935000Y-94385750D01*
X118776250Y-94227000D01*
X116327000Y-94227000D01*
X116073000Y-94227000D01*
X113623750Y-94227000D01*
X113465000Y-94385750D01*
X111738994Y-94385750D01*
X111754676Y-86260855D01*
X122880788Y-86253405D01*
X122913887Y-92540000D01*
G36*
X157958000Y-85894499D02*
X157864090Y-85748559D01*
X157651890Y-85603569D01*
X157400000Y-85552560D01*
X154160000Y-85552560D01*
X154160000Y-82900000D01*
X154132152Y-82760000D01*
X155494895Y-82760000D01*
X155585910Y-82901441D01*
X155798110Y-83046431D01*
X156050000Y-83097440D01*
X157050000Y-83097440D01*
X157285317Y-83053162D01*
X157501441Y-82914090D01*
X157646431Y-82701890D01*
X157697440Y-82450000D01*
X157697440Y-81550000D01*
X157653162Y-81314683D01*
X157586671Y-81211354D01*
X157588327Y-81209698D01*
X157685000Y-80976309D01*
X157685000Y-80685750D01*
X157526250Y-80527000D01*
X156677000Y-80527000D01*
X156677000Y-80547000D01*
X156423000Y-80547000D01*
X156423000Y-80527000D01*
X155573750Y-80527000D01*
X155415000Y-80685750D01*
X155415000Y-80976309D01*
X155511673Y-81209698D01*
X155513043Y-81211068D01*
X155493274Y-81240000D01*
X153505105Y-81240000D01*
X153486671Y-81211354D01*
X153488327Y-81209698D01*
X153585000Y-80976309D01*
X153585000Y-80685750D01*
X153426250Y-80527000D01*
X152577000Y-80527000D01*
X152577000Y-80547000D01*
X152323000Y-80547000D01*
X152323000Y-80527000D01*
X152303000Y-80527000D01*
X152303000Y-80273000D01*
X152323000Y-80273000D01*
X152323000Y-79473750D01*
X152577000Y-79473750D01*
X152577000Y-80273000D01*
X153426250Y-80273000D01*
X153585000Y-80114250D01*
X153585000Y-79823691D01*
X155415000Y-79823691D01*
X155415000Y-80114250D01*
X155573750Y-80273000D01*
X156423000Y-80273000D01*
X156423000Y-79473750D01*
X156677000Y-79473750D01*
X156677000Y-80273000D01*
X157526250Y-80273000D01*
X157685000Y-80114250D01*
X157685000Y-79823691D01*
X157588327Y-79590302D01*
X157409699Y-79411673D01*
X157176310Y-79315000D01*
X156835750Y-79315000D01*
X156677000Y-79473750D01*
X156423000Y-79473750D01*
X156264250Y-79315000D01*
X155923690Y-79315000D01*
X155690301Y-79411673D01*
X155511673Y-79590302D01*
X155415000Y-79823691D01*
X153585000Y-79823691D01*
X153488327Y-79590302D01*
X153309699Y-79411673D01*
X153076310Y-79315000D01*
X152735750Y-79315000D01*
X152577000Y-79473750D01*
X152323000Y-79473750D01*
X152164250Y-79315000D01*
X151823690Y-79315000D01*
X151590301Y-79411673D01*
X151411673Y-79590302D01*
X151315000Y-79823691D01*
X151315000Y-79840198D01*
X150062400Y-78587598D01*
X149815838Y-78422851D01*
X149524999Y-78364999D01*
X139415999Y-78364999D01*
X139125160Y-78422851D01*
X138878598Y-78587598D01*
X138143360Y-79322836D01*
X137808285Y-79098946D01*
X137240000Y-78985907D01*
X136671715Y-79098946D01*
X136189946Y-79420853D01*
X135970000Y-79750026D01*
X135750054Y-79420853D01*
X135268285Y-79098946D01*
X134700000Y-78985907D01*
X134131715Y-79098946D01*
X133649946Y-79420853D01*
X133430000Y-79750026D01*
X133210054Y-79420853D01*
X132728285Y-79098946D01*
X132160000Y-78985907D01*
X131591715Y-79098946D01*
X131109946Y-79420853D01*
X130882298Y-79761553D01*
X130815183Y-79618642D01*
X130386924Y-79228355D01*
X129976890Y-79058524D01*
X129747000Y-79179845D01*
X129747000Y-80373000D01*
X129767000Y-80373000D01*
X129767000Y-80627000D01*
X129747000Y-80627000D01*
X129747000Y-82913000D01*
X129767000Y-82913000D01*
X129767000Y-83167000D01*
X129747000Y-83167000D01*
X129747000Y-83187000D01*
X129493000Y-83187000D01*
X129493000Y-83167000D01*
X128293750Y-83167000D01*
X128135000Y-83325750D01*
X128135000Y-84016309D01*
X128231673Y-84249698D01*
X128410301Y-84428327D01*
X128643690Y-84525000D01*
X129334250Y-84525000D01*
X129492998Y-84366252D01*
X129492998Y-84405100D01*
X129232680Y-84665418D01*
X129187193Y-84665378D01*
X128843417Y-84807423D01*
X128580168Y-85070213D01*
X128437522Y-85413741D01*
X128437198Y-85785707D01*
X128579243Y-86129483D01*
X128842033Y-86392732D01*
X129185561Y-86535378D01*
X129557527Y-86535702D01*
X129901303Y-86393657D01*
X130164552Y-86130867D01*
X130307198Y-85787339D01*
X130307239Y-85740463D01*
X131604170Y-84443532D01*
X132160000Y-84554093D01*
X132728285Y-84441054D01*
X133210054Y-84119147D01*
X133430000Y-83789974D01*
X133649946Y-84119147D01*
X134131715Y-84441054D01*
X134700000Y-84554093D01*
X135066408Y-84481210D01*
X135579686Y-84994488D01*
X135579678Y-85003387D01*
X135721723Y-85347163D01*
X135984513Y-85610412D01*
X136328041Y-85753058D01*
X136700007Y-85753382D01*
X137043783Y-85611337D01*
X137307032Y-85348547D01*
X137449678Y-85005019D01*
X137450002Y-84633053D01*
X137403905Y-84521490D01*
X137808285Y-84441054D01*
X138290054Y-84119147D01*
X138510000Y-83789974D01*
X138729946Y-84119147D01*
X139211715Y-84441054D01*
X139780000Y-84554093D01*
X139869999Y-84536191D01*
X139869999Y-85694997D01*
X139927851Y-85985836D01*
X140092598Y-86232398D01*
X147200200Y-93340000D01*
X143805105Y-93340000D01*
X143714090Y-93198559D01*
X143610000Y-93127437D01*
X143610000Y-92697440D01*
X143750000Y-92697440D01*
X143985317Y-92653162D01*
X144201441Y-92514090D01*
X144346431Y-92301890D01*
X144397440Y-92050000D01*
X144397440Y-91150000D01*
X144353162Y-90914683D01*
X144214090Y-90698559D01*
X144001890Y-90553569D01*
X143750000Y-90502560D01*
X143734998Y-90502560D01*
X143735162Y-90314833D01*
X143593117Y-89971057D01*
X143330327Y-89707808D01*
X142986799Y-89565162D01*
X142614833Y-89564838D01*
X142271057Y-89706883D01*
X142007808Y-89969673D01*
X141865162Y-90313201D01*
X141864915Y-90596632D01*
X141801890Y-90553569D01*
X141550000Y-90502560D01*
X140350000Y-90502560D01*
X140114683Y-90546838D01*
X139898559Y-90685910D01*
X139753569Y-90898110D01*
X139702560Y-91150000D01*
X139702560Y-92050000D01*
X139746838Y-92285317D01*
X139885910Y-92501441D01*
X140098110Y-92646431D01*
X140190000Y-92665039D01*
X140190000Y-93127069D01*
X140098559Y-93185910D01*
X139953569Y-93398110D01*
X139902560Y-93650000D01*
X139902560Y-94550000D01*
X139946838Y-94785317D01*
X140085910Y-95001441D01*
X140298110Y-95146431D01*
X140550000Y-95197440D01*
X140756324Y-95197440D01*
X140811883Y-95331903D01*
X140899253Y-95419425D01*
X140852560Y-95650000D01*
X140852560Y-96550000D01*
X140896838Y-96785317D01*
X141035910Y-97001441D01*
X141140000Y-97072563D01*
X141140000Y-97075000D01*
X141145482Y-97102560D01*
X140375000Y-97102560D01*
X140139683Y-97146838D01*
X139923559Y-97285910D01*
X139778569Y-97498110D01*
X139727560Y-97750000D01*
X139727560Y-98650000D01*
X139771838Y-98885317D01*
X139910910Y-99101441D01*
X140123110Y-99246431D01*
X140375000Y-99297440D01*
X141575000Y-99297440D01*
X141810317Y-99253162D01*
X142026441Y-99114090D01*
X142074134Y-99044289D01*
X142110910Y-99101441D01*
X142323110Y-99246431D01*
X142575000Y-99297440D01*
X143775000Y-99297440D01*
X144010317Y-99253162D01*
X144226441Y-99114090D01*
X144371431Y-98901890D01*
X144422440Y-98650000D01*
X144422440Y-98573690D01*
X145815000Y-98573690D01*
X145815000Y-98914250D01*
X145973750Y-99073000D01*
X146773000Y-99073000D01*
X146773000Y-98223750D01*
X146614250Y-98065000D01*
X146323691Y-98065000D01*
X146090302Y-98161673D01*
X145911673Y-98340301D01*
X145815000Y-98573690D01*
X144422440Y-98573690D01*
X144422440Y-97750000D01*
X144378162Y-97514683D01*
X144239090Y-97298559D01*
X144026890Y-97153569D01*
X143775000Y-97102560D01*
X143002362Y-97102560D01*
X142817383Y-96917581D01*
X142896431Y-96801890D01*
X142947440Y-96550000D01*
X142947440Y-95650000D01*
X142903162Y-95414683D01*
X142884545Y-95385750D01*
X145815000Y-95385750D01*
X145815000Y-95726310D01*
X145911673Y-95959699D01*
X146090302Y-96138327D01*
X146323691Y-96235000D01*
X146614250Y-96235000D01*
X146773000Y-96076250D01*
X146773000Y-95227000D01*
X145973750Y-95227000D01*
X145815000Y-95385750D01*
X142884545Y-95385750D01*
X142764090Y-95198559D01*
X142762452Y-95197440D01*
X143250000Y-95197440D01*
X143485317Y-95153162D01*
X143701441Y-95014090D01*
X143806726Y-94860000D01*
X145860750Y-94860000D01*
X145973750Y-94973000D01*
X146773000Y-94973000D01*
X146773000Y-94953000D01*
X147027000Y-94953000D01*
X147027000Y-94973000D01*
X147047000Y-94973000D01*
X147047000Y-95227000D01*
X147027000Y-95227000D01*
X147027000Y-96076250D01*
X147185750Y-96235000D01*
X147476309Y-96235000D01*
X147709698Y-96138327D01*
X147711068Y-96136957D01*
X147798110Y-96196431D01*
X148050000Y-96247440D01*
X148440000Y-96247440D01*
X148440000Y-97435197D01*
X147962599Y-97912599D01*
X147843063Y-98091498D01*
X147814683Y-98096838D01*
X147711354Y-98163329D01*
X147709698Y-98161673D01*
X147476309Y-98065000D01*
X147185750Y-98065000D01*
X147027000Y-98223750D01*
X147027000Y-99073000D01*
X147047000Y-99073000D01*
X147047000Y-99327000D01*
X147027000Y-99327000D01*
X147027000Y-100176250D01*
X147185750Y-100335000D01*
X147476309Y-100335000D01*
X147709698Y-100238327D01*
X147711068Y-100236957D01*
X147798110Y-100296431D01*
X148050000Y-100347440D01*
X148490347Y-100347440D01*
X148478122Y-100376881D01*
X148477798Y-100748847D01*
X148603289Y-101052560D01*
X148300000Y-101052560D01*
X148064683Y-101096838D01*
X147986528Y-101147129D01*
X147893117Y-100921057D01*
X147630327Y-100657808D01*
X147286799Y-100515162D01*
X146914833Y-100514838D01*
X146571057Y-100656883D01*
X146307808Y-100919673D01*
X146165162Y-101263201D01*
X146165079Y-101358087D01*
X146103569Y-101448110D01*
X146052560Y-101700000D01*
X146052560Y-102500000D01*
X146096838Y-102735317D01*
X146235910Y-102951441D01*
X146448110Y-103096431D01*
X146700000Y-103147440D01*
X147500000Y-103147440D01*
X147735317Y-103103162D01*
X147901477Y-102996241D01*
X148048110Y-103096431D01*
X148300000Y-103147440D01*
X149100000Y-103147440D01*
X149335317Y-103103162D01*
X149551441Y-102964090D01*
X149622563Y-102860000D01*
X149738352Y-102860000D01*
X149878941Y-102918378D01*
X150250907Y-102918702D01*
X150594683Y-102776657D01*
X150857932Y-102513867D01*
X151000578Y-102170339D01*
X151000663Y-102072980D01*
X151828933Y-102072980D01*
X151857810Y-102092711D01*
X152109700Y-102143720D01*
X153309700Y-102143720D01*
X153545017Y-102099442D01*
X153761141Y-101960370D01*
X153807669Y-101892274D01*
X153950002Y-102034607D01*
X154183391Y-102131280D01*
X154623950Y-102131280D01*
X154782700Y-101972530D01*
X154782700Y-101173280D01*
X155036700Y-101173280D01*
X155036700Y-101972530D01*
X155195450Y-102131280D01*
X155636009Y-102131280D01*
X155869398Y-102034607D01*
X156048027Y-101855979D01*
X156144700Y-101622590D01*
X156144700Y-101332030D01*
X155985950Y-101173280D01*
X155036700Y-101173280D01*
X154782700Y-101173280D01*
X154762700Y-101173280D01*
X154762700Y-100919280D01*
X154782700Y-100919280D01*
X154782700Y-100120030D01*
X154760020Y-100097350D01*
X154760020Y-99311460D01*
X155014020Y-99311460D01*
X155014020Y-100110710D01*
X155036700Y-100133390D01*
X155036700Y-100919280D01*
X155985950Y-100919280D01*
X156144700Y-100760530D01*
X156144700Y-100469970D01*
X156048027Y-100236581D01*
X155915475Y-100104030D01*
X156025347Y-99994159D01*
X156122020Y-99760770D01*
X156122020Y-99470210D01*
X155963270Y-99311460D01*
X155014020Y-99311460D01*
X154760020Y-99311460D01*
X154740020Y-99311460D01*
X154740020Y-99057460D01*
X154760020Y-99057460D01*
X154760020Y-98258210D01*
X155014020Y-98258210D01*
X155014020Y-99057460D01*
X155963270Y-99057460D01*
X156122020Y-98898710D01*
X156122020Y-98608150D01*
X156025347Y-98374761D01*
X155846718Y-98196133D01*
X155613329Y-98099460D01*
X155172770Y-98099460D01*
X155014020Y-98258210D01*
X154760020Y-98258210D01*
X154601270Y-98099460D01*
X154160711Y-98099460D01*
X153927322Y-98196133D01*
X153786084Y-98337370D01*
X153751110Y-98283019D01*
X153538910Y-98138029D01*
X153287020Y-98087020D01*
X152087020Y-98087020D01*
X151851703Y-98131298D01*
X151635579Y-98270370D01*
X151491379Y-98481413D01*
X151486861Y-98482312D01*
X151451011Y-98506266D01*
X151451011Y-97275022D01*
X159254584Y-97275022D01*
X159475353Y-97645743D01*
X160110243Y-97902778D01*
X159952799Y-98345171D01*
X159980770Y-98895448D01*
X160137540Y-99273923D01*
X160378483Y-99341912D01*
X161170395Y-98550000D01*
X161156253Y-98535858D01*
X161335858Y-98356253D01*
X161350000Y-98370395D01*
X161364143Y-98356253D01*
X161543748Y-98535858D01*
X161529605Y-98550000D01*
X162321517Y-99341912D01*
X162562460Y-99273923D01*
X162643370Y-99046578D01*
X162737540Y-99273923D01*
X162978483Y-99341912D01*
X163770395Y-98550000D01*
X164129605Y-98550000D01*
X164921517Y-99341912D01*
X165162460Y-99273923D01*
X165347201Y-98754829D01*
X165319230Y-98204552D01*
X165162460Y-97826077D01*
X164921517Y-97758088D01*
X164129605Y-98550000D01*
X163770395Y-98550000D01*
X162978483Y-97758088D01*
X162737540Y-97826077D01*
X162656630Y-98053422D01*
X162562460Y-97826077D01*
X162321519Y-97758089D01*
X162436574Y-97643034D01*
X162430110Y-97636570D01*
X162464701Y-97578483D01*
X163158088Y-97578483D01*
X163950000Y-98370395D01*
X164741912Y-97578483D01*
X164673923Y-97337540D01*
X164498257Y-97275022D01*
X164954584Y-97275022D01*
X165175353Y-97645743D01*
X166147012Y-98039119D01*
X167195247Y-98030713D01*
X168124647Y-97645743D01*
X168345416Y-97275022D01*
X166650000Y-95579605D01*
X164954584Y-97275022D01*
X164498257Y-97275022D01*
X164154829Y-97152799D01*
X163604552Y-97180770D01*
X163226077Y-97337540D01*
X163158088Y-97578483D01*
X162464701Y-97578483D01*
X162645416Y-97275022D01*
X160950000Y-95579605D01*
X159254584Y-97275022D01*
X151451011Y-97275022D01*
X151451011Y-95119598D01*
X151430024Y-95014090D01*
X151406736Y-94897012D01*
X158310881Y-94897012D01*
X158319287Y-95945247D01*
X158704257Y-96874647D01*
X159074978Y-97095416D01*
X160770395Y-95400000D01*
X161129605Y-95400000D01*
X162825022Y-97095416D01*
X163195743Y-96874647D01*
X163589119Y-95902988D01*
X163581052Y-94897012D01*
X164010881Y-94897012D01*
X164019287Y-95945247D01*
X164404257Y-96874647D01*
X164774978Y-97095416D01*
X166470395Y-95400000D01*
X166829605Y-95400000D01*
X168525022Y-97095416D01*
X168895743Y-96874647D01*
X169289119Y-95902988D01*
X169280713Y-94854753D01*
X168895743Y-93925353D01*
X168525022Y-93704584D01*
X166829605Y-95400000D01*
X166470395Y-95400000D01*
X164774978Y-93704584D01*
X164404257Y-93925353D01*
X164010881Y-94897012D01*
X163581052Y-94897012D01*
X163580713Y-94854753D01*
X163195743Y-93925353D01*
X162825022Y-93704584D01*
X161129605Y-95400000D01*
X160770395Y-95400000D01*
X159074978Y-93704584D01*
X158704257Y-93925353D01*
X158310881Y-94897012D01*
X151406736Y-94897012D01*
X151393159Y-94828758D01*
X151228412Y-94582197D01*
X142781560Y-86135345D01*
X142781560Y-82741560D01*
X142723708Y-82450721D01*
X142558961Y-82204159D01*
X141201771Y-80846969D01*
X141265000Y-80529093D01*
X141265000Y-80470907D01*
X141151961Y-79902622D01*
X141140186Y-79884999D01*
X144449323Y-79884999D01*
X143945194Y-80388249D01*
X143390632Y-81723782D01*
X143389370Y-83169874D01*
X143941600Y-84506372D01*
X144963249Y-85529806D01*
X146298782Y-86084368D01*
X147744874Y-86085630D01*
X149081372Y-85533400D01*
X150104806Y-84511751D01*
X150659368Y-83176218D01*
X150660630Y-81730126D01*
X150382712Y-81057514D01*
X151302560Y-81977362D01*
X151302560Y-82450000D01*
X151346838Y-82685317D01*
X151485910Y-82901441D01*
X151698110Y-83046431D01*
X151950000Y-83097440D01*
X152522638Y-83097440D01*
X152640000Y-83214802D01*
X152640000Y-85552560D01*
X149400000Y-85552560D01*
X149164683Y-85596838D01*
X148948559Y-85735910D01*
X148803569Y-85948110D01*
X148752560Y-86200000D01*
X148752560Y-91200000D01*
X148796838Y-91435317D01*
X148935910Y-91651441D01*
X149148110Y-91796431D01*
X149400000Y-91847440D01*
X157400000Y-91847440D01*
X157635317Y-91803162D01*
X157851441Y-91664090D01*
X157958000Y-91508136D01*
X157958000Y-92109000D01*
X158012046Y-92380705D01*
X158165954Y-92611046D01*
X158396295Y-92764954D01*
X158668000Y-92819000D01*
X160284735Y-92819000D01*
X159475353Y-93154257D01*
X159254584Y-93524978D01*
X160950000Y-95220395D01*
X162645416Y-93524978D01*
X162424647Y-93154257D01*
X161596545Y-92819000D01*
X165984735Y-92819000D01*
X165175353Y-93154257D01*
X164954584Y-93524978D01*
X166650000Y-95220395D01*
X168345416Y-93524978D01*
X168124647Y-93154257D01*
X167296545Y-92819000D01*
X174958000Y-92819000D01*
X174958000Y-110999000D01*
X167996073Y-110999000D01*
X168124647Y-110945743D01*
X168345416Y-110575022D01*
X166650000Y-108879605D01*
X164954584Y-110575022D01*
X165175353Y-110945743D01*
X165306901Y-110999000D01*
X162296073Y-110999000D01*
X162424647Y-110945743D01*
X162645416Y-110575022D01*
X160950000Y-108879605D01*
X160935858Y-108893748D01*
X160756252Y-108714142D01*
X160770395Y-108700000D01*
X161129605Y-108700000D01*
X162825022Y-110395416D01*
X163195743Y-110174647D01*
X163589119Y-109202988D01*
X163581052Y-108197012D01*
X164010881Y-108197012D01*
X164019287Y-109245247D01*
X164404257Y-110174647D01*
X164774978Y-110395416D01*
X166470395Y-108700000D01*
X166829605Y-108700000D01*
X168525022Y-110395416D01*
X168895743Y-110174647D01*
X169289119Y-109202988D01*
X169280713Y-108154753D01*
X168895743Y-107225353D01*
X168525022Y-107004584D01*
X166829605Y-108700000D01*
X166470395Y-108700000D01*
X164774978Y-107004584D01*
X164404257Y-107225353D01*
X164010881Y-108197012D01*
X163581052Y-108197012D01*
X163580713Y-108154753D01*
X163195743Y-107225353D01*
X162825022Y-107004584D01*
X161129605Y-108700000D01*
X160770395Y-108700000D01*
X160756252Y-108685858D01*
X160935858Y-108506252D01*
X160950000Y-108520395D01*
X162645416Y-106824978D01*
X162424647Y-106454257D01*
X162410357Y-106448472D01*
X162473939Y-106385000D01*
X162826564Y-106385000D01*
X163164436Y-106723461D01*
X163673298Y-106934759D01*
X164224285Y-106935240D01*
X164491140Y-106824978D01*
X164954584Y-106824978D01*
X166650000Y-108520395D01*
X168345416Y-106824978D01*
X168124647Y-106454257D01*
X167152988Y-106060881D01*
X166104753Y-106069287D01*
X165175353Y-106454257D01*
X164954584Y-106824978D01*
X164491140Y-106824978D01*
X164733515Y-106724831D01*
X165123461Y-106335564D01*
X165334759Y-105826702D01*
X165335240Y-105275715D01*
X165124831Y-104766485D01*
X164735564Y-104376539D01*
X164551414Y-104300073D01*
X164733515Y-104224831D01*
X165123461Y-103835564D01*
X165334759Y-103326702D01*
X165335240Y-102775715D01*
X165124831Y-102266485D01*
X164908687Y-102049964D01*
X165123461Y-101835564D01*
X165334759Y-101326702D01*
X165335240Y-100775715D01*
X165124831Y-100266485D01*
X164735564Y-99876539D01*
X164567246Y-99806647D01*
X164673923Y-99762460D01*
X164741912Y-99521517D01*
X163950000Y-98729605D01*
X163158088Y-99521517D01*
X163226077Y-99762460D01*
X163340611Y-99803222D01*
X163166485Y-99875169D01*
X162776539Y-100264436D01*
X162649950Y-100569297D01*
X162524831Y-100266485D01*
X162135564Y-99876539D01*
X161967246Y-99806647D01*
X162073923Y-99762460D01*
X162141912Y-99521517D01*
X161350000Y-98729605D01*
X160558088Y-99521517D01*
X160626077Y-99762460D01*
X160740611Y-99803222D01*
X160566485Y-99875169D01*
X160176539Y-100264436D01*
X159965241Y-100773298D01*
X159964760Y-101324285D01*
X160175169Y-101833515D01*
X160391313Y-102050036D01*
X160176539Y-102264436D01*
X159965241Y-102773298D01*
X159964760Y-103324285D01*
X160175169Y-103833515D01*
X160564436Y-104223461D01*
X160748586Y-104299927D01*
X160566485Y-104375169D01*
X160526585Y-104415000D01*
X160103998Y-104415000D01*
X159669653Y-104501396D01*
X159301432Y-104747434D01*
X157022874Y-107025992D01*
X156776837Y-107394212D01*
X156690440Y-107828558D01*
X156690440Y-109621320D01*
X156776837Y-110055666D01*
X156999004Y-110388162D01*
X157022874Y-110423886D01*
X157114999Y-110516011D01*
X157114999Y-115190929D01*
X155714959Y-116590969D01*
X152127441Y-116590969D01*
X151983905Y-116447433D01*
X151804498Y-116327557D01*
X151615685Y-116201396D01*
X151181339Y-116114999D01*
X144920131Y-116114999D01*
X140954821Y-112149689D01*
X141276806Y-112016647D01*
X141413478Y-111880213D01*
X142299392Y-111880213D01*
X142368857Y-112122397D01*
X142892302Y-112309144D01*
X143447368Y-112281362D01*
X143831143Y-112122397D01*
X143900608Y-111880213D01*
X143100000Y-111079605D01*
X142299392Y-111880213D01*
X141413478Y-111880213D01*
X141596365Y-111697645D01*
X141750948Y-111325370D01*
X141877603Y-111631143D01*
X142119787Y-111700608D01*
X142920395Y-110900000D01*
X143279605Y-110900000D01*
X144080213Y-111700608D01*
X144322397Y-111631143D01*
X144509144Y-111107698D01*
X144481362Y-110552632D01*
X144322397Y-110168857D01*
X144080213Y-110099392D01*
X143279605Y-110900000D01*
X142920395Y-110900000D01*
X142119787Y-110099392D01*
X141877603Y-110168857D01*
X141701298Y-110663034D01*
X141597487Y-110411794D01*
X141516521Y-110330687D01*
X141461815Y-110055666D01*
X141452353Y-110008099D01*
X141393346Y-109919787D01*
X142299392Y-109919787D01*
X143100000Y-110720395D01*
X143900608Y-109919787D01*
X143831143Y-109677603D01*
X143307698Y-109490856D01*
X142752632Y-109518638D01*
X142368857Y-109677603D01*
X142299392Y-109919787D01*
X141393346Y-109919787D01*
X141260510Y-109720984D01*
X141260507Y-109720982D01*
X139784900Y-108245374D01*
X139784900Y-105575533D01*
X140028821Y-105676818D01*
X140075697Y-105676859D01*
X141303819Y-106904981D01*
X141550381Y-107069728D01*
X141841220Y-107127580D01*
X147358100Y-107127580D01*
X147648939Y-107069728D01*
X147846668Y-106937610D01*
X146871499Y-107912779D01*
X146706752Y-108159341D01*
X146648900Y-108450180D01*
X146648900Y-108855657D01*
X146616708Y-108887793D01*
X146474062Y-109231321D01*
X146473738Y-109603287D01*
X146615783Y-109947063D01*
X146878573Y-110210312D01*
X147222101Y-110352958D01*
X147268977Y-110352999D01*
X149601153Y-112685175D01*
X149847715Y-112849922D01*
X150138554Y-112907774D01*
X151228545Y-112907774D01*
X151228545Y-113243829D01*
X151286397Y-113534668D01*
X151451144Y-113781230D01*
X151957315Y-114287401D01*
X152203877Y-114452148D01*
X152494716Y-114510000D01*
X153256380Y-114510000D01*
X153273110Y-114521431D01*
X153525000Y-114572440D01*
X153664552Y-114572440D01*
X153664478Y-114657887D01*
X153806523Y-115001663D01*
X154069313Y-115264912D01*
X154412841Y-115407558D01*
X154784807Y-115407882D01*
X155128583Y-115265837D01*
X155161758Y-115232720D01*
X155652280Y-115232720D01*
X155943119Y-115174868D01*
X156189681Y-115010121D01*
X156487401Y-114712401D01*
X156652148Y-114465839D01*
X156658750Y-114432648D01*
X156726441Y-114389090D01*
X156871431Y-114176890D01*
X156922440Y-113925000D01*
X156922440Y-113575000D01*
X156896081Y-113434914D01*
X156910000Y-113401310D01*
X156910000Y-113346250D01*
X156832550Y-113268800D01*
X156739090Y-113123559D01*
X156700698Y-113097327D01*
X156813327Y-112984699D01*
X156837564Y-112926186D01*
X156910000Y-112853750D01*
X156910000Y-112798690D01*
X156900187Y-112775000D01*
X156910000Y-112751310D01*
X156910000Y-112696250D01*
X156837564Y-112623814D01*
X156813327Y-112565301D01*
X156634698Y-112386673D01*
X156576339Y-112362500D01*
X156751250Y-112362500D01*
X156910000Y-112203750D01*
X156910000Y-112148690D01*
X156813327Y-111915301D01*
X156634698Y-111736673D01*
X156401309Y-111640000D01*
X156235750Y-111640000D01*
X156077000Y-111798750D01*
X156077000Y-112290000D01*
X156045558Y-112290000D01*
X156003162Y-112064683D01*
X155864090Y-111848559D01*
X155823000Y-111820483D01*
X155823000Y-111798750D01*
X155664250Y-111640000D01*
X155498691Y-111640000D01*
X155445919Y-111661859D01*
X155400000Y-111652560D01*
X154400000Y-111652560D01*
X154347363Y-111662464D01*
X154175000Y-111627560D01*
X153821775Y-111627560D01*
X153576759Y-111382116D01*
X153233231Y-111239470D01*
X152861265Y-111239146D01*
X152536567Y-111373308D01*
X152518872Y-111355582D01*
X152175344Y-111212936D01*
X151803378Y-111212612D01*
X151459602Y-111354657D01*
X151426427Y-111387774D01*
X150453356Y-111387774D01*
X148344022Y-109278440D01*
X148344062Y-109232953D01*
X148202017Y-108889177D01*
X148168900Y-108856002D01*
X148168900Y-108764982D01*
X149465880Y-107468002D01*
X149511367Y-107468042D01*
X149855143Y-107325997D01*
X150118392Y-107063207D01*
X150261038Y-106719679D01*
X150261169Y-106568780D01*
X151355298Y-106568780D01*
X151840799Y-107054281D01*
X152087361Y-107219028D01*
X152378200Y-107276880D01*
X152565737Y-107276880D01*
X152597873Y-107309072D01*
X152941401Y-107451718D01*
X153313367Y-107452042D01*
X153657143Y-107309997D01*
X153920392Y-107047207D01*
X154063038Y-106703679D01*
X154063362Y-106331713D01*
X153921317Y-105987937D01*
X153658527Y-105724688D01*
X153382329Y-105610000D01*
X154186518Y-105610000D01*
X154784191Y-106207673D01*
X154733362Y-106330081D01*
X154733038Y-106702047D01*
X154875083Y-107045823D01*
X155137873Y-107309072D01*
X155481401Y-107451718D01*
X155853367Y-107452042D01*
X156197143Y-107309997D01*
X156460392Y-107047207D01*
X156603038Y-106703679D01*
X156603362Y-106331713D01*
X156461317Y-105987937D01*
X156412769Y-105939304D01*
X156370348Y-105726041D01*
X156205601Y-105479479D01*
X155038721Y-104312599D01*
X154792159Y-104147852D01*
X154501320Y-104090000D01*
X151371542Y-104090000D01*
X151371742Y-103860853D01*
X151229697Y-103517077D01*
X150966907Y-103253828D01*
X150623379Y-103111182D01*
X150251413Y-103110858D01*
X149907637Y-103252903D01*
X149874462Y-103286020D01*
X144272440Y-103286020D01*
X144272440Y-102400000D01*
X144228162Y-102164683D01*
X144089090Y-101948559D01*
X143985000Y-101877437D01*
X143985000Y-101596192D01*
X144151441Y-101489090D01*
X144296431Y-101276890D01*
X144347440Y-101025000D01*
X144347440Y-100275000D01*
X144303162Y-100039683D01*
X144164090Y-99823559D01*
X143951890Y-99678569D01*
X143700000Y-99627560D01*
X142500000Y-99627560D01*
X142264683Y-99671838D01*
X142161354Y-99738329D01*
X142159698Y-99736673D01*
X141926309Y-99640000D01*
X141485750Y-99640000D01*
X141327000Y-99798750D01*
X141327000Y-100523000D01*
X141347000Y-100523000D01*
X141347000Y-100777000D01*
X141327000Y-100777000D01*
X141327000Y-101501250D01*
X141485750Y-101660000D01*
X141926309Y-101660000D01*
X142159698Y-101563327D01*
X142161068Y-101561957D01*
X142248110Y-101621431D01*
X142465000Y-101665352D01*
X142465000Y-101877069D01*
X142373559Y-101935910D01*
X142278010Y-102075750D01*
X142263327Y-102040302D01*
X142084699Y-101861673D01*
X141851310Y-101765000D01*
X141610750Y-101765000D01*
X141452000Y-101923750D01*
X141452000Y-102723000D01*
X141472000Y-102723000D01*
X141472000Y-102977000D01*
X141452000Y-102977000D01*
X141452000Y-102997000D01*
X141198000Y-102997000D01*
X141198000Y-102977000D01*
X140448750Y-102977000D01*
X140290000Y-103135750D01*
X140290000Y-103426309D01*
X140306820Y-103466917D01*
X140257959Y-103515693D01*
X140137034Y-103806911D01*
X140030453Y-103806818D01*
X139784900Y-103908278D01*
X139784900Y-102273691D01*
X140290000Y-102273691D01*
X140290000Y-102564250D01*
X140448750Y-102723000D01*
X141198000Y-102723000D01*
X141198000Y-101923750D01*
X141039250Y-101765000D01*
X140798690Y-101765000D01*
X140565301Y-101861673D01*
X140386673Y-102040302D01*
X140290000Y-102273691D01*
X139784900Y-102273691D01*
X139784900Y-101706685D01*
X139784901Y-101706680D01*
X139717533Y-101368006D01*
X139717533Y-101368005D01*
X139525690Y-101080890D01*
X139525687Y-101080888D01*
X139380549Y-100935750D01*
X139965000Y-100935750D01*
X139965000Y-101151310D01*
X140061673Y-101384699D01*
X140240302Y-101563327D01*
X140473691Y-101660000D01*
X140914250Y-101660000D01*
X141073000Y-101501250D01*
X141073000Y-100777000D01*
X140123750Y-100777000D01*
X139965000Y-100935750D01*
X139380549Y-100935750D01*
X138927000Y-100482201D01*
X138927000Y-100148690D01*
X139965000Y-100148690D01*
X139965000Y-100364250D01*
X140123750Y-100523000D01*
X141073000Y-100523000D01*
X141073000Y-99798750D01*
X140914250Y-99640000D01*
X140473691Y-99640000D01*
X140240302Y-99736673D01*
X140061673Y-99915301D01*
X139965000Y-100148690D01*
X138927000Y-100148690D01*
X138927000Y-99485750D01*
X145815000Y-99485750D01*
X145815000Y-99826310D01*
X145911673Y-100059699D01*
X146090302Y-100238327D01*
X146323691Y-100335000D01*
X146614250Y-100335000D01*
X146773000Y-100176250D01*
X146773000Y-99327000D01*
X145973750Y-99327000D01*
X145815000Y-99485750D01*
X138927000Y-99485750D01*
X138927000Y-88000000D01*
X138918315Y-87953841D01*
X138891035Y-87911447D01*
X138849410Y-87883006D01*
X138800000Y-87873000D01*
X130800000Y-87873000D01*
X130753841Y-87881685D01*
X130711447Y-87908965D01*
X130683006Y-87950590D01*
X130673000Y-88000000D01*
X130673000Y-89383449D01*
X130586894Y-89175057D01*
X130127363Y-88714722D01*
X129526648Y-88465284D01*
X128876205Y-88464716D01*
X128275057Y-88713106D01*
X127814722Y-89172637D01*
X127565284Y-89773352D01*
X127564716Y-90423795D01*
X127813106Y-91024943D01*
X128272637Y-91485278D01*
X128873352Y-91734716D01*
X129523795Y-91735284D01*
X130124943Y-91486894D01*
X130585278Y-91027363D01*
X130673000Y-90816104D01*
X130673000Y-96783449D01*
X130586894Y-96575057D01*
X130127363Y-96114722D01*
X129526648Y-95865284D01*
X128876205Y-95864716D01*
X128275057Y-96113106D01*
X127814722Y-96572637D01*
X127565284Y-97173352D01*
X127564716Y-97823795D01*
X127813106Y-98424943D01*
X128272637Y-98885278D01*
X128873352Y-99134716D01*
X129523795Y-99135284D01*
X130124943Y-98886894D01*
X130585278Y-98427363D01*
X130673000Y-98216104D01*
X130673000Y-102496080D01*
X128253000Y-102496080D01*
X128253000Y-102273000D01*
X128273000Y-102273000D01*
X128273000Y-101473750D01*
X128527000Y-101473750D01*
X128527000Y-102273000D01*
X129476250Y-102273000D01*
X129635000Y-102114250D01*
X129635000Y-101823690D01*
X129538327Y-101590301D01*
X129359698Y-101411673D01*
X129126309Y-101315000D01*
X128685750Y-101315000D01*
X128527000Y-101473750D01*
X128273000Y-101473750D01*
X128114250Y-101315000D01*
X127673691Y-101315000D01*
X127440302Y-101411673D01*
X127299064Y-101552910D01*
X127264090Y-101498559D01*
X127051890Y-101353569D01*
X126800000Y-101302560D01*
X125600000Y-101302560D01*
X125364683Y-101346838D01*
X125148559Y-101485910D01*
X125009110Y-101690000D01*
X124785103Y-101690000D01*
X124783162Y-101679683D01*
X124644090Y-101463559D01*
X124431890Y-101318569D01*
X124180000Y-101267560D01*
X122020000Y-101267560D01*
X121784683Y-101311838D01*
X121568559Y-101450910D01*
X121423569Y-101663110D01*
X121372560Y-101915000D01*
X121372560Y-102152756D01*
X120454352Y-101234548D01*
X123083394Y-101234240D01*
X123317227Y-101189590D01*
X123528477Y-101052075D01*
X123669584Y-100843207D01*
X123718311Y-100595897D01*
X123683899Y-94060000D01*
X126156691Y-94060000D01*
X126272923Y-94341303D01*
X126535713Y-94604552D01*
X126879241Y-94747198D01*
X127251207Y-94747522D01*
X127594983Y-94605477D01*
X127858232Y-94342687D01*
X128000878Y-93999159D01*
X128001202Y-93627193D01*
X127859157Y-93283417D01*
X127596367Y-93020168D01*
X127252839Y-92877522D01*
X127205963Y-92877481D01*
X127091081Y-92762599D01*
X126844519Y-92597852D01*
X126553680Y-92540000D01*
X123675897Y-92540000D01*
X123642111Y-86122977D01*
X123598538Y-85895128D01*
X123526493Y-85783331D01*
X124131372Y-85533400D01*
X125154806Y-84511751D01*
X125709368Y-83176218D01*
X125710338Y-82063691D01*
X128135000Y-82063691D01*
X128135000Y-82754250D01*
X128293750Y-82913000D01*
X129493000Y-82913000D01*
X129493000Y-80627000D01*
X128299181Y-80627000D01*
X128178514Y-80856892D01*
X128424817Y-81381358D01*
X128624208Y-81563070D01*
X128410301Y-81651673D01*
X128231673Y-81830302D01*
X128135000Y-82063691D01*
X125710338Y-82063691D01*
X125710630Y-81730126D01*
X125158400Y-80393628D01*
X124908317Y-80143108D01*
X128178514Y-80143108D01*
X128299181Y-80373000D01*
X129493000Y-80373000D01*
X129493000Y-79179845D01*
X129263110Y-79058524D01*
X128853076Y-79228355D01*
X128424817Y-79618642D01*
X128178514Y-80143108D01*
X124908317Y-80143108D01*
X124136751Y-79370194D01*
X122801218Y-78815632D01*
X121355126Y-78814370D01*
X120018628Y-79366600D01*
X118995194Y-80388249D01*
X118440632Y-81723782D01*
X118439370Y-83169874D01*
X118991600Y-84506372D01*
X119976855Y-85493349D01*
X111627495Y-85498940D01*
X111398267Y-85541923D01*
X111186032Y-85677913D01*
X111043427Y-85885761D01*
X110992921Y-86132714D01*
X110971126Y-97425409D01*
X110395463Y-96032199D01*
X109303549Y-94938377D01*
X107876165Y-94345676D01*
X106330616Y-94344327D01*
X104902199Y-94934537D01*
X103808377Y-96026451D01*
X103215676Y-97453835D01*
X103214327Y-98999384D01*
X103804537Y-100427801D01*
X104896451Y-101521623D01*
X106309158Y-102108229D01*
X104923104Y-102670689D01*
X104875658Y-102702392D01*
X104502627Y-103203022D01*
X107100000Y-105800395D01*
X109697373Y-103203022D01*
X109324342Y-102702392D01*
X107903191Y-102101704D01*
X109297801Y-101525463D01*
X110391623Y-100433549D01*
X110967999Y-99045480D01*
X110965001Y-100598774D01*
X111008427Y-100830795D01*
X111144827Y-101042767D01*
X111352949Y-101184971D01*
X111600000Y-101235000D01*
X111906975Y-101235000D01*
X111766673Y-101375301D01*
X111670000Y-101608690D01*
X111670000Y-105614250D01*
X111828750Y-105773000D01*
X115673000Y-105773000D01*
X115673000Y-105753000D01*
X115927000Y-105753000D01*
X115927000Y-105773000D01*
X119771250Y-105773000D01*
X119930000Y-105614250D01*
X119930000Y-102859800D01*
X120440000Y-103369800D01*
X120440000Y-108837537D01*
X120407808Y-108869673D01*
X120265162Y-109213201D01*
X120264838Y-109585167D01*
X120406883Y-109928943D01*
X120669673Y-110192192D01*
X121013201Y-110334838D01*
X121385167Y-110335162D01*
X121581603Y-110253996D01*
X121768110Y-110381431D01*
X122020000Y-110432440D01*
X122677308Y-110432440D01*
X122940443Y-110695575D01*
X122671057Y-110806883D01*
X122407808Y-111069673D01*
X122265162Y-111413201D01*
X122264838Y-111785167D01*
X122406883Y-112128943D01*
X122669673Y-112392192D01*
X123013201Y-112534838D01*
X123060077Y-112534879D01*
X124162599Y-113637401D01*
X124409160Y-113802148D01*
X124700000Y-113860000D01*
X125285198Y-113860000D01*
X128840000Y-117414802D01*
X128840000Y-117874196D01*
X125340543Y-114374739D01*
X125093981Y-114209992D01*
X124803142Y-114152140D01*
X124288403Y-114152140D01*
X124256267Y-114119948D01*
X123912739Y-113977302D01*
X123540773Y-113976978D01*
X123196997Y-114119023D01*
X123193359Y-114122655D01*
X123143117Y-114001059D01*
X122880327Y-113737810D01*
X122536799Y-113595164D01*
X122164833Y-113594840D01*
X121821057Y-113736885D01*
X121787882Y-113770002D01*
X118294804Y-113770002D01*
X116985122Y-112460320D01*
X116985162Y-112414833D01*
X116843117Y-112071057D01*
X116580327Y-111807808D01*
X116236799Y-111665162D01*
X115864833Y-111664838D01*
X115521057Y-111806883D01*
X115257808Y-112069673D01*
X115115162Y-112413201D01*
X115114838Y-112785167D01*
X115256883Y-113128943D01*
X115519673Y-113392192D01*
X115863201Y-113534838D01*
X115910077Y-113534879D01*
X117442601Y-115067403D01*
X117689163Y-115232150D01*
X117980002Y-115290002D01*
X121787537Y-115290002D01*
X121819673Y-115322194D01*
X122163201Y-115464840D01*
X122535167Y-115465164D01*
X122878943Y-115323119D01*
X122882581Y-115319487D01*
X122932823Y-115441083D01*
X123195613Y-115704332D01*
X123539141Y-115846978D01*
X123911107Y-115847302D01*
X124254883Y-115705257D01*
X124288058Y-115672140D01*
X124488340Y-115672140D01*
X127498634Y-118682434D01*
X127490102Y-118702981D01*
X127489778Y-119074947D01*
X127631823Y-119418723D01*
X127882998Y-119670337D01*
X127882998Y-119683748D01*
X127724250Y-119525000D01*
X127433690Y-119525000D01*
X127200301Y-119621673D01*
X127021673Y-119800302D01*
X126925000Y-120033691D01*
X126925000Y-120474250D01*
X127083750Y-120633000D01*
X127883000Y-120633000D01*
X127883000Y-120613000D01*
X128137000Y-120613000D01*
X128137000Y-120633000D01*
X128936250Y-120633000D01*
X129095000Y-120474250D01*
X129095000Y-120033691D01*
X128998327Y-119800302D01*
X128902255Y-119704229D01*
X128953883Y-119682897D01*
X129007232Y-119629641D01*
X129069673Y-119692192D01*
X129413201Y-119834838D01*
X129577560Y-119834981D01*
X129577560Y-120350000D01*
X129621838Y-120585317D01*
X129750226Y-120784837D01*
X129748559Y-120785910D01*
X129603569Y-120998110D01*
X129552560Y-121250000D01*
X129552560Y-121850000D01*
X129596838Y-122085317D01*
X129670634Y-122200000D01*
X129077334Y-122200000D01*
X129063162Y-122124683D01*
X128924090Y-121908559D01*
X128855994Y-121862031D01*
X128998327Y-121719698D01*
X129095000Y-121486309D01*
X129095000Y-121045750D01*
X128936250Y-120887000D01*
X128137000Y-120887000D01*
X128137000Y-120907000D01*
X127883000Y-120907000D01*
X127883000Y-120887000D01*
X127083750Y-120887000D01*
X126925000Y-121045750D01*
X126925000Y-121486309D01*
X127021673Y-121719698D01*
X127162910Y-121860936D01*
X127108559Y-121895910D01*
X126963569Y-122108110D01*
X126912560Y-122360000D01*
X126912560Y-123560000D01*
X126956838Y-123795317D01*
X127095910Y-124011441D01*
X127308110Y-124156431D01*
X127560000Y-124207440D01*
X128460000Y-124207440D01*
X128695317Y-124163162D01*
X128911441Y-124024090D01*
X129056431Y-123811890D01*
X129075039Y-123720000D01*
X129584548Y-123720000D01*
X129596838Y-123785317D01*
X129735910Y-124001441D01*
X129948110Y-124146431D01*
X130200000Y-124197440D01*
X131000000Y-124197440D01*
X131235317Y-124153162D01*
X131451441Y-124014090D01*
X131596431Y-123801890D01*
X131647440Y-123550000D01*
X131647440Y-122950000D01*
X131603162Y-122714683D01*
X131464090Y-122498559D01*
X131318917Y-122399367D01*
X131451441Y-122314090D01*
X131596431Y-122101890D01*
X131647440Y-121850000D01*
X131647440Y-121250000D01*
X131603162Y-121014683D01*
X131464090Y-120798559D01*
X131445658Y-120785965D01*
X131571431Y-120601890D01*
X131590039Y-120510000D01*
X132232560Y-120510000D01*
X132232560Y-120950000D01*
X132276838Y-121185317D01*
X132415910Y-121401441D01*
X132486612Y-121449750D01*
X132453569Y-121498110D01*
X132402560Y-121750000D01*
X132402560Y-123250000D01*
X132446838Y-123485317D01*
X132585910Y-123701441D01*
X132798110Y-123846431D01*
X133050000Y-123897440D01*
X135050000Y-123897440D01*
X135285317Y-123853162D01*
X135312957Y-123835376D01*
X135369673Y-123892192D01*
X135713201Y-124034838D01*
X136085167Y-124035162D01*
X136428943Y-123893117D01*
X136692192Y-123630327D01*
X136834838Y-123286799D01*
X136835162Y-122914833D01*
X136765997Y-122747440D01*
X141800000Y-122747440D01*
X142035317Y-122703162D01*
X142251441Y-122564090D01*
X142396431Y-122351890D01*
X142447440Y-122100000D01*
X142447440Y-121047453D01*
X142578943Y-120993117D01*
X142842192Y-120730327D01*
X142984838Y-120386799D01*
X142985162Y-120014833D01*
X142843117Y-119671057D01*
X142580327Y-119407808D01*
X142447440Y-119352628D01*
X142447440Y-118300000D01*
X142403162Y-118064683D01*
X142264090Y-117848559D01*
X142051890Y-117703569D01*
X141800000Y-117652560D01*
X135800000Y-117652560D01*
X135611157Y-117688093D01*
X135685000Y-117614250D01*
X135685000Y-117023690D01*
X135588327Y-116790301D01*
X135409698Y-116611673D01*
X135176309Y-116515000D01*
X134335750Y-116515000D01*
X134177000Y-116673750D01*
X134177000Y-117773000D01*
X134197000Y-117773000D01*
X134197000Y-118027000D01*
X134177000Y-118027000D01*
X134177000Y-118047000D01*
X133923000Y-118047000D01*
X133923000Y-118027000D01*
X132573750Y-118027000D01*
X132415000Y-118185750D01*
X132415000Y-118776310D01*
X132486402Y-118948689D01*
X132428559Y-118985910D01*
X132425764Y-118990000D01*
X131592334Y-118990000D01*
X131578162Y-118914683D01*
X131511671Y-118811354D01*
X131513327Y-118809698D01*
X131610000Y-118576309D01*
X131610000Y-118135750D01*
X131451250Y-117977000D01*
X130727000Y-117977000D01*
X130727000Y-117997000D01*
X130473000Y-117997000D01*
X130473000Y-117977000D01*
X130453000Y-117977000D01*
X130453000Y-117723000D01*
X130473000Y-117723000D01*
X130473000Y-116773750D01*
X130727000Y-116773750D01*
X130727000Y-117723000D01*
X131451250Y-117723000D01*
X131610000Y-117564250D01*
X131610000Y-117123691D01*
X131513327Y-116890302D01*
X131334699Y-116711673D01*
X131101310Y-116615000D01*
X130885750Y-116615000D01*
X130727000Y-116773750D01*
X130473000Y-116773750D01*
X130314250Y-116615000D01*
X130172414Y-116615000D01*
X130137401Y-116562599D01*
X126509802Y-112935000D01*
X129159086Y-112935000D01*
X129207630Y-112983629D01*
X129240000Y-112997070D01*
X129240000Y-113500000D01*
X129297852Y-113790839D01*
X129462599Y-114037401D01*
X131764878Y-116339680D01*
X131764838Y-116385167D01*
X131906883Y-116728943D01*
X132169673Y-116992192D01*
X132415000Y-117094061D01*
X132415000Y-117614250D01*
X132573750Y-117773000D01*
X133923000Y-117773000D01*
X133923000Y-116673750D01*
X133764250Y-116515000D01*
X133581604Y-116515000D01*
X133634838Y-116386799D01*
X133635162Y-116014833D01*
X133493117Y-115671057D01*
X133230327Y-115407808D01*
X132886799Y-115265162D01*
X132839923Y-115265121D01*
X130760000Y-113185198D01*
X130760000Y-112997531D01*
X130790303Y-112985010D01*
X131183629Y-112592370D01*
X131396757Y-112079100D01*
X131397242Y-111523339D01*
X131185010Y-111009697D01*
X130792370Y-110616371D01*
X130279100Y-110403243D01*
X129723339Y-110402758D01*
X129209697Y-110614990D01*
X129159600Y-110665000D01*
X126120132Y-110665000D01*
X124827440Y-109372308D01*
X124827440Y-108715000D01*
X124821795Y-108685000D01*
X125047062Y-108685000D01*
X125085456Y-108723461D01*
X125594318Y-108934759D01*
X126145305Y-108935240D01*
X126654535Y-108724831D01*
X127044481Y-108335564D01*
X127255779Y-107826702D01*
X127255819Y-107780213D01*
X129199392Y-107780213D01*
X129268857Y-108022397D01*
X129792302Y-108209144D01*
X130347368Y-108181362D01*
X130731143Y-108022397D01*
X130800608Y-107780213D01*
X130000000Y-106979605D01*
X129199392Y-107780213D01*
X127255819Y-107780213D01*
X127256260Y-107275715D01*
X127045851Y-106766485D01*
X126871972Y-106592302D01*
X128590856Y-106592302D01*
X128618638Y-107147368D01*
X128777603Y-107531143D01*
X129019787Y-107600608D01*
X129820395Y-106800000D01*
X129019787Y-105999392D01*
X128777603Y-106068857D01*
X128590856Y-106592302D01*
X126871972Y-106592302D01*
X126656584Y-106376539D01*
X126147722Y-106165241D01*
X125596735Y-106164760D01*
X125087505Y-106375169D01*
X125047605Y-106415000D01*
X124815000Y-106415000D01*
X124815000Y-106135750D01*
X124656250Y-105977000D01*
X123227000Y-105977000D01*
X123227000Y-105997000D01*
X122973000Y-105997000D01*
X122973000Y-105977000D01*
X122953000Y-105977000D01*
X122953000Y-105723000D01*
X122973000Y-105723000D01*
X122973000Y-105703000D01*
X123227000Y-105703000D01*
X123227000Y-105723000D01*
X124656250Y-105723000D01*
X124815000Y-105564250D01*
X124815000Y-105285000D01*
X124900776Y-105285000D01*
X124924116Y-105308381D01*
X125432978Y-105519679D01*
X125983965Y-105520160D01*
X126493195Y-105309751D01*
X126533095Y-105269920D01*
X130673000Y-105269920D01*
X130673000Y-105556860D01*
X130207698Y-105390856D01*
X129652632Y-105418638D01*
X129268857Y-105577603D01*
X129199392Y-105819787D01*
X130000000Y-106620395D01*
X130014143Y-106606253D01*
X130193748Y-106785858D01*
X130179605Y-106800000D01*
X130980213Y-107600608D01*
X131222397Y-107531143D01*
X131366581Y-107127000D01*
X133799498Y-107127000D01*
X136876397Y-110203899D01*
X136703243Y-110620900D01*
X136702758Y-111176661D01*
X136914990Y-111690303D01*
X137307630Y-112083629D01*
X137820900Y-112296757D01*
X137891687Y-112296819D01*
X140194313Y-114599445D01*
X140002513Y-114599278D01*
X139658737Y-114741323D01*
X139556862Y-114843020D01*
X138728303Y-114843020D01*
X138696167Y-114810828D01*
X138352639Y-114668182D01*
X137980673Y-114667858D01*
X137636897Y-114809903D01*
X137373648Y-115072693D01*
X137231002Y-115416221D01*
X137230678Y-115788187D01*
X137372723Y-116131963D01*
X137635513Y-116395212D01*
X137979041Y-116537858D01*
X138351007Y-116538182D01*
X138694783Y-116396137D01*
X138727958Y-116363020D01*
X139744985Y-116363020D01*
X140000881Y-116469278D01*
X140372847Y-116469602D01*
X140716623Y-116327557D01*
X140979872Y-116064767D01*
X141122518Y-115721239D01*
X141122686Y-115527818D01*
X143647433Y-118052565D01*
X144015654Y-118298603D01*
X144449436Y-118384887D01*
X143945194Y-118888249D01*
X143390632Y-120223782D01*
X143389370Y-121669874D01*
X143941600Y-123006372D01*
X144963249Y-124029806D01*
X146298782Y-124584368D01*
X147744874Y-124585630D01*
X149081372Y-124033400D01*
X150104806Y-123011751D01*
X150659368Y-121676218D01*
X150660630Y-120230126D01*
X150108400Y-118893628D01*
X149600658Y-118384999D01*
X150711207Y-118384999D01*
X150854743Y-118528535D01*
X151222963Y-118774572D01*
X151657309Y-118860969D01*
X156185091Y-118860969D01*
X156619437Y-118774572D01*
X156987657Y-118528535D01*
X158708000Y-116808192D01*
X158708000Y-125499000D01*
X108428000Y-125499000D01*
X108428000Y-121669874D01*
X118439370Y-121669874D01*
X118991600Y-123006372D01*
X120013249Y-124029806D01*
X121348782Y-124584368D01*
X122794874Y-124585630D01*
X124131372Y-124033400D01*
X125154806Y-123011751D01*
X125709368Y-121676218D01*
X125710630Y-120230126D01*
X125158400Y-118893628D01*
X124136751Y-117870194D01*
X122801218Y-117315632D01*
X121355126Y-117314370D01*
X120018628Y-117866600D01*
X118995194Y-118888249D01*
X118440632Y-120223782D01*
X118439370Y-121669874D01*
X108428000Y-121669874D01*
X108428000Y-111709000D01*
X108373954Y-111437295D01*
X108220046Y-111206954D01*
X107989705Y-111053046D01*
X107718000Y-110999000D01*
X93928000Y-110999000D01*
X93928000Y-105939384D01*
X94314327Y-105939384D01*
X94904537Y-107367801D01*
X95996451Y-108461623D01*
X97423835Y-109054324D01*
X98969384Y-109055673D01*
X99692280Y-108756978D01*
X104502627Y-108756978D01*
X104875658Y-109257608D01*
X106299262Y-109859333D01*
X107844772Y-109870466D01*
X109276896Y-109289311D01*
X109324342Y-109257608D01*
X109697373Y-108756978D01*
X107100000Y-106159605D01*
X104502627Y-108756978D01*
X99692280Y-108756978D01*
X100397801Y-108465463D01*
X101491623Y-107373549D01*
X101761018Y-106724772D01*
X103209534Y-106724772D01*
X103790689Y-108156896D01*
X103822392Y-108204342D01*
X104323022Y-108577373D01*
X106920395Y-105980000D01*
X107279605Y-105980000D01*
X109876978Y-108577373D01*
X110377608Y-108204342D01*
X110979333Y-106780738D01*
X110983618Y-106185750D01*
X111670000Y-106185750D01*
X111670000Y-110191310D01*
X111766673Y-110424699D01*
X111945302Y-110603327D01*
X112178691Y-110700000D01*
X115514250Y-110700000D01*
X115673000Y-110541250D01*
X115673000Y-106027000D01*
X115927000Y-106027000D01*
X115927000Y-110541250D01*
X116085750Y-110700000D01*
X119421309Y-110700000D01*
X119654698Y-110603327D01*
X119833327Y-110424699D01*
X119930000Y-110191310D01*
X119930000Y-106185750D01*
X119771250Y-106027000D01*
X115927000Y-106027000D01*
X115673000Y-106027000D01*
X111828750Y-106027000D01*
X111670000Y-106185750D01*
X110983618Y-106185750D01*
X110990466Y-105235228D01*
X110409311Y-103803104D01*
X110377608Y-103755658D01*
X109876978Y-103382627D01*
X107279605Y-105980000D01*
X106920395Y-105980000D01*
X104323022Y-103382627D01*
X103822392Y-103755658D01*
X103220667Y-105179262D01*
X103209534Y-106724772D01*
X101761018Y-106724772D01*
X102084324Y-105946165D01*
X102085673Y-104400616D01*
X101495463Y-102972199D01*
X100403549Y-101878377D01*
X98990842Y-101291771D01*
X100376896Y-100729311D01*
X100424342Y-100697608D01*
X100797373Y-100196978D01*
X98200000Y-97599605D01*
X95602627Y-100196978D01*
X95975658Y-100697608D01*
X97396809Y-101298296D01*
X96002199Y-101874537D01*
X94908377Y-102966451D01*
X94315676Y-104393835D01*
X94314327Y-105939384D01*
X93928000Y-105939384D01*
X93928000Y-98164772D01*
X94309534Y-98164772D01*
X94890689Y-99596896D01*
X94922392Y-99644342D01*
X95423022Y-100017373D01*
X98020395Y-97420000D01*
X98379605Y-97420000D01*
X100976978Y-100017373D01*
X101477608Y-99644342D01*
X102079333Y-98220738D01*
X102090466Y-96675228D01*
X101509311Y-95243104D01*
X101477608Y-95195658D01*
X100976978Y-94822627D01*
X98379605Y-97420000D01*
X98020395Y-97420000D01*
X95423022Y-94822627D01*
X94922392Y-95195658D01*
X94320667Y-96619262D01*
X94309534Y-98164772D01*
X93928000Y-98164772D01*
X93928000Y-94643022D01*
X95602627Y-94643022D01*
X98200000Y-97240395D01*
X100797373Y-94643022D01*
X100424342Y-94142392D01*
X99000738Y-93540667D01*
X97455228Y-93529534D01*
X96023104Y-94110689D01*
X95975658Y-94142392D01*
X95602627Y-94643022D01*
X93928000Y-94643022D01*
X93928000Y-92819000D01*
X107718000Y-92819000D01*
X107989705Y-92764954D01*
X108220046Y-92611046D01*
X108373954Y-92380705D01*
X108428000Y-92109000D01*
X108428000Y-78319000D01*
X157958000Y-78319000D01*
X157958000Y-85894499D01*
X157958000Y-85894499D01*
G37*
X157958000Y-85894499D02*
X157864090Y-85748559D01*
X157651890Y-85603569D01*
X157400000Y-85552560D01*
X154160000Y-85552560D01*
X154160000Y-82900000D01*
X154132152Y-82760000D01*
X155494895Y-82760000D01*
X155585910Y-82901441D01*
X155798110Y-83046431D01*
X156050000Y-83097440D01*
X157050000Y-83097440D01*
X157285317Y-83053162D01*
X157501441Y-82914090D01*
X157646431Y-82701890D01*
X157697440Y-82450000D01*
X157697440Y-81550000D01*
X157653162Y-81314683D01*
X157586671Y-81211354D01*
X157588327Y-81209698D01*
X157685000Y-80976309D01*
X157685000Y-80685750D01*
X157526250Y-80527000D01*
X156677000Y-80527000D01*
X156677000Y-80547000D01*
X156423000Y-80547000D01*
X156423000Y-80527000D01*
X155573750Y-80527000D01*
X155415000Y-80685750D01*
X155415000Y-80976309D01*
X155511673Y-81209698D01*
X155513043Y-81211068D01*
X155493274Y-81240000D01*
X153505105Y-81240000D01*
X153486671Y-81211354D01*
X153488327Y-81209698D01*
X153585000Y-80976309D01*
X153585000Y-80685750D01*
X153426250Y-80527000D01*
X152577000Y-80527000D01*
X152577000Y-80547000D01*
X152323000Y-80547000D01*
X152323000Y-80527000D01*
X152303000Y-80527000D01*
X152303000Y-80273000D01*
X152323000Y-80273000D01*
X152323000Y-79473750D01*
X152577000Y-79473750D01*
X152577000Y-80273000D01*
X153426250Y-80273000D01*
X153585000Y-80114250D01*
X153585000Y-79823691D01*
X155415000Y-79823691D01*
X155415000Y-80114250D01*
X155573750Y-80273000D01*
X156423000Y-80273000D01*
X156423000Y-79473750D01*
X156677000Y-79473750D01*
X156677000Y-80273000D01*
X157526250Y-80273000D01*
X157685000Y-80114250D01*
X157685000Y-79823691D01*
X157588327Y-79590302D01*
X157409699Y-79411673D01*
X157176310Y-79315000D01*
X156835750Y-79315000D01*
X156677000Y-79473750D01*
X156423000Y-79473750D01*
X156264250Y-79315000D01*
X155923690Y-79315000D01*
X155690301Y-79411673D01*
X155511673Y-79590302D01*
X155415000Y-79823691D01*
X153585000Y-79823691D01*
X153488327Y-79590302D01*
X153309699Y-79411673D01*
X153076310Y-79315000D01*
X152735750Y-79315000D01*
X152577000Y-79473750D01*
X152323000Y-79473750D01*
X152164250Y-79315000D01*
X151823690Y-79315000D01*
X151590301Y-79411673D01*
X151411673Y-79590302D01*
X151315000Y-79823691D01*
X151315000Y-79840198D01*
X150062400Y-78587598D01*
X149815838Y-78422851D01*
X149524999Y-78364999D01*
X139415999Y-78364999D01*
X139125160Y-78422851D01*
X138878598Y-78587598D01*
X138143360Y-79322836D01*
X137808285Y-79098946D01*
X137240000Y-78985907D01*
X136671715Y-79098946D01*
X136189946Y-79420853D01*
X135970000Y-79750026D01*
X135750054Y-79420853D01*
X135268285Y-79098946D01*
X134700000Y-78985907D01*
X134131715Y-79098946D01*
X133649946Y-79420853D01*
X133430000Y-79750026D01*
X133210054Y-79420853D01*
X132728285Y-79098946D01*
X132160000Y-78985907D01*
X131591715Y-79098946D01*
X131109946Y-79420853D01*
X130882298Y-79761553D01*
X130815183Y-79618642D01*
X130386924Y-79228355D01*
X129976890Y-79058524D01*
X129747000Y-79179845D01*
X129747000Y-80373000D01*
X129767000Y-80373000D01*
X129767000Y-80627000D01*
X129747000Y-80627000D01*
X129747000Y-82913000D01*
X129767000Y-82913000D01*
X129767000Y-83167000D01*
X129747000Y-83167000D01*
X129747000Y-83187000D01*
X129493000Y-83187000D01*
X129493000Y-83167000D01*
X128293750Y-83167000D01*
X128135000Y-83325750D01*
X128135000Y-84016309D01*
X128231673Y-84249698D01*
X128410301Y-84428327D01*
X128643690Y-84525000D01*
X129334250Y-84525000D01*
X129492998Y-84366252D01*
X129492998Y-84405100D01*
X129232680Y-84665418D01*
X129187193Y-84665378D01*
X128843417Y-84807423D01*
X128580168Y-85070213D01*
X128437522Y-85413741D01*
X128437198Y-85785707D01*
X128579243Y-86129483D01*
X128842033Y-86392732D01*
X129185561Y-86535378D01*
X129557527Y-86535702D01*
X129901303Y-86393657D01*
X130164552Y-86130867D01*
X130307198Y-85787339D01*
X130307239Y-85740463D01*
X131604170Y-84443532D01*
X132160000Y-84554093D01*
X132728285Y-84441054D01*
X133210054Y-84119147D01*
X133430000Y-83789974D01*
X133649946Y-84119147D01*
X134131715Y-84441054D01*
X134700000Y-84554093D01*
X135066408Y-84481210D01*
X135579686Y-84994488D01*
X135579678Y-85003387D01*
X135721723Y-85347163D01*
X135984513Y-85610412D01*
X136328041Y-85753058D01*
X136700007Y-85753382D01*
X137043783Y-85611337D01*
X137307032Y-85348547D01*
X137449678Y-85005019D01*
X137450002Y-84633053D01*
X137403905Y-84521490D01*
X137808285Y-84441054D01*
X138290054Y-84119147D01*
X138510000Y-83789974D01*
X138729946Y-84119147D01*
X139211715Y-84441054D01*
X139780000Y-84554093D01*
X139869999Y-84536191D01*
X139869999Y-85694997D01*
X139927851Y-85985836D01*
X140092598Y-86232398D01*
X147200200Y-93340000D01*
X143805105Y-93340000D01*
X143714090Y-93198559D01*
X143610000Y-93127437D01*
X143610000Y-92697440D01*
X143750000Y-92697440D01*
X143985317Y-92653162D01*
X144201441Y-92514090D01*
X144346431Y-92301890D01*
X144397440Y-92050000D01*
X144397440Y-91150000D01*
X144353162Y-90914683D01*
X144214090Y-90698559D01*
X144001890Y-90553569D01*
X143750000Y-90502560D01*
X143734998Y-90502560D01*
X143735162Y-90314833D01*
X143593117Y-89971057D01*
X143330327Y-89707808D01*
X142986799Y-89565162D01*
X142614833Y-89564838D01*
X142271057Y-89706883D01*
X142007808Y-89969673D01*
X141865162Y-90313201D01*
X141864915Y-90596632D01*
X141801890Y-90553569D01*
X141550000Y-90502560D01*
X140350000Y-90502560D01*
X140114683Y-90546838D01*
X139898559Y-90685910D01*
X139753569Y-90898110D01*
X139702560Y-91150000D01*
X139702560Y-92050000D01*
X139746838Y-92285317D01*
X139885910Y-92501441D01*
X140098110Y-92646431D01*
X140190000Y-92665039D01*
X140190000Y-93127069D01*
X140098559Y-93185910D01*
X139953569Y-93398110D01*
X139902560Y-93650000D01*
X139902560Y-94550000D01*
X139946838Y-94785317D01*
X140085910Y-95001441D01*
X140298110Y-95146431D01*
X140550000Y-95197440D01*
X140756324Y-95197440D01*
X140811883Y-95331903D01*
X140899253Y-95419425D01*
X140852560Y-95650000D01*
X140852560Y-96550000D01*
X140896838Y-96785317D01*
X141035910Y-97001441D01*
X141140000Y-97072563D01*
X141140000Y-97075000D01*
X141145482Y-97102560D01*
X140375000Y-97102560D01*
X140139683Y-97146838D01*
X139923559Y-97285910D01*
X139778569Y-97498110D01*
X139727560Y-97750000D01*
X139727560Y-98650000D01*
X139771838Y-98885317D01*
X139910910Y-99101441D01*
X140123110Y-99246431D01*
X140375000Y-99297440D01*
X141575000Y-99297440D01*
X141810317Y-99253162D01*
X142026441Y-99114090D01*
X142074134Y-99044289D01*
X142110910Y-99101441D01*
X142323110Y-99246431D01*
X142575000Y-99297440D01*
X143775000Y-99297440D01*
X144010317Y-99253162D01*
X144226441Y-99114090D01*
X144371431Y-98901890D01*
X144422440Y-98650000D01*
X144422440Y-98573690D01*
X145815000Y-98573690D01*
X145815000Y-98914250D01*
X145973750Y-99073000D01*
X146773000Y-99073000D01*
X146773000Y-98223750D01*
X146614250Y-98065000D01*
X146323691Y-98065000D01*
X146090302Y-98161673D01*
X145911673Y-98340301D01*
X145815000Y-98573690D01*
X144422440Y-98573690D01*
X144422440Y-97750000D01*
X144378162Y-97514683D01*
X144239090Y-97298559D01*
X144026890Y-97153569D01*
X143775000Y-97102560D01*
X143002362Y-97102560D01*
X142817383Y-96917581D01*
X142896431Y-96801890D01*
X142947440Y-96550000D01*
X142947440Y-95650000D01*
X142903162Y-95414683D01*
X142884545Y-95385750D01*
X145815000Y-95385750D01*
X145815000Y-95726310D01*
X145911673Y-95959699D01*
X146090302Y-96138327D01*
X146323691Y-96235000D01*
X146614250Y-96235000D01*
X146773000Y-96076250D01*
X146773000Y-95227000D01*
X145973750Y-95227000D01*
X145815000Y-95385750D01*
X142884545Y-95385750D01*
X142764090Y-95198559D01*
X142762452Y-95197440D01*
X143250000Y-95197440D01*
X143485317Y-95153162D01*
X143701441Y-95014090D01*
X143806726Y-94860000D01*
X145860750Y-94860000D01*
X145973750Y-94973000D01*
X146773000Y-94973000D01*
X146773000Y-94953000D01*
X147027000Y-94953000D01*
X147027000Y-94973000D01*
X147047000Y-94973000D01*
X147047000Y-95227000D01*
X147027000Y-95227000D01*
X147027000Y-96076250D01*
X147185750Y-96235000D01*
X147476309Y-96235000D01*
X147709698Y-96138327D01*
X147711068Y-96136957D01*
X147798110Y-96196431D01*
X148050000Y-96247440D01*
X148440000Y-96247440D01*
X148440000Y-97435197D01*
X147962599Y-97912599D01*
X147843063Y-98091498D01*
X147814683Y-98096838D01*
X147711354Y-98163329D01*
X147709698Y-98161673D01*
X147476309Y-98065000D01*
X147185750Y-98065000D01*
X147027000Y-98223750D01*
X147027000Y-99073000D01*
X147047000Y-99073000D01*
X147047000Y-99327000D01*
X147027000Y-99327000D01*
X147027000Y-100176250D01*
X147185750Y-100335000D01*
X147476309Y-100335000D01*
X147709698Y-100238327D01*
X147711068Y-100236957D01*
X147798110Y-100296431D01*
X148050000Y-100347440D01*
X148490347Y-100347440D01*
X148478122Y-100376881D01*
X148477798Y-100748847D01*
X148603289Y-101052560D01*
X148300000Y-101052560D01*
X148064683Y-101096838D01*
X147986528Y-101147129D01*
X147893117Y-100921057D01*
X147630327Y-100657808D01*
X147286799Y-100515162D01*
X146914833Y-100514838D01*
X146571057Y-100656883D01*
X146307808Y-100919673D01*
X146165162Y-101263201D01*
X146165079Y-101358087D01*
X146103569Y-101448110D01*
X146052560Y-101700000D01*
X146052560Y-102500000D01*
X146096838Y-102735317D01*
X146235910Y-102951441D01*
X146448110Y-103096431D01*
X146700000Y-103147440D01*
X147500000Y-103147440D01*
X147735317Y-103103162D01*
X147901477Y-102996241D01*
X148048110Y-103096431D01*
X148300000Y-103147440D01*
X149100000Y-103147440D01*
X149335317Y-103103162D01*
X149551441Y-102964090D01*
X149622563Y-102860000D01*
X149738352Y-102860000D01*
X149878941Y-102918378D01*
X150250907Y-102918702D01*
X150594683Y-102776657D01*
X150857932Y-102513867D01*
X151000578Y-102170339D01*
X151000663Y-102072980D01*
X151828933Y-102072980D01*
X151857810Y-102092711D01*
X152109700Y-102143720D01*
X153309700Y-102143720D01*
X153545017Y-102099442D01*
X153761141Y-101960370D01*
X153807669Y-101892274D01*
X153950002Y-102034607D01*
X154183391Y-102131280D01*
X154623950Y-102131280D01*
X154782700Y-101972530D01*
X154782700Y-101173280D01*
X155036700Y-101173280D01*
X155036700Y-101972530D01*
X155195450Y-102131280D01*
X155636009Y-102131280D01*
X155869398Y-102034607D01*
X156048027Y-101855979D01*
X156144700Y-101622590D01*
X156144700Y-101332030D01*
X155985950Y-101173280D01*
X155036700Y-101173280D01*
X154782700Y-101173280D01*
X154762700Y-101173280D01*
X154762700Y-100919280D01*
X154782700Y-100919280D01*
X154782700Y-100120030D01*
X154760020Y-100097350D01*
X154760020Y-99311460D01*
X155014020Y-99311460D01*
X155014020Y-100110710D01*
X155036700Y-100133390D01*
X155036700Y-100919280D01*
X155985950Y-100919280D01*
X156144700Y-100760530D01*
X156144700Y-100469970D01*
X156048027Y-100236581D01*
X155915475Y-100104030D01*
X156025347Y-99994159D01*
X156122020Y-99760770D01*
X156122020Y-99470210D01*
X155963270Y-99311460D01*
X155014020Y-99311460D01*
X154760020Y-99311460D01*
X154740020Y-99311460D01*
X154740020Y-99057460D01*
X154760020Y-99057460D01*
X154760020Y-98258210D01*
X155014020Y-98258210D01*
X155014020Y-99057460D01*
X155963270Y-99057460D01*
X156122020Y-98898710D01*
X156122020Y-98608150D01*
X156025347Y-98374761D01*
X155846718Y-98196133D01*
X155613329Y-98099460D01*
X155172770Y-98099460D01*
X155014020Y-98258210D01*
X154760020Y-98258210D01*
X154601270Y-98099460D01*
X154160711Y-98099460D01*
X153927322Y-98196133D01*
X153786084Y-98337370D01*
X153751110Y-98283019D01*
X153538910Y-98138029D01*
X153287020Y-98087020D01*
X152087020Y-98087020D01*
X151851703Y-98131298D01*
X151635579Y-98270370D01*
X151491379Y-98481413D01*
X151486861Y-98482312D01*
X151451011Y-98506266D01*
X151451011Y-97275022D01*
X159254584Y-97275022D01*
X159475353Y-97645743D01*
X160110243Y-97902778D01*
X159952799Y-98345171D01*
X159980770Y-98895448D01*
X160137540Y-99273923D01*
X160378483Y-99341912D01*
X161170395Y-98550000D01*
X161156253Y-98535858D01*
X161335858Y-98356253D01*
X161350000Y-98370395D01*
X161364143Y-98356253D01*
X161543748Y-98535858D01*
X161529605Y-98550000D01*
X162321517Y-99341912D01*
X162562460Y-99273923D01*
X162643370Y-99046578D01*
X162737540Y-99273923D01*
X162978483Y-99341912D01*
X163770395Y-98550000D01*
X164129605Y-98550000D01*
X164921517Y-99341912D01*
X165162460Y-99273923D01*
X165347201Y-98754829D01*
X165319230Y-98204552D01*
X165162460Y-97826077D01*
X164921517Y-97758088D01*
X164129605Y-98550000D01*
X163770395Y-98550000D01*
X162978483Y-97758088D01*
X162737540Y-97826077D01*
X162656630Y-98053422D01*
X162562460Y-97826077D01*
X162321519Y-97758089D01*
X162436574Y-97643034D01*
X162430110Y-97636570D01*
X162464701Y-97578483D01*
X163158088Y-97578483D01*
X163950000Y-98370395D01*
X164741912Y-97578483D01*
X164673923Y-97337540D01*
X164498257Y-97275022D01*
X164954584Y-97275022D01*
X165175353Y-97645743D01*
X166147012Y-98039119D01*
X167195247Y-98030713D01*
X168124647Y-97645743D01*
X168345416Y-97275022D01*
X166650000Y-95579605D01*
X164954584Y-97275022D01*
X164498257Y-97275022D01*
X164154829Y-97152799D01*
X163604552Y-97180770D01*
X163226077Y-97337540D01*
X163158088Y-97578483D01*
X162464701Y-97578483D01*
X162645416Y-97275022D01*
X160950000Y-95579605D01*
X159254584Y-97275022D01*
X151451011Y-97275022D01*
X151451011Y-95119598D01*
X151430024Y-95014090D01*
X151406736Y-94897012D01*
X158310881Y-94897012D01*
X158319287Y-95945247D01*
X158704257Y-96874647D01*
X159074978Y-97095416D01*
X160770395Y-95400000D01*
X161129605Y-95400000D01*
X162825022Y-97095416D01*
X163195743Y-96874647D01*
X163589119Y-95902988D01*
X163581052Y-94897012D01*
X164010881Y-94897012D01*
X164019287Y-95945247D01*
X164404257Y-96874647D01*
X164774978Y-97095416D01*
X166470395Y-95400000D01*
X166829605Y-95400000D01*
X168525022Y-97095416D01*
X168895743Y-96874647D01*
X169289119Y-95902988D01*
X169280713Y-94854753D01*
X168895743Y-93925353D01*
X168525022Y-93704584D01*
X166829605Y-95400000D01*
X166470395Y-95400000D01*
X164774978Y-93704584D01*
X164404257Y-93925353D01*
X164010881Y-94897012D01*
X163581052Y-94897012D01*
X163580713Y-94854753D01*
X163195743Y-93925353D01*
X162825022Y-93704584D01*
X161129605Y-95400000D01*
X160770395Y-95400000D01*
X159074978Y-93704584D01*
X158704257Y-93925353D01*
X158310881Y-94897012D01*
X151406736Y-94897012D01*
X151393159Y-94828758D01*
X151228412Y-94582197D01*
X142781560Y-86135345D01*
X142781560Y-82741560D01*
X142723708Y-82450721D01*
X142558961Y-82204159D01*
X141201771Y-80846969D01*
X141265000Y-80529093D01*
X141265000Y-80470907D01*
X141151961Y-79902622D01*
X141140186Y-79884999D01*
X144449323Y-79884999D01*
X143945194Y-80388249D01*
X143390632Y-81723782D01*
X143389370Y-83169874D01*
X143941600Y-84506372D01*
X144963249Y-85529806D01*
X146298782Y-86084368D01*
X147744874Y-86085630D01*
X149081372Y-85533400D01*
X150104806Y-84511751D01*
X150659368Y-83176218D01*
X150660630Y-81730126D01*
X150382712Y-81057514D01*
X151302560Y-81977362D01*
X151302560Y-82450000D01*
X151346838Y-82685317D01*
X151485910Y-82901441D01*
X151698110Y-83046431D01*
X151950000Y-83097440D01*
X152522638Y-83097440D01*
X152640000Y-83214802D01*
X152640000Y-85552560D01*
X149400000Y-85552560D01*
X149164683Y-85596838D01*
X148948559Y-85735910D01*
X148803569Y-85948110D01*
X148752560Y-86200000D01*
X148752560Y-91200000D01*
X148796838Y-91435317D01*
X148935910Y-91651441D01*
X149148110Y-91796431D01*
X149400000Y-91847440D01*
X157400000Y-91847440D01*
X157635317Y-91803162D01*
X157851441Y-91664090D01*
X157958000Y-91508136D01*
X157958000Y-92109000D01*
X158012046Y-92380705D01*
X158165954Y-92611046D01*
X158396295Y-92764954D01*
X158668000Y-92819000D01*
X160284735Y-92819000D01*
X159475353Y-93154257D01*
X159254584Y-93524978D01*
X160950000Y-95220395D01*
X162645416Y-93524978D01*
X162424647Y-93154257D01*
X161596545Y-92819000D01*
X165984735Y-92819000D01*
X165175353Y-93154257D01*
X164954584Y-93524978D01*
X166650000Y-95220395D01*
X168345416Y-93524978D01*
X168124647Y-93154257D01*
X167296545Y-92819000D01*
X174958000Y-92819000D01*
X174958000Y-110999000D01*
X167996073Y-110999000D01*
X168124647Y-110945743D01*
X168345416Y-110575022D01*
X166650000Y-108879605D01*
X164954584Y-110575022D01*
X165175353Y-110945743D01*
X165306901Y-110999000D01*
X162296073Y-110999000D01*
X162424647Y-110945743D01*
X162645416Y-110575022D01*
X160950000Y-108879605D01*
X160935858Y-108893748D01*
X160756252Y-108714142D01*
X160770395Y-108700000D01*
X161129605Y-108700000D01*
X162825022Y-110395416D01*
X163195743Y-110174647D01*
X163589119Y-109202988D01*
X163581052Y-108197012D01*
X164010881Y-108197012D01*
X164019287Y-109245247D01*
X164404257Y-110174647D01*
X164774978Y-110395416D01*
X166470395Y-108700000D01*
X166829605Y-108700000D01*
X168525022Y-110395416D01*
X168895743Y-110174647D01*
X169289119Y-109202988D01*
X169280713Y-108154753D01*
X168895743Y-107225353D01*
X168525022Y-107004584D01*
X166829605Y-108700000D01*
X166470395Y-108700000D01*
X164774978Y-107004584D01*
X164404257Y-107225353D01*
X164010881Y-108197012D01*
X163581052Y-108197012D01*
X163580713Y-108154753D01*
X163195743Y-107225353D01*
X162825022Y-107004584D01*
X161129605Y-108700000D01*
X160770395Y-108700000D01*
X160756252Y-108685858D01*
X160935858Y-108506252D01*
X160950000Y-108520395D01*
X162645416Y-106824978D01*
X162424647Y-106454257D01*
X162410357Y-106448472D01*
X162473939Y-106385000D01*
X162826564Y-106385000D01*
X163164436Y-106723461D01*
X163673298Y-106934759D01*
X164224285Y-106935240D01*
X164491140Y-106824978D01*
X164954584Y-106824978D01*
X166650000Y-108520395D01*
X168345416Y-106824978D01*
X168124647Y-106454257D01*
X167152988Y-106060881D01*
X166104753Y-106069287D01*
X165175353Y-106454257D01*
X164954584Y-106824978D01*
X164491140Y-106824978D01*
X164733515Y-106724831D01*
X165123461Y-106335564D01*
X165334759Y-105826702D01*
X165335240Y-105275715D01*
X165124831Y-104766485D01*
X164735564Y-104376539D01*
X164551414Y-104300073D01*
X164733515Y-104224831D01*
X165123461Y-103835564D01*
X165334759Y-103326702D01*
X165335240Y-102775715D01*
X165124831Y-102266485D01*
X164908687Y-102049964D01*
X165123461Y-101835564D01*
X165334759Y-101326702D01*
X165335240Y-100775715D01*
X165124831Y-100266485D01*
X164735564Y-99876539D01*
X164567246Y-99806647D01*
X164673923Y-99762460D01*
X164741912Y-99521517D01*
X163950000Y-98729605D01*
X163158088Y-99521517D01*
X163226077Y-99762460D01*
X163340611Y-99803222D01*
X163166485Y-99875169D01*
X162776539Y-100264436D01*
X162649950Y-100569297D01*
X162524831Y-100266485D01*
X162135564Y-99876539D01*
X161967246Y-99806647D01*
X162073923Y-99762460D01*
X162141912Y-99521517D01*
X161350000Y-98729605D01*
X160558088Y-99521517D01*
X160626077Y-99762460D01*
X160740611Y-99803222D01*
X160566485Y-99875169D01*
X160176539Y-100264436D01*
X159965241Y-100773298D01*
X159964760Y-101324285D01*
X160175169Y-101833515D01*
X160391313Y-102050036D01*
X160176539Y-102264436D01*
X159965241Y-102773298D01*
X159964760Y-103324285D01*
X160175169Y-103833515D01*
X160564436Y-104223461D01*
X160748586Y-104299927D01*
X160566485Y-104375169D01*
X160526585Y-104415000D01*
X160103998Y-104415000D01*
X159669653Y-104501396D01*
X159301432Y-104747434D01*
X157022874Y-107025992D01*
X156776837Y-107394212D01*
X156690440Y-107828558D01*
X156690440Y-109621320D01*
X156776837Y-110055666D01*
X156999004Y-110388162D01*
X157022874Y-110423886D01*
X157114999Y-110516011D01*
X157114999Y-115190929D01*
X155714959Y-116590969D01*
X152127441Y-116590969D01*
X151983905Y-116447433D01*
X151804498Y-116327557D01*
X151615685Y-116201396D01*
X151181339Y-116114999D01*
X144920131Y-116114999D01*
X140954821Y-112149689D01*
X141276806Y-112016647D01*
X141413478Y-111880213D01*
X142299392Y-111880213D01*
X142368857Y-112122397D01*
X142892302Y-112309144D01*
X143447368Y-112281362D01*
X143831143Y-112122397D01*
X143900608Y-111880213D01*
X143100000Y-111079605D01*
X142299392Y-111880213D01*
X141413478Y-111880213D01*
X141596365Y-111697645D01*
X141750948Y-111325370D01*
X141877603Y-111631143D01*
X142119787Y-111700608D01*
X142920395Y-110900000D01*
X143279605Y-110900000D01*
X144080213Y-111700608D01*
X144322397Y-111631143D01*
X144509144Y-111107698D01*
X144481362Y-110552632D01*
X144322397Y-110168857D01*
X144080213Y-110099392D01*
X143279605Y-110900000D01*
X142920395Y-110900000D01*
X142119787Y-110099392D01*
X141877603Y-110168857D01*
X141701298Y-110663034D01*
X141597487Y-110411794D01*
X141516521Y-110330687D01*
X141461815Y-110055666D01*
X141452353Y-110008099D01*
X141393346Y-109919787D01*
X142299392Y-109919787D01*
X143100000Y-110720395D01*
X143900608Y-109919787D01*
X143831143Y-109677603D01*
X143307698Y-109490856D01*
X142752632Y-109518638D01*
X142368857Y-109677603D01*
X142299392Y-109919787D01*
X141393346Y-109919787D01*
X141260510Y-109720984D01*
X141260507Y-109720982D01*
X139784900Y-108245374D01*
X139784900Y-105575533D01*
X140028821Y-105676818D01*
X140075697Y-105676859D01*
X141303819Y-106904981D01*
X141550381Y-107069728D01*
X141841220Y-107127580D01*
X147358100Y-107127580D01*
X147648939Y-107069728D01*
X147846668Y-106937610D01*
X146871499Y-107912779D01*
X146706752Y-108159341D01*
X146648900Y-108450180D01*
X146648900Y-108855657D01*
X146616708Y-108887793D01*
X146474062Y-109231321D01*
X146473738Y-109603287D01*
X146615783Y-109947063D01*
X146878573Y-110210312D01*
X147222101Y-110352958D01*
X147268977Y-110352999D01*
X149601153Y-112685175D01*
X149847715Y-112849922D01*
X150138554Y-112907774D01*
X151228545Y-112907774D01*
X151228545Y-113243829D01*
X151286397Y-113534668D01*
X151451144Y-113781230D01*
X151957315Y-114287401D01*
X152203877Y-114452148D01*
X152494716Y-114510000D01*
X153256380Y-114510000D01*
X153273110Y-114521431D01*
X153525000Y-114572440D01*
X153664552Y-114572440D01*
X153664478Y-114657887D01*
X153806523Y-115001663D01*
X154069313Y-115264912D01*
X154412841Y-115407558D01*
X154784807Y-115407882D01*
X155128583Y-115265837D01*
X155161758Y-115232720D01*
X155652280Y-115232720D01*
X155943119Y-115174868D01*
X156189681Y-115010121D01*
X156487401Y-114712401D01*
X156652148Y-114465839D01*
X156658750Y-114432648D01*
X156726441Y-114389090D01*
X156871431Y-114176890D01*
X156922440Y-113925000D01*
X156922440Y-113575000D01*
X156896081Y-113434914D01*
X156910000Y-113401310D01*
X156910000Y-113346250D01*
X156832550Y-113268800D01*
X156739090Y-113123559D01*
X156700698Y-113097327D01*
X156813327Y-112984699D01*
X156837564Y-112926186D01*
X156910000Y-112853750D01*
X156910000Y-112798690D01*
X156900187Y-112775000D01*
X156910000Y-112751310D01*
X156910000Y-112696250D01*
X156837564Y-112623814D01*
X156813327Y-112565301D01*
X156634698Y-112386673D01*
X156576339Y-112362500D01*
X156751250Y-112362500D01*
X156910000Y-112203750D01*
X156910000Y-112148690D01*
X156813327Y-111915301D01*
X156634698Y-111736673D01*
X156401309Y-111640000D01*
X156235750Y-111640000D01*
X156077000Y-111798750D01*
X156077000Y-112290000D01*
X156045558Y-112290000D01*
X156003162Y-112064683D01*
X155864090Y-111848559D01*
X155823000Y-111820483D01*
X155823000Y-111798750D01*
X155664250Y-111640000D01*
X155498691Y-111640000D01*
X155445919Y-111661859D01*
X155400000Y-111652560D01*
X154400000Y-111652560D01*
X154347363Y-111662464D01*
X154175000Y-111627560D01*
X153821775Y-111627560D01*
X153576759Y-111382116D01*
X153233231Y-111239470D01*
X152861265Y-111239146D01*
X152536567Y-111373308D01*
X152518872Y-111355582D01*
X152175344Y-111212936D01*
X151803378Y-111212612D01*
X151459602Y-111354657D01*
X151426427Y-111387774D01*
X150453356Y-111387774D01*
X148344022Y-109278440D01*
X148344062Y-109232953D01*
X148202017Y-108889177D01*
X148168900Y-108856002D01*
X148168900Y-108764982D01*
X149465880Y-107468002D01*
X149511367Y-107468042D01*
X149855143Y-107325997D01*
X150118392Y-107063207D01*
X150261038Y-106719679D01*
X150261169Y-106568780D01*
X151355298Y-106568780D01*
X151840799Y-107054281D01*
X152087361Y-107219028D01*
X152378200Y-107276880D01*
X152565737Y-107276880D01*
X152597873Y-107309072D01*
X152941401Y-107451718D01*
X153313367Y-107452042D01*
X153657143Y-107309997D01*
X153920392Y-107047207D01*
X154063038Y-106703679D01*
X154063362Y-106331713D01*
X153921317Y-105987937D01*
X153658527Y-105724688D01*
X153382329Y-105610000D01*
X154186518Y-105610000D01*
X154784191Y-106207673D01*
X154733362Y-106330081D01*
X154733038Y-106702047D01*
X154875083Y-107045823D01*
X155137873Y-107309072D01*
X155481401Y-107451718D01*
X155853367Y-107452042D01*
X156197143Y-107309997D01*
X156460392Y-107047207D01*
X156603038Y-106703679D01*
X156603362Y-106331713D01*
X156461317Y-105987937D01*
X156412769Y-105939304D01*
X156370348Y-105726041D01*
X156205601Y-105479479D01*
X155038721Y-104312599D01*
X154792159Y-104147852D01*
X154501320Y-104090000D01*
X151371542Y-104090000D01*
X151371742Y-103860853D01*
X151229697Y-103517077D01*
X150966907Y-103253828D01*
X150623379Y-103111182D01*
X150251413Y-103110858D01*
X149907637Y-103252903D01*
X149874462Y-103286020D01*
X144272440Y-103286020D01*
X144272440Y-102400000D01*
X144228162Y-102164683D01*
X144089090Y-101948559D01*
X143985000Y-101877437D01*
X143985000Y-101596192D01*
X144151441Y-101489090D01*
X144296431Y-101276890D01*
X144347440Y-101025000D01*
X144347440Y-100275000D01*
X144303162Y-100039683D01*
X144164090Y-99823559D01*
X143951890Y-99678569D01*
X143700000Y-99627560D01*
X142500000Y-99627560D01*
X142264683Y-99671838D01*
X142161354Y-99738329D01*
X142159698Y-99736673D01*
X141926309Y-99640000D01*
X141485750Y-99640000D01*
X141327000Y-99798750D01*
X141327000Y-100523000D01*
X141347000Y-100523000D01*
X141347000Y-100777000D01*
X141327000Y-100777000D01*
X141327000Y-101501250D01*
X141485750Y-101660000D01*
X141926309Y-101660000D01*
X142159698Y-101563327D01*
X142161068Y-101561957D01*
X142248110Y-101621431D01*
X142465000Y-101665352D01*
X142465000Y-101877069D01*
X142373559Y-101935910D01*
X142278010Y-102075750D01*
X142263327Y-102040302D01*
X142084699Y-101861673D01*
X141851310Y-101765000D01*
X141610750Y-101765000D01*
X141452000Y-101923750D01*
X141452000Y-102723000D01*
X141472000Y-102723000D01*
X141472000Y-102977000D01*
X141452000Y-102977000D01*
X141452000Y-102997000D01*
X141198000Y-102997000D01*
X141198000Y-102977000D01*
X140448750Y-102977000D01*
X140290000Y-103135750D01*
X140290000Y-103426309D01*
X140306820Y-103466917D01*
X140257959Y-103515693D01*
X140137034Y-103806911D01*
X140030453Y-103806818D01*
X139784900Y-103908278D01*
X139784900Y-102273691D01*
X140290000Y-102273691D01*
X140290000Y-102564250D01*
X140448750Y-102723000D01*
X141198000Y-102723000D01*
X141198000Y-101923750D01*
X141039250Y-101765000D01*
X140798690Y-101765000D01*
X140565301Y-101861673D01*
X140386673Y-102040302D01*
X140290000Y-102273691D01*
X139784900Y-102273691D01*
X139784900Y-101706685D01*
X139784901Y-101706680D01*
X139717533Y-101368006D01*
X139717533Y-101368005D01*
X139525690Y-101080890D01*
X139525687Y-101080888D01*
X139380549Y-100935750D01*
X139965000Y-100935750D01*
X139965000Y-101151310D01*
X140061673Y-101384699D01*
X140240302Y-101563327D01*
X140473691Y-101660000D01*
X140914250Y-101660000D01*
X141073000Y-101501250D01*
X141073000Y-100777000D01*
X140123750Y-100777000D01*
X139965000Y-100935750D01*
X139380549Y-100935750D01*
X138927000Y-100482201D01*
X138927000Y-100148690D01*
X139965000Y-100148690D01*
X139965000Y-100364250D01*
X140123750Y-100523000D01*
X141073000Y-100523000D01*
X141073000Y-99798750D01*
X140914250Y-99640000D01*
X140473691Y-99640000D01*
X140240302Y-99736673D01*
X140061673Y-99915301D01*
X139965000Y-100148690D01*
X138927000Y-100148690D01*
X138927000Y-99485750D01*
X145815000Y-99485750D01*
X145815000Y-99826310D01*
X145911673Y-100059699D01*
X146090302Y-100238327D01*
X146323691Y-100335000D01*
X146614250Y-100335000D01*
X146773000Y-100176250D01*
X146773000Y-99327000D01*
X145973750Y-99327000D01*
X145815000Y-99485750D01*
X138927000Y-99485750D01*
X138927000Y-88000000D01*
X138918315Y-87953841D01*
X138891035Y-87911447D01*
X138849410Y-87883006D01*
X138800000Y-87873000D01*
X130800000Y-87873000D01*
X130753841Y-87881685D01*
X130711447Y-87908965D01*
X130683006Y-87950590D01*
X130673000Y-88000000D01*
X130673000Y-89383449D01*
X130586894Y-89175057D01*
X130127363Y-88714722D01*
X129526648Y-88465284D01*
X128876205Y-88464716D01*
X128275057Y-88713106D01*
X127814722Y-89172637D01*
X127565284Y-89773352D01*
X127564716Y-90423795D01*
X127813106Y-91024943D01*
X128272637Y-91485278D01*
X128873352Y-91734716D01*
X129523795Y-91735284D01*
X130124943Y-91486894D01*
X130585278Y-91027363D01*
X130673000Y-90816104D01*
X130673000Y-96783449D01*
X130586894Y-96575057D01*
X130127363Y-96114722D01*
X129526648Y-95865284D01*
X128876205Y-95864716D01*
X128275057Y-96113106D01*
X127814722Y-96572637D01*
X127565284Y-97173352D01*
X127564716Y-97823795D01*
X127813106Y-98424943D01*
X128272637Y-98885278D01*
X128873352Y-99134716D01*
X129523795Y-99135284D01*
X130124943Y-98886894D01*
X130585278Y-98427363D01*
X130673000Y-98216104D01*
X130673000Y-102496080D01*
X128253000Y-102496080D01*
X128253000Y-102273000D01*
X128273000Y-102273000D01*
X128273000Y-101473750D01*
X128527000Y-101473750D01*
X128527000Y-102273000D01*
X129476250Y-102273000D01*
X129635000Y-102114250D01*
X129635000Y-101823690D01*
X129538327Y-101590301D01*
X129359698Y-101411673D01*
X129126309Y-101315000D01*
X128685750Y-101315000D01*
X128527000Y-101473750D01*
X128273000Y-101473750D01*
X128114250Y-101315000D01*
X127673691Y-101315000D01*
X127440302Y-101411673D01*
X127299064Y-101552910D01*
X127264090Y-101498559D01*
X127051890Y-101353569D01*
X126800000Y-101302560D01*
X125600000Y-101302560D01*
X125364683Y-101346838D01*
X125148559Y-101485910D01*
X125009110Y-101690000D01*
X124785103Y-101690000D01*
X124783162Y-101679683D01*
X124644090Y-101463559D01*
X124431890Y-101318569D01*
X124180000Y-101267560D01*
X122020000Y-101267560D01*
X121784683Y-101311838D01*
X121568559Y-101450910D01*
X121423569Y-101663110D01*
X121372560Y-101915000D01*
X121372560Y-102152756D01*
X120454352Y-101234548D01*
X123083394Y-101234240D01*
X123317227Y-101189590D01*
X123528477Y-101052075D01*
X123669584Y-100843207D01*
X123718311Y-100595897D01*
X123683899Y-94060000D01*
X126156691Y-94060000D01*
X126272923Y-94341303D01*
X126535713Y-94604552D01*
X126879241Y-94747198D01*
X127251207Y-94747522D01*
X127594983Y-94605477D01*
X127858232Y-94342687D01*
X128000878Y-93999159D01*
X128001202Y-93627193D01*
X127859157Y-93283417D01*
X127596367Y-93020168D01*
X127252839Y-92877522D01*
X127205963Y-92877481D01*
X127091081Y-92762599D01*
X126844519Y-92597852D01*
X126553680Y-92540000D01*
X123675897Y-92540000D01*
X123642111Y-86122977D01*
X123598538Y-85895128D01*
X123526493Y-85783331D01*
X124131372Y-85533400D01*
X125154806Y-84511751D01*
X125709368Y-83176218D01*
X125710338Y-82063691D01*
X128135000Y-82063691D01*
X128135000Y-82754250D01*
X128293750Y-82913000D01*
X129493000Y-82913000D01*
X129493000Y-80627000D01*
X128299181Y-80627000D01*
X128178514Y-80856892D01*
X128424817Y-81381358D01*
X128624208Y-81563070D01*
X128410301Y-81651673D01*
X128231673Y-81830302D01*
X128135000Y-82063691D01*
X125710338Y-82063691D01*
X125710630Y-81730126D01*
X125158400Y-80393628D01*
X124908317Y-80143108D01*
X128178514Y-80143108D01*
X128299181Y-80373000D01*
X129493000Y-80373000D01*
X129493000Y-79179845D01*
X129263110Y-79058524D01*
X128853076Y-79228355D01*
X128424817Y-79618642D01*
X128178514Y-80143108D01*
X124908317Y-80143108D01*
X124136751Y-79370194D01*
X122801218Y-78815632D01*
X121355126Y-78814370D01*
X120018628Y-79366600D01*
X118995194Y-80388249D01*
X118440632Y-81723782D01*
X118439370Y-83169874D01*
X118991600Y-84506372D01*
X119976855Y-85493349D01*
X111627495Y-85498940D01*
X111398267Y-85541923D01*
X111186032Y-85677913D01*
X111043427Y-85885761D01*
X110992921Y-86132714D01*
X110971126Y-97425409D01*
X110395463Y-96032199D01*
X109303549Y-94938377D01*
X107876165Y-94345676D01*
X106330616Y-94344327D01*
X104902199Y-94934537D01*
X103808377Y-96026451D01*
X103215676Y-97453835D01*
X103214327Y-98999384D01*
X103804537Y-100427801D01*
X104896451Y-101521623D01*
X106309158Y-102108229D01*
X104923104Y-102670689D01*
X104875658Y-102702392D01*
X104502627Y-103203022D01*
X107100000Y-105800395D01*
X109697373Y-103203022D01*
X109324342Y-102702392D01*
X107903191Y-102101704D01*
X109297801Y-101525463D01*
X110391623Y-100433549D01*
X110967999Y-99045480D01*
X110965001Y-100598774D01*
X111008427Y-100830795D01*
X111144827Y-101042767D01*
X111352949Y-101184971D01*
X111600000Y-101235000D01*
X111906975Y-101235000D01*
X111766673Y-101375301D01*
X111670000Y-101608690D01*
X111670000Y-105614250D01*
X111828750Y-105773000D01*
X115673000Y-105773000D01*
X115673000Y-105753000D01*
X115927000Y-105753000D01*
X115927000Y-105773000D01*
X119771250Y-105773000D01*
X119930000Y-105614250D01*
X119930000Y-102859800D01*
X120440000Y-103369800D01*
X120440000Y-108837537D01*
X120407808Y-108869673D01*
X120265162Y-109213201D01*
X120264838Y-109585167D01*
X120406883Y-109928943D01*
X120669673Y-110192192D01*
X121013201Y-110334838D01*
X121385167Y-110335162D01*
X121581603Y-110253996D01*
X121768110Y-110381431D01*
X122020000Y-110432440D01*
X122677308Y-110432440D01*
X122940443Y-110695575D01*
X122671057Y-110806883D01*
X122407808Y-111069673D01*
X122265162Y-111413201D01*
X122264838Y-111785167D01*
X122406883Y-112128943D01*
X122669673Y-112392192D01*
X123013201Y-112534838D01*
X123060077Y-112534879D01*
X124162599Y-113637401D01*
X124409160Y-113802148D01*
X124700000Y-113860000D01*
X125285198Y-113860000D01*
X128840000Y-117414802D01*
X128840000Y-117874196D01*
X125340543Y-114374739D01*
X125093981Y-114209992D01*
X124803142Y-114152140D01*
X124288403Y-114152140D01*
X124256267Y-114119948D01*
X123912739Y-113977302D01*
X123540773Y-113976978D01*
X123196997Y-114119023D01*
X123193359Y-114122655D01*
X123143117Y-114001059D01*
X122880327Y-113737810D01*
X122536799Y-113595164D01*
X122164833Y-113594840D01*
X121821057Y-113736885D01*
X121787882Y-113770002D01*
X118294804Y-113770002D01*
X116985122Y-112460320D01*
X116985162Y-112414833D01*
X116843117Y-112071057D01*
X116580327Y-111807808D01*
X116236799Y-111665162D01*
X115864833Y-111664838D01*
X115521057Y-111806883D01*
X115257808Y-112069673D01*
X115115162Y-112413201D01*
X115114838Y-112785167D01*
X115256883Y-113128943D01*
X115519673Y-113392192D01*
X115863201Y-113534838D01*
X115910077Y-113534879D01*
X117442601Y-115067403D01*
X117689163Y-115232150D01*
X117980002Y-115290002D01*
X121787537Y-115290002D01*
X121819673Y-115322194D01*
X122163201Y-115464840D01*
X122535167Y-115465164D01*
X122878943Y-115323119D01*
X122882581Y-115319487D01*
X122932823Y-115441083D01*
X123195613Y-115704332D01*
X123539141Y-115846978D01*
X123911107Y-115847302D01*
X124254883Y-115705257D01*
X124288058Y-115672140D01*
X124488340Y-115672140D01*
X127498634Y-118682434D01*
X127490102Y-118702981D01*
X127489778Y-119074947D01*
X127631823Y-119418723D01*
X127882998Y-119670337D01*
X127882998Y-119683748D01*
X127724250Y-119525000D01*
X127433690Y-119525000D01*
X127200301Y-119621673D01*
X127021673Y-119800302D01*
X126925000Y-120033691D01*
X126925000Y-120474250D01*
X127083750Y-120633000D01*
X127883000Y-120633000D01*
X127883000Y-120613000D01*
X128137000Y-120613000D01*
X128137000Y-120633000D01*
X128936250Y-120633000D01*
X129095000Y-120474250D01*
X129095000Y-120033691D01*
X128998327Y-119800302D01*
X128902255Y-119704229D01*
X128953883Y-119682897D01*
X129007232Y-119629641D01*
X129069673Y-119692192D01*
X129413201Y-119834838D01*
X129577560Y-119834981D01*
X129577560Y-120350000D01*
X129621838Y-120585317D01*
X129750226Y-120784837D01*
X129748559Y-120785910D01*
X129603569Y-120998110D01*
X129552560Y-121250000D01*
X129552560Y-121850000D01*
X129596838Y-122085317D01*
X129670634Y-122200000D01*
X129077334Y-122200000D01*
X129063162Y-122124683D01*
X128924090Y-121908559D01*
X128855994Y-121862031D01*
X128998327Y-121719698D01*
X129095000Y-121486309D01*
X129095000Y-121045750D01*
X128936250Y-120887000D01*
X128137000Y-120887000D01*
X128137000Y-120907000D01*
X127883000Y-120907000D01*
X127883000Y-120887000D01*
X127083750Y-120887000D01*
X126925000Y-121045750D01*
X126925000Y-121486309D01*
X127021673Y-121719698D01*
X127162910Y-121860936D01*
X127108559Y-121895910D01*
X126963569Y-122108110D01*
X126912560Y-122360000D01*
X126912560Y-123560000D01*
X126956838Y-123795317D01*
X127095910Y-124011441D01*
X127308110Y-124156431D01*
X127560000Y-124207440D01*
X128460000Y-124207440D01*
X128695317Y-124163162D01*
X128911441Y-124024090D01*
X129056431Y-123811890D01*
X129075039Y-123720000D01*
X129584548Y-123720000D01*
X129596838Y-123785317D01*
X129735910Y-124001441D01*
X129948110Y-124146431D01*
X130200000Y-124197440D01*
X131000000Y-124197440D01*
X131235317Y-124153162D01*
X131451441Y-124014090D01*
X131596431Y-123801890D01*
X131647440Y-123550000D01*
X131647440Y-122950000D01*
X131603162Y-122714683D01*
X131464090Y-122498559D01*
X131318917Y-122399367D01*
X131451441Y-122314090D01*
X131596431Y-122101890D01*
X131647440Y-121850000D01*
X131647440Y-121250000D01*
X131603162Y-121014683D01*
X131464090Y-120798559D01*
X131445658Y-120785965D01*
X131571431Y-120601890D01*
X131590039Y-120510000D01*
X132232560Y-120510000D01*
X132232560Y-120950000D01*
X132276838Y-121185317D01*
X132415910Y-121401441D01*
X132486612Y-121449750D01*
X132453569Y-121498110D01*
X132402560Y-121750000D01*
X132402560Y-123250000D01*
X132446838Y-123485317D01*
X132585910Y-123701441D01*
X132798110Y-123846431D01*
X133050000Y-123897440D01*
X135050000Y-123897440D01*
X135285317Y-123853162D01*
X135312957Y-123835376D01*
X135369673Y-123892192D01*
X135713201Y-124034838D01*
X136085167Y-124035162D01*
X136428943Y-123893117D01*
X136692192Y-123630327D01*
X136834838Y-123286799D01*
X136835162Y-122914833D01*
X136765997Y-122747440D01*
X141800000Y-122747440D01*
X142035317Y-122703162D01*
X142251441Y-122564090D01*
X142396431Y-122351890D01*
X142447440Y-122100000D01*
X142447440Y-121047453D01*
X142578943Y-120993117D01*
X142842192Y-120730327D01*
X142984838Y-120386799D01*
X142985162Y-120014833D01*
X142843117Y-119671057D01*
X142580327Y-119407808D01*
X142447440Y-119352628D01*
X142447440Y-118300000D01*
X142403162Y-118064683D01*
X142264090Y-117848559D01*
X142051890Y-117703569D01*
X141800000Y-117652560D01*
X135800000Y-117652560D01*
X135611157Y-117688093D01*
X135685000Y-117614250D01*
X135685000Y-117023690D01*
X135588327Y-116790301D01*
X135409698Y-116611673D01*
X135176309Y-116515000D01*
X134335750Y-116515000D01*
X134177000Y-116673750D01*
X134177000Y-117773000D01*
X134197000Y-117773000D01*
X134197000Y-118027000D01*
X134177000Y-118027000D01*
X134177000Y-118047000D01*
X133923000Y-118047000D01*
X133923000Y-118027000D01*
X132573750Y-118027000D01*
X132415000Y-118185750D01*
X132415000Y-118776310D01*
X132486402Y-118948689D01*
X132428559Y-118985910D01*
X132425764Y-118990000D01*
X131592334Y-118990000D01*
X131578162Y-118914683D01*
X131511671Y-118811354D01*
X131513327Y-118809698D01*
X131610000Y-118576309D01*
X131610000Y-118135750D01*
X131451250Y-117977000D01*
X130727000Y-117977000D01*
X130727000Y-117997000D01*
X130473000Y-117997000D01*
X130473000Y-117977000D01*
X130453000Y-117977000D01*
X130453000Y-117723000D01*
X130473000Y-117723000D01*
X130473000Y-116773750D01*
X130727000Y-116773750D01*
X130727000Y-117723000D01*
X131451250Y-117723000D01*
X131610000Y-117564250D01*
X131610000Y-117123691D01*
X131513327Y-116890302D01*
X131334699Y-116711673D01*
X131101310Y-116615000D01*
X130885750Y-116615000D01*
X130727000Y-116773750D01*
X130473000Y-116773750D01*
X130314250Y-116615000D01*
X130172414Y-116615000D01*
X130137401Y-116562599D01*
X126509802Y-112935000D01*
X129159086Y-112935000D01*
X129207630Y-112983629D01*
X129240000Y-112997070D01*
X129240000Y-113500000D01*
X129297852Y-113790839D01*
X129462599Y-114037401D01*
X131764878Y-116339680D01*
X131764838Y-116385167D01*
X131906883Y-116728943D01*
X132169673Y-116992192D01*
X132415000Y-117094061D01*
X132415000Y-117614250D01*
X132573750Y-117773000D01*
X133923000Y-117773000D01*
X133923000Y-116673750D01*
X133764250Y-116515000D01*
X133581604Y-116515000D01*
X133634838Y-116386799D01*
X133635162Y-116014833D01*
X133493117Y-115671057D01*
X133230327Y-115407808D01*
X132886799Y-115265162D01*
X132839923Y-115265121D01*
X130760000Y-113185198D01*
X130760000Y-112997531D01*
X130790303Y-112985010D01*
X131183629Y-112592370D01*
X131396757Y-112079100D01*
X131397242Y-111523339D01*
X131185010Y-111009697D01*
X130792370Y-110616371D01*
X130279100Y-110403243D01*
X129723339Y-110402758D01*
X129209697Y-110614990D01*
X129159600Y-110665000D01*
X126120132Y-110665000D01*
X124827440Y-109372308D01*
X124827440Y-108715000D01*
X124821795Y-108685000D01*
X125047062Y-108685000D01*
X125085456Y-108723461D01*
X125594318Y-108934759D01*
X126145305Y-108935240D01*
X126654535Y-108724831D01*
X127044481Y-108335564D01*
X127255779Y-107826702D01*
X127255819Y-107780213D01*
X129199392Y-107780213D01*
X129268857Y-108022397D01*
X129792302Y-108209144D01*
X130347368Y-108181362D01*
X130731143Y-108022397D01*
X130800608Y-107780213D01*
X130000000Y-106979605D01*
X129199392Y-107780213D01*
X127255819Y-107780213D01*
X127256260Y-107275715D01*
X127045851Y-106766485D01*
X126871972Y-106592302D01*
X128590856Y-106592302D01*
X128618638Y-107147368D01*
X128777603Y-107531143D01*
X129019787Y-107600608D01*
X129820395Y-106800000D01*
X129019787Y-105999392D01*
X128777603Y-106068857D01*
X128590856Y-106592302D01*
X126871972Y-106592302D01*
X126656584Y-106376539D01*
X126147722Y-106165241D01*
X125596735Y-106164760D01*
X125087505Y-106375169D01*
X125047605Y-106415000D01*
X124815000Y-106415000D01*
X124815000Y-106135750D01*
X124656250Y-105977000D01*
X123227000Y-105977000D01*
X123227000Y-105997000D01*
X122973000Y-105997000D01*
X122973000Y-105977000D01*
X122953000Y-105977000D01*
X122953000Y-105723000D01*
X122973000Y-105723000D01*
X122973000Y-105703000D01*
X123227000Y-105703000D01*
X123227000Y-105723000D01*
X124656250Y-105723000D01*
X124815000Y-105564250D01*
X124815000Y-105285000D01*
X124900776Y-105285000D01*
X124924116Y-105308381D01*
X125432978Y-105519679D01*
X125983965Y-105520160D01*
X126493195Y-105309751D01*
X126533095Y-105269920D01*
X130673000Y-105269920D01*
X130673000Y-105556860D01*
X130207698Y-105390856D01*
X129652632Y-105418638D01*
X129268857Y-105577603D01*
X129199392Y-105819787D01*
X130000000Y-106620395D01*
X130014143Y-106606253D01*
X130193748Y-106785858D01*
X130179605Y-106800000D01*
X130980213Y-107600608D01*
X131222397Y-107531143D01*
X131366581Y-107127000D01*
X133799498Y-107127000D01*
X136876397Y-110203899D01*
X136703243Y-110620900D01*
X136702758Y-111176661D01*
X136914990Y-111690303D01*
X137307630Y-112083629D01*
X137820900Y-112296757D01*
X137891687Y-112296819D01*
X140194313Y-114599445D01*
X140002513Y-114599278D01*
X139658737Y-114741323D01*
X139556862Y-114843020D01*
X138728303Y-114843020D01*
X138696167Y-114810828D01*
X138352639Y-114668182D01*
X137980673Y-114667858D01*
X137636897Y-114809903D01*
X137373648Y-115072693D01*
X137231002Y-115416221D01*
X137230678Y-115788187D01*
X137372723Y-116131963D01*
X137635513Y-116395212D01*
X137979041Y-116537858D01*
X138351007Y-116538182D01*
X138694783Y-116396137D01*
X138727958Y-116363020D01*
X139744985Y-116363020D01*
X140000881Y-116469278D01*
X140372847Y-116469602D01*
X140716623Y-116327557D01*
X140979872Y-116064767D01*
X141122518Y-115721239D01*
X141122686Y-115527818D01*
X143647433Y-118052565D01*
X144015654Y-118298603D01*
X144449436Y-118384887D01*
X143945194Y-118888249D01*
X143390632Y-120223782D01*
X143389370Y-121669874D01*
X143941600Y-123006372D01*
X144963249Y-124029806D01*
X146298782Y-124584368D01*
X147744874Y-124585630D01*
X149081372Y-124033400D01*
X150104806Y-123011751D01*
X150659368Y-121676218D01*
X150660630Y-120230126D01*
X150108400Y-118893628D01*
X149600658Y-118384999D01*
X150711207Y-118384999D01*
X150854743Y-118528535D01*
X151222963Y-118774572D01*
X151657309Y-118860969D01*
X156185091Y-118860969D01*
X156619437Y-118774572D01*
X156987657Y-118528535D01*
X158708000Y-116808192D01*
X158708000Y-125499000D01*
X108428000Y-125499000D01*
X108428000Y-121669874D01*
X118439370Y-121669874D01*
X118991600Y-123006372D01*
X120013249Y-124029806D01*
X121348782Y-124584368D01*
X122794874Y-124585630D01*
X124131372Y-124033400D01*
X125154806Y-123011751D01*
X125709368Y-121676218D01*
X125710630Y-120230126D01*
X125158400Y-118893628D01*
X124136751Y-117870194D01*
X122801218Y-117315632D01*
X121355126Y-117314370D01*
X120018628Y-117866600D01*
X118995194Y-118888249D01*
X118440632Y-120223782D01*
X118439370Y-121669874D01*
X108428000Y-121669874D01*
X108428000Y-111709000D01*
X108373954Y-111437295D01*
X108220046Y-111206954D01*
X107989705Y-111053046D01*
X107718000Y-110999000D01*
X93928000Y-110999000D01*
X93928000Y-105939384D01*
X94314327Y-105939384D01*
X94904537Y-107367801D01*
X95996451Y-108461623D01*
X97423835Y-109054324D01*
X98969384Y-109055673D01*
X99692280Y-108756978D01*
X104502627Y-108756978D01*
X104875658Y-109257608D01*
X106299262Y-109859333D01*
X107844772Y-109870466D01*
X109276896Y-109289311D01*
X109324342Y-109257608D01*
X109697373Y-108756978D01*
X107100000Y-106159605D01*
X104502627Y-108756978D01*
X99692280Y-108756978D01*
X100397801Y-108465463D01*
X101491623Y-107373549D01*
X101761018Y-106724772D01*
X103209534Y-106724772D01*
X103790689Y-108156896D01*
X103822392Y-108204342D01*
X104323022Y-108577373D01*
X106920395Y-105980000D01*
X107279605Y-105980000D01*
X109876978Y-108577373D01*
X110377608Y-108204342D01*
X110979333Y-106780738D01*
X110983618Y-106185750D01*
X111670000Y-106185750D01*
X111670000Y-110191310D01*
X111766673Y-110424699D01*
X111945302Y-110603327D01*
X112178691Y-110700000D01*
X115514250Y-110700000D01*
X115673000Y-110541250D01*
X115673000Y-106027000D01*
X115927000Y-106027000D01*
X115927000Y-110541250D01*
X116085750Y-110700000D01*
X119421309Y-110700000D01*
X119654698Y-110603327D01*
X119833327Y-110424699D01*
X119930000Y-110191310D01*
X119930000Y-106185750D01*
X119771250Y-106027000D01*
X115927000Y-106027000D01*
X115673000Y-106027000D01*
X111828750Y-106027000D01*
X111670000Y-106185750D01*
X110983618Y-106185750D01*
X110990466Y-105235228D01*
X110409311Y-103803104D01*
X110377608Y-103755658D01*
X109876978Y-103382627D01*
X107279605Y-105980000D01*
X106920395Y-105980000D01*
X104323022Y-103382627D01*
X103822392Y-103755658D01*
X103220667Y-105179262D01*
X103209534Y-106724772D01*
X101761018Y-106724772D01*
X102084324Y-105946165D01*
X102085673Y-104400616D01*
X101495463Y-102972199D01*
X100403549Y-101878377D01*
X98990842Y-101291771D01*
X100376896Y-100729311D01*
X100424342Y-100697608D01*
X100797373Y-100196978D01*
X98200000Y-97599605D01*
X95602627Y-100196978D01*
X95975658Y-100697608D01*
X97396809Y-101298296D01*
X96002199Y-101874537D01*
X94908377Y-102966451D01*
X94315676Y-104393835D01*
X94314327Y-105939384D01*
X93928000Y-105939384D01*
X93928000Y-98164772D01*
X94309534Y-98164772D01*
X94890689Y-99596896D01*
X94922392Y-99644342D01*
X95423022Y-100017373D01*
X98020395Y-97420000D01*
X98379605Y-97420000D01*
X100976978Y-100017373D01*
X101477608Y-99644342D01*
X102079333Y-98220738D01*
X102090466Y-96675228D01*
X101509311Y-95243104D01*
X101477608Y-95195658D01*
X100976978Y-94822627D01*
X98379605Y-97420000D01*
X98020395Y-97420000D01*
X95423022Y-94822627D01*
X94922392Y-95195658D01*
X94320667Y-96619262D01*
X94309534Y-98164772D01*
X93928000Y-98164772D01*
X93928000Y-94643022D01*
X95602627Y-94643022D01*
X98200000Y-97240395D01*
X100797373Y-94643022D01*
X100424342Y-94142392D01*
X99000738Y-93540667D01*
X97455228Y-93529534D01*
X96023104Y-94110689D01*
X95975658Y-94142392D01*
X95602627Y-94643022D01*
X93928000Y-94643022D01*
X93928000Y-92819000D01*
X107718000Y-92819000D01*
X107989705Y-92764954D01*
X108220046Y-92611046D01*
X108373954Y-92380705D01*
X108428000Y-92109000D01*
X108428000Y-78319000D01*
X157958000Y-78319000D01*
X157958000Y-85894499D01*
M02*
