G04 #@! TF.FileFunction,Paste,Top*
%FSLAX46Y46*%
G04 Gerber Fmt 4.6, Leading zero omitted, Abs format (unit mm)*
G04 Created by KiCad (PCBNEW 4.0.7-e2-6376~58~ubuntu17.04.1) date Sun Sep 24 18:19:53 2017*
%MOMM*%
%LPD*%
G01*
G04 APERTURE LIST*
%ADD10C,0.100000*%
%ADD11R,0.750000X1.200000*%
%ADD12R,1.200000X0.750000*%
%ADD13R,0.800000X0.800000*%
%ADD14R,0.800000X0.600000*%
%ADD15R,1.000000X0.900000*%
%ADD16R,0.900000X1.000000*%
%ADD17R,0.800000X0.900000*%
%ADD18R,0.900000X1.200000*%
%ADD19R,1.500000X1.300000*%
%ADD20R,1.200000X0.900000*%
%ADD21R,2.160000X1.070000*%
%ADD22R,6.990000X8.330000*%
%ADD23R,0.650000X0.350000*%
%ADD24R,0.600000X0.480000*%
%ADD25R,8.000000X5.000000*%
%ADD26R,0.500000X1.900000*%
%ADD27R,4.100000X4.400000*%
%ADD28R,6.000000X3.800000*%
%ADD29R,3.000000X1.500000*%
%ADD30R,2.000000X1.500000*%
G04 APERTURE END LIST*
D10*
D11*
X130600000Y-119750000D03*
X130600000Y-117850000D03*
D12*
X141200000Y-100650000D03*
X143100000Y-100650000D03*
D13*
X148700000Y-102100000D03*
X147100000Y-102100000D03*
D14*
X130600000Y-123250000D03*
X130600000Y-121550000D03*
D15*
X156550000Y-82000000D03*
X156550000Y-80400000D03*
X152450000Y-82000000D03*
X152450000Y-80400000D03*
D16*
X148500000Y-95100000D03*
X146900000Y-95100000D03*
X148500000Y-99200000D03*
X146900000Y-99200000D03*
D17*
X143225000Y-102850000D03*
X141325000Y-102850000D03*
X142275000Y-104850000D03*
X142850000Y-94100000D03*
X140950000Y-94100000D03*
X141900000Y-96100000D03*
D18*
X128010000Y-122960000D03*
X128010000Y-120760000D03*
X120100000Y-95500000D03*
X120100000Y-93300000D03*
D19*
X115250000Y-99000000D03*
X117950000Y-99000000D03*
D20*
X143175000Y-98200000D03*
X140975000Y-98200000D03*
X140950000Y-91600000D03*
X143150000Y-91600000D03*
D21*
X123100000Y-102450000D03*
X123100000Y-104150000D03*
X123100000Y-107550000D03*
X123100000Y-105850000D03*
X123100000Y-109250000D03*
D22*
X115800000Y-105900000D03*
D23*
X155950000Y-113750000D03*
X155950000Y-113100000D03*
X155950000Y-112450000D03*
X153850000Y-112450000D03*
X153850000Y-113100000D03*
X153850000Y-113750000D03*
D24*
X154900000Y-112700000D03*
X154900000Y-113500000D03*
D25*
X153400000Y-88700000D03*
D20*
X126200000Y-102400000D03*
X128400000Y-102400000D03*
D26*
X115570000Y-90300000D03*
X116840000Y-90300000D03*
X118110000Y-90300000D03*
X114300000Y-90300000D03*
D27*
X116200000Y-94100000D03*
D28*
X138800000Y-120200000D03*
D29*
X134380000Y-120200000D03*
D30*
X134050000Y-122500000D03*
X134050000Y-117900000D03*
D20*
X152687020Y-99184460D03*
X154887020Y-99184460D03*
X152709700Y-101046280D03*
X154909700Y-101046280D03*
M02*
