G04 #@! TF.FileFunction,Paste,Bot*
%FSLAX46Y46*%
G04 Gerber Fmt 4.6, Leading zero omitted, Abs format (unit mm)*
G04 Created by KiCad (PCBNEW 4.0.7-e2-6376~58~ubuntu17.04.1) date Thu Oct 26 10:47:40 2017*
%MOMM*%
%LPD*%
G01*
G04 APERTURE LIST*
%ADD10C,0.100000*%
%ADD11R,1.000000X2.000000*%
%ADD12R,2.000000X1.000000*%
%ADD13R,4.000000X4.000000*%
%ADD14R,1.600000X2.000000*%
%ADD15R,0.750000X1.200000*%
%ADD16R,1.200000X0.750000*%
%ADD17R,2.500000X1.800000*%
%ADD18R,0.500000X1.900000*%
%ADD19R,4.100000X4.400000*%
%ADD20R,1.500000X1.300000*%
%ADD21R,0.900000X1.200000*%
%ADD22R,0.600000X0.450000*%
%ADD23R,0.450000X0.600000*%
%ADD24R,0.400000X1.560000*%
%ADD25R,1.250000X0.450000*%
%ADD26R,1.600000X2.500000*%
%ADD27R,5.000000X8.000000*%
G04 APERTURE END LIST*
D10*
D11*
X140750000Y-91170000D03*
X140778000Y-109204000D03*
D12*
X156244000Y-104632000D03*
X156244000Y-105902000D03*
X156244000Y-99552000D03*
X156244000Y-100822000D03*
X156244000Y-103362000D03*
X156244000Y-102092000D03*
X156244000Y-97012000D03*
X156244000Y-98282000D03*
X156244000Y-95742000D03*
X156244000Y-94472000D03*
D11*
X138230000Y-109188000D03*
X139508000Y-109204000D03*
X143318000Y-109204000D03*
X142040000Y-109188000D03*
X147120000Y-109188000D03*
X148398000Y-109204000D03*
X145858000Y-109204000D03*
X144580000Y-109188000D03*
X154740000Y-109188000D03*
X152200000Y-109188000D03*
X153478000Y-109204000D03*
X150938000Y-109204000D03*
X149660000Y-109188000D03*
X149660000Y-91154000D03*
X150938000Y-91170000D03*
X153478000Y-91170000D03*
X152200000Y-91154000D03*
X154740000Y-91154000D03*
X144580000Y-91154000D03*
X145858000Y-91170000D03*
X148398000Y-91170000D03*
X147120000Y-91154000D03*
X142040000Y-91154000D03*
X143318000Y-91170000D03*
X139480000Y-91170000D03*
X138210000Y-91170000D03*
D13*
X146896800Y-99496120D03*
D14*
X142740000Y-113560000D03*
X142740000Y-117560000D03*
D15*
X145140000Y-113110000D03*
X145140000Y-115010000D03*
D16*
X153690000Y-112860000D03*
X151790000Y-112860000D03*
D15*
X152240000Y-121510000D03*
X152240000Y-123410000D03*
D16*
X156290000Y-115660000D03*
X158190000Y-115660000D03*
D17*
X119140000Y-107160000D03*
X123140000Y-107160000D03*
D18*
X114090000Y-110390000D03*
X112820000Y-110390000D03*
X111550000Y-110390000D03*
X115360000Y-110390000D03*
D19*
X113460000Y-114190000D03*
D20*
X112350000Y-106840000D03*
X115050000Y-106840000D03*
D21*
X157640000Y-110060000D03*
X157640000Y-107860000D03*
X138440000Y-115960000D03*
X138440000Y-113760000D03*
X121940000Y-98160000D03*
X121940000Y-100360000D03*
X154140000Y-115760000D03*
X154140000Y-117960000D03*
X152240000Y-115760000D03*
X152240000Y-117960000D03*
D22*
X156440000Y-118010000D03*
X156440000Y-119360000D03*
X157640000Y-119360000D03*
X157640000Y-118010000D03*
D23*
X156440000Y-118310000D03*
D24*
X149020000Y-115910000D03*
X148370000Y-115910000D03*
X147710000Y-115910000D03*
X147060000Y-115910000D03*
X147060000Y-113210000D03*
X147710000Y-113210000D03*
X148370000Y-113210000D03*
X149020000Y-113210000D03*
D25*
X157420000Y-121160000D03*
X157420000Y-122160000D03*
X157420000Y-123160000D03*
X154120000Y-122160000D03*
X154120000Y-121160000D03*
X154120000Y-123160000D03*
D26*
X155770000Y-122160000D03*
D27*
X154340000Y-82560000D03*
D21*
X140340000Y-113760000D03*
X140340000Y-115960000D03*
M02*
