G04 #@! TF.GenerationSoftware,KiCad,Pcbnew,6.0.0-rc1-unknown-7a10feb~66~ubuntu18.04.1*
G04 #@! TF.CreationDate,2018-08-22T16:05:21-05:00*
G04 #@! TF.ProjectId,smart-regulator,736D6172742D726567756C61746F722E,rev?*
G04 #@! TF.SameCoordinates,Original*
G04 #@! TF.FileFunction,Copper,L1,Top,Signal*
G04 #@! TF.FilePolarity,Positive*
%FSLAX46Y46*%
G04 Gerber Fmt 4.6, Leading zero omitted, Abs format (unit mm)*
G04 Created by KiCad (PCBNEW 6.0.0-rc1-unknown-7a10feb~66~ubuntu18.04.1) date Wed Aug 22 16:05:21 2018*
%MOMM*%
%LPD*%
G01*
G04 APERTURE LIST*
G04 #@! TA.AperFunction,SMDPad,CuDef*
%ADD10R,2.000000X1.000000*%
G04 #@! TD*
G04 #@! TA.AperFunction,SMDPad,CuDef*
%ADD11R,1.000000X2.000000*%
G04 #@! TD*
G04 #@! TA.AperFunction,SMDPad,CuDef*
%ADD12R,4.000000X4.000000*%
G04 #@! TD*
G04 #@! TA.AperFunction,SMDPad,CuDef*
%ADD13R,0.700000X0.250000*%
G04 #@! TD*
G04 #@! TA.AperFunction,SMDPad,CuDef*
%ADD14R,1.780000X2.350000*%
G04 #@! TD*
G04 #@! TA.AperFunction,ComponentPad*
%ADD15C,6.500000*%
G04 #@! TD*
G04 #@! TA.AperFunction,ComponentPad*
%ADD16C,4.000000*%
G04 #@! TD*
G04 #@! TA.AperFunction,ComponentPad*
%ADD17C,1.500000*%
G04 #@! TD*
G04 #@! TA.AperFunction,SMDPad,CuDef*
%ADD18R,3.000000X1.070000*%
G04 #@! TD*
G04 #@! TA.AperFunction,SMDPad,CuDef*
%ADD19R,9.000000X8.330000*%
G04 #@! TD*
G04 #@! TA.AperFunction,SMDPad,CuDef*
%ADD20R,0.850000X0.300000*%
G04 #@! TD*
G04 #@! TA.AperFunction,SMDPad,CuDef*
%ADD21R,0.300000X0.850000*%
G04 #@! TD*
G04 #@! TA.AperFunction,SMDPad,CuDef*
%ADD22R,1.270000X0.800000*%
G04 #@! TD*
G04 #@! TA.AperFunction,SMDPad,CuDef*
%ADD23R,0.450000X1.250000*%
G04 #@! TD*
G04 #@! TA.AperFunction,SMDPad,CuDef*
%ADD24R,2.500000X1.600000*%
G04 #@! TD*
G04 #@! TA.AperFunction,SMDPad,CuDef*
%ADD25R,0.450000X0.600000*%
G04 #@! TD*
G04 #@! TA.AperFunction,SMDPad,CuDef*
%ADD26R,0.600000X0.450000*%
G04 #@! TD*
G04 #@! TA.AperFunction,Conductor*
%ADD27C,0.100000*%
G04 #@! TD*
G04 #@! TA.AperFunction,SMDPad,CuDef*
%ADD28C,0.950000*%
G04 #@! TD*
G04 #@! TA.AperFunction,SMDPad,CuDef*
%ADD29C,0.875000*%
G04 #@! TD*
G04 #@! TA.AperFunction,ComponentPad*
%ADD30C,5.600000*%
G04 #@! TD*
G04 #@! TA.AperFunction,ComponentPad*
%ADD31R,1.700000X1.700000*%
G04 #@! TD*
G04 #@! TA.AperFunction,ComponentPad*
%ADD32O,1.700000X1.700000*%
G04 #@! TD*
G04 #@! TA.AperFunction,SMDPad,CuDef*
%ADD33R,1.000000X0.900000*%
G04 #@! TD*
G04 #@! TA.AperFunction,ViaPad*
%ADD34C,0.600000*%
G04 #@! TD*
G04 #@! TA.AperFunction,ViaPad*
%ADD35C,0.800000*%
G04 #@! TD*
G04 #@! TA.AperFunction,ViaPad*
%ADD36C,1.500000*%
G04 #@! TD*
G04 #@! TA.AperFunction,Conductor*
%ADD37C,0.200000*%
G04 #@! TD*
G04 #@! TA.AperFunction,Conductor*
%ADD38C,0.150000*%
G04 #@! TD*
G04 #@! TA.AperFunction,Conductor*
%ADD39C,0.250000*%
G04 #@! TD*
G04 #@! TA.AperFunction,Conductor*
%ADD40C,0.500000*%
G04 #@! TD*
G04 #@! TA.AperFunction,Conductor*
%ADD41C,0.400000*%
G04 #@! TD*
G04 #@! TA.AperFunction,Conductor*
%ADD42C,1.000000*%
G04 #@! TD*
G04 #@! TA.AperFunction,Conductor*
%ADD43C,0.254000*%
G04 #@! TD*
G04 APERTURE END LIST*
D10*
G04 #@! TO.P,U1,3*
G04 #@! TO.N,/EN*
X137473880Y-111853200D03*
G04 #@! TO.P,U1,36*
G04 #@! TO.N,Net-(U1-Pad36)*
X155507880Y-111881200D03*
D11*
G04 #@! TO.P,U1,23*
G04 #@! TO.N,Net-(U1-Pad23)*
X150935880Y-127347200D03*
G04 #@! TO.P,U1,24*
G04 #@! TO.N,/I02*
X152205880Y-127347200D03*
G04 #@! TO.P,U1,19*
G04 #@! TO.N,Net-(U1-Pad19)*
X145855880Y-127347200D03*
G04 #@! TO.P,U1,20*
G04 #@! TO.N,/microcontroller/SCLK*
X147125880Y-127347200D03*
G04 #@! TO.P,U1,22*
G04 #@! TO.N,Net-(U1-Pad22)*
X149665880Y-127347200D03*
G04 #@! TO.P,U1,21*
G04 #@! TO.N,Net-(U1-Pad21)*
X148395880Y-127347200D03*
G04 #@! TO.P,U1,17*
G04 #@! TO.N,Net-(U1-Pad17)*
X143315880Y-127347200D03*
G04 #@! TO.P,U1,18*
G04 #@! TO.N,Net-(U1-Pad18)*
X144585880Y-127347200D03*
G04 #@! TO.P,U1,16*
G04 #@! TO.N,/microcontroller/MOSI*
X142045880Y-127347200D03*
G04 #@! TO.P,U1,1*
G04 #@! TO.N,GND*
X140775880Y-127347200D03*
D10*
X155491880Y-109333200D03*
G04 #@! TO.P,U1,37*
G04 #@! TO.N,Net-(U1-Pad37)*
X155507880Y-110611200D03*
G04 #@! TO.P,U1,34*
G04 #@! TO.N,/RXD*
X155507880Y-114421200D03*
G04 #@! TO.P,U1,35*
G04 #@! TO.N,/TXD*
X155491880Y-113143200D03*
G04 #@! TO.P,U1,31*
G04 #@! TO.N,/SCL*
X155491880Y-118223200D03*
G04 #@! TO.P,U1,30*
G04 #@! TO.N,/SDA*
X155507880Y-119501200D03*
G04 #@! TO.P,U1,32*
G04 #@! TO.N,N/C*
X155507880Y-116961200D03*
G04 #@! TO.P,U1,33*
G04 #@! TO.N,Net-(U1-Pad33)*
X155491880Y-115683200D03*
G04 #@! TO.P,U1,25*
G04 #@! TO.N,/PROG*
X155491880Y-125843200D03*
G04 #@! TO.P,U1,27*
G04 #@! TO.N,Net-(U1-Pad27)*
X155491880Y-123303200D03*
G04 #@! TO.P,U1,26*
G04 #@! TO.N,Net-(U1-Pad26)*
X155507880Y-124581200D03*
G04 #@! TO.P,U1,28*
G04 #@! TO.N,/USB_EN*
X155507880Y-122041200D03*
G04 #@! TO.P,U1,29*
G04 #@! TO.N,Net-(U1-Pad29)*
X155491880Y-120763200D03*
G04 #@! TO.P,U1,10*
G04 #@! TO.N,Net-(U1-Pad10)*
X137457880Y-120763200D03*
G04 #@! TO.P,U1,11*
G04 #@! TO.N,Net-(U1-Pad11)*
X137473880Y-122041200D03*
G04 #@! TO.P,U1,13*
G04 #@! TO.N,/FACTORY*
X137473880Y-124581200D03*
G04 #@! TO.P,U1,12*
G04 #@! TO.N,Net-(U1-Pad12)*
X137457880Y-123303200D03*
G04 #@! TO.P,U1,14*
G04 #@! TO.N,/microcontroller/MISO*
X137457880Y-125843200D03*
G04 #@! TO.P,U1,6*
G04 #@! TO.N,/REG3_EN*
X137457880Y-115683200D03*
G04 #@! TO.P,U1,7*
G04 #@! TO.N,/REG2_EN*
X137473880Y-116961200D03*
G04 #@! TO.P,U1,9*
G04 #@! TO.N,MAIN_CURRENT_SENSE*
X137473880Y-119501200D03*
G04 #@! TO.P,U1,8*
G04 #@! TO.N,/REG1_EN*
X137457880Y-118223200D03*
G04 #@! TO.P,U1,4*
G04 #@! TO.N,Net-(U1-Pad4)*
X137457880Y-113143200D03*
G04 #@! TO.P,U1,5*
G04 #@! TO.N,Net-(U1-Pad5)*
X137473880Y-114421200D03*
G04 #@! TO.P,U1,2*
G04 #@! TO.N,3V3*
X137473880Y-110583200D03*
G04 #@! TO.P,U1,1*
G04 #@! TO.N,GND*
X137473880Y-109313200D03*
D12*
X145800000Y-118000000D03*
G04 #@! TD*
D13*
G04 #@! TO.P,U11,14*
G04 #@! TO.N,/Power/OUT3*
X162225000Y-93600000D03*
G04 #@! TO.P,U11,13*
G04 #@! TO.N,3V3*
X162225000Y-93200000D03*
G04 #@! TO.P,U11,12*
G04 #@! TO.N,/Power/OUT2*
X162225000Y-92800000D03*
G04 #@! TO.P,U11,11*
G04 #@! TO.N,GND*
X162225000Y-92400000D03*
G04 #@! TO.P,U11,10*
G04 #@! TO.N,/Power/OUT1*
X162225000Y-92000000D03*
G04 #@! TO.P,U11,9*
G04 #@! TO.N,GND*
X162225000Y-91600000D03*
G04 #@! TO.P,U11,6*
G04 #@! TO.N,Net-(R17-Pad1)*
X165175000Y-91600000D03*
G04 #@! TO.P,U11,5*
G04 #@! TO.N,Net-(U11-Pad5)*
X165175000Y-92000000D03*
G04 #@! TO.P,U11,4*
G04 #@! TO.N,Net-(U11-Pad4)*
X165175000Y-92400000D03*
G04 #@! TO.P,U11,3*
G04 #@! TO.N,GND*
X165175000Y-92800000D03*
G04 #@! TO.P,U11,2*
G04 #@! TO.N,/SCL*
X165175000Y-93200000D03*
G04 #@! TO.P,U11,1*
G04 #@! TO.N,/SDA*
X165175000Y-93600000D03*
G04 #@! TO.P,U11,7*
G04 #@! TO.N,Net-(R18-Pad1)*
X165175000Y-91200000D03*
G04 #@! TO.P,U11,8*
G04 #@! TO.N,Net-(U11-Pad8)*
X162225000Y-91200000D03*
D14*
G04 #@! TO.P,U11,15*
G04 #@! TO.N,N/C*
X163700000Y-92400000D03*
G04 #@! TD*
D15*
G04 #@! TO.P,PACK3,1*
G04 #@! TO.N,/PACK3*
X166400000Y-118200000D03*
G04 #@! TO.P,PACK3,2*
G04 #@! TO.N,GND*
X174150000Y-118200000D03*
G04 #@! TD*
D16*
G04 #@! TO.P,P1,7*
G04 #@! TO.N,GND*
X116490000Y-102560000D03*
X122190000Y-102560000D03*
X116490000Y-115860000D03*
X122190000Y-115860000D03*
D17*
G04 #@! TO.P,P1,2*
G04 #@! TO.N,/V_USB*
X119490000Y-112710000D03*
G04 #@! TO.P,P1,6*
G04 #@! TO.N,/RXD*
X119490000Y-110210000D03*
G04 #@! TO.P,P1,1*
G04 #@! TO.N,GND*
X119490000Y-105710000D03*
G04 #@! TO.P,P1,5*
G04 #@! TO.N,/TXD*
X119490000Y-108210000D03*
G04 #@! TO.P,P1,1*
G04 #@! TO.N,GND*
X116890000Y-105710000D03*
G04 #@! TO.P,P1,3*
G04 #@! TO.N,/TXD*
X116890000Y-108210000D03*
G04 #@! TO.P,P1,4*
G04 #@! TO.N,/RXD*
X116890000Y-110210000D03*
G04 #@! TO.P,P1,2*
G04 #@! TO.N,/V_USB*
X116890000Y-112710000D03*
G04 #@! TD*
D15*
G04 #@! TO.P,PANEL1,2*
G04 #@! TO.N,GND*
X117240000Y-91560000D03*
G04 #@! TO.P,PANEL1,1*
G04 #@! TO.N,/V_PANEL*
X124990000Y-91560000D03*
G04 #@! TD*
D18*
G04 #@! TO.P,U6,5*
G04 #@! TO.N,Net-(R19-Pad2)*
X149225000Y-90250000D03*
G04 #@! TO.P,U6,4*
G04 #@! TO.N,/V_USB*
X149225000Y-91950000D03*
G04 #@! TO.P,U6,2*
G04 #@! TO.N,/Power/REG_POWER*
X149225000Y-95350000D03*
G04 #@! TO.P,U6,3*
G04 #@! TO.N,GND*
X149225000Y-93650000D03*
G04 #@! TO.P,U6,1*
G04 #@! TO.N,/USB_EN*
X149225000Y-97050000D03*
D19*
G04 #@! TO.P,U6,3*
G04 #@! TO.N,GND*
X140925000Y-93690000D03*
G04 #@! TD*
D20*
G04 #@! TO.P,U7,10*
G04 #@! TO.N,N/C*
X133275000Y-91600000D03*
G04 #@! TO.P,U7,9*
X133275000Y-92100000D03*
G04 #@! TO.P,U7,8*
X133275000Y-92600000D03*
G04 #@! TO.P,U7,7*
X133275000Y-93100000D03*
D21*
G04 #@! TO.P,U7,11*
G04 #@! TO.N,MAIN_CURRENT_SENSE*
X132575000Y-90900000D03*
G04 #@! TO.P,U7,12*
G04 #@! TO.N,3V3*
X132075000Y-90900000D03*
G04 #@! TO.P,U7,6*
G04 #@! TO.N,Net-(R9-Pad2)*
X132575000Y-93900000D03*
G04 #@! TO.P,U7,5*
G04 #@! TO.N,GND*
X132075000Y-93900000D03*
D22*
G04 #@! TO.P,U7,3*
G04 #@! TO.N,/Power/REG_POWER*
X130575000Y-92900000D03*
G04 #@! TO.P,U7,1*
G04 #@! TO.N,/V_PANEL*
X130575000Y-91900000D03*
G04 #@! TD*
D23*
G04 #@! TO.P,U14,1*
G04 #@! TO.N,/SDA*
X173300000Y-91980000D03*
G04 #@! TO.P,U14,2*
G04 #@! TO.N,GND*
X174300000Y-91980000D03*
G04 #@! TO.P,U14,3*
G04 #@! TO.N,N/C*
X175300000Y-91980000D03*
G04 #@! TO.P,U14,5*
G04 #@! TO.N,3V3*
X174300000Y-88680000D03*
G04 #@! TO.P,U14,6*
G04 #@! TO.N,/SCL*
X173300000Y-88680000D03*
G04 #@! TO.P,U14,4*
G04 #@! TO.N,N/C*
X175300000Y-88680000D03*
D24*
G04 #@! TO.P,U14,2*
G04 #@! TO.N,GND*
X174300000Y-90330000D03*
G04 #@! TD*
D25*
G04 #@! TO.P,U15,1*
G04 #@! TO.N,3V3*
X168340000Y-135160000D03*
G04 #@! TO.P,U15,4*
G04 #@! TO.N,/SCL*
X166990000Y-135160000D03*
G04 #@! TO.P,U15,3*
G04 #@! TO.N,/SDA*
X166990000Y-133960000D03*
G04 #@! TO.P,U15,2*
G04 #@! TO.N,GND*
X168340000Y-133960000D03*
D26*
G04 #@! TO.P,U15,1*
G04 #@! TO.N,3V3*
X168040000Y-135160000D03*
G04 #@! TD*
D27*
G04 #@! TO.N,3V3*
G04 #@! TO.C,C12*
G36*
X164575779Y-126446144D02*
X164598834Y-126449563D01*
X164621443Y-126455227D01*
X164643387Y-126463079D01*
X164664457Y-126473044D01*
X164684448Y-126485026D01*
X164703168Y-126498910D01*
X164720438Y-126514562D01*
X164736090Y-126531832D01*
X164749974Y-126550552D01*
X164761956Y-126570543D01*
X164771921Y-126591613D01*
X164779773Y-126613557D01*
X164785437Y-126636166D01*
X164788856Y-126659221D01*
X164790000Y-126682500D01*
X164790000Y-127157500D01*
X164788856Y-127180779D01*
X164785437Y-127203834D01*
X164779773Y-127226443D01*
X164771921Y-127248387D01*
X164761956Y-127269457D01*
X164749974Y-127289448D01*
X164736090Y-127308168D01*
X164720438Y-127325438D01*
X164703168Y-127341090D01*
X164684448Y-127354974D01*
X164664457Y-127366956D01*
X164643387Y-127376921D01*
X164621443Y-127384773D01*
X164598834Y-127390437D01*
X164575779Y-127393856D01*
X164552500Y-127395000D01*
X163977500Y-127395000D01*
X163954221Y-127393856D01*
X163931166Y-127390437D01*
X163908557Y-127384773D01*
X163886613Y-127376921D01*
X163865543Y-127366956D01*
X163845552Y-127354974D01*
X163826832Y-127341090D01*
X163809562Y-127325438D01*
X163793910Y-127308168D01*
X163780026Y-127289448D01*
X163768044Y-127269457D01*
X163758079Y-127248387D01*
X163750227Y-127226443D01*
X163744563Y-127203834D01*
X163741144Y-127180779D01*
X163740000Y-127157500D01*
X163740000Y-126682500D01*
X163741144Y-126659221D01*
X163744563Y-126636166D01*
X163750227Y-126613557D01*
X163758079Y-126591613D01*
X163768044Y-126570543D01*
X163780026Y-126550552D01*
X163793910Y-126531832D01*
X163809562Y-126514562D01*
X163826832Y-126498910D01*
X163845552Y-126485026D01*
X163865543Y-126473044D01*
X163886613Y-126463079D01*
X163908557Y-126455227D01*
X163931166Y-126449563D01*
X163954221Y-126446144D01*
X163977500Y-126445000D01*
X164552500Y-126445000D01*
X164575779Y-126446144D01*
X164575779Y-126446144D01*
G37*
D28*
G04 #@! TD*
G04 #@! TO.P,C12,1*
G04 #@! TO.N,3V3*
X164265000Y-126920000D03*
D27*
G04 #@! TO.N,GND*
G04 #@! TO.C,C12*
G36*
X162825779Y-126446144D02*
X162848834Y-126449563D01*
X162871443Y-126455227D01*
X162893387Y-126463079D01*
X162914457Y-126473044D01*
X162934448Y-126485026D01*
X162953168Y-126498910D01*
X162970438Y-126514562D01*
X162986090Y-126531832D01*
X162999974Y-126550552D01*
X163011956Y-126570543D01*
X163021921Y-126591613D01*
X163029773Y-126613557D01*
X163035437Y-126636166D01*
X163038856Y-126659221D01*
X163040000Y-126682500D01*
X163040000Y-127157500D01*
X163038856Y-127180779D01*
X163035437Y-127203834D01*
X163029773Y-127226443D01*
X163021921Y-127248387D01*
X163011956Y-127269457D01*
X162999974Y-127289448D01*
X162986090Y-127308168D01*
X162970438Y-127325438D01*
X162953168Y-127341090D01*
X162934448Y-127354974D01*
X162914457Y-127366956D01*
X162893387Y-127376921D01*
X162871443Y-127384773D01*
X162848834Y-127390437D01*
X162825779Y-127393856D01*
X162802500Y-127395000D01*
X162227500Y-127395000D01*
X162204221Y-127393856D01*
X162181166Y-127390437D01*
X162158557Y-127384773D01*
X162136613Y-127376921D01*
X162115543Y-127366956D01*
X162095552Y-127354974D01*
X162076832Y-127341090D01*
X162059562Y-127325438D01*
X162043910Y-127308168D01*
X162030026Y-127289448D01*
X162018044Y-127269457D01*
X162008079Y-127248387D01*
X162000227Y-127226443D01*
X161994563Y-127203834D01*
X161991144Y-127180779D01*
X161990000Y-127157500D01*
X161990000Y-126682500D01*
X161991144Y-126659221D01*
X161994563Y-126636166D01*
X162000227Y-126613557D01*
X162008079Y-126591613D01*
X162018044Y-126570543D01*
X162030026Y-126550552D01*
X162043910Y-126531832D01*
X162059562Y-126514562D01*
X162076832Y-126498910D01*
X162095552Y-126485026D01*
X162115543Y-126473044D01*
X162136613Y-126463079D01*
X162158557Y-126455227D01*
X162181166Y-126449563D01*
X162204221Y-126446144D01*
X162227500Y-126445000D01*
X162802500Y-126445000D01*
X162825779Y-126446144D01*
X162825779Y-126446144D01*
G37*
D28*
G04 #@! TD*
G04 #@! TO.P,C12,2*
G04 #@! TO.N,GND*
X162515000Y-126920000D03*
D27*
G04 #@! TO.N,3V3*
G04 #@! TO.C,R1*
G36*
X170135779Y-91526144D02*
X170158834Y-91529563D01*
X170181443Y-91535227D01*
X170203387Y-91543079D01*
X170224457Y-91553044D01*
X170244448Y-91565026D01*
X170263168Y-91578910D01*
X170280438Y-91594562D01*
X170296090Y-91611832D01*
X170309974Y-91630552D01*
X170321956Y-91650543D01*
X170331921Y-91671613D01*
X170339773Y-91693557D01*
X170345437Y-91716166D01*
X170348856Y-91739221D01*
X170350000Y-91762500D01*
X170350000Y-92237500D01*
X170348856Y-92260779D01*
X170345437Y-92283834D01*
X170339773Y-92306443D01*
X170331921Y-92328387D01*
X170321956Y-92349457D01*
X170309974Y-92369448D01*
X170296090Y-92388168D01*
X170280438Y-92405438D01*
X170263168Y-92421090D01*
X170244448Y-92434974D01*
X170224457Y-92446956D01*
X170203387Y-92456921D01*
X170181443Y-92464773D01*
X170158834Y-92470437D01*
X170135779Y-92473856D01*
X170112500Y-92475000D01*
X169537500Y-92475000D01*
X169514221Y-92473856D01*
X169491166Y-92470437D01*
X169468557Y-92464773D01*
X169446613Y-92456921D01*
X169425543Y-92446956D01*
X169405552Y-92434974D01*
X169386832Y-92421090D01*
X169369562Y-92405438D01*
X169353910Y-92388168D01*
X169340026Y-92369448D01*
X169328044Y-92349457D01*
X169318079Y-92328387D01*
X169310227Y-92306443D01*
X169304563Y-92283834D01*
X169301144Y-92260779D01*
X169300000Y-92237500D01*
X169300000Y-91762500D01*
X169301144Y-91739221D01*
X169304563Y-91716166D01*
X169310227Y-91693557D01*
X169318079Y-91671613D01*
X169328044Y-91650543D01*
X169340026Y-91630552D01*
X169353910Y-91611832D01*
X169369562Y-91594562D01*
X169386832Y-91578910D01*
X169405552Y-91565026D01*
X169425543Y-91553044D01*
X169446613Y-91543079D01*
X169468557Y-91535227D01*
X169491166Y-91529563D01*
X169514221Y-91526144D01*
X169537500Y-91525000D01*
X170112500Y-91525000D01*
X170135779Y-91526144D01*
X170135779Y-91526144D01*
G37*
D28*
G04 #@! TD*
G04 #@! TO.P,R1,2*
G04 #@! TO.N,3V3*
X169825000Y-92000000D03*
D27*
G04 #@! TO.N,/SDA*
G04 #@! TO.C,R1*
G36*
X171885779Y-91526144D02*
X171908834Y-91529563D01*
X171931443Y-91535227D01*
X171953387Y-91543079D01*
X171974457Y-91553044D01*
X171994448Y-91565026D01*
X172013168Y-91578910D01*
X172030438Y-91594562D01*
X172046090Y-91611832D01*
X172059974Y-91630552D01*
X172071956Y-91650543D01*
X172081921Y-91671613D01*
X172089773Y-91693557D01*
X172095437Y-91716166D01*
X172098856Y-91739221D01*
X172100000Y-91762500D01*
X172100000Y-92237500D01*
X172098856Y-92260779D01*
X172095437Y-92283834D01*
X172089773Y-92306443D01*
X172081921Y-92328387D01*
X172071956Y-92349457D01*
X172059974Y-92369448D01*
X172046090Y-92388168D01*
X172030438Y-92405438D01*
X172013168Y-92421090D01*
X171994448Y-92434974D01*
X171974457Y-92446956D01*
X171953387Y-92456921D01*
X171931443Y-92464773D01*
X171908834Y-92470437D01*
X171885779Y-92473856D01*
X171862500Y-92475000D01*
X171287500Y-92475000D01*
X171264221Y-92473856D01*
X171241166Y-92470437D01*
X171218557Y-92464773D01*
X171196613Y-92456921D01*
X171175543Y-92446956D01*
X171155552Y-92434974D01*
X171136832Y-92421090D01*
X171119562Y-92405438D01*
X171103910Y-92388168D01*
X171090026Y-92369448D01*
X171078044Y-92349457D01*
X171068079Y-92328387D01*
X171060227Y-92306443D01*
X171054563Y-92283834D01*
X171051144Y-92260779D01*
X171050000Y-92237500D01*
X171050000Y-91762500D01*
X171051144Y-91739221D01*
X171054563Y-91716166D01*
X171060227Y-91693557D01*
X171068079Y-91671613D01*
X171078044Y-91650543D01*
X171090026Y-91630552D01*
X171103910Y-91611832D01*
X171119562Y-91594562D01*
X171136832Y-91578910D01*
X171155552Y-91565026D01*
X171175543Y-91553044D01*
X171196613Y-91543079D01*
X171218557Y-91535227D01*
X171241166Y-91529563D01*
X171264221Y-91526144D01*
X171287500Y-91525000D01*
X171862500Y-91525000D01*
X171885779Y-91526144D01*
X171885779Y-91526144D01*
G37*
D28*
G04 #@! TD*
G04 #@! TO.P,R1,1*
G04 #@! TO.N,/SDA*
X171575000Y-92000000D03*
D27*
G04 #@! TO.N,3V3*
G04 #@! TO.C,R2*
G36*
X170110779Y-88026144D02*
X170133834Y-88029563D01*
X170156443Y-88035227D01*
X170178387Y-88043079D01*
X170199457Y-88053044D01*
X170219448Y-88065026D01*
X170238168Y-88078910D01*
X170255438Y-88094562D01*
X170271090Y-88111832D01*
X170284974Y-88130552D01*
X170296956Y-88150543D01*
X170306921Y-88171613D01*
X170314773Y-88193557D01*
X170320437Y-88216166D01*
X170323856Y-88239221D01*
X170325000Y-88262500D01*
X170325000Y-88737500D01*
X170323856Y-88760779D01*
X170320437Y-88783834D01*
X170314773Y-88806443D01*
X170306921Y-88828387D01*
X170296956Y-88849457D01*
X170284974Y-88869448D01*
X170271090Y-88888168D01*
X170255438Y-88905438D01*
X170238168Y-88921090D01*
X170219448Y-88934974D01*
X170199457Y-88946956D01*
X170178387Y-88956921D01*
X170156443Y-88964773D01*
X170133834Y-88970437D01*
X170110779Y-88973856D01*
X170087500Y-88975000D01*
X169512500Y-88975000D01*
X169489221Y-88973856D01*
X169466166Y-88970437D01*
X169443557Y-88964773D01*
X169421613Y-88956921D01*
X169400543Y-88946956D01*
X169380552Y-88934974D01*
X169361832Y-88921090D01*
X169344562Y-88905438D01*
X169328910Y-88888168D01*
X169315026Y-88869448D01*
X169303044Y-88849457D01*
X169293079Y-88828387D01*
X169285227Y-88806443D01*
X169279563Y-88783834D01*
X169276144Y-88760779D01*
X169275000Y-88737500D01*
X169275000Y-88262500D01*
X169276144Y-88239221D01*
X169279563Y-88216166D01*
X169285227Y-88193557D01*
X169293079Y-88171613D01*
X169303044Y-88150543D01*
X169315026Y-88130552D01*
X169328910Y-88111832D01*
X169344562Y-88094562D01*
X169361832Y-88078910D01*
X169380552Y-88065026D01*
X169400543Y-88053044D01*
X169421613Y-88043079D01*
X169443557Y-88035227D01*
X169466166Y-88029563D01*
X169489221Y-88026144D01*
X169512500Y-88025000D01*
X170087500Y-88025000D01*
X170110779Y-88026144D01*
X170110779Y-88026144D01*
G37*
D28*
G04 #@! TD*
G04 #@! TO.P,R2,2*
G04 #@! TO.N,3V3*
X169800000Y-88500000D03*
D27*
G04 #@! TO.N,/SCL*
G04 #@! TO.C,R2*
G36*
X171860779Y-88026144D02*
X171883834Y-88029563D01*
X171906443Y-88035227D01*
X171928387Y-88043079D01*
X171949457Y-88053044D01*
X171969448Y-88065026D01*
X171988168Y-88078910D01*
X172005438Y-88094562D01*
X172021090Y-88111832D01*
X172034974Y-88130552D01*
X172046956Y-88150543D01*
X172056921Y-88171613D01*
X172064773Y-88193557D01*
X172070437Y-88216166D01*
X172073856Y-88239221D01*
X172075000Y-88262500D01*
X172075000Y-88737500D01*
X172073856Y-88760779D01*
X172070437Y-88783834D01*
X172064773Y-88806443D01*
X172056921Y-88828387D01*
X172046956Y-88849457D01*
X172034974Y-88869448D01*
X172021090Y-88888168D01*
X172005438Y-88905438D01*
X171988168Y-88921090D01*
X171969448Y-88934974D01*
X171949457Y-88946956D01*
X171928387Y-88956921D01*
X171906443Y-88964773D01*
X171883834Y-88970437D01*
X171860779Y-88973856D01*
X171837500Y-88975000D01*
X171262500Y-88975000D01*
X171239221Y-88973856D01*
X171216166Y-88970437D01*
X171193557Y-88964773D01*
X171171613Y-88956921D01*
X171150543Y-88946956D01*
X171130552Y-88934974D01*
X171111832Y-88921090D01*
X171094562Y-88905438D01*
X171078910Y-88888168D01*
X171065026Y-88869448D01*
X171053044Y-88849457D01*
X171043079Y-88828387D01*
X171035227Y-88806443D01*
X171029563Y-88783834D01*
X171026144Y-88760779D01*
X171025000Y-88737500D01*
X171025000Y-88262500D01*
X171026144Y-88239221D01*
X171029563Y-88216166D01*
X171035227Y-88193557D01*
X171043079Y-88171613D01*
X171053044Y-88150543D01*
X171065026Y-88130552D01*
X171078910Y-88111832D01*
X171094562Y-88094562D01*
X171111832Y-88078910D01*
X171130552Y-88065026D01*
X171150543Y-88053044D01*
X171171613Y-88043079D01*
X171193557Y-88035227D01*
X171216166Y-88029563D01*
X171239221Y-88026144D01*
X171262500Y-88025000D01*
X171837500Y-88025000D01*
X171860779Y-88026144D01*
X171860779Y-88026144D01*
G37*
D28*
G04 #@! TD*
G04 #@! TO.P,R2,1*
G04 #@! TO.N,/SCL*
X171550000Y-88500000D03*
D27*
G04 #@! TO.N,GND*
G04 #@! TO.C,R3*
G36*
X154260779Y-128926144D02*
X154283834Y-128929563D01*
X154306443Y-128935227D01*
X154328387Y-128943079D01*
X154349457Y-128953044D01*
X154369448Y-128965026D01*
X154388168Y-128978910D01*
X154405438Y-128994562D01*
X154421090Y-129011832D01*
X154434974Y-129030552D01*
X154446956Y-129050543D01*
X154456921Y-129071613D01*
X154464773Y-129093557D01*
X154470437Y-129116166D01*
X154473856Y-129139221D01*
X154475000Y-129162500D01*
X154475000Y-129637500D01*
X154473856Y-129660779D01*
X154470437Y-129683834D01*
X154464773Y-129706443D01*
X154456921Y-129728387D01*
X154446956Y-129749457D01*
X154434974Y-129769448D01*
X154421090Y-129788168D01*
X154405438Y-129805438D01*
X154388168Y-129821090D01*
X154369448Y-129834974D01*
X154349457Y-129846956D01*
X154328387Y-129856921D01*
X154306443Y-129864773D01*
X154283834Y-129870437D01*
X154260779Y-129873856D01*
X154237500Y-129875000D01*
X153662500Y-129875000D01*
X153639221Y-129873856D01*
X153616166Y-129870437D01*
X153593557Y-129864773D01*
X153571613Y-129856921D01*
X153550543Y-129846956D01*
X153530552Y-129834974D01*
X153511832Y-129821090D01*
X153494562Y-129805438D01*
X153478910Y-129788168D01*
X153465026Y-129769448D01*
X153453044Y-129749457D01*
X153443079Y-129728387D01*
X153435227Y-129706443D01*
X153429563Y-129683834D01*
X153426144Y-129660779D01*
X153425000Y-129637500D01*
X153425000Y-129162500D01*
X153426144Y-129139221D01*
X153429563Y-129116166D01*
X153435227Y-129093557D01*
X153443079Y-129071613D01*
X153453044Y-129050543D01*
X153465026Y-129030552D01*
X153478910Y-129011832D01*
X153494562Y-128994562D01*
X153511832Y-128978910D01*
X153530552Y-128965026D01*
X153550543Y-128953044D01*
X153571613Y-128943079D01*
X153593557Y-128935227D01*
X153616166Y-128929563D01*
X153639221Y-128926144D01*
X153662500Y-128925000D01*
X154237500Y-128925000D01*
X154260779Y-128926144D01*
X154260779Y-128926144D01*
G37*
D28*
G04 #@! TD*
G04 #@! TO.P,R3,1*
G04 #@! TO.N,GND*
X153950000Y-129400000D03*
D27*
G04 #@! TO.N,/I02*
G04 #@! TO.C,R3*
G36*
X152510779Y-128926144D02*
X152533834Y-128929563D01*
X152556443Y-128935227D01*
X152578387Y-128943079D01*
X152599457Y-128953044D01*
X152619448Y-128965026D01*
X152638168Y-128978910D01*
X152655438Y-128994562D01*
X152671090Y-129011832D01*
X152684974Y-129030552D01*
X152696956Y-129050543D01*
X152706921Y-129071613D01*
X152714773Y-129093557D01*
X152720437Y-129116166D01*
X152723856Y-129139221D01*
X152725000Y-129162500D01*
X152725000Y-129637500D01*
X152723856Y-129660779D01*
X152720437Y-129683834D01*
X152714773Y-129706443D01*
X152706921Y-129728387D01*
X152696956Y-129749457D01*
X152684974Y-129769448D01*
X152671090Y-129788168D01*
X152655438Y-129805438D01*
X152638168Y-129821090D01*
X152619448Y-129834974D01*
X152599457Y-129846956D01*
X152578387Y-129856921D01*
X152556443Y-129864773D01*
X152533834Y-129870437D01*
X152510779Y-129873856D01*
X152487500Y-129875000D01*
X151912500Y-129875000D01*
X151889221Y-129873856D01*
X151866166Y-129870437D01*
X151843557Y-129864773D01*
X151821613Y-129856921D01*
X151800543Y-129846956D01*
X151780552Y-129834974D01*
X151761832Y-129821090D01*
X151744562Y-129805438D01*
X151728910Y-129788168D01*
X151715026Y-129769448D01*
X151703044Y-129749457D01*
X151693079Y-129728387D01*
X151685227Y-129706443D01*
X151679563Y-129683834D01*
X151676144Y-129660779D01*
X151675000Y-129637500D01*
X151675000Y-129162500D01*
X151676144Y-129139221D01*
X151679563Y-129116166D01*
X151685227Y-129093557D01*
X151693079Y-129071613D01*
X151703044Y-129050543D01*
X151715026Y-129030552D01*
X151728910Y-129011832D01*
X151744562Y-128994562D01*
X151761832Y-128978910D01*
X151780552Y-128965026D01*
X151800543Y-128953044D01*
X151821613Y-128943079D01*
X151843557Y-128935227D01*
X151866166Y-128929563D01*
X151889221Y-128926144D01*
X151912500Y-128925000D01*
X152487500Y-128925000D01*
X152510779Y-128926144D01*
X152510779Y-128926144D01*
G37*
D28*
G04 #@! TD*
G04 #@! TO.P,R3,2*
G04 #@! TO.N,/I02*
X152200000Y-129400000D03*
D27*
G04 #@! TO.N,Net-(D8-Pad1)*
G04 #@! TO.C,R20*
G36*
X162790779Y-130046144D02*
X162813834Y-130049563D01*
X162836443Y-130055227D01*
X162858387Y-130063079D01*
X162879457Y-130073044D01*
X162899448Y-130085026D01*
X162918168Y-130098910D01*
X162935438Y-130114562D01*
X162951090Y-130131832D01*
X162964974Y-130150552D01*
X162976956Y-130170543D01*
X162986921Y-130191613D01*
X162994773Y-130213557D01*
X163000437Y-130236166D01*
X163003856Y-130259221D01*
X163005000Y-130282500D01*
X163005000Y-130857500D01*
X163003856Y-130880779D01*
X163000437Y-130903834D01*
X162994773Y-130926443D01*
X162986921Y-130948387D01*
X162976956Y-130969457D01*
X162964974Y-130989448D01*
X162951090Y-131008168D01*
X162935438Y-131025438D01*
X162918168Y-131041090D01*
X162899448Y-131054974D01*
X162879457Y-131066956D01*
X162858387Y-131076921D01*
X162836443Y-131084773D01*
X162813834Y-131090437D01*
X162790779Y-131093856D01*
X162767500Y-131095000D01*
X162292500Y-131095000D01*
X162269221Y-131093856D01*
X162246166Y-131090437D01*
X162223557Y-131084773D01*
X162201613Y-131076921D01*
X162180543Y-131066956D01*
X162160552Y-131054974D01*
X162141832Y-131041090D01*
X162124562Y-131025438D01*
X162108910Y-131008168D01*
X162095026Y-130989448D01*
X162083044Y-130969457D01*
X162073079Y-130948387D01*
X162065227Y-130926443D01*
X162059563Y-130903834D01*
X162056144Y-130880779D01*
X162055000Y-130857500D01*
X162055000Y-130282500D01*
X162056144Y-130259221D01*
X162059563Y-130236166D01*
X162065227Y-130213557D01*
X162073079Y-130191613D01*
X162083044Y-130170543D01*
X162095026Y-130150552D01*
X162108910Y-130131832D01*
X162124562Y-130114562D01*
X162141832Y-130098910D01*
X162160552Y-130085026D01*
X162180543Y-130073044D01*
X162201613Y-130063079D01*
X162223557Y-130055227D01*
X162246166Y-130049563D01*
X162269221Y-130046144D01*
X162292500Y-130045000D01*
X162767500Y-130045000D01*
X162790779Y-130046144D01*
X162790779Y-130046144D01*
G37*
D28*
G04 #@! TD*
G04 #@! TO.P,R20,1*
G04 #@! TO.N,Net-(D8-Pad1)*
X162530000Y-130570000D03*
D27*
G04 #@! TO.N,GND*
G04 #@! TO.C,R20*
G36*
X162790779Y-128296144D02*
X162813834Y-128299563D01*
X162836443Y-128305227D01*
X162858387Y-128313079D01*
X162879457Y-128323044D01*
X162899448Y-128335026D01*
X162918168Y-128348910D01*
X162935438Y-128364562D01*
X162951090Y-128381832D01*
X162964974Y-128400552D01*
X162976956Y-128420543D01*
X162986921Y-128441613D01*
X162994773Y-128463557D01*
X163000437Y-128486166D01*
X163003856Y-128509221D01*
X163005000Y-128532500D01*
X163005000Y-129107500D01*
X163003856Y-129130779D01*
X163000437Y-129153834D01*
X162994773Y-129176443D01*
X162986921Y-129198387D01*
X162976956Y-129219457D01*
X162964974Y-129239448D01*
X162951090Y-129258168D01*
X162935438Y-129275438D01*
X162918168Y-129291090D01*
X162899448Y-129304974D01*
X162879457Y-129316956D01*
X162858387Y-129326921D01*
X162836443Y-129334773D01*
X162813834Y-129340437D01*
X162790779Y-129343856D01*
X162767500Y-129345000D01*
X162292500Y-129345000D01*
X162269221Y-129343856D01*
X162246166Y-129340437D01*
X162223557Y-129334773D01*
X162201613Y-129326921D01*
X162180543Y-129316956D01*
X162160552Y-129304974D01*
X162141832Y-129291090D01*
X162124562Y-129275438D01*
X162108910Y-129258168D01*
X162095026Y-129239448D01*
X162083044Y-129219457D01*
X162073079Y-129198387D01*
X162065227Y-129176443D01*
X162059563Y-129153834D01*
X162056144Y-129130779D01*
X162055000Y-129107500D01*
X162055000Y-128532500D01*
X162056144Y-128509221D01*
X162059563Y-128486166D01*
X162065227Y-128463557D01*
X162073079Y-128441613D01*
X162083044Y-128420543D01*
X162095026Y-128400552D01*
X162108910Y-128381832D01*
X162124562Y-128364562D01*
X162141832Y-128348910D01*
X162160552Y-128335026D01*
X162180543Y-128323044D01*
X162201613Y-128313079D01*
X162223557Y-128305227D01*
X162246166Y-128299563D01*
X162269221Y-128296144D01*
X162292500Y-128295000D01*
X162767500Y-128295000D01*
X162790779Y-128296144D01*
X162790779Y-128296144D01*
G37*
D28*
G04 #@! TD*
G04 #@! TO.P,R20,2*
G04 #@! TO.N,GND*
X162530000Y-128820000D03*
D27*
G04 #@! TO.N,/FACTORY*
G04 #@! TO.C,R4*
G36*
X133010779Y-126851144D02*
X133033834Y-126854563D01*
X133056443Y-126860227D01*
X133078387Y-126868079D01*
X133099457Y-126878044D01*
X133119448Y-126890026D01*
X133138168Y-126903910D01*
X133155438Y-126919562D01*
X133171090Y-126936832D01*
X133184974Y-126955552D01*
X133196956Y-126975543D01*
X133206921Y-126996613D01*
X133214773Y-127018557D01*
X133220437Y-127041166D01*
X133223856Y-127064221D01*
X133225000Y-127087500D01*
X133225000Y-127662500D01*
X133223856Y-127685779D01*
X133220437Y-127708834D01*
X133214773Y-127731443D01*
X133206921Y-127753387D01*
X133196956Y-127774457D01*
X133184974Y-127794448D01*
X133171090Y-127813168D01*
X133155438Y-127830438D01*
X133138168Y-127846090D01*
X133119448Y-127859974D01*
X133099457Y-127871956D01*
X133078387Y-127881921D01*
X133056443Y-127889773D01*
X133033834Y-127895437D01*
X133010779Y-127898856D01*
X132987500Y-127900000D01*
X132512500Y-127900000D01*
X132489221Y-127898856D01*
X132466166Y-127895437D01*
X132443557Y-127889773D01*
X132421613Y-127881921D01*
X132400543Y-127871956D01*
X132380552Y-127859974D01*
X132361832Y-127846090D01*
X132344562Y-127830438D01*
X132328910Y-127813168D01*
X132315026Y-127794448D01*
X132303044Y-127774457D01*
X132293079Y-127753387D01*
X132285227Y-127731443D01*
X132279563Y-127708834D01*
X132276144Y-127685779D01*
X132275000Y-127662500D01*
X132275000Y-127087500D01*
X132276144Y-127064221D01*
X132279563Y-127041166D01*
X132285227Y-127018557D01*
X132293079Y-126996613D01*
X132303044Y-126975543D01*
X132315026Y-126955552D01*
X132328910Y-126936832D01*
X132344562Y-126919562D01*
X132361832Y-126903910D01*
X132380552Y-126890026D01*
X132400543Y-126878044D01*
X132421613Y-126868079D01*
X132443557Y-126860227D01*
X132466166Y-126854563D01*
X132489221Y-126851144D01*
X132512500Y-126850000D01*
X132987500Y-126850000D01*
X133010779Y-126851144D01*
X133010779Y-126851144D01*
G37*
D28*
G04 #@! TD*
G04 #@! TO.P,R4,2*
G04 #@! TO.N,/FACTORY*
X132750000Y-127375000D03*
D27*
G04 #@! TO.N,Net-(D1-Pad1)*
G04 #@! TO.C,R4*
G36*
X133010779Y-128601144D02*
X133033834Y-128604563D01*
X133056443Y-128610227D01*
X133078387Y-128618079D01*
X133099457Y-128628044D01*
X133119448Y-128640026D01*
X133138168Y-128653910D01*
X133155438Y-128669562D01*
X133171090Y-128686832D01*
X133184974Y-128705552D01*
X133196956Y-128725543D01*
X133206921Y-128746613D01*
X133214773Y-128768557D01*
X133220437Y-128791166D01*
X133223856Y-128814221D01*
X133225000Y-128837500D01*
X133225000Y-129412500D01*
X133223856Y-129435779D01*
X133220437Y-129458834D01*
X133214773Y-129481443D01*
X133206921Y-129503387D01*
X133196956Y-129524457D01*
X133184974Y-129544448D01*
X133171090Y-129563168D01*
X133155438Y-129580438D01*
X133138168Y-129596090D01*
X133119448Y-129609974D01*
X133099457Y-129621956D01*
X133078387Y-129631921D01*
X133056443Y-129639773D01*
X133033834Y-129645437D01*
X133010779Y-129648856D01*
X132987500Y-129650000D01*
X132512500Y-129650000D01*
X132489221Y-129648856D01*
X132466166Y-129645437D01*
X132443557Y-129639773D01*
X132421613Y-129631921D01*
X132400543Y-129621956D01*
X132380552Y-129609974D01*
X132361832Y-129596090D01*
X132344562Y-129580438D01*
X132328910Y-129563168D01*
X132315026Y-129544448D01*
X132303044Y-129524457D01*
X132293079Y-129503387D01*
X132285227Y-129481443D01*
X132279563Y-129458834D01*
X132276144Y-129435779D01*
X132275000Y-129412500D01*
X132275000Y-128837500D01*
X132276144Y-128814221D01*
X132279563Y-128791166D01*
X132285227Y-128768557D01*
X132293079Y-128746613D01*
X132303044Y-128725543D01*
X132315026Y-128705552D01*
X132328910Y-128686832D01*
X132344562Y-128669562D01*
X132361832Y-128653910D01*
X132380552Y-128640026D01*
X132400543Y-128628044D01*
X132421613Y-128618079D01*
X132443557Y-128610227D01*
X132466166Y-128604563D01*
X132489221Y-128601144D01*
X132512500Y-128600000D01*
X132987500Y-128600000D01*
X133010779Y-128601144D01*
X133010779Y-128601144D01*
G37*
D28*
G04 #@! TD*
G04 #@! TO.P,R4,1*
G04 #@! TO.N,Net-(D1-Pad1)*
X132750000Y-129125000D03*
D27*
G04 #@! TO.N,Net-(D2-Pad1)*
G04 #@! TO.C,R5*
G36*
X132710779Y-122376144D02*
X132733834Y-122379563D01*
X132756443Y-122385227D01*
X132778387Y-122393079D01*
X132799457Y-122403044D01*
X132819448Y-122415026D01*
X132838168Y-122428910D01*
X132855438Y-122444562D01*
X132871090Y-122461832D01*
X132884974Y-122480552D01*
X132896956Y-122500543D01*
X132906921Y-122521613D01*
X132914773Y-122543557D01*
X132920437Y-122566166D01*
X132923856Y-122589221D01*
X132925000Y-122612500D01*
X132925000Y-123187500D01*
X132923856Y-123210779D01*
X132920437Y-123233834D01*
X132914773Y-123256443D01*
X132906921Y-123278387D01*
X132896956Y-123299457D01*
X132884974Y-123319448D01*
X132871090Y-123338168D01*
X132855438Y-123355438D01*
X132838168Y-123371090D01*
X132819448Y-123384974D01*
X132799457Y-123396956D01*
X132778387Y-123406921D01*
X132756443Y-123414773D01*
X132733834Y-123420437D01*
X132710779Y-123423856D01*
X132687500Y-123425000D01*
X132212500Y-123425000D01*
X132189221Y-123423856D01*
X132166166Y-123420437D01*
X132143557Y-123414773D01*
X132121613Y-123406921D01*
X132100543Y-123396956D01*
X132080552Y-123384974D01*
X132061832Y-123371090D01*
X132044562Y-123355438D01*
X132028910Y-123338168D01*
X132015026Y-123319448D01*
X132003044Y-123299457D01*
X131993079Y-123278387D01*
X131985227Y-123256443D01*
X131979563Y-123233834D01*
X131976144Y-123210779D01*
X131975000Y-123187500D01*
X131975000Y-122612500D01*
X131976144Y-122589221D01*
X131979563Y-122566166D01*
X131985227Y-122543557D01*
X131993079Y-122521613D01*
X132003044Y-122500543D01*
X132015026Y-122480552D01*
X132028910Y-122461832D01*
X132044562Y-122444562D01*
X132061832Y-122428910D01*
X132080552Y-122415026D01*
X132100543Y-122403044D01*
X132121613Y-122393079D01*
X132143557Y-122385227D01*
X132166166Y-122379563D01*
X132189221Y-122376144D01*
X132212500Y-122375000D01*
X132687500Y-122375000D01*
X132710779Y-122376144D01*
X132710779Y-122376144D01*
G37*
D28*
G04 #@! TD*
G04 #@! TO.P,R5,1*
G04 #@! TO.N,Net-(D2-Pad1)*
X132450000Y-122900000D03*
D27*
G04 #@! TO.N,/EN*
G04 #@! TO.C,R5*
G36*
X132710779Y-120626144D02*
X132733834Y-120629563D01*
X132756443Y-120635227D01*
X132778387Y-120643079D01*
X132799457Y-120653044D01*
X132819448Y-120665026D01*
X132838168Y-120678910D01*
X132855438Y-120694562D01*
X132871090Y-120711832D01*
X132884974Y-120730552D01*
X132896956Y-120750543D01*
X132906921Y-120771613D01*
X132914773Y-120793557D01*
X132920437Y-120816166D01*
X132923856Y-120839221D01*
X132925000Y-120862500D01*
X132925000Y-121437500D01*
X132923856Y-121460779D01*
X132920437Y-121483834D01*
X132914773Y-121506443D01*
X132906921Y-121528387D01*
X132896956Y-121549457D01*
X132884974Y-121569448D01*
X132871090Y-121588168D01*
X132855438Y-121605438D01*
X132838168Y-121621090D01*
X132819448Y-121634974D01*
X132799457Y-121646956D01*
X132778387Y-121656921D01*
X132756443Y-121664773D01*
X132733834Y-121670437D01*
X132710779Y-121673856D01*
X132687500Y-121675000D01*
X132212500Y-121675000D01*
X132189221Y-121673856D01*
X132166166Y-121670437D01*
X132143557Y-121664773D01*
X132121613Y-121656921D01*
X132100543Y-121646956D01*
X132080552Y-121634974D01*
X132061832Y-121621090D01*
X132044562Y-121605438D01*
X132028910Y-121588168D01*
X132015026Y-121569448D01*
X132003044Y-121549457D01*
X131993079Y-121528387D01*
X131985227Y-121506443D01*
X131979563Y-121483834D01*
X131976144Y-121460779D01*
X131975000Y-121437500D01*
X131975000Y-120862500D01*
X131976144Y-120839221D01*
X131979563Y-120816166D01*
X131985227Y-120793557D01*
X131993079Y-120771613D01*
X132003044Y-120750543D01*
X132015026Y-120730552D01*
X132028910Y-120711832D01*
X132044562Y-120694562D01*
X132061832Y-120678910D01*
X132080552Y-120665026D01*
X132100543Y-120653044D01*
X132121613Y-120643079D01*
X132143557Y-120635227D01*
X132166166Y-120629563D01*
X132189221Y-120626144D01*
X132212500Y-120625000D01*
X132687500Y-120625000D01*
X132710779Y-120626144D01*
X132710779Y-120626144D01*
G37*
D28*
G04 #@! TD*
G04 #@! TO.P,R5,2*
G04 #@! TO.N,/EN*
X132450000Y-121150000D03*
D27*
G04 #@! TO.N,Net-(D3-Pad1)*
G04 #@! TO.C,R6*
G36*
X138310779Y-132376144D02*
X138333834Y-132379563D01*
X138356443Y-132385227D01*
X138378387Y-132393079D01*
X138399457Y-132403044D01*
X138419448Y-132415026D01*
X138438168Y-132428910D01*
X138455438Y-132444562D01*
X138471090Y-132461832D01*
X138484974Y-132480552D01*
X138496956Y-132500543D01*
X138506921Y-132521613D01*
X138514773Y-132543557D01*
X138520437Y-132566166D01*
X138523856Y-132589221D01*
X138525000Y-132612500D01*
X138525000Y-133187500D01*
X138523856Y-133210779D01*
X138520437Y-133233834D01*
X138514773Y-133256443D01*
X138506921Y-133278387D01*
X138496956Y-133299457D01*
X138484974Y-133319448D01*
X138471090Y-133338168D01*
X138455438Y-133355438D01*
X138438168Y-133371090D01*
X138419448Y-133384974D01*
X138399457Y-133396956D01*
X138378387Y-133406921D01*
X138356443Y-133414773D01*
X138333834Y-133420437D01*
X138310779Y-133423856D01*
X138287500Y-133425000D01*
X137812500Y-133425000D01*
X137789221Y-133423856D01*
X137766166Y-133420437D01*
X137743557Y-133414773D01*
X137721613Y-133406921D01*
X137700543Y-133396956D01*
X137680552Y-133384974D01*
X137661832Y-133371090D01*
X137644562Y-133355438D01*
X137628910Y-133338168D01*
X137615026Y-133319448D01*
X137603044Y-133299457D01*
X137593079Y-133278387D01*
X137585227Y-133256443D01*
X137579563Y-133233834D01*
X137576144Y-133210779D01*
X137575000Y-133187500D01*
X137575000Y-132612500D01*
X137576144Y-132589221D01*
X137579563Y-132566166D01*
X137585227Y-132543557D01*
X137593079Y-132521613D01*
X137603044Y-132500543D01*
X137615026Y-132480552D01*
X137628910Y-132461832D01*
X137644562Y-132444562D01*
X137661832Y-132428910D01*
X137680552Y-132415026D01*
X137700543Y-132403044D01*
X137721613Y-132393079D01*
X137743557Y-132385227D01*
X137766166Y-132379563D01*
X137789221Y-132376144D01*
X137812500Y-132375000D01*
X138287500Y-132375000D01*
X138310779Y-132376144D01*
X138310779Y-132376144D01*
G37*
D28*
G04 #@! TD*
G04 #@! TO.P,R6,1*
G04 #@! TO.N,Net-(D3-Pad1)*
X138050000Y-132900000D03*
D27*
G04 #@! TO.N,/PROG*
G04 #@! TO.C,R6*
G36*
X138310779Y-130626144D02*
X138333834Y-130629563D01*
X138356443Y-130635227D01*
X138378387Y-130643079D01*
X138399457Y-130653044D01*
X138419448Y-130665026D01*
X138438168Y-130678910D01*
X138455438Y-130694562D01*
X138471090Y-130711832D01*
X138484974Y-130730552D01*
X138496956Y-130750543D01*
X138506921Y-130771613D01*
X138514773Y-130793557D01*
X138520437Y-130816166D01*
X138523856Y-130839221D01*
X138525000Y-130862500D01*
X138525000Y-131437500D01*
X138523856Y-131460779D01*
X138520437Y-131483834D01*
X138514773Y-131506443D01*
X138506921Y-131528387D01*
X138496956Y-131549457D01*
X138484974Y-131569448D01*
X138471090Y-131588168D01*
X138455438Y-131605438D01*
X138438168Y-131621090D01*
X138419448Y-131634974D01*
X138399457Y-131646956D01*
X138378387Y-131656921D01*
X138356443Y-131664773D01*
X138333834Y-131670437D01*
X138310779Y-131673856D01*
X138287500Y-131675000D01*
X137812500Y-131675000D01*
X137789221Y-131673856D01*
X137766166Y-131670437D01*
X137743557Y-131664773D01*
X137721613Y-131656921D01*
X137700543Y-131646956D01*
X137680552Y-131634974D01*
X137661832Y-131621090D01*
X137644562Y-131605438D01*
X137628910Y-131588168D01*
X137615026Y-131569448D01*
X137603044Y-131549457D01*
X137593079Y-131528387D01*
X137585227Y-131506443D01*
X137579563Y-131483834D01*
X137576144Y-131460779D01*
X137575000Y-131437500D01*
X137575000Y-130862500D01*
X137576144Y-130839221D01*
X137579563Y-130816166D01*
X137585227Y-130793557D01*
X137593079Y-130771613D01*
X137603044Y-130750543D01*
X137615026Y-130730552D01*
X137628910Y-130711832D01*
X137644562Y-130694562D01*
X137661832Y-130678910D01*
X137680552Y-130665026D01*
X137700543Y-130653044D01*
X137721613Y-130643079D01*
X137743557Y-130635227D01*
X137766166Y-130629563D01*
X137789221Y-130626144D01*
X137812500Y-130625000D01*
X138287500Y-130625000D01*
X138310779Y-130626144D01*
X138310779Y-130626144D01*
G37*
D28*
G04 #@! TD*
G04 #@! TO.P,R6,2*
G04 #@! TO.N,/PROG*
X138050000Y-131150000D03*
D27*
G04 #@! TO.N,3V3*
G04 #@! TO.C,C1*
G36*
X133610779Y-110276144D02*
X133633834Y-110279563D01*
X133656443Y-110285227D01*
X133678387Y-110293079D01*
X133699457Y-110303044D01*
X133719448Y-110315026D01*
X133738168Y-110328910D01*
X133755438Y-110344562D01*
X133771090Y-110361832D01*
X133784974Y-110380552D01*
X133796956Y-110400543D01*
X133806921Y-110421613D01*
X133814773Y-110443557D01*
X133820437Y-110466166D01*
X133823856Y-110489221D01*
X133825000Y-110512500D01*
X133825000Y-110987500D01*
X133823856Y-111010779D01*
X133820437Y-111033834D01*
X133814773Y-111056443D01*
X133806921Y-111078387D01*
X133796956Y-111099457D01*
X133784974Y-111119448D01*
X133771090Y-111138168D01*
X133755438Y-111155438D01*
X133738168Y-111171090D01*
X133719448Y-111184974D01*
X133699457Y-111196956D01*
X133678387Y-111206921D01*
X133656443Y-111214773D01*
X133633834Y-111220437D01*
X133610779Y-111223856D01*
X133587500Y-111225000D01*
X133012500Y-111225000D01*
X132989221Y-111223856D01*
X132966166Y-111220437D01*
X132943557Y-111214773D01*
X132921613Y-111206921D01*
X132900543Y-111196956D01*
X132880552Y-111184974D01*
X132861832Y-111171090D01*
X132844562Y-111155438D01*
X132828910Y-111138168D01*
X132815026Y-111119448D01*
X132803044Y-111099457D01*
X132793079Y-111078387D01*
X132785227Y-111056443D01*
X132779563Y-111033834D01*
X132776144Y-111010779D01*
X132775000Y-110987500D01*
X132775000Y-110512500D01*
X132776144Y-110489221D01*
X132779563Y-110466166D01*
X132785227Y-110443557D01*
X132793079Y-110421613D01*
X132803044Y-110400543D01*
X132815026Y-110380552D01*
X132828910Y-110361832D01*
X132844562Y-110344562D01*
X132861832Y-110328910D01*
X132880552Y-110315026D01*
X132900543Y-110303044D01*
X132921613Y-110293079D01*
X132943557Y-110285227D01*
X132966166Y-110279563D01*
X132989221Y-110276144D01*
X133012500Y-110275000D01*
X133587500Y-110275000D01*
X133610779Y-110276144D01*
X133610779Y-110276144D01*
G37*
D28*
G04 #@! TD*
G04 #@! TO.P,C1,1*
G04 #@! TO.N,3V3*
X133300000Y-110750000D03*
D27*
G04 #@! TO.N,GND*
G04 #@! TO.C,C1*
G36*
X131860779Y-110276144D02*
X131883834Y-110279563D01*
X131906443Y-110285227D01*
X131928387Y-110293079D01*
X131949457Y-110303044D01*
X131969448Y-110315026D01*
X131988168Y-110328910D01*
X132005438Y-110344562D01*
X132021090Y-110361832D01*
X132034974Y-110380552D01*
X132046956Y-110400543D01*
X132056921Y-110421613D01*
X132064773Y-110443557D01*
X132070437Y-110466166D01*
X132073856Y-110489221D01*
X132075000Y-110512500D01*
X132075000Y-110987500D01*
X132073856Y-111010779D01*
X132070437Y-111033834D01*
X132064773Y-111056443D01*
X132056921Y-111078387D01*
X132046956Y-111099457D01*
X132034974Y-111119448D01*
X132021090Y-111138168D01*
X132005438Y-111155438D01*
X131988168Y-111171090D01*
X131969448Y-111184974D01*
X131949457Y-111196956D01*
X131928387Y-111206921D01*
X131906443Y-111214773D01*
X131883834Y-111220437D01*
X131860779Y-111223856D01*
X131837500Y-111225000D01*
X131262500Y-111225000D01*
X131239221Y-111223856D01*
X131216166Y-111220437D01*
X131193557Y-111214773D01*
X131171613Y-111206921D01*
X131150543Y-111196956D01*
X131130552Y-111184974D01*
X131111832Y-111171090D01*
X131094562Y-111155438D01*
X131078910Y-111138168D01*
X131065026Y-111119448D01*
X131053044Y-111099457D01*
X131043079Y-111078387D01*
X131035227Y-111056443D01*
X131029563Y-111033834D01*
X131026144Y-111010779D01*
X131025000Y-110987500D01*
X131025000Y-110512500D01*
X131026144Y-110489221D01*
X131029563Y-110466166D01*
X131035227Y-110443557D01*
X131043079Y-110421613D01*
X131053044Y-110400543D01*
X131065026Y-110380552D01*
X131078910Y-110361832D01*
X131094562Y-110344562D01*
X131111832Y-110328910D01*
X131130552Y-110315026D01*
X131150543Y-110303044D01*
X131171613Y-110293079D01*
X131193557Y-110285227D01*
X131216166Y-110279563D01*
X131239221Y-110276144D01*
X131262500Y-110275000D01*
X131837500Y-110275000D01*
X131860779Y-110276144D01*
X131860779Y-110276144D01*
G37*
D28*
G04 #@! TD*
G04 #@! TO.P,C1,2*
G04 #@! TO.N,GND*
X131550000Y-110750000D03*
D27*
G04 #@! TO.N,GND*
G04 #@! TO.C,C2*
G36*
X131910779Y-108676144D02*
X131933834Y-108679563D01*
X131956443Y-108685227D01*
X131978387Y-108693079D01*
X131999457Y-108703044D01*
X132019448Y-108715026D01*
X132038168Y-108728910D01*
X132055438Y-108744562D01*
X132071090Y-108761832D01*
X132084974Y-108780552D01*
X132096956Y-108800543D01*
X132106921Y-108821613D01*
X132114773Y-108843557D01*
X132120437Y-108866166D01*
X132123856Y-108889221D01*
X132125000Y-108912500D01*
X132125000Y-109387500D01*
X132123856Y-109410779D01*
X132120437Y-109433834D01*
X132114773Y-109456443D01*
X132106921Y-109478387D01*
X132096956Y-109499457D01*
X132084974Y-109519448D01*
X132071090Y-109538168D01*
X132055438Y-109555438D01*
X132038168Y-109571090D01*
X132019448Y-109584974D01*
X131999457Y-109596956D01*
X131978387Y-109606921D01*
X131956443Y-109614773D01*
X131933834Y-109620437D01*
X131910779Y-109623856D01*
X131887500Y-109625000D01*
X131312500Y-109625000D01*
X131289221Y-109623856D01*
X131266166Y-109620437D01*
X131243557Y-109614773D01*
X131221613Y-109606921D01*
X131200543Y-109596956D01*
X131180552Y-109584974D01*
X131161832Y-109571090D01*
X131144562Y-109555438D01*
X131128910Y-109538168D01*
X131115026Y-109519448D01*
X131103044Y-109499457D01*
X131093079Y-109478387D01*
X131085227Y-109456443D01*
X131079563Y-109433834D01*
X131076144Y-109410779D01*
X131075000Y-109387500D01*
X131075000Y-108912500D01*
X131076144Y-108889221D01*
X131079563Y-108866166D01*
X131085227Y-108843557D01*
X131093079Y-108821613D01*
X131103044Y-108800543D01*
X131115026Y-108780552D01*
X131128910Y-108761832D01*
X131144562Y-108744562D01*
X131161832Y-108728910D01*
X131180552Y-108715026D01*
X131200543Y-108703044D01*
X131221613Y-108693079D01*
X131243557Y-108685227D01*
X131266166Y-108679563D01*
X131289221Y-108676144D01*
X131312500Y-108675000D01*
X131887500Y-108675000D01*
X131910779Y-108676144D01*
X131910779Y-108676144D01*
G37*
D28*
G04 #@! TD*
G04 #@! TO.P,C2,2*
G04 #@! TO.N,GND*
X131600000Y-109150000D03*
D27*
G04 #@! TO.N,3V3*
G04 #@! TO.C,C2*
G36*
X133660779Y-108676144D02*
X133683834Y-108679563D01*
X133706443Y-108685227D01*
X133728387Y-108693079D01*
X133749457Y-108703044D01*
X133769448Y-108715026D01*
X133788168Y-108728910D01*
X133805438Y-108744562D01*
X133821090Y-108761832D01*
X133834974Y-108780552D01*
X133846956Y-108800543D01*
X133856921Y-108821613D01*
X133864773Y-108843557D01*
X133870437Y-108866166D01*
X133873856Y-108889221D01*
X133875000Y-108912500D01*
X133875000Y-109387500D01*
X133873856Y-109410779D01*
X133870437Y-109433834D01*
X133864773Y-109456443D01*
X133856921Y-109478387D01*
X133846956Y-109499457D01*
X133834974Y-109519448D01*
X133821090Y-109538168D01*
X133805438Y-109555438D01*
X133788168Y-109571090D01*
X133769448Y-109584974D01*
X133749457Y-109596956D01*
X133728387Y-109606921D01*
X133706443Y-109614773D01*
X133683834Y-109620437D01*
X133660779Y-109623856D01*
X133637500Y-109625000D01*
X133062500Y-109625000D01*
X133039221Y-109623856D01*
X133016166Y-109620437D01*
X132993557Y-109614773D01*
X132971613Y-109606921D01*
X132950543Y-109596956D01*
X132930552Y-109584974D01*
X132911832Y-109571090D01*
X132894562Y-109555438D01*
X132878910Y-109538168D01*
X132865026Y-109519448D01*
X132853044Y-109499457D01*
X132843079Y-109478387D01*
X132835227Y-109456443D01*
X132829563Y-109433834D01*
X132826144Y-109410779D01*
X132825000Y-109387500D01*
X132825000Y-108912500D01*
X132826144Y-108889221D01*
X132829563Y-108866166D01*
X132835227Y-108843557D01*
X132843079Y-108821613D01*
X132853044Y-108800543D01*
X132865026Y-108780552D01*
X132878910Y-108761832D01*
X132894562Y-108744562D01*
X132911832Y-108728910D01*
X132930552Y-108715026D01*
X132950543Y-108703044D01*
X132971613Y-108693079D01*
X132993557Y-108685227D01*
X133016166Y-108679563D01*
X133039221Y-108676144D01*
X133062500Y-108675000D01*
X133637500Y-108675000D01*
X133660779Y-108676144D01*
X133660779Y-108676144D01*
G37*
D28*
G04 #@! TD*
G04 #@! TO.P,C2,1*
G04 #@! TO.N,3V3*
X133350000Y-109150000D03*
D27*
G04 #@! TO.N,MAIN_CURRENT_SENSE*
G04 #@! TO.C,C4*
G36*
X134410779Y-98951144D02*
X134433834Y-98954563D01*
X134456443Y-98960227D01*
X134478387Y-98968079D01*
X134499457Y-98978044D01*
X134519448Y-98990026D01*
X134538168Y-99003910D01*
X134555438Y-99019562D01*
X134571090Y-99036832D01*
X134584974Y-99055552D01*
X134596956Y-99075543D01*
X134606921Y-99096613D01*
X134614773Y-99118557D01*
X134620437Y-99141166D01*
X134623856Y-99164221D01*
X134625000Y-99187500D01*
X134625000Y-99662500D01*
X134623856Y-99685779D01*
X134620437Y-99708834D01*
X134614773Y-99731443D01*
X134606921Y-99753387D01*
X134596956Y-99774457D01*
X134584974Y-99794448D01*
X134571090Y-99813168D01*
X134555438Y-99830438D01*
X134538168Y-99846090D01*
X134519448Y-99859974D01*
X134499457Y-99871956D01*
X134478387Y-99881921D01*
X134456443Y-99889773D01*
X134433834Y-99895437D01*
X134410779Y-99898856D01*
X134387500Y-99900000D01*
X133812500Y-99900000D01*
X133789221Y-99898856D01*
X133766166Y-99895437D01*
X133743557Y-99889773D01*
X133721613Y-99881921D01*
X133700543Y-99871956D01*
X133680552Y-99859974D01*
X133661832Y-99846090D01*
X133644562Y-99830438D01*
X133628910Y-99813168D01*
X133615026Y-99794448D01*
X133603044Y-99774457D01*
X133593079Y-99753387D01*
X133585227Y-99731443D01*
X133579563Y-99708834D01*
X133576144Y-99685779D01*
X133575000Y-99662500D01*
X133575000Y-99187500D01*
X133576144Y-99164221D01*
X133579563Y-99141166D01*
X133585227Y-99118557D01*
X133593079Y-99096613D01*
X133603044Y-99075543D01*
X133615026Y-99055552D01*
X133628910Y-99036832D01*
X133644562Y-99019562D01*
X133661832Y-99003910D01*
X133680552Y-98990026D01*
X133700543Y-98978044D01*
X133721613Y-98968079D01*
X133743557Y-98960227D01*
X133766166Y-98954563D01*
X133789221Y-98951144D01*
X133812500Y-98950000D01*
X134387500Y-98950000D01*
X134410779Y-98951144D01*
X134410779Y-98951144D01*
G37*
D28*
G04 #@! TD*
G04 #@! TO.P,C4,1*
G04 #@! TO.N,MAIN_CURRENT_SENSE*
X134100000Y-99425000D03*
D27*
G04 #@! TO.N,GND*
G04 #@! TO.C,C4*
G36*
X132660779Y-98951144D02*
X132683834Y-98954563D01*
X132706443Y-98960227D01*
X132728387Y-98968079D01*
X132749457Y-98978044D01*
X132769448Y-98990026D01*
X132788168Y-99003910D01*
X132805438Y-99019562D01*
X132821090Y-99036832D01*
X132834974Y-99055552D01*
X132846956Y-99075543D01*
X132856921Y-99096613D01*
X132864773Y-99118557D01*
X132870437Y-99141166D01*
X132873856Y-99164221D01*
X132875000Y-99187500D01*
X132875000Y-99662500D01*
X132873856Y-99685779D01*
X132870437Y-99708834D01*
X132864773Y-99731443D01*
X132856921Y-99753387D01*
X132846956Y-99774457D01*
X132834974Y-99794448D01*
X132821090Y-99813168D01*
X132805438Y-99830438D01*
X132788168Y-99846090D01*
X132769448Y-99859974D01*
X132749457Y-99871956D01*
X132728387Y-99881921D01*
X132706443Y-99889773D01*
X132683834Y-99895437D01*
X132660779Y-99898856D01*
X132637500Y-99900000D01*
X132062500Y-99900000D01*
X132039221Y-99898856D01*
X132016166Y-99895437D01*
X131993557Y-99889773D01*
X131971613Y-99881921D01*
X131950543Y-99871956D01*
X131930552Y-99859974D01*
X131911832Y-99846090D01*
X131894562Y-99830438D01*
X131878910Y-99813168D01*
X131865026Y-99794448D01*
X131853044Y-99774457D01*
X131843079Y-99753387D01*
X131835227Y-99731443D01*
X131829563Y-99708834D01*
X131826144Y-99685779D01*
X131825000Y-99662500D01*
X131825000Y-99187500D01*
X131826144Y-99164221D01*
X131829563Y-99141166D01*
X131835227Y-99118557D01*
X131843079Y-99096613D01*
X131853044Y-99075543D01*
X131865026Y-99055552D01*
X131878910Y-99036832D01*
X131894562Y-99019562D01*
X131911832Y-99003910D01*
X131930552Y-98990026D01*
X131950543Y-98978044D01*
X131971613Y-98968079D01*
X131993557Y-98960227D01*
X132016166Y-98954563D01*
X132039221Y-98951144D01*
X132062500Y-98950000D01*
X132637500Y-98950000D01*
X132660779Y-98951144D01*
X132660779Y-98951144D01*
G37*
D28*
G04 #@! TD*
G04 #@! TO.P,C4,2*
G04 #@! TO.N,GND*
X132350000Y-99425000D03*
D27*
G04 #@! TO.N,3V3*
G04 #@! TO.C,R9*
G36*
X131060779Y-95076144D02*
X131083834Y-95079563D01*
X131106443Y-95085227D01*
X131128387Y-95093079D01*
X131149457Y-95103044D01*
X131169448Y-95115026D01*
X131188168Y-95128910D01*
X131205438Y-95144562D01*
X131221090Y-95161832D01*
X131234974Y-95180552D01*
X131246956Y-95200543D01*
X131256921Y-95221613D01*
X131264773Y-95243557D01*
X131270437Y-95266166D01*
X131273856Y-95289221D01*
X131275000Y-95312500D01*
X131275000Y-95787500D01*
X131273856Y-95810779D01*
X131270437Y-95833834D01*
X131264773Y-95856443D01*
X131256921Y-95878387D01*
X131246956Y-95899457D01*
X131234974Y-95919448D01*
X131221090Y-95938168D01*
X131205438Y-95955438D01*
X131188168Y-95971090D01*
X131169448Y-95984974D01*
X131149457Y-95996956D01*
X131128387Y-96006921D01*
X131106443Y-96014773D01*
X131083834Y-96020437D01*
X131060779Y-96023856D01*
X131037500Y-96025000D01*
X130462500Y-96025000D01*
X130439221Y-96023856D01*
X130416166Y-96020437D01*
X130393557Y-96014773D01*
X130371613Y-96006921D01*
X130350543Y-95996956D01*
X130330552Y-95984974D01*
X130311832Y-95971090D01*
X130294562Y-95955438D01*
X130278910Y-95938168D01*
X130265026Y-95919448D01*
X130253044Y-95899457D01*
X130243079Y-95878387D01*
X130235227Y-95856443D01*
X130229563Y-95833834D01*
X130226144Y-95810779D01*
X130225000Y-95787500D01*
X130225000Y-95312500D01*
X130226144Y-95289221D01*
X130229563Y-95266166D01*
X130235227Y-95243557D01*
X130243079Y-95221613D01*
X130253044Y-95200543D01*
X130265026Y-95180552D01*
X130278910Y-95161832D01*
X130294562Y-95144562D01*
X130311832Y-95128910D01*
X130330552Y-95115026D01*
X130350543Y-95103044D01*
X130371613Y-95093079D01*
X130393557Y-95085227D01*
X130416166Y-95079563D01*
X130439221Y-95076144D01*
X130462500Y-95075000D01*
X131037500Y-95075000D01*
X131060779Y-95076144D01*
X131060779Y-95076144D01*
G37*
D28*
G04 #@! TD*
G04 #@! TO.P,R9,1*
G04 #@! TO.N,3V3*
X130750000Y-95550000D03*
D27*
G04 #@! TO.N,Net-(R9-Pad2)*
G04 #@! TO.C,R9*
G36*
X132810779Y-95076144D02*
X132833834Y-95079563D01*
X132856443Y-95085227D01*
X132878387Y-95093079D01*
X132899457Y-95103044D01*
X132919448Y-95115026D01*
X132938168Y-95128910D01*
X132955438Y-95144562D01*
X132971090Y-95161832D01*
X132984974Y-95180552D01*
X132996956Y-95200543D01*
X133006921Y-95221613D01*
X133014773Y-95243557D01*
X133020437Y-95266166D01*
X133023856Y-95289221D01*
X133025000Y-95312500D01*
X133025000Y-95787500D01*
X133023856Y-95810779D01*
X133020437Y-95833834D01*
X133014773Y-95856443D01*
X133006921Y-95878387D01*
X132996956Y-95899457D01*
X132984974Y-95919448D01*
X132971090Y-95938168D01*
X132955438Y-95955438D01*
X132938168Y-95971090D01*
X132919448Y-95984974D01*
X132899457Y-95996956D01*
X132878387Y-96006921D01*
X132856443Y-96014773D01*
X132833834Y-96020437D01*
X132810779Y-96023856D01*
X132787500Y-96025000D01*
X132212500Y-96025000D01*
X132189221Y-96023856D01*
X132166166Y-96020437D01*
X132143557Y-96014773D01*
X132121613Y-96006921D01*
X132100543Y-95996956D01*
X132080552Y-95984974D01*
X132061832Y-95971090D01*
X132044562Y-95955438D01*
X132028910Y-95938168D01*
X132015026Y-95919448D01*
X132003044Y-95899457D01*
X131993079Y-95878387D01*
X131985227Y-95856443D01*
X131979563Y-95833834D01*
X131976144Y-95810779D01*
X131975000Y-95787500D01*
X131975000Y-95312500D01*
X131976144Y-95289221D01*
X131979563Y-95266166D01*
X131985227Y-95243557D01*
X131993079Y-95221613D01*
X132003044Y-95200543D01*
X132015026Y-95180552D01*
X132028910Y-95161832D01*
X132044562Y-95144562D01*
X132061832Y-95128910D01*
X132080552Y-95115026D01*
X132100543Y-95103044D01*
X132121613Y-95093079D01*
X132143557Y-95085227D01*
X132166166Y-95079563D01*
X132189221Y-95076144D01*
X132212500Y-95075000D01*
X132787500Y-95075000D01*
X132810779Y-95076144D01*
X132810779Y-95076144D01*
G37*
D28*
G04 #@! TD*
G04 #@! TO.P,R9,2*
G04 #@! TO.N,Net-(R9-Pad2)*
X132500000Y-95550000D03*
D27*
G04 #@! TO.N,3V3*
G04 #@! TO.C,C3*
G36*
X131035779Y-96601144D02*
X131058834Y-96604563D01*
X131081443Y-96610227D01*
X131103387Y-96618079D01*
X131124457Y-96628044D01*
X131144448Y-96640026D01*
X131163168Y-96653910D01*
X131180438Y-96669562D01*
X131196090Y-96686832D01*
X131209974Y-96705552D01*
X131221956Y-96725543D01*
X131231921Y-96746613D01*
X131239773Y-96768557D01*
X131245437Y-96791166D01*
X131248856Y-96814221D01*
X131250000Y-96837500D01*
X131250000Y-97312500D01*
X131248856Y-97335779D01*
X131245437Y-97358834D01*
X131239773Y-97381443D01*
X131231921Y-97403387D01*
X131221956Y-97424457D01*
X131209974Y-97444448D01*
X131196090Y-97463168D01*
X131180438Y-97480438D01*
X131163168Y-97496090D01*
X131144448Y-97509974D01*
X131124457Y-97521956D01*
X131103387Y-97531921D01*
X131081443Y-97539773D01*
X131058834Y-97545437D01*
X131035779Y-97548856D01*
X131012500Y-97550000D01*
X130437500Y-97550000D01*
X130414221Y-97548856D01*
X130391166Y-97545437D01*
X130368557Y-97539773D01*
X130346613Y-97531921D01*
X130325543Y-97521956D01*
X130305552Y-97509974D01*
X130286832Y-97496090D01*
X130269562Y-97480438D01*
X130253910Y-97463168D01*
X130240026Y-97444448D01*
X130228044Y-97424457D01*
X130218079Y-97403387D01*
X130210227Y-97381443D01*
X130204563Y-97358834D01*
X130201144Y-97335779D01*
X130200000Y-97312500D01*
X130200000Y-96837500D01*
X130201144Y-96814221D01*
X130204563Y-96791166D01*
X130210227Y-96768557D01*
X130218079Y-96746613D01*
X130228044Y-96725543D01*
X130240026Y-96705552D01*
X130253910Y-96686832D01*
X130269562Y-96669562D01*
X130286832Y-96653910D01*
X130305552Y-96640026D01*
X130325543Y-96628044D01*
X130346613Y-96618079D01*
X130368557Y-96610227D01*
X130391166Y-96604563D01*
X130414221Y-96601144D01*
X130437500Y-96600000D01*
X131012500Y-96600000D01*
X131035779Y-96601144D01*
X131035779Y-96601144D01*
G37*
D28*
G04 #@! TD*
G04 #@! TO.P,C3,1*
G04 #@! TO.N,3V3*
X130725000Y-97075000D03*
D27*
G04 #@! TO.N,GND*
G04 #@! TO.C,C3*
G36*
X132785779Y-96601144D02*
X132808834Y-96604563D01*
X132831443Y-96610227D01*
X132853387Y-96618079D01*
X132874457Y-96628044D01*
X132894448Y-96640026D01*
X132913168Y-96653910D01*
X132930438Y-96669562D01*
X132946090Y-96686832D01*
X132959974Y-96705552D01*
X132971956Y-96725543D01*
X132981921Y-96746613D01*
X132989773Y-96768557D01*
X132995437Y-96791166D01*
X132998856Y-96814221D01*
X133000000Y-96837500D01*
X133000000Y-97312500D01*
X132998856Y-97335779D01*
X132995437Y-97358834D01*
X132989773Y-97381443D01*
X132981921Y-97403387D01*
X132971956Y-97424457D01*
X132959974Y-97444448D01*
X132946090Y-97463168D01*
X132930438Y-97480438D01*
X132913168Y-97496090D01*
X132894448Y-97509974D01*
X132874457Y-97521956D01*
X132853387Y-97531921D01*
X132831443Y-97539773D01*
X132808834Y-97545437D01*
X132785779Y-97548856D01*
X132762500Y-97550000D01*
X132187500Y-97550000D01*
X132164221Y-97548856D01*
X132141166Y-97545437D01*
X132118557Y-97539773D01*
X132096613Y-97531921D01*
X132075543Y-97521956D01*
X132055552Y-97509974D01*
X132036832Y-97496090D01*
X132019562Y-97480438D01*
X132003910Y-97463168D01*
X131990026Y-97444448D01*
X131978044Y-97424457D01*
X131968079Y-97403387D01*
X131960227Y-97381443D01*
X131954563Y-97358834D01*
X131951144Y-97335779D01*
X131950000Y-97312500D01*
X131950000Y-96837500D01*
X131951144Y-96814221D01*
X131954563Y-96791166D01*
X131960227Y-96768557D01*
X131968079Y-96746613D01*
X131978044Y-96725543D01*
X131990026Y-96705552D01*
X132003910Y-96686832D01*
X132019562Y-96669562D01*
X132036832Y-96653910D01*
X132055552Y-96640026D01*
X132075543Y-96628044D01*
X132096613Y-96618079D01*
X132118557Y-96610227D01*
X132141166Y-96604563D01*
X132164221Y-96601144D01*
X132187500Y-96600000D01*
X132762500Y-96600000D01*
X132785779Y-96601144D01*
X132785779Y-96601144D01*
G37*
D28*
G04 #@! TD*
G04 #@! TO.P,C3,2*
G04 #@! TO.N,GND*
X132475000Y-97075000D03*
D27*
G04 #@! TO.N,GND*
G04 #@! TO.C,C14*
G36*
X171860779Y-93026144D02*
X171883834Y-93029563D01*
X171906443Y-93035227D01*
X171928387Y-93043079D01*
X171949457Y-93053044D01*
X171969448Y-93065026D01*
X171988168Y-93078910D01*
X172005438Y-93094562D01*
X172021090Y-93111832D01*
X172034974Y-93130552D01*
X172046956Y-93150543D01*
X172056921Y-93171613D01*
X172064773Y-93193557D01*
X172070437Y-93216166D01*
X172073856Y-93239221D01*
X172075000Y-93262500D01*
X172075000Y-93737500D01*
X172073856Y-93760779D01*
X172070437Y-93783834D01*
X172064773Y-93806443D01*
X172056921Y-93828387D01*
X172046956Y-93849457D01*
X172034974Y-93869448D01*
X172021090Y-93888168D01*
X172005438Y-93905438D01*
X171988168Y-93921090D01*
X171969448Y-93934974D01*
X171949457Y-93946956D01*
X171928387Y-93956921D01*
X171906443Y-93964773D01*
X171883834Y-93970437D01*
X171860779Y-93973856D01*
X171837500Y-93975000D01*
X171262500Y-93975000D01*
X171239221Y-93973856D01*
X171216166Y-93970437D01*
X171193557Y-93964773D01*
X171171613Y-93956921D01*
X171150543Y-93946956D01*
X171130552Y-93934974D01*
X171111832Y-93921090D01*
X171094562Y-93905438D01*
X171078910Y-93888168D01*
X171065026Y-93869448D01*
X171053044Y-93849457D01*
X171043079Y-93828387D01*
X171035227Y-93806443D01*
X171029563Y-93783834D01*
X171026144Y-93760779D01*
X171025000Y-93737500D01*
X171025000Y-93262500D01*
X171026144Y-93239221D01*
X171029563Y-93216166D01*
X171035227Y-93193557D01*
X171043079Y-93171613D01*
X171053044Y-93150543D01*
X171065026Y-93130552D01*
X171078910Y-93111832D01*
X171094562Y-93094562D01*
X171111832Y-93078910D01*
X171130552Y-93065026D01*
X171150543Y-93053044D01*
X171171613Y-93043079D01*
X171193557Y-93035227D01*
X171216166Y-93029563D01*
X171239221Y-93026144D01*
X171262500Y-93025000D01*
X171837500Y-93025000D01*
X171860779Y-93026144D01*
X171860779Y-93026144D01*
G37*
D28*
G04 #@! TD*
G04 #@! TO.P,C14,2*
G04 #@! TO.N,GND*
X171550000Y-93500000D03*
D27*
G04 #@! TO.N,3V3*
G04 #@! TO.C,C14*
G36*
X170110779Y-93026144D02*
X170133834Y-93029563D01*
X170156443Y-93035227D01*
X170178387Y-93043079D01*
X170199457Y-93053044D01*
X170219448Y-93065026D01*
X170238168Y-93078910D01*
X170255438Y-93094562D01*
X170271090Y-93111832D01*
X170284974Y-93130552D01*
X170296956Y-93150543D01*
X170306921Y-93171613D01*
X170314773Y-93193557D01*
X170320437Y-93216166D01*
X170323856Y-93239221D01*
X170325000Y-93262500D01*
X170325000Y-93737500D01*
X170323856Y-93760779D01*
X170320437Y-93783834D01*
X170314773Y-93806443D01*
X170306921Y-93828387D01*
X170296956Y-93849457D01*
X170284974Y-93869448D01*
X170271090Y-93888168D01*
X170255438Y-93905438D01*
X170238168Y-93921090D01*
X170219448Y-93934974D01*
X170199457Y-93946956D01*
X170178387Y-93956921D01*
X170156443Y-93964773D01*
X170133834Y-93970437D01*
X170110779Y-93973856D01*
X170087500Y-93975000D01*
X169512500Y-93975000D01*
X169489221Y-93973856D01*
X169466166Y-93970437D01*
X169443557Y-93964773D01*
X169421613Y-93956921D01*
X169400543Y-93946956D01*
X169380552Y-93934974D01*
X169361832Y-93921090D01*
X169344562Y-93905438D01*
X169328910Y-93888168D01*
X169315026Y-93869448D01*
X169303044Y-93849457D01*
X169293079Y-93828387D01*
X169285227Y-93806443D01*
X169279563Y-93783834D01*
X169276144Y-93760779D01*
X169275000Y-93737500D01*
X169275000Y-93262500D01*
X169276144Y-93239221D01*
X169279563Y-93216166D01*
X169285227Y-93193557D01*
X169293079Y-93171613D01*
X169303044Y-93150543D01*
X169315026Y-93130552D01*
X169328910Y-93111832D01*
X169344562Y-93094562D01*
X169361832Y-93078910D01*
X169380552Y-93065026D01*
X169400543Y-93053044D01*
X169421613Y-93043079D01*
X169443557Y-93035227D01*
X169466166Y-93029563D01*
X169489221Y-93026144D01*
X169512500Y-93025000D01*
X170087500Y-93025000D01*
X170110779Y-93026144D01*
X170110779Y-93026144D01*
G37*
D28*
G04 #@! TD*
G04 #@! TO.P,C14,1*
G04 #@! TO.N,3V3*
X169800000Y-93500000D03*
D27*
G04 #@! TO.N,3V3*
G04 #@! TO.C,C15*
G36*
X167075779Y-131636144D02*
X167098834Y-131639563D01*
X167121443Y-131645227D01*
X167143387Y-131653079D01*
X167164457Y-131663044D01*
X167184448Y-131675026D01*
X167203168Y-131688910D01*
X167220438Y-131704562D01*
X167236090Y-131721832D01*
X167249974Y-131740552D01*
X167261956Y-131760543D01*
X167271921Y-131781613D01*
X167279773Y-131803557D01*
X167285437Y-131826166D01*
X167288856Y-131849221D01*
X167290000Y-131872500D01*
X167290000Y-132347500D01*
X167288856Y-132370779D01*
X167285437Y-132393834D01*
X167279773Y-132416443D01*
X167271921Y-132438387D01*
X167261956Y-132459457D01*
X167249974Y-132479448D01*
X167236090Y-132498168D01*
X167220438Y-132515438D01*
X167203168Y-132531090D01*
X167184448Y-132544974D01*
X167164457Y-132556956D01*
X167143387Y-132566921D01*
X167121443Y-132574773D01*
X167098834Y-132580437D01*
X167075779Y-132583856D01*
X167052500Y-132585000D01*
X166477500Y-132585000D01*
X166454221Y-132583856D01*
X166431166Y-132580437D01*
X166408557Y-132574773D01*
X166386613Y-132566921D01*
X166365543Y-132556956D01*
X166345552Y-132544974D01*
X166326832Y-132531090D01*
X166309562Y-132515438D01*
X166293910Y-132498168D01*
X166280026Y-132479448D01*
X166268044Y-132459457D01*
X166258079Y-132438387D01*
X166250227Y-132416443D01*
X166244563Y-132393834D01*
X166241144Y-132370779D01*
X166240000Y-132347500D01*
X166240000Y-131872500D01*
X166241144Y-131849221D01*
X166244563Y-131826166D01*
X166250227Y-131803557D01*
X166258079Y-131781613D01*
X166268044Y-131760543D01*
X166280026Y-131740552D01*
X166293910Y-131721832D01*
X166309562Y-131704562D01*
X166326832Y-131688910D01*
X166345552Y-131675026D01*
X166365543Y-131663044D01*
X166386613Y-131653079D01*
X166408557Y-131645227D01*
X166431166Y-131639563D01*
X166454221Y-131636144D01*
X166477500Y-131635000D01*
X167052500Y-131635000D01*
X167075779Y-131636144D01*
X167075779Y-131636144D01*
G37*
D28*
G04 #@! TD*
G04 #@! TO.P,C15,1*
G04 #@! TO.N,3V3*
X166765000Y-132110000D03*
D27*
G04 #@! TO.N,GND*
G04 #@! TO.C,C15*
G36*
X168825779Y-131636144D02*
X168848834Y-131639563D01*
X168871443Y-131645227D01*
X168893387Y-131653079D01*
X168914457Y-131663044D01*
X168934448Y-131675026D01*
X168953168Y-131688910D01*
X168970438Y-131704562D01*
X168986090Y-131721832D01*
X168999974Y-131740552D01*
X169011956Y-131760543D01*
X169021921Y-131781613D01*
X169029773Y-131803557D01*
X169035437Y-131826166D01*
X169038856Y-131849221D01*
X169040000Y-131872500D01*
X169040000Y-132347500D01*
X169038856Y-132370779D01*
X169035437Y-132393834D01*
X169029773Y-132416443D01*
X169021921Y-132438387D01*
X169011956Y-132459457D01*
X168999974Y-132479448D01*
X168986090Y-132498168D01*
X168970438Y-132515438D01*
X168953168Y-132531090D01*
X168934448Y-132544974D01*
X168914457Y-132556956D01*
X168893387Y-132566921D01*
X168871443Y-132574773D01*
X168848834Y-132580437D01*
X168825779Y-132583856D01*
X168802500Y-132585000D01*
X168227500Y-132585000D01*
X168204221Y-132583856D01*
X168181166Y-132580437D01*
X168158557Y-132574773D01*
X168136613Y-132566921D01*
X168115543Y-132556956D01*
X168095552Y-132544974D01*
X168076832Y-132531090D01*
X168059562Y-132515438D01*
X168043910Y-132498168D01*
X168030026Y-132479448D01*
X168018044Y-132459457D01*
X168008079Y-132438387D01*
X168000227Y-132416443D01*
X167994563Y-132393834D01*
X167991144Y-132370779D01*
X167990000Y-132347500D01*
X167990000Y-131872500D01*
X167991144Y-131849221D01*
X167994563Y-131826166D01*
X168000227Y-131803557D01*
X168008079Y-131781613D01*
X168018044Y-131760543D01*
X168030026Y-131740552D01*
X168043910Y-131721832D01*
X168059562Y-131704562D01*
X168076832Y-131688910D01*
X168095552Y-131675026D01*
X168115543Y-131663044D01*
X168136613Y-131653079D01*
X168158557Y-131645227D01*
X168181166Y-131639563D01*
X168204221Y-131636144D01*
X168227500Y-131635000D01*
X168802500Y-131635000D01*
X168825779Y-131636144D01*
X168825779Y-131636144D01*
G37*
D28*
G04 #@! TD*
G04 #@! TO.P,C15,2*
G04 #@! TO.N,GND*
X168515000Y-132110000D03*
D27*
G04 #@! TO.N,GND*
G04 #@! TO.C,R17*
G36*
X163660779Y-87326144D02*
X163683834Y-87329563D01*
X163706443Y-87335227D01*
X163728387Y-87343079D01*
X163749457Y-87353044D01*
X163769448Y-87365026D01*
X163788168Y-87378910D01*
X163805438Y-87394562D01*
X163821090Y-87411832D01*
X163834974Y-87430552D01*
X163846956Y-87450543D01*
X163856921Y-87471613D01*
X163864773Y-87493557D01*
X163870437Y-87516166D01*
X163873856Y-87539221D01*
X163875000Y-87562500D01*
X163875000Y-88037500D01*
X163873856Y-88060779D01*
X163870437Y-88083834D01*
X163864773Y-88106443D01*
X163856921Y-88128387D01*
X163846956Y-88149457D01*
X163834974Y-88169448D01*
X163821090Y-88188168D01*
X163805438Y-88205438D01*
X163788168Y-88221090D01*
X163769448Y-88234974D01*
X163749457Y-88246956D01*
X163728387Y-88256921D01*
X163706443Y-88264773D01*
X163683834Y-88270437D01*
X163660779Y-88273856D01*
X163637500Y-88275000D01*
X163062500Y-88275000D01*
X163039221Y-88273856D01*
X163016166Y-88270437D01*
X162993557Y-88264773D01*
X162971613Y-88256921D01*
X162950543Y-88246956D01*
X162930552Y-88234974D01*
X162911832Y-88221090D01*
X162894562Y-88205438D01*
X162878910Y-88188168D01*
X162865026Y-88169448D01*
X162853044Y-88149457D01*
X162843079Y-88128387D01*
X162835227Y-88106443D01*
X162829563Y-88083834D01*
X162826144Y-88060779D01*
X162825000Y-88037500D01*
X162825000Y-87562500D01*
X162826144Y-87539221D01*
X162829563Y-87516166D01*
X162835227Y-87493557D01*
X162843079Y-87471613D01*
X162853044Y-87450543D01*
X162865026Y-87430552D01*
X162878910Y-87411832D01*
X162894562Y-87394562D01*
X162911832Y-87378910D01*
X162930552Y-87365026D01*
X162950543Y-87353044D01*
X162971613Y-87343079D01*
X162993557Y-87335227D01*
X163016166Y-87329563D01*
X163039221Y-87326144D01*
X163062500Y-87325000D01*
X163637500Y-87325000D01*
X163660779Y-87326144D01*
X163660779Y-87326144D01*
G37*
D28*
G04 #@! TD*
G04 #@! TO.P,R17,2*
G04 #@! TO.N,GND*
X163350000Y-87800000D03*
D27*
G04 #@! TO.N,Net-(R17-Pad1)*
G04 #@! TO.C,R17*
G36*
X165410779Y-87326144D02*
X165433834Y-87329563D01*
X165456443Y-87335227D01*
X165478387Y-87343079D01*
X165499457Y-87353044D01*
X165519448Y-87365026D01*
X165538168Y-87378910D01*
X165555438Y-87394562D01*
X165571090Y-87411832D01*
X165584974Y-87430552D01*
X165596956Y-87450543D01*
X165606921Y-87471613D01*
X165614773Y-87493557D01*
X165620437Y-87516166D01*
X165623856Y-87539221D01*
X165625000Y-87562500D01*
X165625000Y-88037500D01*
X165623856Y-88060779D01*
X165620437Y-88083834D01*
X165614773Y-88106443D01*
X165606921Y-88128387D01*
X165596956Y-88149457D01*
X165584974Y-88169448D01*
X165571090Y-88188168D01*
X165555438Y-88205438D01*
X165538168Y-88221090D01*
X165519448Y-88234974D01*
X165499457Y-88246956D01*
X165478387Y-88256921D01*
X165456443Y-88264773D01*
X165433834Y-88270437D01*
X165410779Y-88273856D01*
X165387500Y-88275000D01*
X164812500Y-88275000D01*
X164789221Y-88273856D01*
X164766166Y-88270437D01*
X164743557Y-88264773D01*
X164721613Y-88256921D01*
X164700543Y-88246956D01*
X164680552Y-88234974D01*
X164661832Y-88221090D01*
X164644562Y-88205438D01*
X164628910Y-88188168D01*
X164615026Y-88169448D01*
X164603044Y-88149457D01*
X164593079Y-88128387D01*
X164585227Y-88106443D01*
X164579563Y-88083834D01*
X164576144Y-88060779D01*
X164575000Y-88037500D01*
X164575000Y-87562500D01*
X164576144Y-87539221D01*
X164579563Y-87516166D01*
X164585227Y-87493557D01*
X164593079Y-87471613D01*
X164603044Y-87450543D01*
X164615026Y-87430552D01*
X164628910Y-87411832D01*
X164644562Y-87394562D01*
X164661832Y-87378910D01*
X164680552Y-87365026D01*
X164700543Y-87353044D01*
X164721613Y-87343079D01*
X164743557Y-87335227D01*
X164766166Y-87329563D01*
X164789221Y-87326144D01*
X164812500Y-87325000D01*
X165387500Y-87325000D01*
X165410779Y-87326144D01*
X165410779Y-87326144D01*
G37*
D28*
G04 #@! TD*
G04 #@! TO.P,R17,1*
G04 #@! TO.N,Net-(R17-Pad1)*
X165100000Y-87800000D03*
D27*
G04 #@! TO.N,GND*
G04 #@! TO.C,R18*
G36*
X163710779Y-89026144D02*
X163733834Y-89029563D01*
X163756443Y-89035227D01*
X163778387Y-89043079D01*
X163799457Y-89053044D01*
X163819448Y-89065026D01*
X163838168Y-89078910D01*
X163855438Y-89094562D01*
X163871090Y-89111832D01*
X163884974Y-89130552D01*
X163896956Y-89150543D01*
X163906921Y-89171613D01*
X163914773Y-89193557D01*
X163920437Y-89216166D01*
X163923856Y-89239221D01*
X163925000Y-89262500D01*
X163925000Y-89737500D01*
X163923856Y-89760779D01*
X163920437Y-89783834D01*
X163914773Y-89806443D01*
X163906921Y-89828387D01*
X163896956Y-89849457D01*
X163884974Y-89869448D01*
X163871090Y-89888168D01*
X163855438Y-89905438D01*
X163838168Y-89921090D01*
X163819448Y-89934974D01*
X163799457Y-89946956D01*
X163778387Y-89956921D01*
X163756443Y-89964773D01*
X163733834Y-89970437D01*
X163710779Y-89973856D01*
X163687500Y-89975000D01*
X163112500Y-89975000D01*
X163089221Y-89973856D01*
X163066166Y-89970437D01*
X163043557Y-89964773D01*
X163021613Y-89956921D01*
X163000543Y-89946956D01*
X162980552Y-89934974D01*
X162961832Y-89921090D01*
X162944562Y-89905438D01*
X162928910Y-89888168D01*
X162915026Y-89869448D01*
X162903044Y-89849457D01*
X162893079Y-89828387D01*
X162885227Y-89806443D01*
X162879563Y-89783834D01*
X162876144Y-89760779D01*
X162875000Y-89737500D01*
X162875000Y-89262500D01*
X162876144Y-89239221D01*
X162879563Y-89216166D01*
X162885227Y-89193557D01*
X162893079Y-89171613D01*
X162903044Y-89150543D01*
X162915026Y-89130552D01*
X162928910Y-89111832D01*
X162944562Y-89094562D01*
X162961832Y-89078910D01*
X162980552Y-89065026D01*
X163000543Y-89053044D01*
X163021613Y-89043079D01*
X163043557Y-89035227D01*
X163066166Y-89029563D01*
X163089221Y-89026144D01*
X163112500Y-89025000D01*
X163687500Y-89025000D01*
X163710779Y-89026144D01*
X163710779Y-89026144D01*
G37*
D28*
G04 #@! TD*
G04 #@! TO.P,R18,2*
G04 #@! TO.N,GND*
X163400000Y-89500000D03*
D27*
G04 #@! TO.N,Net-(R18-Pad1)*
G04 #@! TO.C,R18*
G36*
X165460779Y-89026144D02*
X165483834Y-89029563D01*
X165506443Y-89035227D01*
X165528387Y-89043079D01*
X165549457Y-89053044D01*
X165569448Y-89065026D01*
X165588168Y-89078910D01*
X165605438Y-89094562D01*
X165621090Y-89111832D01*
X165634974Y-89130552D01*
X165646956Y-89150543D01*
X165656921Y-89171613D01*
X165664773Y-89193557D01*
X165670437Y-89216166D01*
X165673856Y-89239221D01*
X165675000Y-89262500D01*
X165675000Y-89737500D01*
X165673856Y-89760779D01*
X165670437Y-89783834D01*
X165664773Y-89806443D01*
X165656921Y-89828387D01*
X165646956Y-89849457D01*
X165634974Y-89869448D01*
X165621090Y-89888168D01*
X165605438Y-89905438D01*
X165588168Y-89921090D01*
X165569448Y-89934974D01*
X165549457Y-89946956D01*
X165528387Y-89956921D01*
X165506443Y-89964773D01*
X165483834Y-89970437D01*
X165460779Y-89973856D01*
X165437500Y-89975000D01*
X164862500Y-89975000D01*
X164839221Y-89973856D01*
X164816166Y-89970437D01*
X164793557Y-89964773D01*
X164771613Y-89956921D01*
X164750543Y-89946956D01*
X164730552Y-89934974D01*
X164711832Y-89921090D01*
X164694562Y-89905438D01*
X164678910Y-89888168D01*
X164665026Y-89869448D01*
X164653044Y-89849457D01*
X164643079Y-89828387D01*
X164635227Y-89806443D01*
X164629563Y-89783834D01*
X164626144Y-89760779D01*
X164625000Y-89737500D01*
X164625000Y-89262500D01*
X164626144Y-89239221D01*
X164629563Y-89216166D01*
X164635227Y-89193557D01*
X164643079Y-89171613D01*
X164653044Y-89150543D01*
X164665026Y-89130552D01*
X164678910Y-89111832D01*
X164694562Y-89094562D01*
X164711832Y-89078910D01*
X164730552Y-89065026D01*
X164750543Y-89053044D01*
X164771613Y-89043079D01*
X164793557Y-89035227D01*
X164816166Y-89029563D01*
X164839221Y-89026144D01*
X164862500Y-89025000D01*
X165437500Y-89025000D01*
X165460779Y-89026144D01*
X165460779Y-89026144D01*
G37*
D28*
G04 #@! TD*
G04 #@! TO.P,R18,1*
G04 #@! TO.N,Net-(R18-Pad1)*
X165150000Y-89500000D03*
D27*
G04 #@! TO.N,Net-(D1-Pad1)*
G04 #@! TO.C,D1*
G36*
X134727691Y-128463553D02*
X134748926Y-128466703D01*
X134769750Y-128471919D01*
X134789962Y-128479151D01*
X134809368Y-128488330D01*
X134827781Y-128499366D01*
X134845024Y-128512154D01*
X134860930Y-128526570D01*
X134875346Y-128542476D01*
X134888134Y-128559719D01*
X134899170Y-128578132D01*
X134908349Y-128597538D01*
X134915581Y-128617750D01*
X134920797Y-128638574D01*
X134923947Y-128659809D01*
X134925000Y-128681250D01*
X134925000Y-129118750D01*
X134923947Y-129140191D01*
X134920797Y-129161426D01*
X134915581Y-129182250D01*
X134908349Y-129202462D01*
X134899170Y-129221868D01*
X134888134Y-129240281D01*
X134875346Y-129257524D01*
X134860930Y-129273430D01*
X134845024Y-129287846D01*
X134827781Y-129300634D01*
X134809368Y-129311670D01*
X134789962Y-129320849D01*
X134769750Y-129328081D01*
X134748926Y-129333297D01*
X134727691Y-129336447D01*
X134706250Y-129337500D01*
X134193750Y-129337500D01*
X134172309Y-129336447D01*
X134151074Y-129333297D01*
X134130250Y-129328081D01*
X134110038Y-129320849D01*
X134090632Y-129311670D01*
X134072219Y-129300634D01*
X134054976Y-129287846D01*
X134039070Y-129273430D01*
X134024654Y-129257524D01*
X134011866Y-129240281D01*
X134000830Y-129221868D01*
X133991651Y-129202462D01*
X133984419Y-129182250D01*
X133979203Y-129161426D01*
X133976053Y-129140191D01*
X133975000Y-129118750D01*
X133975000Y-128681250D01*
X133976053Y-128659809D01*
X133979203Y-128638574D01*
X133984419Y-128617750D01*
X133991651Y-128597538D01*
X134000830Y-128578132D01*
X134011866Y-128559719D01*
X134024654Y-128542476D01*
X134039070Y-128526570D01*
X134054976Y-128512154D01*
X134072219Y-128499366D01*
X134090632Y-128488330D01*
X134110038Y-128479151D01*
X134130250Y-128471919D01*
X134151074Y-128466703D01*
X134172309Y-128463553D01*
X134193750Y-128462500D01*
X134706250Y-128462500D01*
X134727691Y-128463553D01*
X134727691Y-128463553D01*
G37*
D29*
G04 #@! TD*
G04 #@! TO.P,D1,1*
G04 #@! TO.N,Net-(D1-Pad1)*
X134450000Y-128900000D03*
D27*
G04 #@! TO.N,3V3*
G04 #@! TO.C,D1*
G36*
X134727691Y-126888553D02*
X134748926Y-126891703D01*
X134769750Y-126896919D01*
X134789962Y-126904151D01*
X134809368Y-126913330D01*
X134827781Y-126924366D01*
X134845024Y-126937154D01*
X134860930Y-126951570D01*
X134875346Y-126967476D01*
X134888134Y-126984719D01*
X134899170Y-127003132D01*
X134908349Y-127022538D01*
X134915581Y-127042750D01*
X134920797Y-127063574D01*
X134923947Y-127084809D01*
X134925000Y-127106250D01*
X134925000Y-127543750D01*
X134923947Y-127565191D01*
X134920797Y-127586426D01*
X134915581Y-127607250D01*
X134908349Y-127627462D01*
X134899170Y-127646868D01*
X134888134Y-127665281D01*
X134875346Y-127682524D01*
X134860930Y-127698430D01*
X134845024Y-127712846D01*
X134827781Y-127725634D01*
X134809368Y-127736670D01*
X134789962Y-127745849D01*
X134769750Y-127753081D01*
X134748926Y-127758297D01*
X134727691Y-127761447D01*
X134706250Y-127762500D01*
X134193750Y-127762500D01*
X134172309Y-127761447D01*
X134151074Y-127758297D01*
X134130250Y-127753081D01*
X134110038Y-127745849D01*
X134090632Y-127736670D01*
X134072219Y-127725634D01*
X134054976Y-127712846D01*
X134039070Y-127698430D01*
X134024654Y-127682524D01*
X134011866Y-127665281D01*
X134000830Y-127646868D01*
X133991651Y-127627462D01*
X133984419Y-127607250D01*
X133979203Y-127586426D01*
X133976053Y-127565191D01*
X133975000Y-127543750D01*
X133975000Y-127106250D01*
X133976053Y-127084809D01*
X133979203Y-127063574D01*
X133984419Y-127042750D01*
X133991651Y-127022538D01*
X134000830Y-127003132D01*
X134011866Y-126984719D01*
X134024654Y-126967476D01*
X134039070Y-126951570D01*
X134054976Y-126937154D01*
X134072219Y-126924366D01*
X134090632Y-126913330D01*
X134110038Y-126904151D01*
X134130250Y-126896919D01*
X134151074Y-126891703D01*
X134172309Y-126888553D01*
X134193750Y-126887500D01*
X134706250Y-126887500D01*
X134727691Y-126888553D01*
X134727691Y-126888553D01*
G37*
D29*
G04 #@! TD*
G04 #@! TO.P,D1,2*
G04 #@! TO.N,3V3*
X134450000Y-127325000D03*
D27*
G04 #@! TO.N,3V3*
G04 #@! TO.C,D2*
G36*
X134577691Y-120713553D02*
X134598926Y-120716703D01*
X134619750Y-120721919D01*
X134639962Y-120729151D01*
X134659368Y-120738330D01*
X134677781Y-120749366D01*
X134695024Y-120762154D01*
X134710930Y-120776570D01*
X134725346Y-120792476D01*
X134738134Y-120809719D01*
X134749170Y-120828132D01*
X134758349Y-120847538D01*
X134765581Y-120867750D01*
X134770797Y-120888574D01*
X134773947Y-120909809D01*
X134775000Y-120931250D01*
X134775000Y-121368750D01*
X134773947Y-121390191D01*
X134770797Y-121411426D01*
X134765581Y-121432250D01*
X134758349Y-121452462D01*
X134749170Y-121471868D01*
X134738134Y-121490281D01*
X134725346Y-121507524D01*
X134710930Y-121523430D01*
X134695024Y-121537846D01*
X134677781Y-121550634D01*
X134659368Y-121561670D01*
X134639962Y-121570849D01*
X134619750Y-121578081D01*
X134598926Y-121583297D01*
X134577691Y-121586447D01*
X134556250Y-121587500D01*
X134043750Y-121587500D01*
X134022309Y-121586447D01*
X134001074Y-121583297D01*
X133980250Y-121578081D01*
X133960038Y-121570849D01*
X133940632Y-121561670D01*
X133922219Y-121550634D01*
X133904976Y-121537846D01*
X133889070Y-121523430D01*
X133874654Y-121507524D01*
X133861866Y-121490281D01*
X133850830Y-121471868D01*
X133841651Y-121452462D01*
X133834419Y-121432250D01*
X133829203Y-121411426D01*
X133826053Y-121390191D01*
X133825000Y-121368750D01*
X133825000Y-120931250D01*
X133826053Y-120909809D01*
X133829203Y-120888574D01*
X133834419Y-120867750D01*
X133841651Y-120847538D01*
X133850830Y-120828132D01*
X133861866Y-120809719D01*
X133874654Y-120792476D01*
X133889070Y-120776570D01*
X133904976Y-120762154D01*
X133922219Y-120749366D01*
X133940632Y-120738330D01*
X133960038Y-120729151D01*
X133980250Y-120721919D01*
X134001074Y-120716703D01*
X134022309Y-120713553D01*
X134043750Y-120712500D01*
X134556250Y-120712500D01*
X134577691Y-120713553D01*
X134577691Y-120713553D01*
G37*
D29*
G04 #@! TD*
G04 #@! TO.P,D2,2*
G04 #@! TO.N,3V3*
X134300000Y-121150000D03*
D27*
G04 #@! TO.N,Net-(D2-Pad1)*
G04 #@! TO.C,D2*
G36*
X134577691Y-122288553D02*
X134598926Y-122291703D01*
X134619750Y-122296919D01*
X134639962Y-122304151D01*
X134659368Y-122313330D01*
X134677781Y-122324366D01*
X134695024Y-122337154D01*
X134710930Y-122351570D01*
X134725346Y-122367476D01*
X134738134Y-122384719D01*
X134749170Y-122403132D01*
X134758349Y-122422538D01*
X134765581Y-122442750D01*
X134770797Y-122463574D01*
X134773947Y-122484809D01*
X134775000Y-122506250D01*
X134775000Y-122943750D01*
X134773947Y-122965191D01*
X134770797Y-122986426D01*
X134765581Y-123007250D01*
X134758349Y-123027462D01*
X134749170Y-123046868D01*
X134738134Y-123065281D01*
X134725346Y-123082524D01*
X134710930Y-123098430D01*
X134695024Y-123112846D01*
X134677781Y-123125634D01*
X134659368Y-123136670D01*
X134639962Y-123145849D01*
X134619750Y-123153081D01*
X134598926Y-123158297D01*
X134577691Y-123161447D01*
X134556250Y-123162500D01*
X134043750Y-123162500D01*
X134022309Y-123161447D01*
X134001074Y-123158297D01*
X133980250Y-123153081D01*
X133960038Y-123145849D01*
X133940632Y-123136670D01*
X133922219Y-123125634D01*
X133904976Y-123112846D01*
X133889070Y-123098430D01*
X133874654Y-123082524D01*
X133861866Y-123065281D01*
X133850830Y-123046868D01*
X133841651Y-123027462D01*
X133834419Y-123007250D01*
X133829203Y-122986426D01*
X133826053Y-122965191D01*
X133825000Y-122943750D01*
X133825000Y-122506250D01*
X133826053Y-122484809D01*
X133829203Y-122463574D01*
X133834419Y-122442750D01*
X133841651Y-122422538D01*
X133850830Y-122403132D01*
X133861866Y-122384719D01*
X133874654Y-122367476D01*
X133889070Y-122351570D01*
X133904976Y-122337154D01*
X133922219Y-122324366D01*
X133940632Y-122313330D01*
X133960038Y-122304151D01*
X133980250Y-122296919D01*
X134001074Y-122291703D01*
X134022309Y-122288553D01*
X134043750Y-122287500D01*
X134556250Y-122287500D01*
X134577691Y-122288553D01*
X134577691Y-122288553D01*
G37*
D29*
G04 #@! TD*
G04 #@! TO.P,D2,1*
G04 #@! TO.N,Net-(D2-Pad1)*
X134300000Y-122725000D03*
D27*
G04 #@! TO.N,3V3*
G04 #@! TO.C,D3*
G36*
X136527691Y-130763553D02*
X136548926Y-130766703D01*
X136569750Y-130771919D01*
X136589962Y-130779151D01*
X136609368Y-130788330D01*
X136627781Y-130799366D01*
X136645024Y-130812154D01*
X136660930Y-130826570D01*
X136675346Y-130842476D01*
X136688134Y-130859719D01*
X136699170Y-130878132D01*
X136708349Y-130897538D01*
X136715581Y-130917750D01*
X136720797Y-130938574D01*
X136723947Y-130959809D01*
X136725000Y-130981250D01*
X136725000Y-131418750D01*
X136723947Y-131440191D01*
X136720797Y-131461426D01*
X136715581Y-131482250D01*
X136708349Y-131502462D01*
X136699170Y-131521868D01*
X136688134Y-131540281D01*
X136675346Y-131557524D01*
X136660930Y-131573430D01*
X136645024Y-131587846D01*
X136627781Y-131600634D01*
X136609368Y-131611670D01*
X136589962Y-131620849D01*
X136569750Y-131628081D01*
X136548926Y-131633297D01*
X136527691Y-131636447D01*
X136506250Y-131637500D01*
X135993750Y-131637500D01*
X135972309Y-131636447D01*
X135951074Y-131633297D01*
X135930250Y-131628081D01*
X135910038Y-131620849D01*
X135890632Y-131611670D01*
X135872219Y-131600634D01*
X135854976Y-131587846D01*
X135839070Y-131573430D01*
X135824654Y-131557524D01*
X135811866Y-131540281D01*
X135800830Y-131521868D01*
X135791651Y-131502462D01*
X135784419Y-131482250D01*
X135779203Y-131461426D01*
X135776053Y-131440191D01*
X135775000Y-131418750D01*
X135775000Y-130981250D01*
X135776053Y-130959809D01*
X135779203Y-130938574D01*
X135784419Y-130917750D01*
X135791651Y-130897538D01*
X135800830Y-130878132D01*
X135811866Y-130859719D01*
X135824654Y-130842476D01*
X135839070Y-130826570D01*
X135854976Y-130812154D01*
X135872219Y-130799366D01*
X135890632Y-130788330D01*
X135910038Y-130779151D01*
X135930250Y-130771919D01*
X135951074Y-130766703D01*
X135972309Y-130763553D01*
X135993750Y-130762500D01*
X136506250Y-130762500D01*
X136527691Y-130763553D01*
X136527691Y-130763553D01*
G37*
D29*
G04 #@! TD*
G04 #@! TO.P,D3,2*
G04 #@! TO.N,3V3*
X136250000Y-131200000D03*
D27*
G04 #@! TO.N,Net-(D3-Pad1)*
G04 #@! TO.C,D3*
G36*
X136527691Y-132338553D02*
X136548926Y-132341703D01*
X136569750Y-132346919D01*
X136589962Y-132354151D01*
X136609368Y-132363330D01*
X136627781Y-132374366D01*
X136645024Y-132387154D01*
X136660930Y-132401570D01*
X136675346Y-132417476D01*
X136688134Y-132434719D01*
X136699170Y-132453132D01*
X136708349Y-132472538D01*
X136715581Y-132492750D01*
X136720797Y-132513574D01*
X136723947Y-132534809D01*
X136725000Y-132556250D01*
X136725000Y-132993750D01*
X136723947Y-133015191D01*
X136720797Y-133036426D01*
X136715581Y-133057250D01*
X136708349Y-133077462D01*
X136699170Y-133096868D01*
X136688134Y-133115281D01*
X136675346Y-133132524D01*
X136660930Y-133148430D01*
X136645024Y-133162846D01*
X136627781Y-133175634D01*
X136609368Y-133186670D01*
X136589962Y-133195849D01*
X136569750Y-133203081D01*
X136548926Y-133208297D01*
X136527691Y-133211447D01*
X136506250Y-133212500D01*
X135993750Y-133212500D01*
X135972309Y-133211447D01*
X135951074Y-133208297D01*
X135930250Y-133203081D01*
X135910038Y-133195849D01*
X135890632Y-133186670D01*
X135872219Y-133175634D01*
X135854976Y-133162846D01*
X135839070Y-133148430D01*
X135824654Y-133132524D01*
X135811866Y-133115281D01*
X135800830Y-133096868D01*
X135791651Y-133077462D01*
X135784419Y-133057250D01*
X135779203Y-133036426D01*
X135776053Y-133015191D01*
X135775000Y-132993750D01*
X135775000Y-132556250D01*
X135776053Y-132534809D01*
X135779203Y-132513574D01*
X135784419Y-132492750D01*
X135791651Y-132472538D01*
X135800830Y-132453132D01*
X135811866Y-132434719D01*
X135824654Y-132417476D01*
X135839070Y-132401570D01*
X135854976Y-132387154D01*
X135872219Y-132374366D01*
X135890632Y-132363330D01*
X135910038Y-132354151D01*
X135930250Y-132346919D01*
X135951074Y-132341703D01*
X135972309Y-132338553D01*
X135993750Y-132337500D01*
X136506250Y-132337500D01*
X136527691Y-132338553D01*
X136527691Y-132338553D01*
G37*
D29*
G04 #@! TD*
G04 #@! TO.P,D3,1*
G04 #@! TO.N,Net-(D3-Pad1)*
X136250000Y-132775000D03*
D27*
G04 #@! TO.N,GND*
G04 #@! TO.C,C11*
G36*
X132535779Y-86951144D02*
X132558834Y-86954563D01*
X132581443Y-86960227D01*
X132603387Y-86968079D01*
X132624457Y-86978044D01*
X132644448Y-86990026D01*
X132663168Y-87003910D01*
X132680438Y-87019562D01*
X132696090Y-87036832D01*
X132709974Y-87055552D01*
X132721956Y-87075543D01*
X132731921Y-87096613D01*
X132739773Y-87118557D01*
X132745437Y-87141166D01*
X132748856Y-87164221D01*
X132750000Y-87187500D01*
X132750000Y-87762500D01*
X132748856Y-87785779D01*
X132745437Y-87808834D01*
X132739773Y-87831443D01*
X132731921Y-87853387D01*
X132721956Y-87874457D01*
X132709974Y-87894448D01*
X132696090Y-87913168D01*
X132680438Y-87930438D01*
X132663168Y-87946090D01*
X132644448Y-87959974D01*
X132624457Y-87971956D01*
X132603387Y-87981921D01*
X132581443Y-87989773D01*
X132558834Y-87995437D01*
X132535779Y-87998856D01*
X132512500Y-88000000D01*
X132037500Y-88000000D01*
X132014221Y-87998856D01*
X131991166Y-87995437D01*
X131968557Y-87989773D01*
X131946613Y-87981921D01*
X131925543Y-87971956D01*
X131905552Y-87959974D01*
X131886832Y-87946090D01*
X131869562Y-87930438D01*
X131853910Y-87913168D01*
X131840026Y-87894448D01*
X131828044Y-87874457D01*
X131818079Y-87853387D01*
X131810227Y-87831443D01*
X131804563Y-87808834D01*
X131801144Y-87785779D01*
X131800000Y-87762500D01*
X131800000Y-87187500D01*
X131801144Y-87164221D01*
X131804563Y-87141166D01*
X131810227Y-87118557D01*
X131818079Y-87096613D01*
X131828044Y-87075543D01*
X131840026Y-87055552D01*
X131853910Y-87036832D01*
X131869562Y-87019562D01*
X131886832Y-87003910D01*
X131905552Y-86990026D01*
X131925543Y-86978044D01*
X131946613Y-86968079D01*
X131968557Y-86960227D01*
X131991166Y-86954563D01*
X132014221Y-86951144D01*
X132037500Y-86950000D01*
X132512500Y-86950000D01*
X132535779Y-86951144D01*
X132535779Y-86951144D01*
G37*
D28*
G04 #@! TD*
G04 #@! TO.P,C11,2*
G04 #@! TO.N,GND*
X132275000Y-87475000D03*
D27*
G04 #@! TO.N,/Power/REG_POWER*
G04 #@! TO.C,C11*
G36*
X132535779Y-88701144D02*
X132558834Y-88704563D01*
X132581443Y-88710227D01*
X132603387Y-88718079D01*
X132624457Y-88728044D01*
X132644448Y-88740026D01*
X132663168Y-88753910D01*
X132680438Y-88769562D01*
X132696090Y-88786832D01*
X132709974Y-88805552D01*
X132721956Y-88825543D01*
X132731921Y-88846613D01*
X132739773Y-88868557D01*
X132745437Y-88891166D01*
X132748856Y-88914221D01*
X132750000Y-88937500D01*
X132750000Y-89512500D01*
X132748856Y-89535779D01*
X132745437Y-89558834D01*
X132739773Y-89581443D01*
X132731921Y-89603387D01*
X132721956Y-89624457D01*
X132709974Y-89644448D01*
X132696090Y-89663168D01*
X132680438Y-89680438D01*
X132663168Y-89696090D01*
X132644448Y-89709974D01*
X132624457Y-89721956D01*
X132603387Y-89731921D01*
X132581443Y-89739773D01*
X132558834Y-89745437D01*
X132535779Y-89748856D01*
X132512500Y-89750000D01*
X132037500Y-89750000D01*
X132014221Y-89748856D01*
X131991166Y-89745437D01*
X131968557Y-89739773D01*
X131946613Y-89731921D01*
X131925543Y-89721956D01*
X131905552Y-89709974D01*
X131886832Y-89696090D01*
X131869562Y-89680438D01*
X131853910Y-89663168D01*
X131840026Y-89644448D01*
X131828044Y-89624457D01*
X131818079Y-89603387D01*
X131810227Y-89581443D01*
X131804563Y-89558834D01*
X131801144Y-89535779D01*
X131800000Y-89512500D01*
X131800000Y-88937500D01*
X131801144Y-88914221D01*
X131804563Y-88891166D01*
X131810227Y-88868557D01*
X131818079Y-88846613D01*
X131828044Y-88825543D01*
X131840026Y-88805552D01*
X131853910Y-88786832D01*
X131869562Y-88769562D01*
X131886832Y-88753910D01*
X131905552Y-88740026D01*
X131925543Y-88728044D01*
X131946613Y-88718079D01*
X131968557Y-88710227D01*
X131991166Y-88704563D01*
X132014221Y-88701144D01*
X132037500Y-88700000D01*
X132512500Y-88700000D01*
X132535779Y-88701144D01*
X132535779Y-88701144D01*
G37*
D28*
G04 #@! TD*
G04 #@! TO.P,C11,1*
G04 #@! TO.N,/Power/REG_POWER*
X132275000Y-89225000D03*
D27*
G04 #@! TO.N,/Power/REG_POWER*
G04 #@! TO.C,C13*
G36*
X130710779Y-88651144D02*
X130733834Y-88654563D01*
X130756443Y-88660227D01*
X130778387Y-88668079D01*
X130799457Y-88678044D01*
X130819448Y-88690026D01*
X130838168Y-88703910D01*
X130855438Y-88719562D01*
X130871090Y-88736832D01*
X130884974Y-88755552D01*
X130896956Y-88775543D01*
X130906921Y-88796613D01*
X130914773Y-88818557D01*
X130920437Y-88841166D01*
X130923856Y-88864221D01*
X130925000Y-88887500D01*
X130925000Y-89462500D01*
X130923856Y-89485779D01*
X130920437Y-89508834D01*
X130914773Y-89531443D01*
X130906921Y-89553387D01*
X130896956Y-89574457D01*
X130884974Y-89594448D01*
X130871090Y-89613168D01*
X130855438Y-89630438D01*
X130838168Y-89646090D01*
X130819448Y-89659974D01*
X130799457Y-89671956D01*
X130778387Y-89681921D01*
X130756443Y-89689773D01*
X130733834Y-89695437D01*
X130710779Y-89698856D01*
X130687500Y-89700000D01*
X130212500Y-89700000D01*
X130189221Y-89698856D01*
X130166166Y-89695437D01*
X130143557Y-89689773D01*
X130121613Y-89681921D01*
X130100543Y-89671956D01*
X130080552Y-89659974D01*
X130061832Y-89646090D01*
X130044562Y-89630438D01*
X130028910Y-89613168D01*
X130015026Y-89594448D01*
X130003044Y-89574457D01*
X129993079Y-89553387D01*
X129985227Y-89531443D01*
X129979563Y-89508834D01*
X129976144Y-89485779D01*
X129975000Y-89462500D01*
X129975000Y-88887500D01*
X129976144Y-88864221D01*
X129979563Y-88841166D01*
X129985227Y-88818557D01*
X129993079Y-88796613D01*
X130003044Y-88775543D01*
X130015026Y-88755552D01*
X130028910Y-88736832D01*
X130044562Y-88719562D01*
X130061832Y-88703910D01*
X130080552Y-88690026D01*
X130100543Y-88678044D01*
X130121613Y-88668079D01*
X130143557Y-88660227D01*
X130166166Y-88654563D01*
X130189221Y-88651144D01*
X130212500Y-88650000D01*
X130687500Y-88650000D01*
X130710779Y-88651144D01*
X130710779Y-88651144D01*
G37*
D28*
G04 #@! TD*
G04 #@! TO.P,C13,1*
G04 #@! TO.N,/Power/REG_POWER*
X130450000Y-89175000D03*
D27*
G04 #@! TO.N,GND*
G04 #@! TO.C,C13*
G36*
X130710779Y-86901144D02*
X130733834Y-86904563D01*
X130756443Y-86910227D01*
X130778387Y-86918079D01*
X130799457Y-86928044D01*
X130819448Y-86940026D01*
X130838168Y-86953910D01*
X130855438Y-86969562D01*
X130871090Y-86986832D01*
X130884974Y-87005552D01*
X130896956Y-87025543D01*
X130906921Y-87046613D01*
X130914773Y-87068557D01*
X130920437Y-87091166D01*
X130923856Y-87114221D01*
X130925000Y-87137500D01*
X130925000Y-87712500D01*
X130923856Y-87735779D01*
X130920437Y-87758834D01*
X130914773Y-87781443D01*
X130906921Y-87803387D01*
X130896956Y-87824457D01*
X130884974Y-87844448D01*
X130871090Y-87863168D01*
X130855438Y-87880438D01*
X130838168Y-87896090D01*
X130819448Y-87909974D01*
X130799457Y-87921956D01*
X130778387Y-87931921D01*
X130756443Y-87939773D01*
X130733834Y-87945437D01*
X130710779Y-87948856D01*
X130687500Y-87950000D01*
X130212500Y-87950000D01*
X130189221Y-87948856D01*
X130166166Y-87945437D01*
X130143557Y-87939773D01*
X130121613Y-87931921D01*
X130100543Y-87921956D01*
X130080552Y-87909974D01*
X130061832Y-87896090D01*
X130044562Y-87880438D01*
X130028910Y-87863168D01*
X130015026Y-87844448D01*
X130003044Y-87824457D01*
X129993079Y-87803387D01*
X129985227Y-87781443D01*
X129979563Y-87758834D01*
X129976144Y-87735779D01*
X129975000Y-87712500D01*
X129975000Y-87137500D01*
X129976144Y-87114221D01*
X129979563Y-87091166D01*
X129985227Y-87068557D01*
X129993079Y-87046613D01*
X130003044Y-87025543D01*
X130015026Y-87005552D01*
X130028910Y-86986832D01*
X130044562Y-86969562D01*
X130061832Y-86953910D01*
X130080552Y-86940026D01*
X130100543Y-86928044D01*
X130121613Y-86918079D01*
X130143557Y-86910227D01*
X130166166Y-86904563D01*
X130189221Y-86901144D01*
X130212500Y-86900000D01*
X130687500Y-86900000D01*
X130710779Y-86901144D01*
X130710779Y-86901144D01*
G37*
D28*
G04 #@! TD*
G04 #@! TO.P,C13,2*
G04 #@! TO.N,GND*
X130450000Y-87425000D03*
D27*
G04 #@! TO.N,/V_USB*
G04 #@! TO.C,R19*
G36*
X153660779Y-91351144D02*
X153683834Y-91354563D01*
X153706443Y-91360227D01*
X153728387Y-91368079D01*
X153749457Y-91378044D01*
X153769448Y-91390026D01*
X153788168Y-91403910D01*
X153805438Y-91419562D01*
X153821090Y-91436832D01*
X153834974Y-91455552D01*
X153846956Y-91475543D01*
X153856921Y-91496613D01*
X153864773Y-91518557D01*
X153870437Y-91541166D01*
X153873856Y-91564221D01*
X153875000Y-91587500D01*
X153875000Y-92162500D01*
X153873856Y-92185779D01*
X153870437Y-92208834D01*
X153864773Y-92231443D01*
X153856921Y-92253387D01*
X153846956Y-92274457D01*
X153834974Y-92294448D01*
X153821090Y-92313168D01*
X153805438Y-92330438D01*
X153788168Y-92346090D01*
X153769448Y-92359974D01*
X153749457Y-92371956D01*
X153728387Y-92381921D01*
X153706443Y-92389773D01*
X153683834Y-92395437D01*
X153660779Y-92398856D01*
X153637500Y-92400000D01*
X153162500Y-92400000D01*
X153139221Y-92398856D01*
X153116166Y-92395437D01*
X153093557Y-92389773D01*
X153071613Y-92381921D01*
X153050543Y-92371956D01*
X153030552Y-92359974D01*
X153011832Y-92346090D01*
X152994562Y-92330438D01*
X152978910Y-92313168D01*
X152965026Y-92294448D01*
X152953044Y-92274457D01*
X152943079Y-92253387D01*
X152935227Y-92231443D01*
X152929563Y-92208834D01*
X152926144Y-92185779D01*
X152925000Y-92162500D01*
X152925000Y-91587500D01*
X152926144Y-91564221D01*
X152929563Y-91541166D01*
X152935227Y-91518557D01*
X152943079Y-91496613D01*
X152953044Y-91475543D01*
X152965026Y-91455552D01*
X152978910Y-91436832D01*
X152994562Y-91419562D01*
X153011832Y-91403910D01*
X153030552Y-91390026D01*
X153050543Y-91378044D01*
X153071613Y-91368079D01*
X153093557Y-91360227D01*
X153116166Y-91354563D01*
X153139221Y-91351144D01*
X153162500Y-91350000D01*
X153637500Y-91350000D01*
X153660779Y-91351144D01*
X153660779Y-91351144D01*
G37*
D28*
G04 #@! TD*
G04 #@! TO.P,R19,1*
G04 #@! TO.N,/V_USB*
X153400000Y-91875000D03*
D27*
G04 #@! TO.N,Net-(R19-Pad2)*
G04 #@! TO.C,R19*
G36*
X153660779Y-89601144D02*
X153683834Y-89604563D01*
X153706443Y-89610227D01*
X153728387Y-89618079D01*
X153749457Y-89628044D01*
X153769448Y-89640026D01*
X153788168Y-89653910D01*
X153805438Y-89669562D01*
X153821090Y-89686832D01*
X153834974Y-89705552D01*
X153846956Y-89725543D01*
X153856921Y-89746613D01*
X153864773Y-89768557D01*
X153870437Y-89791166D01*
X153873856Y-89814221D01*
X153875000Y-89837500D01*
X153875000Y-90412500D01*
X153873856Y-90435779D01*
X153870437Y-90458834D01*
X153864773Y-90481443D01*
X153856921Y-90503387D01*
X153846956Y-90524457D01*
X153834974Y-90544448D01*
X153821090Y-90563168D01*
X153805438Y-90580438D01*
X153788168Y-90596090D01*
X153769448Y-90609974D01*
X153749457Y-90621956D01*
X153728387Y-90631921D01*
X153706443Y-90639773D01*
X153683834Y-90645437D01*
X153660779Y-90648856D01*
X153637500Y-90650000D01*
X153162500Y-90650000D01*
X153139221Y-90648856D01*
X153116166Y-90645437D01*
X153093557Y-90639773D01*
X153071613Y-90631921D01*
X153050543Y-90621956D01*
X153030552Y-90609974D01*
X153011832Y-90596090D01*
X152994562Y-90580438D01*
X152978910Y-90563168D01*
X152965026Y-90544448D01*
X152953044Y-90524457D01*
X152943079Y-90503387D01*
X152935227Y-90481443D01*
X152929563Y-90458834D01*
X152926144Y-90435779D01*
X152925000Y-90412500D01*
X152925000Y-89837500D01*
X152926144Y-89814221D01*
X152929563Y-89791166D01*
X152935227Y-89768557D01*
X152943079Y-89746613D01*
X152953044Y-89725543D01*
X152965026Y-89705552D01*
X152978910Y-89686832D01*
X152994562Y-89669562D01*
X153011832Y-89653910D01*
X153030552Y-89640026D01*
X153050543Y-89628044D01*
X153071613Y-89618079D01*
X153093557Y-89610227D01*
X153116166Y-89604563D01*
X153139221Y-89601144D01*
X153162500Y-89600000D01*
X153637500Y-89600000D01*
X153660779Y-89601144D01*
X153660779Y-89601144D01*
G37*
D28*
G04 #@! TD*
G04 #@! TO.P,R19,2*
G04 #@! TO.N,Net-(R19-Pad2)*
X153400000Y-90125000D03*
D27*
G04 #@! TO.N,GND*
G04 #@! TO.C,R21*
G36*
X155460779Y-91376144D02*
X155483834Y-91379563D01*
X155506443Y-91385227D01*
X155528387Y-91393079D01*
X155549457Y-91403044D01*
X155569448Y-91415026D01*
X155588168Y-91428910D01*
X155605438Y-91444562D01*
X155621090Y-91461832D01*
X155634974Y-91480552D01*
X155646956Y-91500543D01*
X155656921Y-91521613D01*
X155664773Y-91543557D01*
X155670437Y-91566166D01*
X155673856Y-91589221D01*
X155675000Y-91612500D01*
X155675000Y-92187500D01*
X155673856Y-92210779D01*
X155670437Y-92233834D01*
X155664773Y-92256443D01*
X155656921Y-92278387D01*
X155646956Y-92299457D01*
X155634974Y-92319448D01*
X155621090Y-92338168D01*
X155605438Y-92355438D01*
X155588168Y-92371090D01*
X155569448Y-92384974D01*
X155549457Y-92396956D01*
X155528387Y-92406921D01*
X155506443Y-92414773D01*
X155483834Y-92420437D01*
X155460779Y-92423856D01*
X155437500Y-92425000D01*
X154962500Y-92425000D01*
X154939221Y-92423856D01*
X154916166Y-92420437D01*
X154893557Y-92414773D01*
X154871613Y-92406921D01*
X154850543Y-92396956D01*
X154830552Y-92384974D01*
X154811832Y-92371090D01*
X154794562Y-92355438D01*
X154778910Y-92338168D01*
X154765026Y-92319448D01*
X154753044Y-92299457D01*
X154743079Y-92278387D01*
X154735227Y-92256443D01*
X154729563Y-92233834D01*
X154726144Y-92210779D01*
X154725000Y-92187500D01*
X154725000Y-91612500D01*
X154726144Y-91589221D01*
X154729563Y-91566166D01*
X154735227Y-91543557D01*
X154743079Y-91521613D01*
X154753044Y-91500543D01*
X154765026Y-91480552D01*
X154778910Y-91461832D01*
X154794562Y-91444562D01*
X154811832Y-91428910D01*
X154830552Y-91415026D01*
X154850543Y-91403044D01*
X154871613Y-91393079D01*
X154893557Y-91385227D01*
X154916166Y-91379563D01*
X154939221Y-91376144D01*
X154962500Y-91375000D01*
X155437500Y-91375000D01*
X155460779Y-91376144D01*
X155460779Y-91376144D01*
G37*
D28*
G04 #@! TD*
G04 #@! TO.P,R21,2*
G04 #@! TO.N,GND*
X155200000Y-91900000D03*
D27*
G04 #@! TO.N,Net-(R19-Pad2)*
G04 #@! TO.C,R21*
G36*
X155460779Y-89626144D02*
X155483834Y-89629563D01*
X155506443Y-89635227D01*
X155528387Y-89643079D01*
X155549457Y-89653044D01*
X155569448Y-89665026D01*
X155588168Y-89678910D01*
X155605438Y-89694562D01*
X155621090Y-89711832D01*
X155634974Y-89730552D01*
X155646956Y-89750543D01*
X155656921Y-89771613D01*
X155664773Y-89793557D01*
X155670437Y-89816166D01*
X155673856Y-89839221D01*
X155675000Y-89862500D01*
X155675000Y-90437500D01*
X155673856Y-90460779D01*
X155670437Y-90483834D01*
X155664773Y-90506443D01*
X155656921Y-90528387D01*
X155646956Y-90549457D01*
X155634974Y-90569448D01*
X155621090Y-90588168D01*
X155605438Y-90605438D01*
X155588168Y-90621090D01*
X155569448Y-90634974D01*
X155549457Y-90646956D01*
X155528387Y-90656921D01*
X155506443Y-90664773D01*
X155483834Y-90670437D01*
X155460779Y-90673856D01*
X155437500Y-90675000D01*
X154962500Y-90675000D01*
X154939221Y-90673856D01*
X154916166Y-90670437D01*
X154893557Y-90664773D01*
X154871613Y-90656921D01*
X154850543Y-90646956D01*
X154830552Y-90634974D01*
X154811832Y-90621090D01*
X154794562Y-90605438D01*
X154778910Y-90588168D01*
X154765026Y-90569448D01*
X154753044Y-90549457D01*
X154743079Y-90528387D01*
X154735227Y-90506443D01*
X154729563Y-90483834D01*
X154726144Y-90460779D01*
X154725000Y-90437500D01*
X154725000Y-89862500D01*
X154726144Y-89839221D01*
X154729563Y-89816166D01*
X154735227Y-89793557D01*
X154743079Y-89771613D01*
X154753044Y-89750543D01*
X154765026Y-89730552D01*
X154778910Y-89711832D01*
X154794562Y-89694562D01*
X154811832Y-89678910D01*
X154830552Y-89665026D01*
X154850543Y-89653044D01*
X154871613Y-89643079D01*
X154893557Y-89635227D01*
X154916166Y-89629563D01*
X154939221Y-89626144D01*
X154962500Y-89625000D01*
X155437500Y-89625000D01*
X155460779Y-89626144D01*
X155460779Y-89626144D01*
G37*
D28*
G04 #@! TD*
G04 #@! TO.P,R21,1*
G04 #@! TO.N,Net-(R19-Pad2)*
X155200000Y-90150000D03*
D30*
G04 #@! TO.P,U2,1*
G04 #@! TO.N,N/C*
X116840000Y-83860000D03*
G04 #@! TO.P,U2,2*
X174840000Y-83860000D03*
G04 #@! TO.P,U2,3*
X116840000Y-132860000D03*
G04 #@! TO.P,U2,4*
X174840000Y-132860000D03*
G04 #@! TD*
D15*
G04 #@! TO.P,PACK1,1*
G04 #@! TO.N,/PACK1*
X166370000Y-99960000D03*
G04 #@! TO.P,PACK1,2*
G04 #@! TO.N,GND*
X174120000Y-99960000D03*
G04 #@! TD*
G04 #@! TO.P,PACK2,2*
G04 #@! TO.N,GND*
X174080000Y-109200000D03*
G04 #@! TO.P,PACK2,1*
G04 #@! TO.N,/PACK2*
X166330000Y-109200000D03*
G04 #@! TD*
D27*
G04 #@! TO.N,Net-(D8-Pad1)*
G04 #@! TO.C,D8*
G36*
X164567691Y-129986053D02*
X164588926Y-129989203D01*
X164609750Y-129994419D01*
X164629962Y-130001651D01*
X164649368Y-130010830D01*
X164667781Y-130021866D01*
X164685024Y-130034654D01*
X164700930Y-130049070D01*
X164715346Y-130064976D01*
X164728134Y-130082219D01*
X164739170Y-130100632D01*
X164748349Y-130120038D01*
X164755581Y-130140250D01*
X164760797Y-130161074D01*
X164763947Y-130182309D01*
X164765000Y-130203750D01*
X164765000Y-130641250D01*
X164763947Y-130662691D01*
X164760797Y-130683926D01*
X164755581Y-130704750D01*
X164748349Y-130724962D01*
X164739170Y-130744368D01*
X164728134Y-130762781D01*
X164715346Y-130780024D01*
X164700930Y-130795930D01*
X164685024Y-130810346D01*
X164667781Y-130823134D01*
X164649368Y-130834170D01*
X164629962Y-130843349D01*
X164609750Y-130850581D01*
X164588926Y-130855797D01*
X164567691Y-130858947D01*
X164546250Y-130860000D01*
X164033750Y-130860000D01*
X164012309Y-130858947D01*
X163991074Y-130855797D01*
X163970250Y-130850581D01*
X163950038Y-130843349D01*
X163930632Y-130834170D01*
X163912219Y-130823134D01*
X163894976Y-130810346D01*
X163879070Y-130795930D01*
X163864654Y-130780024D01*
X163851866Y-130762781D01*
X163840830Y-130744368D01*
X163831651Y-130724962D01*
X163824419Y-130704750D01*
X163819203Y-130683926D01*
X163816053Y-130662691D01*
X163815000Y-130641250D01*
X163815000Y-130203750D01*
X163816053Y-130182309D01*
X163819203Y-130161074D01*
X163824419Y-130140250D01*
X163831651Y-130120038D01*
X163840830Y-130100632D01*
X163851866Y-130082219D01*
X163864654Y-130064976D01*
X163879070Y-130049070D01*
X163894976Y-130034654D01*
X163912219Y-130021866D01*
X163930632Y-130010830D01*
X163950038Y-130001651D01*
X163970250Y-129994419D01*
X163991074Y-129989203D01*
X164012309Y-129986053D01*
X164033750Y-129985000D01*
X164546250Y-129985000D01*
X164567691Y-129986053D01*
X164567691Y-129986053D01*
G37*
D29*
G04 #@! TD*
G04 #@! TO.P,D8,1*
G04 #@! TO.N,Net-(D8-Pad1)*
X164290000Y-130422500D03*
D27*
G04 #@! TO.N,3V3*
G04 #@! TO.C,D8*
G36*
X164567691Y-128411053D02*
X164588926Y-128414203D01*
X164609750Y-128419419D01*
X164629962Y-128426651D01*
X164649368Y-128435830D01*
X164667781Y-128446866D01*
X164685024Y-128459654D01*
X164700930Y-128474070D01*
X164715346Y-128489976D01*
X164728134Y-128507219D01*
X164739170Y-128525632D01*
X164748349Y-128545038D01*
X164755581Y-128565250D01*
X164760797Y-128586074D01*
X164763947Y-128607309D01*
X164765000Y-128628750D01*
X164765000Y-129066250D01*
X164763947Y-129087691D01*
X164760797Y-129108926D01*
X164755581Y-129129750D01*
X164748349Y-129149962D01*
X164739170Y-129169368D01*
X164728134Y-129187781D01*
X164715346Y-129205024D01*
X164700930Y-129220930D01*
X164685024Y-129235346D01*
X164667781Y-129248134D01*
X164649368Y-129259170D01*
X164629962Y-129268349D01*
X164609750Y-129275581D01*
X164588926Y-129280797D01*
X164567691Y-129283947D01*
X164546250Y-129285000D01*
X164033750Y-129285000D01*
X164012309Y-129283947D01*
X163991074Y-129280797D01*
X163970250Y-129275581D01*
X163950038Y-129268349D01*
X163930632Y-129259170D01*
X163912219Y-129248134D01*
X163894976Y-129235346D01*
X163879070Y-129220930D01*
X163864654Y-129205024D01*
X163851866Y-129187781D01*
X163840830Y-129169368D01*
X163831651Y-129149962D01*
X163824419Y-129129750D01*
X163819203Y-129108926D01*
X163816053Y-129087691D01*
X163815000Y-129066250D01*
X163815000Y-128628750D01*
X163816053Y-128607309D01*
X163819203Y-128586074D01*
X163824419Y-128565250D01*
X163831651Y-128545038D01*
X163840830Y-128525632D01*
X163851866Y-128507219D01*
X163864654Y-128489976D01*
X163879070Y-128474070D01*
X163894976Y-128459654D01*
X163912219Y-128446866D01*
X163930632Y-128435830D01*
X163950038Y-128426651D01*
X163970250Y-128419419D01*
X163991074Y-128414203D01*
X164012309Y-128411053D01*
X164033750Y-128410000D01*
X164546250Y-128410000D01*
X164567691Y-128411053D01*
X164567691Y-128411053D01*
G37*
D29*
G04 #@! TD*
G04 #@! TO.P,D8,2*
G04 #@! TO.N,3V3*
X164290000Y-128847500D03*
D27*
G04 #@! TO.N,/USB_EN*
G04 #@! TO.C,R22*
G36*
X153785779Y-96551144D02*
X153808834Y-96554563D01*
X153831443Y-96560227D01*
X153853387Y-96568079D01*
X153874457Y-96578044D01*
X153894448Y-96590026D01*
X153913168Y-96603910D01*
X153930438Y-96619562D01*
X153946090Y-96636832D01*
X153959974Y-96655552D01*
X153971956Y-96675543D01*
X153981921Y-96696613D01*
X153989773Y-96718557D01*
X153995437Y-96741166D01*
X153998856Y-96764221D01*
X154000000Y-96787500D01*
X154000000Y-97262500D01*
X153998856Y-97285779D01*
X153995437Y-97308834D01*
X153989773Y-97331443D01*
X153981921Y-97353387D01*
X153971956Y-97374457D01*
X153959974Y-97394448D01*
X153946090Y-97413168D01*
X153930438Y-97430438D01*
X153913168Y-97446090D01*
X153894448Y-97459974D01*
X153874457Y-97471956D01*
X153853387Y-97481921D01*
X153831443Y-97489773D01*
X153808834Y-97495437D01*
X153785779Y-97498856D01*
X153762500Y-97500000D01*
X153187500Y-97500000D01*
X153164221Y-97498856D01*
X153141166Y-97495437D01*
X153118557Y-97489773D01*
X153096613Y-97481921D01*
X153075543Y-97471956D01*
X153055552Y-97459974D01*
X153036832Y-97446090D01*
X153019562Y-97430438D01*
X153003910Y-97413168D01*
X152990026Y-97394448D01*
X152978044Y-97374457D01*
X152968079Y-97353387D01*
X152960227Y-97331443D01*
X152954563Y-97308834D01*
X152951144Y-97285779D01*
X152950000Y-97262500D01*
X152950000Y-96787500D01*
X152951144Y-96764221D01*
X152954563Y-96741166D01*
X152960227Y-96718557D01*
X152968079Y-96696613D01*
X152978044Y-96675543D01*
X152990026Y-96655552D01*
X153003910Y-96636832D01*
X153019562Y-96619562D01*
X153036832Y-96603910D01*
X153055552Y-96590026D01*
X153075543Y-96578044D01*
X153096613Y-96568079D01*
X153118557Y-96560227D01*
X153141166Y-96554563D01*
X153164221Y-96551144D01*
X153187500Y-96550000D01*
X153762500Y-96550000D01*
X153785779Y-96551144D01*
X153785779Y-96551144D01*
G37*
D28*
G04 #@! TD*
G04 #@! TO.P,R22,1*
G04 #@! TO.N,/USB_EN*
X153475000Y-97025000D03*
D27*
G04 #@! TO.N,GND*
G04 #@! TO.C,R22*
G36*
X155535779Y-96551144D02*
X155558834Y-96554563D01*
X155581443Y-96560227D01*
X155603387Y-96568079D01*
X155624457Y-96578044D01*
X155644448Y-96590026D01*
X155663168Y-96603910D01*
X155680438Y-96619562D01*
X155696090Y-96636832D01*
X155709974Y-96655552D01*
X155721956Y-96675543D01*
X155731921Y-96696613D01*
X155739773Y-96718557D01*
X155745437Y-96741166D01*
X155748856Y-96764221D01*
X155750000Y-96787500D01*
X155750000Y-97262500D01*
X155748856Y-97285779D01*
X155745437Y-97308834D01*
X155739773Y-97331443D01*
X155731921Y-97353387D01*
X155721956Y-97374457D01*
X155709974Y-97394448D01*
X155696090Y-97413168D01*
X155680438Y-97430438D01*
X155663168Y-97446090D01*
X155644448Y-97459974D01*
X155624457Y-97471956D01*
X155603387Y-97481921D01*
X155581443Y-97489773D01*
X155558834Y-97495437D01*
X155535779Y-97498856D01*
X155512500Y-97500000D01*
X154937500Y-97500000D01*
X154914221Y-97498856D01*
X154891166Y-97495437D01*
X154868557Y-97489773D01*
X154846613Y-97481921D01*
X154825543Y-97471956D01*
X154805552Y-97459974D01*
X154786832Y-97446090D01*
X154769562Y-97430438D01*
X154753910Y-97413168D01*
X154740026Y-97394448D01*
X154728044Y-97374457D01*
X154718079Y-97353387D01*
X154710227Y-97331443D01*
X154704563Y-97308834D01*
X154701144Y-97285779D01*
X154700000Y-97262500D01*
X154700000Y-96787500D01*
X154701144Y-96764221D01*
X154704563Y-96741166D01*
X154710227Y-96718557D01*
X154718079Y-96696613D01*
X154728044Y-96675543D01*
X154740026Y-96655552D01*
X154753910Y-96636832D01*
X154769562Y-96619562D01*
X154786832Y-96603910D01*
X154805552Y-96590026D01*
X154825543Y-96578044D01*
X154846613Y-96568079D01*
X154868557Y-96560227D01*
X154891166Y-96554563D01*
X154914221Y-96551144D01*
X154937500Y-96550000D01*
X155512500Y-96550000D01*
X155535779Y-96551144D01*
X155535779Y-96551144D01*
G37*
D28*
G04 #@! TD*
G04 #@! TO.P,R22,2*
G04 #@! TO.N,GND*
X155225000Y-97025000D03*
D31*
G04 #@! TO.P,J2,1*
G04 #@! TO.N,3V3*
X169800000Y-82600000D03*
D32*
G04 #@! TO.P,J2,2*
G04 #@! TO.N,/V_USB*
X169800000Y-85140000D03*
G04 #@! TO.P,J2,3*
G04 #@! TO.N,/SDA*
X167260000Y-82600000D03*
G04 #@! TO.P,J2,4*
G04 #@! TO.N,/V_USB*
X167260000Y-85140000D03*
G04 #@! TO.P,J2,5*
G04 #@! TO.N,/SCL*
X164720000Y-82600000D03*
G04 #@! TO.P,J2,6*
G04 #@! TO.N,GND*
X164720000Y-85140000D03*
G04 #@! TO.P,J2,7*
G04 #@! TO.N,Net-(J2-Pad7)*
X162180000Y-82600000D03*
G04 #@! TO.P,J2,8*
G04 #@! TO.N,/TXD*
X162180000Y-85140000D03*
G04 #@! TO.P,J2,9*
G04 #@! TO.N,GND*
X159640000Y-82600000D03*
G04 #@! TO.P,J2,10*
G04 #@! TO.N,/RXD*
X159640000Y-85140000D03*
G04 #@! TO.P,J2,11*
G04 #@! TO.N,Net-(J2-Pad11)*
X157100000Y-82600000D03*
G04 #@! TO.P,J2,12*
G04 #@! TO.N,Net-(J2-Pad12)*
X157100000Y-85140000D03*
G04 #@! TO.P,J2,13*
G04 #@! TO.N,Net-(J2-Pad13)*
X154560000Y-82600000D03*
G04 #@! TO.P,J2,14*
G04 #@! TO.N,GND*
X154560000Y-85140000D03*
G04 #@! TO.P,J2,15*
G04 #@! TO.N,Net-(J2-Pad15)*
X152020000Y-82600000D03*
G04 #@! TO.P,J2,16*
G04 #@! TO.N,Net-(J2-Pad16)*
X152020000Y-85140000D03*
G04 #@! TO.P,J2,17*
G04 #@! TO.N,3V3*
X149480000Y-82600000D03*
G04 #@! TO.P,J2,18*
G04 #@! TO.N,Net-(J2-Pad18)*
X149480000Y-85140000D03*
G04 #@! TO.P,J2,19*
G04 #@! TO.N,/microcontroller/MOSI*
X146940000Y-82600000D03*
G04 #@! TO.P,J2,20*
G04 #@! TO.N,GND*
X146940000Y-85140000D03*
G04 #@! TO.P,J2,21*
G04 #@! TO.N,/microcontroller/MISO*
X144400000Y-82600000D03*
G04 #@! TO.P,J2,22*
G04 #@! TO.N,Net-(J2-Pad22)*
X144400000Y-85140000D03*
G04 #@! TO.P,J2,23*
G04 #@! TO.N,/microcontroller/SCLK*
X141860000Y-82600000D03*
G04 #@! TO.P,J2,24*
G04 #@! TO.N,Net-(J2-Pad24)*
X141860000Y-85140000D03*
G04 #@! TO.P,J2,25*
G04 #@! TO.N,GND*
X139320000Y-82600000D03*
G04 #@! TO.P,J2,26*
G04 #@! TO.N,Net-(J2-Pad26)*
X139320000Y-85140000D03*
G04 #@! TO.P,J2,27*
G04 #@! TO.N,Net-(J2-Pad27)*
X136780000Y-82600000D03*
G04 #@! TO.P,J2,28*
G04 #@! TO.N,Net-(J2-Pad28)*
X136780000Y-85140000D03*
G04 #@! TO.P,J2,29*
G04 #@! TO.N,Net-(J2-Pad29)*
X134240000Y-82600000D03*
G04 #@! TO.P,J2,30*
G04 #@! TO.N,GND*
X134240000Y-85140000D03*
G04 #@! TO.P,J2,31*
G04 #@! TO.N,Net-(J2-Pad31)*
X131700000Y-82600000D03*
G04 #@! TO.P,J2,32*
G04 #@! TO.N,Net-(J2-Pad32)*
X131700000Y-85140000D03*
G04 #@! TO.P,J2,33*
G04 #@! TO.N,Net-(J2-Pad33)*
X129160000Y-82600000D03*
G04 #@! TO.P,J2,34*
G04 #@! TO.N,GND*
X129160000Y-85140000D03*
G04 #@! TO.P,J2,35*
G04 #@! TO.N,Net-(J2-Pad35)*
X126620000Y-82600000D03*
G04 #@! TO.P,J2,36*
G04 #@! TO.N,Net-(J2-Pad36)*
X126620000Y-85140000D03*
G04 #@! TO.P,J2,37*
G04 #@! TO.N,Net-(J2-Pad37)*
X124080000Y-82600000D03*
G04 #@! TO.P,J2,38*
G04 #@! TO.N,Net-(J2-Pad38)*
X124080000Y-85140000D03*
G04 #@! TO.P,J2,39*
G04 #@! TO.N,GND*
X121540000Y-82600000D03*
G04 #@! TO.P,J2,40*
G04 #@! TO.N,Net-(J2-Pad40)*
X121540000Y-85140000D03*
G04 #@! TD*
D33*
G04 #@! TO.P,FACT,2*
G04 #@! TO.N,GND*
X130550000Y-128975000D03*
G04 #@! TO.P,FACT,1*
G04 #@! TO.N,/FACTORY*
X130550000Y-127375000D03*
G04 #@! TO.P,FACT,2*
G04 #@! TO.N,GND*
X126450000Y-128975000D03*
G04 #@! TO.P,FACT,1*
G04 #@! TO.N,/FACTORY*
X126450000Y-127375000D03*
G04 #@! TD*
G04 #@! TO.P,RST,1*
G04 #@! TO.N,/EN*
X126400000Y-121000000D03*
G04 #@! TO.P,RST,2*
G04 #@! TO.N,GND*
X126400000Y-122600000D03*
G04 #@! TO.P,RST,1*
G04 #@! TO.N,/EN*
X130500000Y-121000000D03*
G04 #@! TO.P,RST,2*
G04 #@! TO.N,GND*
X130500000Y-122600000D03*
G04 #@! TD*
G04 #@! TO.P,PROG,1*
G04 #@! TO.N,/PROG*
X140675001Y-131175001D03*
G04 #@! TO.P,PROG,2*
G04 #@! TO.N,GND*
X140675001Y-132775001D03*
G04 #@! TO.P,PROG,1*
G04 #@! TO.N,/PROG*
X144775001Y-131175001D03*
G04 #@! TO.P,PROG,2*
G04 #@! TO.N,GND*
X144775001Y-132775001D03*
G04 #@! TD*
D27*
G04 #@! TO.N,/V_USB*
G04 #@! TO.C,C16*
G36*
X153760779Y-93126144D02*
X153783834Y-93129563D01*
X153806443Y-93135227D01*
X153828387Y-93143079D01*
X153849457Y-93153044D01*
X153869448Y-93165026D01*
X153888168Y-93178910D01*
X153905438Y-93194562D01*
X153921090Y-93211832D01*
X153934974Y-93230552D01*
X153946956Y-93250543D01*
X153956921Y-93271613D01*
X153964773Y-93293557D01*
X153970437Y-93316166D01*
X153973856Y-93339221D01*
X153975000Y-93362500D01*
X153975000Y-93837500D01*
X153973856Y-93860779D01*
X153970437Y-93883834D01*
X153964773Y-93906443D01*
X153956921Y-93928387D01*
X153946956Y-93949457D01*
X153934974Y-93969448D01*
X153921090Y-93988168D01*
X153905438Y-94005438D01*
X153888168Y-94021090D01*
X153869448Y-94034974D01*
X153849457Y-94046956D01*
X153828387Y-94056921D01*
X153806443Y-94064773D01*
X153783834Y-94070437D01*
X153760779Y-94073856D01*
X153737500Y-94075000D01*
X153162500Y-94075000D01*
X153139221Y-94073856D01*
X153116166Y-94070437D01*
X153093557Y-94064773D01*
X153071613Y-94056921D01*
X153050543Y-94046956D01*
X153030552Y-94034974D01*
X153011832Y-94021090D01*
X152994562Y-94005438D01*
X152978910Y-93988168D01*
X152965026Y-93969448D01*
X152953044Y-93949457D01*
X152943079Y-93928387D01*
X152935227Y-93906443D01*
X152929563Y-93883834D01*
X152926144Y-93860779D01*
X152925000Y-93837500D01*
X152925000Y-93362500D01*
X152926144Y-93339221D01*
X152929563Y-93316166D01*
X152935227Y-93293557D01*
X152943079Y-93271613D01*
X152953044Y-93250543D01*
X152965026Y-93230552D01*
X152978910Y-93211832D01*
X152994562Y-93194562D01*
X153011832Y-93178910D01*
X153030552Y-93165026D01*
X153050543Y-93153044D01*
X153071613Y-93143079D01*
X153093557Y-93135227D01*
X153116166Y-93129563D01*
X153139221Y-93126144D01*
X153162500Y-93125000D01*
X153737500Y-93125000D01*
X153760779Y-93126144D01*
X153760779Y-93126144D01*
G37*
D28*
G04 #@! TD*
G04 #@! TO.P,C16,1*
G04 #@! TO.N,/V_USB*
X153450000Y-93600000D03*
D27*
G04 #@! TO.N,GND*
G04 #@! TO.C,C16*
G36*
X155510779Y-93126144D02*
X155533834Y-93129563D01*
X155556443Y-93135227D01*
X155578387Y-93143079D01*
X155599457Y-93153044D01*
X155619448Y-93165026D01*
X155638168Y-93178910D01*
X155655438Y-93194562D01*
X155671090Y-93211832D01*
X155684974Y-93230552D01*
X155696956Y-93250543D01*
X155706921Y-93271613D01*
X155714773Y-93293557D01*
X155720437Y-93316166D01*
X155723856Y-93339221D01*
X155725000Y-93362500D01*
X155725000Y-93837500D01*
X155723856Y-93860779D01*
X155720437Y-93883834D01*
X155714773Y-93906443D01*
X155706921Y-93928387D01*
X155696956Y-93949457D01*
X155684974Y-93969448D01*
X155671090Y-93988168D01*
X155655438Y-94005438D01*
X155638168Y-94021090D01*
X155619448Y-94034974D01*
X155599457Y-94046956D01*
X155578387Y-94056921D01*
X155556443Y-94064773D01*
X155533834Y-94070437D01*
X155510779Y-94073856D01*
X155487500Y-94075000D01*
X154912500Y-94075000D01*
X154889221Y-94073856D01*
X154866166Y-94070437D01*
X154843557Y-94064773D01*
X154821613Y-94056921D01*
X154800543Y-94046956D01*
X154780552Y-94034974D01*
X154761832Y-94021090D01*
X154744562Y-94005438D01*
X154728910Y-93988168D01*
X154715026Y-93969448D01*
X154703044Y-93949457D01*
X154693079Y-93928387D01*
X154685227Y-93906443D01*
X154679563Y-93883834D01*
X154676144Y-93860779D01*
X154675000Y-93837500D01*
X154675000Y-93362500D01*
X154676144Y-93339221D01*
X154679563Y-93316166D01*
X154685227Y-93293557D01*
X154693079Y-93271613D01*
X154703044Y-93250543D01*
X154715026Y-93230552D01*
X154728910Y-93211832D01*
X154744562Y-93194562D01*
X154761832Y-93178910D01*
X154780552Y-93165026D01*
X154800543Y-93153044D01*
X154821613Y-93143079D01*
X154843557Y-93135227D01*
X154866166Y-93129563D01*
X154889221Y-93126144D01*
X154912500Y-93125000D01*
X155487500Y-93125000D01*
X155510779Y-93126144D01*
X155510779Y-93126144D01*
G37*
D28*
G04 #@! TD*
G04 #@! TO.P,C16,2*
G04 #@! TO.N,GND*
X155200000Y-93600000D03*
D27*
G04 #@! TO.N,MAIN_CURRENT_SENSE*
G04 #@! TO.C,R26*
G36*
X134442779Y-100707144D02*
X134465834Y-100710563D01*
X134488443Y-100716227D01*
X134510387Y-100724079D01*
X134531457Y-100734044D01*
X134551448Y-100746026D01*
X134570168Y-100759910D01*
X134587438Y-100775562D01*
X134603090Y-100792832D01*
X134616974Y-100811552D01*
X134628956Y-100831543D01*
X134638921Y-100852613D01*
X134646773Y-100874557D01*
X134652437Y-100897166D01*
X134655856Y-100920221D01*
X134657000Y-100943500D01*
X134657000Y-101418500D01*
X134655856Y-101441779D01*
X134652437Y-101464834D01*
X134646773Y-101487443D01*
X134638921Y-101509387D01*
X134628956Y-101530457D01*
X134616974Y-101550448D01*
X134603090Y-101569168D01*
X134587438Y-101586438D01*
X134570168Y-101602090D01*
X134551448Y-101615974D01*
X134531457Y-101627956D01*
X134510387Y-101637921D01*
X134488443Y-101645773D01*
X134465834Y-101651437D01*
X134442779Y-101654856D01*
X134419500Y-101656000D01*
X133844500Y-101656000D01*
X133821221Y-101654856D01*
X133798166Y-101651437D01*
X133775557Y-101645773D01*
X133753613Y-101637921D01*
X133732543Y-101627956D01*
X133712552Y-101615974D01*
X133693832Y-101602090D01*
X133676562Y-101586438D01*
X133660910Y-101569168D01*
X133647026Y-101550448D01*
X133635044Y-101530457D01*
X133625079Y-101509387D01*
X133617227Y-101487443D01*
X133611563Y-101464834D01*
X133608144Y-101441779D01*
X133607000Y-101418500D01*
X133607000Y-100943500D01*
X133608144Y-100920221D01*
X133611563Y-100897166D01*
X133617227Y-100874557D01*
X133625079Y-100852613D01*
X133635044Y-100831543D01*
X133647026Y-100811552D01*
X133660910Y-100792832D01*
X133676562Y-100775562D01*
X133693832Y-100759910D01*
X133712552Y-100746026D01*
X133732543Y-100734044D01*
X133753613Y-100724079D01*
X133775557Y-100716227D01*
X133798166Y-100710563D01*
X133821221Y-100707144D01*
X133844500Y-100706000D01*
X134419500Y-100706000D01*
X134442779Y-100707144D01*
X134442779Y-100707144D01*
G37*
D28*
G04 #@! TD*
G04 #@! TO.P,R26,1*
G04 #@! TO.N,MAIN_CURRENT_SENSE*
X134132000Y-101181000D03*
D27*
G04 #@! TO.N,GND*
G04 #@! TO.C,R26*
G36*
X132692779Y-100707144D02*
X132715834Y-100710563D01*
X132738443Y-100716227D01*
X132760387Y-100724079D01*
X132781457Y-100734044D01*
X132801448Y-100746026D01*
X132820168Y-100759910D01*
X132837438Y-100775562D01*
X132853090Y-100792832D01*
X132866974Y-100811552D01*
X132878956Y-100831543D01*
X132888921Y-100852613D01*
X132896773Y-100874557D01*
X132902437Y-100897166D01*
X132905856Y-100920221D01*
X132907000Y-100943500D01*
X132907000Y-101418500D01*
X132905856Y-101441779D01*
X132902437Y-101464834D01*
X132896773Y-101487443D01*
X132888921Y-101509387D01*
X132878956Y-101530457D01*
X132866974Y-101550448D01*
X132853090Y-101569168D01*
X132837438Y-101586438D01*
X132820168Y-101602090D01*
X132801448Y-101615974D01*
X132781457Y-101627956D01*
X132760387Y-101637921D01*
X132738443Y-101645773D01*
X132715834Y-101651437D01*
X132692779Y-101654856D01*
X132669500Y-101656000D01*
X132094500Y-101656000D01*
X132071221Y-101654856D01*
X132048166Y-101651437D01*
X132025557Y-101645773D01*
X132003613Y-101637921D01*
X131982543Y-101627956D01*
X131962552Y-101615974D01*
X131943832Y-101602090D01*
X131926562Y-101586438D01*
X131910910Y-101569168D01*
X131897026Y-101550448D01*
X131885044Y-101530457D01*
X131875079Y-101509387D01*
X131867227Y-101487443D01*
X131861563Y-101464834D01*
X131858144Y-101441779D01*
X131857000Y-101418500D01*
X131857000Y-100943500D01*
X131858144Y-100920221D01*
X131861563Y-100897166D01*
X131867227Y-100874557D01*
X131875079Y-100852613D01*
X131885044Y-100831543D01*
X131897026Y-100811552D01*
X131910910Y-100792832D01*
X131926562Y-100775562D01*
X131943832Y-100759910D01*
X131962552Y-100746026D01*
X131982543Y-100734044D01*
X132003613Y-100724079D01*
X132025557Y-100716227D01*
X132048166Y-100710563D01*
X132071221Y-100707144D01*
X132094500Y-100706000D01*
X132669500Y-100706000D01*
X132692779Y-100707144D01*
X132692779Y-100707144D01*
G37*
D28*
G04 #@! TD*
G04 #@! TO.P,R26,2*
G04 #@! TO.N,GND*
X132382000Y-101181000D03*
D34*
G04 #@! TO.N,GND*
X162000000Y-129300000D03*
X162100000Y-127400000D03*
X153700000Y-128900000D03*
X172100000Y-93200000D03*
X174300000Y-92600000D03*
X174300000Y-90330000D03*
X163400000Y-88600000D03*
X166023356Y-92565531D03*
X131100000Y-110000000D03*
X137473880Y-109313200D03*
X136287000Y-93410000D03*
X140925000Y-93690000D03*
X128204000Y-126179000D03*
X128300000Y-130800000D03*
X142500000Y-132800000D03*
X131800000Y-94400000D03*
X161363616Y-91199287D03*
X161142920Y-92349299D03*
X155900000Y-97700000D03*
X144587000Y-93450000D03*
X155000000Y-89000000D03*
X146812000Y-115067000D03*
X132100000Y-98400000D03*
X129900000Y-122100000D03*
X130500000Y-125500000D03*
X147500000Y-109100000D03*
X147125011Y-94000000D03*
X168994855Y-132327656D03*
X168517519Y-133882481D03*
X155491880Y-109333200D03*
X131325000Y-87450000D03*
X143350000Y-115075000D03*
X137225000Y-101875000D03*
X143036000Y-117056000D03*
X168275000Y-129850000D03*
X166200000Y-128325000D03*
X139259166Y-128051331D03*
X138973882Y-124750000D03*
X139750000Y-123025000D03*
X142725000Y-122125000D03*
X142500000Y-119900000D03*
X140450000Y-120075000D03*
X139750000Y-121500000D03*
X155561683Y-93021077D03*
X150068487Y-93025944D03*
X151575011Y-94748769D03*
X150449988Y-94270619D03*
X142400000Y-129025000D03*
G04 #@! TO.N,3V3*
X162000000Y-94800000D03*
X169800000Y-91400000D03*
X169800000Y-89000000D03*
X161003272Y-93525022D03*
X134800000Y-114410002D03*
X161400000Y-133800000D03*
X165400000Y-132200000D03*
X156200000Y-107800000D03*
X162100000Y-97800000D03*
X129500000Y-129600000D03*
X130700000Y-130400000D03*
X129600000Y-128300000D03*
X129400000Y-120600000D03*
X132400000Y-120000000D03*
X131249988Y-119933558D03*
X134957312Y-118865017D03*
X133000000Y-105000000D03*
X130700000Y-101700000D03*
X142700000Y-125200000D03*
X145600000Y-124600000D03*
X144200000Y-124900000D03*
X154000000Y-103600000D03*
X153974988Y-108348751D03*
X156450000Y-106225000D03*
X167275000Y-126750000D03*
X157404998Y-97800000D03*
X148172329Y-120588110D03*
X153097622Y-114957536D03*
X154500000Y-128100000D03*
X150600000Y-124500000D03*
X156210000Y-128143000D03*
D35*
G04 #@! TO.N,/Power/REG_POWER*
X129800000Y-93600000D03*
X130000000Y-89800000D03*
D36*
X141000000Y-87900000D03*
X146700000Y-91900000D03*
X129900000Y-116325000D03*
X142100000Y-98805002D03*
X143325000Y-104250000D03*
X149800000Y-130800000D03*
X137983791Y-128475010D03*
G04 #@! TO.N,/V_MAIN*
X151076405Y-110938075D03*
X151148761Y-103003989D03*
D34*
G04 #@! TO.N,/V_USB*
X160600000Y-89700000D03*
X165900000Y-86800000D03*
X125600000Y-107500000D03*
X134608028Y-102286862D03*
X129000000Y-104800000D03*
X129700000Y-103400000D03*
X136194890Y-100700000D03*
X156525224Y-91227964D03*
X151221768Y-95941773D03*
X147999998Y-98475000D03*
X143049725Y-100778614D03*
X141049713Y-100700000D03*
X147679938Y-101123321D03*
X147058108Y-99963688D03*
G04 #@! TO.N,/TXD*
X135600000Y-114500000D03*
X153451766Y-113051563D03*
X152321147Y-113548238D03*
X129100000Y-109200000D03*
X131200000Y-111800000D03*
X139760580Y-114645968D03*
G04 #@! TO.N,/RXD*
X157300000Y-114200000D03*
X139101990Y-118301990D03*
X141174990Y-118300000D03*
X129100000Y-110500000D03*
X133300000Y-115500000D03*
X135200010Y-116577566D03*
X152945402Y-114172139D03*
X154101723Y-114298768D03*
X151575002Y-116050000D03*
X157881817Y-111200000D03*
G04 #@! TO.N,/SCL*
X158600000Y-88600000D03*
X157300000Y-87400000D03*
X157039720Y-120299990D03*
X158451382Y-104513914D03*
X154070271Y-104396919D03*
X148090547Y-121383931D03*
X157822121Y-119375010D03*
G04 #@! TO.N,/SDA*
X158000000Y-89500000D03*
X171200000Y-89800000D03*
X158500000Y-87600000D03*
X157600000Y-88700000D03*
X155507880Y-119501200D03*
X157173364Y-105313449D03*
X148210691Y-122174870D03*
G04 #@! TO.N,/Power/REG3_PRE*
X135497257Y-127443211D03*
X139598892Y-126834473D03*
G04 #@! TO.N,/Power/OUT2*
X158600000Y-105300000D03*
X160500000Y-104900000D03*
X149543595Y-107373532D03*
X152402629Y-107546853D03*
X153500023Y-109938094D03*
X152613553Y-109146883D03*
X147050000Y-112450000D03*
G04 #@! TO.N,/Power/OUT3*
X163957000Y-133223000D03*
X132270500Y-135191500D03*
X162179000Y-135572500D03*
G04 #@! TO.N,/Power/OUT1*
X160425703Y-91774297D03*
X156400000Y-94100000D03*
X150741438Y-98084731D03*
X156200000Y-96500000D03*
X146785792Y-97966488D03*
D36*
G04 #@! TO.N,/PACK2*
X157431825Y-108695332D03*
X158300000Y-106600000D03*
D34*
X148400000Y-113900000D03*
X152000000Y-112400000D03*
D36*
G04 #@! TO.N,/PACK3*
X153300000Y-123066210D03*
X148273090Y-125391137D03*
D34*
X146977502Y-133612449D03*
X146804712Y-129024990D03*
X150197646Y-129024990D03*
X134810500Y-133159500D03*
G04 #@! TO.N,/PACK1*
X153024704Y-95300237D03*
X147850000Y-99850000D03*
G04 #@! TO.N,/USB_EN*
X148800000Y-108500000D03*
X148894671Y-102815322D03*
X152123698Y-110255649D03*
X150123687Y-109806121D03*
X147543406Y-107343406D03*
X148895200Y-114585735D03*
X152371779Y-95962711D03*
X152976324Y-96993848D03*
X147771077Y-101918125D03*
X151155906Y-120105906D03*
G04 #@! TO.N,/microcontroller/SCLK*
X129200000Y-90800000D03*
X129100000Y-92700000D03*
X131500000Y-114400000D03*
X145200000Y-120700000D03*
X130040053Y-104579949D03*
X135200010Y-117500000D03*
G04 #@! TO.N,/microcontroller/MOSI*
X141800000Y-115400000D03*
X141787002Y-113900000D03*
X152000000Y-89100000D03*
X151700000Y-87700000D03*
X152052373Y-97509721D03*
X152100000Y-91200000D03*
G04 #@! TO.N,/microcontroller/MISO*
X128000000Y-87200000D03*
X128400000Y-96300000D03*
X128400000Y-106800000D03*
X128300000Y-111000000D03*
X134463790Y-126250012D03*
X134200000Y-125000000D03*
X135064376Y-119747918D03*
X133674629Y-118097965D03*
D36*
G04 #@! TO.N,Net-(D7-Pad1)*
X158900000Y-126800000D03*
X161130000Y-124570000D03*
D34*
G04 #@! TO.N,/REG1_EN*
X145700000Y-87800000D03*
X135400000Y-105079998D03*
X135400000Y-102400000D03*
G04 #@! TO.N,/REG2_EN*
X142800000Y-109300000D03*
X145087000Y-106385000D03*
X139075000Y-116825000D03*
G04 #@! TO.N,/REG3_EN*
X133324163Y-121937210D03*
X135600000Y-122000000D03*
X135807422Y-120044400D03*
G04 #@! TO.N,MAIN_CURRENT_SENSE*
X140050000Y-119200000D03*
X140300000Y-117650000D03*
X140775000Y-115600000D03*
X140525000Y-114410002D03*
X139675000Y-101400000D03*
X139675000Y-99975000D03*
X136075000Y-99375000D03*
X134775000Y-99375000D03*
X140250523Y-104580461D03*
X139675000Y-102585021D03*
G04 #@! TD*
D37*
G04 #@! TO.N,GND*
X162530000Y-128820000D02*
X162480000Y-128820000D01*
X162480000Y-128820000D02*
X162000000Y-129300000D01*
X162515000Y-126920000D02*
X162515000Y-126985000D01*
X162515000Y-126985000D02*
X162100000Y-127400000D01*
X153950000Y-129400000D02*
X153950000Y-129150000D01*
X153950000Y-129150000D02*
X153700000Y-128900000D01*
D38*
X171550000Y-93500000D02*
X171800000Y-93500000D01*
X171800000Y-93500000D02*
X172100000Y-93200000D01*
X174300000Y-91980000D02*
X174300000Y-92600000D01*
X163400000Y-89500000D02*
X163400000Y-88600000D01*
X163350000Y-88550000D02*
X163400000Y-88600000D01*
X163350000Y-87800000D02*
X163350000Y-88550000D01*
X165788887Y-92800000D02*
X166023356Y-92565531D01*
X165175000Y-92800000D02*
X165788887Y-92800000D01*
X131550000Y-110750000D02*
X131550000Y-110450000D01*
X131550000Y-110450000D02*
X131100000Y-110000000D01*
X131600000Y-109500000D02*
X131100000Y-110000000D01*
X131600000Y-109150000D02*
X131600000Y-109500000D01*
D39*
X140925000Y-93690000D02*
X136567000Y-93690000D01*
X136567000Y-93690000D02*
X136287000Y-93410000D01*
X128204000Y-124354000D02*
X128204000Y-126179000D01*
X126450000Y-122600000D02*
X128204000Y-124354000D01*
X126400000Y-122600000D02*
X126450000Y-122600000D01*
X127575000Y-130800000D02*
X128300000Y-130800000D01*
X126450000Y-128975000D02*
X126450000Y-129675000D01*
X126450000Y-129675000D02*
X127575000Y-130800000D01*
X140675001Y-132775001D02*
X142475001Y-132775001D01*
X142475001Y-132775001D02*
X142500000Y-132800000D01*
X142524999Y-132775001D02*
X142500000Y-132800000D01*
X144775001Y-132775001D02*
X142524999Y-132775001D01*
X132075000Y-93900000D02*
X132075000Y-94125000D01*
X132075000Y-94125000D02*
X131800000Y-94400000D01*
X155200000Y-93025000D02*
X155203923Y-93021077D01*
X155203923Y-93021077D02*
X155561683Y-93021077D01*
X155261684Y-92721078D02*
X155561683Y-93021077D01*
X155200000Y-91900000D02*
X155200000Y-92659394D01*
X155200000Y-92659394D02*
X155261684Y-92721078D01*
X155200000Y-93600000D02*
X155200000Y-93025000D01*
D38*
X161363616Y-91222764D02*
X161363616Y-91199287D01*
X162225000Y-91600000D02*
X161740852Y-91600000D01*
X161193621Y-92400000D02*
X161142920Y-92349299D01*
X161740852Y-91600000D02*
X161363616Y-91222764D01*
X162225000Y-92400000D02*
X161193621Y-92400000D01*
X155225000Y-97025000D02*
X155900000Y-97700000D01*
X146583000Y-115067000D02*
X146812000Y-115067000D01*
X145800000Y-118200000D02*
X144000000Y-120000000D01*
X145800000Y-118000000D02*
X145800000Y-118200000D01*
X145800000Y-118000000D02*
X145800000Y-118400000D01*
D39*
X132475000Y-97075000D02*
X132475000Y-98025000D01*
X132475000Y-98025000D02*
X132100000Y-98400000D01*
X130500000Y-122600000D02*
X130400000Y-122600000D01*
X130400000Y-122600000D02*
X129900000Y-122100000D01*
X130500000Y-125500000D02*
X130500000Y-122600000D01*
X130500000Y-122600000D02*
X130500000Y-123883000D01*
X128503999Y-125879001D02*
X128204000Y-126179000D01*
X130500000Y-123883000D02*
X128503999Y-125879001D01*
X128724264Y-130800000D02*
X128300000Y-130800000D01*
X130550000Y-128975000D02*
X130550000Y-129624998D01*
X130550000Y-129624998D02*
X129374998Y-130800000D01*
X129374998Y-130800000D02*
X128724264Y-130800000D01*
D38*
X155000000Y-85580000D02*
X154560000Y-85140000D01*
X155000000Y-89000000D02*
X155000000Y-85580000D01*
X155225000Y-93625000D02*
X155200000Y-93600000D01*
X155225000Y-97025000D02*
X155225000Y-93625000D01*
X147475011Y-93650000D02*
X147125011Y-94000000D01*
X149225000Y-93650000D02*
X147475011Y-93650000D01*
D37*
X168515000Y-132110000D02*
X168597343Y-132027657D01*
X168340000Y-133960000D02*
X168440000Y-133960000D01*
X168440000Y-133960000D02*
X168517519Y-133882481D01*
X168597343Y-132027657D02*
X168694856Y-132027657D01*
X168694856Y-132027657D02*
X168994855Y-132327656D01*
D39*
X132350000Y-98650000D02*
X132100000Y-98400000D01*
X132350000Y-99425000D02*
X132350000Y-98650000D01*
D38*
X130450000Y-87425000D02*
X131300000Y-87425000D01*
X131300000Y-87425000D02*
X131325000Y-87450000D01*
X131350000Y-87475000D02*
X131325000Y-87450000D01*
X132275000Y-87475000D02*
X131350000Y-87475000D01*
X146804000Y-115075000D02*
X146812000Y-115067000D01*
X143350000Y-115075000D02*
X146804000Y-115075000D01*
D37*
X132382000Y-99457000D02*
X132350000Y-99425000D01*
X132382000Y-101181000D02*
X132382000Y-99457000D01*
D40*
X145800000Y-118000000D02*
X143980000Y-118000000D01*
X143980000Y-118000000D02*
X143036000Y-117056000D01*
D39*
X140775880Y-127347200D02*
X139963297Y-127347200D01*
X139963297Y-127347200D02*
X139259166Y-128051331D01*
X138973882Y-124750000D02*
X138973882Y-123801118D01*
X138973882Y-123801118D02*
X139750000Y-123025000D01*
D38*
X142725000Y-122125000D02*
X142725000Y-120125000D01*
X142725000Y-120125000D02*
X142500000Y-119900000D01*
X140450000Y-120075000D02*
X139750000Y-120775000D01*
X139750000Y-120775000D02*
X139750000Y-121500000D01*
X143900000Y-119900000D02*
X142500000Y-119900000D01*
X144000000Y-120000000D02*
X143900000Y-119900000D01*
X149444431Y-93650000D02*
X149768488Y-93325943D01*
X150025724Y-94270619D02*
X150449988Y-94270619D01*
X149768488Y-93325943D02*
X150068487Y-93025944D01*
X149225000Y-93650000D02*
X149845619Y-94270619D01*
X149845619Y-94270619D02*
X150025724Y-94270619D01*
X151973780Y-94350000D02*
X151575011Y-94748769D01*
X149225000Y-93650000D02*
X149444431Y-93650000D01*
X155200000Y-93600000D02*
X154450000Y-94350000D01*
X154450000Y-94350000D02*
X151973780Y-94350000D01*
X139559165Y-128351330D02*
X139559165Y-128659165D01*
X139259166Y-128051331D02*
X139559165Y-128351330D01*
X139559165Y-128659165D02*
X139975000Y-129075000D01*
X139975000Y-129075000D02*
X142350000Y-129075000D01*
X142350000Y-129075000D02*
X142400000Y-129025000D01*
D39*
G04 #@! TO.N,Net-(D1-Pad1)*
X134225000Y-129125000D02*
X134450000Y-128900000D01*
X132750000Y-129125000D02*
X134225000Y-129125000D01*
G04 #@! TO.N,Net-(D2-Pad1)*
X134125000Y-122900000D02*
X134300000Y-122725000D01*
X132450000Y-122900000D02*
X134125000Y-122900000D01*
D37*
G04 #@! TO.N,3V3*
X167110000Y-126920000D02*
X167160000Y-126870000D01*
X168115000Y-135160000D02*
X168040000Y-135160000D01*
D38*
X170600000Y-94300000D02*
X169800000Y-93500000D01*
X174800000Y-94300000D02*
X170600000Y-94300000D01*
X174300000Y-88280000D02*
X175080000Y-87500000D01*
X175080000Y-87500000D02*
X176000000Y-87500000D01*
X176000000Y-87500000D02*
X176400000Y-87900000D01*
X176400000Y-87900000D02*
X176400000Y-92700000D01*
X176400000Y-92700000D02*
X174800000Y-94300000D01*
X169825000Y-93475000D02*
X169800000Y-93500000D01*
X169825000Y-92000000D02*
X169825000Y-93475000D01*
X169300928Y-93999072D02*
X169800000Y-93500000D01*
X168200001Y-95099999D02*
X169300928Y-93999072D01*
X162299999Y-95099999D02*
X168200001Y-95099999D01*
X162000000Y-94800000D02*
X162299999Y-95099999D01*
X169825000Y-92000000D02*
X169825000Y-91425000D01*
X169825000Y-91425000D02*
X169800000Y-91400000D01*
X169800000Y-89000000D02*
X169800000Y-88500000D01*
X161692021Y-93200000D02*
X161366999Y-93525022D01*
X162225000Y-93200000D02*
X161692021Y-93200000D01*
X161366999Y-93525022D02*
X161003272Y-93525022D01*
X170925001Y-84905001D02*
X174300000Y-88280000D01*
X174300000Y-88280000D02*
X174300000Y-88680000D01*
X170925001Y-82725001D02*
X170925001Y-84905001D01*
X170800000Y-82600000D02*
X170925001Y-82725001D01*
X169800000Y-82600000D02*
X170800000Y-82600000D01*
D39*
X133466800Y-110583200D02*
X133300000Y-110750000D01*
D38*
X166675000Y-132200000D02*
X166765000Y-132110000D01*
D39*
X130750000Y-97050000D02*
X130725000Y-97075000D01*
X132075000Y-91575000D02*
X132075000Y-90900000D01*
X131599999Y-93495003D02*
X131599999Y-92050001D01*
X130750000Y-94345002D02*
X131599999Y-93495003D01*
X131599999Y-92050001D02*
X132075000Y-91575000D01*
X130750000Y-95550000D02*
X130750000Y-94345002D01*
D38*
X162100000Y-97800000D02*
X164200000Y-95700000D01*
X164200000Y-95700000D02*
X169100000Y-95700000D01*
X169800000Y-95000000D02*
X169800000Y-93500000D01*
X169100000Y-95700000D02*
X169800000Y-95000000D01*
X169674999Y-81474999D02*
X169800000Y-81600000D01*
X150605001Y-81474999D02*
X169674999Y-81474999D01*
X169800000Y-81600000D02*
X169800000Y-82600000D01*
X149480000Y-82600000D02*
X150605001Y-81474999D01*
D41*
X164315000Y-126870000D02*
X164265000Y-126920000D01*
X167160000Y-126870000D02*
X164315000Y-126870000D01*
X168740000Y-135160000D02*
X169700000Y-134200000D01*
X168040000Y-135160000D02*
X168740000Y-135160000D01*
X169700000Y-134074998D02*
X168610012Y-132985010D01*
X167640010Y-132985010D02*
X167264072Y-132609072D01*
X167264072Y-132609072D02*
X166765000Y-132110000D01*
X169700000Y-134200000D02*
X169700000Y-134074998D01*
X168610012Y-132985010D02*
X167640010Y-132985010D01*
X166765000Y-131322500D02*
X166765000Y-132110000D01*
X164290000Y-128847500D02*
X166765000Y-131322500D01*
X164265000Y-128822500D02*
X164290000Y-128847500D01*
X164265000Y-126920000D02*
X164265000Y-128822500D01*
X165490000Y-132110000D02*
X165400000Y-132200000D01*
X166765000Y-132110000D02*
X165490000Y-132110000D01*
X136250000Y-130662500D02*
X136250000Y-131200000D01*
X136250000Y-129349940D02*
X136250000Y-130662500D01*
X134450000Y-127549940D02*
X136250000Y-129349940D01*
X134450000Y-127325000D02*
X134450000Y-127549940D01*
D38*
X129400000Y-120500000D02*
X129400000Y-120600000D01*
D41*
X131500000Y-131200000D02*
X130700000Y-130400000D01*
X136250000Y-131200000D02*
X131500000Y-131200000D01*
X129500000Y-128400000D02*
X129600000Y-128300000D01*
X129500000Y-129600000D02*
X129500000Y-128400000D01*
X133150000Y-120000000D02*
X132400000Y-120000000D01*
X134300000Y-121150000D02*
X133150000Y-120000000D01*
X129400000Y-120175736D02*
X129400000Y-120600000D01*
X129642178Y-119933558D02*
X129400000Y-120175736D01*
X131249988Y-119933558D02*
X129642178Y-119933558D01*
X134300000Y-121150000D02*
X134300000Y-119522329D01*
X134300000Y-119522329D02*
X134957312Y-118865017D01*
X134800000Y-112250000D02*
X133300000Y-110750000D01*
X134800000Y-114410002D02*
X134800000Y-112250000D01*
X137307080Y-110750000D02*
X137473880Y-110583200D01*
X133300000Y-110750000D02*
X137307080Y-110750000D01*
X133300000Y-109200000D02*
X133350000Y-109150000D01*
X133300000Y-110750000D02*
X133300000Y-109200000D01*
X133350000Y-109150000D02*
X133350000Y-105350000D01*
X133350000Y-105350000D02*
X133000000Y-105000000D01*
X130700000Y-97100000D02*
X130725000Y-97075000D01*
X130700000Y-101700000D02*
X130700000Y-97100000D01*
X130725000Y-95575000D02*
X130750000Y-95550000D01*
X130725000Y-97075000D02*
X130725000Y-95575000D01*
X145600000Y-124600000D02*
X144500000Y-124600000D01*
X144500000Y-124600000D02*
X144200000Y-124900000D01*
D38*
X156200000Y-107800000D02*
X155775736Y-107800000D01*
X154365123Y-107861014D02*
X154365123Y-108285278D01*
X154365123Y-108285278D02*
X154301650Y-108348751D01*
X155775736Y-107800000D02*
X155525735Y-107549999D01*
X154676138Y-107549999D02*
X154365123Y-107861014D01*
X155525735Y-107549999D02*
X154676138Y-107549999D01*
X154301650Y-108348751D02*
X153974988Y-108348751D01*
X154424264Y-103600000D02*
X154000000Y-103600000D01*
X156450000Y-105625736D02*
X154424264Y-103600000D01*
X156450000Y-106225000D02*
X156450000Y-105625736D01*
D41*
X139900000Y-125200000D02*
X142700000Y-125200000D01*
X138857881Y-126242119D02*
X139900000Y-125200000D01*
X138777881Y-126743201D02*
X138857881Y-126663201D01*
X138857881Y-126663201D02*
X138857881Y-126242119D01*
X134450000Y-127325000D02*
X135031799Y-126743201D01*
X135031799Y-126743201D02*
X138777881Y-126743201D01*
X167160000Y-126870000D02*
X167160000Y-126865000D01*
X167160000Y-126865000D02*
X167275000Y-126750000D01*
D38*
X156646538Y-98558460D02*
X157404998Y-97800000D01*
X156646538Y-101050010D02*
X156646538Y-98558460D01*
X154424264Y-103272284D02*
X156646538Y-101050010D01*
X154424264Y-103600000D02*
X154424264Y-103272284D01*
X153097622Y-115381800D02*
X153097622Y-114957536D01*
X153097622Y-115402378D02*
X153097622Y-115381800D01*
X150200000Y-118279422D02*
X153097622Y-115381800D01*
X150100000Y-118400000D02*
X150200000Y-118300000D01*
X150200000Y-118300000D02*
X150200000Y-118279422D01*
X148172329Y-120588110D02*
X150100000Y-118660439D01*
X150100000Y-118660439D02*
X150100000Y-118400000D01*
D41*
X154500000Y-128100000D02*
X154091879Y-127691879D01*
X154091879Y-127691879D02*
X154091879Y-127013197D01*
X154091879Y-127013197D02*
X151578682Y-124500000D01*
X151578682Y-124500000D02*
X151024264Y-124500000D01*
X151024264Y-124500000D02*
X150600000Y-124500000D01*
X161000000Y-134200000D02*
X157100000Y-134200000D01*
X161400000Y-133800000D02*
X161000000Y-134200000D01*
X157100000Y-134200000D02*
X156869500Y-134200000D01*
X156869500Y-134200000D02*
X156210000Y-133540500D01*
X156210000Y-133540500D02*
X156210000Y-128143000D01*
D39*
G04 #@! TO.N,Net-(D3-Pad1)*
X136375000Y-132900000D02*
X136250000Y-132775000D01*
X138050000Y-132900000D02*
X136375000Y-132900000D01*
D42*
G04 #@! TO.N,/Power/REG_POWER*
X132225000Y-89175000D02*
X132275000Y-89225000D01*
X130450000Y-89175000D02*
X132225000Y-89175000D01*
D40*
X130575000Y-92900000D02*
X130500000Y-92900000D01*
X130500000Y-92900000D02*
X129800000Y-93600000D01*
X130000000Y-89625000D02*
X130450000Y-89175000D01*
X130000000Y-89800000D02*
X130000000Y-89625000D01*
D42*
X135950000Y-87900000D02*
X141000000Y-87900000D01*
X139533781Y-130025000D02*
X138733790Y-129225009D01*
X138733790Y-129225009D02*
X137983791Y-128475010D01*
X149025000Y-130025000D02*
X139533781Y-130025000D01*
X149800000Y-130800000D02*
X149025000Y-130025000D01*
X146125001Y-93535659D02*
X146700000Y-92960660D01*
X146125001Y-94750001D02*
X146125001Y-93535659D01*
X146725000Y-95350000D02*
X146125001Y-94750001D01*
X149225000Y-95350000D02*
X146725000Y-95350000D01*
X146700000Y-92960660D02*
X146700000Y-91900000D01*
X134175000Y-87900000D02*
X135950000Y-87900000D01*
X132850000Y-89225000D02*
X134175000Y-87900000D01*
X132275000Y-89225000D02*
X132850000Y-89225000D01*
X140155002Y-103585023D02*
X132514981Y-103585023D01*
X140165027Y-103574998D02*
X140155002Y-103585023D01*
X143325000Y-104250000D02*
X142649998Y-103574998D01*
X130100000Y-106000004D02*
X130100000Y-115064340D01*
X142649998Y-103574998D02*
X140165027Y-103574998D01*
X130100000Y-115064340D02*
X129900000Y-115264340D01*
X129900000Y-115264340D02*
X129900000Y-116325000D01*
X132514981Y-103585023D02*
X130100000Y-106000004D01*
X142825928Y-103750928D02*
X143325000Y-104250000D01*
X142100000Y-98805002D02*
X142100000Y-99865662D01*
X142049723Y-102974723D02*
X142825928Y-103750928D01*
X142100000Y-99865662D02*
X142049723Y-99915939D01*
X142049723Y-99915939D02*
X142049723Y-102974723D01*
G04 #@! TO.N,/V_MAIN*
X151898760Y-103753988D02*
X151148761Y-103003989D01*
X151123697Y-110890783D02*
X151123697Y-107279689D01*
X151076405Y-110938075D02*
X151123697Y-110890783D01*
X152100001Y-106303385D02*
X152100001Y-103955229D01*
X151123697Y-107279689D02*
X152100001Y-106303385D01*
X152100001Y-103955229D02*
X151898760Y-103753988D01*
D38*
G04 #@! TO.N,/V_USB*
X169800000Y-85140000D02*
X167260000Y-85140000D01*
D39*
X153400000Y-93550000D02*
X153450000Y-93600000D01*
X153400000Y-91875000D02*
X153400000Y-93550000D01*
D38*
X160899999Y-89000201D02*
X163200200Y-86700000D01*
X160600000Y-89700000D02*
X160899999Y-89400001D01*
X160899999Y-89400001D02*
X160899999Y-89000201D01*
X163200200Y-86700000D02*
X165800000Y-86700000D01*
X165800000Y-86700000D02*
X165900000Y-86800000D01*
X117950660Y-112710000D02*
X119490000Y-112710000D01*
X116890000Y-112710000D02*
X117950660Y-112710000D01*
X125600000Y-107500000D02*
X128700000Y-107500000D01*
X128700000Y-107500000D02*
X129000000Y-107200000D01*
X129000000Y-107200000D02*
X129000000Y-104800000D01*
X130813138Y-102286862D02*
X134608028Y-102286862D01*
X129700000Y-103400000D02*
X130813138Y-102286862D01*
D39*
X151525003Y-91774999D02*
X151625004Y-91875000D01*
X149225000Y-91950000D02*
X149400001Y-91774999D01*
X149400001Y-91774999D02*
X151525003Y-91774999D01*
X151625004Y-91875000D02*
X152825000Y-91875000D01*
X152825000Y-91875000D02*
X153400000Y-91875000D01*
D38*
X153400000Y-91875000D02*
X154175010Y-91099990D01*
X156100960Y-91227964D02*
X156525224Y-91227964D01*
X155972986Y-91099990D02*
X156100960Y-91227964D01*
X154175010Y-91099990D02*
X155972986Y-91099990D01*
X136194890Y-100700000D02*
X141049713Y-100700000D01*
X147058108Y-99416890D02*
X147058108Y-99539424D01*
X147058108Y-99539424D02*
X147058108Y-99963688D01*
X147999998Y-98475000D02*
X147058108Y-99416890D01*
X143049725Y-100778614D02*
X143394432Y-101123321D01*
X143394432Y-101123321D02*
X147255674Y-101123321D01*
X147255674Y-101123321D02*
X147679938Y-101123321D01*
X150190000Y-91950000D02*
X151024989Y-92784989D01*
X151221768Y-95517509D02*
X151221768Y-95941773D01*
X151024989Y-94570011D02*
X151000001Y-94594999D01*
X151024989Y-92784989D02*
X151024989Y-94570011D01*
X151000001Y-95295742D02*
X151221768Y-95517509D01*
X151000001Y-94594999D02*
X151000001Y-95295742D01*
X149225000Y-91950000D02*
X150190000Y-91950000D01*
D39*
G04 #@! TO.N,/PROG*
X140650000Y-131150000D02*
X140675001Y-131175001D01*
X138050000Y-131150000D02*
X140650000Y-131150000D01*
X144025001Y-131175001D02*
X140675001Y-131175001D01*
X144775001Y-131175001D02*
X144025001Y-131175001D01*
X152604117Y-132775002D02*
X155491880Y-129887239D01*
X144775001Y-131175001D02*
X144825001Y-131175001D01*
X155491880Y-126593200D02*
X155491880Y-125843200D01*
X146425002Y-132775002D02*
X152604117Y-132775002D01*
X144825001Y-131175001D02*
X146425002Y-132775002D01*
X155491880Y-129887239D02*
X155491880Y-126593200D01*
G04 #@! TO.N,/TXD*
X159800702Y-92074298D02*
X159825013Y-92098609D01*
X156741880Y-113143200D02*
X155491880Y-113143200D01*
X162180000Y-85140000D02*
X159800702Y-87519298D01*
X159800702Y-87519298D02*
X159800702Y-92074298D01*
X159825013Y-92098609D02*
X159825013Y-110611398D01*
X159825013Y-110611398D02*
X157293211Y-113143200D01*
X157293211Y-113143200D02*
X156741880Y-113143200D01*
D38*
X127748996Y-108210000D02*
X120550660Y-108210000D01*
X135600000Y-114500000D02*
X135114997Y-114985003D01*
X120550660Y-108210000D02*
X119490000Y-108210000D01*
X155491880Y-113143200D02*
X153543403Y-113143200D01*
X153543403Y-113143200D02*
X153451766Y-113051563D01*
X127748996Y-108210000D02*
X128110000Y-108210000D01*
X128110000Y-108210000D02*
X129100000Y-109200000D01*
X133960739Y-114985003D02*
X134800000Y-114985003D01*
X131200000Y-112224264D02*
X133960739Y-114985003D01*
X131200000Y-111800000D02*
X131200000Y-112224264D01*
X135114997Y-114985003D02*
X134800000Y-114985003D01*
X134800000Y-114985003D02*
X134523999Y-114985003D01*
X147988176Y-114491998D02*
X141519006Y-114491998D01*
X141519006Y-114491998D02*
X141026001Y-114985003D01*
X141026001Y-114985003D02*
X140099615Y-114985003D01*
X152321147Y-113548238D02*
X150708648Y-115160737D01*
X140060579Y-114945967D02*
X139760580Y-114645968D01*
X140099615Y-114985003D02*
X140060579Y-114945967D01*
X148656915Y-115160737D02*
X147988176Y-114491998D01*
X150708648Y-115160737D02*
X148656915Y-115160737D01*
D39*
G04 #@! TO.N,/FACTORY*
X126450000Y-127375000D02*
X130550000Y-127375000D01*
X130550000Y-127375000D02*
X132750000Y-127375000D01*
X133874998Y-125625002D02*
X134500002Y-125625002D01*
X134500002Y-125625002D02*
X135543804Y-124581200D01*
X132750000Y-127375000D02*
X132750000Y-126750000D01*
X132750000Y-126750000D02*
X133874998Y-125625002D01*
X136223880Y-124581200D02*
X137473880Y-124581200D01*
X135543804Y-124581200D02*
X136223880Y-124581200D01*
G04 #@! TO.N,/RXD*
X157021200Y-114421200D02*
X155507880Y-114421200D01*
X157078800Y-114421200D02*
X157021200Y-114421200D01*
X157300000Y-114200000D02*
X157078800Y-114421200D01*
D38*
X141173000Y-118301990D02*
X141174990Y-118300000D01*
X139101990Y-118301990D02*
X141173000Y-118301990D01*
X119490000Y-110210000D02*
X128705556Y-110210000D01*
X128705556Y-110210000D02*
X128810000Y-110210000D01*
X128810000Y-110210000D02*
X129100000Y-110500000D01*
X133300000Y-115500000D02*
X134022444Y-115500000D01*
X134022444Y-115500000D02*
X134800011Y-116277567D01*
X134800011Y-116277567D02*
X134900011Y-116277567D01*
X134900011Y-116277567D02*
X135200010Y-116577566D01*
X134773123Y-116277567D02*
X134800011Y-116277567D01*
D39*
X154224155Y-114421200D02*
X154101723Y-114298768D01*
X155507880Y-114421200D02*
X154224155Y-114421200D01*
D38*
X151875001Y-115242540D02*
X152645403Y-114472138D01*
X152645403Y-114472138D02*
X152945402Y-114172139D01*
X151875001Y-115750001D02*
X151875001Y-115242540D01*
X151575002Y-116050000D02*
X151875001Y-115750001D01*
D39*
X158181816Y-110900001D02*
X157881817Y-111200000D01*
X159375002Y-92285009D02*
X159375002Y-109706815D01*
X159350691Y-92260698D02*
X159375002Y-92285009D01*
X159375002Y-109706815D02*
X158181816Y-110900001D01*
X159350691Y-86631390D02*
X159350691Y-92260698D01*
X159640000Y-86342081D02*
X159350691Y-86631390D01*
X159640000Y-85140000D02*
X159640000Y-86342081D01*
D38*
G04 #@! TO.N,/SCL*
X173120000Y-88500000D02*
X173300000Y-88680000D01*
X171550000Y-88500000D02*
X173120000Y-88500000D01*
X171550000Y-88500000D02*
X169650000Y-86600000D01*
X169650000Y-86600000D02*
X166800000Y-86600000D01*
X166800000Y-86600000D02*
X166000000Y-85800000D01*
X166000000Y-83880000D02*
X164720000Y-82600000D01*
X166000000Y-85800000D02*
X166000000Y-83880000D01*
X163594999Y-83725001D02*
X163574999Y-83725001D01*
X164720000Y-82600000D02*
X163594999Y-83725001D01*
X163574999Y-83725001D02*
X163400000Y-83900000D01*
X159214998Y-83900000D02*
X158400000Y-84714998D01*
X163400000Y-83900000D02*
X159214998Y-83900000D01*
X158400000Y-84714998D02*
X158400000Y-86300000D01*
X158400000Y-86300000D02*
X157300000Y-87400000D01*
X169239891Y-90200000D02*
X166239891Y-93200000D01*
X166239891Y-93200000D02*
X165675000Y-93200000D01*
X169850000Y-90200000D02*
X169239891Y-90200000D01*
X171550000Y-88500000D02*
X169850000Y-90200000D01*
X165675000Y-93200000D02*
X165175000Y-93200000D01*
X166990000Y-135160000D02*
X163760000Y-135160000D01*
X163760000Y-135160000D02*
X157039720Y-128439720D01*
X157039720Y-128439720D02*
X157039720Y-120724254D01*
X157039720Y-120724254D02*
X157039720Y-120299990D01*
X155491880Y-118223200D02*
X154341880Y-118223200D01*
X158600000Y-88600000D02*
X158899999Y-88899999D01*
X158899999Y-88899999D02*
X158899999Y-104065297D01*
X158899999Y-104065297D02*
X158751381Y-104213915D01*
X158751381Y-104213915D02*
X158451382Y-104513914D01*
X154341880Y-118223200D02*
X151614640Y-118223200D01*
X151614640Y-118223200D02*
X148453909Y-121383931D01*
X148453909Y-121383931D02*
X148090547Y-121383931D01*
X153226332Y-113622914D02*
X153121924Y-113622914D01*
X153121924Y-113622914D02*
X152875012Y-113376002D01*
X152875012Y-112870982D02*
X152925013Y-112820981D01*
X152925013Y-112820981D02*
X152925013Y-109673426D01*
X153672623Y-114681535D02*
X153525332Y-114534244D01*
X153672623Y-117553943D02*
X153672623Y-114681535D01*
X153525332Y-113921914D02*
X153226332Y-113622914D01*
X153379374Y-109099131D02*
X153049975Y-108769732D01*
X152925013Y-109673426D02*
X153379374Y-109219065D01*
X153525332Y-114534244D02*
X153525332Y-113921914D01*
X153379374Y-109219065D02*
X153379374Y-109099131D01*
X153049975Y-105417215D02*
X153770272Y-104696918D01*
X153049975Y-108769732D02*
X153049975Y-105417215D01*
X154341880Y-118223200D02*
X153672623Y-117553943D01*
X153770272Y-104696918D02*
X154070271Y-104396919D01*
X152875012Y-113376002D02*
X152875012Y-112870982D01*
X157522122Y-119075011D02*
X157822121Y-119375010D01*
X156670311Y-118223200D02*
X157522122Y-119075011D01*
X155491880Y-118223200D02*
X156670311Y-118223200D01*
G04 #@! TO.N,/SDA*
X171595000Y-91980000D02*
X171575000Y-92000000D01*
X173300000Y-91980000D02*
X171595000Y-91980000D01*
X171575000Y-92000000D02*
X171575000Y-90175000D01*
X171575000Y-90175000D02*
X171200000Y-89800000D01*
X158500000Y-87800000D02*
X157600000Y-88700000D01*
X158500000Y-87600000D02*
X158500000Y-87800000D01*
X169234881Y-90700000D02*
X170275000Y-90700000D01*
X170275000Y-90700000D02*
X171075928Y-91500928D01*
X171075928Y-91500928D02*
X171575000Y-92000000D01*
X166334881Y-93600000D02*
X169234881Y-90700000D01*
X165175000Y-93600000D02*
X166334881Y-93600000D01*
X156881669Y-119724989D02*
X156657880Y-119501200D01*
X157614721Y-127814721D02*
X157614721Y-120023989D01*
X156657880Y-119501200D02*
X155507880Y-119501200D01*
X166990000Y-133960000D02*
X163760000Y-133960000D01*
X157315721Y-119724989D02*
X156881669Y-119724989D01*
X157614721Y-120023989D02*
X157315721Y-119724989D01*
X163760000Y-133960000D02*
X157614721Y-127814721D01*
X158000000Y-104062549D02*
X157173364Y-104889185D01*
X158000000Y-89500000D02*
X158000000Y-104062549D01*
X157173364Y-104889185D02*
X157173364Y-105313449D01*
X148510690Y-121874871D02*
X148210691Y-122174870D01*
X150884361Y-119501200D02*
X148510690Y-121874871D01*
X155507880Y-119501200D02*
X150884361Y-119501200D01*
D37*
G04 #@! TO.N,/I02*
X152200000Y-127353080D02*
X152205880Y-127347200D01*
X152200000Y-129400000D02*
X152200000Y-127353080D01*
D39*
G04 #@! TO.N,/Power/REG3_PRE*
X135964732Y-127400000D02*
X139033365Y-127400000D01*
X135921521Y-127443211D02*
X135964732Y-127400000D01*
X139298893Y-127134472D02*
X139598892Y-126834473D01*
X139033365Y-127400000D02*
X139298893Y-127134472D01*
X135497257Y-127443211D02*
X135921521Y-127443211D01*
G04 #@! TO.N,Net-(R9-Pad2)*
X132575000Y-95475000D02*
X132500000Y-95550000D01*
X132575000Y-93900000D02*
X132575000Y-95475000D01*
D38*
G04 #@! TO.N,/Power/OUT2*
X160500000Y-104475736D02*
X160500000Y-104900000D01*
X160775700Y-92924300D02*
X160300000Y-93400000D01*
X161543221Y-92800000D02*
X161418921Y-92924300D01*
X162225000Y-92800000D02*
X161543221Y-92800000D01*
X161418921Y-92924300D02*
X160775700Y-92924300D01*
X160300000Y-93400000D02*
X160300000Y-104275736D01*
X160300000Y-104275736D02*
X160500000Y-104475736D01*
X152402629Y-107546853D02*
X152402629Y-108935959D01*
X152402629Y-108935959D02*
X152613553Y-109146883D01*
X148075001Y-111224999D02*
X148075001Y-108373995D01*
X149119331Y-107373532D02*
X149543595Y-107373532D01*
X149075464Y-107373532D02*
X149119331Y-107373532D01*
X147200000Y-112100000D02*
X148075001Y-111224999D01*
X148075001Y-108373995D02*
X149075464Y-107373532D01*
X153399986Y-108072749D02*
X153399986Y-108624753D01*
X158600000Y-105300000D02*
X158101002Y-105300000D01*
X157025001Y-106376001D02*
X157025001Y-106789702D01*
X156614714Y-107199989D02*
X154272746Y-107199989D01*
X153399986Y-108624753D02*
X153800022Y-109024789D01*
X153800022Y-109638095D02*
X153500023Y-109938094D01*
X154272746Y-107199989D02*
X153399986Y-108072749D01*
X153800022Y-109024789D02*
X153800022Y-109638095D01*
X157025001Y-106789702D02*
X156614714Y-107199989D01*
X158101002Y-105300000D02*
X157025001Y-106376001D01*
X147200000Y-112100000D02*
X147200000Y-112300000D01*
X147200000Y-112300000D02*
X147050000Y-112450000D01*
D39*
G04 #@! TO.N,/EN*
X132300000Y-121000000D02*
X132450000Y-121150000D01*
X130500000Y-121000000D02*
X132300000Y-121000000D01*
X130274998Y-121225002D02*
X130500000Y-121000000D01*
X127375002Y-121225002D02*
X130274998Y-121225002D01*
X127150000Y-121000000D02*
X127375002Y-121225002D01*
X126400000Y-121000000D02*
X127150000Y-121000000D01*
D38*
X133474002Y-119224998D02*
X132323998Y-119224998D01*
X136182879Y-111994201D02*
X136182879Y-114766117D01*
X132323998Y-119224998D02*
X131824998Y-119723998D01*
X136182879Y-114766117D02*
X135775012Y-115173984D01*
X131950928Y-120650928D02*
X132450000Y-121150000D01*
X136323880Y-111853200D02*
X136182879Y-111994201D01*
X135775012Y-115173984D02*
X135775012Y-117776002D01*
X137473880Y-111853200D02*
X136323880Y-111853200D01*
X135775012Y-117776002D02*
X135426016Y-118124998D01*
X135426016Y-118124998D02*
X134574002Y-118124998D01*
X134574002Y-118124998D02*
X133474002Y-119224998D01*
X131824998Y-119723998D02*
X131824998Y-120524998D01*
X131824998Y-120524998D02*
X131950928Y-120650928D01*
G04 #@! TO.N,/Power/OUT3*
X162000000Y-93600000D02*
X161300000Y-94300000D01*
X162225000Y-93600000D02*
X162000000Y-93600000D01*
X161300000Y-94300000D02*
X161300000Y-118033414D01*
X161300000Y-118033414D02*
X161300000Y-118100000D01*
X161300000Y-118033414D02*
X161300000Y-122057000D01*
X161300000Y-122057000D02*
X162750500Y-123507500D01*
X162750500Y-123507500D02*
X162750500Y-125031500D01*
X162750500Y-125031500D02*
X160274000Y-127508000D01*
X160274000Y-127508000D02*
X160274000Y-129921000D01*
X160274000Y-129921000D02*
X163576000Y-133223000D01*
X163576000Y-133223000D02*
X163957000Y-133223000D01*
X132270500Y-135191500D02*
X132715000Y-135636000D01*
X132715000Y-135636000D02*
X162115500Y-135636000D01*
X162115500Y-135636000D02*
X162179000Y-135572500D01*
G04 #@! TO.N,/Power/OUT1*
X161960135Y-92000000D02*
X162225000Y-92000000D01*
X162225000Y-92000000D02*
X161644625Y-92000000D01*
X161418922Y-91774297D02*
X160425703Y-91774297D01*
X161644625Y-92000000D02*
X161418922Y-91774297D01*
X150626169Y-98200000D02*
X150741438Y-98084731D01*
X150600000Y-98200000D02*
X150626169Y-98200000D01*
X156200000Y-94300000D02*
X156400000Y-94100000D01*
X156200000Y-96500000D02*
X156200000Y-94300000D01*
X150741438Y-98084731D02*
X150317174Y-98084731D01*
X147210056Y-97966488D02*
X146785792Y-97966488D01*
X150132442Y-97899999D02*
X147276545Y-97899999D01*
X150317174Y-98084731D02*
X150132442Y-97899999D01*
X147276545Y-97899999D02*
X147210056Y-97966488D01*
G04 #@! TO.N,Net-(R17-Pad1)*
X165100000Y-87800000D02*
X165950010Y-88650010D01*
X165700000Y-91600000D02*
X166000000Y-91300000D01*
X165175000Y-91600000D02*
X165700000Y-91600000D01*
X165950010Y-88650010D02*
X166000000Y-91300000D01*
G04 #@! TO.N,Net-(R18-Pad1)*
X165150000Y-91175000D02*
X165175000Y-91200000D01*
X165150000Y-89500000D02*
X165150000Y-91175000D01*
D37*
G04 #@! TO.N,Net-(D8-Pad1)*
X162677500Y-130422500D02*
X162530000Y-130570000D01*
X164290000Y-130422500D02*
X162677500Y-130422500D01*
D40*
G04 #@! TO.N,/V_PANEL*
X129100000Y-91560000D02*
X124990000Y-91560000D01*
X129440000Y-91900000D02*
X129100000Y-91560000D01*
X130575000Y-91900000D02*
X129440000Y-91900000D01*
D39*
G04 #@! TO.N,Net-(R19-Pad2)*
X153425000Y-90150000D02*
X153400000Y-90125000D01*
X155200000Y-90150000D02*
X153425000Y-90150000D01*
X149225000Y-89465000D02*
X150315002Y-88374998D01*
X153400000Y-89500000D02*
X153400000Y-90125000D01*
X150315002Y-88374998D02*
X152274998Y-88374998D01*
X152274998Y-88374998D02*
X153400000Y-89500000D01*
X149225000Y-90250000D02*
X149225000Y-89465000D01*
D42*
G04 #@! TO.N,/PACK2*
X158300000Y-107660660D02*
X158300000Y-106600000D01*
X157431825Y-108695332D02*
X158300000Y-107827157D01*
X158300000Y-107827157D02*
X158300000Y-107660660D01*
D38*
X148400000Y-113900000D02*
X149900000Y-112400000D01*
X149900000Y-112400000D02*
X151575736Y-112400000D01*
X151575736Y-112400000D02*
X152000000Y-112400000D01*
D42*
G04 #@! TO.N,/PACK3*
X150598017Y-123066210D02*
X149023089Y-124641138D01*
X149023089Y-124641138D02*
X148273090Y-125391137D01*
X153300000Y-123066210D02*
X150598017Y-123066210D01*
D39*
X139312541Y-133612449D02*
X146553238Y-133612449D01*
X146804712Y-129024990D02*
X150197646Y-129024990D01*
X146553238Y-133612449D02*
X146977502Y-133612449D01*
X138200000Y-134724990D02*
X139312541Y-133612449D01*
X138200000Y-134724990D02*
X136375990Y-134724990D01*
X136375990Y-134724990D02*
X134810500Y-133159500D01*
D38*
G04 #@! TO.N,/PACK1*
X153024704Y-96139221D02*
X153024704Y-95724501D01*
X148325000Y-99100000D02*
X150700000Y-99100000D01*
X150700000Y-99100000D02*
X151400000Y-98400000D01*
X153024704Y-95724501D02*
X153024704Y-95300237D01*
X151400000Y-98400000D02*
X151400000Y-97294990D01*
X152157278Y-96537712D02*
X152626213Y-96537712D01*
X152626213Y-96537712D02*
X153024704Y-96139221D01*
X151400000Y-97294990D02*
X152157278Y-96537712D01*
X148325000Y-99375000D02*
X148325000Y-99100000D01*
X147850000Y-99850000D02*
X148325000Y-99375000D01*
G04 #@! TO.N,/USB_EN*
X150106121Y-109806121D02*
X150123687Y-109806121D01*
X148800000Y-108500000D02*
X150106121Y-109806121D01*
X148894671Y-102815322D02*
X148894671Y-105992141D01*
X147843405Y-107043407D02*
X147543406Y-107343406D01*
X148894671Y-105992141D02*
X147843405Y-107043407D01*
X152276002Y-112975002D02*
X150505933Y-112975002D01*
X152123698Y-110255649D02*
X152575002Y-110706953D01*
X149195199Y-114285736D02*
X148895200Y-114585735D01*
X150505933Y-112975002D02*
X149195199Y-114285736D01*
X152575002Y-110706953D02*
X152575002Y-112676002D01*
X152575002Y-112676002D02*
X152276002Y-112975002D01*
X153443848Y-96993848D02*
X153400588Y-96993848D01*
X153475000Y-97025000D02*
X153443848Y-96993848D01*
X149225000Y-97050000D02*
X151132756Y-97050000D01*
X151132756Y-97050000D02*
X152220045Y-95962711D01*
X152220045Y-95962711D02*
X152371779Y-95962711D01*
X153400588Y-96993848D02*
X152976324Y-96993848D01*
X148262002Y-100711002D02*
X148262002Y-101427200D01*
X148071076Y-101618126D02*
X147771077Y-101918125D01*
X148089689Y-100538689D02*
X148262002Y-100711002D01*
X146782107Y-100538689D02*
X148089689Y-100538689D01*
X145594535Y-99351117D02*
X146782107Y-100538689D01*
X145594535Y-98306741D02*
X145594535Y-99351117D01*
X148262002Y-101427200D02*
X148071076Y-101618126D01*
X149225000Y-97050000D02*
X146851276Y-97050000D01*
X146851276Y-97050000D02*
X145594535Y-98306741D01*
X155507880Y-122041200D02*
X153091200Y-122041200D01*
X151455905Y-120405905D02*
X151155906Y-120105906D01*
X153091200Y-122041200D02*
X151455905Y-120405905D01*
G04 #@! TO.N,/microcontroller/SCLK*
X147125880Y-122625880D02*
X147125880Y-127347200D01*
X145200000Y-120700000D02*
X147125880Y-122625880D01*
X130450201Y-86174999D02*
X129200000Y-87425200D01*
X130450201Y-82249799D02*
X130450201Y-86174999D01*
X129200000Y-87425200D02*
X129200000Y-90375736D01*
X131249989Y-81450011D02*
X130450201Y-82249799D01*
X140710011Y-81450011D02*
X131249989Y-81450011D01*
X141860000Y-82600000D02*
X140710011Y-81450011D01*
X129200000Y-90375736D02*
X129200000Y-90800000D01*
X129100000Y-92700000D02*
X129100000Y-103639896D01*
X129740054Y-104279950D02*
X130040053Y-104579949D01*
X129100000Y-103639896D02*
X129740054Y-104279950D01*
X134775746Y-117500000D02*
X135200010Y-117500000D01*
X134175736Y-117500000D02*
X134775746Y-117500000D01*
X131500000Y-114400000D02*
X131500000Y-114824264D01*
X131500000Y-114824264D02*
X134175736Y-117500000D01*
G04 #@! TO.N,/microcontroller/MOSI*
X148200000Y-83860000D02*
X146940000Y-82600000D01*
X148200000Y-85525002D02*
X148200000Y-83860000D01*
X151700000Y-87700000D02*
X150374998Y-87700000D01*
X150374998Y-87700000D02*
X148200000Y-85525002D01*
X152100000Y-89200000D02*
X152000000Y-89100000D01*
X152100000Y-91200000D02*
X152100000Y-89200000D01*
D39*
X142318078Y-125825002D02*
X143000002Y-125825002D01*
X142045880Y-126097200D02*
X142318078Y-125825002D01*
X141800000Y-122824153D02*
X141800000Y-115824264D01*
X143325002Y-124349155D02*
X141800000Y-122824153D01*
X142045880Y-127347200D02*
X142045880Y-126097200D01*
X143325002Y-125500002D02*
X143325002Y-124349155D01*
X141800000Y-115824264D02*
X141800000Y-115400000D01*
X143000002Y-125825002D02*
X143325002Y-125500002D01*
X152052373Y-97933985D02*
X152052373Y-97509721D01*
X148071079Y-102543127D02*
X152052373Y-98561833D01*
X141787002Y-108778698D02*
X148022573Y-102543127D01*
X148022573Y-102543127D02*
X148071079Y-102543127D01*
X141787002Y-113900000D02*
X141787002Y-108778698D01*
X152052373Y-98561833D02*
X152052373Y-97933985D01*
D38*
G04 #@! TO.N,/microcontroller/MISO*
X144400000Y-82600000D02*
X142900000Y-81100000D01*
X142900000Y-81100000D02*
X128600000Y-81100000D01*
X128600000Y-81100000D02*
X128000000Y-81700000D01*
X128000000Y-81700000D02*
X128000000Y-87200000D01*
X128400000Y-96300000D02*
X128100001Y-96599999D01*
X128100001Y-96599999D02*
X128100001Y-106500001D01*
X128100001Y-106500001D02*
X128400000Y-106800000D01*
X134870602Y-125843200D02*
X134763789Y-125950013D01*
X137457880Y-125843200D02*
X134870602Y-125843200D01*
X134763789Y-125950013D02*
X134463790Y-126250012D01*
X136175002Y-121391778D02*
X135064376Y-120281152D01*
X135064376Y-120281152D02*
X135064376Y-120172182D01*
X134200000Y-125000000D02*
X136175002Y-123024998D01*
X136175002Y-123024998D02*
X136175002Y-121391778D01*
X135064376Y-120172182D02*
X135064376Y-119747918D01*
X129297965Y-118097965D02*
X133250365Y-118097965D01*
X128300000Y-117100000D02*
X129297965Y-118097965D01*
X128300000Y-111000000D02*
X128300000Y-117100000D01*
X133250365Y-118097965D02*
X133674629Y-118097965D01*
D42*
G04 #@! TO.N,Net-(D7-Pad1)*
X161130000Y-124570000D02*
X158900000Y-126800000D01*
D39*
G04 #@! TO.N,/REG1_EN*
X144300001Y-89199999D02*
X136100001Y-89199999D01*
X145700000Y-87800000D02*
X144300001Y-89199999D01*
X136100001Y-89199999D02*
X135400000Y-89900000D01*
D38*
X135400000Y-105154318D02*
X135400000Y-105079998D01*
D39*
X135400000Y-102400000D02*
X135400000Y-89900000D01*
X139700001Y-116524999D02*
X139700001Y-117125001D01*
X135400000Y-105079998D02*
X139135578Y-108815576D01*
X139700001Y-117125001D02*
X139375001Y-117450001D01*
X139135578Y-115960576D02*
X139700001Y-116524999D01*
X138296882Y-118223200D02*
X137457880Y-118223200D01*
X139135578Y-108815576D02*
X139135578Y-115960576D01*
X139070081Y-117450001D02*
X138296882Y-118223200D01*
X139375001Y-117450001D02*
X139070081Y-117450001D01*
G04 #@! TO.N,/REG2_EN*
X142800000Y-109300000D02*
X142800000Y-108672000D01*
X142800000Y-108672000D02*
X145087000Y-106385000D01*
X137610080Y-116825000D02*
X137473880Y-116961200D01*
X139075000Y-116825000D02*
X137610080Y-116825000D01*
G04 #@! TO.N,/REG3_EN*
X133324163Y-121937210D02*
X135537210Y-121937210D01*
X135537210Y-121937210D02*
X135600000Y-122000000D01*
D38*
X137457880Y-115683200D02*
X136307880Y-115683200D01*
X136107421Y-119744401D02*
X135807422Y-120044400D01*
X136125022Y-115866058D02*
X136125022Y-119726800D01*
X136125022Y-119726800D02*
X136107421Y-119744401D01*
X136307880Y-115683200D02*
X136125022Y-115866058D01*
D39*
G04 #@! TO.N,MAIN_CURRENT_SENSE*
X137473880Y-119501200D02*
X139748800Y-119501200D01*
X139748800Y-119501200D02*
X140050000Y-119200000D01*
X140300000Y-117650000D02*
X140300000Y-116075000D01*
X140300000Y-116075000D02*
X140775000Y-115600000D01*
X139675000Y-99975000D02*
X139100000Y-99400000D01*
X139100000Y-99400000D02*
X136100000Y-99400000D01*
X136100000Y-99400000D02*
X136075000Y-99375000D01*
X134150000Y-99375000D02*
X134100000Y-99425000D01*
X134775000Y-99375000D02*
X134150000Y-99375000D01*
X134100000Y-98850000D02*
X134250000Y-98700000D01*
X134100000Y-99425000D02*
X134100000Y-98850000D01*
X134250000Y-98700000D02*
X134250000Y-98475000D01*
X134250000Y-98475000D02*
X134850000Y-97875000D01*
X134850000Y-97875000D02*
X134850000Y-91675000D01*
X134075000Y-90900000D02*
X132575000Y-90900000D01*
X134850000Y-91675000D02*
X134075000Y-90900000D01*
X140525000Y-104854938D02*
X140250523Y-104580461D01*
X140525000Y-114410002D02*
X140525000Y-104854938D01*
X139675000Y-101400000D02*
X139675000Y-102585021D01*
D37*
X134132000Y-99457000D02*
X134100000Y-99425000D01*
X134132000Y-101181000D02*
X134132000Y-99457000D01*
G04 #@! TD*
D43*
G04 #@! TO.N,/V_PANEL*
G36*
X127470365Y-87992655D02*
X127814017Y-88135000D01*
X128185983Y-88135000D01*
X128490000Y-88009072D01*
X128490001Y-90187709D01*
X128407345Y-90270365D01*
X128265000Y-90614017D01*
X128265000Y-90985983D01*
X128407345Y-91329635D01*
X128670365Y-91592655D01*
X129014017Y-91735000D01*
X129385983Y-91735000D01*
X129729635Y-91592655D01*
X129992655Y-91329635D01*
X130135000Y-90985983D01*
X130135000Y-90835000D01*
X130205874Y-90835000D01*
X130586280Y-90677431D01*
X130877431Y-90386280D01*
X130909027Y-90310000D01*
X131273000Y-90310000D01*
X131273000Y-91302199D01*
X131115527Y-91459672D01*
X131052071Y-91502072D01*
X131009671Y-91565528D01*
X131009670Y-91565529D01*
X130884096Y-91753464D01*
X130864385Y-91852560D01*
X129940000Y-91852560D01*
X129692235Y-91901843D01*
X129651411Y-91929121D01*
X129629635Y-91907345D01*
X129285983Y-91765000D01*
X128914017Y-91765000D01*
X128570365Y-91907345D01*
X128307345Y-92170365D01*
X128165000Y-92514017D01*
X128165000Y-92885983D01*
X128307345Y-93229635D01*
X128390000Y-93312290D01*
X128390000Y-95365000D01*
X128214017Y-95365000D01*
X127870365Y-95507345D01*
X127704710Y-95673000D01*
X121252606Y-95673000D01*
X121127000Y-95547394D01*
X121127000Y-87927000D01*
X127404710Y-87927000D01*
X127470365Y-87992655D01*
X127470365Y-87992655D01*
G37*
X127470365Y-87992655D02*
X127814017Y-88135000D01*
X128185983Y-88135000D01*
X128490000Y-88009072D01*
X128490001Y-90187709D01*
X128407345Y-90270365D01*
X128265000Y-90614017D01*
X128265000Y-90985983D01*
X128407345Y-91329635D01*
X128670365Y-91592655D01*
X129014017Y-91735000D01*
X129385983Y-91735000D01*
X129729635Y-91592655D01*
X129992655Y-91329635D01*
X130135000Y-90985983D01*
X130135000Y-90835000D01*
X130205874Y-90835000D01*
X130586280Y-90677431D01*
X130877431Y-90386280D01*
X130909027Y-90310000D01*
X131273000Y-90310000D01*
X131273000Y-91302199D01*
X131115527Y-91459672D01*
X131052071Y-91502072D01*
X131009671Y-91565528D01*
X131009670Y-91565529D01*
X130884096Y-91753464D01*
X130864385Y-91852560D01*
X129940000Y-91852560D01*
X129692235Y-91901843D01*
X129651411Y-91929121D01*
X129629635Y-91907345D01*
X129285983Y-91765000D01*
X128914017Y-91765000D01*
X128570365Y-91907345D01*
X128307345Y-92170365D01*
X128165000Y-92514017D01*
X128165000Y-92885983D01*
X128307345Y-93229635D01*
X128390000Y-93312290D01*
X128390000Y-95365000D01*
X128214017Y-95365000D01*
X127870365Y-95507345D01*
X127704710Y-95673000D01*
X121252606Y-95673000D01*
X121127000Y-95547394D01*
X121127000Y-87927000D01*
X127404710Y-87927000D01*
X127470365Y-87992655D01*
G04 #@! TD*
M02*
